M48
INCH,TZ
T01C0.011800
T02C0.019700
T03C0.032000
T04C0.039200
T05C0.059100
T06C0.098400
%
T01
X693Y38005
X893Y31405
X893Y23905
X893Y15305
X993Y37505
X993Y31905
X1229Y38105
X1293Y39505
X1393Y38605
X1496Y16732
X1593Y39805
X1593Y39105
X1593Y4505
X1652Y11361
X1652Y10861
X1654Y11890
X1693Y405
X1993Y30005
X2152Y16261
X2152Y15761
X2165Y17244
X2193Y32905
X2193Y26805
X2293Y41505
X2293Y33405
X2340Y18807
X2370Y23231
X2386Y35405
X2393Y32405
X2493Y31605
X2493Y29605
X2579Y19272
X2686Y17289
X2693Y30305
X2697Y15606
X2701Y16732
X2752Y12861
X2795Y28701
X2795Y24803
X2953Y19882
X2953Y11535
X2972Y18327
X3252Y16361
X3252Y12061
X3346Y19094
X3352Y15161
X3574Y23228
X3593Y38869
X3593Y27905
X3667Y20379
X3721Y18105
X3740Y17520
X3780Y18701
X3852Y15861
X3952Y13361
X3955Y12035
X3976Y19449
X4093Y38605
X4252Y28661
X4252Y16772
X4291Y27913
X4293Y34705
X4331Y24843
X4370Y19853
X4488Y18515
X4493Y37305
X4593Y38205
X4593Y34005
X4630Y22349
X4693Y39805
X4693Y35705
X4693Y31605
X4752Y14561
X4752Y13361
X4803Y19252
X4893Y23905
X4993Y27205
X4993Y24505
X5002Y20523
X5152Y12661
X5183Y17579
X5197Y18110
X5276Y16929
X5293Y21205
X5315Y18937
X5512Y19882
X5551Y20571
X5787Y18002
X5827Y29056
X5993Y32805
X5993Y30505
X6043Y20827
X6052Y16761
X6052Y11361
X6052Y15889
X6083Y20374
X6102Y19024
X6102Y18709
X6181Y19764
X6193Y36505
X6260Y19370
X6293Y38805
X6293Y35305
X6352Y17661
X6389Y31378
X6393Y40005
X6393Y38105
X6457Y30157
X6534Y29564
X6614Y10945
X6652Y12761
X6676Y32426
X6698Y13597
X6729Y37305
X6816Y17835
X6850Y20197
X6850Y19409
X7126Y32847
X7126Y30547
X7135Y35540
X7149Y14321
X7173Y31838
X7193Y35905
X7193Y33805
X7252Y15161
X7293Y21705
X7314Y34127
X7323Y17126
X7352Y12761
X7421Y32362
X7441Y30505
X7481Y20709
X7652Y15261
X7652Y11561
X7717Y10512
X7785Y30533
X7991Y15162
X7993Y33305
X8052Y11961
X8110Y10157
X8130Y31004
X8133Y35351
X8152Y16261
X8193Y305
X8195Y29226
X8334Y18418
X8346Y15157
X8366Y20354
X8386Y16890
X8397Y13073
X8406Y19016
X8543Y10157
X8693Y33405
X8693Y5105
X8740Y7874
X8780Y11969
X8794Y40011
X8798Y14614
X8799Y28268
X8893Y21205
X8976Y18386
X8976Y14055
X9016Y17283
X9056Y29468
X9093Y12905
X9114Y28858
X9118Y28504
X9232Y31220
X9291Y15709
X9293Y25705
X9567Y4094
X9593Y37105
X9693Y35705
X9693Y34805
X9693Y31705
X9793Y29005
X9893Y21688
X9919Y26515
X9961Y4921
X9993Y31505
X9993Y27105
X10207Y4696
X10354Y40669
X10463Y30000
X10493Y28905
X10531Y4567
X10593Y21605
X10748Y4213
X10891Y25789
X11102Y4252
X11135Y37306
X11142Y5276
X11152Y39051
X11169Y35624
X11171Y26305
X11417Y4213
X11531Y30370
X11593Y27605
X11693Y26705
X11893Y22205
X12068Y21598
X12293Y20405
X12293Y19205
X12293Y15005
X12343Y15472
X12357Y21805
X12393Y14605
X12393Y12605
X12450Y3502
X12493Y20705
X12493Y19505
X12493Y17005
X12693Y37305
X12793Y21005
X12893Y39105
X12893Y12505
X12893Y6605
X12893Y5205
X12992Y30827
X13137Y4183
X13193Y21365
X13193Y17005
X13228Y16654
X13393Y30205
X13393Y20705
X13393Y20205
X13425Y16260
X13593Y22505
X13593Y19805
X13602Y15886
X13617Y15335
X13617Y14252
X13617Y13819
X13693Y37205
X13693Y305
X13793Y3505
X13893Y6805
X14031Y4700
X14122Y5002
X14195Y22679
X14221Y4426
X14226Y5299
X14293Y4005
X14393Y38805
X14993Y35105
X15093Y37205
X15293Y5705
X15693Y35105
X15793Y40205
X15793Y38805
X16193Y22505
X16260Y5929
X16393Y37205
X16693Y35105
X16840Y22352
X16850Y5906
X17131Y6294
X17193Y31905
X17559Y6339
X17693Y31305
X17793Y38805
X17793Y37205
X17806Y21671
X17913Y6220
X18193Y30205
X18248Y3327
X18268Y6339
X18393Y35105
X18393Y32105
X18693Y27405
X18793Y25405
X18893Y32005
X19008Y22389
X19193Y37205
X19195Y30707
X19272Y2579
X19291Y26299
X19293Y31805
X19293Y25005
X19293Y22605
X19311Y6378
X19543Y28917
X19593Y27505
X19724Y26535
X19764Y25186
X19793Y21816
X19893Y38905
X19893Y29570
X20136Y21562
X20293Y28569
X20293Y305
X20394Y1846
X20533Y1546
X20593Y37205
X20593Y30611
X20695Y30138
X20846Y1516
X20945Y31890
X20984Y30906
X20998Y30054
X21338Y29764
X21370Y1829
X21593Y33205
X21693Y40205
X21793Y38805
X21793Y37205
X21893Y28041
X22047Y31024
X22058Y1819
X22290Y28044
X22593Y35205
X22638Y27913
X22866Y29162
X22972Y3819
X23060Y5532
X23071Y3425
X23136Y5105
X23136Y4405
X23228Y6339
X23293Y30605
X23346Y1791
X23593Y28005
X23693Y35705
X23740Y2559
X23793Y29505
X23993Y39005
X23993Y31805
X23993Y27905
X23993Y21705
X24134Y2559
X24793Y33305
X24993Y32705
X25046Y29101
X25347Y29193
X25593Y35705
X25593Y31605
X25630Y28105
X25667Y39655
X25693Y30105
X26088Y27849
X26893Y35305
X26993Y27886
X26993Y21505
X27015Y39748
X28093Y38405
X28193Y32605
X28493Y305
X28793Y3605
X28976Y29805
X29173Y6496
X29193Y41305
X29252Y4803
X29293Y4305
X29331Y6102
X29493Y5505
X29893Y39205
X30472Y38898
X30493Y41305
X30793Y29005
X31339Y33189
X31393Y41405
X31593Y5005
X31721Y21358
X31893Y39205
X31948Y28005
X31993Y38605
X32244Y27835
X32470Y21643
X32593Y32105
X32593Y29905
X32593Y4005
X32593Y405
X32612Y33775
X32693Y22005
X32717Y26496
X32793Y28605
X32834Y26987
X32835Y33465
X32993Y34005
X33536Y28047
X33593Y29805
X33593Y29205
X33893Y28405
X33993Y38805
X33993Y32705
X33993Y28905
X33993Y27505
X33993Y21605
X33993Y14905
X33993Y5405
X5932Y22062
X8422Y24838
X9163Y24644
X9170Y22584
X9414Y20664
X9414Y16373
X9414Y10782
X9414Y5954
X10910Y6501
X11315Y25281
X12215Y22835
X12569Y29734
X12963Y29734
X15167Y22835
X15482Y22835
X15797Y22835
X20362Y5123
X21759Y5153
X22054Y4690
X22261Y5034
X25743Y3532
X25999Y4047
X26511Y3532
X26639Y4224
X26974Y4254
X27318Y4339
X27535Y3532
X27702Y4254
X28450Y4260
X28568Y5864
X11316Y25280
X9163Y24643
X8422Y24837
X9170Y22583
X5932Y22062
X10911Y6501
X9414Y5955
X9414Y10783
X9414Y16373
X9414Y20665
X14665Y29725
X17854Y29606
X18248Y29567
X17461Y29488
X13563Y29055
X12776Y29055
X12027Y29055
X18287Y28976
X17815Y28937
X16368Y28841
X16752Y28819
X16043Y28819
X17382Y28701
X14665Y28662
X13917Y28504
X12776Y28406
X15886Y28333
X16791Y28150
X15059Y28150
X14114Y28110
X17264Y27953
X15374Y27895
X18248Y27874
X13484Y27756
X16909Y27599
X12736Y27480
X17708Y27441
X15728Y27165
X13405Y27087
X18248Y27047
X16988Y26772
X16354Y26749
X14508Y26732
X15740Y26524
X14089Y26383
X18012Y26181
X17598Y26122
X15886Y26024
X15571Y26024
X16752Y25866
X14980Y25866
X18327Y25788
X14170Y25785
X13642Y25776
X12941Y25691
X12618Y25630
X16555Y25473
X16949Y25433
X15910Y25418
X12015Y25357
X12325Y25357
X14091Y25324
X15138Y25276
X14823Y25276
X17677Y25217
X14323Y25079
X14980Y24921
X18310Y24786
X17342Y24584
X14107Y24495
X15335Y24410
X15020Y24410
X14626Y23937
X18248Y23898
X12697Y23898
X13268Y23878
X15059Y23819
X17303Y23622
X16293Y23342
X14080Y23297
X14587Y23189
X17657Y23032
X14862Y23032
X18248Y22992
X12529Y22988
X12815Y22874
X12963Y29734
X12569Y29734
X15797Y22835
X15482Y22835
X15167Y22835
X12214Y22835
X26001Y4076
X25745Y3560
X26513Y3560
X26641Y4253
X26975Y4282
X27320Y4367
X27704Y4282
X28452Y4288
X27536Y3560
X28570Y5893
X31801Y26961
X31545Y25907
X31388Y25632
X31707Y24672
X31716Y23750
X30678Y23755
X30226Y23378
X29845Y23436
X29291Y23408
X28907Y23470
X28553Y23366
X28169Y23470
X27470Y23516
X27116Y23427
X26673Y23398
X26250Y23545
X26033Y23797
X25787Y23516
X25364Y23408
X24951Y23319
X24488Y23358
X24360Y23801
X24055Y23516
X23661Y23378
X23287Y23467
X22785Y23467
X22372Y23516
X22648Y23811
X22982Y24156
X22520Y24530
X21929Y25415
X21604Y25415
X22018Y25731
X22047Y26124
X22362Y26114
X22724Y26129
X23051Y26183
X23595Y26486
X23612Y25396
X23936Y25396
X24203Y24549
X24655Y24224
X25896Y24549
X26358Y24215
X27628Y24549
X28022Y24224
X27735Y23800
X29291Y24154
X29586Y24528
X29417Y24795
X30079Y25199
X30088Y25514
X30079Y25829
X30138Y26409
X29705Y26114
X29370Y26085
X29048Y26092
X28711Y26108
X28218Y26104
X27903Y26093
X27409Y26109
X27087Y26104
X26565Y26026
X26249Y26103
X25148Y26257
X24682Y26104
X25206Y25404
X25600Y25396
X21201Y26065
X20886Y26085
X20571Y26163
X20285Y26715
X20245Y25542
X20326Y25081
X20817Y24598
X21200Y24282
X20955Y23850
X21063Y23437
X20679Y23516
X20187Y23506
X21663Y23516
X21978Y23312
X31171Y22915
X30669Y24608
X29941Y27207
X31737Y21045
X31127Y20760
X30753Y20779
X30310Y20199
X29788Y20002
X29818Y19687
X30152Y19057
X30979Y19185
X31314Y19697
X31304Y20248
X29286Y20258
X28597Y20268
X28351Y20474
X27938Y20799
X27504Y20809
X27692Y20287
X28164Y19805
X28558Y19756
X28449Y19264
X27977Y19342
X27278Y19707
X27062Y18890
X26510Y18978
X26520Y18496
X26451Y17984
X26431Y17551
X26766Y17571
X27475Y17640
X27268Y17246
X27829Y17315
X27820Y16832
X27544Y16478
X27121Y16045
X27337Y15257
X27149Y14785
X27371Y14500
X27642Y14332
X27691Y13299
X28011Y13382
X27219Y13466
X25608Y13542
X25314Y13417
X25339Y14027
X25182Y14657
X25142Y15159
X25929Y15218
X25979Y14736
X26254Y15788
X25920Y16360
X25438Y16380
X25634Y16124
X26579Y16685
X26048Y17443
X25772Y17925
X25467Y17777
X25418Y18092
X25201Y18535
X24699Y18250
X24384Y18197
X24690Y17758
X24994Y17846
X23703Y17542
X23469Y17758
X23410Y18890
X24207Y18929
X23902Y19352
X24030Y19647
X24847Y19411
X25309Y19273
X25556Y19510
X25999Y19441
X25861Y18880
X25703Y20012
X26461Y20002
X25546Y20691
X23518Y20553
X23292Y20327
X22612Y20395
X22623Y20710
X22642Y19844
X22918Y19293
X22524Y18385
X21431Y17994
X21136Y17836
X20236Y17706
X20220Y17383
X19936Y17531
X19808Y17827
X19818Y18142
X19345Y18142
X18695Y18516
X18686Y19421
X18429Y19638
X18125Y19500
X17770Y19470
X17612Y18998
X17288Y18995
X16972Y18978
X17977Y18998
X17907Y17895
X17583Y17895
X17268Y17886
X16914Y17895
X18341Y17167
X18676Y17167
X18755Y14992
X18922Y14716
X19079Y14441
X19384Y14529
X19493Y14185
X19552Y13516
X20556Y13378
X20663Y12590
X20594Y12274
X19803Y12143
X19807Y12492
X19247Y12571
X19010Y12334
X17908Y12177
X17436Y12207
X16591Y13299
X17613Y14008
X17915Y13893
X17377Y14283
X17066Y14596
X20004Y15287
X21087Y15149
X21314Y16390
X21608Y16547
X21904Y16350
X22190Y16212
X22347Y15937
X23134Y15897
X23627Y15701
X23814Y15317
X24001Y14588
X24266Y14405
X24542Y14155
X24197Y13791
X24148Y13082
X24699Y12905
X24886Y12079
X24069Y12245
X23872Y10818
X23691Y10553
X23636Y10149
X23410Y9923
X24266Y10336
X24168Y10661
X24444Y10819
X24690Y10602
X26058Y10789
X26225Y11260
X27377Y11714
X27613Y11498
X28223Y11665
X29729Y11813
X29640Y12325
X29877Y12541
X30556Y12305
X30241Y11941
X30162Y11104
X29955Y10327
X29335Y10366
X29699Y9463
X29532Y8712
X29581Y8358
X30320Y8230
X30585Y8053
X30507Y7472
X30251Y7659
X29375Y7433
X29099Y7659
X28804Y7945
X28410Y8309
X28390Y7305
X27694Y7488
X27357Y7098
X27032Y7147
X27544Y8083
X26904Y9047
X25634Y9086
X25634Y9401
X25507Y8151
X25192Y8161
X25162Y7325
X25467Y7246
X24040Y7886
X23400Y7964
X23001Y7865
X22514Y7679
X22199Y7708
X21894Y7826
X21471Y7512
X21146Y7728
X20438Y7659
X20438Y7167
X19335Y7974
X19029Y7836
X18725Y7738
X18568Y8014
X18245Y8012
X17928Y8012
X17406Y7344
X16697Y7541
X16642Y8059
X17131Y8437
X17396Y9401
X17770Y9086
X18390Y8810
X19089Y9411
X19089Y9726
X18970Y10110
X19758Y9854
X19788Y11114
X20064Y11271
X20851Y11153
X21097Y11370
X21323Y11655
X21254Y12915
X21412Y13860
X22376Y13712
X22879Y13476
X23124Y13269
X23252Y13958
X23567Y14037
X23321Y14677
X22839Y14657
X22239Y14332
X22041Y12277
X22209Y9086
X22544Y9086
X23184Y7029
X27140Y10199
X28312Y9638
X28843Y9323
X29047Y8980
X30871Y10327
X31481Y10346
X31796Y9638
X31176Y11271
X31510Y12069
X31560Y13181
X31865Y13102
X31274Y14018
X31173Y14332
X30851Y14451
X30881Y15051
X30349Y14834
X29532Y14509
X29431Y15110
X28636Y14923
X28593Y15756
X30044Y15740
X30526Y15819
X30605Y16134
X31392Y16291
X31304Y16803
X30359Y16951
X29729Y16823
X29690Y16301
X28715Y17197
X28361Y17187
X28942Y18358
X31835Y17610
X31747Y15031
X30831Y13673
X31068Y6911
X30723Y6773
X24296Y16449
X20379Y16518
X20211Y18870
X19896Y18850
X20782Y19037
X21491Y19027
X21235Y19923
X20910Y19785
X20516Y19815
X20231Y19962
X19886Y20957
X21422Y20464
X18400Y20110
X17682Y20779
X17830Y10031
X16432Y10464
X16363Y11409
X15414Y11429
X15408Y10642
X15221Y9697
X15172Y9003
X14857Y9037
X14562Y8909
X14375Y9205
X14257Y8693
X14699Y7925
X15054Y8172
X15535Y8692
X15852Y8712
X16319Y8048
X15940Y7246
X15566Y7600
X14483Y7453
X14109Y7571
X14267Y10356
X14286Y10937
X14788Y13634
X14562Y14136
X15230Y13988
X15468Y13988
X16008Y13496
X15792Y16419
X15397Y16626
X15014Y16626
X14522Y16419
X14601Y16065
X14316Y16675
X14345Y18201
X14325Y18919
X14583Y19773
X14985Y19913
X15605Y20149
X15601Y20592
X16107Y19372
X16058Y18319
X15713Y18319
X15886Y17728
X16283Y16576
X22055Y4690
X22262Y5034
X21760Y5153
X20362Y5123
T02
X26152Y32284
X26152Y31891
X26152Y31497
X26152Y31103
X26152Y30710
X26152Y30316
X26152Y29922
X26220Y38189
X26220Y37795
X26220Y37402
X26220Y37008
X26220Y36614
X26220Y36220
X26220Y35827
X27986Y28854
X28031Y34449
X28307Y29094
X28386Y35005
X28636Y28847
X28671Y32284
X28671Y31891
X28671Y31497
X28671Y31103
X28671Y30710
X28671Y30316
X28671Y29922
X28740Y38189
X28740Y37795
X28740Y37402
X28740Y37008
X28740Y36614
X28740Y36220
X28740Y35827
X28740Y34449
X29528Y38151
X29528Y37757
X29528Y37363
X29528Y36969
X29528Y36576
X29528Y36182
X29528Y35788
X29557Y32245
X29557Y31851
X29557Y31458
X29557Y31064
X29557Y30670
X29557Y30277
X29557Y29883
X31299Y34449
X31299Y28583
X31693Y34882
X31715Y28939
X32047Y38151
X32047Y37757
X32047Y37363
X32047Y36969
X32047Y36576
X32047Y36182
X32047Y35788
X32077Y32245
X32077Y31851
X32077Y31458
X32077Y31064
X32077Y30670
X32077Y30277
X32077Y29883
X32087Y34449
X32126Y28583
T03
X9646Y34136
X9646Y32636
X10709Y34136
X10709Y32636
X11811Y34136
X11811Y32636
X12717Y34114
X12717Y32185
X13583Y34136
X13583Y32636
X14449Y34154
X14449Y32224
X15315Y34136
X15315Y32636
X16181Y34154
X16181Y32224
X17047Y34136
X17047Y32636
X17874Y34136
X17874Y32636
X18851Y34145
X18851Y32645
X19621Y34136
X19621Y32636
X20493Y34154
X20493Y32224
X21593Y34134
X21593Y32205
X22493Y34136
X22493Y32636
X23293Y34136
X23293Y32636
X24093Y34155
X24093Y32655
X27754Y40709
X27754Y39764
X27754Y38937
X29254Y40709
X29254Y39764
X29254Y38937
T04
X24393Y28780
X10512Y2549
X12244Y2549
X15158Y11809
X14358Y11809
X14758Y9809
T05
X12106Y39606
X12106Y38031
X12106Y36456
X13681Y39606
X13681Y38031
X13681Y36456
X15059Y39606
X15059Y38031
X15059Y36456
X16437Y39606
X16437Y38031
X16437Y36456
X17815Y39606
X17815Y38031
X17815Y36456
X19193Y39606
X19193Y38031
X19193Y36456
X20571Y39606
X20571Y38031
X20571Y36456
X22146Y39606
X22146Y38031
X22146Y36456
T06
X9291Y39409G85X9291Y38228
X24961Y39409G85X24961Y38228
M30
