M48
INCH,TZ
T01C0.011800
T02C0.021650
T03C0.025600
T04C0.032500
T05C0.039200
T06C0.059100
T07C0.098400
T08C0.157500
%
T01
X24161Y5497
X24161Y4995
X24161Y4345
X24161Y3991
X26690Y4777
X27048Y926
X27393Y719
X27481Y2619
X27511Y1221
X693Y38005
X893Y31405
X893Y23905
X893Y15305
X993Y37505
X993Y31905
X1229Y38105
X1293Y39505
X1393Y38605
X1496Y16732
X1507Y35472
X1593Y39805
X1593Y39105
X1593Y4505
X1652Y10861
X1654Y11890
X1693Y405
X1993Y30005
X2008Y17382
X2152Y15761
X2193Y32905
X2193Y26805
X2293Y41505
X2336Y21724
X2340Y18807
X2362Y16890
X2370Y23231
X2393Y32405
X2493Y31605
X2579Y19272
X2675Y30331
X2697Y15606
X2793Y33425
X2795Y28701
X2795Y16339
X2913Y20906
X2953Y19882
X2972Y18327
X3031Y22362
X3252Y16361
X3268Y19123
X3523Y23269
X3543Y24213
X3544Y27946
X3544Y24988
X3583Y15866
X3593Y38869
X3642Y19433
X3667Y20379
X3721Y18105
X3780Y14646
X3819Y13976
X3819Y13189
X3858Y18574
X3858Y11614
X3898Y29567
X3932Y17869
X4093Y38605
X4106Y28989
X4114Y12874
X4213Y19561
X4291Y12087
X4293Y34705
X4370Y19853
X4488Y18425
X4493Y37305
X4593Y38205
X4593Y34005
X4605Y16697
X4646Y15866
X4651Y32268
X4683Y19091
X4693Y39805
X4693Y35705
X4803Y24016
X4818Y21669
X4843Y27677
X4882Y13928
X4967Y20158
X5100Y14557
X5183Y17579
X5246Y18083
X5260Y12780
X5276Y16929
X5394Y20036
X5406Y12429
X5472Y19409
X5492Y18740
X5512Y11811
X5645Y33262
X5787Y18002
X5827Y21535
X5827Y11890
X5971Y19356
X5984Y14861
X5993Y30505
X6042Y20749
X6052Y16761
X6052Y11361
X6052Y15889
X6102Y19024
X6102Y18709
X6102Y19652
X6110Y12027
X6155Y20455
X6193Y36505
X6220Y13150
X6293Y38805
X6352Y17661
X6393Y40005
X6393Y38105
X6457Y30355
X6536Y29565
X6614Y10945
X6614Y12751
X6676Y32426
X6729Y37305
X6816Y17835
X6831Y20315
X6850Y19291
X7126Y32847
X7126Y30511
X7126Y21535
X7173Y31838
X7193Y35905
X7193Y33858
X7244Y39449
X7252Y15161
X7279Y16827
X7283Y17165
X7322Y34145
X7352Y12761
X7402Y13504
X7421Y32362
X7441Y30505
X7484Y14321
X7652Y15261
X7717Y10512
X7785Y30511
X7991Y15162
X8060Y12205
X8110Y33386
X8110Y10157
X8133Y35351
X8152Y16261
X8193Y305
X8232Y9114
X8298Y5090
X8317Y7935
X8317Y6446
X8334Y18418
X8346Y15157
X8366Y20354
X8386Y16890
X8397Y13073
X8406Y19016
X8425Y8760
X8453Y33831
X8504Y21535
X8543Y10157
X8693Y33405
X8740Y28583
X8794Y40011
X8798Y14614
X8966Y18966
X8976Y14055
X9016Y17283
X9093Y12205
X9094Y9803
X9121Y3574
X9213Y19370
X9291Y15709
X9301Y18337
X9456Y20472
X9528Y28661
X9593Y37105
X9685Y31024
X9685Y1220
X9693Y35705
X9693Y34805
X9695Y10641
X9724Y19347
X9801Y12581
X9857Y4796
X9862Y16457
X9882Y8465
X9921Y18346
X10039Y16024
X10079Y31024
X10079Y2283
X10086Y4580
X10197Y6142
X10276Y19409
X10339Y20115
X10354Y4312
X10354Y40669
X10516Y30402
X10522Y6093
X10591Y21024
X10748Y4213
X10895Y19892
X10937Y19411
X10984Y18661
X11063Y20709
X11077Y4218
X11102Y28937
X11131Y2492
X11135Y37306
X11142Y28583
X11152Y39051
X11169Y35624
X11295Y1229
X11304Y21522
X11328Y21050
X11387Y2082
X11417Y4213
X11614Y12520
X11614Y6732
X11654Y9803
X11755Y20492
X11811Y15433
X12283Y21181
X12343Y15472
X12393Y14605
X12393Y12605
X12448Y3089
X12493Y17005
X12693Y37305
X12874Y6695
X12893Y39105
X12913Y3071
X13031Y30827
X13150Y29016
X13193Y17005
X13272Y22193
X13273Y12432
X13327Y20551
X13381Y12118
X13415Y14734
X13455Y3400
X13622Y18228
X13661Y14163
X13693Y37205
X13693Y305
X13780Y4803
X13816Y22906
X13858Y13228
X13966Y21856
X14000Y5057
X14003Y4582
X14016Y7047
X14055Y8228
X14250Y4255
X14342Y22335
X14393Y38805
X14488Y8346
X14557Y15541
X14567Y7441
X14587Y16201
X14636Y3738
X14638Y22461
X14646Y6457
X14921Y18915
X14921Y21181
X14993Y35105
X15093Y37205
X15512Y30315
X15591Y3740
X15693Y35105
X15793Y40205
X15793Y38805
X16393Y37205
X16693Y35105
X16811Y30157
X17193Y31905
X17693Y31305
X17793Y38805
X17793Y37205
X17795Y25433
X17835Y27283
X17835Y24488
X18147Y30185
X18386Y28150
X18393Y35105
X18413Y32155
X18425Y27205
X18425Y26417
X18425Y24213
X18465Y25315
X18465Y22283
X18583Y23543
X18891Y1239
X18898Y24331
X18933Y32045
X19094Y27677
X19193Y37205
X19291Y1850
X19376Y29759
X19396Y31940
X19456Y23229
X19459Y24291
X19577Y31388
X19893Y38905
X19970Y25384
X19990Y3917
X20315Y28582
X20593Y37205
X20669Y25443
X20709Y28819
X20906Y1890
X20945Y31930
X21299Y28425
X21407Y4646
X21593Y33205
X21691Y30664
X21693Y40205
X21793Y38805
X21793Y37205
X22047Y29134
X22480Y22087
X22520Y5669
X22573Y24962
X22573Y23044
X22593Y35205
X22655Y21825
X22712Y197
X22740Y30639
X22805Y28041
X22809Y25551
X23224Y30536
X23494Y22303
X23504Y25000
X23693Y35705
X23993Y39005
X24010Y31822
X24024Y29735
X24114Y2382
X24319Y961
X24409Y22126
X24636Y22461
X24793Y33305
X24993Y32705
X25102Y173
X25200Y25630
X25315Y23976
X25568Y22225
X25593Y35705
X25593Y31605
X25649Y29293
X25667Y39655
X25710Y30122
X25770Y25199
X25777Y29005
X25945Y28622
X26220Y26339
X26826Y27264
X26893Y35305
X27015Y39748
X27109Y27933
X27637Y22296
X27677Y23071
X27756Y27205
X28088Y27900
X28093Y38405
X28189Y5157
X28193Y32605
X28337Y5630
X28661Y22244
X28937Y24567
X28976Y29805
X29016Y1801
X29016Y236
X29103Y27189
X29134Y1417
X29193Y41305
X29299Y4864
X29417Y5471
X29567Y23327
X29882Y26299
X29893Y39205
X30118Y5039
X30472Y38898
X30493Y41305
X30567Y24882
X30793Y29005
X30906Y22047
X30984Y26732
X31016Y41563
X31339Y33189
X31378Y27106
X31378Y25709
X31654Y22087
X31846Y27386
X31850Y19685
X31850Y18543
X31850Y15394
X31850Y11575
X31893Y39205
X31969Y9252
X31993Y38605
X32047Y6693
X32070Y4781
X32165Y27453
X32474Y27396
X32480Y24370
X32500Y25965
X32520Y13468
X32520Y12986
X32550Y20412
X32593Y32105
X32593Y29905
X32593Y405
X32612Y33775
X32677Y25472
X32717Y26496
X32793Y28605
X32835Y33465
X32992Y27677
X32993Y34005
X33347Y28043
X33593Y29805
X33660Y12174
X33819Y12520
X33993Y32705
X33993Y5405
X34016Y21601
X34016Y14900
X34035Y38327
X34055Y27487
X34094Y28878
X6329Y21742
X6722Y21742
X14514Y28780
X14907Y28780
X15148Y20699
X15148Y17746
X15148Y17431
X15148Y17116
X15148Y16801
X15148Y16486
X15148Y15856
X15148Y15541
X15148Y15226
X15148Y14911
X15148Y14596
X15148Y14281
X15148Y13967
X15148Y13652
X15148Y13337
X15148Y13022
X15148Y12077
X15148Y11762
X15148Y11447
X15148Y10187
X15148Y9872
X15148Y9557
X15148Y9242
X15148Y8297
X15148Y7982
X15148Y7667
X15148Y7352
X15148Y7037
X15148Y6014
X15148Y20384
X15148Y16171
X15148Y12707
X15148Y12392
X15148Y11132
X15148Y10817
X15148Y10502
X15148Y8927
X15148Y8612
X15384Y21565
X15463Y6014
X15778Y6014
X15856Y21565
X16033Y23100
X16093Y6014
X16329Y21565
X16407Y6014
X16506Y23100
X16722Y6014
X16801Y21565
X16978Y23100
X17037Y6014
X17274Y21565
X17352Y6014
X17451Y23100
X17667Y6014
X17707Y21565
X17982Y6014
X18179Y21565
X18297Y6014
X18612Y6014
X18652Y21565
X18927Y6014
X19124Y21565
X19242Y6014
X19557Y6014
X19596Y21565
X19872Y6014
X20069Y21565
X20187Y6014
X20502Y6014
X20541Y21565
X20817Y6014
X21014Y21565
X21132Y6014
X21447Y6014
X21486Y21565
X21762Y6014
X21959Y21565
X22077Y6014
X22431Y21565
X22904Y21565
X23376Y21565
X23848Y21565
X24242Y6014
X24321Y21565
X24557Y6014
X24793Y21565
X24872Y6014
X25187Y6014
X25266Y21565
X25502Y6014
X25738Y21565
X26211Y21565
X26683Y21565
X27156Y21565
X27628Y21565
X28100Y21565
X28573Y21565
X28573Y6014
X28888Y6014
X29045Y21565
X29203Y6014
X29518Y21565
X29990Y21565
X30463Y21565
X31407Y21565
X31565Y17667
X31565Y14911
X31565Y14518
X31565Y14124
X31565Y13730
X31565Y13337
X31565Y12943
X31565Y12549
X31565Y12156
X31565Y10935
X31565Y10620
X31565Y6014
X31565Y20581
X31565Y20187
X5094Y27224
X5730Y27496
X6115Y27282
X6544Y27923
X6880Y27963
X7470Y27766
X7726Y27490
X8257Y27372
X8553Y27766
X8061Y27963
X9242Y27963
X10817Y27963
X10797Y27490
X11089Y26379
X11064Y25332
X10776Y25010
X10701Y23957
X10817Y22845
X10817Y22057
X9813Y22530
X9807Y23175
X8561Y23115
X8651Y22648
X8171Y22480
X8454Y22057
X7286Y22479
X7114Y21783
X6722Y21742
X6328Y21742
X6422Y22424
X5933Y22734
X5616Y22347
X5186Y22744
X5565Y23133
X6289Y23208
X6722Y23160
X5737Y24476
X5108Y24476
X5094Y25395
X5094Y26250
X5736Y26027
X6761Y25443
X8208Y25050
X8257Y25797
X8767Y25364
X9765Y24775
X11722Y23829
X11789Y22897
X12194Y22845
X11998Y22057
X11407Y22451
X12547Y24925
X12953Y24883
X12537Y25712
X12134Y25977
X12211Y27414
X11576Y27005
X11343Y27845
X31407Y21565
X31484Y21166
X31565Y20581
X31565Y20187
X30807Y19927
X30093Y19911
X29809Y19888
X29203Y20069
X28888Y20069
X28322Y19881
X27896Y19881
X27313Y20069
X26998Y20069
X26429Y19899
X26144Y19890
X25456Y20091
X25072Y20091
X24561Y19865
X24119Y19881
X23533Y20069
X23218Y20069
X22638Y19972
X22254Y19911
X21644Y20069
X21329Y20069
X20699Y19911
X20384Y19911
X19754Y20069
X19439Y20069
X18809Y19911
X18494Y19911
X17864Y20069
X17628Y19833
X17352Y18966
X17037Y19085
X16840Y19360
X16486Y19360
X16398Y18435
X16900Y18415
X16837Y18137
X16939Y17293
X16565Y17155
X16461Y16880
X16358Y17392
X16637Y16066
X16645Y15569
X16959Y15541
X16919Y15148
X17037Y14360
X17632Y14284
X18022Y14242
X18356Y14231
X18100Y14518
X17848Y14678
X17685Y13814
X17669Y13427
X17914Y13267
X17528Y13022
X17618Y12314
X17549Y12037
X17667Y11171
X17864Y10817
X17637Y10256
X17616Y9872
X16815Y10168
X16492Y10389
X16109Y10413
X16530Y8953
X16579Y8303
X16360Y8120
X16922Y7705
X17646Y7512
X18022Y7825
X18266Y7677
X18415Y6998
X18691Y7116
X17469Y6909
X17191Y7035
X17047Y6516
X16732Y6415
X16109Y6971
X20018Y6981
X20316Y6931
X20262Y7570
X19923Y7780
X19326Y8455
X19518Y8691
X19754Y8927
X20581Y9163
X21200Y9267
X21171Y8927
X21481Y9355
X21683Y9557
X21526Y10502
X21092Y10526
X20266Y10266
X19951Y10266
X19807Y10682
X19163Y10581
X19124Y9872
X18896Y9701
X18573Y10344
X18573Y11289
X19518Y11604
X19833Y11604
X19754Y12171
X19833Y13140
X19439Y13140
X19161Y12663
X18447Y12554
X18583Y13311
X18569Y13688
X19636Y13770
X19557Y14489
X19242Y14478
X20130Y14563
X19911Y15344
X19596Y15423
X18966Y15305
X18720Y15450
X18426Y15698
X18789Y16171
X19183Y16171
X19833Y16486
X20148Y16483
X20463Y16486
X21092Y16350
X21359Y16161
X21250Y15620
X21037Y15384
X20887Y15789
X21880Y15620
X21801Y15344
X22667Y15305
X22746Y15659
X22746Y16486
X22431Y16483
X22116Y16447
X21840Y16880
X21840Y17195
X21831Y17480
X21604Y18022
X21014Y18022
X20640Y17785
X20640Y17155
X21073Y17293
X19616Y17431
X19621Y17141
X18789Y17293
X18356Y17155
X18356Y17785
X18730Y18022
X19321Y18022
X19892Y18770
X20399Y18868
X20684Y18868
X22288Y18868
X22574Y18868
X22847Y18784
X22923Y17785
X23297Y18022
X23848Y18022
X24183Y17431
X24188Y17141
X24379Y16471
X24714Y16483
X25029Y16486
X25207Y17155
X25640Y17293
X25541Y18022
X25207Y17785
X24969Y18752
X24464Y18907
X24178Y18868
X25711Y18512
X26068Y18868
X26353Y18868
X26368Y18218
X26418Y17517
X26437Y16840
X26424Y16545
X26437Y16186
X26447Y15699
X26407Y15266
X26787Y15138
X27072Y15118
X27234Y15620
X27096Y16053
X27628Y16053
X28087Y15790
X28249Y15549
X28651Y15429
X28870Y15658
X29269Y15375
X28947Y15029
X28455Y14943
X28388Y14460
X28422Y14124
X28376Y13740
X28376Y13455
X28376Y12903
X28415Y12155
X28218Y11565
X28464Y11363
X28273Y10906
X28322Y10332
X28777Y9674
X28740Y9163
X29439Y8848
X29367Y9742
X29523Y10226
X29911Y10305
X30305Y10309
X30893Y9741
X31289Y9754
X31565Y10620
X31565Y10935
X31526Y11329
X31565Y12155
X31565Y12549
X31565Y12943
X31565Y13337
X31565Y13730
X31565Y14124
X31565Y14518
X31565Y14911
X31638Y15388
X30910Y15638
X30384Y15955
X30069Y15817
X29892Y16055
X29232Y16260
X29219Y16545
X29232Y16840
X29203Y17195
X29684Y17052
X30186Y17045
X30029Y17470
X30146Y17796
X29758Y17824
X30089Y18218
X30128Y18770
X29847Y18868
X29085Y18799
X28612Y18799
X28243Y18868
X27958Y18868
X27549Y18809
X27195Y18848
X27608Y18218
X27549Y17785
X27234Y17470
X27372Y17077
X26742Y17077
X26868Y17910
X28612Y17785
X28848Y18218
X28072Y17188
X28031Y16905
X28100Y16329
X27943Y15128
X27543Y14812
X27498Y13627
X27539Y13022
X27561Y12608
X27549Y12037
X27539Y11526
X27539Y10817
X27498Y9793
X27598Y9523
X26683Y9478
X26663Y9793
X26511Y10581
X26511Y10866
X26225Y10856
X26014Y11132
X26092Y11486
X25979Y11939
X25073Y11932
X24790Y11823
X24911Y11565
X25160Y11248
X25148Y12352
X25000Y13134
X24911Y13533
X25098Y13878
X25384Y14793
X25913Y14809
X26056Y14553
X26092Y15551
X25738Y15844
X25658Y16154
X24990Y15620
X24505Y15606
X24518Y15321
X24357Y14340
X23949Y14297
X23888Y14576
X23612Y14281
X22963Y14257
X22972Y14542
X22549Y14262
X22298Y14399
X21811Y13866
X22704Y13573
X23187Y13569
X22923Y13209
X22589Y12707
X22116Y12234
X23022Y12195
X23494Y11014
X23809Y11053
X24088Y11551
X24557Y11988
X24085Y13179
X25935Y12982
X26171Y13573
X26486Y13514
X26896Y13450
X26683Y11466
X25974Y10551
X26014Y10148
X25974Y9370
X25974Y9085
X26024Y8671
X25895Y8294
X26219Y7963
X26144Y7687
X26468Y7822
X26467Y8599
X26671Y8800
X27056Y8838
X27431Y8573
X27667Y7943
X27718Y7662
X27418Y7649
X27128Y7488
X26860Y7372
X26927Y6988
X27598Y7144
X28350Y7451
X28719Y7296
X28738Y7591
X28588Y7995
X28917Y7982
X29411Y7783
X30274Y7985
X30683Y8076
X30620Y7510
X31466Y7431
X31486Y7825
X30896Y6545
X30856Y6092
X29774Y6092
X29134Y6889
X28394Y6792
X27374Y6250
X26368Y6368
X25482Y6807
X25029Y7392
X25158Y7891
X25086Y8168
X25218Y8642
X25226Y8927
X24390Y8809
X24045Y8297
X24107Y8003
X23967Y7008
X23681Y7008
X24252Y6998
X23918Y6139
X23593Y6184
X23305Y6142
X22986Y6145
X22672Y6151
X23061Y7037
X22825Y7517
X22431Y7313
X22091Y6914
X21142Y6996
X21959Y8258
X22352Y8927
X22825Y8455
X23061Y9360
X23514Y9636
X23494Y10148
X23139Y10236
X22864Y10502
X24400Y10069
X24242Y9557
X25177Y9980
X24714Y6252
X30413Y8928
X30581Y9163
X29609Y10881
X29999Y12287
X29193Y12313
X29193Y13022
X29193Y13730
X29193Y14439
X29628Y14823
X29943Y14592
X30313Y15267
X31437Y16220
X30827Y16840
X31152Y17510
X31565Y17667
X31329Y18218
X31526Y18809
X30974Y19006
X31211Y19488
X30575Y18673
X30699Y17884
X30974Y20974
X30931Y21534
X30699Y21368
X30463Y21565
X30226Y21368
X29990Y21565
X29754Y21368
X29518Y21565
X29281Y21368
X29045Y21565
X28809Y21368
X28573Y21565
X28337Y21368
X28100Y21565
X27864Y21368
X27628Y21565
X27392Y21368
X27155Y21565
X26919Y21368
X26683Y21565
X26447Y21368
X26211Y21565
X25974Y21368
X25738Y21565
X25502Y21368
X25266Y21565
X25029Y21368
X24793Y21565
X24557Y21368
X24321Y21565
X24085Y21368
X23848Y21565
X23612Y21368
X23376Y21565
X23140Y21368
X22903Y21565
X22667Y21368
X22431Y21565
X22195Y21368
X21959Y21565
X21722Y21368
X21486Y21565
X21250Y21368
X21014Y21565
X20777Y21368
X20541Y21565
X20305Y21368
X20069Y21565
X19833Y21368
X19596Y21565
X19360Y21368
X19124Y21565
X18888Y21368
X18651Y21565
X18415Y21368
X18179Y21565
X17943Y21368
X17707Y21565
X17274Y21565
X17037Y21368
X16801Y21565
X16565Y21368
X16329Y21565
X16092Y21368
X16396Y20661
X16869Y20661
X17903Y18809
X18509Y18868
X18794Y18868
X18179Y16486
X17864Y16483
X17549Y16486
X17263Y16541
X16161Y13524
X20659Y12982
X21171Y13179
X21289Y12470
X21132Y11593
X20910Y11774
X20690Y11593
X20512Y11816
X21644Y11711
X23374Y15393
X23612Y15738
X23750Y16171
X23455Y16171
X23356Y17293
X22923Y17155
X18455Y9163
X18414Y8881
X31014Y11762
X15976Y11602
X16014Y10837
X15827Y10621
X15148Y10502
X15148Y10187
X15148Y9872
X15148Y9557
X15148Y9242
X15148Y8927
X15148Y8612
X15148Y8297
X15148Y7982
X15148Y7667
X15148Y7352
X15148Y7037
X15226Y6722
X15549Y7037
X15421Y7867
X15386Y9085
X15386Y10029
X16003Y9687
X15148Y10817
X15148Y11132
X15148Y11447
X15148Y11762
X15148Y12077
X15148Y12392
X15148Y12707
X15148Y13022
X15148Y13337
X15148Y13652
X15148Y13966
X15148Y14281
X15148Y14596
X15148Y14911
X15148Y15226
X15148Y15541
X15148Y15856
X15148Y16171
X15148Y16486
X15148Y16801
X15148Y17116
X15148Y17431
X15148Y17746
X15976Y17871
X15974Y18573
X15659Y18730
X15514Y18484
X15541Y19045
X15423Y19360
X15344Y19636
X15344Y20029
X15148Y20384
X15148Y20699
X15492Y20669
X15954Y20668
X15856Y21565
X15620Y21368
X15384Y21565
X15187Y21250
X15659Y17195
X15999Y17140
X15431Y14246
X15758Y12657
X16053Y12657
X15777Y6014
X15463Y6014
X15148Y6014
X16092Y6014
X16407Y6014
X16722Y6014
X17037Y6014
X17352Y6014
X17667Y6014
X17982Y6014
X18297Y6014
X18612Y6014
X18927Y6014
X19242Y6014
X19557Y6014
X19872Y6014
X20187Y6014
X20502Y6014
X20817Y6014
X21132Y6014
X21447Y6014
X21762Y6014
X22077Y6014
X24242Y6014
X24557Y6014
X24872Y6014
X25187Y6014
X25502Y6014
X27638Y6040
X28573Y6014
X28888Y6014
X29203Y6014
X31565Y6014
X16013Y28651
X14045Y28651
X17352Y28612
X15935Y27785
X14872Y27628
X14045Y27510
X17352Y27273
X16446Y26880
X15462Y26840
X14832Y26289
X14045Y26250
X17352Y25856
X16643Y25620
X14045Y25541
X15952Y25455
X14399Y25029
X15265Y24518
X14320Y24281
X17352Y24124
X14045Y23809
X15659Y23218
X14320Y23218
X14907Y28779
X14513Y28779
X17450Y23100
X16978Y23100
X16506Y23100
X16033Y23100
X24161Y5498
X24161Y4996
X24161Y4346
X24161Y3992
X26690Y4777
X27048Y926
X27392Y719
X27511Y1221
X27481Y2619
T02
X26152Y32284
X26152Y31891
X26152Y31497
X26152Y31103
X26152Y30710
X26152Y30316
X26152Y29922
X26220Y38189
X26220Y37795
X26220Y37402
X26220Y37008
X26220Y36614
X26220Y36220
X26220Y35827
X27801Y28858
X28031Y34449
X28386Y35005
X28671Y32284
X28671Y31891
X28671Y31497
X28671Y31103
X28671Y30710
X28671Y30316
X28691Y29954
X28740Y38189
X28740Y37795
X28740Y37402
X28740Y37008
X28740Y36614
X28740Y36220
X28740Y35827
X28740Y34449
X28819Y28150
X28871Y28858
X29528Y38151
X29528Y37757
X29528Y37363
X29528Y36969
X29528Y36576
X29528Y36182
X29528Y35788
X29557Y32245
X29557Y31851
X29557Y31458
X29557Y31064
X29557Y30670
X29557Y30277
X29557Y29883
X31142Y28661
X31299Y34449
X31339Y28031
X31693Y34882
X32047Y38151
X32047Y37757
X32047Y37363
X32047Y36969
X32047Y36576
X32047Y36182
X32047Y35788
X32077Y32245
X32077Y31851
X32077Y31458
X32077Y31064
X32077Y30670
X32077Y30277
X32077Y29883
X32087Y34449
X32126Y28583
X8850Y2980G85X8850Y2547
X8850Y1236G85X8850Y1000
X12252Y2980G85X12252Y2547
X12252Y1236G85X12252Y1000
T03
X9413Y2567
X11689Y2567
T04
X9646Y34136
X9646Y32636
X10709Y34136
X10709Y32636
X11811Y34136
X11811Y32636
X12717Y34114
X12717Y32185
X13583Y34136
X13583Y32636
X14449Y34154
X14449Y32224
X15315Y34136
X15315Y32636
X16181Y34154
X16181Y32224
X17047Y34136
X17047Y32636
X17874Y34136
X17874Y32636
X18851Y34145
X18851Y32645
X19289Y5354
X19289Y4567
X19621Y34136
X19621Y32636
X20493Y34154
X20493Y32224
X20789Y5354
X20789Y4567
X21593Y34134
X21593Y32205
X22493Y34136
X22493Y32636
X23293Y34136
X23293Y32636
X24093Y34155
X24093Y32655
X26201Y24449
X26220Y25472
X27754Y40709
X27754Y39764
X27754Y38937
X28130Y24449
X28150Y25472
X29254Y40709
X29254Y39764
X29254Y38937
X9252Y5472
X10236Y5472
X11220Y5472
X12205Y5472
X13189Y5472
X25699Y15463
X24006Y15581
X22274Y15541
X20384Y15581
X19242Y15581
X18061Y15581
X17549Y15108
T05
X3543Y33465
X3583Y35512
X5207Y21919
X5384Y28022
X7667Y21919
X9360Y21919
X10108Y21919
X10128Y28022
X12077Y28022
X12628Y21919
X12805Y28022
X14360Y14144
X22205Y4291
X23301Y27913
X23301Y26732
X23301Y25551
X23301Y24370
X23301Y23189
X23780Y1890
X23780Y748
X24482Y27913
X24482Y26732
X24482Y25551
X24482Y24370
X24482Y23189
X26132Y22362
X30748Y23268
X24852Y29094
X24852Y22008
X5383Y28022
X10128Y28022
X10108Y21919
X9360Y21919
X7667Y21919
X5206Y21919
X12628Y21919
X12805Y28022
X12076Y28022
X31250Y6329
X28108Y7089
X28108Y6289
X26108Y6689
T06
X12106Y39606
X12106Y38031
X12106Y36456
X13681Y39606
X13681Y38031
X13681Y36456
X15059Y39606
X15059Y38031
X15059Y36456
X16437Y39606
X16437Y38031
X16437Y36456
X17815Y39606
X17815Y38031
X17815Y36456
X19193Y39606
X19193Y38031
X19193Y36456
X20571Y39606
X20571Y38031
X20571Y36456
X22146Y39606
X22146Y38031
X22146Y36456
T07
X9291Y39409G85X9291Y38228
X24961Y39409G85X24961Y38228
T08
X12008Y19213
M30
