G75*
G70*
%OFA0B0*%
%FSLAX25Y25*%
%IPPOS*%
%LPD*%
%AMOC8*
5,1,8,0,0,1.08239X$1,22.5*
%
%AMM133*
21,1,0.035430,0.030320,-0.000000,-0.000000,270.000000*
21,1,0.028350,0.037400,-0.000000,-0.000000,270.000000*
1,1,0.007090,-0.015160,-0.014170*
1,1,0.007090,-0.015160,0.014170*
1,1,0.007090,0.015160,0.014170*
1,1,0.007090,0.015160,-0.014170*
%
%AMM135*
21,1,0.035830,0.026770,-0.000000,-0.000000,180.000000*
21,1,0.029130,0.033470,-0.000000,-0.000000,180.000000*
1,1,0.006690,-0.014570,0.013390*
1,1,0.006690,0.014570,0.013390*
1,1,0.006690,0.014570,-0.013390*
1,1,0.006690,-0.014570,-0.013390*
%
%AMM137*
21,1,0.070870,0.036220,-0.000000,-0.000000,270.000000*
21,1,0.061810,0.045280,-0.000000,-0.000000,270.000000*
1,1,0.009060,-0.018110,-0.030910*
1,1,0.009060,-0.018110,0.030910*
1,1,0.009060,0.018110,0.030910*
1,1,0.009060,0.018110,-0.030910*
%
%AMM157*
21,1,0.033470,0.026770,-0.000000,-0.000000,90.000000*
21,1,0.026770,0.033470,-0.000000,-0.000000,90.000000*
1,1,0.006690,0.013390,0.013390*
1,1,0.006690,0.013390,-0.013390*
1,1,0.006690,-0.013390,-0.013390*
1,1,0.006690,-0.013390,0.013390*
%
%AMM171*
21,1,0.035830,0.026770,0.000000,-0.000000,270.000000*
21,1,0.029130,0.033470,0.000000,-0.000000,270.000000*
1,1,0.006690,-0.013390,-0.014570*
1,1,0.006690,-0.013390,0.014570*
1,1,0.006690,0.013390,0.014570*
1,1,0.006690,0.013390,-0.014570*
%
%AMM173*
21,1,0.070870,0.036220,0.000000,-0.000000,0.000000*
21,1,0.061810,0.045280,0.000000,-0.000000,0.000000*
1,1,0.009060,0.030910,-0.018110*
1,1,0.009060,-0.030910,-0.018110*
1,1,0.009060,-0.030910,0.018110*
1,1,0.009060,0.030910,0.018110*
%
%AMM176*
21,1,0.023620,0.018900,0.000000,-0.000000,0.000000*
21,1,0.018900,0.023620,0.000000,-0.000000,0.000000*
1,1,0.004720,0.009450,-0.009450*
1,1,0.004720,-0.009450,-0.009450*
1,1,0.004720,-0.009450,0.009450*
1,1,0.004720,0.009450,0.009450*
%
%AMM177*
21,1,0.019680,0.019680,0.000000,-0.000000,270.000000*
21,1,0.015750,0.023620,0.000000,-0.000000,270.000000*
1,1,0.003940,-0.009840,-0.007870*
1,1,0.003940,-0.009840,0.007870*
1,1,0.003940,0.009840,0.007870*
1,1,0.003940,0.009840,-0.007870*
%
%AMM178*
21,1,0.019680,0.019680,0.000000,-0.000000,180.000000*
21,1,0.015750,0.023620,0.000000,-0.000000,180.000000*
1,1,0.003940,-0.007870,0.009840*
1,1,0.003940,0.007870,0.009840*
1,1,0.003940,0.007870,-0.009840*
1,1,0.003940,-0.007870,-0.009840*
%
%AMM192*
21,1,0.106300,0.050390,0.000000,-0.000000,0.000000*
21,1,0.093700,0.062990,0.000000,-0.000000,0.000000*
1,1,0.012600,0.046850,-0.025200*
1,1,0.012600,-0.046850,-0.025200*
1,1,0.012600,-0.046850,0.025200*
1,1,0.012600,0.046850,0.025200*
%
%AMM193*
21,1,0.033470,0.026770,0.000000,-0.000000,180.000000*
21,1,0.026770,0.033470,0.000000,-0.000000,180.000000*
1,1,0.006690,-0.013390,0.013390*
1,1,0.006690,0.013390,0.013390*
1,1,0.006690,0.013390,-0.013390*
1,1,0.006690,-0.013390,-0.013390*
%
%AMM194*
21,1,0.023620,0.018900,0.000000,-0.000000,90.000000*
21,1,0.018900,0.023620,0.000000,-0.000000,90.000000*
1,1,0.004720,0.009450,0.009450*
1,1,0.004720,0.009450,-0.009450*
1,1,0.004720,-0.009450,-0.009450*
1,1,0.004720,-0.009450,0.009450*
%
%AMM195*
21,1,0.122050,0.075590,0.000000,-0.000000,90.000000*
21,1,0.103150,0.094490,0.000000,-0.000000,90.000000*
1,1,0.018900,0.037800,0.051580*
1,1,0.018900,0.037800,-0.051580*
1,1,0.018900,-0.037800,-0.051580*
1,1,0.018900,-0.037800,0.051580*
%
%AMM196*
21,1,0.118110,0.083460,0.000000,-0.000000,270.000000*
21,1,0.097240,0.104330,0.000000,-0.000000,270.000000*
1,1,0.020870,-0.041730,-0.048620*
1,1,0.020870,-0.041730,0.048620*
1,1,0.020870,0.041730,0.048620*
1,1,0.020870,0.041730,-0.048620*
%
%AMM259*
21,1,0.027560,0.018900,-0.000000,-0.000000,0.000000*
21,1,0.022840,0.023620,-0.000000,-0.000000,0.000000*
1,1,0.004720,0.011420,-0.009450*
1,1,0.004720,-0.011420,-0.009450*
1,1,0.004720,-0.011420,0.009450*
1,1,0.004720,0.011420,0.009450*
%
%AMM262*
21,1,0.025590,0.026380,-0.000000,-0.000000,270.000000*
21,1,0.020470,0.031500,-0.000000,-0.000000,270.000000*
1,1,0.005120,-0.013190,-0.010240*
1,1,0.005120,-0.013190,0.010240*
1,1,0.005120,0.013190,0.010240*
1,1,0.005120,0.013190,-0.010240*
%
%AMM263*
21,1,0.017720,0.027950,-0.000000,-0.000000,270.000000*
21,1,0.014170,0.031500,-0.000000,-0.000000,270.000000*
1,1,0.003540,-0.013980,-0.007090*
1,1,0.003540,-0.013980,0.007090*
1,1,0.003540,0.013980,0.007090*
1,1,0.003540,0.013980,-0.007090*
%
%AMM265*
21,1,0.012600,0.028980,-0.000000,-0.000000,270.000000*
21,1,0.010080,0.031500,-0.000000,-0.000000,270.000000*
1,1,0.002520,-0.014490,-0.005040*
1,1,0.002520,-0.014490,0.005040*
1,1,0.002520,0.014490,0.005040*
1,1,0.002520,0.014490,-0.005040*
%
%AMM268*
21,1,0.027560,0.018900,-0.000000,-0.000000,270.000000*
21,1,0.022840,0.023620,-0.000000,-0.000000,270.000000*
1,1,0.004720,-0.009450,-0.011420*
1,1,0.004720,-0.009450,0.011420*
1,1,0.004720,0.009450,0.011420*
1,1,0.004720,0.009450,-0.011420*
%
%AMM285*
21,1,0.035430,0.030320,-0.000000,-0.000000,0.000000*
21,1,0.028350,0.037400,-0.000000,-0.000000,0.000000*
1,1,0.007090,0.014170,-0.015160*
1,1,0.007090,-0.014170,-0.015160*
1,1,0.007090,-0.014170,0.015160*
1,1,0.007090,0.014170,0.015160*
%
%AMM286*
21,1,0.070870,0.036220,-0.000000,-0.000000,180.000000*
21,1,0.061810,0.045280,-0.000000,-0.000000,180.000000*
1,1,0.009060,-0.030910,0.018110*
1,1,0.009060,0.030910,0.018110*
1,1,0.009060,0.030910,-0.018110*
1,1,0.009060,-0.030910,-0.018110*
%
%AMM287*
21,1,0.059060,0.020470,-0.000000,-0.000000,270.000000*
21,1,0.053940,0.025590,-0.000000,-0.000000,270.000000*
1,1,0.005120,-0.010240,-0.026970*
1,1,0.005120,-0.010240,0.026970*
1,1,0.005120,0.010240,0.026970*
1,1,0.005120,0.010240,-0.026970*
%
%AMM288*
21,1,0.078740,0.045670,-0.000000,-0.000000,270.000000*
21,1,0.067320,0.057090,-0.000000,-0.000000,270.000000*
1,1,0.011420,-0.022840,-0.033660*
1,1,0.011420,-0.022840,0.033660*
1,1,0.011420,0.022840,0.033660*
1,1,0.011420,0.022840,-0.033660*
%
%AMM289*
21,1,0.025590,0.026380,-0.000000,-0.000000,180.000000*
21,1,0.020470,0.031500,-0.000000,-0.000000,180.000000*
1,1,0.005120,-0.010240,0.013190*
1,1,0.005120,0.010240,0.013190*
1,1,0.005120,0.010240,-0.013190*
1,1,0.005120,-0.010240,-0.013190*
%
%AMM290*
21,1,0.017720,0.027950,-0.000000,-0.000000,180.000000*
21,1,0.014170,0.031500,-0.000000,-0.000000,180.000000*
1,1,0.003540,-0.007090,0.013980*
1,1,0.003540,0.007090,0.013980*
1,1,0.003540,0.007090,-0.013980*
1,1,0.003540,-0.007090,-0.013980*
%
%AMM291*
21,1,0.027560,0.030710,-0.000000,-0.000000,270.000000*
21,1,0.022050,0.036220,-0.000000,-0.000000,270.000000*
1,1,0.005510,-0.015350,-0.011020*
1,1,0.005510,-0.015350,0.011020*
1,1,0.005510,0.015350,0.011020*
1,1,0.005510,0.015350,-0.011020*
%
%AMM292*
21,1,0.027560,0.049610,-0.000000,-0.000000,90.000000*
21,1,0.022050,0.055120,-0.000000,-0.000000,90.000000*
1,1,0.005510,0.024800,0.011020*
1,1,0.005510,0.024800,-0.011020*
1,1,0.005510,-0.024800,-0.011020*
1,1,0.005510,-0.024800,0.011020*
%
%AMM293*
21,1,0.027560,0.030710,-0.000000,-0.000000,180.000000*
21,1,0.022050,0.036220,-0.000000,-0.000000,180.000000*
1,1,0.005510,-0.011020,0.015350*
1,1,0.005510,0.011020,0.015350*
1,1,0.005510,0.011020,-0.015350*
1,1,0.005510,-0.011020,-0.015350*
%
%ADD195R,0.03937X0.04331*%
%ADD200R,0.09449X0.06693*%
%ADD206O,0.04961X0.00984*%
%ADD207R,0.00984X0.01378*%
%ADD208R,0.01378X0.00984*%
%ADD283O,0.08661X0.01968*%
%ADD295M133*%
%ADD297M135*%
%ADD299M137*%
%ADD319M157*%
%ADD333M171*%
%ADD335M173*%
%ADD338M176*%
%ADD339M177*%
%ADD340M178*%
%ADD354M192*%
%ADD355M193*%
%ADD356M194*%
%ADD357M195*%
%ADD358M196*%
%ADD441M259*%
%ADD444M262*%
%ADD445M263*%
%ADD447M265*%
%ADD450M268*%
%ADD46R,0.00787X0.09055*%
%ADD467M285*%
%ADD468M286*%
%ADD469M287*%
%ADD47R,0.00787X0.42126*%
%ADD470M288*%
%ADD471M289*%
%ADD472M290*%
%ADD473M291*%
%ADD474M292*%
%ADD475M293*%
%ADD48R,0.00787X0.08268*%
%ADD49R,0.00787X0.23622*%
%ADD50R,0.00787X0.21260*%
%ADD51R,0.05512X0.00787*%
%ADD52R,0.19685X0.00787*%
%ADD53R,0.26772X0.00787*%
%ADD54R,0.17717X0.00787*%
%ADD55R,0.00787X0.06299*%
%ADD56R,0.00787X0.22441*%
%ADD57R,0.00787X0.07874*%
%ADD86R,0.12008X0.10827*%
X0000000Y0000000D02*
%LPD*%
G01*
D46*
X0316437Y0212303D03*
D47*
X0316437Y0083169D03*
D48*
X0316437Y0115453D03*
D49*
X0316437Y0162894D03*
D50*
X0316437Y0189272D03*
D51*
X0309350Y0216437D03*
D52*
X0303839Y0059350D03*
D53*
X0270374Y0059350D03*
D54*
X0231594Y0059350D03*
D55*
X0150689Y0065256D03*
D56*
X0150689Y0190650D03*
D57*
X0150689Y0212894D03*
G36*
G01*
X0217520Y0050039D02*
X0217520Y0053110D01*
G75*
G02*
X0217795Y0053386I0000276J0000000D01*
G01*
X0220000Y0053386D01*
G75*
G02*
X0220276Y0053110I0000000J-000276D01*
G01*
X0220276Y0050039D01*
G75*
G02*
X0220000Y0049764I-000276J0000000D01*
G01*
X0217795Y0049764D01*
G75*
G02*
X0217520Y0050039I0000000J0000276D01*
G01*
G37*
G36*
G01*
X0223819Y0050039D02*
X0223819Y0053110D01*
G75*
G02*
X0224094Y0053386I0000276J0000000D01*
G01*
X0226299Y0053386D01*
G75*
G02*
X0226575Y0053110I0000000J-000276D01*
G01*
X0226575Y0050039D01*
G75*
G02*
X0226299Y0049764I-000276J0000000D01*
G01*
X0224094Y0049764D01*
G75*
G02*
X0223819Y0050039I0000000J0000276D01*
G01*
G37*
G36*
G01*
X0099409Y0011063D02*
X0099409Y0014134D01*
G75*
G02*
X0099685Y0014409I0000276J0000000D01*
G01*
X0101890Y0014409D01*
G75*
G02*
X0102165Y0014134I0000000J-000276D01*
G01*
X0102165Y0011063D01*
G75*
G02*
X0101890Y0010787I-000276J0000000D01*
G01*
X0099685Y0010787D01*
G75*
G02*
X0099409Y0011063I0000000J0000276D01*
G01*
G37*
G36*
G01*
X0105709Y0011063D02*
X0105709Y0014134D01*
G75*
G02*
X0105984Y0014409I0000276J0000000D01*
G01*
X0108189Y0014409D01*
G75*
G02*
X0108465Y0014134I0000000J-000276D01*
G01*
X0108465Y0011063D01*
G75*
G02*
X0108189Y0010787I-000276J0000000D01*
G01*
X0105984Y0010787D01*
G75*
G02*
X0105709Y0011063I0000000J0000276D01*
G01*
G37*
G36*
G01*
X0050787Y0137697D02*
X0050787Y0142618D01*
G75*
G02*
X0051181Y0143012I0000394J0000000D01*
G01*
X0054331Y0143012D01*
G75*
G02*
X0054724Y0142618I0000000J-000394D01*
G01*
X0054724Y0137697D01*
G75*
G02*
X0054331Y0137303I-000394J0000000D01*
G01*
X0051181Y0137303D01*
G75*
G02*
X0050787Y0137697I0000000J0000394D01*
G01*
G37*
G36*
G01*
X0058268Y0137697D02*
X0058268Y0142618D01*
G75*
G02*
X0058662Y0143012I0000394J0000000D01*
G01*
X0061811Y0143012D01*
G75*
G02*
X0062205Y0142618I0000000J-000394D01*
G01*
X0062205Y0137697D01*
G75*
G02*
X0061811Y0137303I-000394J0000000D01*
G01*
X0058662Y0137303D01*
G75*
G02*
X0058268Y0137697I0000000J0000394D01*
G01*
G37*
G36*
G01*
X0256299Y0231850D02*
X0256299Y0235866D01*
G75*
G02*
X0256654Y0236220I0000354J0000000D01*
G01*
X0259488Y0236220D01*
G75*
G02*
X0259843Y0235866I0000000J-000354D01*
G01*
X0259843Y0231850D01*
G75*
G02*
X0259488Y0231496I-000354J0000000D01*
G01*
X0256654Y0231496D01*
G75*
G02*
X0256299Y0231850I0000000J0000354D01*
G01*
G37*
G36*
G01*
X0269291Y0231850D02*
X0269291Y0235866D01*
G75*
G02*
X0269646Y0236220I0000354J0000000D01*
G01*
X0272480Y0236220D01*
G75*
G02*
X0272835Y0235866I0000000J-000354D01*
G01*
X0272835Y0231850D01*
G75*
G02*
X0272480Y0231496I-000354J0000000D01*
G01*
X0269646Y0231496D01*
G75*
G02*
X0269291Y0231850I0000000J0000354D01*
G01*
G37*
G36*
G01*
X0025197Y0214075D02*
X0026378Y0214075D01*
G75*
G02*
X0026969Y0213484I0000000J-000591D01*
G01*
X0026969Y0208858D01*
G75*
G02*
X0026378Y0208268I-000591J0000000D01*
G01*
X0025197Y0208268D01*
G75*
G02*
X0024606Y0208858I0000000J0000591D01*
G01*
X0024606Y0213484D01*
G75*
G02*
X0025197Y0214075I0000591J0000000D01*
G01*
G37*
G36*
G01*
X0032677Y0214075D02*
X0033858Y0214075D01*
G75*
G02*
X0034449Y0213484I0000000J-000591D01*
G01*
X0034449Y0208858D01*
G75*
G02*
X0033858Y0208268I-000591J0000000D01*
G01*
X0032677Y0208268D01*
G75*
G02*
X0032087Y0208858I0000000J0000591D01*
G01*
X0032087Y0213484D01*
G75*
G02*
X0032677Y0214075I0000591J0000000D01*
G01*
G37*
G36*
G01*
X0028937Y0206693D02*
X0030118Y0206693D01*
G75*
G02*
X0030709Y0206102I0000000J-000591D01*
G01*
X0030709Y0201476D01*
G75*
G02*
X0030118Y0200886I-000591J0000000D01*
G01*
X0028937Y0200886D01*
G75*
G02*
X0028346Y0201476I0000000J0000591D01*
G01*
X0028346Y0206102D01*
G75*
G02*
X0028937Y0206693I0000591J0000000D01*
G01*
G37*
G36*
G01*
X0292953Y0270669D02*
X0296024Y0270669D01*
G75*
G02*
X0296299Y0270394I0000000J-000276D01*
G01*
X0296299Y0268189D01*
G75*
G02*
X0296024Y0267913I-000276J0000000D01*
G01*
X0292953Y0267913D01*
G75*
G02*
X0292677Y0268189I0000000J0000276D01*
G01*
X0292677Y0270394D01*
G75*
G02*
X0292953Y0270669I0000276J0000000D01*
G01*
G37*
G36*
G01*
X0292953Y0264370D02*
X0296024Y0264370D01*
G75*
G02*
X0296299Y0264094I0000000J-000276D01*
G01*
X0296299Y0261890D01*
G75*
G02*
X0296024Y0261614I-000276J0000000D01*
G01*
X0292953Y0261614D01*
G75*
G02*
X0292677Y0261890I0000000J0000276D01*
G01*
X0292677Y0264094D01*
G75*
G02*
X0292953Y0264370I0000276J0000000D01*
G01*
G37*
D86*
X0202559Y0245472D03*
X0202559Y0233465D03*
X0215748Y0245472D03*
X0215748Y0233465D03*
G36*
G01*
X0180020Y0228602D02*
X0180020Y0232382D01*
G75*
G02*
X0180492Y0232854I0000472J0000000D01*
G01*
X0188209Y0232854D01*
G75*
G02*
X0188681Y0232382I0000000J-000472D01*
G01*
X0188681Y0228602D01*
G75*
G02*
X0188209Y0228130I-000472J0000000D01*
G01*
X0180492Y0228130D01*
G75*
G02*
X0180020Y0228602I0000000J0000472D01*
G01*
G37*
G36*
G01*
X0180020Y0246555D02*
X0180020Y0250335D01*
G75*
G02*
X0180492Y0250807I0000472J0000000D01*
G01*
X0188209Y0250807D01*
G75*
G02*
X0188681Y0250335I0000000J-000472D01*
G01*
X0188681Y0246555D01*
G75*
G02*
X0188209Y0246083I-000472J0000000D01*
G01*
X0180492Y0246083D01*
G75*
G02*
X0180020Y0246555I0000000J0000472D01*
G01*
G37*
G36*
G01*
X0029724Y0150039D02*
X0029724Y0153110D01*
G75*
G02*
X0030000Y0153386I0000276J0000000D01*
G01*
X0032205Y0153386D01*
G75*
G02*
X0032480Y0153110I0000000J-000276D01*
G01*
X0032480Y0150039D01*
G75*
G02*
X0032205Y0149764I-000276J0000000D01*
G01*
X0030000Y0149764D01*
G75*
G02*
X0029724Y0150039I0000000J0000276D01*
G01*
G37*
G36*
G01*
X0036024Y0150039D02*
X0036024Y0153110D01*
G75*
G02*
X0036299Y0153386I0000276J0000000D01*
G01*
X0038504Y0153386D01*
G75*
G02*
X0038780Y0153110I0000000J-000276D01*
G01*
X0038780Y0150039D01*
G75*
G02*
X0038504Y0149764I-000276J0000000D01*
G01*
X0036299Y0149764D01*
G75*
G02*
X0036024Y0150039I0000000J0000276D01*
G01*
G37*
G36*
G01*
X0290846Y0238189D02*
X0290846Y0237008D01*
G75*
G02*
X0290256Y0236417I-000591J0000000D01*
G01*
X0285630Y0236417D01*
G75*
G02*
X0285039Y0237008I0000000J0000591D01*
G01*
X0285039Y0238189D01*
G75*
G02*
X0285630Y0238780I0000591J0000000D01*
G01*
X0290256Y0238780D01*
G75*
G02*
X0290846Y0238189I0000000J-000591D01*
G01*
G37*
G36*
G01*
X0290846Y0230709D02*
X0290846Y0229528D01*
G75*
G02*
X0290256Y0228937I-000591J0000000D01*
G01*
X0285630Y0228937D01*
G75*
G02*
X0285039Y0229528I0000000J0000591D01*
G01*
X0285039Y0230709D01*
G75*
G02*
X0285630Y0231299I0000591J0000000D01*
G01*
X0290256Y0231299D01*
G75*
G02*
X0290846Y0230709I0000000J-000591D01*
G01*
G37*
G36*
G01*
X0283465Y0234449D02*
X0283465Y0233268D01*
G75*
G02*
X0282874Y0232677I-000591J0000000D01*
G01*
X0278248Y0232677D01*
G75*
G02*
X0277657Y0233268I0000000J0000591D01*
G01*
X0277657Y0234449D01*
G75*
G02*
X0278248Y0235039I0000591J0000000D01*
G01*
X0282874Y0235039D01*
G75*
G02*
X0283465Y0234449I0000000J-000591D01*
G01*
G37*
G36*
G01*
X0288878Y0271654D02*
X0288878Y0270472D01*
G75*
G02*
X0288287Y0269882I-000591J0000000D01*
G01*
X0283661Y0269882D01*
G75*
G02*
X0283071Y0270472I0000000J0000591D01*
G01*
X0283071Y0271654D01*
G75*
G02*
X0283661Y0272244I0000591J0000000D01*
G01*
X0288287Y0272244D01*
G75*
G02*
X0288878Y0271654I0000000J-000591D01*
G01*
G37*
G36*
G01*
X0288878Y0264173D02*
X0288878Y0262992D01*
G75*
G02*
X0288287Y0262402I-000591J0000000D01*
G01*
X0283661Y0262402D01*
G75*
G02*
X0283071Y0262992I0000000J0000591D01*
G01*
X0283071Y0264173D01*
G75*
G02*
X0283661Y0264764I0000591J0000000D01*
G01*
X0288287Y0264764D01*
G75*
G02*
X0288878Y0264173I0000000J-000591D01*
G01*
G37*
G36*
G01*
X0281496Y0267913D02*
X0281496Y0266732D01*
G75*
G02*
X0280906Y0266142I-000591J0000000D01*
G01*
X0276280Y0266142D01*
G75*
G02*
X0275689Y0266732I0000000J0000591D01*
G01*
X0275689Y0267913D01*
G75*
G02*
X0276280Y0268504I0000591J0000000D01*
G01*
X0280906Y0268504D01*
G75*
G02*
X0281496Y0267913I0000000J-000591D01*
G01*
G37*
G36*
G01*
X0025197Y0229970D02*
X0026378Y0229970D01*
G75*
G02*
X0026969Y0229380I0000000J-000591D01*
G01*
X0026969Y0224754D01*
G75*
G02*
X0026378Y0224163I-000591J0000000D01*
G01*
X0025197Y0224163D01*
G75*
G02*
X0024606Y0224754I0000000J0000591D01*
G01*
X0024606Y0229380D01*
G75*
G02*
X0025197Y0229970I0000591J0000000D01*
G01*
G37*
G36*
G01*
X0032677Y0229970D02*
X0033858Y0229970D01*
G75*
G02*
X0034449Y0229380I0000000J-000591D01*
G01*
X0034449Y0224754D01*
G75*
G02*
X0033858Y0224163I-000591J0000000D01*
G01*
X0032677Y0224163D01*
G75*
G02*
X0032087Y0224754I0000000J0000591D01*
G01*
X0032087Y0229380D01*
G75*
G02*
X0032677Y0229970I0000591J0000000D01*
G01*
G37*
G36*
G01*
X0028937Y0222589D02*
X0030118Y0222589D01*
G75*
G02*
X0030709Y0221998I0000000J-000591D01*
G01*
X0030709Y0217372D01*
G75*
G02*
X0030118Y0216781I-000591J0000000D01*
G01*
X0028937Y0216781D01*
G75*
G02*
X0028346Y0217372I0000000J0000591D01*
G01*
X0028346Y0221998D01*
G75*
G02*
X0028937Y0222589I0000591J0000000D01*
G01*
G37*
G36*
G01*
X0046220Y0135374D02*
X0043543Y0135374D01*
G75*
G02*
X0043209Y0135709I0000000J0000335D01*
G01*
X0043209Y0138386D01*
G75*
G02*
X0043543Y0138720I0000335J0000000D01*
G01*
X0046220Y0138720D01*
G75*
G02*
X0046555Y0138386I0000000J-000335D01*
G01*
X0046555Y0135709D01*
G75*
G02*
X0046220Y0135374I-000335J0000000D01*
G01*
G37*
G36*
G01*
X0046220Y0141594D02*
X0043543Y0141594D01*
G75*
G02*
X0043209Y0141929I0000000J0000335D01*
G01*
X0043209Y0144606D01*
G75*
G02*
X0043543Y0144941I0000335J0000000D01*
G01*
X0046220Y0144941D01*
G75*
G02*
X0046555Y0144606I0000000J-000335D01*
G01*
X0046555Y0141929D01*
G75*
G02*
X0046220Y0141594I-000335J0000000D01*
G01*
G37*
G36*
G01*
X0300984Y0252510D02*
X0302165Y0252510D01*
G75*
G02*
X0302756Y0251919I0000000J-000591D01*
G01*
X0302756Y0247293D01*
G75*
G02*
X0302165Y0246703I-000591J0000000D01*
G01*
X0300984Y0246703D01*
G75*
G02*
X0300394Y0247293I0000000J0000591D01*
G01*
X0300394Y0251919D01*
G75*
G02*
X0300984Y0252510I0000591J0000000D01*
G01*
G37*
G36*
G01*
X0304724Y0245128D02*
X0305906Y0245128D01*
G75*
G02*
X0306496Y0244537I0000000J-000591D01*
G01*
X0306496Y0239911D01*
G75*
G02*
X0305906Y0239321I-000591J0000000D01*
G01*
X0304724Y0239321D01*
G75*
G02*
X0304134Y0239911I0000000J0000591D01*
G01*
X0304134Y0244537D01*
G75*
G02*
X0304724Y0245128I0000591J0000000D01*
G01*
G37*
G36*
G01*
X0308465Y0252510D02*
X0309646Y0252510D01*
G75*
G02*
X0310236Y0251919I0000000J-000591D01*
G01*
X0310236Y0247293D01*
G75*
G02*
X0309646Y0246703I-000591J0000000D01*
G01*
X0308465Y0246703D01*
G75*
G02*
X0307874Y0247293I0000000J0000591D01*
G01*
X0307874Y0251919D01*
G75*
G02*
X0308465Y0252510I0000591J0000000D01*
G01*
G37*
G36*
G01*
X0040600Y0144094D02*
X0040600Y0142913D01*
G75*
G02*
X0040010Y0142323I-000591J0000000D01*
G01*
X0035384Y0142323D01*
G75*
G02*
X0034793Y0142913I0000000J0000591D01*
G01*
X0034793Y0144094D01*
G75*
G02*
X0035384Y0144685I0000591J0000000D01*
G01*
X0040010Y0144685D01*
G75*
G02*
X0040600Y0144094I0000000J-000591D01*
G01*
G37*
G36*
G01*
X0033219Y0140354D02*
X0033219Y0139173D01*
G75*
G02*
X0032628Y0138583I-000591J0000000D01*
G01*
X0028002Y0138583D01*
G75*
G02*
X0027411Y0139173I0000000J0000591D01*
G01*
X0027411Y0140354D01*
G75*
G02*
X0028002Y0140945I0000591J0000000D01*
G01*
X0032628Y0140945D01*
G75*
G02*
X0033219Y0140354I0000000J-000591D01*
G01*
G37*
G36*
G01*
X0040600Y0136614D02*
X0040600Y0135433D01*
G75*
G02*
X0040010Y0134843I-000591J0000000D01*
G01*
X0035384Y0134843D01*
G75*
G02*
X0034793Y0135433I0000000J0000591D01*
G01*
X0034793Y0136614D01*
G75*
G02*
X0035384Y0137205I0000591J0000000D01*
G01*
X0040010Y0137205D01*
G75*
G02*
X0040600Y0136614I0000000J-000591D01*
G01*
G37*
G36*
G01*
X0316181Y0271850D02*
X0319252Y0271850D01*
G75*
G02*
X0319528Y0271575I0000000J-000276D01*
G01*
X0319528Y0269370D01*
G75*
G02*
X0319252Y0269094I-000276J0000000D01*
G01*
X0316181Y0269094D01*
G75*
G02*
X0315906Y0269370I0000000J0000276D01*
G01*
X0315906Y0271575D01*
G75*
G02*
X0316181Y0271850I0000276J0000000D01*
G01*
G37*
G36*
G01*
X0316181Y0265551D02*
X0319252Y0265551D01*
G75*
G02*
X0319528Y0265276I0000000J-000276D01*
G01*
X0319528Y0263071D01*
G75*
G02*
X0319252Y0262795I-000276J0000000D01*
G01*
X0316181Y0262795D01*
G75*
G02*
X0315906Y0263071I0000000J0000276D01*
G01*
X0315906Y0265276D01*
G75*
G02*
X0316181Y0265551I0000276J0000000D01*
G01*
G37*
G36*
G01*
X0255906Y0265315D02*
X0255906Y0269331D01*
G75*
G02*
X0256260Y0269685I0000354J0000000D01*
G01*
X0259094Y0269685D01*
G75*
G02*
X0259449Y0269331I0000000J-000354D01*
G01*
X0259449Y0265315D01*
G75*
G02*
X0259094Y0264961I-000354J0000000D01*
G01*
X0256260Y0264961D01*
G75*
G02*
X0255906Y0265315I0000000J0000354D01*
G01*
G37*
G36*
G01*
X0268898Y0265315D02*
X0268898Y0269331D01*
G75*
G02*
X0269252Y0269685I0000354J0000000D01*
G01*
X0272087Y0269685D01*
G75*
G02*
X0272441Y0269331I0000000J-000354D01*
G01*
X0272441Y0265315D01*
G75*
G02*
X0272087Y0264961I-000354J0000000D01*
G01*
X0269252Y0264961D01*
G75*
G02*
X0268898Y0265315I0000000J0000354D01*
G01*
G37*
G36*
G01*
X0312106Y0271654D02*
X0312106Y0270472D01*
G75*
G02*
X0311516Y0269882I-000591J0000000D01*
G01*
X0306890Y0269882D01*
G75*
G02*
X0306299Y0270472I0000000J0000591D01*
G01*
X0306299Y0271654D01*
G75*
G02*
X0306890Y0272244I0000591J0000000D01*
G01*
X0311516Y0272244D01*
G75*
G02*
X0312106Y0271654I0000000J-000591D01*
G01*
G37*
G36*
G01*
X0304724Y0267913D02*
X0304724Y0266732D01*
G75*
G02*
X0304134Y0266142I-000591J0000000D01*
G01*
X0299508Y0266142D01*
G75*
G02*
X0298917Y0266732I0000000J0000591D01*
G01*
X0298917Y0267913D01*
G75*
G02*
X0299508Y0268504I0000591J0000000D01*
G01*
X0304134Y0268504D01*
G75*
G02*
X0304724Y0267913I0000000J-000591D01*
G01*
G37*
G36*
G01*
X0312106Y0264173D02*
X0312106Y0262992D01*
G75*
G02*
X0311516Y0262402I-000591J0000000D01*
G01*
X0306890Y0262402D01*
G75*
G02*
X0306299Y0262992I0000000J0000591D01*
G01*
X0306299Y0264173D01*
G75*
G02*
X0306890Y0264764I0000591J0000000D01*
G01*
X0311516Y0264764D01*
G75*
G02*
X0312106Y0264173I0000000J-000591D01*
G01*
G37*
G36*
G01*
X0297047Y0251142D02*
X0297047Y0248071D01*
G75*
G02*
X0296772Y0247795I-000276J0000000D01*
G01*
X0294567Y0247795D01*
G75*
G02*
X0294291Y0248071I0000000J0000276D01*
G01*
X0294291Y0251142D01*
G75*
G02*
X0294567Y0251417I0000276J0000000D01*
G01*
X0296772Y0251417D01*
G75*
G02*
X0297047Y0251142I0000000J-000276D01*
G01*
G37*
G36*
G01*
X0290748Y0251142D02*
X0290748Y0248071D01*
G75*
G02*
X0290472Y0247795I-000276J0000000D01*
G01*
X0288268Y0247795D01*
G75*
G02*
X0287992Y0248071I0000000J0000276D01*
G01*
X0287992Y0251142D01*
G75*
G02*
X0288268Y0251417I0000276J0000000D01*
G01*
X0290472Y0251417D01*
G75*
G02*
X0290748Y0251142I0000000J-000276D01*
G01*
G37*
G36*
G01*
X0108465Y0020433D02*
X0108465Y0017362D01*
G75*
G02*
X0108189Y0017087I-000276J0000000D01*
G01*
X0105984Y0017087D01*
G75*
G02*
X0105709Y0017362I0000000J0000276D01*
G01*
X0105709Y0020433D01*
G75*
G02*
X0105984Y0020709I0000276J0000000D01*
G01*
X0108189Y0020709D01*
G75*
G02*
X0108465Y0020433I0000000J-000276D01*
G01*
G37*
G36*
G01*
X0102165Y0020433D02*
X0102165Y0017362D01*
G75*
G02*
X0101890Y0017087I-000276J0000000D01*
G01*
X0099685Y0017087D01*
G75*
G02*
X0099409Y0017362I0000000J0000276D01*
G01*
X0099409Y0020433D01*
G75*
G02*
X0099685Y0020709I0000276J0000000D01*
G01*
X0101890Y0020709D01*
G75*
G02*
X0102165Y0020433I0000000J-000276D01*
G01*
G37*
G36*
G01*
X0092106Y0196299D02*
X0092106Y0198976D01*
G75*
G02*
X0092441Y0199311I0000335J0000000D01*
G01*
X0095118Y0199311D01*
G75*
G02*
X0095453Y0198976I0000000J-000335D01*
G01*
X0095453Y0196299D01*
G75*
G02*
X0095118Y0195965I-000335J0000000D01*
G01*
X0092441Y0195965D01*
G75*
G02*
X0092106Y0196299I0000000J0000335D01*
G01*
G37*
G36*
G01*
X0098327Y0196299D02*
X0098327Y0198976D01*
G75*
G02*
X0098661Y0199311I0000335J0000000D01*
G01*
X0101339Y0199311D01*
G75*
G02*
X0101673Y0198976I0000000J-000335D01*
G01*
X0101673Y0196299D01*
G75*
G02*
X0101339Y0195965I-000335J0000000D01*
G01*
X0098661Y0195965D01*
G75*
G02*
X0098327Y0196299I0000000J0000335D01*
G01*
G37*
G36*
G01*
X0294134Y0238386D02*
X0297205Y0238386D01*
G75*
G02*
X0297480Y0238110I0000000J-000276D01*
G01*
X0297480Y0235906D01*
G75*
G02*
X0297205Y0235630I-000276J0000000D01*
G01*
X0294134Y0235630D01*
G75*
G02*
X0293858Y0235906I0000000J0000276D01*
G01*
X0293858Y0238110D01*
G75*
G02*
X0294134Y0238386I0000276J0000000D01*
G01*
G37*
G36*
G01*
X0294134Y0232087D02*
X0297205Y0232087D01*
G75*
G02*
X0297480Y0231811I0000000J-000276D01*
G01*
X0297480Y0229606D01*
G75*
G02*
X0297205Y0229331I-000276J0000000D01*
G01*
X0294134Y0229331D01*
G75*
G02*
X0293858Y0229606I0000000J0000276D01*
G01*
X0293858Y0231811D01*
G75*
G02*
X0294134Y0232087I0000276J0000000D01*
G01*
G37*
X0202559Y0273819D03*
X0202559Y0261811D03*
X0215748Y0273819D03*
X0215748Y0261811D03*
G36*
G01*
X0180020Y0256949D02*
X0180020Y0260728D01*
G75*
G02*
X0180492Y0261201I0000472J0000000D01*
G01*
X0188209Y0261201D01*
G75*
G02*
X0188681Y0260728I0000000J-000472D01*
G01*
X0188681Y0256949D01*
G75*
G02*
X0188209Y0256476I-000472J0000000D01*
G01*
X0180492Y0256476D01*
G75*
G02*
X0180020Y0256949I0000000J0000472D01*
G01*
G37*
G36*
G01*
X0180020Y0274902D02*
X0180020Y0278681D01*
G75*
G02*
X0180492Y0279154I0000472J0000000D01*
G01*
X0188209Y0279154D01*
G75*
G02*
X0188681Y0278681I0000000J-000472D01*
G01*
X0188681Y0274902D01*
G75*
G02*
X0188209Y0274429I-000472J0000000D01*
G01*
X0180492Y0274429D01*
G75*
G02*
X0180020Y0274902I0000000J0000472D01*
G01*
G37*
X0049114Y0283169D02*
G01*
G75*
D333*
X0125492Y0253254D02*
D03*
X0125492Y0266246D02*
D03*
D335*
X0125886Y0233394D02*
D03*
X0125886Y0244811D02*
D03*
X0117854Y0233394D02*
D03*
X0117854Y0244811D02*
D03*
D338*
X0103838Y0270767D02*
D03*
X0107775Y0270767D02*
D03*
X0118405Y0274114D02*
D03*
X0118405Y0265452D02*
D03*
X0113157Y0274901D02*
D03*
X0113157Y0266240D02*
D03*
D339*
X0060531Y0263014D02*
D03*
X0060531Y0266558D02*
D03*
X0097264Y0253623D02*
D03*
X0097264Y0250079D02*
D03*
X0112369Y0261620D02*
D03*
X0112369Y0258077D02*
D03*
X0060531Y0254396D02*
D03*
X0060531Y0257939D02*
D03*
X0064468Y0274901D02*
D03*
X0064468Y0271358D02*
D03*
D340*
X0113944Y0249416D02*
D03*
X0117488Y0249416D02*
D03*
X0126346Y0270183D02*
D03*
X0122802Y0270183D02*
D03*
X0068029Y0221419D02*
D03*
X0071573Y0221419D02*
D03*
D354*
X0105413Y0233956D02*
D03*
X0105413Y0244980D02*
D03*
D355*
X0101090Y0266634D02*
D03*
X0107310Y0266634D02*
D03*
X0101090Y0252540D02*
D03*
X0107310Y0252540D02*
D03*
X0101090Y0257231D02*
D03*
X0107310Y0257231D02*
D03*
X0101090Y0261923D02*
D03*
X0107310Y0261923D02*
D03*
X0113334Y0253721D02*
D03*
X0119555Y0253721D02*
D03*
D356*
X0064468Y0263211D02*
D03*
X0064468Y0267148D02*
D03*
X0064468Y0258530D02*
D03*
X0064468Y0254593D02*
D03*
X0118405Y0261817D02*
D03*
X0118405Y0257880D02*
D03*
X0096791Y0238884D02*
D03*
X0096791Y0234947D02*
D03*
X0059350Y0231108D02*
D03*
X0059350Y0235046D02*
D03*
D283*
X0071228Y0258097D02*
D03*
X0071228Y0263097D02*
D03*
X0071228Y0268097D02*
D03*
X0071228Y0273097D02*
D03*
X0093865Y0258097D02*
D03*
X0093865Y0263097D02*
D03*
X0093865Y0268097D02*
D03*
X0093865Y0273097D02*
D03*
X0065945Y0235030D02*
D03*
X0065945Y0240030D02*
D03*
X0065945Y0245030D02*
D03*
X0065945Y0250030D02*
D03*
X0089370Y0235030D02*
D03*
X0089370Y0240030D02*
D03*
X0089370Y0245030D02*
D03*
X0089370Y0250030D02*
D03*
D357*
X0082546Y0265597D02*
D03*
D358*
X0077657Y0242530D02*
D03*
X0316831Y0216831D02*
G01*
G75*
D50*
X0316437Y0189272D02*
D03*
D46*
X0316437Y0212303D02*
D03*
D49*
X0316437Y0162894D02*
D03*
D57*
X0150689Y0212894D02*
D03*
D48*
X0316437Y0115453D02*
D03*
D47*
X0316437Y0083170D02*
D03*
D52*
X0303839Y0059351D02*
D03*
D53*
X0270374Y0059351D02*
D03*
D54*
X0231595Y0059351D02*
D03*
D56*
X0150689Y0190650D02*
D03*
D55*
X0150689Y0065256D02*
D03*
D51*
X0309351Y0216437D02*
D03*
D295*
X0305216Y0115589D02*
D03*
X0295964Y0111849D02*
D03*
D295*
X0305216Y0108108D02*
D03*
D441*
X0285138Y0164863D02*
D03*
X0285138Y0160926D02*
D03*
X0164469Y0121949D02*
D03*
X0164469Y0125886D02*
D03*
X0288189Y0062697D02*
D03*
X0288189Y0066634D02*
D03*
X0255006Y0140059D02*
D03*
X0255006Y0143996D02*
D03*
X0238101Y0140131D02*
D03*
X0238101Y0136194D02*
D03*
X0260138Y0143603D02*
D03*
X0260138Y0139666D02*
D03*
X0311332Y0160015D02*
D03*
X0311332Y0163952D02*
D03*
X0293603Y0090847D02*
D03*
X0293603Y0094784D02*
D03*
X0314075Y0071752D02*
D03*
X0314075Y0067815D02*
D03*
X0182185Y0147540D02*
D03*
X0182185Y0151477D02*
D03*
X0255807Y0082973D02*
D03*
X0255807Y0079036D02*
D03*
X0225590Y0149410D02*
D03*
X0225590Y0145473D02*
D03*
X0236615Y0068110D02*
D03*
X0236615Y0064174D02*
D03*
X0183760Y0135729D02*
D03*
X0183760Y0139666D02*
D03*
X0179823Y0135729D02*
D03*
X0179823Y0139666D02*
D03*
X0309941Y0071752D02*
D03*
X0309941Y0067815D02*
D03*
X0172933Y0120374D02*
D03*
X0172933Y0124311D02*
D03*
X0173130Y0097933D02*
D03*
X0173130Y0101870D02*
D03*
X0221260Y0149410D02*
D03*
X0221260Y0145473D02*
D03*
X0217618Y0062894D02*
D03*
X0217618Y0066831D02*
D03*
X0255807Y0112500D02*
D03*
X0255807Y0108563D02*
D03*
X0255807Y0116044D02*
D03*
X0255807Y0119981D02*
D03*
X0269193Y0192422D02*
D03*
X0269193Y0196359D02*
D03*
X0264469Y0192422D02*
D03*
X0264469Y0196359D02*
D03*
X0259744Y0192422D02*
D03*
X0259744Y0196359D02*
D03*
X0255020Y0192422D02*
D03*
X0255020Y0196359D02*
D03*
X0170374Y0211713D02*
D03*
X0170374Y0207776D02*
D03*
X0165650Y0207776D02*
D03*
X0165650Y0211713D02*
D03*
X0160926Y0211713D02*
D03*
X0160926Y0207776D02*
D03*
X0156201Y0211713D02*
D03*
X0156201Y0207776D02*
D03*
X0289075Y0164863D02*
D03*
X0289075Y0160926D02*
D03*
X0261122Y0164863D02*
D03*
X0261122Y0160926D02*
D03*
X0292815Y0192422D02*
D03*
X0292815Y0196359D02*
D03*
X0297539Y0192422D02*
D03*
X0297539Y0196359D02*
D03*
X0302264Y0192422D02*
D03*
X0302264Y0196359D02*
D03*
X0306988Y0192422D02*
D03*
X0306988Y0196359D02*
D03*
X0273917Y0192422D02*
D03*
X0273917Y0196359D02*
D03*
X0278642Y0192422D02*
D03*
X0278642Y0196359D02*
D03*
X0283366Y0192422D02*
D03*
X0283366Y0196359D02*
D03*
X0288091Y0192422D02*
D03*
X0288091Y0196359D02*
D03*
X0236122Y0192422D02*
D03*
X0236122Y0196359D02*
D03*
X0240846Y0192422D02*
D03*
X0240846Y0196359D02*
D03*
X0245571Y0192422D02*
D03*
X0245571Y0196359D02*
D03*
X0250295Y0192422D02*
D03*
X0250295Y0196359D02*
D03*
X0217224Y0196359D02*
D03*
X0217224Y0192422D02*
D03*
X0221949Y0192422D02*
D03*
X0221949Y0196359D02*
D03*
X0226673Y0192422D02*
D03*
X0226673Y0196359D02*
D03*
X0231398Y0192422D02*
D03*
X0231398Y0196359D02*
D03*
X0198327Y0192422D02*
D03*
X0198327Y0196359D02*
D03*
X0203051Y0192422D02*
D03*
X0203051Y0196359D02*
D03*
X0207776Y0192422D02*
D03*
X0207776Y0196359D02*
D03*
X0212500Y0192422D02*
D03*
X0212500Y0196359D02*
D03*
X0184154Y0192422D02*
D03*
X0184154Y0196359D02*
D03*
X0188878Y0192422D02*
D03*
X0188878Y0196359D02*
D03*
X0193603Y0192422D02*
D03*
X0193603Y0196359D02*
D03*
X0312107Y0201674D02*
D03*
X0312107Y0197737D02*
D03*
X0175098Y0207776D02*
D03*
X0175098Y0211713D02*
D03*
X0261122Y0175099D02*
D03*
X0261122Y0171162D02*
D03*
X0173524Y0196359D02*
D03*
X0173524Y0192422D02*
D03*
X0312107Y0209351D02*
D03*
X0312107Y0205414D02*
D03*
X0173524Y0200296D02*
D03*
X0173524Y0204233D02*
D03*
X0168406Y0069981D02*
D03*
X0168406Y0073918D02*
D03*
X0179429Y0192422D02*
D03*
X0179429Y0196359D02*
D03*
D444*
X0279429Y0100000D02*
D03*
X0272343Y0100000D02*
D03*
X0272343Y0110040D02*
D03*
X0279429Y0110040D02*
D03*
X0264862Y0148229D02*
D03*
X0271949Y0148229D02*
D03*
X0271949Y0138189D02*
D03*
X0264862Y0138189D02*
D03*
X0264862Y0132087D02*
D03*
X0271949Y0132087D02*
D03*
X0271949Y0122047D02*
D03*
X0264862Y0122047D02*
D03*
X0169390Y0167914D02*
D03*
X0176477Y0167914D02*
D03*
X0176477Y0177953D02*
D03*
X0169390Y0177953D02*
D03*
X0187894Y0177953D02*
D03*
X0180807Y0177953D02*
D03*
X0180807Y0167914D02*
D03*
X0187894Y0167914D02*
D03*
X0237894Y0167914D02*
D03*
X0244980Y0167914D02*
D03*
X0244980Y0177953D02*
D03*
X0237894Y0177953D02*
D03*
X0256398Y0177953D02*
D03*
X0249311Y0177953D02*
D03*
X0249311Y0167914D02*
D03*
X0256398Y0167914D02*
D03*
X0215059Y0167914D02*
D03*
X0222146Y0167914D02*
D03*
X0222146Y0177953D02*
D03*
X0215059Y0177953D02*
D03*
X0233563Y0177953D02*
D03*
X0226476Y0177953D02*
D03*
X0226476Y0167914D02*
D03*
X0233563Y0167914D02*
D03*
X0192224Y0167914D02*
D03*
X0199311Y0167914D02*
D03*
X0199311Y0177953D02*
D03*
X0192224Y0177953D02*
D03*
X0210728Y0177953D02*
D03*
X0203642Y0177953D02*
D03*
X0203642Y0167914D02*
D03*
X0210728Y0167914D02*
D03*
D445*
X0272343Y0106595D02*
D03*
X0272343Y0103445D02*
D03*
X0279429Y0103445D02*
D03*
X0279429Y0106595D02*
D03*
X0271949Y0141634D02*
D03*
X0271949Y0144784D02*
D03*
X0264862Y0144784D02*
D03*
X0264862Y0141634D02*
D03*
X0271949Y0125492D02*
D03*
X0271949Y0128642D02*
D03*
X0264862Y0128642D02*
D03*
X0264862Y0125492D02*
D03*
X0169390Y0171359D02*
D03*
X0169390Y0174508D02*
D03*
X0176477Y0174508D02*
D03*
X0176477Y0171359D02*
D03*
X0187894Y0174508D02*
D03*
X0187894Y0171359D02*
D03*
X0180807Y0171359D02*
D03*
X0180807Y0174508D02*
D03*
X0237894Y0171359D02*
D03*
X0237894Y0174508D02*
D03*
X0244980Y0174508D02*
D03*
X0244980Y0171359D02*
D03*
X0256398Y0174508D02*
D03*
X0256398Y0171359D02*
D03*
X0249311Y0171359D02*
D03*
X0249311Y0174508D02*
D03*
X0215059Y0171359D02*
D03*
X0215059Y0174508D02*
D03*
X0222146Y0174508D02*
D03*
X0222146Y0171359D02*
D03*
X0233563Y0174508D02*
D03*
X0233563Y0171359D02*
D03*
X0226476Y0171359D02*
D03*
X0226476Y0174508D02*
D03*
X0192224Y0171359D02*
D03*
X0192224Y0174508D02*
D03*
X0199311Y0174508D02*
D03*
X0199311Y0171359D02*
D03*
X0210728Y0174508D02*
D03*
X0210728Y0171359D02*
D03*
X0203642Y0171359D02*
D03*
X0203642Y0174508D02*
D03*
D447*
X0291437Y0106004D02*
D03*
X0291437Y0103445D02*
D03*
X0291437Y0100886D02*
D03*
X0283957Y0100886D02*
D03*
X0283957Y0106004D02*
D03*
D450*
X0273130Y0065453D02*
D03*
X0277067Y0065453D02*
D03*
X0156988Y0081201D02*
D03*
X0160926Y0081201D02*
D03*
X0298088Y0086022D02*
D03*
X0294151Y0086022D02*
D03*
X0275492Y0092028D02*
D03*
X0279429Y0092028D02*
D03*
X0284548Y0095965D02*
D03*
X0280611Y0095965D02*
D03*
X0175492Y0146752D02*
D03*
X0171555Y0146752D02*
D03*
X0244784Y0064862D02*
D03*
X0240847Y0064862D02*
D03*
X0176083Y0077067D02*
D03*
X0172146Y0077067D02*
D03*
X0203445Y0066044D02*
D03*
X0199508Y0066044D02*
D03*
X0247921Y0152853D02*
D03*
X0251858Y0152853D02*
D03*
X0257185Y0130217D02*
D03*
X0253248Y0130217D02*
D03*
X0247146Y0131792D02*
D03*
X0243209Y0131792D02*
D03*
X0247933Y0103445D02*
D03*
X0243996Y0103445D02*
D03*
X0152658Y0063288D02*
D03*
X0156595Y0063288D02*
D03*
X0265847Y0064272D02*
D03*
X0269784Y0064272D02*
D03*
X0283760Y0078642D02*
D03*
X0279823Y0078642D02*
D03*
X0172736Y0140453D02*
D03*
X0168799Y0140453D02*
D03*
X0172736Y0136516D02*
D03*
X0168799Y0136516D02*
D03*
X0172146Y0073130D02*
D03*
X0176083Y0073130D02*
D03*
X0199213Y0149016D02*
D03*
X0203150Y0149016D02*
D03*
X0255807Y0103052D02*
D03*
X0251870Y0103052D02*
D03*
X0255807Y0135532D02*
D03*
X0251870Y0135532D02*
D03*
X0247540Y0080217D02*
D03*
X0243603Y0080217D02*
D03*
X0248327Y0095571D02*
D03*
X0244390Y0095571D02*
D03*
X0233465Y0149410D02*
D03*
X0229528Y0149410D02*
D03*
X0262796Y0099016D02*
D03*
X0258859Y0099016D02*
D03*
X0179232Y0161713D02*
D03*
X0183169Y0161713D02*
D03*
X0247736Y0161713D02*
D03*
X0251673Y0161713D02*
D03*
X0224902Y0161713D02*
D03*
X0228839Y0161713D02*
D03*
X0202067Y0161713D02*
D03*
X0206004Y0161713D02*
D03*
X0241240Y0185729D02*
D03*
X0245177Y0185729D02*
D03*
X0296292Y0182185D02*
D03*
X0292355Y0182185D02*
D03*
X0305481Y0182185D02*
D03*
X0309418Y0182185D02*
D03*
X0271488Y0182185D02*
D03*
X0267551Y0182185D02*
D03*
X0280677Y0182185D02*
D03*
X0284614Y0182185D02*
D03*
X0308957Y0100296D02*
D03*
X0312894Y0100296D02*
D03*
X0303051Y0100296D02*
D03*
X0299114Y0100296D02*
D03*
X0266043Y0188485D02*
D03*
X0269980Y0188485D02*
D03*
X0312894Y0150689D02*
D03*
X0308957Y0150689D02*
D03*
X0312894Y0138288D02*
D03*
X0308957Y0138288D02*
D03*
X0312894Y0134154D02*
D03*
X0308957Y0134154D02*
D03*
X0312894Y0125886D02*
D03*
X0308957Y0125886D02*
D03*
X0312894Y0130020D02*
D03*
X0308957Y0130020D02*
D03*
X0312894Y0121752D02*
D03*
X0308957Y0121752D02*
D03*
X0312894Y0142421D02*
D03*
X0308957Y0142421D02*
D03*
X0312894Y0146555D02*
D03*
X0308957Y0146555D02*
D03*
D467*
X0160251Y0088960D02*
D03*
X0156511Y0098212D02*
D03*
X0242680Y0146711D02*
D03*
X0246420Y0137459D02*
D03*
X0306201Y0085847D02*
D03*
X0309941Y0076595D02*
D03*
X0300492Y0072422D02*
D03*
X0296752Y0081673D02*
D03*
X0163878Y0180807D02*
D03*
X0160138Y0190059D02*
D03*
X0160138Y0175164D02*
D03*
X0163878Y0165912D02*
D03*
X0163878Y0151017D02*
D03*
X0160138Y0160269D02*
D03*
X0164665Y0136122D02*
D03*
X0160925Y0145374D02*
D03*
D467*
X0163991Y0098212D02*
D03*
X0250160Y0146711D02*
D03*
X0313681Y0085847D02*
D03*
X0293012Y0072421D02*
D03*
X0156398Y0180807D02*
D03*
X0156398Y0165912D02*
D03*
X0156398Y0151017D02*
D03*
X0157185Y0136122D02*
D03*
D297*
X0312500Y0093209D02*
D03*
X0299508Y0093209D02*
D03*
X0275099Y0082973D02*
D03*
X0262106Y0082973D02*
D03*
D195*
X0280020Y0084548D02*
D03*
X0286713Y0084548D02*
D03*
D468*
X0157776Y0122343D02*
D03*
X0157776Y0110926D02*
D03*
D469*
X0219705Y0111307D02*
D03*
X0215374Y0111307D02*
D03*
X0211043Y0111307D02*
D03*
X0206713Y0111307D02*
D03*
X0202382Y0111307D02*
D03*
X0198051Y0111307D02*
D03*
X0193720Y0111307D02*
D03*
X0189390Y0111307D02*
D03*
D470*
X0180020Y0121543D02*
D03*
X0180020Y0088866D02*
D03*
X0234153Y0088866D02*
D03*
X0234153Y0121543D02*
D03*
D200*
X0244783Y0110335D02*
D03*
X0244783Y0124902D02*
D03*
D471*
X0198228Y0134154D02*
D03*
X0198228Y0141240D02*
D03*
X0188189Y0141240D02*
D03*
X0188189Y0134154D02*
D03*
X0267126Y0209154D02*
D03*
X0267126Y0202067D02*
D03*
X0257087Y0202067D02*
D03*
X0257087Y0209154D02*
D03*
X0295276Y0174705D02*
D03*
X0295276Y0167618D02*
D03*
X0305315Y0167618D02*
D03*
X0305315Y0174705D02*
D03*
X0305315Y0156201D02*
D03*
X0305315Y0163288D02*
D03*
X0295276Y0163288D02*
D03*
X0295276Y0156201D02*
D03*
X0267323Y0174705D02*
D03*
X0267323Y0167618D02*
D03*
X0277362Y0167618D02*
D03*
X0277362Y0174705D02*
D03*
X0277362Y0156201D02*
D03*
X0277362Y0163288D02*
D03*
X0267323Y0163288D02*
D03*
X0267323Y0156201D02*
D03*
X0304921Y0209154D02*
D03*
X0304921Y0202067D02*
D03*
X0294882Y0202067D02*
D03*
X0294882Y0209154D02*
D03*
X0286024Y0209154D02*
D03*
X0286024Y0202067D02*
D03*
X0275985Y0202067D02*
D03*
X0275985Y0209154D02*
D03*
X0248229Y0209154D02*
D03*
X0248229Y0202067D02*
D03*
X0238189Y0202067D02*
D03*
X0238189Y0209154D02*
D03*
X0229331Y0209154D02*
D03*
X0229331Y0202067D02*
D03*
X0219291Y0202067D02*
D03*
X0219291Y0209154D02*
D03*
X0210433Y0209154D02*
D03*
X0210433Y0202067D02*
D03*
X0200394Y0202067D02*
D03*
X0200394Y0209154D02*
D03*
X0191536Y0209154D02*
D03*
X0191536Y0202067D02*
D03*
X0181496Y0202067D02*
D03*
X0181496Y0209154D02*
D03*
X0158268Y0203445D02*
D03*
X0158268Y0196359D02*
D03*
X0168307Y0196359D02*
D03*
X0168307Y0203445D02*
D03*
D472*
X0194784Y0134154D02*
D03*
X0191634Y0134154D02*
D03*
X0191634Y0141240D02*
D03*
X0194784Y0141240D02*
D03*
X0260532Y0202067D02*
D03*
X0263681Y0202067D02*
D03*
X0263681Y0209154D02*
D03*
X0260532Y0209154D02*
D03*
X0298721Y0174705D02*
D03*
X0301870Y0174705D02*
D03*
X0301870Y0167618D02*
D03*
X0298721Y0167618D02*
D03*
X0301870Y0156201D02*
D03*
X0298721Y0156201D02*
D03*
X0298721Y0163288D02*
D03*
X0301870Y0163288D02*
D03*
X0270768Y0174705D02*
D03*
X0273918Y0174705D02*
D03*
X0273918Y0167618D02*
D03*
X0270768Y0167618D02*
D03*
X0273917Y0156201D02*
D03*
X0270768Y0156201D02*
D03*
X0270768Y0163288D02*
D03*
X0273917Y0163288D02*
D03*
X0298327Y0202067D02*
D03*
X0301476Y0202067D02*
D03*
X0301476Y0209154D02*
D03*
X0298327Y0209154D02*
D03*
X0279429Y0202067D02*
D03*
X0282579Y0202067D02*
D03*
X0282579Y0209154D02*
D03*
X0279429Y0209154D02*
D03*
X0241634Y0202067D02*
D03*
X0244784Y0202067D02*
D03*
X0244784Y0209154D02*
D03*
X0241634Y0209154D02*
D03*
X0222736Y0202067D02*
D03*
X0225886Y0202067D02*
D03*
X0225886Y0209154D02*
D03*
X0222736Y0209154D02*
D03*
X0203839Y0202067D02*
D03*
X0206988Y0202067D02*
D03*
X0206988Y0209154D02*
D03*
X0203839Y0209154D02*
D03*
X0184941Y0202067D02*
D03*
X0188091Y0202067D02*
D03*
X0188091Y0209154D02*
D03*
X0184941Y0209154D02*
D03*
X0161713Y0203445D02*
D03*
X0164862Y0203445D02*
D03*
X0164862Y0196359D02*
D03*
X0161713Y0196359D02*
D03*
D473*
X0173130Y0106595D02*
D03*
X0173130Y0112894D02*
D03*
X0226772Y0070866D02*
D03*
X0226772Y0064567D02*
D03*
X0312106Y0104626D02*
D03*
X0312106Y0110926D02*
D03*
X0167618Y0114075D02*
D03*
X0167618Y0107776D02*
D03*
D474*
X0247540Y0085138D02*
D03*
X0247540Y0091044D02*
D03*
D475*
X0256594Y0090059D02*
D03*
X0262894Y0090059D02*
D03*
X0256594Y0094685D02*
D03*
X0262894Y0094685D02*
D03*
D299*
X0305020Y0065453D02*
D03*
X0293603Y0065453D02*
D03*
D319*
X0168603Y0125650D02*
D03*
X0168603Y0119429D02*
D03*
X0240059Y0096004D02*
D03*
X0240059Y0102225D02*
D03*
D206*
X0303209Y0149705D02*
D03*
X0303209Y0147146D02*
D03*
X0303209Y0144587D02*
D03*
X0303209Y0142028D02*
D03*
X0303209Y0139469D02*
D03*
X0303209Y0136910D02*
D03*
X0303209Y0134351D02*
D03*
X0303209Y0131792D02*
D03*
X0303209Y0129233D02*
D03*
X0303209Y0126673D02*
D03*
X0303209Y0124115D02*
D03*
X0303209Y0121555D02*
D03*
X0280216Y0149705D02*
D03*
X0280216Y0147146D02*
D03*
X0280216Y0144587D02*
D03*
X0280216Y0142028D02*
D03*
X0280216Y0139469D02*
D03*
X0280216Y0136910D02*
D03*
X0280216Y0134351D02*
D03*
X0280216Y0131792D02*
D03*
X0280216Y0129233D02*
D03*
X0280216Y0126673D02*
D03*
X0280216Y0124115D02*
D03*
X0280216Y0121555D02*
D03*
D207*
X0159941Y0073524D02*
D03*
X0161909Y0073524D02*
D03*
X0161909Y0067225D02*
D03*
X0159941Y0067225D02*
D03*
D208*
X0164075Y0073327D02*
D03*
X0164075Y0071358D02*
D03*
X0164075Y0069390D02*
D03*
X0164075Y0067422D02*
D03*
X0157775Y0073327D02*
D03*
X0157775Y0067422D02*
D03*
X0157775Y0071358D02*
D03*
X0157775Y0069390D02*
D03*
X0137894Y0289272D02*
%LPD*%
G01*
M02*
