G04 #@! TF.GenerationSoftware,KiCad,Pcbnew,(6.0.9)*
G04 #@! TF.CreationDate,2022-12-11T18:11:54+03:00*
G04 #@! TF.ProjectId,alphax_2ch,616c7068-6178-45f3-9263-682e6b696361,E*
G04 #@! TF.SameCoordinates,PX141f5e0PYa2cace0*
G04 #@! TF.FileFunction,Soldermask,Top*
G04 #@! TF.FilePolarity,Negative*
%FSLAX46Y46*%
G04 Gerber Fmt 4.6, Leading zero omitted, Abs format (unit mm)*
G04 Created by KiCad (PCBNEW (6.0.9)) date 2022-12-11 18:11:54*
%MOMM*%
%LPD*%
G01*
G04 APERTURE LIST*
%ADD10C,0.120000*%
%ADD11C,1.524000*%
%ADD12C,1.700000*%
%ADD13C,1.000000*%
%ADD14R,0.500000X2.000000*%
%ADD15R,2.000000X1.700000*%
%ADD16R,5.800000X6.400000*%
%ADD17O,0.499999X0.250000*%
%ADD18O,0.250000X0.499999*%
%ADD19C,0.599999*%
%ADD20C,1.500000*%
%ADD21C,0.600000*%
%ADD22R,1.300000X1.000000*%
%ADD23C,2.000000*%
%ADD24O,2.900000X5.900000*%
%ADD25O,2.400000X2.900000*%
%ADD26R,0.740000X2.400000*%
G04 APERTURE END LIST*
G04 #@! TO.C,U4*
G36*
X19700000Y200000D02*
G01*
X6700000Y200000D01*
X6700000Y7200000D01*
X19700000Y7200000D01*
X19700000Y200000D01*
G37*
D10*
X19700000Y200000D02*
X6700000Y200000D01*
X6700000Y7200000D01*
X19700000Y7200000D01*
X19700000Y200000D01*
G04 #@! TD*
G04 #@! TO.C,R8*
G36*
G01*
X50461417Y83351578D02*
X49211417Y83351578D01*
G75*
G02*
X49111417Y83451578I0J100000D01*
G01*
X49111417Y84251578D01*
G75*
G02*
X49211417Y84351578I100000J0D01*
G01*
X50461417Y84351578D01*
G75*
G02*
X50561417Y84251578I0J-100000D01*
G01*
X50561417Y83451578D01*
G75*
G02*
X50461417Y83351578I-100000J0D01*
G01*
G37*
D11*
X49836417Y82896579D03*
G36*
G01*
X50461417Y85251600D02*
X49211417Y85251600D01*
G75*
G02*
X49111417Y85351600I0J100000D01*
G01*
X49111417Y86151600D01*
G75*
G02*
X49211417Y86251600I100000J0D01*
G01*
X50461417Y86251600D01*
G75*
G02*
X50561417Y86151600I0J-100000D01*
G01*
X50561417Y85351600D01*
G75*
G02*
X50461417Y85251600I-100000J0D01*
G01*
G37*
X49836417Y86706579D03*
G04 #@! TD*
G04 #@! TO.C,R29*
G36*
G01*
X17510000Y53350000D02*
X18290000Y53350000D01*
G75*
G02*
X18360000Y53280000I0J-70000D01*
G01*
X18360000Y52720000D01*
G75*
G02*
X18290000Y52650000I-70000J0D01*
G01*
X17510000Y52650000D01*
G75*
G02*
X17440000Y52720000I0J70000D01*
G01*
X17440000Y53280000D01*
G75*
G02*
X17510000Y53350000I70000J0D01*
G01*
G37*
G36*
G01*
X17510000Y51750000D02*
X18290000Y51750000D01*
G75*
G02*
X18360000Y51680000I0J-70000D01*
G01*
X18360000Y51120000D01*
G75*
G02*
X18290000Y51050000I-70000J0D01*
G01*
X17510000Y51050000D01*
G75*
G02*
X17440000Y51120000I0J70000D01*
G01*
X17440000Y51680000D01*
G75*
G02*
X17510000Y51750000I70000J0D01*
G01*
G37*
G04 #@! TD*
G04 #@! TO.C,R2*
G36*
G01*
X16900000Y76065000D02*
X16900000Y76735000D01*
G75*
G02*
X16965000Y76800000I65000J0D01*
G01*
X17485000Y76800000D01*
G75*
G02*
X17550000Y76735000I0J-65000D01*
G01*
X17550000Y76065000D01*
G75*
G02*
X17485000Y76000000I-65000J0D01*
G01*
X16965000Y76000000D01*
G75*
G02*
X16900000Y76065000I0J65000D01*
G01*
G37*
G36*
G01*
X17875000Y76045000D02*
X17875000Y76755000D01*
G75*
G02*
X17920000Y76800000I45000J0D01*
G01*
X18280000Y76800000D01*
G75*
G02*
X18325000Y76755000I0J-45000D01*
G01*
X18325000Y76045000D01*
G75*
G02*
X18280000Y76000000I-45000J0D01*
G01*
X17920000Y76000000D01*
G75*
G02*
X17875000Y76045000I0J45000D01*
G01*
G37*
G36*
G01*
X18675000Y76045000D02*
X18675000Y76755000D01*
G75*
G02*
X18720000Y76800000I45000J0D01*
G01*
X19080000Y76800000D01*
G75*
G02*
X19125000Y76755000I0J-45000D01*
G01*
X19125000Y76045000D01*
G75*
G02*
X19080000Y76000000I-45000J0D01*
G01*
X18720000Y76000000D01*
G75*
G02*
X18675000Y76045000I0J45000D01*
G01*
G37*
G36*
G01*
X19450000Y76065000D02*
X19450000Y76735000D01*
G75*
G02*
X19515000Y76800000I65000J0D01*
G01*
X20035000Y76800000D01*
G75*
G02*
X20100000Y76735000I0J-65000D01*
G01*
X20100000Y76065000D01*
G75*
G02*
X20035000Y76000000I-65000J0D01*
G01*
X19515000Y76000000D01*
G75*
G02*
X19450000Y76065000I0J65000D01*
G01*
G37*
G36*
G01*
X19450000Y77865000D02*
X19450000Y78535000D01*
G75*
G02*
X19515000Y78600000I65000J0D01*
G01*
X20035000Y78600000D01*
G75*
G02*
X20100000Y78535000I0J-65000D01*
G01*
X20100000Y77865000D01*
G75*
G02*
X20035000Y77800000I-65000J0D01*
G01*
X19515000Y77800000D01*
G75*
G02*
X19450000Y77865000I0J65000D01*
G01*
G37*
G36*
G01*
X18675000Y77845000D02*
X18675000Y78555000D01*
G75*
G02*
X18720000Y78600000I45000J0D01*
G01*
X19080000Y78600000D01*
G75*
G02*
X19125000Y78555000I0J-45000D01*
G01*
X19125000Y77845000D01*
G75*
G02*
X19080000Y77800000I-45000J0D01*
G01*
X18720000Y77800000D01*
G75*
G02*
X18675000Y77845000I0J45000D01*
G01*
G37*
G36*
G01*
X17875000Y77845000D02*
X17875000Y78555000D01*
G75*
G02*
X17920000Y78600000I45000J0D01*
G01*
X18280000Y78600000D01*
G75*
G02*
X18325000Y78555000I0J-45000D01*
G01*
X18325000Y77845000D01*
G75*
G02*
X18280000Y77800000I-45000J0D01*
G01*
X17920000Y77800000D01*
G75*
G02*
X17875000Y77845000I0J45000D01*
G01*
G37*
G36*
G01*
X16900000Y77865000D02*
X16900000Y78535000D01*
G75*
G02*
X16965000Y78600000I65000J0D01*
G01*
X17485000Y78600000D01*
G75*
G02*
X17550000Y78535000I0J-65000D01*
G01*
X17550000Y77865000D01*
G75*
G02*
X17485000Y77800000I-65000J0D01*
G01*
X16965000Y77800000D01*
G75*
G02*
X16900000Y77865000I0J65000D01*
G01*
G37*
G04 #@! TD*
G04 #@! TO.C,R4*
G36*
G01*
X20124000Y90147000D02*
X20124000Y89477000D01*
G75*
G02*
X20059000Y89412000I-65000J0D01*
G01*
X19539000Y89412000D01*
G75*
G02*
X19474000Y89477000I0J65000D01*
G01*
X19474000Y90147000D01*
G75*
G02*
X19539000Y90212000I65000J0D01*
G01*
X20059000Y90212000D01*
G75*
G02*
X20124000Y90147000I0J-65000D01*
G01*
G37*
G36*
G01*
X19149000Y90167000D02*
X19149000Y89457000D01*
G75*
G02*
X19104000Y89412000I-45000J0D01*
G01*
X18744000Y89412000D01*
G75*
G02*
X18699000Y89457000I0J45000D01*
G01*
X18699000Y90167000D01*
G75*
G02*
X18744000Y90212000I45000J0D01*
G01*
X19104000Y90212000D01*
G75*
G02*
X19149000Y90167000I0J-45000D01*
G01*
G37*
G36*
G01*
X18349000Y90167000D02*
X18349000Y89457000D01*
G75*
G02*
X18304000Y89412000I-45000J0D01*
G01*
X17944000Y89412000D01*
G75*
G02*
X17899000Y89457000I0J45000D01*
G01*
X17899000Y90167000D01*
G75*
G02*
X17944000Y90212000I45000J0D01*
G01*
X18304000Y90212000D01*
G75*
G02*
X18349000Y90167000I0J-45000D01*
G01*
G37*
G36*
G01*
X17574000Y90147000D02*
X17574000Y89477000D01*
G75*
G02*
X17509000Y89412000I-65000J0D01*
G01*
X16989000Y89412000D01*
G75*
G02*
X16924000Y89477000I0J65000D01*
G01*
X16924000Y90147000D01*
G75*
G02*
X16989000Y90212000I65000J0D01*
G01*
X17509000Y90212000D01*
G75*
G02*
X17574000Y90147000I0J-65000D01*
G01*
G37*
G36*
G01*
X17574000Y88347000D02*
X17574000Y87677000D01*
G75*
G02*
X17509000Y87612000I-65000J0D01*
G01*
X16989000Y87612000D01*
G75*
G02*
X16924000Y87677000I0J65000D01*
G01*
X16924000Y88347000D01*
G75*
G02*
X16989000Y88412000I65000J0D01*
G01*
X17509000Y88412000D01*
G75*
G02*
X17574000Y88347000I0J-65000D01*
G01*
G37*
G36*
G01*
X18349000Y88367000D02*
X18349000Y87657000D01*
G75*
G02*
X18304000Y87612000I-45000J0D01*
G01*
X17944000Y87612000D01*
G75*
G02*
X17899000Y87657000I0J45000D01*
G01*
X17899000Y88367000D01*
G75*
G02*
X17944000Y88412000I45000J0D01*
G01*
X18304000Y88412000D01*
G75*
G02*
X18349000Y88367000I0J-45000D01*
G01*
G37*
G36*
G01*
X19149000Y88367000D02*
X19149000Y87657000D01*
G75*
G02*
X19104000Y87612000I-45000J0D01*
G01*
X18744000Y87612000D01*
G75*
G02*
X18699000Y87657000I0J45000D01*
G01*
X18699000Y88367000D01*
G75*
G02*
X18744000Y88412000I45000J0D01*
G01*
X19104000Y88412000D01*
G75*
G02*
X19149000Y88367000I0J-45000D01*
G01*
G37*
G36*
G01*
X20124000Y88347000D02*
X20124000Y87677000D01*
G75*
G02*
X20059000Y87612000I-65000J0D01*
G01*
X19539000Y87612000D01*
G75*
G02*
X19474000Y87677000I0J65000D01*
G01*
X19474000Y88347000D01*
G75*
G02*
X19539000Y88412000I65000J0D01*
G01*
X20059000Y88412000D01*
G75*
G02*
X20124000Y88347000I0J-65000D01*
G01*
G37*
G04 #@! TD*
G04 #@! TO.C,C3*
G36*
G01*
X22500000Y22864999D02*
X21820000Y22864999D01*
G75*
G02*
X21735000Y22949999I0J85000D01*
G01*
X21735000Y23629999D01*
G75*
G02*
X21820000Y23714999I85000J0D01*
G01*
X22500000Y23714999D01*
G75*
G02*
X22585000Y23629999I0J-85000D01*
G01*
X22585000Y22949999D01*
G75*
G02*
X22500000Y22864999I-85000J0D01*
G01*
G37*
G36*
G01*
X22500000Y24445001D02*
X21820000Y24445001D01*
G75*
G02*
X21735000Y24530001I0J85000D01*
G01*
X21735000Y25210001D01*
G75*
G02*
X21820000Y25295001I85000J0D01*
G01*
X22500000Y25295001D01*
G75*
G02*
X22585000Y25210001I0J-85000D01*
G01*
X22585000Y24530001D01*
G75*
G02*
X22500000Y24445001I-85000J0D01*
G01*
G37*
G04 #@! TD*
G04 #@! TO.C,R9*
G36*
G01*
X48507571Y83373048D02*
X47257571Y83373048D01*
G75*
G02*
X47157571Y83473048I0J100000D01*
G01*
X47157571Y84273048D01*
G75*
G02*
X47257571Y84373048I100000J0D01*
G01*
X48507571Y84373048D01*
G75*
G02*
X48607571Y84273048I0J-100000D01*
G01*
X48607571Y83473048D01*
G75*
G02*
X48507571Y83373048I-100000J0D01*
G01*
G37*
X47882571Y82918049D03*
G36*
G01*
X48507571Y85273070D02*
X47257571Y85273070D01*
G75*
G02*
X47157571Y85373070I0J100000D01*
G01*
X47157571Y86173070D01*
G75*
G02*
X47257571Y86273070I100000J0D01*
G01*
X48507571Y86273070D01*
G75*
G02*
X48607571Y86173070I0J-100000D01*
G01*
X48607571Y85373070D01*
G75*
G02*
X48507571Y85273070I-100000J0D01*
G01*
G37*
X47882571Y86728049D03*
G04 #@! TD*
G04 #@! TO.C,R21*
G36*
G01*
X8300000Y60094990D02*
X8300000Y59404990D01*
G75*
G02*
X8070000Y59174990I-230000J0D01*
G01*
X6730000Y59174990D01*
G75*
G02*
X6500000Y59404990I0J230000D01*
G01*
X6500000Y60094990D01*
G75*
G02*
X6730000Y60324990I230000J0D01*
G01*
X8070000Y60324990D01*
G75*
G02*
X8300000Y60094990I0J-230000D01*
G01*
G37*
G36*
G01*
X8300000Y62995010D02*
X8300000Y62305010D01*
G75*
G02*
X8070000Y62075010I-230000J0D01*
G01*
X6730000Y62075010D01*
G75*
G02*
X6500000Y62305010I0J230000D01*
G01*
X6500000Y62995010D01*
G75*
G02*
X6730000Y63225010I230000J0D01*
G01*
X8070000Y63225010D01*
G75*
G02*
X8300000Y62995010I0J-230000D01*
G01*
G37*
G04 #@! TD*
G04 #@! TO.C,F4*
X36700000Y86750000D03*
G36*
G01*
X35800000Y85405010D02*
X35800000Y86095010D01*
G75*
G02*
X36030000Y86325010I230000J0D01*
G01*
X37370000Y86325010D01*
G75*
G02*
X37600000Y86095010I0J-230000D01*
G01*
X37600000Y85405010D01*
G75*
G02*
X37370000Y85175010I-230000J0D01*
G01*
X36030000Y85175010D01*
G75*
G02*
X35800000Y85405010I0J230000D01*
G01*
G37*
X36700000Y81850000D03*
G36*
G01*
X35800000Y82504990D02*
X35800000Y83194990D01*
G75*
G02*
X36030000Y83424990I230000J0D01*
G01*
X37370000Y83424990D01*
G75*
G02*
X37600000Y83194990I0J-230000D01*
G01*
X37600000Y82504990D01*
G75*
G02*
X37370000Y82274990I-230000J0D01*
G01*
X36030000Y82274990D01*
G75*
G02*
X35800000Y82504990I0J230000D01*
G01*
G37*
G04 #@! TD*
G04 #@! TO.C,Q13*
G36*
G01*
X57075000Y76700000D02*
X57075000Y76400000D01*
G75*
G02*
X56925000Y76250000I-150000J0D01*
G01*
X55750000Y76250000D01*
G75*
G02*
X55600000Y76400000I0J150000D01*
G01*
X55600000Y76700000D01*
G75*
G02*
X55750000Y76850000I150000J0D01*
G01*
X56925000Y76850000D01*
G75*
G02*
X57075000Y76700000I0J-150000D01*
G01*
G37*
G36*
G01*
X55200000Y77650000D02*
X55200000Y77350000D01*
G75*
G02*
X55050000Y77200000I-150000J0D01*
G01*
X53875000Y77200000D01*
G75*
G02*
X53725000Y77350000I0J150000D01*
G01*
X53725000Y77650000D01*
G75*
G02*
X53875000Y77800000I150000J0D01*
G01*
X55050000Y77800000D01*
G75*
G02*
X55200000Y77650000I0J-150000D01*
G01*
G37*
G36*
G01*
X57075000Y78600000D02*
X57075000Y78300000D01*
G75*
G02*
X56925000Y78150000I-150000J0D01*
G01*
X55750000Y78150000D01*
G75*
G02*
X55600000Y78300000I0J150000D01*
G01*
X55600000Y78600000D01*
G75*
G02*
X55750000Y78750000I150000J0D01*
G01*
X56925000Y78750000D01*
G75*
G02*
X57075000Y78600000I0J-150000D01*
G01*
G37*
G04 #@! TD*
G04 #@! TO.C,D1*
G36*
G01*
X17561499Y80000000D02*
X18041499Y80000000D01*
G75*
G02*
X18101499Y79940000I0J-60000D01*
G01*
X18101499Y79460000D01*
G75*
G02*
X18041499Y79400000I-60000J0D01*
G01*
X17561499Y79400000D01*
G75*
G02*
X17501499Y79460000I0J60000D01*
G01*
X17501499Y79940000D01*
G75*
G02*
X17561499Y80000000I60000J0D01*
G01*
G37*
G36*
G01*
X19761499Y80000000D02*
X20241499Y80000000D01*
G75*
G02*
X20301499Y79940000I0J-60000D01*
G01*
X20301499Y79460000D01*
G75*
G02*
X20241499Y79400000I-60000J0D01*
G01*
X19761499Y79400000D01*
G75*
G02*
X19701499Y79460000I0J60000D01*
G01*
X19701499Y79940000D01*
G75*
G02*
X19761499Y80000000I60000J0D01*
G01*
G37*
G04 #@! TD*
G04 #@! TO.C,D15*
G36*
G01*
X13399998Y84200001D02*
X12499998Y84200001D01*
G75*
G02*
X12399998Y84300001I0J100000D01*
G01*
X12399998Y85100001D01*
G75*
G02*
X12499998Y85200001I100000J0D01*
G01*
X13399998Y85200001D01*
G75*
G02*
X13499998Y85100001I0J-100000D01*
G01*
X13499998Y84300001D01*
G75*
G02*
X13399998Y84200001I-100000J0D01*
G01*
G37*
G36*
G01*
X13399998Y85900001D02*
X12499998Y85900001D01*
G75*
G02*
X12399998Y86000001I0J100000D01*
G01*
X12399998Y86800001D01*
G75*
G02*
X12499998Y86900001I100000J0D01*
G01*
X13399998Y86900001D01*
G75*
G02*
X13499998Y86800001I0J-100000D01*
G01*
X13499998Y86000001D01*
G75*
G02*
X13399998Y85900001I-100000J0D01*
G01*
G37*
G04 #@! TD*
G04 #@! TO.C,D6*
G36*
G01*
X17058502Y102312502D02*
X17538502Y102312502D01*
G75*
G02*
X17598502Y102252502I0J-60000D01*
G01*
X17598502Y101772502D01*
G75*
G02*
X17538502Y101712502I-60000J0D01*
G01*
X17058502Y101712502D01*
G75*
G02*
X16998502Y101772502I0J60000D01*
G01*
X16998502Y102252502D01*
G75*
G02*
X17058502Y102312502I60000J0D01*
G01*
G37*
G36*
G01*
X19258502Y102312502D02*
X19738502Y102312502D01*
G75*
G02*
X19798502Y102252502I0J-60000D01*
G01*
X19798502Y101772502D01*
G75*
G02*
X19738502Y101712502I-60000J0D01*
G01*
X19258502Y101712502D01*
G75*
G02*
X19198502Y101772502I0J60000D01*
G01*
X19198502Y102252502D01*
G75*
G02*
X19258502Y102312502I60000J0D01*
G01*
G37*
G04 #@! TD*
G04 #@! TO.C,Q1*
G36*
G01*
X14465000Y29110000D02*
X14465000Y28810000D01*
G75*
G02*
X14315000Y28660000I-150000J0D01*
G01*
X13140000Y28660000D01*
G75*
G02*
X12990000Y28810000I0J150000D01*
G01*
X12990000Y29110000D01*
G75*
G02*
X13140000Y29260000I150000J0D01*
G01*
X14315000Y29260000D01*
G75*
G02*
X14465000Y29110000I0J-150000D01*
G01*
G37*
G36*
G01*
X12590000Y30060000D02*
X12590000Y29760000D01*
G75*
G02*
X12440000Y29610000I-150000J0D01*
G01*
X11265000Y29610000D01*
G75*
G02*
X11115000Y29760000I0J150000D01*
G01*
X11115000Y30060000D01*
G75*
G02*
X11265000Y30210000I150000J0D01*
G01*
X12440000Y30210000D01*
G75*
G02*
X12590000Y30060000I0J-150000D01*
G01*
G37*
G36*
G01*
X14465000Y31010000D02*
X14465000Y30710000D01*
G75*
G02*
X14315000Y30560000I-150000J0D01*
G01*
X13140000Y30560000D01*
G75*
G02*
X12990000Y30710000I0J150000D01*
G01*
X12990000Y31010000D01*
G75*
G02*
X13140000Y31160000I150000J0D01*
G01*
X14315000Y31160000D01*
G75*
G02*
X14465000Y31010000I0J-150000D01*
G01*
G37*
G04 #@! TD*
G04 #@! TO.C,R24*
G36*
G01*
X8300000Y64994990D02*
X8300000Y64304990D01*
G75*
G02*
X8070000Y64074990I-230000J0D01*
G01*
X6730000Y64074990D01*
G75*
G02*
X6500000Y64304990I0J230000D01*
G01*
X6500000Y64994990D01*
G75*
G02*
X6730000Y65224990I230000J0D01*
G01*
X8070000Y65224990D01*
G75*
G02*
X8300000Y64994990I0J-230000D01*
G01*
G37*
G36*
G01*
X8300000Y67895010D02*
X8300000Y67205010D01*
G75*
G02*
X8070000Y66975010I-230000J0D01*
G01*
X6730000Y66975010D01*
G75*
G02*
X6500000Y67205010I0J230000D01*
G01*
X6500000Y67895010D01*
G75*
G02*
X6730000Y68125010I230000J0D01*
G01*
X8070000Y68125010D01*
G75*
G02*
X8300000Y67895010I0J-230000D01*
G01*
G37*
G04 #@! TD*
G04 #@! TO.C,D28*
G36*
G01*
X10250000Y39310000D02*
X10250000Y38290000D01*
G75*
G02*
X10160000Y38200000I-90000J0D01*
G01*
X9440000Y38200000D01*
G75*
G02*
X9350000Y38290000I0J90000D01*
G01*
X9350000Y39310000D01*
G75*
G02*
X9440000Y39400000I90000J0D01*
G01*
X10160000Y39400000D01*
G75*
G02*
X10250000Y39310000I0J-90000D01*
G01*
G37*
G36*
G01*
X6950000Y39310000D02*
X6950000Y38290000D01*
G75*
G02*
X6860000Y38200000I-90000J0D01*
G01*
X6140000Y38200000D01*
G75*
G02*
X6050000Y38290000I0J90000D01*
G01*
X6050000Y39310000D01*
G75*
G02*
X6140000Y39400000I90000J0D01*
G01*
X6860000Y39400000D01*
G75*
G02*
X6950000Y39310000I0J-90000D01*
G01*
G37*
G04 #@! TD*
G04 #@! TO.C,D12*
G36*
G01*
X13399998Y79000001D02*
X12499998Y79000001D01*
G75*
G02*
X12399998Y79100001I0J100000D01*
G01*
X12399998Y79900001D01*
G75*
G02*
X12499998Y80000001I100000J0D01*
G01*
X13399998Y80000001D01*
G75*
G02*
X13499998Y79900001I0J-100000D01*
G01*
X13499998Y79100001D01*
G75*
G02*
X13399998Y79000001I-100000J0D01*
G01*
G37*
G36*
G01*
X13399998Y80700001D02*
X12499998Y80700001D01*
G75*
G02*
X12399998Y80800001I0J100000D01*
G01*
X12399998Y81600001D01*
G75*
G02*
X12499998Y81700001I100000J0D01*
G01*
X13399998Y81700001D01*
G75*
G02*
X13499998Y81600001I0J-100000D01*
G01*
X13499998Y80800001D01*
G75*
G02*
X13399998Y80700001I-100000J0D01*
G01*
G37*
G04 #@! TD*
D12*
G04 #@! TO.C,P2*
X61958000Y73100000D03*
G04 #@! TD*
G04 #@! TO.C,R38*
G36*
G01*
X19850000Y28410000D02*
X19850000Y29190000D01*
G75*
G02*
X19920000Y29260000I70000J0D01*
G01*
X20480000Y29260000D01*
G75*
G02*
X20550000Y29190000I0J-70000D01*
G01*
X20550000Y28410000D01*
G75*
G02*
X20480000Y28340000I-70000J0D01*
G01*
X19920000Y28340000D01*
G75*
G02*
X19850000Y28410000I0J70000D01*
G01*
G37*
G36*
G01*
X21450000Y28410000D02*
X21450000Y29190000D01*
G75*
G02*
X21520000Y29260000I70000J0D01*
G01*
X22080000Y29260000D01*
G75*
G02*
X22150000Y29190000I0J-70000D01*
G01*
X22150000Y28410000D01*
G75*
G02*
X22080000Y28340000I-70000J0D01*
G01*
X21520000Y28340000D01*
G75*
G02*
X21450000Y28410000I0J70000D01*
G01*
G37*
G04 #@! TD*
G04 #@! TO.C,D22*
G36*
G01*
X17060000Y100500000D02*
X17540000Y100500000D01*
G75*
G02*
X17600000Y100440000I0J-60000D01*
G01*
X17600000Y99960000D01*
G75*
G02*
X17540000Y99900000I-60000J0D01*
G01*
X17060000Y99900000D01*
G75*
G02*
X17000000Y99960000I0J60000D01*
G01*
X17000000Y100440000D01*
G75*
G02*
X17060000Y100500000I60000J0D01*
G01*
G37*
G36*
G01*
X19260000Y100500000D02*
X19740000Y100500000D01*
G75*
G02*
X19800000Y100440000I0J-60000D01*
G01*
X19800000Y99960000D01*
G75*
G02*
X19740000Y99900000I-60000J0D01*
G01*
X19260000Y99900000D01*
G75*
G02*
X19200000Y99960000I0J60000D01*
G01*
X19200000Y100440000D01*
G75*
G02*
X19260000Y100500000I60000J0D01*
G01*
G37*
G04 #@! TD*
G04 #@! TO.C,R32*
G36*
G01*
X51650000Y76856000D02*
X51650000Y76076000D01*
G75*
G02*
X51580000Y76006000I-70000J0D01*
G01*
X51020000Y76006000D01*
G75*
G02*
X50950000Y76076000I0J70000D01*
G01*
X50950000Y76856000D01*
G75*
G02*
X51020000Y76926000I70000J0D01*
G01*
X51580000Y76926000D01*
G75*
G02*
X51650000Y76856000I0J-70000D01*
G01*
G37*
G36*
G01*
X50050000Y76856000D02*
X50050000Y76076000D01*
G75*
G02*
X49980000Y76006000I-70000J0D01*
G01*
X49420000Y76006000D01*
G75*
G02*
X49350000Y76076000I0J70000D01*
G01*
X49350000Y76856000D01*
G75*
G02*
X49420000Y76926000I70000J0D01*
G01*
X49980000Y76926000D01*
G75*
G02*
X50050000Y76856000I0J-70000D01*
G01*
G37*
G04 #@! TD*
G04 #@! TO.C,D11*
G36*
G01*
X13399998Y94600001D02*
X12499998Y94600001D01*
G75*
G02*
X12399998Y94700001I0J100000D01*
G01*
X12399998Y95500001D01*
G75*
G02*
X12499998Y95600001I100000J0D01*
G01*
X13399998Y95600001D01*
G75*
G02*
X13499998Y95500001I0J-100000D01*
G01*
X13499998Y94700001D01*
G75*
G02*
X13399998Y94600001I-100000J0D01*
G01*
G37*
G36*
G01*
X13399998Y96300001D02*
X12499998Y96300001D01*
G75*
G02*
X12399998Y96400001I0J100000D01*
G01*
X12399998Y97200001D01*
G75*
G02*
X12499998Y97300001I100000J0D01*
G01*
X13399998Y97300001D01*
G75*
G02*
X13499998Y97200001I0J-100000D01*
G01*
X13499998Y96400001D01*
G75*
G02*
X13399998Y96300001I-100000J0D01*
G01*
G37*
G04 #@! TD*
G04 #@! TO.C,R11*
G36*
G01*
X25125000Y83349999D02*
X23875000Y83349999D01*
G75*
G02*
X23775000Y83449999I0J100000D01*
G01*
X23775000Y84249999D01*
G75*
G02*
X23875000Y84349999I100000J0D01*
G01*
X25125000Y84349999D01*
G75*
G02*
X25225000Y84249999I0J-100000D01*
G01*
X25225000Y83449999D01*
G75*
G02*
X25125000Y83349999I-100000J0D01*
G01*
G37*
D11*
X24500000Y82895000D03*
X24500000Y86705000D03*
G36*
G01*
X25125000Y85250021D02*
X23875000Y85250021D01*
G75*
G02*
X23775000Y85350021I0J100000D01*
G01*
X23775000Y86150021D01*
G75*
G02*
X23875000Y86250021I100000J0D01*
G01*
X25125000Y86250021D01*
G75*
G02*
X25225000Y86150021I0J-100000D01*
G01*
X25225000Y85350021D01*
G75*
G02*
X25125000Y85250021I-100000J0D01*
G01*
G37*
G04 #@! TD*
G04 #@! TO.C,R6*
G36*
G01*
X73850001Y104025000D02*
X73850001Y102775000D01*
G75*
G02*
X73750001Y102675000I-100000J0D01*
G01*
X72950001Y102675000D01*
G75*
G02*
X72850001Y102775000I0J100000D01*
G01*
X72850001Y104025000D01*
G75*
G02*
X72950001Y104125000I100000J0D01*
G01*
X73750001Y104125000D01*
G75*
G02*
X73850001Y104025000I0J-100000D01*
G01*
G37*
X74305000Y103400000D03*
G36*
G01*
X71949979Y104025000D02*
X71949979Y102775000D01*
G75*
G02*
X71849979Y102675000I-100000J0D01*
G01*
X71049979Y102675000D01*
G75*
G02*
X70949979Y102775000I0J100000D01*
G01*
X70949979Y104025000D01*
G75*
G02*
X71049979Y104125000I100000J0D01*
G01*
X71849979Y104125000D01*
G75*
G02*
X71949979Y104025000I0J-100000D01*
G01*
G37*
X70495000Y103400000D03*
G04 #@! TD*
D13*
G04 #@! TO.C,J1*
X26710000Y6475000D03*
X31110000Y6475000D03*
D14*
X27310000Y9175000D03*
X28110000Y9175000D03*
X28910000Y9175000D03*
X29710000Y9175000D03*
X30510000Y9175000D03*
D15*
X33360000Y3625000D03*
X24460000Y3625000D03*
X33360000Y9075000D03*
X24460000Y9075000D03*
G04 #@! TD*
G04 #@! TO.C,R36*
G36*
G01*
X11522072Y55654980D02*
X11522072Y54964980D01*
G75*
G02*
X11292072Y54734980I-230000J0D01*
G01*
X9952072Y54734980D01*
G75*
G02*
X9722072Y54964980I0J230000D01*
G01*
X9722072Y55654980D01*
G75*
G02*
X9952072Y55884980I230000J0D01*
G01*
X11292072Y55884980D01*
G75*
G02*
X11522072Y55654980I0J-230000D01*
G01*
G37*
G36*
G01*
X11522072Y58555000D02*
X11522072Y57865000D01*
G75*
G02*
X11292072Y57635000I-230000J0D01*
G01*
X9952072Y57635000D01*
G75*
G02*
X9722072Y57865000I0J230000D01*
G01*
X9722072Y58555000D01*
G75*
G02*
X9952072Y58785000I230000J0D01*
G01*
X11292072Y58785000D01*
G75*
G02*
X11522072Y58555000I0J-230000D01*
G01*
G37*
G04 #@! TD*
G04 #@! TO.C,Q8*
G36*
G01*
X76420000Y86400000D02*
X75460000Y86400000D01*
G75*
G02*
X75340000Y86520000I0J120000D01*
G01*
X75340000Y88480000D01*
G75*
G02*
X75460000Y88600000I120000J0D01*
G01*
X76420000Y88600000D01*
G75*
G02*
X76540000Y88480000I0J-120000D01*
G01*
X76540000Y86520000D01*
G75*
G02*
X76420000Y86400000I-120000J0D01*
G01*
G37*
D16*
X78220000Y93800000D03*
G36*
G01*
X80980000Y86400000D02*
X80020000Y86400000D01*
G75*
G02*
X79900000Y86520000I0J120000D01*
G01*
X79900000Y88480000D01*
G75*
G02*
X80020000Y88600000I120000J0D01*
G01*
X80980000Y88600000D01*
G75*
G02*
X81100000Y88480000I0J-120000D01*
G01*
X81100000Y86520000D01*
G75*
G02*
X80980000Y86400000I-120000J0D01*
G01*
G37*
G04 #@! TD*
G04 #@! TO.C,Q4*
G36*
G01*
X8300000Y50825000D02*
X8600000Y50825000D01*
G75*
G02*
X8750000Y50675000I0J-150000D01*
G01*
X8750000Y49500000D01*
G75*
G02*
X8600000Y49350000I-150000J0D01*
G01*
X8300000Y49350000D01*
G75*
G02*
X8150000Y49500000I0J150000D01*
G01*
X8150000Y50675000D01*
G75*
G02*
X8300000Y50825000I150000J0D01*
G01*
G37*
G36*
G01*
X7350000Y48950000D02*
X7650000Y48950000D01*
G75*
G02*
X7800000Y48800000I0J-150000D01*
G01*
X7800000Y47625000D01*
G75*
G02*
X7650000Y47475000I-150000J0D01*
G01*
X7350000Y47475000D01*
G75*
G02*
X7200000Y47625000I0J150000D01*
G01*
X7200000Y48800000D01*
G75*
G02*
X7350000Y48950000I150000J0D01*
G01*
G37*
G36*
G01*
X6400000Y50825000D02*
X6700000Y50825000D01*
G75*
G02*
X6850000Y50675000I0J-150000D01*
G01*
X6850000Y49500000D01*
G75*
G02*
X6700000Y49350000I-150000J0D01*
G01*
X6400000Y49350000D01*
G75*
G02*
X6250000Y49500000I0J150000D01*
G01*
X6250000Y50675000D01*
G75*
G02*
X6400000Y50825000I150000J0D01*
G01*
G37*
G04 #@! TD*
G04 #@! TO.C,R30*
G36*
G01*
X59808000Y73050000D02*
X59028000Y73050000D01*
G75*
G02*
X58958000Y73120000I0J70000D01*
G01*
X58958000Y73680000D01*
G75*
G02*
X59028000Y73750000I70000J0D01*
G01*
X59808000Y73750000D01*
G75*
G02*
X59878000Y73680000I0J-70000D01*
G01*
X59878000Y73120000D01*
G75*
G02*
X59808000Y73050000I-70000J0D01*
G01*
G37*
G36*
G01*
X59808000Y74650000D02*
X59028000Y74650000D01*
G75*
G02*
X58958000Y74720000I0J70000D01*
G01*
X58958000Y75280000D01*
G75*
G02*
X59028000Y75350000I70000J0D01*
G01*
X59808000Y75350000D01*
G75*
G02*
X59878000Y75280000I0J-70000D01*
G01*
X59878000Y74720000D01*
G75*
G02*
X59808000Y74650000I-70000J0D01*
G01*
G37*
G04 #@! TD*
G04 #@! TO.C,R41*
G36*
G01*
X20760000Y46600000D02*
X21540000Y46600000D01*
G75*
G02*
X21610000Y46530000I0J-70000D01*
G01*
X21610000Y45970000D01*
G75*
G02*
X21540000Y45900000I-70000J0D01*
G01*
X20760000Y45900000D01*
G75*
G02*
X20690000Y45970000I0J70000D01*
G01*
X20690000Y46530000D01*
G75*
G02*
X20760000Y46600000I70000J0D01*
G01*
G37*
G36*
G01*
X20760000Y45000000D02*
X21540000Y45000000D01*
G75*
G02*
X21610000Y44930000I0J-70000D01*
G01*
X21610000Y44370000D01*
G75*
G02*
X21540000Y44300000I-70000J0D01*
G01*
X20760000Y44300000D01*
G75*
G02*
X20690000Y44370000I0J70000D01*
G01*
X20690000Y44930000D01*
G75*
G02*
X20760000Y45000000I70000J0D01*
G01*
G37*
G04 #@! TD*
G04 #@! TO.C,Q15*
G36*
G01*
X11400000Y44625000D02*
X11100000Y44625000D01*
G75*
G02*
X10950000Y44775000I0J150000D01*
G01*
X10950000Y45950000D01*
G75*
G02*
X11100000Y46100000I150000J0D01*
G01*
X11400000Y46100000D01*
G75*
G02*
X11550000Y45950000I0J-150000D01*
G01*
X11550000Y44775000D01*
G75*
G02*
X11400000Y44625000I-150000J0D01*
G01*
G37*
G36*
G01*
X12350000Y46500000D02*
X12050000Y46500000D01*
G75*
G02*
X11900000Y46650000I0J150000D01*
G01*
X11900000Y47825000D01*
G75*
G02*
X12050000Y47975000I150000J0D01*
G01*
X12350000Y47975000D01*
G75*
G02*
X12500000Y47825000I0J-150000D01*
G01*
X12500000Y46650000D01*
G75*
G02*
X12350000Y46500000I-150000J0D01*
G01*
G37*
G36*
G01*
X13300000Y44625000D02*
X13000000Y44625000D01*
G75*
G02*
X12850000Y44775000I0J150000D01*
G01*
X12850000Y45950000D01*
G75*
G02*
X13000000Y46100000I150000J0D01*
G01*
X13300000Y46100000D01*
G75*
G02*
X13450000Y45950000I0J-150000D01*
G01*
X13450000Y44775000D01*
G75*
G02*
X13300000Y44625000I-150000J0D01*
G01*
G37*
G04 #@! TD*
G04 #@! TO.C,R17*
G36*
G01*
X39525000Y83349999D02*
X38275000Y83349999D01*
G75*
G02*
X38175000Y83449999I0J100000D01*
G01*
X38175000Y84249999D01*
G75*
G02*
X38275000Y84349999I100000J0D01*
G01*
X39525000Y84349999D01*
G75*
G02*
X39625000Y84249999I0J-100000D01*
G01*
X39625000Y83449999D01*
G75*
G02*
X39525000Y83349999I-100000J0D01*
G01*
G37*
D11*
X38900000Y82895000D03*
G36*
G01*
X39525000Y85250021D02*
X38275000Y85250021D01*
G75*
G02*
X38175000Y85350021I0J100000D01*
G01*
X38175000Y86150021D01*
G75*
G02*
X38275000Y86250021I100000J0D01*
G01*
X39525000Y86250021D01*
G75*
G02*
X39625000Y86150021I0J-100000D01*
G01*
X39625000Y85350021D01*
G75*
G02*
X39525000Y85250021I-100000J0D01*
G01*
G37*
X38900000Y86705000D03*
G04 #@! TD*
G04 #@! TO.C,R33*
G36*
G01*
X51750000Y78380000D02*
X51750000Y77600000D01*
G75*
G02*
X51680000Y77530000I-70000J0D01*
G01*
X51120000Y77530000D01*
G75*
G02*
X51050000Y77600000I0J70000D01*
G01*
X51050000Y78380000D01*
G75*
G02*
X51120000Y78450000I70000J0D01*
G01*
X51680000Y78450000D01*
G75*
G02*
X51750000Y78380000I0J-70000D01*
G01*
G37*
G36*
G01*
X50150000Y78380000D02*
X50150000Y77600000D01*
G75*
G02*
X50080000Y77530000I-70000J0D01*
G01*
X49520000Y77530000D01*
G75*
G02*
X49450000Y77600000I0J70000D01*
G01*
X49450000Y78380000D01*
G75*
G02*
X49520000Y78450000I70000J0D01*
G01*
X50080000Y78450000D01*
G75*
G02*
X50150000Y78380000I0J-70000D01*
G01*
G37*
G04 #@! TD*
D17*
G04 #@! TO.C,M8*
X72877495Y726666D03*
D18*
X62527501Y776664D03*
X63027502Y776664D03*
D19*
X69577499Y1826662D03*
X68702497Y2351662D03*
X69877501Y3101660D03*
X69802498Y6651661D03*
G04 #@! TD*
G04 #@! TO.C,Q19*
G36*
G01*
X19652000Y29723000D02*
X19352000Y29723000D01*
G75*
G02*
X19202000Y29873000I0J150000D01*
G01*
X19202000Y31048000D01*
G75*
G02*
X19352000Y31198000I150000J0D01*
G01*
X19652000Y31198000D01*
G75*
G02*
X19802000Y31048000I0J-150000D01*
G01*
X19802000Y29873000D01*
G75*
G02*
X19652000Y29723000I-150000J0D01*
G01*
G37*
G36*
G01*
X20602000Y31598000D02*
X20302000Y31598000D01*
G75*
G02*
X20152000Y31748000I0J150000D01*
G01*
X20152000Y32923000D01*
G75*
G02*
X20302000Y33073000I150000J0D01*
G01*
X20602000Y33073000D01*
G75*
G02*
X20752000Y32923000I0J-150000D01*
G01*
X20752000Y31748000D01*
G75*
G02*
X20602000Y31598000I-150000J0D01*
G01*
G37*
G36*
G01*
X21552000Y29723000D02*
X21252000Y29723000D01*
G75*
G02*
X21102000Y29873000I0J150000D01*
G01*
X21102000Y31048000D01*
G75*
G02*
X21252000Y31198000I150000J0D01*
G01*
X21552000Y31198000D01*
G75*
G02*
X21702000Y31048000I0J-150000D01*
G01*
X21702000Y29873000D01*
G75*
G02*
X21552000Y29723000I-150000J0D01*
G01*
G37*
G04 #@! TD*
G04 #@! TO.C,Q18*
G36*
G01*
X17696000Y33073000D02*
X17996000Y33073000D01*
G75*
G02*
X18146000Y32923000I0J-150000D01*
G01*
X18146000Y31748000D01*
G75*
G02*
X17996000Y31598000I-150000J0D01*
G01*
X17696000Y31598000D01*
G75*
G02*
X17546000Y31748000I0J150000D01*
G01*
X17546000Y32923000D01*
G75*
G02*
X17696000Y33073000I150000J0D01*
G01*
G37*
G36*
G01*
X16746000Y31198000D02*
X17046000Y31198000D01*
G75*
G02*
X17196000Y31048000I0J-150000D01*
G01*
X17196000Y29873000D01*
G75*
G02*
X17046000Y29723000I-150000J0D01*
G01*
X16746000Y29723000D01*
G75*
G02*
X16596000Y29873000I0J150000D01*
G01*
X16596000Y31048000D01*
G75*
G02*
X16746000Y31198000I150000J0D01*
G01*
G37*
G36*
G01*
X15796000Y33073000D02*
X16096000Y33073000D01*
G75*
G02*
X16246000Y32923000I0J-150000D01*
G01*
X16246000Y31748000D01*
G75*
G02*
X16096000Y31598000I-150000J0D01*
G01*
X15796000Y31598000D01*
G75*
G02*
X15646000Y31748000I0J150000D01*
G01*
X15646000Y32923000D01*
G75*
G02*
X15796000Y33073000I150000J0D01*
G01*
G37*
G04 #@! TD*
G04 #@! TO.C,R34*
G36*
G01*
X11550000Y60094990D02*
X11550000Y59404990D01*
G75*
G02*
X11320000Y59174990I-230000J0D01*
G01*
X9980000Y59174990D01*
G75*
G02*
X9750000Y59404990I0J230000D01*
G01*
X9750000Y60094990D01*
G75*
G02*
X9980000Y60324990I230000J0D01*
G01*
X11320000Y60324990D01*
G75*
G02*
X11550000Y60094990I0J-230000D01*
G01*
G37*
G36*
G01*
X11550000Y62995010D02*
X11550000Y62305010D01*
G75*
G02*
X11320000Y62075010I-230000J0D01*
G01*
X9980000Y62075010D01*
G75*
G02*
X9750000Y62305010I0J230000D01*
G01*
X9750000Y62995010D01*
G75*
G02*
X9980000Y63225010I230000J0D01*
G01*
X11320000Y63225010D01*
G75*
G02*
X11550000Y62995010I0J-230000D01*
G01*
G37*
G04 #@! TD*
G04 #@! TO.C,D26*
G36*
G01*
X77800000Y83790000D02*
X77800000Y84810000D01*
G75*
G02*
X77890000Y84900000I90000J0D01*
G01*
X78610000Y84900000D01*
G75*
G02*
X78700000Y84810000I0J-90000D01*
G01*
X78700000Y83790000D01*
G75*
G02*
X78610000Y83700000I-90000J0D01*
G01*
X77890000Y83700000D01*
G75*
G02*
X77800000Y83790000I0J90000D01*
G01*
G37*
G36*
G01*
X81100000Y83790000D02*
X81100000Y84810000D01*
G75*
G02*
X81190000Y84900000I90000J0D01*
G01*
X81910000Y84900000D01*
G75*
G02*
X82000000Y84810000I0J-90000D01*
G01*
X82000000Y83790000D01*
G75*
G02*
X81910000Y83700000I-90000J0D01*
G01*
X81190000Y83700000D01*
G75*
G02*
X81100000Y83790000I0J90000D01*
G01*
G37*
G04 #@! TD*
G04 #@! TO.C,Q22*
G36*
G01*
X10305000Y34710000D02*
X10305000Y34410000D01*
G75*
G02*
X10155000Y34260000I-150000J0D01*
G01*
X8980000Y34260000D01*
G75*
G02*
X8830000Y34410000I0J150000D01*
G01*
X8830000Y34710000D01*
G75*
G02*
X8980000Y34860000I150000J0D01*
G01*
X10155000Y34860000D01*
G75*
G02*
X10305000Y34710000I0J-150000D01*
G01*
G37*
G36*
G01*
X8430000Y35660000D02*
X8430000Y35360000D01*
G75*
G02*
X8280000Y35210000I-150000J0D01*
G01*
X7105000Y35210000D01*
G75*
G02*
X6955000Y35360000I0J150000D01*
G01*
X6955000Y35660000D01*
G75*
G02*
X7105000Y35810000I150000J0D01*
G01*
X8280000Y35810000D01*
G75*
G02*
X8430000Y35660000I0J-150000D01*
G01*
G37*
G36*
G01*
X10305000Y36610000D02*
X10305000Y36310000D01*
G75*
G02*
X10155000Y36160000I-150000J0D01*
G01*
X8980000Y36160000D01*
G75*
G02*
X8830000Y36310000I0J150000D01*
G01*
X8830000Y36610000D01*
G75*
G02*
X8980000Y36760000I150000J0D01*
G01*
X10155000Y36760000D01*
G75*
G02*
X10305000Y36610000I0J-150000D01*
G01*
G37*
G04 #@! TD*
D11*
G04 #@! TO.C,R16*
X45400000Y82895000D03*
G36*
G01*
X46025000Y83349999D02*
X44775000Y83349999D01*
G75*
G02*
X44675000Y83449999I0J100000D01*
G01*
X44675000Y84249999D01*
G75*
G02*
X44775000Y84349999I100000J0D01*
G01*
X46025000Y84349999D01*
G75*
G02*
X46125000Y84249999I0J-100000D01*
G01*
X46125000Y83449999D01*
G75*
G02*
X46025000Y83349999I-100000J0D01*
G01*
G37*
G36*
G01*
X46025000Y85250021D02*
X44775000Y85250021D01*
G75*
G02*
X44675000Y85350021I0J100000D01*
G01*
X44675000Y86150021D01*
G75*
G02*
X44775000Y86250021I100000J0D01*
G01*
X46025000Y86250021D01*
G75*
G02*
X46125000Y86150021I0J-100000D01*
G01*
X46125000Y85350021D01*
G75*
G02*
X46025000Y85250021I-100000J0D01*
G01*
G37*
X45400000Y86705000D03*
G04 #@! TD*
G04 #@! TO.C,D9*
G36*
G01*
X8999998Y79000001D02*
X8099998Y79000001D01*
G75*
G02*
X7999998Y79100001I0J100000D01*
G01*
X7999998Y79900001D01*
G75*
G02*
X8099998Y80000001I100000J0D01*
G01*
X8999998Y80000001D01*
G75*
G02*
X9099998Y79900001I0J-100000D01*
G01*
X9099998Y79100001D01*
G75*
G02*
X8999998Y79000001I-100000J0D01*
G01*
G37*
G36*
G01*
X8999998Y80700001D02*
X8099998Y80700001D01*
G75*
G02*
X7999998Y80800001I0J100000D01*
G01*
X7999998Y81600001D01*
G75*
G02*
X8099998Y81700001I100000J0D01*
G01*
X8999998Y81700001D01*
G75*
G02*
X9099998Y81600001I0J-100000D01*
G01*
X9099998Y80800001D01*
G75*
G02*
X8999998Y80700001I-100000J0D01*
G01*
G37*
G04 #@! TD*
D12*
G04 #@! TO.C,P3*
X60400000Y1900000D03*
G04 #@! TD*
G04 #@! TO.C,D8*
G36*
G01*
X19640000Y91406000D02*
X19160000Y91406000D01*
G75*
G02*
X19100000Y91466000I0J60000D01*
G01*
X19100000Y91946000D01*
G75*
G02*
X19160000Y92006000I60000J0D01*
G01*
X19640000Y92006000D01*
G75*
G02*
X19700000Y91946000I0J-60000D01*
G01*
X19700000Y91466000D01*
G75*
G02*
X19640000Y91406000I-60000J0D01*
G01*
G37*
G36*
G01*
X17440000Y91406000D02*
X16960000Y91406000D01*
G75*
G02*
X16900000Y91466000I0J60000D01*
G01*
X16900000Y91946000D01*
G75*
G02*
X16960000Y92006000I60000J0D01*
G01*
X17440000Y92006000D01*
G75*
G02*
X17500000Y91946000I0J-60000D01*
G01*
X17500000Y91466000D01*
G75*
G02*
X17440000Y91406000I-60000J0D01*
G01*
G37*
G04 #@! TD*
G04 #@! TO.C,D14*
G36*
G01*
X8999998Y99800001D02*
X8099998Y99800001D01*
G75*
G02*
X7999998Y99900001I0J100000D01*
G01*
X7999998Y100700001D01*
G75*
G02*
X8099998Y100800001I100000J0D01*
G01*
X8999998Y100800001D01*
G75*
G02*
X9099998Y100700001I0J-100000D01*
G01*
X9099998Y99900001D01*
G75*
G02*
X8999998Y99800001I-100000J0D01*
G01*
G37*
G36*
G01*
X8999998Y101500001D02*
X8099998Y101500001D01*
G75*
G02*
X7999998Y101600001I0J100000D01*
G01*
X7999998Y102400001D01*
G75*
G02*
X8099998Y102500001I100000J0D01*
G01*
X8999998Y102500001D01*
G75*
G02*
X9099998Y102400001I0J-100000D01*
G01*
X9099998Y101600001D01*
G75*
G02*
X8999998Y101500001I-100000J0D01*
G01*
G37*
G04 #@! TD*
D20*
G04 #@! TO.C,M1*
X32074999Y55675006D03*
X25675002Y55675006D03*
X23774999Y55675006D03*
X19474999Y55675006D03*
D21*
X17075002Y55225007D03*
X16075001Y55225007D03*
D20*
X13224999Y55675006D03*
X32525001Y71175003D03*
X30675002Y71175003D03*
X25724999Y71175003D03*
X13675001Y71175003D03*
G04 #@! TD*
G04 #@! TO.C,R47*
G36*
G01*
X5430000Y31955010D02*
X5430000Y32645010D01*
G75*
G02*
X5660000Y32875010I230000J0D01*
G01*
X7000000Y32875010D01*
G75*
G02*
X7230000Y32645010I0J-230000D01*
G01*
X7230000Y31955010D01*
G75*
G02*
X7000000Y31725010I-230000J0D01*
G01*
X5660000Y31725010D01*
G75*
G02*
X5430000Y31955010I0J230000D01*
G01*
G37*
G36*
G01*
X5430000Y29054990D02*
X5430000Y29744990D01*
G75*
G02*
X5660000Y29974990I230000J0D01*
G01*
X7000000Y29974990D01*
G75*
G02*
X7230000Y29744990I0J-230000D01*
G01*
X7230000Y29054990D01*
G75*
G02*
X7000000Y28824990I-230000J0D01*
G01*
X5660000Y28824990D01*
G75*
G02*
X5430000Y29054990I0J230000D01*
G01*
G37*
G04 #@! TD*
G04 #@! TO.C,R35*
G36*
G01*
X11550000Y69494990D02*
X11550000Y68804990D01*
G75*
G02*
X11320000Y68574990I-230000J0D01*
G01*
X9980000Y68574990D01*
G75*
G02*
X9750000Y68804990I0J230000D01*
G01*
X9750000Y69494990D01*
G75*
G02*
X9980000Y69724990I230000J0D01*
G01*
X11320000Y69724990D01*
G75*
G02*
X11550000Y69494990I0J-230000D01*
G01*
G37*
G36*
G01*
X11550000Y72395010D02*
X11550000Y71705010D01*
G75*
G02*
X11320000Y71475010I-230000J0D01*
G01*
X9980000Y71475010D01*
G75*
G02*
X9750000Y71705010I0J230000D01*
G01*
X9750000Y72395010D01*
G75*
G02*
X9980000Y72625010I230000J0D01*
G01*
X11320000Y72625010D01*
G75*
G02*
X11550000Y72395010I0J-230000D01*
G01*
G37*
G04 #@! TD*
G04 #@! TO.C,Q14*
G36*
G01*
X54575000Y73300000D02*
X54575000Y73000000D01*
G75*
G02*
X54425000Y72850000I-150000J0D01*
G01*
X53250000Y72850000D01*
G75*
G02*
X53100000Y73000000I0J150000D01*
G01*
X53100000Y73300000D01*
G75*
G02*
X53250000Y73450000I150000J0D01*
G01*
X54425000Y73450000D01*
G75*
G02*
X54575000Y73300000I0J-150000D01*
G01*
G37*
G36*
G01*
X52700000Y74250000D02*
X52700000Y73950000D01*
G75*
G02*
X52550000Y73800000I-150000J0D01*
G01*
X51375000Y73800000D01*
G75*
G02*
X51225000Y73950000I0J150000D01*
G01*
X51225000Y74250000D01*
G75*
G02*
X51375000Y74400000I150000J0D01*
G01*
X52550000Y74400000D01*
G75*
G02*
X52700000Y74250000I0J-150000D01*
G01*
G37*
G36*
G01*
X54575000Y75200000D02*
X54575000Y74900000D01*
G75*
G02*
X54425000Y74750000I-150000J0D01*
G01*
X53250000Y74750000D01*
G75*
G02*
X53100000Y74900000I0J150000D01*
G01*
X53100000Y75200000D01*
G75*
G02*
X53250000Y75350000I150000J0D01*
G01*
X54425000Y75350000D01*
G75*
G02*
X54575000Y75200000I0J-150000D01*
G01*
G37*
G04 #@! TD*
G04 #@! TO.C,D29*
G36*
G01*
X10800000Y32190000D02*
X10800000Y33210000D01*
G75*
G02*
X10890000Y33300000I90000J0D01*
G01*
X11610000Y33300000D01*
G75*
G02*
X11700000Y33210000I0J-90000D01*
G01*
X11700000Y32190000D01*
G75*
G02*
X11610000Y32100000I-90000J0D01*
G01*
X10890000Y32100000D01*
G75*
G02*
X10800000Y32190000I0J90000D01*
G01*
G37*
G36*
G01*
X14100000Y32190000D02*
X14100000Y33210000D01*
G75*
G02*
X14190000Y33300000I90000J0D01*
G01*
X14910000Y33300000D01*
G75*
G02*
X15000000Y33210000I0J-90000D01*
G01*
X15000000Y32190000D01*
G75*
G02*
X14910000Y32100000I-90000J0D01*
G01*
X14190000Y32100000D01*
G75*
G02*
X14100000Y32190000I0J90000D01*
G01*
G37*
G04 #@! TD*
G04 #@! TO.C,C5*
G36*
G01*
X10965001Y40940000D02*
X10965001Y40260000D01*
G75*
G02*
X10880001Y40175000I-85000J0D01*
G01*
X10200001Y40175000D01*
G75*
G02*
X10115001Y40260000I0J85000D01*
G01*
X10115001Y40940000D01*
G75*
G02*
X10200001Y41025000I85000J0D01*
G01*
X10880001Y41025000D01*
G75*
G02*
X10965001Y40940000I0J-85000D01*
G01*
G37*
G36*
G01*
X9384999Y40940000D02*
X9384999Y40260000D01*
G75*
G02*
X9299999Y40175000I-85000J0D01*
G01*
X8619999Y40175000D01*
G75*
G02*
X8534999Y40260000I0J85000D01*
G01*
X8534999Y40940000D01*
G75*
G02*
X8619999Y41025000I85000J0D01*
G01*
X9299999Y41025000D01*
G75*
G02*
X9384999Y40940000I0J-85000D01*
G01*
G37*
G04 #@! TD*
G04 #@! TO.C,D16*
G36*
G01*
X13399998Y89400001D02*
X12499998Y89400001D01*
G75*
G02*
X12399998Y89500001I0J100000D01*
G01*
X12399998Y90300001D01*
G75*
G02*
X12499998Y90400001I100000J0D01*
G01*
X13399998Y90400001D01*
G75*
G02*
X13499998Y90300001I0J-100000D01*
G01*
X13499998Y89500001D01*
G75*
G02*
X13399998Y89400001I-100000J0D01*
G01*
G37*
G36*
G01*
X13399998Y91100001D02*
X12499998Y91100001D01*
G75*
G02*
X12399998Y91200001I0J100000D01*
G01*
X12399998Y92000001D01*
G75*
G02*
X12499998Y92100001I100000J0D01*
G01*
X13399998Y92100001D01*
G75*
G02*
X13499998Y92000001I0J-100000D01*
G01*
X13499998Y91200001D01*
G75*
G02*
X13399998Y91100001I-100000J0D01*
G01*
G37*
G04 #@! TD*
D19*
G04 #@! TO.C,M3*
X34825000Y57700000D03*
X42325000Y57700000D03*
X43125000Y57700000D03*
X43925000Y57700000D03*
X36725000Y75225000D03*
X35725000Y75225000D03*
G04 #@! TD*
G04 #@! TO.C,R23*
G36*
G01*
X8300000Y55694990D02*
X8300000Y55004990D01*
G75*
G02*
X8070000Y54774990I-230000J0D01*
G01*
X6730000Y54774990D01*
G75*
G02*
X6500000Y55004990I0J230000D01*
G01*
X6500000Y55694990D01*
G75*
G02*
X6730000Y55924990I230000J0D01*
G01*
X8070000Y55924990D01*
G75*
G02*
X8300000Y55694990I0J-230000D01*
G01*
G37*
G36*
G01*
X8300000Y58595010D02*
X8300000Y57905010D01*
G75*
G02*
X8070000Y57675010I-230000J0D01*
G01*
X6730000Y57675010D01*
G75*
G02*
X6500000Y57905010I0J230000D01*
G01*
X6500000Y58595010D01*
G75*
G02*
X6730000Y58825010I230000J0D01*
G01*
X8070000Y58825010D01*
G75*
G02*
X8300000Y58595010I0J-230000D01*
G01*
G37*
G04 #@! TD*
D11*
G04 #@! TO.C,R10*
X43300000Y82895000D03*
G36*
G01*
X43925000Y83349999D02*
X42675000Y83349999D01*
G75*
G02*
X42575000Y83449999I0J100000D01*
G01*
X42575000Y84249999D01*
G75*
G02*
X42675000Y84349999I100000J0D01*
G01*
X43925000Y84349999D01*
G75*
G02*
X44025000Y84249999I0J-100000D01*
G01*
X44025000Y83449999D01*
G75*
G02*
X43925000Y83349999I-100000J0D01*
G01*
G37*
X43300000Y86705000D03*
G36*
G01*
X43925000Y85250021D02*
X42675000Y85250021D01*
G75*
G02*
X42575000Y85350021I0J100000D01*
G01*
X42575000Y86150021D01*
G75*
G02*
X42675000Y86250021I100000J0D01*
G01*
X43925000Y86250021D01*
G75*
G02*
X44025000Y86150021I0J-100000D01*
G01*
X44025000Y85350021D01*
G75*
G02*
X43925000Y85250021I-100000J0D01*
G01*
G37*
G04 #@! TD*
G04 #@! TO.C,D19*
G36*
G01*
X8999998Y84200001D02*
X8099998Y84200001D01*
G75*
G02*
X7999998Y84300001I0J100000D01*
G01*
X7999998Y85100001D01*
G75*
G02*
X8099998Y85200001I100000J0D01*
G01*
X8999998Y85200001D01*
G75*
G02*
X9099998Y85100001I0J-100000D01*
G01*
X9099998Y84300001D01*
G75*
G02*
X8999998Y84200001I-100000J0D01*
G01*
G37*
G36*
G01*
X8999998Y85900001D02*
X8099998Y85900001D01*
G75*
G02*
X7999998Y86000001I0J100000D01*
G01*
X7999998Y86800001D01*
G75*
G02*
X8099998Y86900001I100000J0D01*
G01*
X8999998Y86900001D01*
G75*
G02*
X9099998Y86800001I0J-100000D01*
G01*
X9099998Y86000001D01*
G75*
G02*
X8999998Y85900001I-100000J0D01*
G01*
G37*
G04 #@! TD*
G04 #@! TO.C,D21*
G36*
G01*
X17438000Y93784000D02*
X17918000Y93784000D01*
G75*
G02*
X17978000Y93724000I0J-60000D01*
G01*
X17978000Y93244000D01*
G75*
G02*
X17918000Y93184000I-60000J0D01*
G01*
X17438000Y93184000D01*
G75*
G02*
X17378000Y93244000I0J60000D01*
G01*
X17378000Y93724000D01*
G75*
G02*
X17438000Y93784000I60000J0D01*
G01*
G37*
G36*
G01*
X19638000Y93784000D02*
X20118000Y93784000D01*
G75*
G02*
X20178000Y93724000I0J-60000D01*
G01*
X20178000Y93244000D01*
G75*
G02*
X20118000Y93184000I-60000J0D01*
G01*
X19638000Y93184000D01*
G75*
G02*
X19578000Y93244000I0J60000D01*
G01*
X19578000Y93724000D01*
G75*
G02*
X19638000Y93784000I60000J0D01*
G01*
G37*
G04 #@! TD*
G04 #@! TO.C,R31*
G36*
G01*
X58550000Y76450000D02*
X57770000Y76450000D01*
G75*
G02*
X57700000Y76520000I0J70000D01*
G01*
X57700000Y77080000D01*
G75*
G02*
X57770000Y77150000I70000J0D01*
G01*
X58550000Y77150000D01*
G75*
G02*
X58620000Y77080000I0J-70000D01*
G01*
X58620000Y76520000D01*
G75*
G02*
X58550000Y76450000I-70000J0D01*
G01*
G37*
G36*
G01*
X58550000Y78050000D02*
X57770000Y78050000D01*
G75*
G02*
X57700000Y78120000I0J70000D01*
G01*
X57700000Y78680000D01*
G75*
G02*
X57770000Y78750000I70000J0D01*
G01*
X58550000Y78750000D01*
G75*
G02*
X58620000Y78680000I0J-70000D01*
G01*
X58620000Y78120000D01*
G75*
G02*
X58550000Y78050000I-70000J0D01*
G01*
G37*
G04 #@! TD*
G04 #@! TO.C,Q17*
G36*
G01*
X11800000Y54275000D02*
X12100000Y54275000D01*
G75*
G02*
X12250000Y54125000I0J-150000D01*
G01*
X12250000Y52950000D01*
G75*
G02*
X12100000Y52800000I-150000J0D01*
G01*
X11800000Y52800000D01*
G75*
G02*
X11650000Y52950000I0J150000D01*
G01*
X11650000Y54125000D01*
G75*
G02*
X11800000Y54275000I150000J0D01*
G01*
G37*
G36*
G01*
X10850000Y52400000D02*
X11150000Y52400000D01*
G75*
G02*
X11300000Y52250000I0J-150000D01*
G01*
X11300000Y51075000D01*
G75*
G02*
X11150000Y50925000I-150000J0D01*
G01*
X10850000Y50925000D01*
G75*
G02*
X10700000Y51075000I0J150000D01*
G01*
X10700000Y52250000D01*
G75*
G02*
X10850000Y52400000I150000J0D01*
G01*
G37*
G36*
G01*
X9900000Y54275000D02*
X10200000Y54275000D01*
G75*
G02*
X10350000Y54125000I0J-150000D01*
G01*
X10350000Y52950000D01*
G75*
G02*
X10200000Y52800000I-150000J0D01*
G01*
X9900000Y52800000D01*
G75*
G02*
X9750000Y52950000I0J150000D01*
G01*
X9750000Y54125000D01*
G75*
G02*
X9900000Y54275000I150000J0D01*
G01*
G37*
G04 #@! TD*
G04 #@! TO.C,R5*
G36*
G01*
X16900000Y96365000D02*
X16900000Y97035000D01*
G75*
G02*
X16965000Y97100000I65000J0D01*
G01*
X17485000Y97100000D01*
G75*
G02*
X17550000Y97035000I0J-65000D01*
G01*
X17550000Y96365000D01*
G75*
G02*
X17485000Y96300000I-65000J0D01*
G01*
X16965000Y96300000D01*
G75*
G02*
X16900000Y96365000I0J65000D01*
G01*
G37*
G36*
G01*
X17875000Y96345000D02*
X17875000Y97055000D01*
G75*
G02*
X17920000Y97100000I45000J0D01*
G01*
X18280000Y97100000D01*
G75*
G02*
X18325000Y97055000I0J-45000D01*
G01*
X18325000Y96345000D01*
G75*
G02*
X18280000Y96300000I-45000J0D01*
G01*
X17920000Y96300000D01*
G75*
G02*
X17875000Y96345000I0J45000D01*
G01*
G37*
G36*
G01*
X18675000Y96345000D02*
X18675000Y97055000D01*
G75*
G02*
X18720000Y97100000I45000J0D01*
G01*
X19080000Y97100000D01*
G75*
G02*
X19125000Y97055000I0J-45000D01*
G01*
X19125000Y96345000D01*
G75*
G02*
X19080000Y96300000I-45000J0D01*
G01*
X18720000Y96300000D01*
G75*
G02*
X18675000Y96345000I0J45000D01*
G01*
G37*
G36*
G01*
X19450000Y96365000D02*
X19450000Y97035000D01*
G75*
G02*
X19515000Y97100000I65000J0D01*
G01*
X20035000Y97100000D01*
G75*
G02*
X20100000Y97035000I0J-65000D01*
G01*
X20100000Y96365000D01*
G75*
G02*
X20035000Y96300000I-65000J0D01*
G01*
X19515000Y96300000D01*
G75*
G02*
X19450000Y96365000I0J65000D01*
G01*
G37*
G36*
G01*
X19450000Y98165000D02*
X19450000Y98835000D01*
G75*
G02*
X19515000Y98900000I65000J0D01*
G01*
X20035000Y98900000D01*
G75*
G02*
X20100000Y98835000I0J-65000D01*
G01*
X20100000Y98165000D01*
G75*
G02*
X20035000Y98100000I-65000J0D01*
G01*
X19515000Y98100000D01*
G75*
G02*
X19450000Y98165000I0J65000D01*
G01*
G37*
G36*
G01*
X18675000Y98145000D02*
X18675000Y98855000D01*
G75*
G02*
X18720000Y98900000I45000J0D01*
G01*
X19080000Y98900000D01*
G75*
G02*
X19125000Y98855000I0J-45000D01*
G01*
X19125000Y98145000D01*
G75*
G02*
X19080000Y98100000I-45000J0D01*
G01*
X18720000Y98100000D01*
G75*
G02*
X18675000Y98145000I0J45000D01*
G01*
G37*
G36*
G01*
X17875000Y98145000D02*
X17875000Y98855000D01*
G75*
G02*
X17920000Y98900000I45000J0D01*
G01*
X18280000Y98900000D01*
G75*
G02*
X18325000Y98855000I0J-45000D01*
G01*
X18325000Y98145000D01*
G75*
G02*
X18280000Y98100000I-45000J0D01*
G01*
X17920000Y98100000D01*
G75*
G02*
X17875000Y98145000I0J45000D01*
G01*
G37*
G36*
G01*
X16900000Y98165000D02*
X16900000Y98835000D01*
G75*
G02*
X16965000Y98900000I65000J0D01*
G01*
X17485000Y98900000D01*
G75*
G02*
X17550000Y98835000I0J-65000D01*
G01*
X17550000Y98165000D01*
G75*
G02*
X17485000Y98100000I-65000J0D01*
G01*
X16965000Y98100000D01*
G75*
G02*
X16900000Y98165000I0J65000D01*
G01*
G37*
G04 #@! TD*
G04 #@! TO.C,D2*
G36*
G01*
X17361499Y75087497D02*
X17841499Y75087497D01*
G75*
G02*
X17901499Y75027497I0J-60000D01*
G01*
X17901499Y74547497D01*
G75*
G02*
X17841499Y74487497I-60000J0D01*
G01*
X17361499Y74487497D01*
G75*
G02*
X17301499Y74547497I0J60000D01*
G01*
X17301499Y75027497D01*
G75*
G02*
X17361499Y75087497I60000J0D01*
G01*
G37*
G36*
G01*
X19561499Y75087497D02*
X20041499Y75087497D01*
G75*
G02*
X20101499Y75027497I0J-60000D01*
G01*
X20101499Y74547497D01*
G75*
G02*
X20041499Y74487497I-60000J0D01*
G01*
X19561499Y74487497D01*
G75*
G02*
X19501499Y74547497I0J60000D01*
G01*
X19501499Y75027497D01*
G75*
G02*
X19561499Y75087497I60000J0D01*
G01*
G37*
G04 #@! TD*
G04 #@! TO.C,R43*
G36*
G01*
X22160000Y46600000D02*
X22940000Y46600000D01*
G75*
G02*
X23010000Y46530000I0J-70000D01*
G01*
X23010000Y45970000D01*
G75*
G02*
X22940000Y45900000I-70000J0D01*
G01*
X22160000Y45900000D01*
G75*
G02*
X22090000Y45970000I0J70000D01*
G01*
X22090000Y46530000D01*
G75*
G02*
X22160000Y46600000I70000J0D01*
G01*
G37*
G36*
G01*
X22160000Y45000000D02*
X22940000Y45000000D01*
G75*
G02*
X23010000Y44930000I0J-70000D01*
G01*
X23010000Y44370000D01*
G75*
G02*
X22940000Y44300000I-70000J0D01*
G01*
X22160000Y44300000D01*
G75*
G02*
X22090000Y44370000I0J70000D01*
G01*
X22090000Y44930000D01*
G75*
G02*
X22160000Y45000000I70000J0D01*
G01*
G37*
G04 #@! TD*
G04 #@! TO.C,D10*
G36*
G01*
X13399998Y73800001D02*
X12499998Y73800001D01*
G75*
G02*
X12399998Y73900001I0J100000D01*
G01*
X12399998Y74700001D01*
G75*
G02*
X12499998Y74800001I100000J0D01*
G01*
X13399998Y74800001D01*
G75*
G02*
X13499998Y74700001I0J-100000D01*
G01*
X13499998Y73900001D01*
G75*
G02*
X13399998Y73800001I-100000J0D01*
G01*
G37*
G36*
G01*
X13399998Y75500001D02*
X12499998Y75500001D01*
G75*
G02*
X12399998Y75600001I0J100000D01*
G01*
X12399998Y76400001D01*
G75*
G02*
X12499998Y76500001I100000J0D01*
G01*
X13399998Y76500001D01*
G75*
G02*
X13499998Y76400001I0J-100000D01*
G01*
X13499998Y75600001D01*
G75*
G02*
X13399998Y75500001I-100000J0D01*
G01*
G37*
G04 #@! TD*
G04 #@! TO.C,Q20*
G36*
G01*
X22475000Y50900000D02*
X22475000Y50600000D01*
G75*
G02*
X22325000Y50450000I-150000J0D01*
G01*
X21150000Y50450000D01*
G75*
G02*
X21000000Y50600000I0J150000D01*
G01*
X21000000Y50900000D01*
G75*
G02*
X21150000Y51050000I150000J0D01*
G01*
X22325000Y51050000D01*
G75*
G02*
X22475000Y50900000I0J-150000D01*
G01*
G37*
G36*
G01*
X20600000Y51850000D02*
X20600000Y51550000D01*
G75*
G02*
X20450000Y51400000I-150000J0D01*
G01*
X19275000Y51400000D01*
G75*
G02*
X19125000Y51550000I0J150000D01*
G01*
X19125000Y51850000D01*
G75*
G02*
X19275000Y52000000I150000J0D01*
G01*
X20450000Y52000000D01*
G75*
G02*
X20600000Y51850000I0J-150000D01*
G01*
G37*
G36*
G01*
X22475000Y52800000D02*
X22475000Y52500000D01*
G75*
G02*
X22325000Y52350000I-150000J0D01*
G01*
X21150000Y52350000D01*
G75*
G02*
X21000000Y52500000I0J150000D01*
G01*
X21000000Y52800000D01*
G75*
G02*
X21150000Y52950000I150000J0D01*
G01*
X22325000Y52950000D01*
G75*
G02*
X22475000Y52800000I0J-150000D01*
G01*
G37*
G04 #@! TD*
G04 #@! TO.C,D23*
G36*
G01*
X8100000Y29895000D02*
X7800000Y29895000D01*
G75*
G02*
X7650000Y30045000I0J150000D01*
G01*
X7650000Y31220000D01*
G75*
G02*
X7800000Y31370000I150000J0D01*
G01*
X8100000Y31370000D01*
G75*
G02*
X8250000Y31220000I0J-150000D01*
G01*
X8250000Y30045000D01*
G75*
G02*
X8100000Y29895000I-150000J0D01*
G01*
G37*
G36*
G01*
X9050000Y31770000D02*
X8750000Y31770000D01*
G75*
G02*
X8600000Y31920000I0J150000D01*
G01*
X8600000Y33095000D01*
G75*
G02*
X8750000Y33245000I150000J0D01*
G01*
X9050000Y33245000D01*
G75*
G02*
X9200000Y33095000I0J-150000D01*
G01*
X9200000Y31920000D01*
G75*
G02*
X9050000Y31770000I-150000J0D01*
G01*
G37*
G36*
G01*
X10000000Y29895000D02*
X9700000Y29895000D01*
G75*
G02*
X9550000Y30045000I0J150000D01*
G01*
X9550000Y31220000D01*
G75*
G02*
X9700000Y31370000I150000J0D01*
G01*
X10000000Y31370000D01*
G75*
G02*
X10150000Y31220000I0J-150000D01*
G01*
X10150000Y30045000D01*
G75*
G02*
X10000000Y29895000I-150000J0D01*
G01*
G37*
G04 #@! TD*
G04 #@! TO.C,D17*
G36*
G01*
X8999998Y94600001D02*
X8099998Y94600001D01*
G75*
G02*
X7999998Y94700001I0J100000D01*
G01*
X7999998Y95500001D01*
G75*
G02*
X8099998Y95600001I100000J0D01*
G01*
X8999998Y95600001D01*
G75*
G02*
X9099998Y95500001I0J-100000D01*
G01*
X9099998Y94700001D01*
G75*
G02*
X8999998Y94600001I-100000J0D01*
G01*
G37*
G36*
G01*
X8999998Y96300001D02*
X8099998Y96300001D01*
G75*
G02*
X7999998Y96400001I0J100000D01*
G01*
X7999998Y97200001D01*
G75*
G02*
X8099998Y97300001I100000J0D01*
G01*
X8999998Y97300001D01*
G75*
G02*
X9099998Y97200001I0J-100000D01*
G01*
X9099998Y96400001D01*
G75*
G02*
X8999998Y96300001I-100000J0D01*
G01*
G37*
G04 #@! TD*
G04 #@! TO.C,R19*
X30000000Y82895000D03*
G36*
G01*
X30625000Y83349999D02*
X29375000Y83349999D01*
G75*
G02*
X29275000Y83449999I0J100000D01*
G01*
X29275000Y84249999D01*
G75*
G02*
X29375000Y84349999I100000J0D01*
G01*
X30625000Y84349999D01*
G75*
G02*
X30725000Y84249999I0J-100000D01*
G01*
X30725000Y83449999D01*
G75*
G02*
X30625000Y83349999I-100000J0D01*
G01*
G37*
X30000000Y86705000D03*
G36*
G01*
X30625000Y85250021D02*
X29375000Y85250021D01*
G75*
G02*
X29275000Y85350021I0J100000D01*
G01*
X29275000Y86150021D01*
G75*
G02*
X29375000Y86250021I100000J0D01*
G01*
X30625000Y86250021D01*
G75*
G02*
X30725000Y86150021I0J-100000D01*
G01*
X30725000Y85350021D01*
G75*
G02*
X30625000Y85250021I-100000J0D01*
G01*
G37*
G04 #@! TD*
G04 #@! TO.C,Q5*
G36*
G01*
X8300000Y54375000D02*
X8600000Y54375000D01*
G75*
G02*
X8750000Y54225000I0J-150000D01*
G01*
X8750000Y53050000D01*
G75*
G02*
X8600000Y52900000I-150000J0D01*
G01*
X8300000Y52900000D01*
G75*
G02*
X8150000Y53050000I0J150000D01*
G01*
X8150000Y54225000D01*
G75*
G02*
X8300000Y54375000I150000J0D01*
G01*
G37*
G36*
G01*
X7350000Y52500000D02*
X7650000Y52500000D01*
G75*
G02*
X7800000Y52350000I0J-150000D01*
G01*
X7800000Y51175000D01*
G75*
G02*
X7650000Y51025000I-150000J0D01*
G01*
X7350000Y51025000D01*
G75*
G02*
X7200000Y51175000I0J150000D01*
G01*
X7200000Y52350000D01*
G75*
G02*
X7350000Y52500000I150000J0D01*
G01*
G37*
G36*
G01*
X6400000Y54375000D02*
X6700000Y54375000D01*
G75*
G02*
X6850000Y54225000I0J-150000D01*
G01*
X6850000Y53050000D01*
G75*
G02*
X6700000Y52900000I-150000J0D01*
G01*
X6400000Y52900000D01*
G75*
G02*
X6250000Y53050000I0J150000D01*
G01*
X6250000Y54225000D01*
G75*
G02*
X6400000Y54375000I150000J0D01*
G01*
G37*
G04 #@! TD*
G04 #@! TO.C,Q12*
G36*
G01*
X58553000Y73300000D02*
X58553000Y73000000D01*
G75*
G02*
X58403000Y72850000I-150000J0D01*
G01*
X57228000Y72850000D01*
G75*
G02*
X57078000Y73000000I0J150000D01*
G01*
X57078000Y73300000D01*
G75*
G02*
X57228000Y73450000I150000J0D01*
G01*
X58403000Y73450000D01*
G75*
G02*
X58553000Y73300000I0J-150000D01*
G01*
G37*
G36*
G01*
X56678000Y74250000D02*
X56678000Y73950000D01*
G75*
G02*
X56528000Y73800000I-150000J0D01*
G01*
X55353000Y73800000D01*
G75*
G02*
X55203000Y73950000I0J150000D01*
G01*
X55203000Y74250000D01*
G75*
G02*
X55353000Y74400000I150000J0D01*
G01*
X56528000Y74400000D01*
G75*
G02*
X56678000Y74250000I0J-150000D01*
G01*
G37*
G36*
G01*
X58553000Y75200000D02*
X58553000Y74900000D01*
G75*
G02*
X58403000Y74750000I-150000J0D01*
G01*
X57228000Y74750000D01*
G75*
G02*
X57078000Y74900000I0J150000D01*
G01*
X57078000Y75200000D01*
G75*
G02*
X57228000Y75350000I150000J0D01*
G01*
X58403000Y75350000D01*
G75*
G02*
X58553000Y75200000I0J-150000D01*
G01*
G37*
G04 #@! TD*
G04 #@! TO.C,Q2*
G36*
G01*
X7700000Y44725000D02*
X7400000Y44725000D01*
G75*
G02*
X7250000Y44875000I0J150000D01*
G01*
X7250000Y46050000D01*
G75*
G02*
X7400000Y46200000I150000J0D01*
G01*
X7700000Y46200000D01*
G75*
G02*
X7850000Y46050000I0J-150000D01*
G01*
X7850000Y44875000D01*
G75*
G02*
X7700000Y44725000I-150000J0D01*
G01*
G37*
G36*
G01*
X8650000Y46600000D02*
X8350000Y46600000D01*
G75*
G02*
X8200000Y46750000I0J150000D01*
G01*
X8200000Y47925000D01*
G75*
G02*
X8350000Y48075000I150000J0D01*
G01*
X8650000Y48075000D01*
G75*
G02*
X8800000Y47925000I0J-150000D01*
G01*
X8800000Y46750000D01*
G75*
G02*
X8650000Y46600000I-150000J0D01*
G01*
G37*
G36*
G01*
X9600000Y44725000D02*
X9300000Y44725000D01*
G75*
G02*
X9150000Y44875000I0J150000D01*
G01*
X9150000Y46050000D01*
G75*
G02*
X9300000Y46200000I150000J0D01*
G01*
X9600000Y46200000D01*
G75*
G02*
X9750000Y46050000I0J-150000D01*
G01*
X9750000Y44875000D01*
G75*
G02*
X9600000Y44725000I-150000J0D01*
G01*
G37*
G04 #@! TD*
G04 #@! TO.C,R48*
G36*
G01*
X8890000Y43130000D02*
X8890000Y43910000D01*
G75*
G02*
X8960000Y43980000I70000J0D01*
G01*
X9520000Y43980000D01*
G75*
G02*
X9590000Y43910000I0J-70000D01*
G01*
X9590000Y43130000D01*
G75*
G02*
X9520000Y43060000I-70000J0D01*
G01*
X8960000Y43060000D01*
G75*
G02*
X8890000Y43130000I0J70000D01*
G01*
G37*
G36*
G01*
X10490000Y43130000D02*
X10490000Y43910000D01*
G75*
G02*
X10560000Y43980000I70000J0D01*
G01*
X11120000Y43980000D01*
G75*
G02*
X11190000Y43910000I0J-70000D01*
G01*
X11190000Y43130000D01*
G75*
G02*
X11120000Y43060000I-70000J0D01*
G01*
X10560000Y43060000D01*
G75*
G02*
X10490000Y43130000I0J70000D01*
G01*
G37*
G04 #@! TD*
G04 #@! TO.C,D3*
G36*
G01*
X17438000Y95308000D02*
X17918000Y95308000D01*
G75*
G02*
X17978000Y95248000I0J-60000D01*
G01*
X17978000Y94768000D01*
G75*
G02*
X17918000Y94708000I-60000J0D01*
G01*
X17438000Y94708000D01*
G75*
G02*
X17378000Y94768000I0J60000D01*
G01*
X17378000Y95248000D01*
G75*
G02*
X17438000Y95308000I60000J0D01*
G01*
G37*
G36*
G01*
X19638000Y95308000D02*
X20118000Y95308000D01*
G75*
G02*
X20178000Y95248000I0J-60000D01*
G01*
X20178000Y94768000D01*
G75*
G02*
X20118000Y94708000I-60000J0D01*
G01*
X19638000Y94708000D01*
G75*
G02*
X19578000Y94768000I0J60000D01*
G01*
X19578000Y95248000D01*
G75*
G02*
X19638000Y95308000I60000J0D01*
G01*
G37*
G04 #@! TD*
G04 #@! TO.C,U3*
G36*
G01*
X79071300Y12100000D02*
X79578700Y12100000D01*
G75*
G02*
X79620000Y12058700I0J-41300D01*
G01*
X79620000Y10121300D01*
G75*
G02*
X79578700Y10080000I-41300J0D01*
G01*
X79071300Y10080000D01*
G75*
G02*
X79030000Y10121300I0J41300D01*
G01*
X79030000Y12058700D01*
G75*
G02*
X79071300Y12100000I41300J0D01*
G01*
G37*
G36*
G01*
X77801300Y12100000D02*
X78308700Y12100000D01*
G75*
G02*
X78350000Y12058700I0J-41300D01*
G01*
X78350000Y10121300D01*
G75*
G02*
X78308700Y10080000I-41300J0D01*
G01*
X77801300Y10080000D01*
G75*
G02*
X77760000Y10121300I0J41300D01*
G01*
X77760000Y12058700D01*
G75*
G02*
X77801300Y12100000I41300J0D01*
G01*
G37*
G36*
G01*
X76531300Y12100000D02*
X77038700Y12100000D01*
G75*
G02*
X77080000Y12058700I0J-41300D01*
G01*
X77080000Y10121300D01*
G75*
G02*
X77038700Y10080000I-41300J0D01*
G01*
X76531300Y10080000D01*
G75*
G02*
X76490000Y10121300I0J41300D01*
G01*
X76490000Y12058700D01*
G75*
G02*
X76531300Y12100000I41300J0D01*
G01*
G37*
G36*
G01*
X75261300Y12100000D02*
X75768700Y12100000D01*
G75*
G02*
X75810000Y12058700I0J-41300D01*
G01*
X75810000Y10121300D01*
G75*
G02*
X75768700Y10080000I-41300J0D01*
G01*
X75261300Y10080000D01*
G75*
G02*
X75220000Y10121300I0J41300D01*
G01*
X75220000Y12058700D01*
G75*
G02*
X75261300Y12100000I41300J0D01*
G01*
G37*
G36*
G01*
X75261300Y2740000D02*
X75768700Y2740000D01*
G75*
G02*
X75810000Y2698700I0J-41300D01*
G01*
X75810000Y761300D01*
G75*
G02*
X75768700Y720000I-41300J0D01*
G01*
X75261300Y720000D01*
G75*
G02*
X75220000Y761300I0J41300D01*
G01*
X75220000Y2698700D01*
G75*
G02*
X75261300Y2740000I41300J0D01*
G01*
G37*
G36*
G01*
X76531300Y2740000D02*
X77038700Y2740000D01*
G75*
G02*
X77080000Y2698700I0J-41300D01*
G01*
X77080000Y761300D01*
G75*
G02*
X77038700Y720000I-41300J0D01*
G01*
X76531300Y720000D01*
G75*
G02*
X76490000Y761300I0J41300D01*
G01*
X76490000Y2698700D01*
G75*
G02*
X76531300Y2740000I41300J0D01*
G01*
G37*
G36*
G01*
X77801300Y2740000D02*
X78308700Y2740000D01*
G75*
G02*
X78350000Y2698700I0J-41300D01*
G01*
X78350000Y761300D01*
G75*
G02*
X78308700Y720000I-41300J0D01*
G01*
X77801300Y720000D01*
G75*
G02*
X77760000Y761300I0J41300D01*
G01*
X77760000Y2698700D01*
G75*
G02*
X77801300Y2740000I41300J0D01*
G01*
G37*
G36*
G01*
X79071300Y2740000D02*
X79578700Y2740000D01*
G75*
G02*
X79620000Y2698700I0J-41300D01*
G01*
X79620000Y761300D01*
G75*
G02*
X79578700Y720000I-41300J0D01*
G01*
X79071300Y720000D01*
G75*
G02*
X79030000Y761300I0J41300D01*
G01*
X79030000Y2698700D01*
G75*
G02*
X79071300Y2740000I41300J0D01*
G01*
G37*
G04 #@! TD*
G04 #@! TO.C,Q16*
G36*
G01*
X11800000Y50875000D02*
X12100000Y50875000D01*
G75*
G02*
X12250000Y50725000I0J-150000D01*
G01*
X12250000Y49550000D01*
G75*
G02*
X12100000Y49400000I-150000J0D01*
G01*
X11800000Y49400000D01*
G75*
G02*
X11650000Y49550000I0J150000D01*
G01*
X11650000Y50725000D01*
G75*
G02*
X11800000Y50875000I150000J0D01*
G01*
G37*
G36*
G01*
X10850000Y49000000D02*
X11150000Y49000000D01*
G75*
G02*
X11300000Y48850000I0J-150000D01*
G01*
X11300000Y47675000D01*
G75*
G02*
X11150000Y47525000I-150000J0D01*
G01*
X10850000Y47525000D01*
G75*
G02*
X10700000Y47675000I0J150000D01*
G01*
X10700000Y48850000D01*
G75*
G02*
X10850000Y49000000I150000J0D01*
G01*
G37*
G36*
G01*
X9900000Y50875000D02*
X10200000Y50875000D01*
G75*
G02*
X10350000Y50725000I0J-150000D01*
G01*
X10350000Y49550000D01*
G75*
G02*
X10200000Y49400000I-150000J0D01*
G01*
X9900000Y49400000D01*
G75*
G02*
X9750000Y49550000I0J150000D01*
G01*
X9750000Y50725000D01*
G75*
G02*
X9900000Y50875000I150000J0D01*
G01*
G37*
G04 #@! TD*
D22*
G04 #@! TO.C,U4*
X19550000Y7775000D03*
X19550000Y9275000D03*
X19550000Y10775000D03*
X19550000Y12275000D03*
X19550000Y13775000D03*
X19550000Y15275000D03*
X19550000Y16775000D03*
X19550000Y18275000D03*
X19550000Y19775000D03*
X19550000Y21275000D03*
X19550000Y22775000D03*
X19550000Y24275000D03*
X19550000Y25775000D03*
X6850000Y25775000D03*
X6850000Y24275000D03*
X6850000Y22775000D03*
X6850000Y21275000D03*
X6850000Y19775000D03*
X6850000Y18275000D03*
X6850000Y16775000D03*
X6850000Y15275000D03*
X6850000Y13775000D03*
X6850000Y12275000D03*
X6850000Y10775000D03*
X6850000Y9275000D03*
X6850000Y7775000D03*
G04 #@! TD*
D11*
G04 #@! TO.C,F1*
X54846000Y86700000D03*
G36*
G01*
X53946000Y85355010D02*
X53946000Y86045010D01*
G75*
G02*
X54176000Y86275010I230000J0D01*
G01*
X55516000Y86275010D01*
G75*
G02*
X55746000Y86045010I0J-230000D01*
G01*
X55746000Y85355010D01*
G75*
G02*
X55516000Y85125010I-230000J0D01*
G01*
X54176000Y85125010D01*
G75*
G02*
X53946000Y85355010I0J230000D01*
G01*
G37*
X54846000Y81800000D03*
G36*
G01*
X53946000Y82454990D02*
X53946000Y83144990D01*
G75*
G02*
X54176000Y83374990I230000J0D01*
G01*
X55516000Y83374990D01*
G75*
G02*
X55746000Y83144990I0J-230000D01*
G01*
X55746000Y82454990D01*
G75*
G02*
X55516000Y82224990I-230000J0D01*
G01*
X54176000Y82224990D01*
G75*
G02*
X53946000Y82454990I0J230000D01*
G01*
G37*
G04 #@! TD*
G04 #@! TO.C,R14*
G36*
G01*
X70949999Y98275000D02*
X70949999Y99525000D01*
G75*
G02*
X71049999Y99625000I100000J0D01*
G01*
X71849999Y99625000D01*
G75*
G02*
X71949999Y99525000I0J-100000D01*
G01*
X71949999Y98275000D01*
G75*
G02*
X71849999Y98175000I-100000J0D01*
G01*
X71049999Y98175000D01*
G75*
G02*
X70949999Y98275000I0J100000D01*
G01*
G37*
X70495000Y98900000D03*
G36*
G01*
X72850021Y98275000D02*
X72850021Y99525000D01*
G75*
G02*
X72950021Y99625000I100000J0D01*
G01*
X73750021Y99625000D01*
G75*
G02*
X73850021Y99525000I0J-100000D01*
G01*
X73850021Y98275000D01*
G75*
G02*
X73750021Y98175000I-100000J0D01*
G01*
X72950021Y98175000D01*
G75*
G02*
X72850021Y98275000I0J100000D01*
G01*
G37*
X74305000Y98900000D03*
G04 #@! TD*
G04 #@! TO.C,D5*
G36*
G01*
X17360000Y73400000D02*
X17840000Y73400000D01*
G75*
G02*
X17900000Y73340000I0J-60000D01*
G01*
X17900000Y72860000D01*
G75*
G02*
X17840000Y72800000I-60000J0D01*
G01*
X17360000Y72800000D01*
G75*
G02*
X17300000Y72860000I0J60000D01*
G01*
X17300000Y73340000D01*
G75*
G02*
X17360000Y73400000I60000J0D01*
G01*
G37*
G36*
G01*
X19560000Y73400000D02*
X20040000Y73400000D01*
G75*
G02*
X20100000Y73340000I0J-60000D01*
G01*
X20100000Y72860000D01*
G75*
G02*
X20040000Y72800000I-60000J0D01*
G01*
X19560000Y72800000D01*
G75*
G02*
X19500000Y72860000I0J60000D01*
G01*
X19500000Y73340000D01*
G75*
G02*
X19560000Y73400000I60000J0D01*
G01*
G37*
G04 #@! TD*
G04 #@! TO.C,F3*
X41100000Y86750000D03*
G36*
G01*
X40200000Y85405010D02*
X40200000Y86095010D01*
G75*
G02*
X40430000Y86325010I230000J0D01*
G01*
X41770000Y86325010D01*
G75*
G02*
X42000000Y86095010I0J-230000D01*
G01*
X42000000Y85405010D01*
G75*
G02*
X41770000Y85175010I-230000J0D01*
G01*
X40430000Y85175010D01*
G75*
G02*
X40200000Y85405010I0J230000D01*
G01*
G37*
X41100000Y81850000D03*
G36*
G01*
X40200000Y82504990D02*
X40200000Y83194990D01*
G75*
G02*
X40430000Y83424990I230000J0D01*
G01*
X41770000Y83424990D01*
G75*
G02*
X42000000Y83194990I0J-230000D01*
G01*
X42000000Y82504990D01*
G75*
G02*
X41770000Y82274990I-230000J0D01*
G01*
X40430000Y82274990D01*
G75*
G02*
X40200000Y82504990I0J230000D01*
G01*
G37*
G04 #@! TD*
G04 #@! TO.C,R40*
G36*
G01*
X31805010Y79100000D02*
X32495010Y79100000D01*
G75*
G02*
X32725010Y78870000I0J-230000D01*
G01*
X32725010Y77530000D01*
G75*
G02*
X32495010Y77300000I-230000J0D01*
G01*
X31805010Y77300000D01*
G75*
G02*
X31575010Y77530000I0J230000D01*
G01*
X31575010Y78870000D01*
G75*
G02*
X31805010Y79100000I230000J0D01*
G01*
G37*
G36*
G01*
X28904990Y79100000D02*
X29594990Y79100000D01*
G75*
G02*
X29824990Y78870000I0J-230000D01*
G01*
X29824990Y77530000D01*
G75*
G02*
X29594990Y77300000I-230000J0D01*
G01*
X28904990Y77300000D01*
G75*
G02*
X28674990Y77530000I0J230000D01*
G01*
X28674990Y78870000D01*
G75*
G02*
X28904990Y79100000I230000J0D01*
G01*
G37*
G04 #@! TD*
G04 #@! TO.C,Q7*
G36*
G01*
X67990000Y86390000D02*
X67030000Y86390000D01*
G75*
G02*
X66910000Y86510000I0J120000D01*
G01*
X66910000Y88470000D01*
G75*
G02*
X67030000Y88590000I120000J0D01*
G01*
X67990000Y88590000D01*
G75*
G02*
X68110000Y88470000I0J-120000D01*
G01*
X68110000Y86510000D01*
G75*
G02*
X67990000Y86390000I-120000J0D01*
G01*
G37*
D16*
X69790000Y93790000D03*
G36*
G01*
X72550000Y86390000D02*
X71590000Y86390000D01*
G75*
G02*
X71470000Y86510000I0J120000D01*
G01*
X71470000Y88470000D01*
G75*
G02*
X71590000Y88590000I120000J0D01*
G01*
X72550000Y88590000D01*
G75*
G02*
X72670000Y88470000I0J-120000D01*
G01*
X72670000Y86510000D01*
G75*
G02*
X72550000Y86390000I-120000J0D01*
G01*
G37*
G04 #@! TD*
G04 #@! TO.C,Q6*
G36*
G01*
X67810000Y71570000D02*
X66850000Y71570000D01*
G75*
G02*
X66730000Y71690000I0J120000D01*
G01*
X66730000Y73650000D01*
G75*
G02*
X66850000Y73770000I120000J0D01*
G01*
X67810000Y73770000D01*
G75*
G02*
X67930000Y73650000I0J-120000D01*
G01*
X67930000Y71690000D01*
G75*
G02*
X67810000Y71570000I-120000J0D01*
G01*
G37*
X69610000Y78970000D03*
G36*
G01*
X72370000Y71570000D02*
X71410000Y71570000D01*
G75*
G02*
X71290000Y71690000I0J120000D01*
G01*
X71290000Y73650000D01*
G75*
G02*
X71410000Y73770000I120000J0D01*
G01*
X72370000Y73770000D01*
G75*
G02*
X72490000Y73650000I0J-120000D01*
G01*
X72490000Y71690000D01*
G75*
G02*
X72370000Y71570000I-120000J0D01*
G01*
G37*
G04 #@! TD*
G04 #@! TO.C,Q21*
G36*
G01*
X22475000Y47500000D02*
X22475000Y47200000D01*
G75*
G02*
X22325000Y47050000I-150000J0D01*
G01*
X21150000Y47050000D01*
G75*
G02*
X21000000Y47200000I0J150000D01*
G01*
X21000000Y47500000D01*
G75*
G02*
X21150000Y47650000I150000J0D01*
G01*
X22325000Y47650000D01*
G75*
G02*
X22475000Y47500000I0J-150000D01*
G01*
G37*
G36*
G01*
X20600000Y48450000D02*
X20600000Y48150000D01*
G75*
G02*
X20450000Y48000000I-150000J0D01*
G01*
X19275000Y48000000D01*
G75*
G02*
X19125000Y48150000I0J150000D01*
G01*
X19125000Y48450000D01*
G75*
G02*
X19275000Y48600000I150000J0D01*
G01*
X20450000Y48600000D01*
G75*
G02*
X20600000Y48450000I0J-150000D01*
G01*
G37*
G36*
G01*
X22475000Y49400000D02*
X22475000Y49100000D01*
G75*
G02*
X22325000Y48950000I-150000J0D01*
G01*
X21150000Y48950000D01*
G75*
G02*
X21000000Y49100000I0J150000D01*
G01*
X21000000Y49400000D01*
G75*
G02*
X21150000Y49550000I150000J0D01*
G01*
X22325000Y49550000D01*
G75*
G02*
X22475000Y49400000I0J-150000D01*
G01*
G37*
G04 #@! TD*
D23*
G04 #@! TO.C,J3*
X84500000Y2100000D03*
G04 #@! TD*
G04 #@! TO.C,D18*
G36*
G01*
X8999998Y89400001D02*
X8099998Y89400001D01*
G75*
G02*
X7999998Y89500001I0J100000D01*
G01*
X7999998Y90300001D01*
G75*
G02*
X8099998Y90400001I100000J0D01*
G01*
X8999998Y90400001D01*
G75*
G02*
X9099998Y90300001I0J-100000D01*
G01*
X9099998Y89500001D01*
G75*
G02*
X8999998Y89400001I-100000J0D01*
G01*
G37*
G36*
G01*
X8999998Y91100001D02*
X8099998Y91100001D01*
G75*
G02*
X7999998Y91200001I0J100000D01*
G01*
X7999998Y92000001D01*
G75*
G02*
X8099998Y92100001I100000J0D01*
G01*
X8999998Y92100001D01*
G75*
G02*
X9099998Y92000001I0J-100000D01*
G01*
X9099998Y91200001D01*
G75*
G02*
X8999998Y91100001I-100000J0D01*
G01*
G37*
G04 #@! TD*
G04 #@! TO.C,D20*
G36*
G01*
X13399998Y99800001D02*
X12499998Y99800001D01*
G75*
G02*
X12399998Y99900001I0J100000D01*
G01*
X12399998Y100700001D01*
G75*
G02*
X12499998Y100800001I100000J0D01*
G01*
X13399998Y100800001D01*
G75*
G02*
X13499998Y100700001I0J-100000D01*
G01*
X13499998Y99900001D01*
G75*
G02*
X13399998Y99800001I-100000J0D01*
G01*
G37*
G36*
G01*
X13399998Y101500001D02*
X12499998Y101500001D01*
G75*
G02*
X12399998Y101600001I0J100000D01*
G01*
X12399998Y102400001D01*
G75*
G02*
X12499998Y102500001I100000J0D01*
G01*
X13399998Y102500001D01*
G75*
G02*
X13499998Y102400001I0J-100000D01*
G01*
X13499998Y101600001D01*
G75*
G02*
X13399998Y101500001I-100000J0D01*
G01*
G37*
G04 #@! TD*
G04 #@! TO.C,D27*
G36*
G01*
X12250000Y38190000D02*
X12250000Y39210000D01*
G75*
G02*
X12340000Y39300000I90000J0D01*
G01*
X13060000Y39300000D01*
G75*
G02*
X13150000Y39210000I0J-90000D01*
G01*
X13150000Y38190000D01*
G75*
G02*
X13060000Y38100000I-90000J0D01*
G01*
X12340000Y38100000D01*
G75*
G02*
X12250000Y38190000I0J90000D01*
G01*
G37*
G36*
G01*
X15550000Y38190000D02*
X15550000Y39210000D01*
G75*
G02*
X15640000Y39300000I90000J0D01*
G01*
X16360000Y39300000D01*
G75*
G02*
X16450000Y39210000I0J-90000D01*
G01*
X16450000Y38190000D01*
G75*
G02*
X16360000Y38100000I-90000J0D01*
G01*
X15640000Y38100000D01*
G75*
G02*
X15550000Y38190000I0J90000D01*
G01*
G37*
G04 #@! TD*
G04 #@! TO.C,R22*
G36*
G01*
X8300000Y69494990D02*
X8300000Y68804990D01*
G75*
G02*
X8070000Y68574990I-230000J0D01*
G01*
X6730000Y68574990D01*
G75*
G02*
X6500000Y68804990I0J230000D01*
G01*
X6500000Y69494990D01*
G75*
G02*
X6730000Y69724990I230000J0D01*
G01*
X8070000Y69724990D01*
G75*
G02*
X8300000Y69494990I0J-230000D01*
G01*
G37*
G36*
G01*
X8300000Y72395010D02*
X8300000Y71705010D01*
G75*
G02*
X8070000Y71475010I-230000J0D01*
G01*
X6730000Y71475010D01*
G75*
G02*
X6500000Y71705010I0J230000D01*
G01*
X6500000Y72395010D01*
G75*
G02*
X6730000Y72625010I230000J0D01*
G01*
X8070000Y72625010D01*
G75*
G02*
X8300000Y72395010I0J-230000D01*
G01*
G37*
G04 #@! TD*
G04 #@! TO.C,R49*
G36*
G01*
X13760000Y48090000D02*
X12980000Y48090000D01*
G75*
G02*
X12910000Y48160000I0J70000D01*
G01*
X12910000Y48720000D01*
G75*
G02*
X12980000Y48790000I70000J0D01*
G01*
X13760000Y48790000D01*
G75*
G02*
X13830000Y48720000I0J-70000D01*
G01*
X13830000Y48160000D01*
G75*
G02*
X13760000Y48090000I-70000J0D01*
G01*
G37*
G36*
G01*
X13760000Y49690000D02*
X12980000Y49690000D01*
G75*
G02*
X12910000Y49760000I0J70000D01*
G01*
X12910000Y50320000D01*
G75*
G02*
X12980000Y50390000I70000J0D01*
G01*
X13760000Y50390000D01*
G75*
G02*
X13830000Y50320000I0J-70000D01*
G01*
X13830000Y49760000D01*
G75*
G02*
X13760000Y49690000I-70000J0D01*
G01*
G37*
G04 #@! TD*
G04 #@! TO.C,R45*
G36*
G01*
X14550000Y51110000D02*
X14550000Y51890000D01*
G75*
G02*
X14620000Y51960000I70000J0D01*
G01*
X15180000Y51960000D01*
G75*
G02*
X15250000Y51890000I0J-70000D01*
G01*
X15250000Y51110000D01*
G75*
G02*
X15180000Y51040000I-70000J0D01*
G01*
X14620000Y51040000D01*
G75*
G02*
X14550000Y51110000I0J70000D01*
G01*
G37*
G36*
G01*
X16150000Y51110000D02*
X16150000Y51890000D01*
G75*
G02*
X16220000Y51960000I70000J0D01*
G01*
X16780000Y51960000D01*
G75*
G02*
X16850000Y51890000I0J-70000D01*
G01*
X16850000Y51110000D01*
G75*
G02*
X16780000Y51040000I-70000J0D01*
G01*
X16220000Y51040000D01*
G75*
G02*
X16150000Y51110000I0J70000D01*
G01*
G37*
G04 #@! TD*
G04 #@! TO.C,R28*
G36*
G01*
X36593000Y13804000D02*
X37263000Y13804000D01*
G75*
G02*
X37328000Y13739000I0J-65000D01*
G01*
X37328000Y13219000D01*
G75*
G02*
X37263000Y13154000I-65000J0D01*
G01*
X36593000Y13154000D01*
G75*
G02*
X36528000Y13219000I0J65000D01*
G01*
X36528000Y13739000D01*
G75*
G02*
X36593000Y13804000I65000J0D01*
G01*
G37*
G36*
G01*
X36573000Y12829000D02*
X37283000Y12829000D01*
G75*
G02*
X37328000Y12784000I0J-45000D01*
G01*
X37328000Y12424000D01*
G75*
G02*
X37283000Y12379000I-45000J0D01*
G01*
X36573000Y12379000D01*
G75*
G02*
X36528000Y12424000I0J45000D01*
G01*
X36528000Y12784000D01*
G75*
G02*
X36573000Y12829000I45000J0D01*
G01*
G37*
G36*
G01*
X36573000Y12029000D02*
X37283000Y12029000D01*
G75*
G02*
X37328000Y11984000I0J-45000D01*
G01*
X37328000Y11624000D01*
G75*
G02*
X37283000Y11579000I-45000J0D01*
G01*
X36573000Y11579000D01*
G75*
G02*
X36528000Y11624000I0J45000D01*
G01*
X36528000Y11984000D01*
G75*
G02*
X36573000Y12029000I45000J0D01*
G01*
G37*
G36*
G01*
X36593000Y11254000D02*
X37263000Y11254000D01*
G75*
G02*
X37328000Y11189000I0J-65000D01*
G01*
X37328000Y10669000D01*
G75*
G02*
X37263000Y10604000I-65000J0D01*
G01*
X36593000Y10604000D01*
G75*
G02*
X36528000Y10669000I0J65000D01*
G01*
X36528000Y11189000D01*
G75*
G02*
X36593000Y11254000I65000J0D01*
G01*
G37*
G36*
G01*
X38393000Y11254000D02*
X39063000Y11254000D01*
G75*
G02*
X39128000Y11189000I0J-65000D01*
G01*
X39128000Y10669000D01*
G75*
G02*
X39063000Y10604000I-65000J0D01*
G01*
X38393000Y10604000D01*
G75*
G02*
X38328000Y10669000I0J65000D01*
G01*
X38328000Y11189000D01*
G75*
G02*
X38393000Y11254000I65000J0D01*
G01*
G37*
G36*
G01*
X38373000Y12029000D02*
X39083000Y12029000D01*
G75*
G02*
X39128000Y11984000I0J-45000D01*
G01*
X39128000Y11624000D01*
G75*
G02*
X39083000Y11579000I-45000J0D01*
G01*
X38373000Y11579000D01*
G75*
G02*
X38328000Y11624000I0J45000D01*
G01*
X38328000Y11984000D01*
G75*
G02*
X38373000Y12029000I45000J0D01*
G01*
G37*
G36*
G01*
X38373000Y12829000D02*
X39083000Y12829000D01*
G75*
G02*
X39128000Y12784000I0J-45000D01*
G01*
X39128000Y12424000D01*
G75*
G02*
X39083000Y12379000I-45000J0D01*
G01*
X38373000Y12379000D01*
G75*
G02*
X38328000Y12424000I0J45000D01*
G01*
X38328000Y12784000D01*
G75*
G02*
X38373000Y12829000I45000J0D01*
G01*
G37*
G36*
G01*
X38393000Y13804000D02*
X39063000Y13804000D01*
G75*
G02*
X39128000Y13739000I0J-65000D01*
G01*
X39128000Y13219000D01*
G75*
G02*
X39063000Y13154000I-65000J0D01*
G01*
X38393000Y13154000D01*
G75*
G02*
X38328000Y13219000I0J65000D01*
G01*
X38328000Y13739000D01*
G75*
G02*
X38393000Y13804000I65000J0D01*
G01*
G37*
G04 #@! TD*
G04 #@! TO.C,R26*
G36*
G01*
X16735000Y47200000D02*
X16065000Y47200000D01*
G75*
G02*
X16000000Y47265000I0J65000D01*
G01*
X16000000Y47785000D01*
G75*
G02*
X16065000Y47850000I65000J0D01*
G01*
X16735000Y47850000D01*
G75*
G02*
X16800000Y47785000I0J-65000D01*
G01*
X16800000Y47265000D01*
G75*
G02*
X16735000Y47200000I-65000J0D01*
G01*
G37*
G36*
G01*
X16755000Y48175000D02*
X16045000Y48175000D01*
G75*
G02*
X16000000Y48220000I0J45000D01*
G01*
X16000000Y48580000D01*
G75*
G02*
X16045000Y48625000I45000J0D01*
G01*
X16755000Y48625000D01*
G75*
G02*
X16800000Y48580000I0J-45000D01*
G01*
X16800000Y48220000D01*
G75*
G02*
X16755000Y48175000I-45000J0D01*
G01*
G37*
G36*
G01*
X16755000Y48975000D02*
X16045000Y48975000D01*
G75*
G02*
X16000000Y49020000I0J45000D01*
G01*
X16000000Y49380000D01*
G75*
G02*
X16045000Y49425000I45000J0D01*
G01*
X16755000Y49425000D01*
G75*
G02*
X16800000Y49380000I0J-45000D01*
G01*
X16800000Y49020000D01*
G75*
G02*
X16755000Y48975000I-45000J0D01*
G01*
G37*
G36*
G01*
X16735000Y49750000D02*
X16065000Y49750000D01*
G75*
G02*
X16000000Y49815000I0J65000D01*
G01*
X16000000Y50335000D01*
G75*
G02*
X16065000Y50400000I65000J0D01*
G01*
X16735000Y50400000D01*
G75*
G02*
X16800000Y50335000I0J-65000D01*
G01*
X16800000Y49815000D01*
G75*
G02*
X16735000Y49750000I-65000J0D01*
G01*
G37*
G36*
G01*
X14935000Y49750000D02*
X14265000Y49750000D01*
G75*
G02*
X14200000Y49815000I0J65000D01*
G01*
X14200000Y50335000D01*
G75*
G02*
X14265000Y50400000I65000J0D01*
G01*
X14935000Y50400000D01*
G75*
G02*
X15000000Y50335000I0J-65000D01*
G01*
X15000000Y49815000D01*
G75*
G02*
X14935000Y49750000I-65000J0D01*
G01*
G37*
G36*
G01*
X14955000Y48975000D02*
X14245000Y48975000D01*
G75*
G02*
X14200000Y49020000I0J45000D01*
G01*
X14200000Y49380000D01*
G75*
G02*
X14245000Y49425000I45000J0D01*
G01*
X14955000Y49425000D01*
G75*
G02*
X15000000Y49380000I0J-45000D01*
G01*
X15000000Y49020000D01*
G75*
G02*
X14955000Y48975000I-45000J0D01*
G01*
G37*
G36*
G01*
X14955000Y48175000D02*
X14245000Y48175000D01*
G75*
G02*
X14200000Y48220000I0J45000D01*
G01*
X14200000Y48580000D01*
G75*
G02*
X14245000Y48625000I45000J0D01*
G01*
X14955000Y48625000D01*
G75*
G02*
X15000000Y48580000I0J-45000D01*
G01*
X15000000Y48220000D01*
G75*
G02*
X14955000Y48175000I-45000J0D01*
G01*
G37*
G36*
G01*
X14935000Y47200000D02*
X14265000Y47200000D01*
G75*
G02*
X14200000Y47265000I0J65000D01*
G01*
X14200000Y47785000D01*
G75*
G02*
X14265000Y47850000I65000J0D01*
G01*
X14935000Y47850000D01*
G75*
G02*
X15000000Y47785000I0J-65000D01*
G01*
X15000000Y47265000D01*
G75*
G02*
X14935000Y47200000I-65000J0D01*
G01*
G37*
G04 #@! TD*
G04 #@! TO.C,R25*
G36*
G01*
X10970000Y34245000D02*
X10970000Y34915000D01*
G75*
G02*
X11035000Y34980000I65000J0D01*
G01*
X11555000Y34980000D01*
G75*
G02*
X11620000Y34915000I0J-65000D01*
G01*
X11620000Y34245000D01*
G75*
G02*
X11555000Y34180000I-65000J0D01*
G01*
X11035000Y34180000D01*
G75*
G02*
X10970000Y34245000I0J65000D01*
G01*
G37*
G36*
G01*
X11945000Y34225000D02*
X11945000Y34935000D01*
G75*
G02*
X11990000Y34980000I45000J0D01*
G01*
X12350000Y34980000D01*
G75*
G02*
X12395000Y34935000I0J-45000D01*
G01*
X12395000Y34225000D01*
G75*
G02*
X12350000Y34180000I-45000J0D01*
G01*
X11990000Y34180000D01*
G75*
G02*
X11945000Y34225000I0J45000D01*
G01*
G37*
G36*
G01*
X12745000Y34225000D02*
X12745000Y34935000D01*
G75*
G02*
X12790000Y34980000I45000J0D01*
G01*
X13150000Y34980000D01*
G75*
G02*
X13195000Y34935000I0J-45000D01*
G01*
X13195000Y34225000D01*
G75*
G02*
X13150000Y34180000I-45000J0D01*
G01*
X12790000Y34180000D01*
G75*
G02*
X12745000Y34225000I0J45000D01*
G01*
G37*
G36*
G01*
X13520000Y34245000D02*
X13520000Y34915000D01*
G75*
G02*
X13585000Y34980000I65000J0D01*
G01*
X14105000Y34980000D01*
G75*
G02*
X14170000Y34915000I0J-65000D01*
G01*
X14170000Y34245000D01*
G75*
G02*
X14105000Y34180000I-65000J0D01*
G01*
X13585000Y34180000D01*
G75*
G02*
X13520000Y34245000I0J65000D01*
G01*
G37*
G36*
G01*
X13520000Y36045000D02*
X13520000Y36715000D01*
G75*
G02*
X13585000Y36780000I65000J0D01*
G01*
X14105000Y36780000D01*
G75*
G02*
X14170000Y36715000I0J-65000D01*
G01*
X14170000Y36045000D01*
G75*
G02*
X14105000Y35980000I-65000J0D01*
G01*
X13585000Y35980000D01*
G75*
G02*
X13520000Y36045000I0J65000D01*
G01*
G37*
G36*
G01*
X12745000Y36025000D02*
X12745000Y36735000D01*
G75*
G02*
X12790000Y36780000I45000J0D01*
G01*
X13150000Y36780000D01*
G75*
G02*
X13195000Y36735000I0J-45000D01*
G01*
X13195000Y36025000D01*
G75*
G02*
X13150000Y35980000I-45000J0D01*
G01*
X12790000Y35980000D01*
G75*
G02*
X12745000Y36025000I0J45000D01*
G01*
G37*
G36*
G01*
X11945000Y36025000D02*
X11945000Y36735000D01*
G75*
G02*
X11990000Y36780000I45000J0D01*
G01*
X12350000Y36780000D01*
G75*
G02*
X12395000Y36735000I0J-45000D01*
G01*
X12395000Y36025000D01*
G75*
G02*
X12350000Y35980000I-45000J0D01*
G01*
X11990000Y35980000D01*
G75*
G02*
X11945000Y36025000I0J45000D01*
G01*
G37*
G36*
G01*
X10970000Y36045000D02*
X10970000Y36715000D01*
G75*
G02*
X11035000Y36780000I65000J0D01*
G01*
X11555000Y36780000D01*
G75*
G02*
X11620000Y36715000I0J-65000D01*
G01*
X11620000Y36045000D01*
G75*
G02*
X11555000Y35980000I-65000J0D01*
G01*
X11035000Y35980000D01*
G75*
G02*
X10970000Y36045000I0J65000D01*
G01*
G37*
G04 #@! TD*
G04 #@! TO.C,R37*
G36*
G01*
X11550000Y64994990D02*
X11550000Y64304990D01*
G75*
G02*
X11320000Y64074990I-230000J0D01*
G01*
X9980000Y64074990D01*
G75*
G02*
X9750000Y64304990I0J230000D01*
G01*
X9750000Y64994990D01*
G75*
G02*
X9980000Y65224990I230000J0D01*
G01*
X11320000Y65224990D01*
G75*
G02*
X11550000Y64994990I0J-230000D01*
G01*
G37*
G36*
G01*
X11550000Y67895010D02*
X11550000Y67205010D01*
G75*
G02*
X11320000Y66975010I-230000J0D01*
G01*
X9980000Y66975010D01*
G75*
G02*
X9750000Y67205010I0J230000D01*
G01*
X9750000Y67895010D01*
G75*
G02*
X9980000Y68125010I230000J0D01*
G01*
X11320000Y68125010D01*
G75*
G02*
X11550000Y67895010I0J-230000D01*
G01*
G37*
G04 #@! TD*
G04 #@! TO.C,R27*
G36*
G01*
X18344000Y40015000D02*
X18344000Y40685000D01*
G75*
G02*
X18409000Y40750000I65000J0D01*
G01*
X18929000Y40750000D01*
G75*
G02*
X18994000Y40685000I0J-65000D01*
G01*
X18994000Y40015000D01*
G75*
G02*
X18929000Y39950000I-65000J0D01*
G01*
X18409000Y39950000D01*
G75*
G02*
X18344000Y40015000I0J65000D01*
G01*
G37*
G36*
G01*
X19319000Y39995000D02*
X19319000Y40705000D01*
G75*
G02*
X19364000Y40750000I45000J0D01*
G01*
X19724000Y40750000D01*
G75*
G02*
X19769000Y40705000I0J-45000D01*
G01*
X19769000Y39995000D01*
G75*
G02*
X19724000Y39950000I-45000J0D01*
G01*
X19364000Y39950000D01*
G75*
G02*
X19319000Y39995000I0J45000D01*
G01*
G37*
G36*
G01*
X20119000Y39995000D02*
X20119000Y40705000D01*
G75*
G02*
X20164000Y40750000I45000J0D01*
G01*
X20524000Y40750000D01*
G75*
G02*
X20569000Y40705000I0J-45000D01*
G01*
X20569000Y39995000D01*
G75*
G02*
X20524000Y39950000I-45000J0D01*
G01*
X20164000Y39950000D01*
G75*
G02*
X20119000Y39995000I0J45000D01*
G01*
G37*
G36*
G01*
X20894000Y40015000D02*
X20894000Y40685000D01*
G75*
G02*
X20959000Y40750000I65000J0D01*
G01*
X21479000Y40750000D01*
G75*
G02*
X21544000Y40685000I0J-65000D01*
G01*
X21544000Y40015000D01*
G75*
G02*
X21479000Y39950000I-65000J0D01*
G01*
X20959000Y39950000D01*
G75*
G02*
X20894000Y40015000I0J65000D01*
G01*
G37*
G36*
G01*
X20894000Y41815000D02*
X20894000Y42485000D01*
G75*
G02*
X20959000Y42550000I65000J0D01*
G01*
X21479000Y42550000D01*
G75*
G02*
X21544000Y42485000I0J-65000D01*
G01*
X21544000Y41815000D01*
G75*
G02*
X21479000Y41750000I-65000J0D01*
G01*
X20959000Y41750000D01*
G75*
G02*
X20894000Y41815000I0J65000D01*
G01*
G37*
G36*
G01*
X20119000Y41795000D02*
X20119000Y42505000D01*
G75*
G02*
X20164000Y42550000I45000J0D01*
G01*
X20524000Y42550000D01*
G75*
G02*
X20569000Y42505000I0J-45000D01*
G01*
X20569000Y41795000D01*
G75*
G02*
X20524000Y41750000I-45000J0D01*
G01*
X20164000Y41750000D01*
G75*
G02*
X20119000Y41795000I0J45000D01*
G01*
G37*
G36*
G01*
X19319000Y41795000D02*
X19319000Y42505000D01*
G75*
G02*
X19364000Y42550000I45000J0D01*
G01*
X19724000Y42550000D01*
G75*
G02*
X19769000Y42505000I0J-45000D01*
G01*
X19769000Y41795000D01*
G75*
G02*
X19724000Y41750000I-45000J0D01*
G01*
X19364000Y41750000D01*
G75*
G02*
X19319000Y41795000I0J45000D01*
G01*
G37*
G36*
G01*
X18344000Y41815000D02*
X18344000Y42485000D01*
G75*
G02*
X18409000Y42550000I65000J0D01*
G01*
X18929000Y42550000D01*
G75*
G02*
X18994000Y42485000I0J-65000D01*
G01*
X18994000Y41815000D01*
G75*
G02*
X18929000Y41750000I-65000J0D01*
G01*
X18409000Y41750000D01*
G75*
G02*
X18344000Y41815000I0J65000D01*
G01*
G37*
G04 #@! TD*
G04 #@! TO.C,Q10*
G36*
G01*
X13600000Y40725000D02*
X13300000Y40725000D01*
G75*
G02*
X13150000Y40875000I0J150000D01*
G01*
X13150000Y42050000D01*
G75*
G02*
X13300000Y42200000I150000J0D01*
G01*
X13600000Y42200000D01*
G75*
G02*
X13750000Y42050000I0J-150000D01*
G01*
X13750000Y40875000D01*
G75*
G02*
X13600000Y40725000I-150000J0D01*
G01*
G37*
G36*
G01*
X14550000Y42600000D02*
X14250000Y42600000D01*
G75*
G02*
X14100000Y42750000I0J150000D01*
G01*
X14100000Y43925000D01*
G75*
G02*
X14250000Y44075000I150000J0D01*
G01*
X14550000Y44075000D01*
G75*
G02*
X14700000Y43925000I0J-150000D01*
G01*
X14700000Y42750000D01*
G75*
G02*
X14550000Y42600000I-150000J0D01*
G01*
G37*
G36*
G01*
X15500000Y40725000D02*
X15200000Y40725000D01*
G75*
G02*
X15050000Y40875000I0J150000D01*
G01*
X15050000Y42050000D01*
G75*
G02*
X15200000Y42200000I150000J0D01*
G01*
X15500000Y42200000D01*
G75*
G02*
X15650000Y42050000I0J-150000D01*
G01*
X15650000Y40875000D01*
G75*
G02*
X15500000Y40725000I-150000J0D01*
G01*
G37*
G04 #@! TD*
G04 #@! TO.C,D24*
G36*
G01*
X5550000Y37465000D02*
X6570000Y37465000D01*
G75*
G02*
X6660000Y37375000I0J-90000D01*
G01*
X6660000Y36655000D01*
G75*
G02*
X6570000Y36565000I-90000J0D01*
G01*
X5550000Y36565000D01*
G75*
G02*
X5460000Y36655000I0J90000D01*
G01*
X5460000Y37375000D01*
G75*
G02*
X5550000Y37465000I90000J0D01*
G01*
G37*
G36*
G01*
X5550000Y34165000D02*
X6570000Y34165000D01*
G75*
G02*
X6660000Y34075000I0J-90000D01*
G01*
X6660000Y33355000D01*
G75*
G02*
X6570000Y33265000I-90000J0D01*
G01*
X5550000Y33265000D01*
G75*
G02*
X5460000Y33355000I0J90000D01*
G01*
X5460000Y34075000D01*
G75*
G02*
X5550000Y34165000I90000J0D01*
G01*
G37*
G04 #@! TD*
G04 #@! TO.C,R15*
G36*
G01*
X57757000Y83349999D02*
X56507000Y83349999D01*
G75*
G02*
X56407000Y83449999I0J100000D01*
G01*
X56407000Y84249999D01*
G75*
G02*
X56507000Y84349999I100000J0D01*
G01*
X57757000Y84349999D01*
G75*
G02*
X57857000Y84249999I0J-100000D01*
G01*
X57857000Y83449999D01*
G75*
G02*
X57757000Y83349999I-100000J0D01*
G01*
G37*
D11*
X57132000Y82895000D03*
G36*
G01*
X57757000Y85250021D02*
X56507000Y85250021D01*
G75*
G02*
X56407000Y85350021I0J100000D01*
G01*
X56407000Y86150021D01*
G75*
G02*
X56507000Y86250021I100000J0D01*
G01*
X57757000Y86250021D01*
G75*
G02*
X57857000Y86150021I0J-100000D01*
G01*
X57857000Y85350021D01*
G75*
G02*
X57757000Y85250021I-100000J0D01*
G01*
G37*
X57132000Y86705000D03*
G04 #@! TD*
G04 #@! TO.C,D4*
G36*
G01*
X17561499Y81587497D02*
X18041499Y81587497D01*
G75*
G02*
X18101499Y81527497I0J-60000D01*
G01*
X18101499Y81047497D01*
G75*
G02*
X18041499Y80987497I-60000J0D01*
G01*
X17561499Y80987497D01*
G75*
G02*
X17501499Y81047497I0J60000D01*
G01*
X17501499Y81527497D01*
G75*
G02*
X17561499Y81587497I60000J0D01*
G01*
G37*
G36*
G01*
X19761499Y81587497D02*
X20241499Y81587497D01*
G75*
G02*
X20301499Y81527497I0J-60000D01*
G01*
X20301499Y81047497D01*
G75*
G02*
X20241499Y80987497I-60000J0D01*
G01*
X19761499Y80987497D01*
G75*
G02*
X19701499Y81047497I0J60000D01*
G01*
X19701499Y81527497D01*
G75*
G02*
X19761499Y81587497I60000J0D01*
G01*
G37*
G04 #@! TD*
G04 #@! TO.C,R42*
G36*
G01*
X17900000Y49760000D02*
X17900000Y50540000D01*
G75*
G02*
X17970000Y50610000I70000J0D01*
G01*
X18530000Y50610000D01*
G75*
G02*
X18600000Y50540000I0J-70000D01*
G01*
X18600000Y49760000D01*
G75*
G02*
X18530000Y49690000I-70000J0D01*
G01*
X17970000Y49690000D01*
G75*
G02*
X17900000Y49760000I0J70000D01*
G01*
G37*
G36*
G01*
X19500000Y49760000D02*
X19500000Y50540000D01*
G75*
G02*
X19570000Y50610000I70000J0D01*
G01*
X20130000Y50610000D01*
G75*
G02*
X20200000Y50540000I0J-70000D01*
G01*
X20200000Y49760000D01*
G75*
G02*
X20130000Y49690000I-70000J0D01*
G01*
X19570000Y49690000D01*
G75*
G02*
X19500000Y49760000I0J70000D01*
G01*
G37*
G04 #@! TD*
G04 #@! TO.C,D7*
G36*
G01*
X19638502Y86212502D02*
X19158502Y86212502D01*
G75*
G02*
X19098502Y86272502I0J60000D01*
G01*
X19098502Y86752502D01*
G75*
G02*
X19158502Y86812502I60000J0D01*
G01*
X19638502Y86812502D01*
G75*
G02*
X19698502Y86752502I0J-60000D01*
G01*
X19698502Y86272502D01*
G75*
G02*
X19638502Y86212502I-60000J0D01*
G01*
G37*
G36*
G01*
X17438502Y86212502D02*
X16958502Y86212502D01*
G75*
G02*
X16898502Y86272502I0J60000D01*
G01*
X16898502Y86752502D01*
G75*
G02*
X16958502Y86812502I60000J0D01*
G01*
X17438502Y86812502D01*
G75*
G02*
X17498502Y86752502I0J-60000D01*
G01*
X17498502Y86272502D01*
G75*
G02*
X17438502Y86212502I-60000J0D01*
G01*
G37*
G04 #@! TD*
G04 #@! TO.C,Q11*
G36*
G01*
X15375000Y36300000D02*
X15375000Y36600000D01*
G75*
G02*
X15525000Y36750000I150000J0D01*
G01*
X16700000Y36750000D01*
G75*
G02*
X16850000Y36600000I0J-150000D01*
G01*
X16850000Y36300000D01*
G75*
G02*
X16700000Y36150000I-150000J0D01*
G01*
X15525000Y36150000D01*
G75*
G02*
X15375000Y36300000I0J150000D01*
G01*
G37*
G36*
G01*
X17250000Y35350000D02*
X17250000Y35650000D01*
G75*
G02*
X17400000Y35800000I150000J0D01*
G01*
X18575000Y35800000D01*
G75*
G02*
X18725000Y35650000I0J-150000D01*
G01*
X18725000Y35350000D01*
G75*
G02*
X18575000Y35200000I-150000J0D01*
G01*
X17400000Y35200000D01*
G75*
G02*
X17250000Y35350000I0J150000D01*
G01*
G37*
G36*
G01*
X15375000Y34400000D02*
X15375000Y34700000D01*
G75*
G02*
X15525000Y34850000I150000J0D01*
G01*
X16700000Y34850000D01*
G75*
G02*
X16850000Y34700000I0J-150000D01*
G01*
X16850000Y34400000D01*
G75*
G02*
X16700000Y34250000I-150000J0D01*
G01*
X15525000Y34250000D01*
G75*
G02*
X15375000Y34400000I0J150000D01*
G01*
G37*
G04 #@! TD*
G04 #@! TO.C,R39*
G36*
G01*
X19302000Y33802000D02*
X19302000Y34582000D01*
G75*
G02*
X19372000Y34652000I70000J0D01*
G01*
X19932000Y34652000D01*
G75*
G02*
X20002000Y34582000I0J-70000D01*
G01*
X20002000Y33802000D01*
G75*
G02*
X19932000Y33732000I-70000J0D01*
G01*
X19372000Y33732000D01*
G75*
G02*
X19302000Y33802000I0J70000D01*
G01*
G37*
G36*
G01*
X20902000Y33802000D02*
X20902000Y34582000D01*
G75*
G02*
X20972000Y34652000I70000J0D01*
G01*
X21532000Y34652000D01*
G75*
G02*
X21602000Y34582000I0J-70000D01*
G01*
X21602000Y33802000D01*
G75*
G02*
X21532000Y33732000I-70000J0D01*
G01*
X20972000Y33732000D01*
G75*
G02*
X20902000Y33802000I0J70000D01*
G01*
G37*
G04 #@! TD*
G04 #@! TO.C,R1*
G36*
G01*
X20100000Y85135000D02*
X20100000Y84465000D01*
G75*
G02*
X20035000Y84400000I-65000J0D01*
G01*
X19515000Y84400000D01*
G75*
G02*
X19450000Y84465000I0J65000D01*
G01*
X19450000Y85135000D01*
G75*
G02*
X19515000Y85200000I65000J0D01*
G01*
X20035000Y85200000D01*
G75*
G02*
X20100000Y85135000I0J-65000D01*
G01*
G37*
G36*
G01*
X19125000Y85155000D02*
X19125000Y84445000D01*
G75*
G02*
X19080000Y84400000I-45000J0D01*
G01*
X18720000Y84400000D01*
G75*
G02*
X18675000Y84445000I0J45000D01*
G01*
X18675000Y85155000D01*
G75*
G02*
X18720000Y85200000I45000J0D01*
G01*
X19080000Y85200000D01*
G75*
G02*
X19125000Y85155000I0J-45000D01*
G01*
G37*
G36*
G01*
X18325000Y85155000D02*
X18325000Y84445000D01*
G75*
G02*
X18280000Y84400000I-45000J0D01*
G01*
X17920000Y84400000D01*
G75*
G02*
X17875000Y84445000I0J45000D01*
G01*
X17875000Y85155000D01*
G75*
G02*
X17920000Y85200000I45000J0D01*
G01*
X18280000Y85200000D01*
G75*
G02*
X18325000Y85155000I0J-45000D01*
G01*
G37*
G36*
G01*
X17550000Y85135000D02*
X17550000Y84465000D01*
G75*
G02*
X17485000Y84400000I-65000J0D01*
G01*
X16965000Y84400000D01*
G75*
G02*
X16900000Y84465000I0J65000D01*
G01*
X16900000Y85135000D01*
G75*
G02*
X16965000Y85200000I65000J0D01*
G01*
X17485000Y85200000D01*
G75*
G02*
X17550000Y85135000I0J-65000D01*
G01*
G37*
G36*
G01*
X17550000Y83335000D02*
X17550000Y82665000D01*
G75*
G02*
X17485000Y82600000I-65000J0D01*
G01*
X16965000Y82600000D01*
G75*
G02*
X16900000Y82665000I0J65000D01*
G01*
X16900000Y83335000D01*
G75*
G02*
X16965000Y83400000I65000J0D01*
G01*
X17485000Y83400000D01*
G75*
G02*
X17550000Y83335000I0J-65000D01*
G01*
G37*
G36*
G01*
X18325000Y83355000D02*
X18325000Y82645000D01*
G75*
G02*
X18280000Y82600000I-45000J0D01*
G01*
X17920000Y82600000D01*
G75*
G02*
X17875000Y82645000I0J45000D01*
G01*
X17875000Y83355000D01*
G75*
G02*
X17920000Y83400000I45000J0D01*
G01*
X18280000Y83400000D01*
G75*
G02*
X18325000Y83355000I0J-45000D01*
G01*
G37*
G36*
G01*
X19125000Y83355000D02*
X19125000Y82645000D01*
G75*
G02*
X19080000Y82600000I-45000J0D01*
G01*
X18720000Y82600000D01*
G75*
G02*
X18675000Y82645000I0J45000D01*
G01*
X18675000Y83355000D01*
G75*
G02*
X18720000Y83400000I45000J0D01*
G01*
X19080000Y83400000D01*
G75*
G02*
X19125000Y83355000I0J-45000D01*
G01*
G37*
G36*
G01*
X20100000Y83335000D02*
X20100000Y82665000D01*
G75*
G02*
X20035000Y82600000I-65000J0D01*
G01*
X19515000Y82600000D01*
G75*
G02*
X19450000Y82665000I0J65000D01*
G01*
X19450000Y83335000D01*
G75*
G02*
X19515000Y83400000I65000J0D01*
G01*
X20035000Y83400000D01*
G75*
G02*
X20100000Y83335000I0J-65000D01*
G01*
G37*
G04 #@! TD*
G04 #@! TO.C,D25*
G36*
G01*
X77910000Y97600000D02*
X76890000Y97600000D01*
G75*
G02*
X76800000Y97690000I0J90000D01*
G01*
X76800000Y98410000D01*
G75*
G02*
X76890000Y98500000I90000J0D01*
G01*
X77910000Y98500000D01*
G75*
G02*
X78000000Y98410000I0J-90000D01*
G01*
X78000000Y97690000D01*
G75*
G02*
X77910000Y97600000I-90000J0D01*
G01*
G37*
G36*
G01*
X77910000Y100900000D02*
X76890000Y100900000D01*
G75*
G02*
X76800000Y100990000I0J90000D01*
G01*
X76800000Y101710000D01*
G75*
G02*
X76890000Y101800000I90000J0D01*
G01*
X77910000Y101800000D01*
G75*
G02*
X78000000Y101710000I0J-90000D01*
G01*
X78000000Y100990000D01*
G75*
G02*
X77910000Y100900000I-90000J0D01*
G01*
G37*
G04 #@! TD*
G04 #@! TO.C,R7*
G36*
G01*
X59789000Y83349999D02*
X58539000Y83349999D01*
G75*
G02*
X58439000Y83449999I0J100000D01*
G01*
X58439000Y84249999D01*
G75*
G02*
X58539000Y84349999I100000J0D01*
G01*
X59789000Y84349999D01*
G75*
G02*
X59889000Y84249999I0J-100000D01*
G01*
X59889000Y83449999D01*
G75*
G02*
X59789000Y83349999I-100000J0D01*
G01*
G37*
X59164000Y82895000D03*
G36*
G01*
X59789000Y85250021D02*
X58539000Y85250021D01*
G75*
G02*
X58439000Y85350021I0J100000D01*
G01*
X58439000Y86150021D01*
G75*
G02*
X58539000Y86250021I100000J0D01*
G01*
X59789000Y86250021D01*
G75*
G02*
X59889000Y86150021I0J-100000D01*
G01*
X59889000Y85350021D01*
G75*
G02*
X59789000Y85250021I-100000J0D01*
G01*
G37*
X59164000Y86705000D03*
G04 #@! TD*
G04 #@! TO.C,R13*
X74305000Y101000000D03*
G36*
G01*
X73850001Y101625000D02*
X73850001Y100375000D01*
G75*
G02*
X73750001Y100275000I-100000J0D01*
G01*
X72950001Y100275000D01*
G75*
G02*
X72850001Y100375000I0J100000D01*
G01*
X72850001Y101625000D01*
G75*
G02*
X72950001Y101725000I100000J0D01*
G01*
X73750001Y101725000D01*
G75*
G02*
X73850001Y101625000I0J-100000D01*
G01*
G37*
X70495000Y101000000D03*
G36*
G01*
X71949979Y101625000D02*
X71949979Y100375000D01*
G75*
G02*
X71849979Y100275000I-100000J0D01*
G01*
X71049979Y100275000D01*
G75*
G02*
X70949979Y100375000I0J100000D01*
G01*
X70949979Y101625000D01*
G75*
G02*
X71049979Y101725000I100000J0D01*
G01*
X71849979Y101725000D01*
G75*
G02*
X71949979Y101625000I0J-100000D01*
G01*
G37*
G04 #@! TD*
G04 #@! TO.C,R20*
X61196000Y82943000D03*
G36*
G01*
X61821000Y83397999D02*
X60571000Y83397999D01*
G75*
G02*
X60471000Y83497999I0J100000D01*
G01*
X60471000Y84297999D01*
G75*
G02*
X60571000Y84397999I100000J0D01*
G01*
X61821000Y84397999D01*
G75*
G02*
X61921000Y84297999I0J-100000D01*
G01*
X61921000Y83497999D01*
G75*
G02*
X61821000Y83397999I-100000J0D01*
G01*
G37*
X61196000Y86753000D03*
G36*
G01*
X61821000Y85298021D02*
X60571000Y85298021D01*
G75*
G02*
X60471000Y85398021I0J100000D01*
G01*
X60471000Y86198021D01*
G75*
G02*
X60571000Y86298021I100000J0D01*
G01*
X61821000Y86298021D01*
G75*
G02*
X61921000Y86198021I0J-100000D01*
G01*
X61921000Y85398021D01*
G75*
G02*
X61821000Y85298021I-100000J0D01*
G01*
G37*
G04 #@! TD*
D24*
G04 #@! TO.C,P1*
X63400000Y98599000D03*
X23600000Y98599000D03*
D25*
X30750000Y92599000D03*
X34750000Y92599000D03*
X38250000Y92599000D03*
X41750000Y92599000D03*
X45250000Y92599000D03*
X48750000Y92599000D03*
X52250000Y92599000D03*
X56250000Y92599000D03*
X30750000Y96599000D03*
X34750000Y96599000D03*
X38250000Y96599000D03*
X41750000Y96599000D03*
X45250000Y96599000D03*
X48750000Y96599000D03*
X52250000Y96599000D03*
X56250000Y96599000D03*
X30750000Y100599000D03*
X34750000Y100599000D03*
X38250000Y100599000D03*
X41750000Y100599000D03*
X45250000Y100599000D03*
X48750000Y100599000D03*
X52250000Y100599000D03*
X56250000Y100599000D03*
G04 #@! TD*
G04 #@! TO.C,C2*
G36*
G01*
X75834999Y13460000D02*
X75834999Y14140000D01*
G75*
G02*
X75919999Y14225000I85000J0D01*
G01*
X76599999Y14225000D01*
G75*
G02*
X76684999Y14140000I0J-85000D01*
G01*
X76684999Y13460000D01*
G75*
G02*
X76599999Y13375000I-85000J0D01*
G01*
X75919999Y13375000D01*
G75*
G02*
X75834999Y13460000I0J85000D01*
G01*
G37*
G36*
G01*
X77415001Y13460000D02*
X77415001Y14140000D01*
G75*
G02*
X77500001Y14225000I85000J0D01*
G01*
X78180001Y14225000D01*
G75*
G02*
X78265001Y14140000I0J-85000D01*
G01*
X78265001Y13460000D01*
G75*
G02*
X78180001Y13375000I-85000J0D01*
G01*
X77500001Y13375000D01*
G75*
G02*
X77415001Y13460000I0J85000D01*
G01*
G37*
G04 #@! TD*
D11*
G04 #@! TO.C,R12*
X27200000Y82895000D03*
G36*
G01*
X27825000Y83349999D02*
X26575000Y83349999D01*
G75*
G02*
X26475000Y83449999I0J100000D01*
G01*
X26475000Y84249999D01*
G75*
G02*
X26575000Y84349999I100000J0D01*
G01*
X27825000Y84349999D01*
G75*
G02*
X27925000Y84249999I0J-100000D01*
G01*
X27925000Y83449999D01*
G75*
G02*
X27825000Y83349999I-100000J0D01*
G01*
G37*
X27200000Y86705000D03*
G36*
G01*
X27825000Y85250021D02*
X26575000Y85250021D01*
G75*
G02*
X26475000Y85350021I0J100000D01*
G01*
X26475000Y86150021D01*
G75*
G02*
X26575000Y86250021I100000J0D01*
G01*
X27825000Y86250021D01*
G75*
G02*
X27925000Y86150021I0J-100000D01*
G01*
X27925000Y85350021D01*
G75*
G02*
X27825000Y85250021I-100000J0D01*
G01*
G37*
G04 #@! TD*
G04 #@! TO.C,R44*
G36*
G01*
X14550000Y52510000D02*
X14550000Y53290000D01*
G75*
G02*
X14620000Y53360000I70000J0D01*
G01*
X15180000Y53360000D01*
G75*
G02*
X15250000Y53290000I0J-70000D01*
G01*
X15250000Y52510000D01*
G75*
G02*
X15180000Y52440000I-70000J0D01*
G01*
X14620000Y52440000D01*
G75*
G02*
X14550000Y52510000I0J70000D01*
G01*
G37*
G36*
G01*
X16150000Y52510000D02*
X16150000Y53290000D01*
G75*
G02*
X16220000Y53360000I70000J0D01*
G01*
X16780000Y53360000D01*
G75*
G02*
X16850000Y53290000I0J-70000D01*
G01*
X16850000Y52510000D01*
G75*
G02*
X16780000Y52440000I-70000J0D01*
G01*
X16220000Y52440000D01*
G75*
G02*
X16150000Y52510000I0J70000D01*
G01*
G37*
G04 #@! TD*
G04 #@! TO.C,R18*
X34500000Y82895000D03*
G36*
G01*
X35125000Y83349999D02*
X33875000Y83349999D01*
G75*
G02*
X33775000Y83449999I0J100000D01*
G01*
X33775000Y84249999D01*
G75*
G02*
X33875000Y84349999I100000J0D01*
G01*
X35125000Y84349999D01*
G75*
G02*
X35225000Y84249999I0J-100000D01*
G01*
X35225000Y83449999D01*
G75*
G02*
X35125000Y83349999I-100000J0D01*
G01*
G37*
G36*
G01*
X35125000Y85250021D02*
X33875000Y85250021D01*
G75*
G02*
X33775000Y85350021I0J100000D01*
G01*
X33775000Y86150021D01*
G75*
G02*
X33875000Y86250021I100000J0D01*
G01*
X35125000Y86250021D01*
G75*
G02*
X35225000Y86150021I0J-100000D01*
G01*
X35225000Y85350021D01*
G75*
G02*
X35125000Y85250021I-100000J0D01*
G01*
G37*
X34500000Y86705000D03*
G04 #@! TD*
D12*
G04 #@! TO.C,P4*
X60400000Y4800000D03*
G04 #@! TD*
G04 #@! TO.C,D13*
G36*
G01*
X8999998Y73800001D02*
X8099998Y73800001D01*
G75*
G02*
X7999998Y73900001I0J100000D01*
G01*
X7999998Y74700001D01*
G75*
G02*
X8099998Y74800001I100000J0D01*
G01*
X8999998Y74800001D01*
G75*
G02*
X9099998Y74700001I0J-100000D01*
G01*
X9099998Y73900001D01*
G75*
G02*
X8999998Y73800001I-100000J0D01*
G01*
G37*
G36*
G01*
X8999998Y75500001D02*
X8099998Y75500001D01*
G75*
G02*
X7999998Y75600001I0J100000D01*
G01*
X7999998Y76400001D01*
G75*
G02*
X8099998Y76500001I100000J0D01*
G01*
X8999998Y76500001D01*
G75*
G02*
X9099998Y76400001I0J-100000D01*
G01*
X9099998Y75600001D01*
G75*
G02*
X8999998Y75500001I-100000J0D01*
G01*
G37*
G04 #@! TD*
G04 #@! TO.C,Q9*
G36*
G01*
X76490000Y71690000D02*
X75530000Y71690000D01*
G75*
G02*
X75410000Y71810000I0J120000D01*
G01*
X75410000Y73770000D01*
G75*
G02*
X75530000Y73890000I120000J0D01*
G01*
X76490000Y73890000D01*
G75*
G02*
X76610000Y73770000I0J-120000D01*
G01*
X76610000Y71810000D01*
G75*
G02*
X76490000Y71690000I-120000J0D01*
G01*
G37*
D16*
X78290000Y79090000D03*
G36*
G01*
X81050000Y71690000D02*
X80090000Y71690000D01*
G75*
G02*
X79970000Y71810000I0J120000D01*
G01*
X79970000Y73770000D01*
G75*
G02*
X80090000Y73890000I120000J0D01*
G01*
X81050000Y73890000D01*
G75*
G02*
X81170000Y73770000I0J-120000D01*
G01*
X81170000Y71810000D01*
G75*
G02*
X81050000Y71690000I-120000J0D01*
G01*
G37*
G04 #@! TD*
D26*
G04 #@! TO.C,J2*
X51058607Y3050000D03*
X51058607Y6950000D03*
X52328607Y3050000D03*
X52328607Y6950000D03*
X53598607Y3050000D03*
X53598607Y6950000D03*
X54868607Y3050000D03*
X54868607Y6950000D03*
X56138607Y3050000D03*
X56138607Y6950000D03*
G04 #@! TD*
G04 #@! TO.C,F5*
G36*
G01*
X31400000Y85305010D02*
X31400000Y85995010D01*
G75*
G02*
X31630000Y86225010I230000J0D01*
G01*
X32970000Y86225010D01*
G75*
G02*
X33200000Y85995010I0J-230000D01*
G01*
X33200000Y85305010D01*
G75*
G02*
X32970000Y85075010I-230000J0D01*
G01*
X31630000Y85075010D01*
G75*
G02*
X31400000Y85305010I0J230000D01*
G01*
G37*
D11*
X32300000Y86650000D03*
X32300000Y81750000D03*
G36*
G01*
X31400000Y82404990D02*
X31400000Y83094990D01*
G75*
G02*
X31630000Y83324990I230000J0D01*
G01*
X32970000Y83324990D01*
G75*
G02*
X33200000Y83094990I0J-230000D01*
G01*
X33200000Y82404990D01*
G75*
G02*
X32970000Y82174990I-230000J0D01*
G01*
X31630000Y82174990D01*
G75*
G02*
X31400000Y82404990I0J230000D01*
G01*
G37*
G04 #@! TD*
G04 #@! TO.C,F2*
G36*
G01*
X51152000Y85405010D02*
X51152000Y86095010D01*
G75*
G02*
X51382000Y86325010I230000J0D01*
G01*
X52722000Y86325010D01*
G75*
G02*
X52952000Y86095010I0J-230000D01*
G01*
X52952000Y85405010D01*
G75*
G02*
X52722000Y85175010I-230000J0D01*
G01*
X51382000Y85175010D01*
G75*
G02*
X51152000Y85405010I0J230000D01*
G01*
G37*
X52052000Y86750000D03*
X52052000Y81850000D03*
G36*
G01*
X51152000Y82504990D02*
X51152000Y83194990D01*
G75*
G02*
X51382000Y83424990I230000J0D01*
G01*
X52722000Y83424990D01*
G75*
G02*
X52952000Y83194990I0J-230000D01*
G01*
X52952000Y82504990D01*
G75*
G02*
X52722000Y82274990I-230000J0D01*
G01*
X51382000Y82274990D01*
G75*
G02*
X51152000Y82504990I0J230000D01*
G01*
G37*
G04 #@! TD*
D12*
G04 #@! TO.C,J8*
X66600000Y62300000D03*
G04 #@! TD*
G04 #@! TO.C,J7*
X61000000Y62300000D03*
G04 #@! TD*
M02*
