G04 #@! TF.GenerationSoftware,KiCad,Pcbnew,7.0.1*
G04 #@! TF.CreationDate,2023-06-10T23:22:58+03:00*
G04 #@! TF.ProjectId,alphax_2ch,616c7068-6178-45f3-9263-682e6b696361,F*
G04 #@! TF.SameCoordinates,PX141f5e0PYa2cace0*
G04 #@! TF.FileFunction,AssemblyDrawing,Top*
%FSLAX46Y46*%
G04 Gerber Fmt 4.6, Leading zero omitted, Abs format (unit mm)*
G04 Created by KiCad (PCBNEW 7.0.1) date 2023-06-10 23:22:58*
%MOMM*%
%LPD*%
G01*
G04 APERTURE LIST*
%ADD10C,0.050000*%
%ADD11C,0.150000*%
%ADD12C,0.170000*%
%ADD13C,0.100000*%
%ADD14C,0.127000*%
%ADD15C,0.200000*%
G04 APERTURE END LIST*
D10*
G04 #@! TO.C,Q3*
X12759523Y29731486D02*
X12729047Y29746724D01*
X12729047Y29746724D02*
X12698571Y29777200D01*
X12698571Y29777200D02*
X12652857Y29822915D01*
X12652857Y29822915D02*
X12622380Y29838153D01*
X12622380Y29838153D02*
X12591904Y29838153D01*
X12607142Y29761962D02*
X12576666Y29777200D01*
X12576666Y29777200D02*
X12546190Y29807677D01*
X12546190Y29807677D02*
X12530952Y29868629D01*
X12530952Y29868629D02*
X12530952Y29975296D01*
X12530952Y29975296D02*
X12546190Y30036248D01*
X12546190Y30036248D02*
X12576666Y30066724D01*
X12576666Y30066724D02*
X12607142Y30081962D01*
X12607142Y30081962D02*
X12668095Y30081962D01*
X12668095Y30081962D02*
X12698571Y30066724D01*
X12698571Y30066724D02*
X12729047Y30036248D01*
X12729047Y30036248D02*
X12744285Y29975296D01*
X12744285Y29975296D02*
X12744285Y29868629D01*
X12744285Y29868629D02*
X12729047Y29807677D01*
X12729047Y29807677D02*
X12698571Y29777200D01*
X12698571Y29777200D02*
X12668095Y29761962D01*
X12668095Y29761962D02*
X12607142Y29761962D01*
X12850952Y30081962D02*
X13049047Y30081962D01*
X13049047Y30081962D02*
X12942380Y29960058D01*
X12942380Y29960058D02*
X12988095Y29960058D01*
X12988095Y29960058D02*
X13018571Y29944820D01*
X13018571Y29944820D02*
X13033809Y29929581D01*
X13033809Y29929581D02*
X13049047Y29899105D01*
X13049047Y29899105D02*
X13049047Y29822915D01*
X13049047Y29822915D02*
X13033809Y29792439D01*
X13033809Y29792439D02*
X13018571Y29777200D01*
X13018571Y29777200D02*
X12988095Y29761962D01*
X12988095Y29761962D02*
X12896666Y29761962D01*
X12896666Y29761962D02*
X12866190Y29777200D01*
X12866190Y29777200D02*
X12850952Y29792439D01*
G04 #@! TO.C,Q13*
X47317142Y77421486D02*
X47286666Y77436724D01*
X47286666Y77436724D02*
X47256190Y77467200D01*
X47256190Y77467200D02*
X47210476Y77512915D01*
X47210476Y77512915D02*
X47179999Y77528153D01*
X47179999Y77528153D02*
X47149523Y77528153D01*
X47164761Y77451962D02*
X47134285Y77467200D01*
X47134285Y77467200D02*
X47103809Y77497677D01*
X47103809Y77497677D02*
X47088571Y77558629D01*
X47088571Y77558629D02*
X47088571Y77665296D01*
X47088571Y77665296D02*
X47103809Y77726248D01*
X47103809Y77726248D02*
X47134285Y77756724D01*
X47134285Y77756724D02*
X47164761Y77771962D01*
X47164761Y77771962D02*
X47225714Y77771962D01*
X47225714Y77771962D02*
X47256190Y77756724D01*
X47256190Y77756724D02*
X47286666Y77726248D01*
X47286666Y77726248D02*
X47301904Y77665296D01*
X47301904Y77665296D02*
X47301904Y77558629D01*
X47301904Y77558629D02*
X47286666Y77497677D01*
X47286666Y77497677D02*
X47256190Y77467200D01*
X47256190Y77467200D02*
X47225714Y77451962D01*
X47225714Y77451962D02*
X47164761Y77451962D01*
X47606666Y77451962D02*
X47423809Y77451962D01*
X47515237Y77451962D02*
X47515237Y77771962D01*
X47515237Y77771962D02*
X47484761Y77726248D01*
X47484761Y77726248D02*
X47454285Y77695772D01*
X47454285Y77695772D02*
X47423809Y77680534D01*
X47713333Y77771962D02*
X47911428Y77771962D01*
X47911428Y77771962D02*
X47804761Y77650058D01*
X47804761Y77650058D02*
X47850476Y77650058D01*
X47850476Y77650058D02*
X47880952Y77634820D01*
X47880952Y77634820D02*
X47896190Y77619581D01*
X47896190Y77619581D02*
X47911428Y77589105D01*
X47911428Y77589105D02*
X47911428Y77512915D01*
X47911428Y77512915D02*
X47896190Y77482439D01*
X47896190Y77482439D02*
X47880952Y77467200D01*
X47880952Y77467200D02*
X47850476Y77451962D01*
X47850476Y77451962D02*
X47759047Y77451962D01*
X47759047Y77451962D02*
X47728571Y77467200D01*
X47728571Y77467200D02*
X47713333Y77482439D01*
D11*
G04 #@! TO.C,J5*
X28166666Y16837381D02*
X28166666Y16123096D01*
X28166666Y16123096D02*
X28119047Y15980239D01*
X28119047Y15980239D02*
X28023809Y15885000D01*
X28023809Y15885000D02*
X27880952Y15837381D01*
X27880952Y15837381D02*
X27785714Y15837381D01*
X29119047Y16837381D02*
X28642857Y16837381D01*
X28642857Y16837381D02*
X28595238Y16361191D01*
X28595238Y16361191D02*
X28642857Y16408810D01*
X28642857Y16408810D02*
X28738095Y16456429D01*
X28738095Y16456429D02*
X28976190Y16456429D01*
X28976190Y16456429D02*
X29071428Y16408810D01*
X29071428Y16408810D02*
X29119047Y16361191D01*
X29119047Y16361191D02*
X29166666Y16265953D01*
X29166666Y16265953D02*
X29166666Y16027858D01*
X29166666Y16027858D02*
X29119047Y15932620D01*
X29119047Y15932620D02*
X29071428Y15885000D01*
X29071428Y15885000D02*
X28976190Y15837381D01*
X28976190Y15837381D02*
X28738095Y15837381D01*
X28738095Y15837381D02*
X28642857Y15885000D01*
X28642857Y15885000D02*
X28595238Y15932620D01*
G04 #@! TO.C,J6*
X26466666Y4452381D02*
X26466666Y3738096D01*
X26466666Y3738096D02*
X26419047Y3595239D01*
X26419047Y3595239D02*
X26323809Y3500000D01*
X26323809Y3500000D02*
X26180952Y3452381D01*
X26180952Y3452381D02*
X26085714Y3452381D01*
X27371428Y4452381D02*
X27180952Y4452381D01*
X27180952Y4452381D02*
X27085714Y4404762D01*
X27085714Y4404762D02*
X27038095Y4357143D01*
X27038095Y4357143D02*
X26942857Y4214286D01*
X26942857Y4214286D02*
X26895238Y4023810D01*
X26895238Y4023810D02*
X26895238Y3642858D01*
X26895238Y3642858D02*
X26942857Y3547620D01*
X26942857Y3547620D02*
X26990476Y3500000D01*
X26990476Y3500000D02*
X27085714Y3452381D01*
X27085714Y3452381D02*
X27276190Y3452381D01*
X27276190Y3452381D02*
X27371428Y3500000D01*
X27371428Y3500000D02*
X27419047Y3547620D01*
X27419047Y3547620D02*
X27466666Y3642858D01*
X27466666Y3642858D02*
X27466666Y3880953D01*
X27466666Y3880953D02*
X27419047Y3976191D01*
X27419047Y3976191D02*
X27371428Y4023810D01*
X27371428Y4023810D02*
X27276190Y4071429D01*
X27276190Y4071429D02*
X27085714Y4071429D01*
X27085714Y4071429D02*
X26990476Y4023810D01*
X26990476Y4023810D02*
X26942857Y3976191D01*
X26942857Y3976191D02*
X26895238Y3880953D01*
D10*
G04 #@! TO.C,Q1*
X8932023Y35321486D02*
X8901547Y35336724D01*
X8901547Y35336724D02*
X8871071Y35367200D01*
X8871071Y35367200D02*
X8825357Y35412915D01*
X8825357Y35412915D02*
X8794880Y35428153D01*
X8794880Y35428153D02*
X8764404Y35428153D01*
X8779642Y35351962D02*
X8749166Y35367200D01*
X8749166Y35367200D02*
X8718690Y35397677D01*
X8718690Y35397677D02*
X8703452Y35458629D01*
X8703452Y35458629D02*
X8703452Y35565296D01*
X8703452Y35565296D02*
X8718690Y35626248D01*
X8718690Y35626248D02*
X8749166Y35656724D01*
X8749166Y35656724D02*
X8779642Y35671962D01*
X8779642Y35671962D02*
X8840595Y35671962D01*
X8840595Y35671962D02*
X8871071Y35656724D01*
X8871071Y35656724D02*
X8901547Y35626248D01*
X8901547Y35626248D02*
X8916785Y35565296D01*
X8916785Y35565296D02*
X8916785Y35458629D01*
X8916785Y35458629D02*
X8901547Y35397677D01*
X8901547Y35397677D02*
X8871071Y35367200D01*
X8871071Y35367200D02*
X8840595Y35351962D01*
X8840595Y35351962D02*
X8779642Y35351962D01*
X9221547Y35351962D02*
X9038690Y35351962D01*
X9130118Y35351962D02*
X9130118Y35671962D01*
X9130118Y35671962D02*
X9099642Y35626248D01*
X9099642Y35626248D02*
X9069166Y35595772D01*
X9069166Y35595772D02*
X9038690Y35580534D01*
D11*
G04 #@! TO.C,J1*
X62847619Y64566667D02*
X63561904Y64566667D01*
X63561904Y64566667D02*
X63704761Y64519048D01*
X63704761Y64519048D02*
X63800000Y64423810D01*
X63800000Y64423810D02*
X63847619Y64280953D01*
X63847619Y64280953D02*
X63847619Y64185715D01*
X63847619Y65566667D02*
X63847619Y64995239D01*
X63847619Y65280953D02*
X62847619Y65280953D01*
X62847619Y65280953D02*
X62990476Y65185715D01*
X62990476Y65185715D02*
X63085714Y65090477D01*
X63085714Y65090477D02*
X63133333Y64995239D01*
D10*
G04 #@! TO.C,Q4*
X7678514Y52669524D02*
X7663276Y52639048D01*
X7663276Y52639048D02*
X7632800Y52608572D01*
X7632800Y52608572D02*
X7587085Y52562858D01*
X7587085Y52562858D02*
X7571847Y52532381D01*
X7571847Y52532381D02*
X7571847Y52501905D01*
X7648038Y52517143D02*
X7632800Y52486667D01*
X7632800Y52486667D02*
X7602323Y52456191D01*
X7602323Y52456191D02*
X7541371Y52440953D01*
X7541371Y52440953D02*
X7434704Y52440953D01*
X7434704Y52440953D02*
X7373752Y52456191D01*
X7373752Y52456191D02*
X7343276Y52486667D01*
X7343276Y52486667D02*
X7328038Y52517143D01*
X7328038Y52517143D02*
X7328038Y52578096D01*
X7328038Y52578096D02*
X7343276Y52608572D01*
X7343276Y52608572D02*
X7373752Y52639048D01*
X7373752Y52639048D02*
X7434704Y52654286D01*
X7434704Y52654286D02*
X7541371Y52654286D01*
X7541371Y52654286D02*
X7602323Y52639048D01*
X7602323Y52639048D02*
X7632800Y52608572D01*
X7632800Y52608572D02*
X7648038Y52578096D01*
X7648038Y52578096D02*
X7648038Y52517143D01*
X7434704Y52928572D02*
X7648038Y52928572D01*
X7312800Y52852381D02*
X7541371Y52776191D01*
X7541371Y52776191D02*
X7541371Y52974286D01*
G04 #@! TO.C,Q15*
X11178514Y52517143D02*
X11163276Y52486667D01*
X11163276Y52486667D02*
X11132800Y52456191D01*
X11132800Y52456191D02*
X11087085Y52410477D01*
X11087085Y52410477D02*
X11071847Y52380000D01*
X11071847Y52380000D02*
X11071847Y52349524D01*
X11148038Y52364762D02*
X11132800Y52334286D01*
X11132800Y52334286D02*
X11102323Y52303810D01*
X11102323Y52303810D02*
X11041371Y52288572D01*
X11041371Y52288572D02*
X10934704Y52288572D01*
X10934704Y52288572D02*
X10873752Y52303810D01*
X10873752Y52303810D02*
X10843276Y52334286D01*
X10843276Y52334286D02*
X10828038Y52364762D01*
X10828038Y52364762D02*
X10828038Y52425715D01*
X10828038Y52425715D02*
X10843276Y52456191D01*
X10843276Y52456191D02*
X10873752Y52486667D01*
X10873752Y52486667D02*
X10934704Y52501905D01*
X10934704Y52501905D02*
X11041371Y52501905D01*
X11041371Y52501905D02*
X11102323Y52486667D01*
X11102323Y52486667D02*
X11132800Y52456191D01*
X11132800Y52456191D02*
X11148038Y52425715D01*
X11148038Y52425715D02*
X11148038Y52364762D01*
X11148038Y52806667D02*
X11148038Y52623810D01*
X11148038Y52715238D02*
X10828038Y52715238D01*
X10828038Y52715238D02*
X10873752Y52684762D01*
X10873752Y52684762D02*
X10904228Y52654286D01*
X10904228Y52654286D02*
X10919466Y52623810D01*
X10828038Y53096191D02*
X10828038Y52943810D01*
X10828038Y52943810D02*
X10980419Y52928572D01*
X10980419Y52928572D02*
X10965180Y52943810D01*
X10965180Y52943810D02*
X10949942Y52974286D01*
X10949942Y52974286D02*
X10949942Y53050477D01*
X10949942Y53050477D02*
X10965180Y53080953D01*
X10965180Y53080953D02*
X10980419Y53096191D01*
X10980419Y53096191D02*
X11010895Y53111429D01*
X11010895Y53111429D02*
X11087085Y53111429D01*
X11087085Y53111429D02*
X11117561Y53096191D01*
X11117561Y53096191D02*
X11132800Y53080953D01*
X11132800Y53080953D02*
X11148038Y53050477D01*
X11148038Y53050477D02*
X11148038Y52974286D01*
X11148038Y52974286D02*
X11132800Y52943810D01*
X11132800Y52943810D02*
X11117561Y52928572D01*
D12*
G04 #@! TO.C,D26*
X8579348Y34369287D02*
X7759348Y34369287D01*
X7759348Y34369287D02*
X7759348Y34564525D01*
X7759348Y34564525D02*
X7798396Y34681668D01*
X7798396Y34681668D02*
X7876491Y34759763D01*
X7876491Y34759763D02*
X7954586Y34798810D01*
X7954586Y34798810D02*
X8110777Y34837858D01*
X8110777Y34837858D02*
X8227920Y34837858D01*
X8227920Y34837858D02*
X8384110Y34798810D01*
X8384110Y34798810D02*
X8462205Y34759763D01*
X8462205Y34759763D02*
X8540301Y34681668D01*
X8540301Y34681668D02*
X8579348Y34564525D01*
X8579348Y34564525D02*
X8579348Y34369287D01*
X7837443Y35150239D02*
X7798396Y35189287D01*
X7798396Y35189287D02*
X7759348Y35267382D01*
X7759348Y35267382D02*
X7759348Y35462620D01*
X7759348Y35462620D02*
X7798396Y35540715D01*
X7798396Y35540715D02*
X7837443Y35579763D01*
X7837443Y35579763D02*
X7915539Y35618810D01*
X7915539Y35618810D02*
X7993634Y35618810D01*
X7993634Y35618810D02*
X8110777Y35579763D01*
X8110777Y35579763D02*
X8579348Y35111191D01*
X8579348Y35111191D02*
X8579348Y35618810D01*
X7759348Y36321667D02*
X7759348Y36165477D01*
X7759348Y36165477D02*
X7798396Y36087381D01*
X7798396Y36087381D02*
X7837443Y36048334D01*
X7837443Y36048334D02*
X7954586Y35970239D01*
X7954586Y35970239D02*
X8110777Y35931191D01*
X8110777Y35931191D02*
X8423158Y35931191D01*
X8423158Y35931191D02*
X8501253Y35970239D01*
X8501253Y35970239D02*
X8540301Y36009286D01*
X8540301Y36009286D02*
X8579348Y36087381D01*
X8579348Y36087381D02*
X8579348Y36243572D01*
X8579348Y36243572D02*
X8540301Y36321667D01*
X8540301Y36321667D02*
X8501253Y36360715D01*
X8501253Y36360715D02*
X8423158Y36399762D01*
X8423158Y36399762D02*
X8227920Y36399762D01*
X8227920Y36399762D02*
X8149824Y36360715D01*
X8149824Y36360715D02*
X8110777Y36321667D01*
X8110777Y36321667D02*
X8071729Y36243572D01*
X8071729Y36243572D02*
X8071729Y36087381D01*
X8071729Y36087381D02*
X8110777Y36009286D01*
X8110777Y36009286D02*
X8149824Y35970239D01*
X8149824Y35970239D02*
X8227920Y35931191D01*
D10*
G04 #@! TO.C,Q22*
X20617142Y51521486D02*
X20586666Y51536724D01*
X20586666Y51536724D02*
X20556190Y51567200D01*
X20556190Y51567200D02*
X20510476Y51612915D01*
X20510476Y51612915D02*
X20479999Y51628153D01*
X20479999Y51628153D02*
X20449523Y51628153D01*
X20464761Y51551962D02*
X20434285Y51567200D01*
X20434285Y51567200D02*
X20403809Y51597677D01*
X20403809Y51597677D02*
X20388571Y51658629D01*
X20388571Y51658629D02*
X20388571Y51765296D01*
X20388571Y51765296D02*
X20403809Y51826248D01*
X20403809Y51826248D02*
X20434285Y51856724D01*
X20434285Y51856724D02*
X20464761Y51871962D01*
X20464761Y51871962D02*
X20525714Y51871962D01*
X20525714Y51871962D02*
X20556190Y51856724D01*
X20556190Y51856724D02*
X20586666Y51826248D01*
X20586666Y51826248D02*
X20601904Y51765296D01*
X20601904Y51765296D02*
X20601904Y51658629D01*
X20601904Y51658629D02*
X20586666Y51597677D01*
X20586666Y51597677D02*
X20556190Y51567200D01*
X20556190Y51567200D02*
X20525714Y51551962D01*
X20525714Y51551962D02*
X20464761Y51551962D01*
X20723809Y51841486D02*
X20739047Y51856724D01*
X20739047Y51856724D02*
X20769523Y51871962D01*
X20769523Y51871962D02*
X20845714Y51871962D01*
X20845714Y51871962D02*
X20876190Y51856724D01*
X20876190Y51856724D02*
X20891428Y51841486D01*
X20891428Y51841486D02*
X20906666Y51811010D01*
X20906666Y51811010D02*
X20906666Y51780534D01*
X20906666Y51780534D02*
X20891428Y51734820D01*
X20891428Y51734820D02*
X20708571Y51551962D01*
X20708571Y51551962D02*
X20906666Y51551962D01*
X21028571Y51841486D02*
X21043809Y51856724D01*
X21043809Y51856724D02*
X21074285Y51871962D01*
X21074285Y51871962D02*
X21150476Y51871962D01*
X21150476Y51871962D02*
X21180952Y51856724D01*
X21180952Y51856724D02*
X21196190Y51841486D01*
X21196190Y51841486D02*
X21211428Y51811010D01*
X21211428Y51811010D02*
X21211428Y51780534D01*
X21211428Y51780534D02*
X21196190Y51734820D01*
X21196190Y51734820D02*
X21013333Y51551962D01*
X21013333Y51551962D02*
X21211428Y51551962D01*
G04 #@! TO.C,Q14*
X52779642Y75921486D02*
X52749166Y75936724D01*
X52749166Y75936724D02*
X52718690Y75967200D01*
X52718690Y75967200D02*
X52672976Y76012915D01*
X52672976Y76012915D02*
X52642499Y76028153D01*
X52642499Y76028153D02*
X52612023Y76028153D01*
X52627261Y75951962D02*
X52596785Y75967200D01*
X52596785Y75967200D02*
X52566309Y75997677D01*
X52566309Y75997677D02*
X52551071Y76058629D01*
X52551071Y76058629D02*
X52551071Y76165296D01*
X52551071Y76165296D02*
X52566309Y76226248D01*
X52566309Y76226248D02*
X52596785Y76256724D01*
X52596785Y76256724D02*
X52627261Y76271962D01*
X52627261Y76271962D02*
X52688214Y76271962D01*
X52688214Y76271962D02*
X52718690Y76256724D01*
X52718690Y76256724D02*
X52749166Y76226248D01*
X52749166Y76226248D02*
X52764404Y76165296D01*
X52764404Y76165296D02*
X52764404Y76058629D01*
X52764404Y76058629D02*
X52749166Y75997677D01*
X52749166Y75997677D02*
X52718690Y75967200D01*
X52718690Y75967200D02*
X52688214Y75951962D01*
X52688214Y75951962D02*
X52627261Y75951962D01*
X53069166Y75951962D02*
X52886309Y75951962D01*
X52977737Y75951962D02*
X52977737Y76271962D01*
X52977737Y76271962D02*
X52947261Y76226248D01*
X52947261Y76226248D02*
X52916785Y76195772D01*
X52916785Y76195772D02*
X52886309Y76180534D01*
X53343452Y76165296D02*
X53343452Y75951962D01*
X53267261Y76287200D02*
X53191071Y76058629D01*
X53191071Y76058629D02*
X53389166Y76058629D01*
D12*
G04 #@! TO.C,D19*
X75779348Y98704287D02*
X74959348Y98704287D01*
X74959348Y98704287D02*
X74959348Y98899525D01*
X74959348Y98899525D02*
X74998396Y99016668D01*
X74998396Y99016668D02*
X75076491Y99094763D01*
X75076491Y99094763D02*
X75154586Y99133810D01*
X75154586Y99133810D02*
X75310777Y99172858D01*
X75310777Y99172858D02*
X75427920Y99172858D01*
X75427920Y99172858D02*
X75584110Y99133810D01*
X75584110Y99133810D02*
X75662205Y99094763D01*
X75662205Y99094763D02*
X75740301Y99016668D01*
X75740301Y99016668D02*
X75779348Y98899525D01*
X75779348Y98899525D02*
X75779348Y98704287D01*
X75779348Y99953810D02*
X75779348Y99485239D01*
X75779348Y99719525D02*
X74959348Y99719525D01*
X74959348Y99719525D02*
X75076491Y99641429D01*
X75076491Y99641429D02*
X75154586Y99563334D01*
X75154586Y99563334D02*
X75193634Y99485239D01*
X75779348Y100344286D02*
X75779348Y100500477D01*
X75779348Y100500477D02*
X75740301Y100578572D01*
X75740301Y100578572D02*
X75701253Y100617620D01*
X75701253Y100617620D02*
X75584110Y100695715D01*
X75584110Y100695715D02*
X75427920Y100734762D01*
X75427920Y100734762D02*
X75115539Y100734762D01*
X75115539Y100734762D02*
X75037443Y100695715D01*
X75037443Y100695715D02*
X74998396Y100656667D01*
X74998396Y100656667D02*
X74959348Y100578572D01*
X74959348Y100578572D02*
X74959348Y100422381D01*
X74959348Y100422381D02*
X74998396Y100344286D01*
X74998396Y100344286D02*
X75037443Y100305239D01*
X75037443Y100305239D02*
X75115539Y100266191D01*
X75115539Y100266191D02*
X75310777Y100266191D01*
X75310777Y100266191D02*
X75388872Y100305239D01*
X75388872Y100305239D02*
X75427920Y100344286D01*
X75427920Y100344286D02*
X75466967Y100422381D01*
X75466967Y100422381D02*
X75466967Y100578572D01*
X75466967Y100578572D02*
X75427920Y100656667D01*
X75427920Y100656667D02*
X75388872Y100695715D01*
X75388872Y100695715D02*
X75310777Y100734762D01*
D10*
G04 #@! TO.C,Q17*
X12378514Y46117143D02*
X12363276Y46086667D01*
X12363276Y46086667D02*
X12332800Y46056191D01*
X12332800Y46056191D02*
X12287085Y46010477D01*
X12287085Y46010477D02*
X12271847Y45980000D01*
X12271847Y45980000D02*
X12271847Y45949524D01*
X12348038Y45964762D02*
X12332800Y45934286D01*
X12332800Y45934286D02*
X12302323Y45903810D01*
X12302323Y45903810D02*
X12241371Y45888572D01*
X12241371Y45888572D02*
X12134704Y45888572D01*
X12134704Y45888572D02*
X12073752Y45903810D01*
X12073752Y45903810D02*
X12043276Y45934286D01*
X12043276Y45934286D02*
X12028038Y45964762D01*
X12028038Y45964762D02*
X12028038Y46025715D01*
X12028038Y46025715D02*
X12043276Y46056191D01*
X12043276Y46056191D02*
X12073752Y46086667D01*
X12073752Y46086667D02*
X12134704Y46101905D01*
X12134704Y46101905D02*
X12241371Y46101905D01*
X12241371Y46101905D02*
X12302323Y46086667D01*
X12302323Y46086667D02*
X12332800Y46056191D01*
X12332800Y46056191D02*
X12348038Y46025715D01*
X12348038Y46025715D02*
X12348038Y45964762D01*
X12348038Y46406667D02*
X12348038Y46223810D01*
X12348038Y46315238D02*
X12028038Y46315238D01*
X12028038Y46315238D02*
X12073752Y46284762D01*
X12073752Y46284762D02*
X12104228Y46254286D01*
X12104228Y46254286D02*
X12119466Y46223810D01*
X12028038Y46513334D02*
X12028038Y46726667D01*
X12028038Y46726667D02*
X12348038Y46589524D01*
D11*
G04 #@! TO.C,Q20*
X78757857Y91128572D02*
X78710238Y91033334D01*
X78710238Y91033334D02*
X78615000Y90938096D01*
X78615000Y90938096D02*
X78472142Y90795239D01*
X78472142Y90795239D02*
X78424523Y90700001D01*
X78424523Y90700001D02*
X78424523Y90604763D01*
X78662619Y90652382D02*
X78615000Y90557144D01*
X78615000Y90557144D02*
X78519761Y90461906D01*
X78519761Y90461906D02*
X78329285Y90414287D01*
X78329285Y90414287D02*
X77995952Y90414287D01*
X77995952Y90414287D02*
X77805476Y90461906D01*
X77805476Y90461906D02*
X77710238Y90557144D01*
X77710238Y90557144D02*
X77662619Y90652382D01*
X77662619Y90652382D02*
X77662619Y90842858D01*
X77662619Y90842858D02*
X77710238Y90938096D01*
X77710238Y90938096D02*
X77805476Y91033334D01*
X77805476Y91033334D02*
X77995952Y91080953D01*
X77995952Y91080953D02*
X78329285Y91080953D01*
X78329285Y91080953D02*
X78519761Y91033334D01*
X78519761Y91033334D02*
X78615000Y90938096D01*
X78615000Y90938096D02*
X78662619Y90842858D01*
X78662619Y90842858D02*
X78662619Y90652382D01*
X77757857Y91461906D02*
X77710238Y91509525D01*
X77710238Y91509525D02*
X77662619Y91604763D01*
X77662619Y91604763D02*
X77662619Y91842858D01*
X77662619Y91842858D02*
X77710238Y91938096D01*
X77710238Y91938096D02*
X77757857Y91985715D01*
X77757857Y91985715D02*
X77853095Y92033334D01*
X77853095Y92033334D02*
X77948333Y92033334D01*
X77948333Y92033334D02*
X78091190Y91985715D01*
X78091190Y91985715D02*
X78662619Y91414287D01*
X78662619Y91414287D02*
X78662619Y92033334D01*
X77662619Y92652382D02*
X77662619Y92747620D01*
X77662619Y92747620D02*
X77710238Y92842858D01*
X77710238Y92842858D02*
X77757857Y92890477D01*
X77757857Y92890477D02*
X77853095Y92938096D01*
X77853095Y92938096D02*
X78043571Y92985715D01*
X78043571Y92985715D02*
X78281666Y92985715D01*
X78281666Y92985715D02*
X78472142Y92938096D01*
X78472142Y92938096D02*
X78567380Y92890477D01*
X78567380Y92890477D02*
X78615000Y92842858D01*
X78615000Y92842858D02*
X78662619Y92747620D01*
X78662619Y92747620D02*
X78662619Y92652382D01*
X78662619Y92652382D02*
X78615000Y92557144D01*
X78615000Y92557144D02*
X78567380Y92509525D01*
X78567380Y92509525D02*
X78472142Y92461906D01*
X78472142Y92461906D02*
X78281666Y92414287D01*
X78281666Y92414287D02*
X78043571Y92414287D01*
X78043571Y92414287D02*
X77853095Y92461906D01*
X77853095Y92461906D02*
X77757857Y92509525D01*
X77757857Y92509525D02*
X77710238Y92557144D01*
X77710238Y92557144D02*
X77662619Y92652382D01*
D12*
G04 #@! TO.C,D23*
X13354286Y40320652D02*
X13354286Y41140652D01*
X13354286Y41140652D02*
X13549524Y41140652D01*
X13549524Y41140652D02*
X13666667Y41101604D01*
X13666667Y41101604D02*
X13744762Y41023509D01*
X13744762Y41023509D02*
X13783809Y40945414D01*
X13783809Y40945414D02*
X13822857Y40789223D01*
X13822857Y40789223D02*
X13822857Y40672080D01*
X13822857Y40672080D02*
X13783809Y40515890D01*
X13783809Y40515890D02*
X13744762Y40437795D01*
X13744762Y40437795D02*
X13666667Y40359699D01*
X13666667Y40359699D02*
X13549524Y40320652D01*
X13549524Y40320652D02*
X13354286Y40320652D01*
X14135238Y41062557D02*
X14174286Y41101604D01*
X14174286Y41101604D02*
X14252381Y41140652D01*
X14252381Y41140652D02*
X14447619Y41140652D01*
X14447619Y41140652D02*
X14525714Y41101604D01*
X14525714Y41101604D02*
X14564762Y41062557D01*
X14564762Y41062557D02*
X14603809Y40984461D01*
X14603809Y40984461D02*
X14603809Y40906366D01*
X14603809Y40906366D02*
X14564762Y40789223D01*
X14564762Y40789223D02*
X14096190Y40320652D01*
X14096190Y40320652D02*
X14603809Y40320652D01*
X14877142Y41140652D02*
X15384761Y41140652D01*
X15384761Y41140652D02*
X15111428Y40828271D01*
X15111428Y40828271D02*
X15228571Y40828271D01*
X15228571Y40828271D02*
X15306666Y40789223D01*
X15306666Y40789223D02*
X15345714Y40750176D01*
X15345714Y40750176D02*
X15384761Y40672080D01*
X15384761Y40672080D02*
X15384761Y40476842D01*
X15384761Y40476842D02*
X15345714Y40398747D01*
X15345714Y40398747D02*
X15306666Y40359699D01*
X15306666Y40359699D02*
X15228571Y40320652D01*
X15228571Y40320652D02*
X14994285Y40320652D01*
X14994285Y40320652D02*
X14916190Y40359699D01*
X14916190Y40359699D02*
X14877142Y40398747D01*
D10*
G04 #@! TO.C,Q5*
X11178514Y49069524D02*
X11163276Y49039048D01*
X11163276Y49039048D02*
X11132800Y49008572D01*
X11132800Y49008572D02*
X11087085Y48962858D01*
X11087085Y48962858D02*
X11071847Y48932381D01*
X11071847Y48932381D02*
X11071847Y48901905D01*
X11148038Y48917143D02*
X11132800Y48886667D01*
X11132800Y48886667D02*
X11102323Y48856191D01*
X11102323Y48856191D02*
X11041371Y48840953D01*
X11041371Y48840953D02*
X10934704Y48840953D01*
X10934704Y48840953D02*
X10873752Y48856191D01*
X10873752Y48856191D02*
X10843276Y48886667D01*
X10843276Y48886667D02*
X10828038Y48917143D01*
X10828038Y48917143D02*
X10828038Y48978096D01*
X10828038Y48978096D02*
X10843276Y49008572D01*
X10843276Y49008572D02*
X10873752Y49039048D01*
X10873752Y49039048D02*
X10934704Y49054286D01*
X10934704Y49054286D02*
X11041371Y49054286D01*
X11041371Y49054286D02*
X11102323Y49039048D01*
X11102323Y49039048D02*
X11132800Y49008572D01*
X11132800Y49008572D02*
X11148038Y48978096D01*
X11148038Y48978096D02*
X11148038Y48917143D01*
X10828038Y49343810D02*
X10828038Y49191429D01*
X10828038Y49191429D02*
X10980419Y49176191D01*
X10980419Y49176191D02*
X10965180Y49191429D01*
X10965180Y49191429D02*
X10949942Y49221905D01*
X10949942Y49221905D02*
X10949942Y49298096D01*
X10949942Y49298096D02*
X10965180Y49328572D01*
X10965180Y49328572D02*
X10980419Y49343810D01*
X10980419Y49343810D02*
X11010895Y49359048D01*
X11010895Y49359048D02*
X11087085Y49359048D01*
X11087085Y49359048D02*
X11117561Y49343810D01*
X11117561Y49343810D02*
X11132800Y49328572D01*
X11132800Y49328572D02*
X11148038Y49298096D01*
X11148038Y49298096D02*
X11148038Y49221905D01*
X11148038Y49221905D02*
X11132800Y49191429D01*
X11132800Y49191429D02*
X11117561Y49176191D01*
G04 #@! TO.C,Q12*
X57239898Y76244242D02*
X57209422Y76259480D01*
X57209422Y76259480D02*
X57178946Y76289956D01*
X57178946Y76289956D02*
X57133232Y76335671D01*
X57133232Y76335671D02*
X57102755Y76350909D01*
X57102755Y76350909D02*
X57072279Y76350909D01*
X57087517Y76274718D02*
X57057041Y76289956D01*
X57057041Y76289956D02*
X57026565Y76320433D01*
X57026565Y76320433D02*
X57011327Y76381385D01*
X57011327Y76381385D02*
X57011327Y76488052D01*
X57011327Y76488052D02*
X57026565Y76549004D01*
X57026565Y76549004D02*
X57057041Y76579480D01*
X57057041Y76579480D02*
X57087517Y76594718D01*
X57087517Y76594718D02*
X57148470Y76594718D01*
X57148470Y76594718D02*
X57178946Y76579480D01*
X57178946Y76579480D02*
X57209422Y76549004D01*
X57209422Y76549004D02*
X57224660Y76488052D01*
X57224660Y76488052D02*
X57224660Y76381385D01*
X57224660Y76381385D02*
X57209422Y76320433D01*
X57209422Y76320433D02*
X57178946Y76289956D01*
X57178946Y76289956D02*
X57148470Y76274718D01*
X57148470Y76274718D02*
X57087517Y76274718D01*
X57529422Y76274718D02*
X57346565Y76274718D01*
X57437993Y76274718D02*
X57437993Y76594718D01*
X57437993Y76594718D02*
X57407517Y76549004D01*
X57407517Y76549004D02*
X57377041Y76518528D01*
X57377041Y76518528D02*
X57346565Y76503290D01*
X57651327Y76564242D02*
X57666565Y76579480D01*
X57666565Y76579480D02*
X57697041Y76594718D01*
X57697041Y76594718D02*
X57773232Y76594718D01*
X57773232Y76594718D02*
X57803708Y76579480D01*
X57803708Y76579480D02*
X57818946Y76564242D01*
X57818946Y76564242D02*
X57834184Y76533766D01*
X57834184Y76533766D02*
X57834184Y76503290D01*
X57834184Y76503290D02*
X57818946Y76457576D01*
X57818946Y76457576D02*
X57636089Y76274718D01*
X57636089Y76274718D02*
X57834184Y76274718D01*
G04 #@! TO.C,Q2*
X7678514Y49119524D02*
X7663276Y49089048D01*
X7663276Y49089048D02*
X7632800Y49058572D01*
X7632800Y49058572D02*
X7587085Y49012858D01*
X7587085Y49012858D02*
X7571847Y48982381D01*
X7571847Y48982381D02*
X7571847Y48951905D01*
X7648038Y48967143D02*
X7632800Y48936667D01*
X7632800Y48936667D02*
X7602323Y48906191D01*
X7602323Y48906191D02*
X7541371Y48890953D01*
X7541371Y48890953D02*
X7434704Y48890953D01*
X7434704Y48890953D02*
X7373752Y48906191D01*
X7373752Y48906191D02*
X7343276Y48936667D01*
X7343276Y48936667D02*
X7328038Y48967143D01*
X7328038Y48967143D02*
X7328038Y49028096D01*
X7328038Y49028096D02*
X7343276Y49058572D01*
X7343276Y49058572D02*
X7373752Y49089048D01*
X7373752Y49089048D02*
X7434704Y49104286D01*
X7434704Y49104286D02*
X7541371Y49104286D01*
X7541371Y49104286D02*
X7602323Y49089048D01*
X7602323Y49089048D02*
X7632800Y49058572D01*
X7632800Y49058572D02*
X7648038Y49028096D01*
X7648038Y49028096D02*
X7648038Y48967143D01*
X7358514Y49226191D02*
X7343276Y49241429D01*
X7343276Y49241429D02*
X7328038Y49271905D01*
X7328038Y49271905D02*
X7328038Y49348096D01*
X7328038Y49348096D02*
X7343276Y49378572D01*
X7343276Y49378572D02*
X7358514Y49393810D01*
X7358514Y49393810D02*
X7388990Y49409048D01*
X7388990Y49409048D02*
X7419466Y49409048D01*
X7419466Y49409048D02*
X7465180Y49393810D01*
X7465180Y49393810D02*
X7648038Y49210953D01*
X7648038Y49210953D02*
X7648038Y49409048D01*
G04 #@! TO.C,Q16*
X8678514Y46217143D02*
X8663276Y46186667D01*
X8663276Y46186667D02*
X8632800Y46156191D01*
X8632800Y46156191D02*
X8587085Y46110477D01*
X8587085Y46110477D02*
X8571847Y46080000D01*
X8571847Y46080000D02*
X8571847Y46049524D01*
X8648038Y46064762D02*
X8632800Y46034286D01*
X8632800Y46034286D02*
X8602323Y46003810D01*
X8602323Y46003810D02*
X8541371Y45988572D01*
X8541371Y45988572D02*
X8434704Y45988572D01*
X8434704Y45988572D02*
X8373752Y46003810D01*
X8373752Y46003810D02*
X8343276Y46034286D01*
X8343276Y46034286D02*
X8328038Y46064762D01*
X8328038Y46064762D02*
X8328038Y46125715D01*
X8328038Y46125715D02*
X8343276Y46156191D01*
X8343276Y46156191D02*
X8373752Y46186667D01*
X8373752Y46186667D02*
X8434704Y46201905D01*
X8434704Y46201905D02*
X8541371Y46201905D01*
X8541371Y46201905D02*
X8602323Y46186667D01*
X8602323Y46186667D02*
X8632800Y46156191D01*
X8632800Y46156191D02*
X8648038Y46125715D01*
X8648038Y46125715D02*
X8648038Y46064762D01*
X8648038Y46506667D02*
X8648038Y46323810D01*
X8648038Y46415238D02*
X8328038Y46415238D01*
X8328038Y46415238D02*
X8373752Y46384762D01*
X8373752Y46384762D02*
X8404228Y46354286D01*
X8404228Y46354286D02*
X8419466Y46323810D01*
X8328038Y46780953D02*
X8328038Y46720000D01*
X8328038Y46720000D02*
X8343276Y46689524D01*
X8343276Y46689524D02*
X8358514Y46674286D01*
X8358514Y46674286D02*
X8404228Y46643810D01*
X8404228Y46643810D02*
X8465180Y46628572D01*
X8465180Y46628572D02*
X8587085Y46628572D01*
X8587085Y46628572D02*
X8617561Y46643810D01*
X8617561Y46643810D02*
X8632800Y46659048D01*
X8632800Y46659048D02*
X8648038Y46689524D01*
X8648038Y46689524D02*
X8648038Y46750477D01*
X8648038Y46750477D02*
X8632800Y46780953D01*
X8632800Y46780953D02*
X8617561Y46796191D01*
X8617561Y46796191D02*
X8587085Y46811429D01*
X8587085Y46811429D02*
X8510895Y46811429D01*
X8510895Y46811429D02*
X8480419Y46796191D01*
X8480419Y46796191D02*
X8465180Y46780953D01*
X8465180Y46780953D02*
X8449942Y46750477D01*
X8449942Y46750477D02*
X8449942Y46689524D01*
X8449942Y46689524D02*
X8465180Y46659048D01*
X8465180Y46659048D02*
X8480419Y46643810D01*
X8480419Y46643810D02*
X8510895Y46628572D01*
G04 #@! TO.C,D30*
X8998038Y31181429D02*
X8678038Y31181429D01*
X8678038Y31181429D02*
X8678038Y31257619D01*
X8678038Y31257619D02*
X8693276Y31303334D01*
X8693276Y31303334D02*
X8723752Y31333810D01*
X8723752Y31333810D02*
X8754228Y31349048D01*
X8754228Y31349048D02*
X8815180Y31364286D01*
X8815180Y31364286D02*
X8860895Y31364286D01*
X8860895Y31364286D02*
X8921847Y31349048D01*
X8921847Y31349048D02*
X8952323Y31333810D01*
X8952323Y31333810D02*
X8982800Y31303334D01*
X8982800Y31303334D02*
X8998038Y31257619D01*
X8998038Y31257619D02*
X8998038Y31181429D01*
X8678038Y31470953D02*
X8678038Y31669048D01*
X8678038Y31669048D02*
X8799942Y31562381D01*
X8799942Y31562381D02*
X8799942Y31608096D01*
X8799942Y31608096D02*
X8815180Y31638572D01*
X8815180Y31638572D02*
X8830419Y31653810D01*
X8830419Y31653810D02*
X8860895Y31669048D01*
X8860895Y31669048D02*
X8937085Y31669048D01*
X8937085Y31669048D02*
X8967561Y31653810D01*
X8967561Y31653810D02*
X8982800Y31638572D01*
X8982800Y31638572D02*
X8998038Y31608096D01*
X8998038Y31608096D02*
X8998038Y31516667D01*
X8998038Y31516667D02*
X8982800Y31486191D01*
X8982800Y31486191D02*
X8967561Y31470953D01*
X8678038Y31867143D02*
X8678038Y31897620D01*
X8678038Y31897620D02*
X8693276Y31928096D01*
X8693276Y31928096D02*
X8708514Y31943334D01*
X8708514Y31943334D02*
X8738990Y31958572D01*
X8738990Y31958572D02*
X8799942Y31973810D01*
X8799942Y31973810D02*
X8876133Y31973810D01*
X8876133Y31973810D02*
X8937085Y31958572D01*
X8937085Y31958572D02*
X8967561Y31943334D01*
X8967561Y31943334D02*
X8982800Y31928096D01*
X8982800Y31928096D02*
X8998038Y31897620D01*
X8998038Y31897620D02*
X8998038Y31867143D01*
X8998038Y31867143D02*
X8982800Y31836667D01*
X8982800Y31836667D02*
X8967561Y31821429D01*
X8967561Y31821429D02*
X8937085Y31806191D01*
X8937085Y31806191D02*
X8876133Y31790953D01*
X8876133Y31790953D02*
X8799942Y31790953D01*
X8799942Y31790953D02*
X8738990Y31806191D01*
X8738990Y31806191D02*
X8708514Y31821429D01*
X8708514Y31821429D02*
X8693276Y31836667D01*
X8693276Y31836667D02*
X8678038Y31867143D01*
D11*
G04 #@! TO.C,Q7*
X70357857Y90504762D02*
X70310238Y90409524D01*
X70310238Y90409524D02*
X70215000Y90314286D01*
X70215000Y90314286D02*
X70072142Y90171429D01*
X70072142Y90171429D02*
X70024523Y90076191D01*
X70024523Y90076191D02*
X70024523Y89980953D01*
X70262619Y90028572D02*
X70215000Y89933334D01*
X70215000Y89933334D02*
X70119761Y89838096D01*
X70119761Y89838096D02*
X69929285Y89790477D01*
X69929285Y89790477D02*
X69595952Y89790477D01*
X69595952Y89790477D02*
X69405476Y89838096D01*
X69405476Y89838096D02*
X69310238Y89933334D01*
X69310238Y89933334D02*
X69262619Y90028572D01*
X69262619Y90028572D02*
X69262619Y90219048D01*
X69262619Y90219048D02*
X69310238Y90314286D01*
X69310238Y90314286D02*
X69405476Y90409524D01*
X69405476Y90409524D02*
X69595952Y90457143D01*
X69595952Y90457143D02*
X69929285Y90457143D01*
X69929285Y90457143D02*
X70119761Y90409524D01*
X70119761Y90409524D02*
X70215000Y90314286D01*
X70215000Y90314286D02*
X70262619Y90219048D01*
X70262619Y90219048D02*
X70262619Y90028572D01*
X69262619Y90790477D02*
X69262619Y91457143D01*
X69262619Y91457143D02*
X70262619Y91028572D01*
G04 #@! TO.C,Q6*
X70167857Y75674762D02*
X70120238Y75579524D01*
X70120238Y75579524D02*
X70025000Y75484286D01*
X70025000Y75484286D02*
X69882142Y75341429D01*
X69882142Y75341429D02*
X69834523Y75246191D01*
X69834523Y75246191D02*
X69834523Y75150953D01*
X70072619Y75198572D02*
X70025000Y75103334D01*
X70025000Y75103334D02*
X69929761Y75008096D01*
X69929761Y75008096D02*
X69739285Y74960477D01*
X69739285Y74960477D02*
X69405952Y74960477D01*
X69405952Y74960477D02*
X69215476Y75008096D01*
X69215476Y75008096D02*
X69120238Y75103334D01*
X69120238Y75103334D02*
X69072619Y75198572D01*
X69072619Y75198572D02*
X69072619Y75389048D01*
X69072619Y75389048D02*
X69120238Y75484286D01*
X69120238Y75484286D02*
X69215476Y75579524D01*
X69215476Y75579524D02*
X69405952Y75627143D01*
X69405952Y75627143D02*
X69739285Y75627143D01*
X69739285Y75627143D02*
X69929761Y75579524D01*
X69929761Y75579524D02*
X70025000Y75484286D01*
X70025000Y75484286D02*
X70072619Y75389048D01*
X70072619Y75389048D02*
X70072619Y75198572D01*
X69072619Y76484286D02*
X69072619Y76293810D01*
X69072619Y76293810D02*
X69120238Y76198572D01*
X69120238Y76198572D02*
X69167857Y76150953D01*
X69167857Y76150953D02*
X69310714Y76055715D01*
X69310714Y76055715D02*
X69501190Y76008096D01*
X69501190Y76008096D02*
X69882142Y76008096D01*
X69882142Y76008096D02*
X69977380Y76055715D01*
X69977380Y76055715D02*
X70025000Y76103334D01*
X70025000Y76103334D02*
X70072619Y76198572D01*
X70072619Y76198572D02*
X70072619Y76389048D01*
X70072619Y76389048D02*
X70025000Y76484286D01*
X70025000Y76484286D02*
X69977380Y76531905D01*
X69977380Y76531905D02*
X69882142Y76579524D01*
X69882142Y76579524D02*
X69644047Y76579524D01*
X69644047Y76579524D02*
X69548809Y76531905D01*
X69548809Y76531905D02*
X69501190Y76484286D01*
X69501190Y76484286D02*
X69453571Y76389048D01*
X69453571Y76389048D02*
X69453571Y76198572D01*
X69453571Y76198572D02*
X69501190Y76103334D01*
X69501190Y76103334D02*
X69548809Y76055715D01*
X69548809Y76055715D02*
X69644047Y76008096D01*
D10*
G04 #@! TO.C,Q21*
X17979642Y35321486D02*
X17949166Y35336724D01*
X17949166Y35336724D02*
X17918690Y35367200D01*
X17918690Y35367200D02*
X17872976Y35412915D01*
X17872976Y35412915D02*
X17842499Y35428153D01*
X17842499Y35428153D02*
X17812023Y35428153D01*
X17827261Y35351962D02*
X17796785Y35367200D01*
X17796785Y35367200D02*
X17766309Y35397677D01*
X17766309Y35397677D02*
X17751071Y35458629D01*
X17751071Y35458629D02*
X17751071Y35565296D01*
X17751071Y35565296D02*
X17766309Y35626248D01*
X17766309Y35626248D02*
X17796785Y35656724D01*
X17796785Y35656724D02*
X17827261Y35671962D01*
X17827261Y35671962D02*
X17888214Y35671962D01*
X17888214Y35671962D02*
X17918690Y35656724D01*
X17918690Y35656724D02*
X17949166Y35626248D01*
X17949166Y35626248D02*
X17964404Y35565296D01*
X17964404Y35565296D02*
X17964404Y35458629D01*
X17964404Y35458629D02*
X17949166Y35397677D01*
X17949166Y35397677D02*
X17918690Y35367200D01*
X17918690Y35367200D02*
X17888214Y35351962D01*
X17888214Y35351962D02*
X17827261Y35351962D01*
X18086309Y35641486D02*
X18101547Y35656724D01*
X18101547Y35656724D02*
X18132023Y35671962D01*
X18132023Y35671962D02*
X18208214Y35671962D01*
X18208214Y35671962D02*
X18238690Y35656724D01*
X18238690Y35656724D02*
X18253928Y35641486D01*
X18253928Y35641486D02*
X18269166Y35611010D01*
X18269166Y35611010D02*
X18269166Y35580534D01*
X18269166Y35580534D02*
X18253928Y35534820D01*
X18253928Y35534820D02*
X18071071Y35351962D01*
X18071071Y35351962D02*
X18269166Y35351962D01*
X18573928Y35351962D02*
X18391071Y35351962D01*
X18482499Y35351962D02*
X18482499Y35671962D01*
X18482499Y35671962D02*
X18452023Y35626248D01*
X18452023Y35626248D02*
X18421547Y35595772D01*
X18421547Y35595772D02*
X18391071Y35580534D01*
D12*
G04 #@! TO.C,D18*
X78654286Y85920652D02*
X78654286Y86740652D01*
X78654286Y86740652D02*
X78849524Y86740652D01*
X78849524Y86740652D02*
X78966667Y86701604D01*
X78966667Y86701604D02*
X79044762Y86623509D01*
X79044762Y86623509D02*
X79083809Y86545414D01*
X79083809Y86545414D02*
X79122857Y86389223D01*
X79122857Y86389223D02*
X79122857Y86272080D01*
X79122857Y86272080D02*
X79083809Y86115890D01*
X79083809Y86115890D02*
X79044762Y86037795D01*
X79044762Y86037795D02*
X78966667Y85959699D01*
X78966667Y85959699D02*
X78849524Y85920652D01*
X78849524Y85920652D02*
X78654286Y85920652D01*
X79903809Y85920652D02*
X79435238Y85920652D01*
X79669524Y85920652D02*
X79669524Y86740652D01*
X79669524Y86740652D02*
X79591428Y86623509D01*
X79591428Y86623509D02*
X79513333Y86545414D01*
X79513333Y86545414D02*
X79435238Y86506366D01*
X80372380Y86389223D02*
X80294285Y86428271D01*
X80294285Y86428271D02*
X80255238Y86467319D01*
X80255238Y86467319D02*
X80216190Y86545414D01*
X80216190Y86545414D02*
X80216190Y86584461D01*
X80216190Y86584461D02*
X80255238Y86662557D01*
X80255238Y86662557D02*
X80294285Y86701604D01*
X80294285Y86701604D02*
X80372380Y86740652D01*
X80372380Y86740652D02*
X80528571Y86740652D01*
X80528571Y86740652D02*
X80606666Y86701604D01*
X80606666Y86701604D02*
X80645714Y86662557D01*
X80645714Y86662557D02*
X80684761Y86584461D01*
X80684761Y86584461D02*
X80684761Y86545414D01*
X80684761Y86545414D02*
X80645714Y86467319D01*
X80645714Y86467319D02*
X80606666Y86428271D01*
X80606666Y86428271D02*
X80528571Y86389223D01*
X80528571Y86389223D02*
X80372380Y86389223D01*
X80372380Y86389223D02*
X80294285Y86350176D01*
X80294285Y86350176D02*
X80255238Y86311128D01*
X80255238Y86311128D02*
X80216190Y86233033D01*
X80216190Y86233033D02*
X80216190Y86076842D01*
X80216190Y86076842D02*
X80255238Y85998747D01*
X80255238Y85998747D02*
X80294285Y85959699D01*
X80294285Y85959699D02*
X80372380Y85920652D01*
X80372380Y85920652D02*
X80528571Y85920652D01*
X80528571Y85920652D02*
X80606666Y85959699D01*
X80606666Y85959699D02*
X80645714Y85998747D01*
X80645714Y85998747D02*
X80684761Y86076842D01*
X80684761Y86076842D02*
X80684761Y86233033D01*
X80684761Y86233033D02*
X80645714Y86311128D01*
X80645714Y86311128D02*
X80606666Y86350176D01*
X80606666Y86350176D02*
X80528571Y86389223D01*
D10*
G04 #@! TO.C,Q10*
X14578514Y42217143D02*
X14563276Y42186667D01*
X14563276Y42186667D02*
X14532800Y42156191D01*
X14532800Y42156191D02*
X14487085Y42110477D01*
X14487085Y42110477D02*
X14471847Y42080000D01*
X14471847Y42080000D02*
X14471847Y42049524D01*
X14548038Y42064762D02*
X14532800Y42034286D01*
X14532800Y42034286D02*
X14502323Y42003810D01*
X14502323Y42003810D02*
X14441371Y41988572D01*
X14441371Y41988572D02*
X14334704Y41988572D01*
X14334704Y41988572D02*
X14273752Y42003810D01*
X14273752Y42003810D02*
X14243276Y42034286D01*
X14243276Y42034286D02*
X14228038Y42064762D01*
X14228038Y42064762D02*
X14228038Y42125715D01*
X14228038Y42125715D02*
X14243276Y42156191D01*
X14243276Y42156191D02*
X14273752Y42186667D01*
X14273752Y42186667D02*
X14334704Y42201905D01*
X14334704Y42201905D02*
X14441371Y42201905D01*
X14441371Y42201905D02*
X14502323Y42186667D01*
X14502323Y42186667D02*
X14532800Y42156191D01*
X14532800Y42156191D02*
X14548038Y42125715D01*
X14548038Y42125715D02*
X14548038Y42064762D01*
X14548038Y42506667D02*
X14548038Y42323810D01*
X14548038Y42415238D02*
X14228038Y42415238D01*
X14228038Y42415238D02*
X14273752Y42384762D01*
X14273752Y42384762D02*
X14304228Y42354286D01*
X14304228Y42354286D02*
X14319466Y42323810D01*
X14228038Y42704762D02*
X14228038Y42735239D01*
X14228038Y42735239D02*
X14243276Y42765715D01*
X14243276Y42765715D02*
X14258514Y42780953D01*
X14258514Y42780953D02*
X14288990Y42796191D01*
X14288990Y42796191D02*
X14349942Y42811429D01*
X14349942Y42811429D02*
X14426133Y42811429D01*
X14426133Y42811429D02*
X14487085Y42796191D01*
X14487085Y42796191D02*
X14517561Y42780953D01*
X14517561Y42780953D02*
X14532800Y42765715D01*
X14532800Y42765715D02*
X14548038Y42735239D01*
X14548038Y42735239D02*
X14548038Y42704762D01*
X14548038Y42704762D02*
X14532800Y42674286D01*
X14532800Y42674286D02*
X14517561Y42659048D01*
X14517561Y42659048D02*
X14487085Y42643810D01*
X14487085Y42643810D02*
X14426133Y42628572D01*
X14426133Y42628572D02*
X14349942Y42628572D01*
X14349942Y42628572D02*
X14288990Y42643810D01*
X14288990Y42643810D02*
X14258514Y42659048D01*
X14258514Y42659048D02*
X14243276Y42674286D01*
X14243276Y42674286D02*
X14228038Y42704762D01*
D12*
G04 #@! TO.C,D24*
X11904286Y34320652D02*
X11904286Y35140652D01*
X11904286Y35140652D02*
X12099524Y35140652D01*
X12099524Y35140652D02*
X12216667Y35101604D01*
X12216667Y35101604D02*
X12294762Y35023509D01*
X12294762Y35023509D02*
X12333809Y34945414D01*
X12333809Y34945414D02*
X12372857Y34789223D01*
X12372857Y34789223D02*
X12372857Y34672080D01*
X12372857Y34672080D02*
X12333809Y34515890D01*
X12333809Y34515890D02*
X12294762Y34437795D01*
X12294762Y34437795D02*
X12216667Y34359699D01*
X12216667Y34359699D02*
X12099524Y34320652D01*
X12099524Y34320652D02*
X11904286Y34320652D01*
X12685238Y35062557D02*
X12724286Y35101604D01*
X12724286Y35101604D02*
X12802381Y35140652D01*
X12802381Y35140652D02*
X12997619Y35140652D01*
X12997619Y35140652D02*
X13075714Y35101604D01*
X13075714Y35101604D02*
X13114762Y35062557D01*
X13114762Y35062557D02*
X13153809Y34984461D01*
X13153809Y34984461D02*
X13153809Y34906366D01*
X13153809Y34906366D02*
X13114762Y34789223D01*
X13114762Y34789223D02*
X12646190Y34320652D01*
X12646190Y34320652D02*
X13153809Y34320652D01*
X13856666Y34867319D02*
X13856666Y34320652D01*
X13661428Y35179699D02*
X13466190Y34593985D01*
X13466190Y34593985D02*
X13973809Y34593985D01*
D11*
G04 #@! TO.C,Q11*
X78832857Y76428572D02*
X78785238Y76333334D01*
X78785238Y76333334D02*
X78690000Y76238096D01*
X78690000Y76238096D02*
X78547142Y76095239D01*
X78547142Y76095239D02*
X78499523Y76000001D01*
X78499523Y76000001D02*
X78499523Y75904763D01*
X78737619Y75952382D02*
X78690000Y75857144D01*
X78690000Y75857144D02*
X78594761Y75761906D01*
X78594761Y75761906D02*
X78404285Y75714287D01*
X78404285Y75714287D02*
X78070952Y75714287D01*
X78070952Y75714287D02*
X77880476Y75761906D01*
X77880476Y75761906D02*
X77785238Y75857144D01*
X77785238Y75857144D02*
X77737619Y75952382D01*
X77737619Y75952382D02*
X77737619Y76142858D01*
X77737619Y76142858D02*
X77785238Y76238096D01*
X77785238Y76238096D02*
X77880476Y76333334D01*
X77880476Y76333334D02*
X78070952Y76380953D01*
X78070952Y76380953D02*
X78404285Y76380953D01*
X78404285Y76380953D02*
X78594761Y76333334D01*
X78594761Y76333334D02*
X78690000Y76238096D01*
X78690000Y76238096D02*
X78737619Y76142858D01*
X78737619Y76142858D02*
X78737619Y75952382D01*
X78737619Y77333334D02*
X78737619Y76761906D01*
X78737619Y77047620D02*
X77737619Y77047620D01*
X77737619Y77047620D02*
X77880476Y76952382D01*
X77880476Y76952382D02*
X77975714Y76857144D01*
X77975714Y76857144D02*
X78023333Y76761906D01*
X78737619Y78285715D02*
X78737619Y77714287D01*
X78737619Y78000001D02*
X77737619Y78000001D01*
X77737619Y78000001D02*
X77880476Y77904763D01*
X77880476Y77904763D02*
X77975714Y77809525D01*
X77975714Y77809525D02*
X78023333Y77714287D01*
D12*
G04 #@! TO.C,D25*
X7104286Y36370652D02*
X7104286Y37190652D01*
X7104286Y37190652D02*
X7299524Y37190652D01*
X7299524Y37190652D02*
X7416667Y37151604D01*
X7416667Y37151604D02*
X7494762Y37073509D01*
X7494762Y37073509D02*
X7533809Y36995414D01*
X7533809Y36995414D02*
X7572857Y36839223D01*
X7572857Y36839223D02*
X7572857Y36722080D01*
X7572857Y36722080D02*
X7533809Y36565890D01*
X7533809Y36565890D02*
X7494762Y36487795D01*
X7494762Y36487795D02*
X7416667Y36409699D01*
X7416667Y36409699D02*
X7299524Y36370652D01*
X7299524Y36370652D02*
X7104286Y36370652D01*
X7885238Y37112557D02*
X7924286Y37151604D01*
X7924286Y37151604D02*
X8002381Y37190652D01*
X8002381Y37190652D02*
X8197619Y37190652D01*
X8197619Y37190652D02*
X8275714Y37151604D01*
X8275714Y37151604D02*
X8314762Y37112557D01*
X8314762Y37112557D02*
X8353809Y37034461D01*
X8353809Y37034461D02*
X8353809Y36956366D01*
X8353809Y36956366D02*
X8314762Y36839223D01*
X8314762Y36839223D02*
X7846190Y36370652D01*
X7846190Y36370652D02*
X8353809Y36370652D01*
X9095714Y37190652D02*
X8705238Y37190652D01*
X8705238Y37190652D02*
X8666190Y36800176D01*
X8666190Y36800176D02*
X8705238Y36839223D01*
X8705238Y36839223D02*
X8783333Y36878271D01*
X8783333Y36878271D02*
X8978571Y36878271D01*
X8978571Y36878271D02*
X9056666Y36839223D01*
X9056666Y36839223D02*
X9095714Y36800176D01*
X9095714Y36800176D02*
X9134761Y36722080D01*
X9134761Y36722080D02*
X9134761Y36526842D01*
X9134761Y36526842D02*
X9095714Y36448747D01*
X9095714Y36448747D02*
X9056666Y36409699D01*
X9056666Y36409699D02*
X8978571Y36370652D01*
X8978571Y36370652D02*
X8783333Y36370652D01*
X8783333Y36370652D02*
X8705238Y36409699D01*
X8705238Y36409699D02*
X8666190Y36448747D01*
D10*
G04 #@! TO.C,Q23*
X20617142Y48121486D02*
X20586666Y48136724D01*
X20586666Y48136724D02*
X20556190Y48167200D01*
X20556190Y48167200D02*
X20510476Y48212915D01*
X20510476Y48212915D02*
X20479999Y48228153D01*
X20479999Y48228153D02*
X20449523Y48228153D01*
X20464761Y48151962D02*
X20434285Y48167200D01*
X20434285Y48167200D02*
X20403809Y48197677D01*
X20403809Y48197677D02*
X20388571Y48258629D01*
X20388571Y48258629D02*
X20388571Y48365296D01*
X20388571Y48365296D02*
X20403809Y48426248D01*
X20403809Y48426248D02*
X20434285Y48456724D01*
X20434285Y48456724D02*
X20464761Y48471962D01*
X20464761Y48471962D02*
X20525714Y48471962D01*
X20525714Y48471962D02*
X20556190Y48456724D01*
X20556190Y48456724D02*
X20586666Y48426248D01*
X20586666Y48426248D02*
X20601904Y48365296D01*
X20601904Y48365296D02*
X20601904Y48258629D01*
X20601904Y48258629D02*
X20586666Y48197677D01*
X20586666Y48197677D02*
X20556190Y48167200D01*
X20556190Y48167200D02*
X20525714Y48151962D01*
X20525714Y48151962D02*
X20464761Y48151962D01*
X20723809Y48441486D02*
X20739047Y48456724D01*
X20739047Y48456724D02*
X20769523Y48471962D01*
X20769523Y48471962D02*
X20845714Y48471962D01*
X20845714Y48471962D02*
X20876190Y48456724D01*
X20876190Y48456724D02*
X20891428Y48441486D01*
X20891428Y48441486D02*
X20906666Y48411010D01*
X20906666Y48411010D02*
X20906666Y48380534D01*
X20906666Y48380534D02*
X20891428Y48334820D01*
X20891428Y48334820D02*
X20708571Y48151962D01*
X20708571Y48151962D02*
X20906666Y48151962D01*
X21013333Y48471962D02*
X21211428Y48471962D01*
X21211428Y48471962D02*
X21104761Y48350058D01*
X21104761Y48350058D02*
X21150476Y48350058D01*
X21150476Y48350058D02*
X21180952Y48334820D01*
X21180952Y48334820D02*
X21196190Y48319581D01*
X21196190Y48319581D02*
X21211428Y48289105D01*
X21211428Y48289105D02*
X21211428Y48212915D01*
X21211428Y48212915D02*
X21196190Y48182439D01*
X21196190Y48182439D02*
X21180952Y48167200D01*
X21180952Y48167200D02*
X21150476Y48151962D01*
X21150476Y48151962D02*
X21059047Y48151962D01*
X21059047Y48151962D02*
X21028571Y48167200D01*
X21028571Y48167200D02*
X21013333Y48182439D01*
D13*
G04 #@! TO.C,Q3*
X13440000Y28785000D02*
X13115000Y28460000D01*
X13440000Y31360000D02*
X13440000Y28785000D01*
X13115000Y28460000D02*
X12140000Y28460000D01*
X12140000Y28460000D02*
X12140000Y31360000D01*
X12140000Y31360000D02*
X13440000Y31360000D01*
G04 #@! TO.C,Q13*
X48150000Y76475000D02*
X47825000Y76150000D01*
X48150000Y79050000D02*
X48150000Y76475000D01*
X47825000Y76150000D02*
X46850000Y76150000D01*
X46850000Y76150000D02*
X46850000Y79050000D01*
X46850000Y79050000D02*
X48150000Y79050000D01*
G04 #@! TO.C,J5*
X21050000Y17000000D02*
X21050000Y12100000D01*
X21050000Y12100000D02*
X34950000Y12100000D01*
X23000000Y12100000D02*
X23500000Y12807107D01*
X23500000Y12807107D02*
X24000000Y12100000D01*
X34950000Y12100000D02*
X35950000Y13100000D01*
X35950000Y17000000D02*
X21050000Y17000000D01*
X35950000Y13100000D02*
X35950000Y17000000D01*
G04 #@! TO.C,J6*
X22330000Y7590000D02*
X22330000Y240000D01*
X22330000Y7590000D02*
X31270000Y7590000D01*
X22330000Y240000D02*
X31270000Y240000D01*
X31270000Y240000D02*
X31270000Y7590000D01*
G04 #@! TO.C,Q1*
X9612500Y34375000D02*
X9287500Y34050000D01*
X9612500Y36950000D02*
X9612500Y34375000D01*
X9287500Y34050000D02*
X8312500Y34050000D01*
X8312500Y34050000D02*
X8312500Y36950000D01*
X8312500Y36950000D02*
X9612500Y36950000D01*
G04 #@! TO.C,P2*
X76830000Y59735000D02*
X77465000Y60370000D01*
X76830000Y57830000D02*
X76830000Y59735000D01*
X77465000Y60370000D02*
X79370000Y60370000D01*
X79370000Y60370000D02*
X79370000Y57830000D01*
X79370000Y57830000D02*
X76830000Y57830000D01*
G04 #@! TO.C,J1*
X56715000Y55575000D02*
X64085000Y55575000D01*
X57845000Y55575000D02*
X57215000Y56775000D01*
X64085000Y55575000D02*
X64085000Y74225000D01*
X56715000Y56775000D02*
X56715000Y55575000D01*
X57215000Y56775000D02*
X56715000Y56775000D01*
X57215000Y58400000D02*
X57922107Y58900000D01*
X57922107Y58900000D02*
X57215000Y59400000D01*
X64085000Y64200000D02*
X65485000Y64200000D01*
X65485000Y64200000D02*
X65485000Y65600000D01*
X65485000Y65600000D02*
X64085000Y65600000D01*
X56715000Y73025000D02*
X57215000Y73025000D01*
X57215000Y73025000D02*
X57215000Y56775000D01*
X56715000Y74225000D02*
X56715000Y73025000D01*
X57845000Y74225000D02*
X57215000Y73025000D01*
X64085000Y74225000D02*
X56715000Y74225000D01*
G04 #@! TO.C,Q4*
X8625000Y53350000D02*
X8950000Y53025000D01*
X6050000Y53350000D02*
X8625000Y53350000D01*
X8950000Y53025000D02*
X8950000Y52050000D01*
X8950000Y52050000D02*
X6050000Y52050000D01*
X6050000Y52050000D02*
X6050000Y53350000D01*
G04 #@! TO.C,Q15*
X12125000Y53350000D02*
X12450000Y53025000D01*
X9550000Y53350000D02*
X12125000Y53350000D01*
X12450000Y53025000D02*
X12450000Y52050000D01*
X12450000Y52050000D02*
X9550000Y52050000D01*
X9550000Y52050000D02*
X9550000Y53350000D01*
G04 #@! TO.C,Q22*
X21450000Y50575000D02*
X21125000Y50250000D01*
X21450000Y53150000D02*
X21450000Y50575000D01*
X21125000Y50250000D02*
X20150000Y50250000D01*
X20150000Y50250000D02*
X20150000Y53150000D01*
X20150000Y53150000D02*
X21450000Y53150000D01*
G04 #@! TO.C,P3*
X59130000Y2535000D02*
X59765000Y3170000D01*
X59130000Y630000D02*
X59130000Y2535000D01*
X59765000Y3170000D02*
X61670000Y3170000D01*
X61670000Y3170000D02*
X61670000Y630000D01*
X61670000Y630000D02*
X59130000Y630000D01*
G04 #@! TO.C,P5*
X55130000Y11535000D02*
X55765000Y12170000D01*
X55130000Y9630000D02*
X55130000Y11535000D01*
X55765000Y12170000D02*
X57670000Y12170000D01*
X57670000Y12170000D02*
X57670000Y9630000D01*
X57670000Y9630000D02*
X55130000Y9630000D01*
G04 #@! TO.C,Q14*
X52312500Y77225000D02*
X52637500Y77550000D01*
X52312500Y74650000D02*
X52312500Y77225000D01*
X52637500Y77550000D02*
X53612500Y77550000D01*
X53612500Y77550000D02*
X53612500Y74650000D01*
X53612500Y74650000D02*
X52312500Y74650000D01*
G04 #@! TO.C,Q17*
X11075000Y45650000D02*
X10750000Y45975000D01*
X13650000Y45650000D02*
X11075000Y45650000D01*
X10750000Y45975000D02*
X10750000Y46950000D01*
X10750000Y46950000D02*
X13650000Y46950000D01*
X13650000Y46950000D02*
X13650000Y45650000D01*
G04 #@! TO.C,Q20*
X75545000Y86730000D02*
X76295000Y86730000D01*
X76295000Y86730000D02*
X76295000Y89430000D01*
X80105000Y86730000D02*
X80855000Y86730000D01*
X80855000Y86730000D02*
X80855000Y89430000D01*
X75950000Y89430000D02*
X74950000Y90430000D01*
X80105000Y89430000D02*
X80105000Y86730000D01*
X81450000Y89430000D02*
X75950000Y89430000D01*
X75545000Y89835000D02*
X75545000Y86730000D01*
X74950000Y90430000D02*
X74950000Y95650000D01*
X74950000Y95650000D02*
X81450000Y95650000D01*
X75500000Y95650000D02*
X75500000Y96650000D01*
X81450000Y95650000D02*
X81450000Y89430000D01*
X75500000Y96650000D02*
X80900000Y96650000D01*
X80900000Y96650000D02*
X80900000Y95650000D01*
G04 #@! TO.C,Q5*
X12125000Y49750000D02*
X12450000Y49425000D01*
X9550000Y49750000D02*
X12125000Y49750000D01*
X12450000Y49425000D02*
X12450000Y48450000D01*
X12450000Y48450000D02*
X9550000Y48450000D01*
X9550000Y48450000D02*
X9550000Y49750000D01*
G04 #@! TO.C,Q12*
X56772756Y77547756D02*
X57097756Y77872756D01*
X56772756Y74972756D02*
X56772756Y77547756D01*
X57097756Y77872756D02*
X58072756Y77872756D01*
X58072756Y77872756D02*
X58072756Y74972756D01*
X58072756Y74972756D02*
X56772756Y74972756D01*
G04 #@! TO.C,Q2*
X8625000Y49800000D02*
X8950000Y49475000D01*
X6050000Y49800000D02*
X8625000Y49800000D01*
X8950000Y49475000D02*
X8950000Y48500000D01*
X8950000Y48500000D02*
X6050000Y48500000D01*
X6050000Y48500000D02*
X6050000Y49800000D01*
G04 #@! TO.C,Q16*
X7375000Y45750000D02*
X7050000Y46075000D01*
X9950000Y45750000D02*
X7375000Y45750000D01*
X7050000Y46075000D02*
X7050000Y47050000D01*
X7050000Y47050000D02*
X9950000Y47050000D01*
X9950000Y47050000D02*
X9950000Y45750000D01*
D14*
G04 #@! TO.C,U4*
X19550000Y275000D02*
X6850000Y275000D01*
X19550000Y27525000D02*
X19550000Y275000D01*
X6850000Y275000D02*
X6850000Y27525000D01*
X6850000Y27525000D02*
X19550000Y27525000D01*
D15*
X21300000Y7600000D02*
G75*
G03*
X21300000Y7600000I-100000J0D01*
G01*
D13*
G04 #@! TO.C,D30*
X7725000Y30920000D02*
X7400000Y31245000D01*
X10300000Y30920000D02*
X7725000Y30920000D01*
X7400000Y31245000D02*
X7400000Y32220000D01*
X7400000Y32220000D02*
X10300000Y32220000D01*
X10300000Y32220000D02*
X10300000Y30920000D01*
G04 #@! TO.C,Q7*
X67145000Y86730000D02*
X67895000Y86730000D01*
X67895000Y86730000D02*
X67895000Y89430000D01*
X71705000Y86730000D02*
X72455000Y86730000D01*
X72455000Y86730000D02*
X72455000Y89430000D01*
X67550000Y89430000D02*
X66550000Y90430000D01*
X71705000Y89430000D02*
X71705000Y86730000D01*
X73050000Y89430000D02*
X67550000Y89430000D01*
X67145000Y89835000D02*
X67145000Y86730000D01*
X66550000Y90430000D02*
X66550000Y95650000D01*
X66550000Y95650000D02*
X73050000Y95650000D01*
X67100000Y95650000D02*
X67100000Y96650000D01*
X73050000Y95650000D02*
X73050000Y89430000D01*
X67100000Y96650000D02*
X72500000Y96650000D01*
X72500000Y96650000D02*
X72500000Y95650000D01*
G04 #@! TO.C,Q6*
X66955000Y71900000D02*
X67705000Y71900000D01*
X67705000Y71900000D02*
X67705000Y74600000D01*
X71515000Y71900000D02*
X72265000Y71900000D01*
X72265000Y71900000D02*
X72265000Y74600000D01*
X67360000Y74600000D02*
X66360000Y75600000D01*
X71515000Y74600000D02*
X71515000Y71900000D01*
X72860000Y74600000D02*
X67360000Y74600000D01*
X66955000Y75005000D02*
X66955000Y71900000D01*
X66360000Y75600000D02*
X66360000Y80820000D01*
X66360000Y80820000D02*
X72860000Y80820000D01*
X66910000Y80820000D02*
X66910000Y81820000D01*
X72860000Y80820000D02*
X72860000Y74600000D01*
X66910000Y81820000D02*
X72310000Y81820000D01*
X72310000Y81820000D02*
X72310000Y80820000D01*
G04 #@! TO.C,Q21*
X17512500Y36625000D02*
X17837500Y36950000D01*
X17512500Y34050000D02*
X17512500Y36625000D01*
X17837500Y36950000D02*
X18812500Y36950000D01*
X18812500Y36950000D02*
X18812500Y34050000D01*
X18812500Y34050000D02*
X17512500Y34050000D01*
G04 #@! TO.C,Q10*
X13275000Y41750000D02*
X12950000Y42075000D01*
X15850000Y41750000D02*
X13275000Y41750000D01*
X12950000Y42075000D02*
X12950000Y43050000D01*
X12950000Y43050000D02*
X15850000Y43050000D01*
X15850000Y43050000D02*
X15850000Y41750000D01*
G04 #@! TO.C,Q11*
X75620000Y72030000D02*
X76370000Y72030000D01*
X76370000Y72030000D02*
X76370000Y74730000D01*
X80180000Y72030000D02*
X80930000Y72030000D01*
X80930000Y72030000D02*
X80930000Y74730000D01*
X76025000Y74730000D02*
X75025000Y75730000D01*
X80180000Y74730000D02*
X80180000Y72030000D01*
X81525000Y74730000D02*
X76025000Y74730000D01*
X75620000Y75135000D02*
X75620000Y72030000D01*
X75025000Y75730000D02*
X75025000Y80950000D01*
X75025000Y80950000D02*
X81525000Y80950000D01*
X75575000Y80950000D02*
X75575000Y81950000D01*
X81525000Y80950000D02*
X81525000Y74730000D01*
X75575000Y81950000D02*
X80975000Y81950000D01*
X80975000Y81950000D02*
X80975000Y80950000D01*
D14*
G04 #@! TO.C,U1*
X25685000Y52982500D02*
X25685000Y45617500D01*
X25685000Y52982500D02*
X33050000Y52982500D01*
X25685000Y45617500D02*
X33050000Y45617500D01*
X33050000Y52982500D02*
X33050000Y45617500D01*
D15*
X23167500Y51795000D02*
G75*
G03*
X23167500Y51795000I-100000J0D01*
G01*
D13*
G04 #@! TO.C,P4*
X59130000Y5435000D02*
X59765000Y6070000D01*
X59130000Y3530000D02*
X59130000Y5435000D01*
X59765000Y6070000D02*
X61670000Y6070000D01*
X61670000Y6070000D02*
X61670000Y3530000D01*
X61670000Y3530000D02*
X59130000Y3530000D01*
G04 #@! TO.C,Q23*
X21450000Y47175000D02*
X21125000Y46850000D01*
X21450000Y49750000D02*
X21450000Y47175000D01*
X21125000Y46850000D02*
X20150000Y46850000D01*
X20150000Y46850000D02*
X20150000Y49750000D01*
X20150000Y49750000D02*
X21450000Y49750000D01*
G04 #@! TO.C,J2*
X50858607Y2250000D02*
X51258607Y2250000D01*
X51258607Y2250000D02*
X51258607Y3295000D01*
X52128607Y2250000D02*
X52528607Y2250000D01*
X52528607Y2250000D02*
X52528607Y3295000D01*
X53398607Y2250000D02*
X53798607Y2250000D01*
X53798607Y2250000D02*
X53798607Y3295000D01*
X54668607Y2250000D02*
X55068607Y2250000D01*
X55068607Y2250000D02*
X55068607Y3295000D01*
X55938607Y2250000D02*
X56338607Y2250000D01*
X56338607Y2250000D02*
X56338607Y3295000D01*
X50858607Y3295000D02*
X50858607Y2250000D01*
X50858607Y3295000D02*
X50423607Y3730000D01*
X52128607Y3295000D02*
X52128607Y2250000D01*
X53398607Y3295000D02*
X53398607Y2250000D01*
X54668607Y3295000D02*
X54668607Y2250000D01*
X55938607Y3295000D02*
X55938607Y2250000D01*
X56773607Y3295000D02*
X50858607Y3295000D01*
X50423607Y3730000D02*
X50423607Y6705000D01*
X50423607Y6705000D02*
X56773607Y6705000D01*
X50858607Y6705000D02*
X50858607Y7750000D01*
X52128607Y6705000D02*
X52128607Y7750000D01*
X53398607Y6705000D02*
X53398607Y7750000D01*
X54668607Y6705000D02*
X54668607Y7750000D01*
X55938607Y6705000D02*
X55938607Y7750000D01*
X56773607Y6705000D02*
X56773607Y3295000D01*
X50858607Y7750000D02*
X51258607Y7750000D01*
X51258607Y7750000D02*
X51258607Y6705000D01*
X52128607Y7750000D02*
X52528607Y7750000D01*
X52528607Y7750000D02*
X52528607Y6705000D01*
X53398607Y7750000D02*
X53798607Y7750000D01*
X53798607Y7750000D02*
X53798607Y6705000D01*
X54668607Y7750000D02*
X55068607Y7750000D01*
X55068607Y7750000D02*
X55068607Y6705000D01*
X55938607Y7750000D02*
X56338607Y7750000D01*
X56338607Y7750000D02*
X56338607Y6705000D01*
G04 #@! TD*
M02*
