G04 #@! TF.GenerationSoftware,KiCad,Pcbnew,(6.0.1)*
G04 #@! TF.CreationDate,2022-03-17T21:37:21+02:00*
G04 #@! TF.ProjectId,alphax_2ch,616c7068-6178-45f3-9263-682e6b696361,b*
G04 #@! TF.SameCoordinates,PX141f5e0PYa2cace0*
G04 #@! TF.FileFunction,AssemblyDrawing,Top*
%FSLAX46Y46*%
G04 Gerber Fmt 4.6, Leading zero omitted, Abs format (unit mm)*
G04 Created by KiCad (PCBNEW (6.0.1)) date 2022-03-17 21:37:21*
%MOMM*%
%LPD*%
G01*
G04 APERTURE LIST*
%ADD10C,0.150000*%
%ADD11C,0.050000*%
%ADD12C,0.060000*%
%ADD13C,0.170000*%
%ADD14C,0.100000*%
%ADD15C,0.127000*%
%ADD16C,0.200000*%
G04 APERTURE END LIST*
D10*
G04 #@! TO.C,J5*
X54166666Y6197620D02*
X54166666Y5483334D01*
X54119047Y5340477D01*
X54023809Y5245239D01*
X53880952Y5197620D01*
X53785714Y5197620D01*
X55119047Y6197620D02*
X54642857Y6197620D01*
X54595238Y5721429D01*
X54642857Y5769048D01*
X54738095Y5816667D01*
X54976190Y5816667D01*
X55071428Y5769048D01*
X55119047Y5721429D01*
X55166666Y5626191D01*
X55166666Y5388096D01*
X55119047Y5292858D01*
X55071428Y5245239D01*
X54976190Y5197620D01*
X54738095Y5197620D01*
X54642857Y5245239D01*
X54595238Y5292858D01*
D11*
G04 #@! TO.C,Q13*
X55217142Y77324762D02*
X55186666Y77340000D01*
X55156190Y77370477D01*
X55110476Y77416191D01*
X55080000Y77431429D01*
X55049523Y77431429D01*
X55064761Y77355239D02*
X55034285Y77370477D01*
X55003809Y77400953D01*
X54988571Y77461905D01*
X54988571Y77568572D01*
X55003809Y77629524D01*
X55034285Y77660000D01*
X55064761Y77675239D01*
X55125714Y77675239D01*
X55156190Y77660000D01*
X55186666Y77629524D01*
X55201904Y77568572D01*
X55201904Y77461905D01*
X55186666Y77400953D01*
X55156190Y77370477D01*
X55125714Y77355239D01*
X55064761Y77355239D01*
X55506666Y77355239D02*
X55323809Y77355239D01*
X55415238Y77355239D02*
X55415238Y77675239D01*
X55384761Y77629524D01*
X55354285Y77599048D01*
X55323809Y77583810D01*
X55613333Y77675239D02*
X55811428Y77675239D01*
X55704761Y77553334D01*
X55750476Y77553334D01*
X55780952Y77538096D01*
X55796190Y77522858D01*
X55811428Y77492381D01*
X55811428Y77416191D01*
X55796190Y77385715D01*
X55780952Y77370477D01*
X55750476Y77355239D01*
X55659047Y77355239D01*
X55628571Y77370477D01*
X55613333Y77385715D01*
G04 #@! TO.C,Q1*
X8325238Y31469524D02*
X8310000Y31439048D01*
X8279523Y31408572D01*
X8233809Y31362858D01*
X8218571Y31332381D01*
X8218571Y31301905D01*
X8294761Y31317143D02*
X8279523Y31286667D01*
X8249047Y31256191D01*
X8188095Y31240953D01*
X8081428Y31240953D01*
X8020476Y31256191D01*
X7990000Y31286667D01*
X7974761Y31317143D01*
X7974761Y31378096D01*
X7990000Y31408572D01*
X8020476Y31439048D01*
X8081428Y31454286D01*
X8188095Y31454286D01*
X8249047Y31439048D01*
X8279523Y31408572D01*
X8294761Y31378096D01*
X8294761Y31317143D01*
X8294761Y31759048D02*
X8294761Y31576191D01*
X8294761Y31667620D02*
X7974761Y31667620D01*
X8020476Y31637143D01*
X8050952Y31606667D01*
X8066190Y31576191D01*
D10*
G04 #@! TO.C,D28*
X6935714Y36247620D02*
X6935714Y37247620D01*
X7173809Y37247620D01*
X7316666Y37200000D01*
X7411904Y37104762D01*
X7459523Y37009524D01*
X7507142Y36819048D01*
X7507142Y36676191D01*
X7459523Y36485715D01*
X7411904Y36390477D01*
X7316666Y36295239D01*
X7173809Y36247620D01*
X6935714Y36247620D01*
X7888095Y37152381D02*
X7935714Y37200000D01*
X8030952Y37247620D01*
X8269047Y37247620D01*
X8364285Y37200000D01*
X8411904Y37152381D01*
X8459523Y37057143D01*
X8459523Y36961905D01*
X8411904Y36819048D01*
X7840476Y36247620D01*
X8459523Y36247620D01*
X9030952Y36819048D02*
X8935714Y36866667D01*
X8888095Y36914286D01*
X8840476Y37009524D01*
X8840476Y37057143D01*
X8888095Y37152381D01*
X8935714Y37200000D01*
X9030952Y37247620D01*
X9221428Y37247620D01*
X9316666Y37200000D01*
X9364285Y37152381D01*
X9411904Y37057143D01*
X9411904Y37009524D01*
X9364285Y36914286D01*
X9316666Y36866667D01*
X9221428Y36819048D01*
X9030952Y36819048D01*
X8935714Y36771429D01*
X8888095Y36723810D01*
X8840476Y36628572D01*
X8840476Y36438096D01*
X8888095Y36342858D01*
X8935714Y36295239D01*
X9030952Y36247620D01*
X9221428Y36247620D01*
X9316666Y36295239D01*
X9364285Y36342858D01*
X9411904Y36438096D01*
X9411904Y36628572D01*
X9364285Y36723810D01*
X9316666Y36771429D01*
X9221428Y36819048D01*
G04 #@! TO.C,J1*
X29952380Y4841667D02*
X30666666Y4841667D01*
X30809523Y4794048D01*
X30904761Y4698810D01*
X30952380Y4555953D01*
X30952380Y4460715D01*
X30952380Y5841667D02*
X30952380Y5270239D01*
X30952380Y5555953D02*
X29952380Y5555953D01*
X30095238Y5460715D01*
X30190476Y5365477D01*
X30238095Y5270239D01*
G04 #@! TO.C,Q8*
X78747619Y91604762D02*
X78700000Y91509524D01*
X78604761Y91414286D01*
X78461904Y91271429D01*
X78414285Y91176191D01*
X78414285Y91080953D01*
X78652380Y91128572D02*
X78604761Y91033334D01*
X78509523Y90938096D01*
X78319047Y90890477D01*
X77985714Y90890477D01*
X77795238Y90938096D01*
X77700000Y91033334D01*
X77652380Y91128572D01*
X77652380Y91319048D01*
X77700000Y91414286D01*
X77795238Y91509524D01*
X77985714Y91557143D01*
X78319047Y91557143D01*
X78509523Y91509524D01*
X78604761Y91414286D01*
X78652380Y91319048D01*
X78652380Y91128572D01*
X78080952Y92128572D02*
X78033333Y92033334D01*
X77985714Y91985715D01*
X77890476Y91938096D01*
X77842857Y91938096D01*
X77747619Y91985715D01*
X77700000Y92033334D01*
X77652380Y92128572D01*
X77652380Y92319048D01*
X77700000Y92414286D01*
X77747619Y92461905D01*
X77842857Y92509524D01*
X77890476Y92509524D01*
X77985714Y92461905D01*
X78033333Y92414286D01*
X78080952Y92319048D01*
X78080952Y92128572D01*
X78128571Y92033334D01*
X78176190Y91985715D01*
X78271428Y91938096D01*
X78461904Y91938096D01*
X78557142Y91985715D01*
X78604761Y92033334D01*
X78652380Y92128572D01*
X78652380Y92319048D01*
X78604761Y92414286D01*
X78557142Y92461905D01*
X78461904Y92509524D01*
X78271428Y92509524D01*
X78176190Y92461905D01*
X78128571Y92414286D01*
X78080952Y92319048D01*
D11*
G04 #@! TO.C,Q4*
X7675238Y49119524D02*
X7660000Y49089048D01*
X7629523Y49058572D01*
X7583809Y49012858D01*
X7568571Y48982381D01*
X7568571Y48951905D01*
X7644761Y48967143D02*
X7629523Y48936667D01*
X7599047Y48906191D01*
X7538095Y48890953D01*
X7431428Y48890953D01*
X7370476Y48906191D01*
X7340000Y48936667D01*
X7324761Y48967143D01*
X7324761Y49028096D01*
X7340000Y49058572D01*
X7370476Y49089048D01*
X7431428Y49104286D01*
X7538095Y49104286D01*
X7599047Y49089048D01*
X7629523Y49058572D01*
X7644761Y49028096D01*
X7644761Y48967143D01*
X7431428Y49378572D02*
X7644761Y49378572D01*
X7309523Y49302381D02*
X7538095Y49226191D01*
X7538095Y49424286D01*
G04 #@! TO.C,Q3*
X8425238Y35569524D02*
X8410000Y35539048D01*
X8379523Y35508572D01*
X8333809Y35462858D01*
X8318571Y35432381D01*
X8318571Y35401905D01*
X8394761Y35417143D02*
X8379523Y35386667D01*
X8349047Y35356191D01*
X8288095Y35340953D01*
X8181428Y35340953D01*
X8120476Y35356191D01*
X8090000Y35386667D01*
X8074761Y35417143D01*
X8074761Y35478096D01*
X8090000Y35508572D01*
X8120476Y35539048D01*
X8181428Y35554286D01*
X8288095Y35554286D01*
X8349047Y35539048D01*
X8379523Y35508572D01*
X8394761Y35478096D01*
X8394761Y35417143D01*
X8074761Y35660953D02*
X8074761Y35859048D01*
X8196666Y35752381D01*
X8196666Y35798096D01*
X8211904Y35828572D01*
X8227142Y35843810D01*
X8257619Y35859048D01*
X8333809Y35859048D01*
X8364285Y35843810D01*
X8379523Y35828572D01*
X8394761Y35798096D01*
X8394761Y35706667D01*
X8379523Y35676191D01*
X8364285Y35660953D01*
D12*
G04 #@! TO.C,U5*
X48295238Y4069048D02*
X48295238Y3745239D01*
X48314285Y3707143D01*
X48333333Y3688096D01*
X48371428Y3669048D01*
X48447619Y3669048D01*
X48485714Y3688096D01*
X48504761Y3707143D01*
X48523809Y3745239D01*
X48523809Y4069048D01*
X48904761Y4069048D02*
X48714285Y4069048D01*
X48695238Y3878572D01*
X48714285Y3897620D01*
X48752380Y3916667D01*
X48847619Y3916667D01*
X48885714Y3897620D01*
X48904761Y3878572D01*
X48923809Y3840477D01*
X48923809Y3745239D01*
X48904761Y3707143D01*
X48885714Y3688096D01*
X48847619Y3669048D01*
X48752380Y3669048D01*
X48714285Y3688096D01*
X48695238Y3707143D01*
D11*
G04 #@! TO.C,Q15*
X12375238Y46117143D02*
X12360000Y46086667D01*
X12329523Y46056191D01*
X12283809Y46010477D01*
X12268571Y45980000D01*
X12268571Y45949524D01*
X12344761Y45964762D02*
X12329523Y45934286D01*
X12299047Y45903810D01*
X12238095Y45888572D01*
X12131428Y45888572D01*
X12070476Y45903810D01*
X12040000Y45934286D01*
X12024761Y45964762D01*
X12024761Y46025715D01*
X12040000Y46056191D01*
X12070476Y46086667D01*
X12131428Y46101905D01*
X12238095Y46101905D01*
X12299047Y46086667D01*
X12329523Y46056191D01*
X12344761Y46025715D01*
X12344761Y45964762D01*
X12344761Y46406667D02*
X12344761Y46223810D01*
X12344761Y46315239D02*
X12024761Y46315239D01*
X12070476Y46284762D01*
X12100952Y46254286D01*
X12116190Y46223810D01*
X12024761Y46696191D02*
X12024761Y46543810D01*
X12177142Y46528572D01*
X12161904Y46543810D01*
X12146666Y46574286D01*
X12146666Y46650477D01*
X12161904Y46680953D01*
X12177142Y46696191D01*
X12207619Y46711429D01*
X12283809Y46711429D01*
X12314285Y46696191D01*
X12329523Y46680953D01*
X12344761Y46650477D01*
X12344761Y46574286D01*
X12329523Y46543810D01*
X12314285Y46528572D01*
G04 #@! TO.C,Q19*
X20627238Y31215143D02*
X20612000Y31184667D01*
X20581523Y31154191D01*
X20535809Y31108477D01*
X20520571Y31078000D01*
X20520571Y31047524D01*
X20596761Y31062762D02*
X20581523Y31032286D01*
X20551047Y31001810D01*
X20490095Y30986572D01*
X20383428Y30986572D01*
X20322476Y31001810D01*
X20292000Y31032286D01*
X20276761Y31062762D01*
X20276761Y31123715D01*
X20292000Y31154191D01*
X20322476Y31184667D01*
X20383428Y31199905D01*
X20490095Y31199905D01*
X20551047Y31184667D01*
X20581523Y31154191D01*
X20596761Y31123715D01*
X20596761Y31062762D01*
X20596761Y31504667D02*
X20596761Y31321810D01*
X20596761Y31413239D02*
X20276761Y31413239D01*
X20322476Y31382762D01*
X20352952Y31352286D01*
X20368190Y31321810D01*
X20596761Y31657048D02*
X20596761Y31718000D01*
X20581523Y31748477D01*
X20566285Y31763715D01*
X20520571Y31794191D01*
X20459619Y31809429D01*
X20337714Y31809429D01*
X20307238Y31794191D01*
X20292000Y31778953D01*
X20276761Y31748477D01*
X20276761Y31687524D01*
X20292000Y31657048D01*
X20307238Y31641810D01*
X20337714Y31626572D01*
X20413904Y31626572D01*
X20444380Y31641810D01*
X20459619Y31657048D01*
X20474857Y31687524D01*
X20474857Y31748477D01*
X20459619Y31778953D01*
X20444380Y31794191D01*
X20413904Y31809429D01*
G04 #@! TO.C,Q18*
X17071238Y31215143D02*
X17056000Y31184667D01*
X17025523Y31154191D01*
X16979809Y31108477D01*
X16964571Y31078000D01*
X16964571Y31047524D01*
X17040761Y31062762D02*
X17025523Y31032286D01*
X16995047Y31001810D01*
X16934095Y30986572D01*
X16827428Y30986572D01*
X16766476Y31001810D01*
X16736000Y31032286D01*
X16720761Y31062762D01*
X16720761Y31123715D01*
X16736000Y31154191D01*
X16766476Y31184667D01*
X16827428Y31199905D01*
X16934095Y31199905D01*
X16995047Y31184667D01*
X17025523Y31154191D01*
X17040761Y31123715D01*
X17040761Y31062762D01*
X17040761Y31504667D02*
X17040761Y31321810D01*
X17040761Y31413239D02*
X16720761Y31413239D01*
X16766476Y31382762D01*
X16796952Y31352286D01*
X16812190Y31321810D01*
X16857904Y31687524D02*
X16842666Y31657048D01*
X16827428Y31641810D01*
X16796952Y31626572D01*
X16781714Y31626572D01*
X16751238Y31641810D01*
X16736000Y31657048D01*
X16720761Y31687524D01*
X16720761Y31748477D01*
X16736000Y31778953D01*
X16751238Y31794191D01*
X16781714Y31809429D01*
X16796952Y31809429D01*
X16827428Y31794191D01*
X16842666Y31778953D01*
X16857904Y31748477D01*
X16857904Y31687524D01*
X16873142Y31657048D01*
X16888380Y31641810D01*
X16918857Y31626572D01*
X16979809Y31626572D01*
X17010285Y31641810D01*
X17025523Y31657048D01*
X17040761Y31687524D01*
X17040761Y31748477D01*
X17025523Y31778953D01*
X17010285Y31794191D01*
X16979809Y31809429D01*
X16918857Y31809429D01*
X16888380Y31794191D01*
X16873142Y31778953D01*
X16857904Y31748477D01*
D13*
G04 #@! TO.C,D26*
X78904285Y85929048D02*
X78904285Y86749048D01*
X79099523Y86749048D01*
X79216666Y86710000D01*
X79294761Y86631905D01*
X79333809Y86553810D01*
X79372857Y86397620D01*
X79372857Y86280477D01*
X79333809Y86124286D01*
X79294761Y86046191D01*
X79216666Y85968096D01*
X79099523Y85929048D01*
X78904285Y85929048D01*
X79685238Y86670953D02*
X79724285Y86710000D01*
X79802380Y86749048D01*
X79997619Y86749048D01*
X80075714Y86710000D01*
X80114761Y86670953D01*
X80153809Y86592858D01*
X80153809Y86514762D01*
X80114761Y86397620D01*
X79646190Y85929048D01*
X80153809Y85929048D01*
X80856666Y86749048D02*
X80700476Y86749048D01*
X80622380Y86710000D01*
X80583333Y86670953D01*
X80505238Y86553810D01*
X80466190Y86397620D01*
X80466190Y86085239D01*
X80505238Y86007143D01*
X80544285Y85968096D01*
X80622380Y85929048D01*
X80778571Y85929048D01*
X80856666Y85968096D01*
X80895714Y86007143D01*
X80934761Y86085239D01*
X80934761Y86280477D01*
X80895714Y86358572D01*
X80856666Y86397620D01*
X80778571Y86436667D01*
X80622380Y86436667D01*
X80544285Y86397620D01*
X80505238Y86358572D01*
X80466190Y86280477D01*
D10*
G04 #@! TO.C,J6*
X57216666Y6197620D02*
X57216666Y5483334D01*
X57169047Y5340477D01*
X57073809Y5245239D01*
X56930952Y5197620D01*
X56835714Y5197620D01*
X58121428Y6197620D02*
X57930952Y6197620D01*
X57835714Y6150000D01*
X57788095Y6102381D01*
X57692857Y5959524D01*
X57645238Y5769048D01*
X57645238Y5388096D01*
X57692857Y5292858D01*
X57740476Y5245239D01*
X57835714Y5197620D01*
X58026190Y5197620D01*
X58121428Y5245239D01*
X58169047Y5292858D01*
X58216666Y5388096D01*
X58216666Y5626191D01*
X58169047Y5721429D01*
X58121428Y5769048D01*
X58026190Y5816667D01*
X57835714Y5816667D01*
X57740476Y5769048D01*
X57692857Y5721429D01*
X57645238Y5626191D01*
D11*
G04 #@! TO.C,Q14*
X52717142Y73924762D02*
X52686666Y73940000D01*
X52656190Y73970477D01*
X52610476Y74016191D01*
X52580000Y74031429D01*
X52549523Y74031429D01*
X52564761Y73955239D02*
X52534285Y73970477D01*
X52503809Y74000953D01*
X52488571Y74061905D01*
X52488571Y74168572D01*
X52503809Y74229524D01*
X52534285Y74260000D01*
X52564761Y74275239D01*
X52625714Y74275239D01*
X52656190Y74260000D01*
X52686666Y74229524D01*
X52701904Y74168572D01*
X52701904Y74061905D01*
X52686666Y74000953D01*
X52656190Y73970477D01*
X52625714Y73955239D01*
X52564761Y73955239D01*
X53006666Y73955239D02*
X52823809Y73955239D01*
X52915238Y73955239D02*
X52915238Y74275239D01*
X52884761Y74229524D01*
X52854285Y74199048D01*
X52823809Y74183810D01*
X53280952Y74168572D02*
X53280952Y73955239D01*
X53204761Y74290477D02*
X53128571Y74061905D01*
X53326666Y74061905D01*
D10*
G04 #@! TO.C,D29*
X11435714Y33047620D02*
X11435714Y34047620D01*
X11673809Y34047620D01*
X11816666Y34000000D01*
X11911904Y33904762D01*
X11959523Y33809524D01*
X12007142Y33619048D01*
X12007142Y33476191D01*
X11959523Y33285715D01*
X11911904Y33190477D01*
X11816666Y33095239D01*
X11673809Y33047620D01*
X11435714Y33047620D01*
X12388095Y33952381D02*
X12435714Y34000000D01*
X12530952Y34047620D01*
X12769047Y34047620D01*
X12864285Y34000000D01*
X12911904Y33952381D01*
X12959523Y33857143D01*
X12959523Y33761905D01*
X12911904Y33619048D01*
X12340476Y33047620D01*
X12959523Y33047620D01*
X13435714Y33047620D02*
X13626190Y33047620D01*
X13721428Y33095239D01*
X13769047Y33142858D01*
X13864285Y33285715D01*
X13911904Y33476191D01*
X13911904Y33857143D01*
X13864285Y33952381D01*
X13816666Y34000000D01*
X13721428Y34047620D01*
X13530952Y34047620D01*
X13435714Y34000000D01*
X13388095Y33952381D01*
X13340476Y33857143D01*
X13340476Y33619048D01*
X13388095Y33523810D01*
X13435714Y33476191D01*
X13530952Y33428572D01*
X13721428Y33428572D01*
X13816666Y33476191D01*
X13864285Y33523810D01*
X13911904Y33619048D01*
D11*
G04 #@! TO.C,Q17*
X11175238Y52417143D02*
X11160000Y52386667D01*
X11129523Y52356191D01*
X11083809Y52310477D01*
X11068571Y52280000D01*
X11068571Y52249524D01*
X11144761Y52264762D02*
X11129523Y52234286D01*
X11099047Y52203810D01*
X11038095Y52188572D01*
X10931428Y52188572D01*
X10870476Y52203810D01*
X10840000Y52234286D01*
X10824761Y52264762D01*
X10824761Y52325715D01*
X10840000Y52356191D01*
X10870476Y52386667D01*
X10931428Y52401905D01*
X11038095Y52401905D01*
X11099047Y52386667D01*
X11129523Y52356191D01*
X11144761Y52325715D01*
X11144761Y52264762D01*
X11144761Y52706667D02*
X11144761Y52523810D01*
X11144761Y52615239D02*
X10824761Y52615239D01*
X10870476Y52584762D01*
X10900952Y52554286D01*
X10916190Y52523810D01*
X10824761Y52813334D02*
X10824761Y53026667D01*
X11144761Y52889524D01*
G04 #@! TO.C,Q20*
X20617142Y51524762D02*
X20586666Y51540000D01*
X20556190Y51570477D01*
X20510476Y51616191D01*
X20480000Y51631429D01*
X20449523Y51631429D01*
X20464761Y51555239D02*
X20434285Y51570477D01*
X20403809Y51600953D01*
X20388571Y51661905D01*
X20388571Y51768572D01*
X20403809Y51829524D01*
X20434285Y51860000D01*
X20464761Y51875239D01*
X20525714Y51875239D01*
X20556190Y51860000D01*
X20586666Y51829524D01*
X20601904Y51768572D01*
X20601904Y51661905D01*
X20586666Y51600953D01*
X20556190Y51570477D01*
X20525714Y51555239D01*
X20464761Y51555239D01*
X20723809Y51844762D02*
X20739047Y51860000D01*
X20769523Y51875239D01*
X20845714Y51875239D01*
X20876190Y51860000D01*
X20891428Y51844762D01*
X20906666Y51814286D01*
X20906666Y51783810D01*
X20891428Y51738096D01*
X20708571Y51555239D01*
X20906666Y51555239D01*
X21104761Y51875239D02*
X21135238Y51875239D01*
X21165714Y51860000D01*
X21180952Y51844762D01*
X21196190Y51814286D01*
X21211428Y51753334D01*
X21211428Y51677143D01*
X21196190Y51616191D01*
X21180952Y51585715D01*
X21165714Y51570477D01*
X21135238Y51555239D01*
X21104761Y51555239D01*
X21074285Y51570477D01*
X21059047Y51585715D01*
X21043809Y51616191D01*
X21028571Y51677143D01*
X21028571Y51753334D01*
X21043809Y51814286D01*
X21059047Y51844762D01*
X21074285Y51860000D01*
X21104761Y51875239D01*
G04 #@! TO.C,Q5*
X7675238Y52669524D02*
X7660000Y52639048D01*
X7629523Y52608572D01*
X7583809Y52562858D01*
X7568571Y52532381D01*
X7568571Y52501905D01*
X7644761Y52517143D02*
X7629523Y52486667D01*
X7599047Y52456191D01*
X7538095Y52440953D01*
X7431428Y52440953D01*
X7370476Y52456191D01*
X7340000Y52486667D01*
X7324761Y52517143D01*
X7324761Y52578096D01*
X7340000Y52608572D01*
X7370476Y52639048D01*
X7431428Y52654286D01*
X7538095Y52654286D01*
X7599047Y52639048D01*
X7629523Y52608572D01*
X7644761Y52578096D01*
X7644761Y52517143D01*
X7324761Y52943810D02*
X7324761Y52791429D01*
X7477142Y52776191D01*
X7461904Y52791429D01*
X7446666Y52821905D01*
X7446666Y52898096D01*
X7461904Y52928572D01*
X7477142Y52943810D01*
X7507619Y52959048D01*
X7583809Y52959048D01*
X7614285Y52943810D01*
X7629523Y52928572D01*
X7644761Y52898096D01*
X7644761Y52821905D01*
X7629523Y52791429D01*
X7614285Y52776191D01*
G04 #@! TO.C,Q12*
X56695142Y73924762D02*
X56664666Y73940000D01*
X56634190Y73970477D01*
X56588476Y74016191D01*
X56558000Y74031429D01*
X56527523Y74031429D01*
X56542761Y73955239D02*
X56512285Y73970477D01*
X56481809Y74000953D01*
X56466571Y74061905D01*
X56466571Y74168572D01*
X56481809Y74229524D01*
X56512285Y74260000D01*
X56542761Y74275239D01*
X56603714Y74275239D01*
X56634190Y74260000D01*
X56664666Y74229524D01*
X56679904Y74168572D01*
X56679904Y74061905D01*
X56664666Y74000953D01*
X56634190Y73970477D01*
X56603714Y73955239D01*
X56542761Y73955239D01*
X56984666Y73955239D02*
X56801809Y73955239D01*
X56893238Y73955239D02*
X56893238Y74275239D01*
X56862761Y74229524D01*
X56832285Y74199048D01*
X56801809Y74183810D01*
X57106571Y74244762D02*
X57121809Y74260000D01*
X57152285Y74275239D01*
X57228476Y74275239D01*
X57258952Y74260000D01*
X57274190Y74244762D01*
X57289428Y74214286D01*
X57289428Y74183810D01*
X57274190Y74138096D01*
X57091333Y73955239D01*
X57289428Y73955239D01*
G04 #@! TO.C,Q2*
X8675238Y46369524D02*
X8660000Y46339048D01*
X8629523Y46308572D01*
X8583809Y46262858D01*
X8568571Y46232381D01*
X8568571Y46201905D01*
X8644761Y46217143D02*
X8629523Y46186667D01*
X8599047Y46156191D01*
X8538095Y46140953D01*
X8431428Y46140953D01*
X8370476Y46156191D01*
X8340000Y46186667D01*
X8324761Y46217143D01*
X8324761Y46278096D01*
X8340000Y46308572D01*
X8370476Y46339048D01*
X8431428Y46354286D01*
X8538095Y46354286D01*
X8599047Y46339048D01*
X8629523Y46308572D01*
X8644761Y46278096D01*
X8644761Y46217143D01*
X8355238Y46476191D02*
X8340000Y46491429D01*
X8324761Y46521905D01*
X8324761Y46598096D01*
X8340000Y46628572D01*
X8355238Y46643810D01*
X8385714Y46659048D01*
X8416190Y46659048D01*
X8461904Y46643810D01*
X8644761Y46460953D01*
X8644761Y46659048D01*
G04 #@! TO.C,Q16*
X11175238Y49017143D02*
X11160000Y48986667D01*
X11129523Y48956191D01*
X11083809Y48910477D01*
X11068571Y48880000D01*
X11068571Y48849524D01*
X11144761Y48864762D02*
X11129523Y48834286D01*
X11099047Y48803810D01*
X11038095Y48788572D01*
X10931428Y48788572D01*
X10870476Y48803810D01*
X10840000Y48834286D01*
X10824761Y48864762D01*
X10824761Y48925715D01*
X10840000Y48956191D01*
X10870476Y48986667D01*
X10931428Y49001905D01*
X11038095Y49001905D01*
X11099047Y48986667D01*
X11129523Y48956191D01*
X11144761Y48925715D01*
X11144761Y48864762D01*
X11144761Y49306667D02*
X11144761Y49123810D01*
X11144761Y49215239D02*
X10824761Y49215239D01*
X10870476Y49184762D01*
X10900952Y49154286D01*
X10916190Y49123810D01*
X10824761Y49580953D02*
X10824761Y49520000D01*
X10840000Y49489524D01*
X10855238Y49474286D01*
X10900952Y49443810D01*
X10961904Y49428572D01*
X11083809Y49428572D01*
X11114285Y49443810D01*
X11129523Y49459048D01*
X11144761Y49489524D01*
X11144761Y49550477D01*
X11129523Y49580953D01*
X11114285Y49596191D01*
X11083809Y49611429D01*
X11007619Y49611429D01*
X10977142Y49596191D01*
X10961904Y49580953D01*
X10946666Y49550477D01*
X10946666Y49489524D01*
X10961904Y49459048D01*
X10977142Y49443810D01*
X11007619Y49428572D01*
D10*
G04 #@! TO.C,Q7*
X70347619Y91604762D02*
X70300000Y91509524D01*
X70204761Y91414286D01*
X70061904Y91271429D01*
X70014285Y91176191D01*
X70014285Y91080953D01*
X70252380Y91128572D02*
X70204761Y91033334D01*
X70109523Y90938096D01*
X69919047Y90890477D01*
X69585714Y90890477D01*
X69395238Y90938096D01*
X69300000Y91033334D01*
X69252380Y91128572D01*
X69252380Y91319048D01*
X69300000Y91414286D01*
X69395238Y91509524D01*
X69585714Y91557143D01*
X69919047Y91557143D01*
X70109523Y91509524D01*
X70204761Y91414286D01*
X70252380Y91319048D01*
X70252380Y91128572D01*
X69252380Y91890477D02*
X69252380Y92557143D01*
X70252380Y92128572D01*
G04 #@! TO.C,Q6*
X70172619Y76779762D02*
X70125000Y76684524D01*
X70029761Y76589286D01*
X69886904Y76446429D01*
X69839285Y76351191D01*
X69839285Y76255953D01*
X70077380Y76303572D02*
X70029761Y76208334D01*
X69934523Y76113096D01*
X69744047Y76065477D01*
X69410714Y76065477D01*
X69220238Y76113096D01*
X69125000Y76208334D01*
X69077380Y76303572D01*
X69077380Y76494048D01*
X69125000Y76589286D01*
X69220238Y76684524D01*
X69410714Y76732143D01*
X69744047Y76732143D01*
X69934523Y76684524D01*
X70029761Y76589286D01*
X70077380Y76494048D01*
X70077380Y76303572D01*
X69077380Y77589286D02*
X69077380Y77398810D01*
X69125000Y77303572D01*
X69172619Y77255953D01*
X69315476Y77160715D01*
X69505952Y77113096D01*
X69886904Y77113096D01*
X69982142Y77160715D01*
X70029761Y77208334D01*
X70077380Y77303572D01*
X70077380Y77494048D01*
X70029761Y77589286D01*
X69982142Y77636905D01*
X69886904Y77684524D01*
X69648809Y77684524D01*
X69553571Y77636905D01*
X69505952Y77589286D01*
X69458333Y77494048D01*
X69458333Y77303572D01*
X69505952Y77208334D01*
X69553571Y77160715D01*
X69648809Y77113096D01*
D11*
G04 #@! TO.C,Q21*
X20617142Y48124762D02*
X20586666Y48140000D01*
X20556190Y48170477D01*
X20510476Y48216191D01*
X20480000Y48231429D01*
X20449523Y48231429D01*
X20464761Y48155239D02*
X20434285Y48170477D01*
X20403809Y48200953D01*
X20388571Y48261905D01*
X20388571Y48368572D01*
X20403809Y48429524D01*
X20434285Y48460000D01*
X20464761Y48475239D01*
X20525714Y48475239D01*
X20556190Y48460000D01*
X20586666Y48429524D01*
X20601904Y48368572D01*
X20601904Y48261905D01*
X20586666Y48200953D01*
X20556190Y48170477D01*
X20525714Y48155239D01*
X20464761Y48155239D01*
X20723809Y48444762D02*
X20739047Y48460000D01*
X20769523Y48475239D01*
X20845714Y48475239D01*
X20876190Y48460000D01*
X20891428Y48444762D01*
X20906666Y48414286D01*
X20906666Y48383810D01*
X20891428Y48338096D01*
X20708571Y48155239D01*
X20906666Y48155239D01*
X21211428Y48155239D02*
X21028571Y48155239D01*
X21120000Y48155239D02*
X21120000Y48475239D01*
X21089523Y48429524D01*
X21059047Y48399048D01*
X21028571Y48383810D01*
D10*
G04 #@! TO.C,D27*
X13135714Y40247620D02*
X13135714Y41247620D01*
X13373809Y41247620D01*
X13516666Y41200000D01*
X13611904Y41104762D01*
X13659523Y41009524D01*
X13707142Y40819048D01*
X13707142Y40676191D01*
X13659523Y40485715D01*
X13611904Y40390477D01*
X13516666Y40295239D01*
X13373809Y40247620D01*
X13135714Y40247620D01*
X14088095Y41152381D02*
X14135714Y41200000D01*
X14230952Y41247620D01*
X14469047Y41247620D01*
X14564285Y41200000D01*
X14611904Y41152381D01*
X14659523Y41057143D01*
X14659523Y40961905D01*
X14611904Y40819048D01*
X14040476Y40247620D01*
X14659523Y40247620D01*
X14992857Y41247620D02*
X15659523Y41247620D01*
X15230952Y40247620D01*
D11*
G04 #@! TO.C,Q10*
X14575238Y42217143D02*
X14560000Y42186667D01*
X14529523Y42156191D01*
X14483809Y42110477D01*
X14468571Y42080000D01*
X14468571Y42049524D01*
X14544761Y42064762D02*
X14529523Y42034286D01*
X14499047Y42003810D01*
X14438095Y41988572D01*
X14331428Y41988572D01*
X14270476Y42003810D01*
X14240000Y42034286D01*
X14224761Y42064762D01*
X14224761Y42125715D01*
X14240000Y42156191D01*
X14270476Y42186667D01*
X14331428Y42201905D01*
X14438095Y42201905D01*
X14499047Y42186667D01*
X14529523Y42156191D01*
X14544761Y42125715D01*
X14544761Y42064762D01*
X14544761Y42506667D02*
X14544761Y42323810D01*
X14544761Y42415239D02*
X14224761Y42415239D01*
X14270476Y42384762D01*
X14300952Y42354286D01*
X14316190Y42323810D01*
X14224761Y42704762D02*
X14224761Y42735239D01*
X14240000Y42765715D01*
X14255238Y42780953D01*
X14285714Y42796191D01*
X14346666Y42811429D01*
X14422857Y42811429D01*
X14483809Y42796191D01*
X14514285Y42780953D01*
X14529523Y42765715D01*
X14544761Y42735239D01*
X14544761Y42704762D01*
X14529523Y42674286D01*
X14514285Y42659048D01*
X14483809Y42643810D01*
X14422857Y42628572D01*
X14346666Y42628572D01*
X14285714Y42643810D01*
X14255238Y42659048D01*
X14240000Y42674286D01*
X14224761Y42704762D01*
G04 #@! TO.C,Q11*
X16867142Y35324762D02*
X16836666Y35340000D01*
X16806190Y35370477D01*
X16760476Y35416191D01*
X16730000Y35431429D01*
X16699523Y35431429D01*
X16714761Y35355239D02*
X16684285Y35370477D01*
X16653809Y35400953D01*
X16638571Y35461905D01*
X16638571Y35568572D01*
X16653809Y35629524D01*
X16684285Y35660000D01*
X16714761Y35675239D01*
X16775714Y35675239D01*
X16806190Y35660000D01*
X16836666Y35629524D01*
X16851904Y35568572D01*
X16851904Y35461905D01*
X16836666Y35400953D01*
X16806190Y35370477D01*
X16775714Y35355239D01*
X16714761Y35355239D01*
X17156666Y35355239D02*
X16973809Y35355239D01*
X17065238Y35355239D02*
X17065238Y35675239D01*
X17034761Y35629524D01*
X17004285Y35599048D01*
X16973809Y35583810D01*
X17461428Y35355239D02*
X17278571Y35355239D01*
X17370000Y35355239D02*
X17370000Y35675239D01*
X17339523Y35629524D01*
X17309047Y35599048D01*
X17278571Y35583810D01*
D13*
G04 #@! TO.C,D25*
X75770952Y98704286D02*
X74950952Y98704286D01*
X74950952Y98899524D01*
X74990000Y99016667D01*
X75068095Y99094762D01*
X75146190Y99133810D01*
X75302380Y99172858D01*
X75419523Y99172858D01*
X75575714Y99133810D01*
X75653809Y99094762D01*
X75731904Y99016667D01*
X75770952Y98899524D01*
X75770952Y98704286D01*
X75029047Y99485239D02*
X74990000Y99524286D01*
X74950952Y99602381D01*
X74950952Y99797620D01*
X74990000Y99875715D01*
X75029047Y99914762D01*
X75107142Y99953810D01*
X75185238Y99953810D01*
X75302380Y99914762D01*
X75770952Y99446191D01*
X75770952Y99953810D01*
X74950952Y100695715D02*
X74950952Y100305239D01*
X75341428Y100266191D01*
X75302380Y100305239D01*
X75263333Y100383334D01*
X75263333Y100578572D01*
X75302380Y100656667D01*
X75341428Y100695715D01*
X75419523Y100734762D01*
X75614761Y100734762D01*
X75692857Y100695715D01*
X75731904Y100656667D01*
X75770952Y100578572D01*
X75770952Y100383334D01*
X75731904Y100305239D01*
X75692857Y100266191D01*
D10*
G04 #@! TO.C,Q9*
X78822619Y76904762D02*
X78775000Y76809524D01*
X78679761Y76714286D01*
X78536904Y76571429D01*
X78489285Y76476191D01*
X78489285Y76380953D01*
X78727380Y76428572D02*
X78679761Y76333334D01*
X78584523Y76238096D01*
X78394047Y76190477D01*
X78060714Y76190477D01*
X77870238Y76238096D01*
X77775000Y76333334D01*
X77727380Y76428572D01*
X77727380Y76619048D01*
X77775000Y76714286D01*
X77870238Y76809524D01*
X78060714Y76857143D01*
X78394047Y76857143D01*
X78584523Y76809524D01*
X78679761Y76714286D01*
X78727380Y76619048D01*
X78727380Y76428572D01*
X78727380Y77333334D02*
X78727380Y77523810D01*
X78679761Y77619048D01*
X78632142Y77666667D01*
X78489285Y77761905D01*
X78298809Y77809524D01*
X77917857Y77809524D01*
X77822619Y77761905D01*
X77775000Y77714286D01*
X77727380Y77619048D01*
X77727380Y77428572D01*
X77775000Y77333334D01*
X77822619Y77285715D01*
X77917857Y77238096D01*
X78155952Y77238096D01*
X78251190Y77285715D01*
X78298809Y77333334D01*
X78346428Y77428572D01*
X78346428Y77619048D01*
X78298809Y77714286D01*
X78251190Y77761905D01*
X78155952Y77809524D01*
D14*
G04 #@! TO.C,Q13*
X54750000Y76050000D02*
X54750000Y78950000D01*
X56050000Y76375000D02*
X55725000Y76050000D01*
X54750000Y78950000D02*
X56050000Y78950000D01*
X55725000Y76050000D02*
X54750000Y76050000D01*
X56050000Y78950000D02*
X56050000Y76375000D01*
G04 #@! TO.C,Q1*
X6700000Y31175000D02*
X6700000Y32150000D01*
X7025000Y30850000D02*
X6700000Y31175000D01*
X6700000Y32150000D02*
X9600000Y32150000D01*
X9600000Y30850000D02*
X7025000Y30850000D01*
X9600000Y32150000D02*
X9600000Y30850000D01*
G04 #@! TO.C,P2*
X60688000Y73735000D02*
X61323000Y74370000D01*
X60688000Y71830000D02*
X60688000Y73735000D01*
X61323000Y74370000D02*
X63228000Y74370000D01*
X63228000Y74370000D02*
X63228000Y71830000D01*
X63228000Y71830000D02*
X60688000Y71830000D01*
G04 #@! TO.C,J1*
X26950000Y9825000D02*
X27300000Y9325000D01*
X25050000Y9825000D02*
X32750000Y9825000D01*
X32750000Y625000D02*
X32750000Y9825000D01*
X25050000Y625000D02*
X32750000Y625000D01*
X25050000Y9825000D02*
X25050000Y625000D01*
X27300000Y9325000D02*
X27650000Y9825000D01*
G04 #@! TO.C,Q8*
X81450000Y95650000D02*
X81450000Y89430000D01*
X80900000Y96650000D02*
X80900000Y95650000D01*
X76295000Y86730000D02*
X76295000Y89430000D01*
X81450000Y89430000D02*
X75950000Y89430000D01*
X80855000Y86730000D02*
X80855000Y89430000D01*
X75545000Y89835000D02*
X75545000Y86730000D01*
X80105000Y89430000D02*
X80105000Y86730000D01*
X75500000Y96650000D02*
X80900000Y96650000D01*
X75545000Y86730000D02*
X76295000Y86730000D01*
X74950000Y90430000D02*
X74950000Y95650000D01*
X74950000Y95650000D02*
X81450000Y95650000D01*
X80105000Y86730000D02*
X80855000Y86730000D01*
X75950000Y89430000D02*
X74950000Y90430000D01*
X75500000Y95650000D02*
X75500000Y96650000D01*
G04 #@! TO.C,Q4*
X6050000Y49800000D02*
X8625000Y49800000D01*
X8950000Y48500000D02*
X6050000Y48500000D01*
X6050000Y48500000D02*
X6050000Y49800000D01*
X8625000Y49800000D02*
X8950000Y49475000D01*
X8950000Y49475000D02*
X8950000Y48500000D01*
G04 #@! TO.C,Q3*
X7125000Y34950000D02*
X6800000Y35275000D01*
X9700000Y36250000D02*
X9700000Y34950000D01*
X6800000Y36250000D02*
X9700000Y36250000D01*
X9700000Y34950000D02*
X7125000Y34950000D01*
X6800000Y35275000D02*
X6800000Y36250000D01*
G04 #@! TO.C,U5*
X47800000Y5300000D02*
X49400000Y5300000D01*
X47800000Y2400000D02*
X47800000Y5300000D01*
X49000000Y2400000D02*
X47800000Y2400000D01*
X49400000Y2800000D02*
X49000000Y2400000D01*
X49400000Y5300000D02*
X49400000Y2800000D01*
G04 #@! TO.C,Q15*
X10750000Y46950000D02*
X13650000Y46950000D01*
X10750000Y45975000D02*
X10750000Y46950000D01*
X13650000Y46950000D02*
X13650000Y45650000D01*
X13650000Y45650000D02*
X11075000Y45650000D01*
X11075000Y45650000D02*
X10750000Y45975000D01*
G04 #@! TO.C,Q19*
X21902000Y30748000D02*
X19327000Y30748000D01*
X19002000Y32048000D02*
X21902000Y32048000D01*
X21902000Y32048000D02*
X21902000Y30748000D01*
X19002000Y31073000D02*
X19002000Y32048000D01*
X19327000Y30748000D02*
X19002000Y31073000D01*
G04 #@! TO.C,Q18*
X18021000Y32048000D02*
X18346000Y31723000D01*
X15446000Y32048000D02*
X18021000Y32048000D01*
X18346000Y31723000D02*
X18346000Y30748000D01*
X18346000Y30748000D02*
X15446000Y30748000D01*
X15446000Y30748000D02*
X15446000Y32048000D01*
G04 #@! TO.C,Q14*
X52250000Y75550000D02*
X53550000Y75550000D01*
X53550000Y72975000D02*
X53225000Y72650000D01*
X52250000Y72650000D02*
X52250000Y75550000D01*
X53550000Y75550000D02*
X53550000Y72975000D01*
X53225000Y72650000D02*
X52250000Y72650000D01*
D10*
G04 #@! TO.C,U1*
X24964000Y71450000D02*
X28864000Y71450000D01*
X29864000Y70450000D02*
X29864000Y67550000D01*
X28864000Y71450000D02*
X29864000Y70450000D01*
X24964000Y67550000D02*
X24964000Y71450000D01*
X29864000Y67550000D02*
X24964000Y67550000D01*
D14*
G04 #@! TO.C,Q17*
X9550000Y51950000D02*
X9550000Y53250000D01*
X12450000Y52925000D02*
X12450000Y51950000D01*
X12450000Y51950000D02*
X9550000Y51950000D01*
X12125000Y53250000D02*
X12450000Y52925000D01*
X9550000Y53250000D02*
X12125000Y53250000D01*
G04 #@! TO.C,Q20*
X21125000Y50250000D02*
X20150000Y50250000D01*
X20150000Y50250000D02*
X20150000Y53150000D01*
X21450000Y53150000D02*
X21450000Y50575000D01*
X21450000Y50575000D02*
X21125000Y50250000D01*
X20150000Y53150000D02*
X21450000Y53150000D01*
G04 #@! TO.C,Q5*
X8950000Y52050000D02*
X6050000Y52050000D01*
X6050000Y52050000D02*
X6050000Y53350000D01*
X6050000Y53350000D02*
X8625000Y53350000D01*
X8625000Y53350000D02*
X8950000Y53025000D01*
X8950000Y53025000D02*
X8950000Y52050000D01*
G04 #@! TO.C,Q12*
X57528000Y72975000D02*
X57203000Y72650000D01*
X56228000Y72650000D02*
X56228000Y75550000D01*
X57528000Y75550000D02*
X57528000Y72975000D01*
X56228000Y75550000D02*
X57528000Y75550000D01*
X57203000Y72650000D02*
X56228000Y72650000D01*
G04 #@! TO.C,Q2*
X9950000Y45750000D02*
X7375000Y45750000D01*
X7375000Y45750000D02*
X7050000Y46075000D01*
X7050000Y46075000D02*
X7050000Y47050000D01*
X7050000Y47050000D02*
X9950000Y47050000D01*
X9950000Y47050000D02*
X9950000Y45750000D01*
D15*
G04 #@! TO.C,U3*
X80882500Y10082500D02*
X73517500Y10082500D01*
X80882500Y2717500D02*
X73517500Y2717500D01*
X80882500Y10082500D02*
X80882500Y2717500D01*
X73517500Y10082500D02*
X73517500Y2717500D01*
D16*
X79795000Y12700000D02*
G75*
G03*
X79795000Y12700000I-100000J0D01*
G01*
D14*
G04 #@! TO.C,Q16*
X12125000Y49850000D02*
X12450000Y49525000D01*
X12450000Y48550000D02*
X9550000Y48550000D01*
X12450000Y49525000D02*
X12450000Y48550000D01*
X9550000Y48550000D02*
X9550000Y49850000D01*
X9550000Y49850000D02*
X12125000Y49850000D01*
D15*
G04 #@! TO.C,U4*
X6850000Y275000D02*
X6850000Y27525000D01*
X19550000Y275000D02*
X6850000Y275000D01*
X19550000Y27525000D02*
X19550000Y275000D01*
X6850000Y27525000D02*
X19550000Y27525000D01*
D16*
X21300000Y7600000D02*
G75*
G03*
X21300000Y7600000I-100000J0D01*
G01*
D14*
G04 #@! TO.C,Q7*
X72455000Y86730000D02*
X72455000Y89430000D01*
X67100000Y96650000D02*
X72500000Y96650000D01*
X71705000Y89430000D02*
X71705000Y86730000D01*
X67145000Y86730000D02*
X67895000Y86730000D01*
X67550000Y89430000D02*
X66550000Y90430000D01*
X67895000Y86730000D02*
X67895000Y89430000D01*
X67145000Y89835000D02*
X67145000Y86730000D01*
X73050000Y95650000D02*
X73050000Y89430000D01*
X71705000Y86730000D02*
X72455000Y86730000D01*
X67100000Y95650000D02*
X67100000Y96650000D01*
X66550000Y95650000D02*
X73050000Y95650000D01*
X72500000Y96650000D02*
X72500000Y95650000D01*
X73050000Y89430000D02*
X67550000Y89430000D01*
X66550000Y90430000D02*
X66550000Y95650000D01*
G04 #@! TO.C,Q6*
X66925000Y80825000D02*
X66925000Y81825000D01*
X66970000Y75010000D02*
X66970000Y71905000D01*
X67720000Y71905000D02*
X67720000Y74605000D01*
X66925000Y81825000D02*
X72325000Y81825000D01*
X66970000Y71905000D02*
X67720000Y71905000D01*
X66375000Y75605000D02*
X66375000Y80825000D01*
X72875000Y74605000D02*
X67375000Y74605000D01*
X66375000Y80825000D02*
X72875000Y80825000D01*
X72875000Y80825000D02*
X72875000Y74605000D01*
X67375000Y74605000D02*
X66375000Y75605000D01*
X72280000Y71905000D02*
X72280000Y74605000D01*
X71530000Y71905000D02*
X72280000Y71905000D01*
X71530000Y74605000D02*
X71530000Y71905000D01*
X72325000Y81825000D02*
X72325000Y80825000D01*
G04 #@! TO.C,Q21*
X20150000Y46850000D02*
X20150000Y49750000D01*
X20150000Y49750000D02*
X21450000Y49750000D01*
X21125000Y46850000D02*
X20150000Y46850000D01*
X21450000Y49750000D02*
X21450000Y47175000D01*
X21450000Y47175000D02*
X21125000Y46850000D01*
G04 #@! TO.C,Q10*
X12950000Y42075000D02*
X12950000Y43050000D01*
X15850000Y43050000D02*
X15850000Y41750000D01*
X12950000Y43050000D02*
X15850000Y43050000D01*
X15850000Y41750000D02*
X13275000Y41750000D01*
X13275000Y41750000D02*
X12950000Y42075000D01*
G04 #@! TO.C,Q11*
X17700000Y36950000D02*
X17700000Y34050000D01*
X16400000Y34050000D02*
X16400000Y36625000D01*
X17700000Y34050000D02*
X16400000Y34050000D01*
X16725000Y36950000D02*
X17700000Y36950000D01*
X16400000Y36625000D02*
X16725000Y36950000D01*
G04 #@! TO.C,Q9*
X81525000Y80950000D02*
X81525000Y74730000D01*
X75025000Y75730000D02*
X75025000Y80950000D01*
X75575000Y80950000D02*
X75575000Y81950000D01*
X75620000Y72030000D02*
X76370000Y72030000D01*
X80180000Y72030000D02*
X80930000Y72030000D01*
X75620000Y75135000D02*
X75620000Y72030000D01*
X76370000Y72030000D02*
X76370000Y74730000D01*
X75575000Y81950000D02*
X80975000Y81950000D01*
X75025000Y80950000D02*
X81525000Y80950000D01*
X80975000Y81950000D02*
X80975000Y80950000D01*
X76025000Y74730000D02*
X75025000Y75730000D01*
X81525000Y74730000D02*
X76025000Y74730000D01*
X80930000Y72030000D02*
X80930000Y74730000D01*
X80180000Y74730000D02*
X80180000Y72030000D01*
G04 #@! TO.C,J2*
X43558607Y10395000D02*
X43123607Y10830000D01*
X43558607Y9350000D02*
X43958607Y9350000D01*
X49473607Y10395000D02*
X43558607Y10395000D01*
X47368607Y9350000D02*
X47768607Y9350000D01*
X47368607Y10395000D02*
X47368607Y9350000D01*
X43123607Y13805000D02*
X49473607Y13805000D01*
X47768607Y9350000D02*
X47768607Y10395000D01*
X48638607Y9350000D02*
X49038607Y9350000D01*
X43958607Y14850000D02*
X43958607Y13805000D01*
X44828607Y10395000D02*
X44828607Y9350000D01*
X46098607Y13805000D02*
X46098607Y14850000D01*
X43558607Y14850000D02*
X43958607Y14850000D01*
X43558607Y10395000D02*
X43558607Y9350000D01*
X48638607Y14850000D02*
X49038607Y14850000D01*
X45228607Y9350000D02*
X45228607Y10395000D01*
X44828607Y13805000D02*
X44828607Y14850000D01*
X48638607Y10395000D02*
X48638607Y9350000D01*
X49038607Y9350000D02*
X49038607Y10395000D01*
X49473607Y13805000D02*
X49473607Y10395000D01*
X46498607Y9350000D02*
X46498607Y10395000D01*
X43123607Y10830000D02*
X43123607Y13805000D01*
X43558607Y13805000D02*
X43558607Y14850000D01*
X45228607Y14850000D02*
X45228607Y13805000D01*
X46098607Y10395000D02*
X46098607Y9350000D01*
X43958607Y9350000D02*
X43958607Y10395000D01*
X44828607Y14850000D02*
X45228607Y14850000D01*
X47368607Y13805000D02*
X47368607Y14850000D01*
X46098607Y9350000D02*
X46498607Y9350000D01*
X47768607Y14850000D02*
X47768607Y13805000D01*
X48638607Y13805000D02*
X48638607Y14850000D01*
X49038607Y14850000D02*
X49038607Y13805000D01*
X46098607Y14850000D02*
X46498607Y14850000D01*
X47368607Y14850000D02*
X47768607Y14850000D01*
X46498607Y14850000D02*
X46498607Y13805000D01*
X44828607Y9350000D02*
X45228607Y9350000D01*
G04 #@! TD*
M02*
