G04 #@! TF.GenerationSoftware,KiCad,Pcbnew,(6.0.9)*
G04 #@! TF.CreationDate,2022-12-11T18:11:54+03:00*
G04 #@! TF.ProjectId,alphax_2ch,616c7068-6178-45f3-9263-682e6b696361,E*
G04 #@! TF.SameCoordinates,PX141f5e0PYa2cace0*
G04 #@! TF.FileFunction,AssemblyDrawing,Top*
%FSLAX46Y46*%
G04 Gerber Fmt 4.6, Leading zero omitted, Abs format (unit mm)*
G04 Created by KiCad (PCBNEW (6.0.9)) date 2022-12-11 18:11:54*
%MOMM*%
%LPD*%
G01*
G04 APERTURE LIST*
%ADD10C,0.050000*%
%ADD11C,0.150000*%
%ADD12C,0.170000*%
%ADD13C,0.100000*%
%ADD14C,0.127000*%
%ADD15C,0.200000*%
G04 APERTURE END LIST*
D10*
G04 #@! TO.C,Q13*
X55217142Y77324762D02*
X55186666Y77340000D01*
X55156190Y77370477D01*
X55110476Y77416191D01*
X55080000Y77431429D01*
X55049523Y77431429D01*
X55064761Y77355239D02*
X55034285Y77370477D01*
X55003809Y77400953D01*
X54988571Y77461905D01*
X54988571Y77568572D01*
X55003809Y77629524D01*
X55034285Y77660000D01*
X55064761Y77675239D01*
X55125714Y77675239D01*
X55156190Y77660000D01*
X55186666Y77629524D01*
X55201904Y77568572D01*
X55201904Y77461905D01*
X55186666Y77400953D01*
X55156190Y77370477D01*
X55125714Y77355239D01*
X55064761Y77355239D01*
X55506666Y77355239D02*
X55323809Y77355239D01*
X55415238Y77355239D02*
X55415238Y77675239D01*
X55384761Y77629524D01*
X55354285Y77599048D01*
X55323809Y77583810D01*
X55613333Y77675239D02*
X55811428Y77675239D01*
X55704761Y77553334D01*
X55750476Y77553334D01*
X55780952Y77538096D01*
X55796190Y77522858D01*
X55811428Y77492381D01*
X55811428Y77416191D01*
X55796190Y77385715D01*
X55780952Y77370477D01*
X55750476Y77355239D01*
X55659047Y77355239D01*
X55628571Y77370477D01*
X55613333Y77385715D01*
G04 #@! TO.C,Q1*
X12759523Y29734762D02*
X12729047Y29750000D01*
X12698571Y29780477D01*
X12652857Y29826191D01*
X12622380Y29841429D01*
X12591904Y29841429D01*
X12607142Y29765239D02*
X12576666Y29780477D01*
X12546190Y29810953D01*
X12530952Y29871905D01*
X12530952Y29978572D01*
X12546190Y30039524D01*
X12576666Y30070000D01*
X12607142Y30085239D01*
X12668095Y30085239D01*
X12698571Y30070000D01*
X12729047Y30039524D01*
X12744285Y29978572D01*
X12744285Y29871905D01*
X12729047Y29810953D01*
X12698571Y29780477D01*
X12668095Y29765239D01*
X12607142Y29765239D01*
X13049047Y29765239D02*
X12866190Y29765239D01*
X12957619Y29765239D02*
X12957619Y30085239D01*
X12927142Y30039524D01*
X12896666Y30009048D01*
X12866190Y29993810D01*
D11*
G04 #@! TO.C,D28*
X6935714Y36347620D02*
X6935714Y37347620D01*
X7173809Y37347620D01*
X7316666Y37300000D01*
X7411904Y37204762D01*
X7459523Y37109524D01*
X7507142Y36919048D01*
X7507142Y36776191D01*
X7459523Y36585715D01*
X7411904Y36490477D01*
X7316666Y36395239D01*
X7173809Y36347620D01*
X6935714Y36347620D01*
X7888095Y37252381D02*
X7935714Y37300000D01*
X8030952Y37347620D01*
X8269047Y37347620D01*
X8364285Y37300000D01*
X8411904Y37252381D01*
X8459523Y37157143D01*
X8459523Y37061905D01*
X8411904Y36919048D01*
X7840476Y36347620D01*
X8459523Y36347620D01*
X9030952Y36919048D02*
X8935714Y36966667D01*
X8888095Y37014286D01*
X8840476Y37109524D01*
X8840476Y37157143D01*
X8888095Y37252381D01*
X8935714Y37300000D01*
X9030952Y37347620D01*
X9221428Y37347620D01*
X9316666Y37300000D01*
X9364285Y37252381D01*
X9411904Y37157143D01*
X9411904Y37109524D01*
X9364285Y37014286D01*
X9316666Y36966667D01*
X9221428Y36919048D01*
X9030952Y36919048D01*
X8935714Y36871429D01*
X8888095Y36823810D01*
X8840476Y36728572D01*
X8840476Y36538096D01*
X8888095Y36442858D01*
X8935714Y36395239D01*
X9030952Y36347620D01*
X9221428Y36347620D01*
X9316666Y36395239D01*
X9364285Y36442858D01*
X9411904Y36538096D01*
X9411904Y36728572D01*
X9364285Y36823810D01*
X9316666Y36871429D01*
X9221428Y36919048D01*
G04 #@! TO.C,J1*
X29962380Y6141667D02*
X30676666Y6141667D01*
X30819523Y6094048D01*
X30914761Y5998810D01*
X30962380Y5855953D01*
X30962380Y5760715D01*
X30962380Y7141667D02*
X30962380Y6570239D01*
X30962380Y6855953D02*
X29962380Y6855953D01*
X30105238Y6760715D01*
X30200476Y6665477D01*
X30248095Y6570239D01*
G04 #@! TO.C,Q8*
X78767619Y90504762D02*
X78720000Y90409524D01*
X78624761Y90314286D01*
X78481904Y90171429D01*
X78434285Y90076191D01*
X78434285Y89980953D01*
X78672380Y90028572D02*
X78624761Y89933334D01*
X78529523Y89838096D01*
X78339047Y89790477D01*
X78005714Y89790477D01*
X77815238Y89838096D01*
X77720000Y89933334D01*
X77672380Y90028572D01*
X77672380Y90219048D01*
X77720000Y90314286D01*
X77815238Y90409524D01*
X78005714Y90457143D01*
X78339047Y90457143D01*
X78529523Y90409524D01*
X78624761Y90314286D01*
X78672380Y90219048D01*
X78672380Y90028572D01*
X78100952Y91028572D02*
X78053333Y90933334D01*
X78005714Y90885715D01*
X77910476Y90838096D01*
X77862857Y90838096D01*
X77767619Y90885715D01*
X77720000Y90933334D01*
X77672380Y91028572D01*
X77672380Y91219048D01*
X77720000Y91314286D01*
X77767619Y91361905D01*
X77862857Y91409524D01*
X77910476Y91409524D01*
X78005714Y91361905D01*
X78053333Y91314286D01*
X78100952Y91219048D01*
X78100952Y91028572D01*
X78148571Y90933334D01*
X78196190Y90885715D01*
X78291428Y90838096D01*
X78481904Y90838096D01*
X78577142Y90885715D01*
X78624761Y90933334D01*
X78672380Y91028572D01*
X78672380Y91219048D01*
X78624761Y91314286D01*
X78577142Y91361905D01*
X78481904Y91409524D01*
X78291428Y91409524D01*
X78196190Y91361905D01*
X78148571Y91314286D01*
X78100952Y91219048D01*
D10*
G04 #@! TO.C,Q4*
X7675238Y49119524D02*
X7660000Y49089048D01*
X7629523Y49058572D01*
X7583809Y49012858D01*
X7568571Y48982381D01*
X7568571Y48951905D01*
X7644761Y48967143D02*
X7629523Y48936667D01*
X7599047Y48906191D01*
X7538095Y48890953D01*
X7431428Y48890953D01*
X7370476Y48906191D01*
X7340000Y48936667D01*
X7324761Y48967143D01*
X7324761Y49028096D01*
X7340000Y49058572D01*
X7370476Y49089048D01*
X7431428Y49104286D01*
X7538095Y49104286D01*
X7599047Y49089048D01*
X7629523Y49058572D01*
X7644761Y49028096D01*
X7644761Y48967143D01*
X7431428Y49378572D02*
X7644761Y49378572D01*
X7309523Y49302381D02*
X7538095Y49226191D01*
X7538095Y49424286D01*
G04 #@! TO.C,Q15*
X12375238Y46117143D02*
X12360000Y46086667D01*
X12329523Y46056191D01*
X12283809Y46010477D01*
X12268571Y45980000D01*
X12268571Y45949524D01*
X12344761Y45964762D02*
X12329523Y45934286D01*
X12299047Y45903810D01*
X12238095Y45888572D01*
X12131428Y45888572D01*
X12070476Y45903810D01*
X12040000Y45934286D01*
X12024761Y45964762D01*
X12024761Y46025715D01*
X12040000Y46056191D01*
X12070476Y46086667D01*
X12131428Y46101905D01*
X12238095Y46101905D01*
X12299047Y46086667D01*
X12329523Y46056191D01*
X12344761Y46025715D01*
X12344761Y45964762D01*
X12344761Y46406667D02*
X12344761Y46223810D01*
X12344761Y46315239D02*
X12024761Y46315239D01*
X12070476Y46284762D01*
X12100952Y46254286D01*
X12116190Y46223810D01*
X12024761Y46696191D02*
X12024761Y46543810D01*
X12177142Y46528572D01*
X12161904Y46543810D01*
X12146666Y46574286D01*
X12146666Y46650477D01*
X12161904Y46680953D01*
X12177142Y46696191D01*
X12207619Y46711429D01*
X12283809Y46711429D01*
X12314285Y46696191D01*
X12329523Y46680953D01*
X12344761Y46650477D01*
X12344761Y46574286D01*
X12329523Y46543810D01*
X12314285Y46528572D01*
G04 #@! TO.C,Q19*
X20627238Y31215143D02*
X20612000Y31184667D01*
X20581523Y31154191D01*
X20535809Y31108477D01*
X20520571Y31078000D01*
X20520571Y31047524D01*
X20596761Y31062762D02*
X20581523Y31032286D01*
X20551047Y31001810D01*
X20490095Y30986572D01*
X20383428Y30986572D01*
X20322476Y31001810D01*
X20292000Y31032286D01*
X20276761Y31062762D01*
X20276761Y31123715D01*
X20292000Y31154191D01*
X20322476Y31184667D01*
X20383428Y31199905D01*
X20490095Y31199905D01*
X20551047Y31184667D01*
X20581523Y31154191D01*
X20596761Y31123715D01*
X20596761Y31062762D01*
X20596761Y31504667D02*
X20596761Y31321810D01*
X20596761Y31413239D02*
X20276761Y31413239D01*
X20322476Y31382762D01*
X20352952Y31352286D01*
X20368190Y31321810D01*
X20596761Y31657048D02*
X20596761Y31718000D01*
X20581523Y31748477D01*
X20566285Y31763715D01*
X20520571Y31794191D01*
X20459619Y31809429D01*
X20337714Y31809429D01*
X20307238Y31794191D01*
X20292000Y31778953D01*
X20276761Y31748477D01*
X20276761Y31687524D01*
X20292000Y31657048D01*
X20307238Y31641810D01*
X20337714Y31626572D01*
X20413904Y31626572D01*
X20444380Y31641810D01*
X20459619Y31657048D01*
X20474857Y31687524D01*
X20474857Y31748477D01*
X20459619Y31778953D01*
X20444380Y31794191D01*
X20413904Y31809429D01*
G04 #@! TO.C,Q18*
X17071238Y31215143D02*
X17056000Y31184667D01*
X17025523Y31154191D01*
X16979809Y31108477D01*
X16964571Y31078000D01*
X16964571Y31047524D01*
X17040761Y31062762D02*
X17025523Y31032286D01*
X16995047Y31001810D01*
X16934095Y30986572D01*
X16827428Y30986572D01*
X16766476Y31001810D01*
X16736000Y31032286D01*
X16720761Y31062762D01*
X16720761Y31123715D01*
X16736000Y31154191D01*
X16766476Y31184667D01*
X16827428Y31199905D01*
X16934095Y31199905D01*
X16995047Y31184667D01*
X17025523Y31154191D01*
X17040761Y31123715D01*
X17040761Y31062762D01*
X17040761Y31504667D02*
X17040761Y31321810D01*
X17040761Y31413239D02*
X16720761Y31413239D01*
X16766476Y31382762D01*
X16796952Y31352286D01*
X16812190Y31321810D01*
X16857904Y31687524D02*
X16842666Y31657048D01*
X16827428Y31641810D01*
X16796952Y31626572D01*
X16781714Y31626572D01*
X16751238Y31641810D01*
X16736000Y31657048D01*
X16720761Y31687524D01*
X16720761Y31748477D01*
X16736000Y31778953D01*
X16751238Y31794191D01*
X16781714Y31809429D01*
X16796952Y31809429D01*
X16827428Y31794191D01*
X16842666Y31778953D01*
X16857904Y31748477D01*
X16857904Y31687524D01*
X16873142Y31657048D01*
X16888380Y31641810D01*
X16918857Y31626572D01*
X16979809Y31626572D01*
X17010285Y31641810D01*
X17025523Y31657048D01*
X17040761Y31687524D01*
X17040761Y31748477D01*
X17025523Y31778953D01*
X17010285Y31794191D01*
X16979809Y31809429D01*
X16918857Y31809429D01*
X16888380Y31794191D01*
X16873142Y31778953D01*
X16857904Y31748477D01*
D12*
G04 #@! TO.C,D26*
X78904285Y85929048D02*
X78904285Y86749048D01*
X79099523Y86749048D01*
X79216666Y86710000D01*
X79294761Y86631905D01*
X79333809Y86553810D01*
X79372857Y86397620D01*
X79372857Y86280477D01*
X79333809Y86124286D01*
X79294761Y86046191D01*
X79216666Y85968096D01*
X79099523Y85929048D01*
X78904285Y85929048D01*
X79685238Y86670953D02*
X79724285Y86710000D01*
X79802380Y86749048D01*
X79997619Y86749048D01*
X80075714Y86710000D01*
X80114761Y86670953D01*
X80153809Y86592858D01*
X80153809Y86514762D01*
X80114761Y86397620D01*
X79646190Y85929048D01*
X80153809Y85929048D01*
X80856666Y86749048D02*
X80700476Y86749048D01*
X80622380Y86710000D01*
X80583333Y86670953D01*
X80505238Y86553810D01*
X80466190Y86397620D01*
X80466190Y86085239D01*
X80505238Y86007143D01*
X80544285Y85968096D01*
X80622380Y85929048D01*
X80778571Y85929048D01*
X80856666Y85968096D01*
X80895714Y86007143D01*
X80934761Y86085239D01*
X80934761Y86280477D01*
X80895714Y86358572D01*
X80856666Y86397620D01*
X80778571Y86436667D01*
X80622380Y86436667D01*
X80544285Y86397620D01*
X80505238Y86358572D01*
X80466190Y86280477D01*
D10*
G04 #@! TO.C,Q22*
X8447142Y35334762D02*
X8416666Y35350000D01*
X8386190Y35380477D01*
X8340476Y35426191D01*
X8310000Y35441429D01*
X8279523Y35441429D01*
X8294761Y35365239D02*
X8264285Y35380477D01*
X8233809Y35410953D01*
X8218571Y35471905D01*
X8218571Y35578572D01*
X8233809Y35639524D01*
X8264285Y35670000D01*
X8294761Y35685239D01*
X8355714Y35685239D01*
X8386190Y35670000D01*
X8416666Y35639524D01*
X8431904Y35578572D01*
X8431904Y35471905D01*
X8416666Y35410953D01*
X8386190Y35380477D01*
X8355714Y35365239D01*
X8294761Y35365239D01*
X8553809Y35654762D02*
X8569047Y35670000D01*
X8599523Y35685239D01*
X8675714Y35685239D01*
X8706190Y35670000D01*
X8721428Y35654762D01*
X8736666Y35624286D01*
X8736666Y35593810D01*
X8721428Y35548096D01*
X8538571Y35365239D01*
X8736666Y35365239D01*
X8858571Y35654762D02*
X8873809Y35670000D01*
X8904285Y35685239D01*
X8980476Y35685239D01*
X9010952Y35670000D01*
X9026190Y35654762D01*
X9041428Y35624286D01*
X9041428Y35593810D01*
X9026190Y35548096D01*
X8843333Y35365239D01*
X9041428Y35365239D01*
G04 #@! TO.C,Q14*
X52717142Y73924762D02*
X52686666Y73940000D01*
X52656190Y73970477D01*
X52610476Y74016191D01*
X52580000Y74031429D01*
X52549523Y74031429D01*
X52564761Y73955239D02*
X52534285Y73970477D01*
X52503809Y74000953D01*
X52488571Y74061905D01*
X52488571Y74168572D01*
X52503809Y74229524D01*
X52534285Y74260000D01*
X52564761Y74275239D01*
X52625714Y74275239D01*
X52656190Y74260000D01*
X52686666Y74229524D01*
X52701904Y74168572D01*
X52701904Y74061905D01*
X52686666Y74000953D01*
X52656190Y73970477D01*
X52625714Y73955239D01*
X52564761Y73955239D01*
X53006666Y73955239D02*
X52823809Y73955239D01*
X52915238Y73955239D02*
X52915238Y74275239D01*
X52884761Y74229524D01*
X52854285Y74199048D01*
X52823809Y74183810D01*
X53280952Y74168572D02*
X53280952Y73955239D01*
X53204761Y74290477D02*
X53128571Y74061905D01*
X53326666Y74061905D01*
D11*
G04 #@! TO.C,D29*
X11685714Y34247620D02*
X11685714Y35247620D01*
X11923809Y35247620D01*
X12066666Y35200000D01*
X12161904Y35104762D01*
X12209523Y35009524D01*
X12257142Y34819048D01*
X12257142Y34676191D01*
X12209523Y34485715D01*
X12161904Y34390477D01*
X12066666Y34295239D01*
X11923809Y34247620D01*
X11685714Y34247620D01*
X12638095Y35152381D02*
X12685714Y35200000D01*
X12780952Y35247620D01*
X13019047Y35247620D01*
X13114285Y35200000D01*
X13161904Y35152381D01*
X13209523Y35057143D01*
X13209523Y34961905D01*
X13161904Y34819048D01*
X12590476Y34247620D01*
X13209523Y34247620D01*
X13685714Y34247620D02*
X13876190Y34247620D01*
X13971428Y34295239D01*
X14019047Y34342858D01*
X14114285Y34485715D01*
X14161904Y34676191D01*
X14161904Y35057143D01*
X14114285Y35152381D01*
X14066666Y35200000D01*
X13971428Y35247620D01*
X13780952Y35247620D01*
X13685714Y35200000D01*
X13638095Y35152381D01*
X13590476Y35057143D01*
X13590476Y34819048D01*
X13638095Y34723810D01*
X13685714Y34676191D01*
X13780952Y34628572D01*
X13971428Y34628572D01*
X14066666Y34676191D01*
X14114285Y34723810D01*
X14161904Y34819048D01*
D10*
G04 #@! TO.C,Q17*
X11175238Y52417143D02*
X11160000Y52386667D01*
X11129523Y52356191D01*
X11083809Y52310477D01*
X11068571Y52280000D01*
X11068571Y52249524D01*
X11144761Y52264762D02*
X11129523Y52234286D01*
X11099047Y52203810D01*
X11038095Y52188572D01*
X10931428Y52188572D01*
X10870476Y52203810D01*
X10840000Y52234286D01*
X10824761Y52264762D01*
X10824761Y52325715D01*
X10840000Y52356191D01*
X10870476Y52386667D01*
X10931428Y52401905D01*
X11038095Y52401905D01*
X11099047Y52386667D01*
X11129523Y52356191D01*
X11144761Y52325715D01*
X11144761Y52264762D01*
X11144761Y52706667D02*
X11144761Y52523810D01*
X11144761Y52615239D02*
X10824761Y52615239D01*
X10870476Y52584762D01*
X10900952Y52554286D01*
X10916190Y52523810D01*
X10824761Y52813334D02*
X10824761Y53026667D01*
X11144761Y52889524D01*
G04 #@! TO.C,Q20*
X20617142Y51524762D02*
X20586666Y51540000D01*
X20556190Y51570477D01*
X20510476Y51616191D01*
X20480000Y51631429D01*
X20449523Y51631429D01*
X20464761Y51555239D02*
X20434285Y51570477D01*
X20403809Y51600953D01*
X20388571Y51661905D01*
X20388571Y51768572D01*
X20403809Y51829524D01*
X20434285Y51860000D01*
X20464761Y51875239D01*
X20525714Y51875239D01*
X20556190Y51860000D01*
X20586666Y51829524D01*
X20601904Y51768572D01*
X20601904Y51661905D01*
X20586666Y51600953D01*
X20556190Y51570477D01*
X20525714Y51555239D01*
X20464761Y51555239D01*
X20723809Y51844762D02*
X20739047Y51860000D01*
X20769523Y51875239D01*
X20845714Y51875239D01*
X20876190Y51860000D01*
X20891428Y51844762D01*
X20906666Y51814286D01*
X20906666Y51783810D01*
X20891428Y51738096D01*
X20708571Y51555239D01*
X20906666Y51555239D01*
X21104761Y51875239D02*
X21135238Y51875239D01*
X21165714Y51860000D01*
X21180952Y51844762D01*
X21196190Y51814286D01*
X21211428Y51753334D01*
X21211428Y51677143D01*
X21196190Y51616191D01*
X21180952Y51585715D01*
X21165714Y51570477D01*
X21135238Y51555239D01*
X21104761Y51555239D01*
X21074285Y51570477D01*
X21059047Y51585715D01*
X21043809Y51616191D01*
X21028571Y51677143D01*
X21028571Y51753334D01*
X21043809Y51814286D01*
X21059047Y51844762D01*
X21074285Y51860000D01*
X21104761Y51875239D01*
G04 #@! TO.C,D23*
X9044761Y31181429D02*
X8724761Y31181429D01*
X8724761Y31257620D01*
X8740000Y31303334D01*
X8770476Y31333810D01*
X8800952Y31349048D01*
X8861904Y31364286D01*
X8907619Y31364286D01*
X8968571Y31349048D01*
X8999047Y31333810D01*
X9029523Y31303334D01*
X9044761Y31257620D01*
X9044761Y31181429D01*
X8755238Y31486191D02*
X8740000Y31501429D01*
X8724761Y31531905D01*
X8724761Y31608096D01*
X8740000Y31638572D01*
X8755238Y31653810D01*
X8785714Y31669048D01*
X8816190Y31669048D01*
X8861904Y31653810D01*
X9044761Y31470953D01*
X9044761Y31669048D01*
X8724761Y31775715D02*
X8724761Y31973810D01*
X8846666Y31867143D01*
X8846666Y31912858D01*
X8861904Y31943334D01*
X8877142Y31958572D01*
X8907619Y31973810D01*
X8983809Y31973810D01*
X9014285Y31958572D01*
X9029523Y31943334D01*
X9044761Y31912858D01*
X9044761Y31821429D01*
X9029523Y31790953D01*
X9014285Y31775715D01*
G04 #@! TO.C,Q5*
X7675238Y52669524D02*
X7660000Y52639048D01*
X7629523Y52608572D01*
X7583809Y52562858D01*
X7568571Y52532381D01*
X7568571Y52501905D01*
X7644761Y52517143D02*
X7629523Y52486667D01*
X7599047Y52456191D01*
X7538095Y52440953D01*
X7431428Y52440953D01*
X7370476Y52456191D01*
X7340000Y52486667D01*
X7324761Y52517143D01*
X7324761Y52578096D01*
X7340000Y52608572D01*
X7370476Y52639048D01*
X7431428Y52654286D01*
X7538095Y52654286D01*
X7599047Y52639048D01*
X7629523Y52608572D01*
X7644761Y52578096D01*
X7644761Y52517143D01*
X7324761Y52943810D02*
X7324761Y52791429D01*
X7477142Y52776191D01*
X7461904Y52791429D01*
X7446666Y52821905D01*
X7446666Y52898096D01*
X7461904Y52928572D01*
X7477142Y52943810D01*
X7507619Y52959048D01*
X7583809Y52959048D01*
X7614285Y52943810D01*
X7629523Y52928572D01*
X7644761Y52898096D01*
X7644761Y52821905D01*
X7629523Y52791429D01*
X7614285Y52776191D01*
G04 #@! TO.C,Q12*
X56695142Y73924762D02*
X56664666Y73940000D01*
X56634190Y73970477D01*
X56588476Y74016191D01*
X56558000Y74031429D01*
X56527523Y74031429D01*
X56542761Y73955239D02*
X56512285Y73970477D01*
X56481809Y74000953D01*
X56466571Y74061905D01*
X56466571Y74168572D01*
X56481809Y74229524D01*
X56512285Y74260000D01*
X56542761Y74275239D01*
X56603714Y74275239D01*
X56634190Y74260000D01*
X56664666Y74229524D01*
X56679904Y74168572D01*
X56679904Y74061905D01*
X56664666Y74000953D01*
X56634190Y73970477D01*
X56603714Y73955239D01*
X56542761Y73955239D01*
X56984666Y73955239D02*
X56801809Y73955239D01*
X56893238Y73955239D02*
X56893238Y74275239D01*
X56862761Y74229524D01*
X56832285Y74199048D01*
X56801809Y74183810D01*
X57106571Y74244762D02*
X57121809Y74260000D01*
X57152285Y74275239D01*
X57228476Y74275239D01*
X57258952Y74260000D01*
X57274190Y74244762D01*
X57289428Y74214286D01*
X57289428Y74183810D01*
X57274190Y74138096D01*
X57091333Y73955239D01*
X57289428Y73955239D01*
G04 #@! TO.C,Q2*
X8675238Y46369524D02*
X8660000Y46339048D01*
X8629523Y46308572D01*
X8583809Y46262858D01*
X8568571Y46232381D01*
X8568571Y46201905D01*
X8644761Y46217143D02*
X8629523Y46186667D01*
X8599047Y46156191D01*
X8538095Y46140953D01*
X8431428Y46140953D01*
X8370476Y46156191D01*
X8340000Y46186667D01*
X8324761Y46217143D01*
X8324761Y46278096D01*
X8340000Y46308572D01*
X8370476Y46339048D01*
X8431428Y46354286D01*
X8538095Y46354286D01*
X8599047Y46339048D01*
X8629523Y46308572D01*
X8644761Y46278096D01*
X8644761Y46217143D01*
X8355238Y46476191D02*
X8340000Y46491429D01*
X8324761Y46521905D01*
X8324761Y46598096D01*
X8340000Y46628572D01*
X8355238Y46643810D01*
X8385714Y46659048D01*
X8416190Y46659048D01*
X8461904Y46643810D01*
X8644761Y46460953D01*
X8644761Y46659048D01*
G04 #@! TO.C,Q16*
X11175238Y49017143D02*
X11160000Y48986667D01*
X11129523Y48956191D01*
X11083809Y48910477D01*
X11068571Y48880000D01*
X11068571Y48849524D01*
X11144761Y48864762D02*
X11129523Y48834286D01*
X11099047Y48803810D01*
X11038095Y48788572D01*
X10931428Y48788572D01*
X10870476Y48803810D01*
X10840000Y48834286D01*
X10824761Y48864762D01*
X10824761Y48925715D01*
X10840000Y48956191D01*
X10870476Y48986667D01*
X10931428Y49001905D01*
X11038095Y49001905D01*
X11099047Y48986667D01*
X11129523Y48956191D01*
X11144761Y48925715D01*
X11144761Y48864762D01*
X11144761Y49306667D02*
X11144761Y49123810D01*
X11144761Y49215239D02*
X10824761Y49215239D01*
X10870476Y49184762D01*
X10900952Y49154286D01*
X10916190Y49123810D01*
X10824761Y49580953D02*
X10824761Y49520000D01*
X10840000Y49489524D01*
X10855238Y49474286D01*
X10900952Y49443810D01*
X10961904Y49428572D01*
X11083809Y49428572D01*
X11114285Y49443810D01*
X11129523Y49459048D01*
X11144761Y49489524D01*
X11144761Y49550477D01*
X11129523Y49580953D01*
X11114285Y49596191D01*
X11083809Y49611429D01*
X11007619Y49611429D01*
X10977142Y49596191D01*
X10961904Y49580953D01*
X10946666Y49550477D01*
X10946666Y49489524D01*
X10961904Y49459048D01*
X10977142Y49443810D01*
X11007619Y49428572D01*
D11*
G04 #@! TO.C,Q7*
X70337619Y90494762D02*
X70290000Y90399524D01*
X70194761Y90304286D01*
X70051904Y90161429D01*
X70004285Y90066191D01*
X70004285Y89970953D01*
X70242380Y90018572D02*
X70194761Y89923334D01*
X70099523Y89828096D01*
X69909047Y89780477D01*
X69575714Y89780477D01*
X69385238Y89828096D01*
X69290000Y89923334D01*
X69242380Y90018572D01*
X69242380Y90209048D01*
X69290000Y90304286D01*
X69385238Y90399524D01*
X69575714Y90447143D01*
X69909047Y90447143D01*
X70099523Y90399524D01*
X70194761Y90304286D01*
X70242380Y90209048D01*
X70242380Y90018572D01*
X69242380Y90780477D02*
X69242380Y91447143D01*
X70242380Y91018572D01*
G04 #@! TO.C,Q6*
X70157619Y75674762D02*
X70110000Y75579524D01*
X70014761Y75484286D01*
X69871904Y75341429D01*
X69824285Y75246191D01*
X69824285Y75150953D01*
X70062380Y75198572D02*
X70014761Y75103334D01*
X69919523Y75008096D01*
X69729047Y74960477D01*
X69395714Y74960477D01*
X69205238Y75008096D01*
X69110000Y75103334D01*
X69062380Y75198572D01*
X69062380Y75389048D01*
X69110000Y75484286D01*
X69205238Y75579524D01*
X69395714Y75627143D01*
X69729047Y75627143D01*
X69919523Y75579524D01*
X70014761Y75484286D01*
X70062380Y75389048D01*
X70062380Y75198572D01*
X69062380Y76484286D02*
X69062380Y76293810D01*
X69110000Y76198572D01*
X69157619Y76150953D01*
X69300476Y76055715D01*
X69490952Y76008096D01*
X69871904Y76008096D01*
X69967142Y76055715D01*
X70014761Y76103334D01*
X70062380Y76198572D01*
X70062380Y76389048D01*
X70014761Y76484286D01*
X69967142Y76531905D01*
X69871904Y76579524D01*
X69633809Y76579524D01*
X69538571Y76531905D01*
X69490952Y76484286D01*
X69443333Y76389048D01*
X69443333Y76198572D01*
X69490952Y76103334D01*
X69538571Y76055715D01*
X69633809Y76008096D01*
D10*
G04 #@! TO.C,Q21*
X20617142Y48124762D02*
X20586666Y48140000D01*
X20556190Y48170477D01*
X20510476Y48216191D01*
X20480000Y48231429D01*
X20449523Y48231429D01*
X20464761Y48155239D02*
X20434285Y48170477D01*
X20403809Y48200953D01*
X20388571Y48261905D01*
X20388571Y48368572D01*
X20403809Y48429524D01*
X20434285Y48460000D01*
X20464761Y48475239D01*
X20525714Y48475239D01*
X20556190Y48460000D01*
X20586666Y48429524D01*
X20601904Y48368572D01*
X20601904Y48261905D01*
X20586666Y48200953D01*
X20556190Y48170477D01*
X20525714Y48155239D01*
X20464761Y48155239D01*
X20723809Y48444762D02*
X20739047Y48460000D01*
X20769523Y48475239D01*
X20845714Y48475239D01*
X20876190Y48460000D01*
X20891428Y48444762D01*
X20906666Y48414286D01*
X20906666Y48383810D01*
X20891428Y48338096D01*
X20708571Y48155239D01*
X20906666Y48155239D01*
X21211428Y48155239D02*
X21028571Y48155239D01*
X21120000Y48155239D02*
X21120000Y48475239D01*
X21089523Y48429524D01*
X21059047Y48399048D01*
X21028571Y48383810D01*
D11*
G04 #@! TO.C,D27*
X13135714Y40247620D02*
X13135714Y41247620D01*
X13373809Y41247620D01*
X13516666Y41200000D01*
X13611904Y41104762D01*
X13659523Y41009524D01*
X13707142Y40819048D01*
X13707142Y40676191D01*
X13659523Y40485715D01*
X13611904Y40390477D01*
X13516666Y40295239D01*
X13373809Y40247620D01*
X13135714Y40247620D01*
X14088095Y41152381D02*
X14135714Y41200000D01*
X14230952Y41247620D01*
X14469047Y41247620D01*
X14564285Y41200000D01*
X14611904Y41152381D01*
X14659523Y41057143D01*
X14659523Y40961905D01*
X14611904Y40819048D01*
X14040476Y40247620D01*
X14659523Y40247620D01*
X14992857Y41247620D02*
X15659523Y41247620D01*
X15230952Y40247620D01*
D10*
G04 #@! TO.C,Q10*
X14575238Y42217143D02*
X14560000Y42186667D01*
X14529523Y42156191D01*
X14483809Y42110477D01*
X14468571Y42080000D01*
X14468571Y42049524D01*
X14544761Y42064762D02*
X14529523Y42034286D01*
X14499047Y42003810D01*
X14438095Y41988572D01*
X14331428Y41988572D01*
X14270476Y42003810D01*
X14240000Y42034286D01*
X14224761Y42064762D01*
X14224761Y42125715D01*
X14240000Y42156191D01*
X14270476Y42186667D01*
X14331428Y42201905D01*
X14438095Y42201905D01*
X14499047Y42186667D01*
X14529523Y42156191D01*
X14544761Y42125715D01*
X14544761Y42064762D01*
X14544761Y42506667D02*
X14544761Y42323810D01*
X14544761Y42415239D02*
X14224761Y42415239D01*
X14270476Y42384762D01*
X14300952Y42354286D01*
X14316190Y42323810D01*
X14224761Y42704762D02*
X14224761Y42735239D01*
X14240000Y42765715D01*
X14255238Y42780953D01*
X14285714Y42796191D01*
X14346666Y42811429D01*
X14422857Y42811429D01*
X14483809Y42796191D01*
X14514285Y42780953D01*
X14529523Y42765715D01*
X14544761Y42735239D01*
X14544761Y42704762D01*
X14529523Y42674286D01*
X14514285Y42659048D01*
X14483809Y42643810D01*
X14422857Y42628572D01*
X14346666Y42628572D01*
X14285714Y42643810D01*
X14255238Y42659048D01*
X14240000Y42674286D01*
X14224761Y42704762D01*
D12*
G04 #@! TO.C,D24*
X8430952Y34369286D02*
X7610952Y34369286D01*
X7610952Y34564524D01*
X7650000Y34681667D01*
X7728095Y34759762D01*
X7806190Y34798810D01*
X7962380Y34837858D01*
X8079523Y34837858D01*
X8235714Y34798810D01*
X8313809Y34759762D01*
X8391904Y34681667D01*
X8430952Y34564524D01*
X8430952Y34369286D01*
X7689047Y35150239D02*
X7650000Y35189286D01*
X7610952Y35267381D01*
X7610952Y35462620D01*
X7650000Y35540715D01*
X7689047Y35579762D01*
X7767142Y35618810D01*
X7845238Y35618810D01*
X7962380Y35579762D01*
X8430952Y35111191D01*
X8430952Y35618810D01*
X7884285Y36321667D02*
X8430952Y36321667D01*
X7571904Y36126429D02*
X8157619Y35931191D01*
X8157619Y36438810D01*
D10*
G04 #@! TO.C,Q11*
X16867142Y35324762D02*
X16836666Y35340000D01*
X16806190Y35370477D01*
X16760476Y35416191D01*
X16730000Y35431429D01*
X16699523Y35431429D01*
X16714761Y35355239D02*
X16684285Y35370477D01*
X16653809Y35400953D01*
X16638571Y35461905D01*
X16638571Y35568572D01*
X16653809Y35629524D01*
X16684285Y35660000D01*
X16714761Y35675239D01*
X16775714Y35675239D01*
X16806190Y35660000D01*
X16836666Y35629524D01*
X16851904Y35568572D01*
X16851904Y35461905D01*
X16836666Y35400953D01*
X16806190Y35370477D01*
X16775714Y35355239D01*
X16714761Y35355239D01*
X17156666Y35355239D02*
X16973809Y35355239D01*
X17065238Y35355239D02*
X17065238Y35675239D01*
X17034761Y35629524D01*
X17004285Y35599048D01*
X16973809Y35583810D01*
X17461428Y35355239D02*
X17278571Y35355239D01*
X17370000Y35355239D02*
X17370000Y35675239D01*
X17339523Y35629524D01*
X17309047Y35599048D01*
X17278571Y35583810D01*
D12*
G04 #@! TO.C,D25*
X75770952Y98704286D02*
X74950952Y98704286D01*
X74950952Y98899524D01*
X74990000Y99016667D01*
X75068095Y99094762D01*
X75146190Y99133810D01*
X75302380Y99172858D01*
X75419523Y99172858D01*
X75575714Y99133810D01*
X75653809Y99094762D01*
X75731904Y99016667D01*
X75770952Y98899524D01*
X75770952Y98704286D01*
X75029047Y99485239D02*
X74990000Y99524286D01*
X74950952Y99602381D01*
X74950952Y99797620D01*
X74990000Y99875715D01*
X75029047Y99914762D01*
X75107142Y99953810D01*
X75185238Y99953810D01*
X75302380Y99914762D01*
X75770952Y99446191D01*
X75770952Y99953810D01*
X74950952Y100695715D02*
X74950952Y100305239D01*
X75341428Y100266191D01*
X75302380Y100305239D01*
X75263333Y100383334D01*
X75263333Y100578572D01*
X75302380Y100656667D01*
X75341428Y100695715D01*
X75419523Y100734762D01*
X75614761Y100734762D01*
X75692857Y100695715D01*
X75731904Y100656667D01*
X75770952Y100578572D01*
X75770952Y100383334D01*
X75731904Y100305239D01*
X75692857Y100266191D01*
D11*
G04 #@! TO.C,Q9*
X78837619Y75794762D02*
X78790000Y75699524D01*
X78694761Y75604286D01*
X78551904Y75461429D01*
X78504285Y75366191D01*
X78504285Y75270953D01*
X78742380Y75318572D02*
X78694761Y75223334D01*
X78599523Y75128096D01*
X78409047Y75080477D01*
X78075714Y75080477D01*
X77885238Y75128096D01*
X77790000Y75223334D01*
X77742380Y75318572D01*
X77742380Y75509048D01*
X77790000Y75604286D01*
X77885238Y75699524D01*
X78075714Y75747143D01*
X78409047Y75747143D01*
X78599523Y75699524D01*
X78694761Y75604286D01*
X78742380Y75509048D01*
X78742380Y75318572D01*
X78742380Y76223334D02*
X78742380Y76413810D01*
X78694761Y76509048D01*
X78647142Y76556667D01*
X78504285Y76651905D01*
X78313809Y76699524D01*
X77932857Y76699524D01*
X77837619Y76651905D01*
X77790000Y76604286D01*
X77742380Y76509048D01*
X77742380Y76318572D01*
X77790000Y76223334D01*
X77837619Y76175715D01*
X77932857Y76128096D01*
X78170952Y76128096D01*
X78266190Y76175715D01*
X78313809Y76223334D01*
X78361428Y76318572D01*
X78361428Y76509048D01*
X78313809Y76604286D01*
X78266190Y76651905D01*
X78170952Y76699524D01*
D13*
G04 #@! TO.C,Q13*
X54750000Y76050000D02*
X54750000Y78950000D01*
X56050000Y76375000D02*
X55725000Y76050000D01*
X54750000Y78950000D02*
X56050000Y78950000D01*
X55725000Y76050000D02*
X54750000Y76050000D01*
X56050000Y78950000D02*
X56050000Y76375000D01*
G04 #@! TO.C,Q1*
X13115000Y28460000D02*
X12140000Y28460000D01*
X13440000Y28785000D02*
X13115000Y28460000D01*
X12140000Y28460000D02*
X12140000Y31360000D01*
X13440000Y31360000D02*
X13440000Y28785000D01*
X12140000Y31360000D02*
X13440000Y31360000D01*
G04 #@! TO.C,P2*
X60688000Y73735000D02*
X61323000Y74370000D01*
X60688000Y71830000D02*
X60688000Y73735000D01*
X61323000Y74370000D02*
X63228000Y74370000D01*
X63228000Y74370000D02*
X63228000Y71830000D01*
X63228000Y71830000D02*
X60688000Y71830000D01*
G04 #@! TO.C,J1*
X25060000Y9825000D02*
X25060000Y625000D01*
X25060000Y625000D02*
X32760000Y625000D01*
X25060000Y9825000D02*
X32760000Y9825000D01*
X26960000Y9825000D02*
X27310000Y9325000D01*
X32760000Y625000D02*
X32760000Y9825000D01*
X27310000Y9325000D02*
X27660000Y9825000D01*
G04 #@! TO.C,Q8*
X75520000Y95650000D02*
X75520000Y96650000D01*
X80125000Y89430000D02*
X80125000Y86730000D01*
X74970000Y95650000D02*
X81470000Y95650000D01*
X80125000Y86730000D02*
X80875000Y86730000D01*
X75565000Y89835000D02*
X75565000Y86730000D01*
X81470000Y89430000D02*
X75970000Y89430000D01*
X80875000Y86730000D02*
X80875000Y89430000D01*
X74970000Y90430000D02*
X74970000Y95650000D01*
X80920000Y96650000D02*
X80920000Y95650000D01*
X75970000Y89430000D02*
X74970000Y90430000D01*
X75565000Y86730000D02*
X76315000Y86730000D01*
X76315000Y86730000D02*
X76315000Y89430000D01*
X81470000Y95650000D02*
X81470000Y89430000D01*
X75520000Y96650000D02*
X80920000Y96650000D01*
G04 #@! TO.C,Q4*
X6050000Y49800000D02*
X8625000Y49800000D01*
X8950000Y48500000D02*
X6050000Y48500000D01*
X6050000Y48500000D02*
X6050000Y49800000D01*
X8625000Y49800000D02*
X8950000Y49475000D01*
X8950000Y49475000D02*
X8950000Y48500000D01*
G04 #@! TO.C,Q15*
X10750000Y46950000D02*
X13650000Y46950000D01*
X10750000Y45975000D02*
X10750000Y46950000D01*
X13650000Y46950000D02*
X13650000Y45650000D01*
X13650000Y45650000D02*
X11075000Y45650000D01*
X11075000Y45650000D02*
X10750000Y45975000D01*
G04 #@! TO.C,Q19*
X21902000Y30748000D02*
X19327000Y30748000D01*
X19002000Y32048000D02*
X21902000Y32048000D01*
X21902000Y32048000D02*
X21902000Y30748000D01*
X19002000Y31073000D02*
X19002000Y32048000D01*
X19327000Y30748000D02*
X19002000Y31073000D01*
G04 #@! TO.C,Q18*
X18021000Y32048000D02*
X18346000Y31723000D01*
X15446000Y32048000D02*
X18021000Y32048000D01*
X18346000Y31723000D02*
X18346000Y30748000D01*
X18346000Y30748000D02*
X15446000Y30748000D01*
X15446000Y30748000D02*
X15446000Y32048000D01*
G04 #@! TO.C,Q22*
X7980000Y34060000D02*
X7980000Y36960000D01*
X9280000Y36960000D02*
X9280000Y34385000D01*
X9280000Y34385000D02*
X8955000Y34060000D01*
X7980000Y36960000D02*
X9280000Y36960000D01*
X8955000Y34060000D02*
X7980000Y34060000D01*
G04 #@! TO.C,P3*
X59765000Y3170000D02*
X61670000Y3170000D01*
X59130000Y2535000D02*
X59765000Y3170000D01*
X61670000Y630000D02*
X59130000Y630000D01*
X61670000Y3170000D02*
X61670000Y630000D01*
X59130000Y630000D02*
X59130000Y2535000D01*
G04 #@! TO.C,Q14*
X52250000Y75550000D02*
X53550000Y75550000D01*
X53550000Y72975000D02*
X53225000Y72650000D01*
X52250000Y72650000D02*
X52250000Y75550000D01*
X53550000Y75550000D02*
X53550000Y72975000D01*
X53225000Y72650000D02*
X52250000Y72650000D01*
G04 #@! TO.C,Q17*
X9550000Y51950000D02*
X9550000Y53250000D01*
X12450000Y52925000D02*
X12450000Y51950000D01*
X12450000Y51950000D02*
X9550000Y51950000D01*
X12125000Y53250000D02*
X12450000Y52925000D01*
X9550000Y53250000D02*
X12125000Y53250000D01*
G04 #@! TO.C,Q20*
X21125000Y50250000D02*
X20150000Y50250000D01*
X20150000Y50250000D02*
X20150000Y53150000D01*
X21450000Y53150000D02*
X21450000Y50575000D01*
X21450000Y50575000D02*
X21125000Y50250000D01*
X20150000Y53150000D02*
X21450000Y53150000D01*
G04 #@! TO.C,D23*
X7775000Y30920000D02*
X7450000Y31245000D01*
X7450000Y31245000D02*
X7450000Y32220000D01*
X10350000Y32220000D02*
X10350000Y30920000D01*
X7450000Y32220000D02*
X10350000Y32220000D01*
X10350000Y30920000D02*
X7775000Y30920000D01*
G04 #@! TO.C,Q5*
X8950000Y52050000D02*
X6050000Y52050000D01*
X6050000Y52050000D02*
X6050000Y53350000D01*
X6050000Y53350000D02*
X8625000Y53350000D01*
X8625000Y53350000D02*
X8950000Y53025000D01*
X8950000Y53025000D02*
X8950000Y52050000D01*
G04 #@! TO.C,Q12*
X57528000Y72975000D02*
X57203000Y72650000D01*
X56228000Y72650000D02*
X56228000Y75550000D01*
X57528000Y75550000D02*
X57528000Y72975000D01*
X56228000Y75550000D02*
X57528000Y75550000D01*
X57203000Y72650000D02*
X56228000Y72650000D01*
G04 #@! TO.C,Q2*
X9950000Y45750000D02*
X7375000Y45750000D01*
X7375000Y45750000D02*
X7050000Y46075000D01*
X7050000Y46075000D02*
X7050000Y47050000D01*
X7050000Y47050000D02*
X9950000Y47050000D01*
X9950000Y47050000D02*
X9950000Y45750000D01*
D14*
G04 #@! TO.C,U3*
X81102500Y10092500D02*
X73737500Y10092500D01*
X81102500Y2727500D02*
X73737500Y2727500D01*
X81102500Y10092500D02*
X81102500Y2727500D01*
X73737500Y10092500D02*
X73737500Y2727500D01*
D15*
X80015000Y12710000D02*
G75*
G03*
X80015000Y12710000I-100000J0D01*
G01*
D13*
G04 #@! TO.C,Q16*
X12125000Y49850000D02*
X12450000Y49525000D01*
X12450000Y48550000D02*
X9550000Y48550000D01*
X12450000Y49525000D02*
X12450000Y48550000D01*
X9550000Y48550000D02*
X9550000Y49850000D01*
X9550000Y49850000D02*
X12125000Y49850000D01*
D14*
G04 #@! TO.C,U4*
X6850000Y275000D02*
X6850000Y27525000D01*
X19550000Y275000D02*
X6850000Y275000D01*
X19550000Y27525000D02*
X19550000Y275000D01*
X6850000Y27525000D02*
X19550000Y27525000D01*
D15*
X21300000Y7600000D02*
G75*
G03*
X21300000Y7600000I-100000J0D01*
G01*
D13*
G04 #@! TO.C,Q7*
X73040000Y95640000D02*
X73040000Y89420000D01*
X72490000Y96640000D02*
X72490000Y95640000D01*
X71695000Y86720000D02*
X72445000Y86720000D01*
X67090000Y95640000D02*
X67090000Y96640000D01*
X67135000Y86720000D02*
X67885000Y86720000D01*
X67090000Y96640000D02*
X72490000Y96640000D01*
X66540000Y90420000D02*
X66540000Y95640000D01*
X67540000Y89420000D02*
X66540000Y90420000D01*
X67135000Y89825000D02*
X67135000Y86720000D01*
X72445000Y86720000D02*
X72445000Y89420000D01*
X71695000Y89420000D02*
X71695000Y86720000D01*
X67885000Y86720000D02*
X67885000Y89420000D01*
X66540000Y95640000D02*
X73040000Y95640000D01*
X73040000Y89420000D02*
X67540000Y89420000D01*
G04 #@! TO.C,Q6*
X72310000Y81820000D02*
X72310000Y80820000D01*
X72860000Y74600000D02*
X67360000Y74600000D01*
X66910000Y80820000D02*
X66910000Y81820000D01*
X66910000Y81820000D02*
X72310000Y81820000D01*
X66955000Y75005000D02*
X66955000Y71900000D01*
X66360000Y80820000D02*
X72860000Y80820000D01*
X66955000Y71900000D02*
X67705000Y71900000D01*
X71515000Y74600000D02*
X71515000Y71900000D01*
X67360000Y74600000D02*
X66360000Y75600000D01*
X72860000Y80820000D02*
X72860000Y74600000D01*
X71515000Y71900000D02*
X72265000Y71900000D01*
X66360000Y75600000D02*
X66360000Y80820000D01*
X72265000Y71900000D02*
X72265000Y74600000D01*
X67705000Y71900000D02*
X67705000Y74600000D01*
G04 #@! TO.C,Q21*
X20150000Y46850000D02*
X20150000Y49750000D01*
X20150000Y49750000D02*
X21450000Y49750000D01*
X21125000Y46850000D02*
X20150000Y46850000D01*
X21450000Y49750000D02*
X21450000Y47175000D01*
X21450000Y47175000D02*
X21125000Y46850000D01*
G04 #@! TO.C,Q10*
X12950000Y42075000D02*
X12950000Y43050000D01*
X15850000Y43050000D02*
X15850000Y41750000D01*
X12950000Y43050000D02*
X15850000Y43050000D01*
X15850000Y41750000D02*
X13275000Y41750000D01*
X13275000Y41750000D02*
X12950000Y42075000D01*
G04 #@! TO.C,Q11*
X17700000Y36950000D02*
X17700000Y34050000D01*
X16400000Y34050000D02*
X16400000Y36625000D01*
X17700000Y34050000D02*
X16400000Y34050000D01*
X16725000Y36950000D02*
X17700000Y36950000D01*
X16400000Y36625000D02*
X16725000Y36950000D01*
G04 #@! TO.C,P4*
X59130000Y3530000D02*
X59130000Y5435000D01*
X61670000Y3530000D02*
X59130000Y3530000D01*
X59130000Y5435000D02*
X59765000Y6070000D01*
X59765000Y6070000D02*
X61670000Y6070000D01*
X61670000Y6070000D02*
X61670000Y3530000D01*
G04 #@! TO.C,Q9*
X75590000Y81940000D02*
X80990000Y81940000D01*
X75635000Y72020000D02*
X76385000Y72020000D01*
X75040000Y75720000D02*
X75040000Y80940000D01*
X80195000Y72020000D02*
X80945000Y72020000D01*
X80195000Y74720000D02*
X80195000Y72020000D01*
X75040000Y80940000D02*
X81540000Y80940000D01*
X76385000Y72020000D02*
X76385000Y74720000D01*
X75590000Y80940000D02*
X75590000Y81940000D01*
X75635000Y75125000D02*
X75635000Y72020000D01*
X76040000Y74720000D02*
X75040000Y75720000D01*
X81540000Y80940000D02*
X81540000Y74720000D01*
X80945000Y72020000D02*
X80945000Y74720000D01*
X81540000Y74720000D02*
X76040000Y74720000D01*
X80990000Y81940000D02*
X80990000Y80940000D01*
G04 #@! TO.C,J2*
X50858607Y3295000D02*
X50423607Y3730000D01*
X50858607Y2250000D02*
X51258607Y2250000D01*
X56773607Y3295000D02*
X50858607Y3295000D01*
X54668607Y2250000D02*
X55068607Y2250000D01*
X54668607Y3295000D02*
X54668607Y2250000D01*
X50423607Y6705000D02*
X56773607Y6705000D01*
X55068607Y2250000D02*
X55068607Y3295000D01*
X55938607Y2250000D02*
X56338607Y2250000D01*
X51258607Y7750000D02*
X51258607Y6705000D01*
X52128607Y3295000D02*
X52128607Y2250000D01*
X53398607Y6705000D02*
X53398607Y7750000D01*
X50858607Y7750000D02*
X51258607Y7750000D01*
X50858607Y3295000D02*
X50858607Y2250000D01*
X55938607Y7750000D02*
X56338607Y7750000D01*
X52528607Y2250000D02*
X52528607Y3295000D01*
X52128607Y6705000D02*
X52128607Y7750000D01*
X55938607Y3295000D02*
X55938607Y2250000D01*
X56338607Y2250000D02*
X56338607Y3295000D01*
X56773607Y6705000D02*
X56773607Y3295000D01*
X53798607Y2250000D02*
X53798607Y3295000D01*
X50423607Y3730000D02*
X50423607Y6705000D01*
X50858607Y6705000D02*
X50858607Y7750000D01*
X52528607Y7750000D02*
X52528607Y6705000D01*
X53398607Y3295000D02*
X53398607Y2250000D01*
X51258607Y2250000D02*
X51258607Y3295000D01*
X52128607Y7750000D02*
X52528607Y7750000D01*
X54668607Y6705000D02*
X54668607Y7750000D01*
X53398607Y2250000D02*
X53798607Y2250000D01*
X55068607Y7750000D02*
X55068607Y6705000D01*
X55938607Y6705000D02*
X55938607Y7750000D01*
X56338607Y7750000D02*
X56338607Y6705000D01*
X53398607Y7750000D02*
X53798607Y7750000D01*
X54668607Y7750000D02*
X55068607Y7750000D01*
X53798607Y7750000D02*
X53798607Y6705000D01*
X52128607Y2250000D02*
X52528607Y2250000D01*
G04 #@! TD*
M02*
