G04 #@! TF.GenerationSoftware,KiCad,Pcbnew,(6.0.1)*
G04 #@! TF.CreationDate,2022-03-15T09:01:39+02:00*
G04 #@! TF.ProjectId,alphax_2ch,616c7068-6178-45f3-9263-682e6b696361,b*
G04 #@! TF.SameCoordinates,PX141f5e0PYa2cace0*
G04 #@! TF.FileFunction,Paste,Top*
G04 #@! TF.FilePolarity,Positive*
%FSLAX46Y46*%
G04 Gerber Fmt 4.6, Leading zero omitted, Abs format (unit mm)*
G04 Created by KiCad (PCBNEW (6.0.1)) date 2022-03-15 09:01:39*
%MOMM*%
%LPD*%
G01*
G04 APERTURE LIST*
%ADD10R,0.500000X2.000000*%
%ADD11R,2.000000X1.700000*%
%ADD12R,2.750000X3.050000*%
%ADD13O,0.000001X0.000001*%
%ADD14R,0.650000X1.310000*%
%ADD15R,0.600000X1.310000*%
%ADD16R,0.900000X0.795000*%
%ADD17R,1.300000X1.000000*%
%ADD18R,0.740000X2.400000*%
G04 APERTURE END LIST*
G04 #@! TO.C,R8*
G36*
G01*
X50461417Y83351578D02*
X49211417Y83351578D01*
G75*
G02*
X49111417Y83451578I0J100000D01*
G01*
X49111417Y84251578D01*
G75*
G02*
X49211417Y84351578I100000J0D01*
G01*
X50461417Y84351578D01*
G75*
G02*
X50561417Y84251578I0J-100000D01*
G01*
X50561417Y83451578D01*
G75*
G02*
X50461417Y83351578I-100000J0D01*
G01*
G37*
G36*
G01*
X50461417Y85251600D02*
X49211417Y85251600D01*
G75*
G02*
X49111417Y85351600I0J100000D01*
G01*
X49111417Y86151600D01*
G75*
G02*
X49211417Y86251600I100000J0D01*
G01*
X50461417Y86251600D01*
G75*
G02*
X50561417Y86151600I0J-100000D01*
G01*
X50561417Y85351600D01*
G75*
G02*
X50461417Y85251600I-100000J0D01*
G01*
G37*
G04 #@! TD*
G04 #@! TO.C,R29*
G36*
G01*
X17510000Y53350000D02*
X18290000Y53350000D01*
G75*
G02*
X18360000Y53280000I0J-70000D01*
G01*
X18360000Y52720000D01*
G75*
G02*
X18290000Y52650000I-70000J0D01*
G01*
X17510000Y52650000D01*
G75*
G02*
X17440000Y52720000I0J70000D01*
G01*
X17440000Y53280000D01*
G75*
G02*
X17510000Y53350000I70000J0D01*
G01*
G37*
G36*
G01*
X17510000Y51750000D02*
X18290000Y51750000D01*
G75*
G02*
X18360000Y51680000I0J-70000D01*
G01*
X18360000Y51120000D01*
G75*
G02*
X18290000Y51050000I-70000J0D01*
G01*
X17510000Y51050000D01*
G75*
G02*
X17440000Y51120000I0J70000D01*
G01*
X17440000Y51680000D01*
G75*
G02*
X17510000Y51750000I70000J0D01*
G01*
G37*
G04 #@! TD*
G04 #@! TO.C,R2*
G36*
G01*
X16900000Y76065000D02*
X16900000Y76735000D01*
G75*
G02*
X16965000Y76800000I65000J0D01*
G01*
X17485000Y76800000D01*
G75*
G02*
X17550000Y76735000I0J-65000D01*
G01*
X17550000Y76065000D01*
G75*
G02*
X17485000Y76000000I-65000J0D01*
G01*
X16965000Y76000000D01*
G75*
G02*
X16900000Y76065000I0J65000D01*
G01*
G37*
G36*
G01*
X17875000Y76045000D02*
X17875000Y76755000D01*
G75*
G02*
X17920000Y76800000I45000J0D01*
G01*
X18280000Y76800000D01*
G75*
G02*
X18325000Y76755000I0J-45000D01*
G01*
X18325000Y76045000D01*
G75*
G02*
X18280000Y76000000I-45000J0D01*
G01*
X17920000Y76000000D01*
G75*
G02*
X17875000Y76045000I0J45000D01*
G01*
G37*
G36*
G01*
X18675000Y76045000D02*
X18675000Y76755000D01*
G75*
G02*
X18720000Y76800000I45000J0D01*
G01*
X19080000Y76800000D01*
G75*
G02*
X19125000Y76755000I0J-45000D01*
G01*
X19125000Y76045000D01*
G75*
G02*
X19080000Y76000000I-45000J0D01*
G01*
X18720000Y76000000D01*
G75*
G02*
X18675000Y76045000I0J45000D01*
G01*
G37*
G36*
G01*
X19450000Y76065000D02*
X19450000Y76735000D01*
G75*
G02*
X19515000Y76800000I65000J0D01*
G01*
X20035000Y76800000D01*
G75*
G02*
X20100000Y76735000I0J-65000D01*
G01*
X20100000Y76065000D01*
G75*
G02*
X20035000Y76000000I-65000J0D01*
G01*
X19515000Y76000000D01*
G75*
G02*
X19450000Y76065000I0J65000D01*
G01*
G37*
G36*
G01*
X19450000Y77865000D02*
X19450000Y78535000D01*
G75*
G02*
X19515000Y78600000I65000J0D01*
G01*
X20035000Y78600000D01*
G75*
G02*
X20100000Y78535000I0J-65000D01*
G01*
X20100000Y77865000D01*
G75*
G02*
X20035000Y77800000I-65000J0D01*
G01*
X19515000Y77800000D01*
G75*
G02*
X19450000Y77865000I0J65000D01*
G01*
G37*
G36*
G01*
X18675000Y77845000D02*
X18675000Y78555000D01*
G75*
G02*
X18720000Y78600000I45000J0D01*
G01*
X19080000Y78600000D01*
G75*
G02*
X19125000Y78555000I0J-45000D01*
G01*
X19125000Y77845000D01*
G75*
G02*
X19080000Y77800000I-45000J0D01*
G01*
X18720000Y77800000D01*
G75*
G02*
X18675000Y77845000I0J45000D01*
G01*
G37*
G36*
G01*
X17875000Y77845000D02*
X17875000Y78555000D01*
G75*
G02*
X17920000Y78600000I45000J0D01*
G01*
X18280000Y78600000D01*
G75*
G02*
X18325000Y78555000I0J-45000D01*
G01*
X18325000Y77845000D01*
G75*
G02*
X18280000Y77800000I-45000J0D01*
G01*
X17920000Y77800000D01*
G75*
G02*
X17875000Y77845000I0J45000D01*
G01*
G37*
G36*
G01*
X16900000Y77865000D02*
X16900000Y78535000D01*
G75*
G02*
X16965000Y78600000I65000J0D01*
G01*
X17485000Y78600000D01*
G75*
G02*
X17550000Y78535000I0J-65000D01*
G01*
X17550000Y77865000D01*
G75*
G02*
X17485000Y77800000I-65000J0D01*
G01*
X16965000Y77800000D01*
G75*
G02*
X16900000Y77865000I0J65000D01*
G01*
G37*
G04 #@! TD*
G04 #@! TO.C,R4*
G36*
G01*
X20124000Y90147000D02*
X20124000Y89477000D01*
G75*
G02*
X20059000Y89412000I-65000J0D01*
G01*
X19539000Y89412000D01*
G75*
G02*
X19474000Y89477000I0J65000D01*
G01*
X19474000Y90147000D01*
G75*
G02*
X19539000Y90212000I65000J0D01*
G01*
X20059000Y90212000D01*
G75*
G02*
X20124000Y90147000I0J-65000D01*
G01*
G37*
G36*
G01*
X19149000Y90167000D02*
X19149000Y89457000D01*
G75*
G02*
X19104000Y89412000I-45000J0D01*
G01*
X18744000Y89412000D01*
G75*
G02*
X18699000Y89457000I0J45000D01*
G01*
X18699000Y90167000D01*
G75*
G02*
X18744000Y90212000I45000J0D01*
G01*
X19104000Y90212000D01*
G75*
G02*
X19149000Y90167000I0J-45000D01*
G01*
G37*
G36*
G01*
X18349000Y90167000D02*
X18349000Y89457000D01*
G75*
G02*
X18304000Y89412000I-45000J0D01*
G01*
X17944000Y89412000D01*
G75*
G02*
X17899000Y89457000I0J45000D01*
G01*
X17899000Y90167000D01*
G75*
G02*
X17944000Y90212000I45000J0D01*
G01*
X18304000Y90212000D01*
G75*
G02*
X18349000Y90167000I0J-45000D01*
G01*
G37*
G36*
G01*
X17574000Y90147000D02*
X17574000Y89477000D01*
G75*
G02*
X17509000Y89412000I-65000J0D01*
G01*
X16989000Y89412000D01*
G75*
G02*
X16924000Y89477000I0J65000D01*
G01*
X16924000Y90147000D01*
G75*
G02*
X16989000Y90212000I65000J0D01*
G01*
X17509000Y90212000D01*
G75*
G02*
X17574000Y90147000I0J-65000D01*
G01*
G37*
G36*
G01*
X17574000Y88347000D02*
X17574000Y87677000D01*
G75*
G02*
X17509000Y87612000I-65000J0D01*
G01*
X16989000Y87612000D01*
G75*
G02*
X16924000Y87677000I0J65000D01*
G01*
X16924000Y88347000D01*
G75*
G02*
X16989000Y88412000I65000J0D01*
G01*
X17509000Y88412000D01*
G75*
G02*
X17574000Y88347000I0J-65000D01*
G01*
G37*
G36*
G01*
X18349000Y88367000D02*
X18349000Y87657000D01*
G75*
G02*
X18304000Y87612000I-45000J0D01*
G01*
X17944000Y87612000D01*
G75*
G02*
X17899000Y87657000I0J45000D01*
G01*
X17899000Y88367000D01*
G75*
G02*
X17944000Y88412000I45000J0D01*
G01*
X18304000Y88412000D01*
G75*
G02*
X18349000Y88367000I0J-45000D01*
G01*
G37*
G36*
G01*
X19149000Y88367000D02*
X19149000Y87657000D01*
G75*
G02*
X19104000Y87612000I-45000J0D01*
G01*
X18744000Y87612000D01*
G75*
G02*
X18699000Y87657000I0J45000D01*
G01*
X18699000Y88367000D01*
G75*
G02*
X18744000Y88412000I45000J0D01*
G01*
X19104000Y88412000D01*
G75*
G02*
X19149000Y88367000I0J-45000D01*
G01*
G37*
G36*
G01*
X20124000Y88347000D02*
X20124000Y87677000D01*
G75*
G02*
X20059000Y87612000I-65000J0D01*
G01*
X19539000Y87612000D01*
G75*
G02*
X19474000Y87677000I0J65000D01*
G01*
X19474000Y88347000D01*
G75*
G02*
X19539000Y88412000I65000J0D01*
G01*
X20059000Y88412000D01*
G75*
G02*
X20124000Y88347000I0J-65000D01*
G01*
G37*
G04 #@! TD*
G04 #@! TO.C,C3*
G36*
G01*
X20860000Y26215001D02*
X21540000Y26215001D01*
G75*
G02*
X21625000Y26130001I0J-85000D01*
G01*
X21625000Y25450001D01*
G75*
G02*
X21540000Y25365001I-85000J0D01*
G01*
X20860000Y25365001D01*
G75*
G02*
X20775000Y25450001I0J85000D01*
G01*
X20775000Y26130001D01*
G75*
G02*
X20860000Y26215001I85000J0D01*
G01*
G37*
G36*
G01*
X20860000Y24634999D02*
X21540000Y24634999D01*
G75*
G02*
X21625000Y24549999I0J-85000D01*
G01*
X21625000Y23869999D01*
G75*
G02*
X21540000Y23784999I-85000J0D01*
G01*
X20860000Y23784999D01*
G75*
G02*
X20775000Y23869999I0J85000D01*
G01*
X20775000Y24549999D01*
G75*
G02*
X20860000Y24634999I85000J0D01*
G01*
G37*
G04 #@! TD*
G04 #@! TO.C,R9*
G36*
G01*
X48507571Y83373048D02*
X47257571Y83373048D01*
G75*
G02*
X47157571Y83473048I0J100000D01*
G01*
X47157571Y84273048D01*
G75*
G02*
X47257571Y84373048I100000J0D01*
G01*
X48507571Y84373048D01*
G75*
G02*
X48607571Y84273048I0J-100000D01*
G01*
X48607571Y83473048D01*
G75*
G02*
X48507571Y83373048I-100000J0D01*
G01*
G37*
G36*
G01*
X48507571Y85273070D02*
X47257571Y85273070D01*
G75*
G02*
X47157571Y85373070I0J100000D01*
G01*
X47157571Y86173070D01*
G75*
G02*
X47257571Y86273070I100000J0D01*
G01*
X48507571Y86273070D01*
G75*
G02*
X48607571Y86173070I0J-100000D01*
G01*
X48607571Y85373070D01*
G75*
G02*
X48507571Y85273070I-100000J0D01*
G01*
G37*
G04 #@! TD*
G04 #@! TO.C,F4*
G36*
G01*
X35800000Y85405010D02*
X35800000Y86095010D01*
G75*
G02*
X36030000Y86325010I230000J0D01*
G01*
X37370000Y86325010D01*
G75*
G02*
X37600000Y86095010I0J-230000D01*
G01*
X37600000Y85405010D01*
G75*
G02*
X37370000Y85175010I-230000J0D01*
G01*
X36030000Y85175010D01*
G75*
G02*
X35800000Y85405010I0J230000D01*
G01*
G37*
G36*
G01*
X35800000Y82504990D02*
X35800000Y83194990D01*
G75*
G02*
X36030000Y83424990I230000J0D01*
G01*
X37370000Y83424990D01*
G75*
G02*
X37600000Y83194990I0J-230000D01*
G01*
X37600000Y82504990D01*
G75*
G02*
X37370000Y82274990I-230000J0D01*
G01*
X36030000Y82274990D01*
G75*
G02*
X35800000Y82504990I0J230000D01*
G01*
G37*
G04 #@! TD*
G04 #@! TO.C,Q13*
G36*
G01*
X57075000Y76700000D02*
X57075000Y76400000D01*
G75*
G02*
X56925000Y76250000I-150000J0D01*
G01*
X55750000Y76250000D01*
G75*
G02*
X55600000Y76400000I0J150000D01*
G01*
X55600000Y76700000D01*
G75*
G02*
X55750000Y76850000I150000J0D01*
G01*
X56925000Y76850000D01*
G75*
G02*
X57075000Y76700000I0J-150000D01*
G01*
G37*
G36*
G01*
X55200000Y77650000D02*
X55200000Y77350000D01*
G75*
G02*
X55050000Y77200000I-150000J0D01*
G01*
X53875000Y77200000D01*
G75*
G02*
X53725000Y77350000I0J150000D01*
G01*
X53725000Y77650000D01*
G75*
G02*
X53875000Y77800000I150000J0D01*
G01*
X55050000Y77800000D01*
G75*
G02*
X55200000Y77650000I0J-150000D01*
G01*
G37*
G36*
G01*
X57075000Y78600000D02*
X57075000Y78300000D01*
G75*
G02*
X56925000Y78150000I-150000J0D01*
G01*
X55750000Y78150000D01*
G75*
G02*
X55600000Y78300000I0J150000D01*
G01*
X55600000Y78600000D01*
G75*
G02*
X55750000Y78750000I150000J0D01*
G01*
X56925000Y78750000D01*
G75*
G02*
X57075000Y78600000I0J-150000D01*
G01*
G37*
G04 #@! TD*
G04 #@! TO.C,D1*
G36*
G01*
X17561499Y80000000D02*
X18041499Y80000000D01*
G75*
G02*
X18101499Y79940000I0J-60000D01*
G01*
X18101499Y79460000D01*
G75*
G02*
X18041499Y79400000I-60000J0D01*
G01*
X17561499Y79400000D01*
G75*
G02*
X17501499Y79460000I0J60000D01*
G01*
X17501499Y79940000D01*
G75*
G02*
X17561499Y80000000I60000J0D01*
G01*
G37*
G36*
G01*
X19761499Y80000000D02*
X20241499Y80000000D01*
G75*
G02*
X20301499Y79940000I0J-60000D01*
G01*
X20301499Y79460000D01*
G75*
G02*
X20241499Y79400000I-60000J0D01*
G01*
X19761499Y79400000D01*
G75*
G02*
X19701499Y79460000I0J60000D01*
G01*
X19701499Y79940000D01*
G75*
G02*
X19761499Y80000000I60000J0D01*
G01*
G37*
G04 #@! TD*
G04 #@! TO.C,D15*
G36*
G01*
X13399998Y84200001D02*
X12499998Y84200001D01*
G75*
G02*
X12399998Y84300001I0J100000D01*
G01*
X12399998Y85100001D01*
G75*
G02*
X12499998Y85200001I100000J0D01*
G01*
X13399998Y85200001D01*
G75*
G02*
X13499998Y85100001I0J-100000D01*
G01*
X13499998Y84300001D01*
G75*
G02*
X13399998Y84200001I-100000J0D01*
G01*
G37*
G36*
G01*
X13399998Y85900001D02*
X12499998Y85900001D01*
G75*
G02*
X12399998Y86000001I0J100000D01*
G01*
X12399998Y86800001D01*
G75*
G02*
X12499998Y86900001I100000J0D01*
G01*
X13399998Y86900001D01*
G75*
G02*
X13499998Y86800001I0J-100000D01*
G01*
X13499998Y86000001D01*
G75*
G02*
X13399998Y85900001I-100000J0D01*
G01*
G37*
G04 #@! TD*
G04 #@! TO.C,C1*
G36*
G01*
X27284999Y73860000D02*
X27284999Y74540000D01*
G75*
G02*
X27369999Y74625000I85000J0D01*
G01*
X28049999Y74625000D01*
G75*
G02*
X28134999Y74540000I0J-85000D01*
G01*
X28134999Y73860000D01*
G75*
G02*
X28049999Y73775000I-85000J0D01*
G01*
X27369999Y73775000D01*
G75*
G02*
X27284999Y73860000I0J85000D01*
G01*
G37*
G36*
G01*
X28865001Y73860000D02*
X28865001Y74540000D01*
G75*
G02*
X28950001Y74625000I85000J0D01*
G01*
X29630001Y74625000D01*
G75*
G02*
X29715001Y74540000I0J-85000D01*
G01*
X29715001Y73860000D01*
G75*
G02*
X29630001Y73775000I-85000J0D01*
G01*
X28950001Y73775000D01*
G75*
G02*
X28865001Y73860000I0J85000D01*
G01*
G37*
G04 #@! TD*
G04 #@! TO.C,S1*
G36*
G01*
X43730000Y6050001D02*
X45570000Y6050001D01*
G75*
G02*
X45650000Y5970001I0J-80000D01*
G01*
X45650000Y5330001D01*
G75*
G02*
X45570000Y5250001I-80000J0D01*
G01*
X43730000Y5250001D01*
G75*
G02*
X43650000Y5330001I0J80000D01*
G01*
X43650000Y5970001D01*
G75*
G02*
X43730000Y6050001I80000J0D01*
G01*
G37*
G36*
G01*
X43730000Y1850000D02*
X45570000Y1850000D01*
G75*
G02*
X45650000Y1770000I0J-80000D01*
G01*
X45650000Y1130000D01*
G75*
G02*
X45570000Y1050000I-80000J0D01*
G01*
X43730000Y1050000D01*
G75*
G02*
X43650000Y1130000I0J80000D01*
G01*
X43650000Y1770000D01*
G75*
G02*
X43730000Y1850000I80000J0D01*
G01*
G37*
G04 #@! TD*
G04 #@! TO.C,D6*
G36*
G01*
X17058502Y102312502D02*
X17538502Y102312502D01*
G75*
G02*
X17598502Y102252502I0J-60000D01*
G01*
X17598502Y101772502D01*
G75*
G02*
X17538502Y101712502I-60000J0D01*
G01*
X17058502Y101712502D01*
G75*
G02*
X16998502Y101772502I0J60000D01*
G01*
X16998502Y102252502D01*
G75*
G02*
X17058502Y102312502I60000J0D01*
G01*
G37*
G36*
G01*
X19258502Y102312502D02*
X19738502Y102312502D01*
G75*
G02*
X19798502Y102252502I0J-60000D01*
G01*
X19798502Y101772502D01*
G75*
G02*
X19738502Y101712502I-60000J0D01*
G01*
X19258502Y101712502D01*
G75*
G02*
X19198502Y101772502I0J60000D01*
G01*
X19198502Y102252502D01*
G75*
G02*
X19258502Y102312502I60000J0D01*
G01*
G37*
G04 #@! TD*
G04 #@! TO.C,C4*
G36*
G01*
X49315001Y6240000D02*
X49315001Y5560000D01*
G75*
G02*
X49230001Y5475000I-85000J0D01*
G01*
X48550001Y5475000D01*
G75*
G02*
X48465001Y5560000I0J85000D01*
G01*
X48465001Y6240000D01*
G75*
G02*
X48550001Y6325000I85000J0D01*
G01*
X49230001Y6325000D01*
G75*
G02*
X49315001Y6240000I0J-85000D01*
G01*
G37*
G36*
G01*
X47734999Y6240000D02*
X47734999Y5560000D01*
G75*
G02*
X47649999Y5475000I-85000J0D01*
G01*
X46969999Y5475000D01*
G75*
G02*
X46884999Y5560000I0J85000D01*
G01*
X46884999Y6240000D01*
G75*
G02*
X46969999Y6325000I85000J0D01*
G01*
X47649999Y6325000D01*
G75*
G02*
X47734999Y6240000I0J-85000D01*
G01*
G37*
G04 #@! TD*
G04 #@! TO.C,Q1*
G36*
G01*
X7350000Y29825000D02*
X7050000Y29825000D01*
G75*
G02*
X6900000Y29975000I0J150000D01*
G01*
X6900000Y31150000D01*
G75*
G02*
X7050000Y31300000I150000J0D01*
G01*
X7350000Y31300000D01*
G75*
G02*
X7500000Y31150000I0J-150000D01*
G01*
X7500000Y29975000D01*
G75*
G02*
X7350000Y29825000I-150000J0D01*
G01*
G37*
G36*
G01*
X8300000Y31700000D02*
X8000000Y31700000D01*
G75*
G02*
X7850000Y31850000I0J150000D01*
G01*
X7850000Y33025000D01*
G75*
G02*
X8000000Y33175000I150000J0D01*
G01*
X8300000Y33175000D01*
G75*
G02*
X8450000Y33025000I0J-150000D01*
G01*
X8450000Y31850000D01*
G75*
G02*
X8300000Y31700000I-150000J0D01*
G01*
G37*
G36*
G01*
X9250000Y29825000D02*
X8950000Y29825000D01*
G75*
G02*
X8800000Y29975000I0J150000D01*
G01*
X8800000Y31150000D01*
G75*
G02*
X8950000Y31300000I150000J0D01*
G01*
X9250000Y31300000D01*
G75*
G02*
X9400000Y31150000I0J-150000D01*
G01*
X9400000Y29975000D01*
G75*
G02*
X9250000Y29825000I-150000J0D01*
G01*
G37*
G04 #@! TD*
G04 #@! TO.C,D28*
G36*
G01*
X10250000Y39210000D02*
X10250000Y38190000D01*
G75*
G02*
X10160000Y38100000I-90000J0D01*
G01*
X9440000Y38100000D01*
G75*
G02*
X9350000Y38190000I0J90000D01*
G01*
X9350000Y39210000D01*
G75*
G02*
X9440000Y39300000I90000J0D01*
G01*
X10160000Y39300000D01*
G75*
G02*
X10250000Y39210000I0J-90000D01*
G01*
G37*
G36*
G01*
X6950000Y39210000D02*
X6950000Y38190000D01*
G75*
G02*
X6860000Y38100000I-90000J0D01*
G01*
X6140000Y38100000D01*
G75*
G02*
X6050000Y38190000I0J90000D01*
G01*
X6050000Y39210000D01*
G75*
G02*
X6140000Y39300000I90000J0D01*
G01*
X6860000Y39300000D01*
G75*
G02*
X6950000Y39210000I0J-90000D01*
G01*
G37*
G04 #@! TD*
G04 #@! TO.C,D12*
G36*
G01*
X13399998Y79000001D02*
X12499998Y79000001D01*
G75*
G02*
X12399998Y79100001I0J100000D01*
G01*
X12399998Y79900001D01*
G75*
G02*
X12499998Y80000001I100000J0D01*
G01*
X13399998Y80000001D01*
G75*
G02*
X13499998Y79900001I0J-100000D01*
G01*
X13499998Y79100001D01*
G75*
G02*
X13399998Y79000001I-100000J0D01*
G01*
G37*
G36*
G01*
X13399998Y80700001D02*
X12499998Y80700001D01*
G75*
G02*
X12399998Y80800001I0J100000D01*
G01*
X12399998Y81600001D01*
G75*
G02*
X12499998Y81700001I100000J0D01*
G01*
X13399998Y81700001D01*
G75*
G02*
X13499998Y81600001I0J-100000D01*
G01*
X13499998Y80800001D01*
G75*
G02*
X13399998Y80700001I-100000J0D01*
G01*
G37*
G04 #@! TD*
G04 #@! TO.C,R38*
G36*
G01*
X19850000Y28410000D02*
X19850000Y29190000D01*
G75*
G02*
X19920000Y29260000I70000J0D01*
G01*
X20480000Y29260000D01*
G75*
G02*
X20550000Y29190000I0J-70000D01*
G01*
X20550000Y28410000D01*
G75*
G02*
X20480000Y28340000I-70000J0D01*
G01*
X19920000Y28340000D01*
G75*
G02*
X19850000Y28410000I0J70000D01*
G01*
G37*
G36*
G01*
X21450000Y28410000D02*
X21450000Y29190000D01*
G75*
G02*
X21520000Y29260000I70000J0D01*
G01*
X22080000Y29260000D01*
G75*
G02*
X22150000Y29190000I0J-70000D01*
G01*
X22150000Y28410000D01*
G75*
G02*
X22080000Y28340000I-70000J0D01*
G01*
X21520000Y28340000D01*
G75*
G02*
X21450000Y28410000I0J70000D01*
G01*
G37*
G04 #@! TD*
G04 #@! TO.C,D22*
G36*
G01*
X17060000Y100500000D02*
X17540000Y100500000D01*
G75*
G02*
X17600000Y100440000I0J-60000D01*
G01*
X17600000Y99960000D01*
G75*
G02*
X17540000Y99900000I-60000J0D01*
G01*
X17060000Y99900000D01*
G75*
G02*
X17000000Y99960000I0J60000D01*
G01*
X17000000Y100440000D01*
G75*
G02*
X17060000Y100500000I60000J0D01*
G01*
G37*
G36*
G01*
X19260000Y100500000D02*
X19740000Y100500000D01*
G75*
G02*
X19800000Y100440000I0J-60000D01*
G01*
X19800000Y99960000D01*
G75*
G02*
X19740000Y99900000I-60000J0D01*
G01*
X19260000Y99900000D01*
G75*
G02*
X19200000Y99960000I0J60000D01*
G01*
X19200000Y100440000D01*
G75*
G02*
X19260000Y100500000I60000J0D01*
G01*
G37*
G04 #@! TD*
G04 #@! TO.C,R32*
G36*
G01*
X51650000Y76856000D02*
X51650000Y76076000D01*
G75*
G02*
X51580000Y76006000I-70000J0D01*
G01*
X51020000Y76006000D01*
G75*
G02*
X50950000Y76076000I0J70000D01*
G01*
X50950000Y76856000D01*
G75*
G02*
X51020000Y76926000I70000J0D01*
G01*
X51580000Y76926000D01*
G75*
G02*
X51650000Y76856000I0J-70000D01*
G01*
G37*
G36*
G01*
X50050000Y76856000D02*
X50050000Y76076000D01*
G75*
G02*
X49980000Y76006000I-70000J0D01*
G01*
X49420000Y76006000D01*
G75*
G02*
X49350000Y76076000I0J70000D01*
G01*
X49350000Y76856000D01*
G75*
G02*
X49420000Y76926000I70000J0D01*
G01*
X49980000Y76926000D01*
G75*
G02*
X50050000Y76856000I0J-70000D01*
G01*
G37*
G04 #@! TD*
G04 #@! TO.C,D11*
G36*
G01*
X13399998Y94600001D02*
X12499998Y94600001D01*
G75*
G02*
X12399998Y94700001I0J100000D01*
G01*
X12399998Y95500001D01*
G75*
G02*
X12499998Y95600001I100000J0D01*
G01*
X13399998Y95600001D01*
G75*
G02*
X13499998Y95500001I0J-100000D01*
G01*
X13499998Y94700001D01*
G75*
G02*
X13399998Y94600001I-100000J0D01*
G01*
G37*
G36*
G01*
X13399998Y96300001D02*
X12499998Y96300001D01*
G75*
G02*
X12399998Y96400001I0J100000D01*
G01*
X12399998Y97200001D01*
G75*
G02*
X12499998Y97300001I100000J0D01*
G01*
X13399998Y97300001D01*
G75*
G02*
X13499998Y97200001I0J-100000D01*
G01*
X13499998Y96400001D01*
G75*
G02*
X13399998Y96300001I-100000J0D01*
G01*
G37*
G04 #@! TD*
G04 #@! TO.C,R11*
G36*
G01*
X25125000Y83349999D02*
X23875000Y83349999D01*
G75*
G02*
X23775000Y83449999I0J100000D01*
G01*
X23775000Y84249999D01*
G75*
G02*
X23875000Y84349999I100000J0D01*
G01*
X25125000Y84349999D01*
G75*
G02*
X25225000Y84249999I0J-100000D01*
G01*
X25225000Y83449999D01*
G75*
G02*
X25125000Y83349999I-100000J0D01*
G01*
G37*
G36*
G01*
X25125000Y85250021D02*
X23875000Y85250021D01*
G75*
G02*
X23775000Y85350021I0J100000D01*
G01*
X23775000Y86150021D01*
G75*
G02*
X23875000Y86250021I100000J0D01*
G01*
X25125000Y86250021D01*
G75*
G02*
X25225000Y86150021I0J-100000D01*
G01*
X25225000Y85350021D01*
G75*
G02*
X25125000Y85250021I-100000J0D01*
G01*
G37*
G04 #@! TD*
G04 #@! TO.C,R6*
G36*
G01*
X73850001Y104025000D02*
X73850001Y102775000D01*
G75*
G02*
X73750001Y102675000I-100000J0D01*
G01*
X72950001Y102675000D01*
G75*
G02*
X72850001Y102775000I0J100000D01*
G01*
X72850001Y104025000D01*
G75*
G02*
X72950001Y104125000I100000J0D01*
G01*
X73750001Y104125000D01*
G75*
G02*
X73850001Y104025000I0J-100000D01*
G01*
G37*
G36*
G01*
X71949979Y104025000D02*
X71949979Y102775000D01*
G75*
G02*
X71849979Y102675000I-100000J0D01*
G01*
X71049979Y102675000D01*
G75*
G02*
X70949979Y102775000I0J100000D01*
G01*
X70949979Y104025000D01*
G75*
G02*
X71049979Y104125000I100000J0D01*
G01*
X71849979Y104125000D01*
G75*
G02*
X71949979Y104025000I0J-100000D01*
G01*
G37*
G04 #@! TD*
D10*
G04 #@! TO.C,J1*
X27300000Y9175000D03*
X28100000Y9175000D03*
X28900000Y9175000D03*
X29700000Y9175000D03*
X30500000Y9175000D03*
D11*
X24450000Y9075000D03*
X33350000Y9075000D03*
X24450000Y3625000D03*
X33350000Y3625000D03*
G04 #@! TD*
D12*
G04 #@! TO.C,Q8*
X79725000Y95475000D03*
X79725000Y92125000D03*
X76675000Y92125000D03*
X76675000Y95475000D03*
G36*
G01*
X76400000Y86400000D02*
X75440000Y86400000D01*
G75*
G02*
X75320000Y86520000I0J120000D01*
G01*
X75320000Y88480000D01*
G75*
G02*
X75440000Y88600000I120000J0D01*
G01*
X76400000Y88600000D01*
G75*
G02*
X76520000Y88480000I0J-120000D01*
G01*
X76520000Y86520000D01*
G75*
G02*
X76400000Y86400000I-120000J0D01*
G01*
G37*
G36*
G01*
X80960000Y86400000D02*
X80000000Y86400000D01*
G75*
G02*
X79880000Y86520000I0J120000D01*
G01*
X79880000Y88480000D01*
G75*
G02*
X80000000Y88600000I120000J0D01*
G01*
X80960000Y88600000D01*
G75*
G02*
X81080000Y88480000I0J-120000D01*
G01*
X81080000Y86520000D01*
G75*
G02*
X80960000Y86400000I-120000J0D01*
G01*
G37*
G04 #@! TD*
G04 #@! TO.C,Q4*
G36*
G01*
X8300000Y50825000D02*
X8600000Y50825000D01*
G75*
G02*
X8750000Y50675000I0J-150000D01*
G01*
X8750000Y49500000D01*
G75*
G02*
X8600000Y49350000I-150000J0D01*
G01*
X8300000Y49350000D01*
G75*
G02*
X8150000Y49500000I0J150000D01*
G01*
X8150000Y50675000D01*
G75*
G02*
X8300000Y50825000I150000J0D01*
G01*
G37*
G36*
G01*
X7350000Y48950000D02*
X7650000Y48950000D01*
G75*
G02*
X7800000Y48800000I0J-150000D01*
G01*
X7800000Y47625000D01*
G75*
G02*
X7650000Y47475000I-150000J0D01*
G01*
X7350000Y47475000D01*
G75*
G02*
X7200000Y47625000I0J150000D01*
G01*
X7200000Y48800000D01*
G75*
G02*
X7350000Y48950000I150000J0D01*
G01*
G37*
G36*
G01*
X6400000Y50825000D02*
X6700000Y50825000D01*
G75*
G02*
X6850000Y50675000I0J-150000D01*
G01*
X6850000Y49500000D01*
G75*
G02*
X6700000Y49350000I-150000J0D01*
G01*
X6400000Y49350000D01*
G75*
G02*
X6250000Y49500000I0J150000D01*
G01*
X6250000Y50675000D01*
G75*
G02*
X6400000Y50825000I150000J0D01*
G01*
G37*
G04 #@! TD*
G04 #@! TO.C,Q3*
G36*
G01*
X7450000Y33925000D02*
X7150000Y33925000D01*
G75*
G02*
X7000000Y34075000I0J150000D01*
G01*
X7000000Y35250000D01*
G75*
G02*
X7150000Y35400000I150000J0D01*
G01*
X7450000Y35400000D01*
G75*
G02*
X7600000Y35250000I0J-150000D01*
G01*
X7600000Y34075000D01*
G75*
G02*
X7450000Y33925000I-150000J0D01*
G01*
G37*
G36*
G01*
X8400000Y35800000D02*
X8100000Y35800000D01*
G75*
G02*
X7950000Y35950000I0J150000D01*
G01*
X7950000Y37125000D01*
G75*
G02*
X8100000Y37275000I150000J0D01*
G01*
X8400000Y37275000D01*
G75*
G02*
X8550000Y37125000I0J-150000D01*
G01*
X8550000Y35950000D01*
G75*
G02*
X8400000Y35800000I-150000J0D01*
G01*
G37*
G36*
G01*
X9350000Y33925000D02*
X9050000Y33925000D01*
G75*
G02*
X8900000Y34075000I0J150000D01*
G01*
X8900000Y35250000D01*
G75*
G02*
X9050000Y35400000I150000J0D01*
G01*
X9350000Y35400000D01*
G75*
G02*
X9500000Y35250000I0J-150000D01*
G01*
X9500000Y34075000D01*
G75*
G02*
X9350000Y33925000I-150000J0D01*
G01*
G37*
G04 #@! TD*
G04 #@! TO.C,R30*
G36*
G01*
X59808000Y73050000D02*
X59028000Y73050000D01*
G75*
G02*
X58958000Y73120000I0J70000D01*
G01*
X58958000Y73680000D01*
G75*
G02*
X59028000Y73750000I70000J0D01*
G01*
X59808000Y73750000D01*
G75*
G02*
X59878000Y73680000I0J-70000D01*
G01*
X59878000Y73120000D01*
G75*
G02*
X59808000Y73050000I-70000J0D01*
G01*
G37*
G36*
G01*
X59808000Y74650000D02*
X59028000Y74650000D01*
G75*
G02*
X58958000Y74720000I0J70000D01*
G01*
X58958000Y75280000D01*
G75*
G02*
X59028000Y75350000I70000J0D01*
G01*
X59808000Y75350000D01*
G75*
G02*
X59878000Y75280000I0J-70000D01*
G01*
X59878000Y74720000D01*
G75*
G02*
X59808000Y74650000I-70000J0D01*
G01*
G37*
G04 #@! TD*
G04 #@! TO.C,R41*
G36*
G01*
X20760000Y46600000D02*
X21540000Y46600000D01*
G75*
G02*
X21610000Y46530000I0J-70000D01*
G01*
X21610000Y45970000D01*
G75*
G02*
X21540000Y45900000I-70000J0D01*
G01*
X20760000Y45900000D01*
G75*
G02*
X20690000Y45970000I0J70000D01*
G01*
X20690000Y46530000D01*
G75*
G02*
X20760000Y46600000I70000J0D01*
G01*
G37*
G36*
G01*
X20760000Y45000000D02*
X21540000Y45000000D01*
G75*
G02*
X21610000Y44930000I0J-70000D01*
G01*
X21610000Y44370000D01*
G75*
G02*
X21540000Y44300000I-70000J0D01*
G01*
X20760000Y44300000D01*
G75*
G02*
X20690000Y44370000I0J70000D01*
G01*
X20690000Y44930000D01*
G75*
G02*
X20760000Y45000000I70000J0D01*
G01*
G37*
G04 #@! TD*
G04 #@! TO.C,U2*
G36*
G01*
X7340000Y43675000D02*
X7660000Y43675000D01*
G75*
G02*
X7700000Y43635000I0J-40000D01*
G01*
X7700000Y43065000D01*
G75*
G02*
X7660000Y43025000I-40000J0D01*
G01*
X7340000Y43025000D01*
G75*
G02*
X7300000Y43065000I0J40000D01*
G01*
X7300000Y43635000D01*
G75*
G02*
X7340000Y43675000I40000J0D01*
G01*
G37*
G36*
G01*
X6690000Y43675000D02*
X7010000Y43675000D01*
G75*
G02*
X7050000Y43635000I0J-40000D01*
G01*
X7050000Y43065000D01*
G75*
G02*
X7010000Y43025000I-40000J0D01*
G01*
X6690000Y43025000D01*
G75*
G02*
X6650000Y43065000I0J40000D01*
G01*
X6650000Y43635000D01*
G75*
G02*
X6690000Y43675000I40000J0D01*
G01*
G37*
G36*
G01*
X6040000Y43675000D02*
X6360000Y43675000D01*
G75*
G02*
X6400000Y43635000I0J-40000D01*
G01*
X6400000Y43065000D01*
G75*
G02*
X6360000Y43025000I-40000J0D01*
G01*
X6040000Y43025000D01*
G75*
G02*
X6000000Y43065000I0J40000D01*
G01*
X6000000Y43635000D01*
G75*
G02*
X6040000Y43675000I40000J0D01*
G01*
G37*
G36*
G01*
X6040000Y41775000D02*
X6360000Y41775000D01*
G75*
G02*
X6400000Y41735000I0J-40000D01*
G01*
X6400000Y41165000D01*
G75*
G02*
X6360000Y41125000I-40000J0D01*
G01*
X6040000Y41125000D01*
G75*
G02*
X6000000Y41165000I0J40000D01*
G01*
X6000000Y41735000D01*
G75*
G02*
X6040000Y41775000I40000J0D01*
G01*
G37*
G36*
G01*
X6690000Y41775000D02*
X7010000Y41775000D01*
G75*
G02*
X7050000Y41735000I0J-40000D01*
G01*
X7050000Y41165000D01*
G75*
G02*
X7010000Y41125000I-40000J0D01*
G01*
X6690000Y41125000D01*
G75*
G02*
X6650000Y41165000I0J40000D01*
G01*
X6650000Y41735000D01*
G75*
G02*
X6690000Y41775000I40000J0D01*
G01*
G37*
G36*
G01*
X7340000Y41775000D02*
X7660000Y41775000D01*
G75*
G02*
X7700000Y41735000I0J-40000D01*
G01*
X7700000Y41165000D01*
G75*
G02*
X7660000Y41125000I-40000J0D01*
G01*
X7340000Y41125000D01*
G75*
G02*
X7300000Y41165000I0J40000D01*
G01*
X7300000Y41735000D01*
G75*
G02*
X7340000Y41775000I40000J0D01*
G01*
G37*
G04 #@! TD*
G04 #@! TO.C,Q15*
G36*
G01*
X11400000Y44625000D02*
X11100000Y44625000D01*
G75*
G02*
X10950000Y44775000I0J150000D01*
G01*
X10950000Y45950000D01*
G75*
G02*
X11100000Y46100000I150000J0D01*
G01*
X11400000Y46100000D01*
G75*
G02*
X11550000Y45950000I0J-150000D01*
G01*
X11550000Y44775000D01*
G75*
G02*
X11400000Y44625000I-150000J0D01*
G01*
G37*
G36*
G01*
X12350000Y46500000D02*
X12050000Y46500000D01*
G75*
G02*
X11900000Y46650000I0J150000D01*
G01*
X11900000Y47825000D01*
G75*
G02*
X12050000Y47975000I150000J0D01*
G01*
X12350000Y47975000D01*
G75*
G02*
X12500000Y47825000I0J-150000D01*
G01*
X12500000Y46650000D01*
G75*
G02*
X12350000Y46500000I-150000J0D01*
G01*
G37*
G36*
G01*
X13300000Y44625000D02*
X13000000Y44625000D01*
G75*
G02*
X12850000Y44775000I0J150000D01*
G01*
X12850000Y45950000D01*
G75*
G02*
X13000000Y46100000I150000J0D01*
G01*
X13300000Y46100000D01*
G75*
G02*
X13450000Y45950000I0J-150000D01*
G01*
X13450000Y44775000D01*
G75*
G02*
X13300000Y44625000I-150000J0D01*
G01*
G37*
G04 #@! TD*
G04 #@! TO.C,R17*
G36*
G01*
X39525000Y83349999D02*
X38275000Y83349999D01*
G75*
G02*
X38175000Y83449999I0J100000D01*
G01*
X38175000Y84249999D01*
G75*
G02*
X38275000Y84349999I100000J0D01*
G01*
X39525000Y84349999D01*
G75*
G02*
X39625000Y84249999I0J-100000D01*
G01*
X39625000Y83449999D01*
G75*
G02*
X39525000Y83349999I-100000J0D01*
G01*
G37*
G36*
G01*
X39525000Y85250021D02*
X38275000Y85250021D01*
G75*
G02*
X38175000Y85350021I0J100000D01*
G01*
X38175000Y86150021D01*
G75*
G02*
X38275000Y86250021I100000J0D01*
G01*
X39525000Y86250021D01*
G75*
G02*
X39625000Y86150021I0J-100000D01*
G01*
X39625000Y85350021D01*
G75*
G02*
X39525000Y85250021I-100000J0D01*
G01*
G37*
G04 #@! TD*
G04 #@! TO.C,R33*
G36*
G01*
X51750000Y78380000D02*
X51750000Y77600000D01*
G75*
G02*
X51680000Y77530000I-70000J0D01*
G01*
X51120000Y77530000D01*
G75*
G02*
X51050000Y77600000I0J70000D01*
G01*
X51050000Y78380000D01*
G75*
G02*
X51120000Y78450000I70000J0D01*
G01*
X51680000Y78450000D01*
G75*
G02*
X51750000Y78380000I0J-70000D01*
G01*
G37*
G36*
G01*
X50150000Y78380000D02*
X50150000Y77600000D01*
G75*
G02*
X50080000Y77530000I-70000J0D01*
G01*
X49520000Y77530000D01*
G75*
G02*
X49450000Y77600000I0J70000D01*
G01*
X49450000Y78380000D01*
G75*
G02*
X49520000Y78450000I70000J0D01*
G01*
X50080000Y78450000D01*
G75*
G02*
X50150000Y78380000I0J-70000D01*
G01*
G37*
G04 #@! TD*
G04 #@! TO.C,Q19*
G36*
G01*
X19652000Y29723000D02*
X19352000Y29723000D01*
G75*
G02*
X19202000Y29873000I0J150000D01*
G01*
X19202000Y31048000D01*
G75*
G02*
X19352000Y31198000I150000J0D01*
G01*
X19652000Y31198000D01*
G75*
G02*
X19802000Y31048000I0J-150000D01*
G01*
X19802000Y29873000D01*
G75*
G02*
X19652000Y29723000I-150000J0D01*
G01*
G37*
G36*
G01*
X20602000Y31598000D02*
X20302000Y31598000D01*
G75*
G02*
X20152000Y31748000I0J150000D01*
G01*
X20152000Y32923000D01*
G75*
G02*
X20302000Y33073000I150000J0D01*
G01*
X20602000Y33073000D01*
G75*
G02*
X20752000Y32923000I0J-150000D01*
G01*
X20752000Y31748000D01*
G75*
G02*
X20602000Y31598000I-150000J0D01*
G01*
G37*
G36*
G01*
X21552000Y29723000D02*
X21252000Y29723000D01*
G75*
G02*
X21102000Y29873000I0J150000D01*
G01*
X21102000Y31048000D01*
G75*
G02*
X21252000Y31198000I150000J0D01*
G01*
X21552000Y31198000D01*
G75*
G02*
X21702000Y31048000I0J-150000D01*
G01*
X21702000Y29873000D01*
G75*
G02*
X21552000Y29723000I-150000J0D01*
G01*
G37*
G04 #@! TD*
G04 #@! TO.C,S2*
G36*
G01*
X37230000Y6050001D02*
X39070000Y6050001D01*
G75*
G02*
X39150000Y5970001I0J-80000D01*
G01*
X39150000Y5330001D01*
G75*
G02*
X39070000Y5250001I-80000J0D01*
G01*
X37230000Y5250001D01*
G75*
G02*
X37150000Y5330001I0J80000D01*
G01*
X37150000Y5970001D01*
G75*
G02*
X37230000Y6050001I80000J0D01*
G01*
G37*
G36*
G01*
X37230000Y1850000D02*
X39070000Y1850000D01*
G75*
G02*
X39150000Y1770000I0J-80000D01*
G01*
X39150000Y1130000D01*
G75*
G02*
X39070000Y1050000I-80000J0D01*
G01*
X37230000Y1050000D01*
G75*
G02*
X37150000Y1130000I0J80000D01*
G01*
X37150000Y1770000D01*
G75*
G02*
X37230000Y1850000I80000J0D01*
G01*
G37*
G04 #@! TD*
G04 #@! TO.C,Q18*
G36*
G01*
X17696000Y33073000D02*
X17996000Y33073000D01*
G75*
G02*
X18146000Y32923000I0J-150000D01*
G01*
X18146000Y31748000D01*
G75*
G02*
X17996000Y31598000I-150000J0D01*
G01*
X17696000Y31598000D01*
G75*
G02*
X17546000Y31748000I0J150000D01*
G01*
X17546000Y32923000D01*
G75*
G02*
X17696000Y33073000I150000J0D01*
G01*
G37*
G36*
G01*
X16746000Y31198000D02*
X17046000Y31198000D01*
G75*
G02*
X17196000Y31048000I0J-150000D01*
G01*
X17196000Y29873000D01*
G75*
G02*
X17046000Y29723000I-150000J0D01*
G01*
X16746000Y29723000D01*
G75*
G02*
X16596000Y29873000I0J150000D01*
G01*
X16596000Y31048000D01*
G75*
G02*
X16746000Y31198000I150000J0D01*
G01*
G37*
G36*
G01*
X15796000Y33073000D02*
X16096000Y33073000D01*
G75*
G02*
X16246000Y32923000I0J-150000D01*
G01*
X16246000Y31748000D01*
G75*
G02*
X16096000Y31598000I-150000J0D01*
G01*
X15796000Y31598000D01*
G75*
G02*
X15646000Y31748000I0J150000D01*
G01*
X15646000Y32923000D01*
G75*
G02*
X15796000Y33073000I150000J0D01*
G01*
G37*
G04 #@! TD*
G04 #@! TO.C,D26*
G36*
G01*
X77800000Y83790000D02*
X77800000Y84810000D01*
G75*
G02*
X77890000Y84900000I90000J0D01*
G01*
X78610000Y84900000D01*
G75*
G02*
X78700000Y84810000I0J-90000D01*
G01*
X78700000Y83790000D01*
G75*
G02*
X78610000Y83700000I-90000J0D01*
G01*
X77890000Y83700000D01*
G75*
G02*
X77800000Y83790000I0J90000D01*
G01*
G37*
G36*
G01*
X81100000Y83790000D02*
X81100000Y84810000D01*
G75*
G02*
X81190000Y84900000I90000J0D01*
G01*
X81910000Y84900000D01*
G75*
G02*
X82000000Y84810000I0J-90000D01*
G01*
X82000000Y83790000D01*
G75*
G02*
X81910000Y83700000I-90000J0D01*
G01*
X81190000Y83700000D01*
G75*
G02*
X81100000Y83790000I0J90000D01*
G01*
G37*
G04 #@! TD*
G04 #@! TO.C,R16*
G36*
G01*
X46025000Y83349999D02*
X44775000Y83349999D01*
G75*
G02*
X44675000Y83449999I0J100000D01*
G01*
X44675000Y84249999D01*
G75*
G02*
X44775000Y84349999I100000J0D01*
G01*
X46025000Y84349999D01*
G75*
G02*
X46125000Y84249999I0J-100000D01*
G01*
X46125000Y83449999D01*
G75*
G02*
X46025000Y83349999I-100000J0D01*
G01*
G37*
G36*
G01*
X46025000Y85250021D02*
X44775000Y85250021D01*
G75*
G02*
X44675000Y85350021I0J100000D01*
G01*
X44675000Y86150021D01*
G75*
G02*
X44775000Y86250021I100000J0D01*
G01*
X46025000Y86250021D01*
G75*
G02*
X46125000Y86150021I0J-100000D01*
G01*
X46125000Y85350021D01*
G75*
G02*
X46025000Y85250021I-100000J0D01*
G01*
G37*
G04 #@! TD*
D13*
G04 #@! TO.C,M7*
X57643334Y11462500D03*
G04 #@! TD*
G04 #@! TO.C,D9*
G36*
G01*
X8999998Y79000001D02*
X8099998Y79000001D01*
G75*
G02*
X7999998Y79100001I0J100000D01*
G01*
X7999998Y79900001D01*
G75*
G02*
X8099998Y80000001I100000J0D01*
G01*
X8999998Y80000001D01*
G75*
G02*
X9099998Y79900001I0J-100000D01*
G01*
X9099998Y79100001D01*
G75*
G02*
X8999998Y79000001I-100000J0D01*
G01*
G37*
G36*
G01*
X8999998Y80700001D02*
X8099998Y80700001D01*
G75*
G02*
X7999998Y80800001I0J100000D01*
G01*
X7999998Y81600001D01*
G75*
G02*
X8099998Y81700001I100000J0D01*
G01*
X8999998Y81700001D01*
G75*
G02*
X9099998Y81600001I0J-100000D01*
G01*
X9099998Y80800001D01*
G75*
G02*
X8999998Y80700001I-100000J0D01*
G01*
G37*
G04 #@! TD*
G04 #@! TO.C,D8*
G36*
G01*
X19640000Y91406000D02*
X19160000Y91406000D01*
G75*
G02*
X19100000Y91466000I0J60000D01*
G01*
X19100000Y91946000D01*
G75*
G02*
X19160000Y92006000I60000J0D01*
G01*
X19640000Y92006000D01*
G75*
G02*
X19700000Y91946000I0J-60000D01*
G01*
X19700000Y91466000D01*
G75*
G02*
X19640000Y91406000I-60000J0D01*
G01*
G37*
G36*
G01*
X17440000Y91406000D02*
X16960000Y91406000D01*
G75*
G02*
X16900000Y91466000I0J60000D01*
G01*
X16900000Y91946000D01*
G75*
G02*
X16960000Y92006000I60000J0D01*
G01*
X17440000Y92006000D01*
G75*
G02*
X17500000Y91946000I0J-60000D01*
G01*
X17500000Y91466000D01*
G75*
G02*
X17440000Y91406000I-60000J0D01*
G01*
G37*
G04 #@! TD*
G04 #@! TO.C,D14*
G36*
G01*
X8999998Y99800001D02*
X8099998Y99800001D01*
G75*
G02*
X7999998Y99900001I0J100000D01*
G01*
X7999998Y100700001D01*
G75*
G02*
X8099998Y100800001I100000J0D01*
G01*
X8999998Y100800001D01*
G75*
G02*
X9099998Y100700001I0J-100000D01*
G01*
X9099998Y99900001D01*
G75*
G02*
X8999998Y99800001I-100000J0D01*
G01*
G37*
G36*
G01*
X8999998Y101500001D02*
X8099998Y101500001D01*
G75*
G02*
X7999998Y101600001I0J100000D01*
G01*
X7999998Y102400001D01*
G75*
G02*
X8099998Y102500001I100000J0D01*
G01*
X8999998Y102500001D01*
G75*
G02*
X9099998Y102400001I0J-100000D01*
G01*
X9099998Y101600001D01*
G75*
G02*
X8999998Y101500001I-100000J0D01*
G01*
G37*
G04 #@! TD*
G04 #@! TO.C,M1*
X13891015Y60537887D03*
X13976216Y66040452D03*
G36*
G01*
X22716011Y70462884D02*
X22716011Y70462884D01*
X22716011Y70462884D01*
X22716011Y70462884D01*
X22716011Y70462884D01*
G37*
X23216020Y67462887D03*
G04 #@! TD*
G04 #@! TO.C,Q14*
G36*
G01*
X54575000Y73300000D02*
X54575000Y73000000D01*
G75*
G02*
X54425000Y72850000I-150000J0D01*
G01*
X53250000Y72850000D01*
G75*
G02*
X53100000Y73000000I0J150000D01*
G01*
X53100000Y73300000D01*
G75*
G02*
X53250000Y73450000I150000J0D01*
G01*
X54425000Y73450000D01*
G75*
G02*
X54575000Y73300000I0J-150000D01*
G01*
G37*
G36*
G01*
X52700000Y74250000D02*
X52700000Y73950000D01*
G75*
G02*
X52550000Y73800000I-150000J0D01*
G01*
X51375000Y73800000D01*
G75*
G02*
X51225000Y73950000I0J150000D01*
G01*
X51225000Y74250000D01*
G75*
G02*
X51375000Y74400000I150000J0D01*
G01*
X52550000Y74400000D01*
G75*
G02*
X52700000Y74250000I0J-150000D01*
G01*
G37*
G36*
G01*
X54575000Y75200000D02*
X54575000Y74900000D01*
G75*
G02*
X54425000Y74750000I-150000J0D01*
G01*
X53250000Y74750000D01*
G75*
G02*
X53100000Y74900000I0J150000D01*
G01*
X53100000Y75200000D01*
G75*
G02*
X53250000Y75350000I150000J0D01*
G01*
X54425000Y75350000D01*
G75*
G02*
X54575000Y75200000I0J-150000D01*
G01*
G37*
G04 #@! TD*
G04 #@! TO.C,D29*
G36*
G01*
X10550000Y30990000D02*
X10550000Y32010000D01*
G75*
G02*
X10640000Y32100000I90000J0D01*
G01*
X11360000Y32100000D01*
G75*
G02*
X11450000Y32010000I0J-90000D01*
G01*
X11450000Y30990000D01*
G75*
G02*
X11360000Y30900000I-90000J0D01*
G01*
X10640000Y30900000D01*
G75*
G02*
X10550000Y30990000I0J90000D01*
G01*
G37*
G36*
G01*
X13850000Y30990000D02*
X13850000Y32010000D01*
G75*
G02*
X13940000Y32100000I90000J0D01*
G01*
X14660000Y32100000D01*
G75*
G02*
X14750000Y32010000I0J-90000D01*
G01*
X14750000Y30990000D01*
G75*
G02*
X14660000Y30900000I-90000J0D01*
G01*
X13940000Y30900000D01*
G75*
G02*
X13850000Y30990000I0J90000D01*
G01*
G37*
G04 #@! TD*
G04 #@! TO.C,C5*
G36*
G01*
X8875001Y40628000D02*
X8875001Y39948000D01*
G75*
G02*
X8790001Y39863000I-85000J0D01*
G01*
X8110001Y39863000D01*
G75*
G02*
X8025001Y39948000I0J85000D01*
G01*
X8025001Y40628000D01*
G75*
G02*
X8110001Y40713000I85000J0D01*
G01*
X8790001Y40713000D01*
G75*
G02*
X8875001Y40628000I0J-85000D01*
G01*
G37*
G36*
G01*
X7294999Y40628000D02*
X7294999Y39948000D01*
G75*
G02*
X7209999Y39863000I-85000J0D01*
G01*
X6529999Y39863000D01*
G75*
G02*
X6444999Y39948000I0J85000D01*
G01*
X6444999Y40628000D01*
G75*
G02*
X6529999Y40713000I85000J0D01*
G01*
X7209999Y40713000D01*
G75*
G02*
X7294999Y40628000I0J-85000D01*
G01*
G37*
G04 #@! TD*
G04 #@! TO.C,D16*
G36*
G01*
X13399998Y89400001D02*
X12499998Y89400001D01*
G75*
G02*
X12399998Y89500001I0J100000D01*
G01*
X12399998Y90300001D01*
G75*
G02*
X12499998Y90400001I100000J0D01*
G01*
X13399998Y90400001D01*
G75*
G02*
X13499998Y90300001I0J-100000D01*
G01*
X13499998Y89500001D01*
G75*
G02*
X13399998Y89400001I-100000J0D01*
G01*
G37*
G36*
G01*
X13399998Y91100001D02*
X12499998Y91100001D01*
G75*
G02*
X12399998Y91200001I0J100000D01*
G01*
X12399998Y92000001D01*
G75*
G02*
X12499998Y92100001I100000J0D01*
G01*
X13399998Y92100001D01*
G75*
G02*
X13499998Y92000001I0J-100000D01*
G01*
X13499998Y91200001D01*
G75*
G02*
X13399998Y91100001I-100000J0D01*
G01*
G37*
G04 #@! TD*
G04 #@! TO.C,R3*
G36*
G01*
X24627135Y70236000D02*
X23847135Y70236000D01*
G75*
G02*
X23777135Y70306000I0J70000D01*
G01*
X23777135Y70866000D01*
G75*
G02*
X23847135Y70936000I70000J0D01*
G01*
X24627135Y70936000D01*
G75*
G02*
X24697135Y70866000I0J-70000D01*
G01*
X24697135Y70306000D01*
G75*
G02*
X24627135Y70236000I-70000J0D01*
G01*
G37*
G36*
G01*
X24627135Y71836000D02*
X23847135Y71836000D01*
G75*
G02*
X23777135Y71906000I0J70000D01*
G01*
X23777135Y72466000D01*
G75*
G02*
X23847135Y72536000I70000J0D01*
G01*
X24627135Y72536000D01*
G75*
G02*
X24697135Y72466000I0J-70000D01*
G01*
X24697135Y71906000D01*
G75*
G02*
X24627135Y71836000I-70000J0D01*
G01*
G37*
G04 #@! TD*
G04 #@! TO.C,R10*
G36*
G01*
X43925000Y83349999D02*
X42675000Y83349999D01*
G75*
G02*
X42575000Y83449999I0J100000D01*
G01*
X42575000Y84249999D01*
G75*
G02*
X42675000Y84349999I100000J0D01*
G01*
X43925000Y84349999D01*
G75*
G02*
X44025000Y84249999I0J-100000D01*
G01*
X44025000Y83449999D01*
G75*
G02*
X43925000Y83349999I-100000J0D01*
G01*
G37*
G36*
G01*
X43925000Y85250021D02*
X42675000Y85250021D01*
G75*
G02*
X42575000Y85350021I0J100000D01*
G01*
X42575000Y86150021D01*
G75*
G02*
X42675000Y86250021I100000J0D01*
G01*
X43925000Y86250021D01*
G75*
G02*
X44025000Y86150021I0J-100000D01*
G01*
X44025000Y85350021D01*
G75*
G02*
X43925000Y85250021I-100000J0D01*
G01*
G37*
G04 #@! TD*
G04 #@! TO.C,D19*
G36*
G01*
X8999998Y84200001D02*
X8099998Y84200001D01*
G75*
G02*
X7999998Y84300001I0J100000D01*
G01*
X7999998Y85100001D01*
G75*
G02*
X8099998Y85200001I100000J0D01*
G01*
X8999998Y85200001D01*
G75*
G02*
X9099998Y85100001I0J-100000D01*
G01*
X9099998Y84300001D01*
G75*
G02*
X8999998Y84200001I-100000J0D01*
G01*
G37*
G36*
G01*
X8999998Y85900001D02*
X8099998Y85900001D01*
G75*
G02*
X7999998Y86000001I0J100000D01*
G01*
X7999998Y86800001D01*
G75*
G02*
X8099998Y86900001I100000J0D01*
G01*
X8999998Y86900001D01*
G75*
G02*
X9099998Y86800001I0J-100000D01*
G01*
X9099998Y86000001D01*
G75*
G02*
X8999998Y85900001I-100000J0D01*
G01*
G37*
G04 #@! TD*
G04 #@! TO.C,D21*
G36*
G01*
X17438000Y93784000D02*
X17918000Y93784000D01*
G75*
G02*
X17978000Y93724000I0J-60000D01*
G01*
X17978000Y93244000D01*
G75*
G02*
X17918000Y93184000I-60000J0D01*
G01*
X17438000Y93184000D01*
G75*
G02*
X17378000Y93244000I0J60000D01*
G01*
X17378000Y93724000D01*
G75*
G02*
X17438000Y93784000I60000J0D01*
G01*
G37*
G36*
G01*
X19638000Y93784000D02*
X20118000Y93784000D01*
G75*
G02*
X20178000Y93724000I0J-60000D01*
G01*
X20178000Y93244000D01*
G75*
G02*
X20118000Y93184000I-60000J0D01*
G01*
X19638000Y93184000D01*
G75*
G02*
X19578000Y93244000I0J60000D01*
G01*
X19578000Y93724000D01*
G75*
G02*
X19638000Y93784000I60000J0D01*
G01*
G37*
G04 #@! TD*
G04 #@! TO.C,R31*
G36*
G01*
X58550000Y76450000D02*
X57770000Y76450000D01*
G75*
G02*
X57700000Y76520000I0J70000D01*
G01*
X57700000Y77080000D01*
G75*
G02*
X57770000Y77150000I70000J0D01*
G01*
X58550000Y77150000D01*
G75*
G02*
X58620000Y77080000I0J-70000D01*
G01*
X58620000Y76520000D01*
G75*
G02*
X58550000Y76450000I-70000J0D01*
G01*
G37*
G36*
G01*
X58550000Y78050000D02*
X57770000Y78050000D01*
G75*
G02*
X57700000Y78120000I0J70000D01*
G01*
X57700000Y78680000D01*
G75*
G02*
X57770000Y78750000I70000J0D01*
G01*
X58550000Y78750000D01*
G75*
G02*
X58620000Y78680000I0J-70000D01*
G01*
X58620000Y78120000D01*
G75*
G02*
X58550000Y78050000I-70000J0D01*
G01*
G37*
G04 #@! TD*
D14*
G04 #@! TO.C,U1*
X29319000Y72345000D03*
X28049000Y72345000D03*
X26779000Y72345000D03*
D15*
X25509000Y72345000D03*
D14*
X25509000Y66655000D03*
X26779000Y66655000D03*
X28049000Y66655000D03*
X29319000Y66655000D03*
D16*
X28164000Y68837500D03*
X26664000Y70162500D03*
X28164000Y70162500D03*
X26664000Y68837500D03*
G04 #@! TD*
G04 #@! TO.C,Q17*
G36*
G01*
X11800000Y54275000D02*
X12100000Y54275000D01*
G75*
G02*
X12250000Y54125000I0J-150000D01*
G01*
X12250000Y52950000D01*
G75*
G02*
X12100000Y52800000I-150000J0D01*
G01*
X11800000Y52800000D01*
G75*
G02*
X11650000Y52950000I0J150000D01*
G01*
X11650000Y54125000D01*
G75*
G02*
X11800000Y54275000I150000J0D01*
G01*
G37*
G36*
G01*
X10850000Y52400000D02*
X11150000Y52400000D01*
G75*
G02*
X11300000Y52250000I0J-150000D01*
G01*
X11300000Y51075000D01*
G75*
G02*
X11150000Y50925000I-150000J0D01*
G01*
X10850000Y50925000D01*
G75*
G02*
X10700000Y51075000I0J150000D01*
G01*
X10700000Y52250000D01*
G75*
G02*
X10850000Y52400000I150000J0D01*
G01*
G37*
G36*
G01*
X9900000Y54275000D02*
X10200000Y54275000D01*
G75*
G02*
X10350000Y54125000I0J-150000D01*
G01*
X10350000Y52950000D01*
G75*
G02*
X10200000Y52800000I-150000J0D01*
G01*
X9900000Y52800000D01*
G75*
G02*
X9750000Y52950000I0J150000D01*
G01*
X9750000Y54125000D01*
G75*
G02*
X9900000Y54275000I150000J0D01*
G01*
G37*
G04 #@! TD*
G04 #@! TO.C,R5*
G36*
G01*
X16900000Y96365000D02*
X16900000Y97035000D01*
G75*
G02*
X16965000Y97100000I65000J0D01*
G01*
X17485000Y97100000D01*
G75*
G02*
X17550000Y97035000I0J-65000D01*
G01*
X17550000Y96365000D01*
G75*
G02*
X17485000Y96300000I-65000J0D01*
G01*
X16965000Y96300000D01*
G75*
G02*
X16900000Y96365000I0J65000D01*
G01*
G37*
G36*
G01*
X17875000Y96345000D02*
X17875000Y97055000D01*
G75*
G02*
X17920000Y97100000I45000J0D01*
G01*
X18280000Y97100000D01*
G75*
G02*
X18325000Y97055000I0J-45000D01*
G01*
X18325000Y96345000D01*
G75*
G02*
X18280000Y96300000I-45000J0D01*
G01*
X17920000Y96300000D01*
G75*
G02*
X17875000Y96345000I0J45000D01*
G01*
G37*
G36*
G01*
X18675000Y96345000D02*
X18675000Y97055000D01*
G75*
G02*
X18720000Y97100000I45000J0D01*
G01*
X19080000Y97100000D01*
G75*
G02*
X19125000Y97055000I0J-45000D01*
G01*
X19125000Y96345000D01*
G75*
G02*
X19080000Y96300000I-45000J0D01*
G01*
X18720000Y96300000D01*
G75*
G02*
X18675000Y96345000I0J45000D01*
G01*
G37*
G36*
G01*
X19450000Y96365000D02*
X19450000Y97035000D01*
G75*
G02*
X19515000Y97100000I65000J0D01*
G01*
X20035000Y97100000D01*
G75*
G02*
X20100000Y97035000I0J-65000D01*
G01*
X20100000Y96365000D01*
G75*
G02*
X20035000Y96300000I-65000J0D01*
G01*
X19515000Y96300000D01*
G75*
G02*
X19450000Y96365000I0J65000D01*
G01*
G37*
G36*
G01*
X19450000Y98165000D02*
X19450000Y98835000D01*
G75*
G02*
X19515000Y98900000I65000J0D01*
G01*
X20035000Y98900000D01*
G75*
G02*
X20100000Y98835000I0J-65000D01*
G01*
X20100000Y98165000D01*
G75*
G02*
X20035000Y98100000I-65000J0D01*
G01*
X19515000Y98100000D01*
G75*
G02*
X19450000Y98165000I0J65000D01*
G01*
G37*
G36*
G01*
X18675000Y98145000D02*
X18675000Y98855000D01*
G75*
G02*
X18720000Y98900000I45000J0D01*
G01*
X19080000Y98900000D01*
G75*
G02*
X19125000Y98855000I0J-45000D01*
G01*
X19125000Y98145000D01*
G75*
G02*
X19080000Y98100000I-45000J0D01*
G01*
X18720000Y98100000D01*
G75*
G02*
X18675000Y98145000I0J45000D01*
G01*
G37*
G36*
G01*
X17875000Y98145000D02*
X17875000Y98855000D01*
G75*
G02*
X17920000Y98900000I45000J0D01*
G01*
X18280000Y98900000D01*
G75*
G02*
X18325000Y98855000I0J-45000D01*
G01*
X18325000Y98145000D01*
G75*
G02*
X18280000Y98100000I-45000J0D01*
G01*
X17920000Y98100000D01*
G75*
G02*
X17875000Y98145000I0J45000D01*
G01*
G37*
G36*
G01*
X16900000Y98165000D02*
X16900000Y98835000D01*
G75*
G02*
X16965000Y98900000I65000J0D01*
G01*
X17485000Y98900000D01*
G75*
G02*
X17550000Y98835000I0J-65000D01*
G01*
X17550000Y98165000D01*
G75*
G02*
X17485000Y98100000I-65000J0D01*
G01*
X16965000Y98100000D01*
G75*
G02*
X16900000Y98165000I0J65000D01*
G01*
G37*
G04 #@! TD*
G04 #@! TO.C,D2*
G36*
G01*
X17361499Y75087497D02*
X17841499Y75087497D01*
G75*
G02*
X17901499Y75027497I0J-60000D01*
G01*
X17901499Y74547497D01*
G75*
G02*
X17841499Y74487497I-60000J0D01*
G01*
X17361499Y74487497D01*
G75*
G02*
X17301499Y74547497I0J60000D01*
G01*
X17301499Y75027497D01*
G75*
G02*
X17361499Y75087497I60000J0D01*
G01*
G37*
G36*
G01*
X19561499Y75087497D02*
X20041499Y75087497D01*
G75*
G02*
X20101499Y75027497I0J-60000D01*
G01*
X20101499Y74547497D01*
G75*
G02*
X20041499Y74487497I-60000J0D01*
G01*
X19561499Y74487497D01*
G75*
G02*
X19501499Y74547497I0J60000D01*
G01*
X19501499Y75027497D01*
G75*
G02*
X19561499Y75087497I60000J0D01*
G01*
G37*
G04 #@! TD*
G04 #@! TO.C,R43*
G36*
G01*
X22160000Y46600000D02*
X22940000Y46600000D01*
G75*
G02*
X23010000Y46530000I0J-70000D01*
G01*
X23010000Y45970000D01*
G75*
G02*
X22940000Y45900000I-70000J0D01*
G01*
X22160000Y45900000D01*
G75*
G02*
X22090000Y45970000I0J70000D01*
G01*
X22090000Y46530000D01*
G75*
G02*
X22160000Y46600000I70000J0D01*
G01*
G37*
G36*
G01*
X22160000Y45000000D02*
X22940000Y45000000D01*
G75*
G02*
X23010000Y44930000I0J-70000D01*
G01*
X23010000Y44370000D01*
G75*
G02*
X22940000Y44300000I-70000J0D01*
G01*
X22160000Y44300000D01*
G75*
G02*
X22090000Y44370000I0J70000D01*
G01*
X22090000Y44930000D01*
G75*
G02*
X22160000Y45000000I70000J0D01*
G01*
G37*
G04 #@! TD*
G04 #@! TO.C,D10*
G36*
G01*
X13399998Y73800001D02*
X12499998Y73800001D01*
G75*
G02*
X12399998Y73900001I0J100000D01*
G01*
X12399998Y74700001D01*
G75*
G02*
X12499998Y74800001I100000J0D01*
G01*
X13399998Y74800001D01*
G75*
G02*
X13499998Y74700001I0J-100000D01*
G01*
X13499998Y73900001D01*
G75*
G02*
X13399998Y73800001I-100000J0D01*
G01*
G37*
G36*
G01*
X13399998Y75500001D02*
X12499998Y75500001D01*
G75*
G02*
X12399998Y75600001I0J100000D01*
G01*
X12399998Y76400001D01*
G75*
G02*
X12499998Y76500001I100000J0D01*
G01*
X13399998Y76500001D01*
G75*
G02*
X13499998Y76400001I0J-100000D01*
G01*
X13499998Y75600001D01*
G75*
G02*
X13399998Y75500001I-100000J0D01*
G01*
G37*
G04 #@! TD*
G04 #@! TO.C,Q20*
G36*
G01*
X22475000Y52800000D02*
X22475000Y52500000D01*
G75*
G02*
X22325000Y52350000I-150000J0D01*
G01*
X21150000Y52350000D01*
G75*
G02*
X21000000Y52500000I0J150000D01*
G01*
X21000000Y52800000D01*
G75*
G02*
X21150000Y52950000I150000J0D01*
G01*
X22325000Y52950000D01*
G75*
G02*
X22475000Y52800000I0J-150000D01*
G01*
G37*
G36*
G01*
X20600000Y51850000D02*
X20600000Y51550000D01*
G75*
G02*
X20450000Y51400000I-150000J0D01*
G01*
X19275000Y51400000D01*
G75*
G02*
X19125000Y51550000I0J150000D01*
G01*
X19125000Y51850000D01*
G75*
G02*
X19275000Y52000000I150000J0D01*
G01*
X20450000Y52000000D01*
G75*
G02*
X20600000Y51850000I0J-150000D01*
G01*
G37*
G36*
G01*
X22475000Y50900000D02*
X22475000Y50600000D01*
G75*
G02*
X22325000Y50450000I-150000J0D01*
G01*
X21150000Y50450000D01*
G75*
G02*
X21000000Y50600000I0J150000D01*
G01*
X21000000Y50900000D01*
G75*
G02*
X21150000Y51050000I150000J0D01*
G01*
X22325000Y51050000D01*
G75*
G02*
X22475000Y50900000I0J-150000D01*
G01*
G37*
G04 #@! TD*
G04 #@! TO.C,D17*
G36*
G01*
X8999998Y94600001D02*
X8099998Y94600001D01*
G75*
G02*
X7999998Y94700001I0J100000D01*
G01*
X7999998Y95500001D01*
G75*
G02*
X8099998Y95600001I100000J0D01*
G01*
X8999998Y95600001D01*
G75*
G02*
X9099998Y95500001I0J-100000D01*
G01*
X9099998Y94700001D01*
G75*
G02*
X8999998Y94600001I-100000J0D01*
G01*
G37*
G36*
G01*
X8999998Y96300001D02*
X8099998Y96300001D01*
G75*
G02*
X7999998Y96400001I0J100000D01*
G01*
X7999998Y97200001D01*
G75*
G02*
X8099998Y97300001I100000J0D01*
G01*
X8999998Y97300001D01*
G75*
G02*
X9099998Y97200001I0J-100000D01*
G01*
X9099998Y96400001D01*
G75*
G02*
X8999998Y96300001I-100000J0D01*
G01*
G37*
G04 #@! TD*
G04 #@! TO.C,R19*
G36*
G01*
X30625000Y83349999D02*
X29375000Y83349999D01*
G75*
G02*
X29275000Y83449999I0J100000D01*
G01*
X29275000Y84249999D01*
G75*
G02*
X29375000Y84349999I100000J0D01*
G01*
X30625000Y84349999D01*
G75*
G02*
X30725000Y84249999I0J-100000D01*
G01*
X30725000Y83449999D01*
G75*
G02*
X30625000Y83349999I-100000J0D01*
G01*
G37*
G36*
G01*
X30625000Y85250021D02*
X29375000Y85250021D01*
G75*
G02*
X29275000Y85350021I0J100000D01*
G01*
X29275000Y86150021D01*
G75*
G02*
X29375000Y86250021I100000J0D01*
G01*
X30625000Y86250021D01*
G75*
G02*
X30725000Y86150021I0J-100000D01*
G01*
X30725000Y85350021D01*
G75*
G02*
X30625000Y85250021I-100000J0D01*
G01*
G37*
G04 #@! TD*
G04 #@! TO.C,Q5*
G36*
G01*
X8300000Y54375000D02*
X8600000Y54375000D01*
G75*
G02*
X8750000Y54225000I0J-150000D01*
G01*
X8750000Y53050000D01*
G75*
G02*
X8600000Y52900000I-150000J0D01*
G01*
X8300000Y52900000D01*
G75*
G02*
X8150000Y53050000I0J150000D01*
G01*
X8150000Y54225000D01*
G75*
G02*
X8300000Y54375000I150000J0D01*
G01*
G37*
G36*
G01*
X7350000Y52500000D02*
X7650000Y52500000D01*
G75*
G02*
X7800000Y52350000I0J-150000D01*
G01*
X7800000Y51175000D01*
G75*
G02*
X7650000Y51025000I-150000J0D01*
G01*
X7350000Y51025000D01*
G75*
G02*
X7200000Y51175000I0J150000D01*
G01*
X7200000Y52350000D01*
G75*
G02*
X7350000Y52500000I150000J0D01*
G01*
G37*
G36*
G01*
X6400000Y54375000D02*
X6700000Y54375000D01*
G75*
G02*
X6850000Y54225000I0J-150000D01*
G01*
X6850000Y53050000D01*
G75*
G02*
X6700000Y52900000I-150000J0D01*
G01*
X6400000Y52900000D01*
G75*
G02*
X6250000Y53050000I0J150000D01*
G01*
X6250000Y54225000D01*
G75*
G02*
X6400000Y54375000I150000J0D01*
G01*
G37*
G04 #@! TD*
G04 #@! TO.C,Q12*
G36*
G01*
X58553000Y73300000D02*
X58553000Y73000000D01*
G75*
G02*
X58403000Y72850000I-150000J0D01*
G01*
X57228000Y72850000D01*
G75*
G02*
X57078000Y73000000I0J150000D01*
G01*
X57078000Y73300000D01*
G75*
G02*
X57228000Y73450000I150000J0D01*
G01*
X58403000Y73450000D01*
G75*
G02*
X58553000Y73300000I0J-150000D01*
G01*
G37*
G36*
G01*
X56678000Y74250000D02*
X56678000Y73950000D01*
G75*
G02*
X56528000Y73800000I-150000J0D01*
G01*
X55353000Y73800000D01*
G75*
G02*
X55203000Y73950000I0J150000D01*
G01*
X55203000Y74250000D01*
G75*
G02*
X55353000Y74400000I150000J0D01*
G01*
X56528000Y74400000D01*
G75*
G02*
X56678000Y74250000I0J-150000D01*
G01*
G37*
G36*
G01*
X58553000Y75200000D02*
X58553000Y74900000D01*
G75*
G02*
X58403000Y74750000I-150000J0D01*
G01*
X57228000Y74750000D01*
G75*
G02*
X57078000Y74900000I0J150000D01*
G01*
X57078000Y75200000D01*
G75*
G02*
X57228000Y75350000I150000J0D01*
G01*
X58403000Y75350000D01*
G75*
G02*
X58553000Y75200000I0J-150000D01*
G01*
G37*
G04 #@! TD*
G04 #@! TO.C,Q2*
G36*
G01*
X7700000Y44725000D02*
X7400000Y44725000D01*
G75*
G02*
X7250000Y44875000I0J150000D01*
G01*
X7250000Y46050000D01*
G75*
G02*
X7400000Y46200000I150000J0D01*
G01*
X7700000Y46200000D01*
G75*
G02*
X7850000Y46050000I0J-150000D01*
G01*
X7850000Y44875000D01*
G75*
G02*
X7700000Y44725000I-150000J0D01*
G01*
G37*
G36*
G01*
X8650000Y46600000D02*
X8350000Y46600000D01*
G75*
G02*
X8200000Y46750000I0J150000D01*
G01*
X8200000Y47925000D01*
G75*
G02*
X8350000Y48075000I150000J0D01*
G01*
X8650000Y48075000D01*
G75*
G02*
X8800000Y47925000I0J-150000D01*
G01*
X8800000Y46750000D01*
G75*
G02*
X8650000Y46600000I-150000J0D01*
G01*
G37*
G36*
G01*
X9600000Y44725000D02*
X9300000Y44725000D01*
G75*
G02*
X9150000Y44875000I0J150000D01*
G01*
X9150000Y46050000D01*
G75*
G02*
X9300000Y46200000I150000J0D01*
G01*
X9600000Y46200000D01*
G75*
G02*
X9750000Y46050000I0J-150000D01*
G01*
X9750000Y44875000D01*
G75*
G02*
X9600000Y44725000I-150000J0D01*
G01*
G37*
G04 #@! TD*
G04 #@! TO.C,D3*
G36*
G01*
X17438000Y95308000D02*
X17918000Y95308000D01*
G75*
G02*
X17978000Y95248000I0J-60000D01*
G01*
X17978000Y94768000D01*
G75*
G02*
X17918000Y94708000I-60000J0D01*
G01*
X17438000Y94708000D01*
G75*
G02*
X17378000Y94768000I0J60000D01*
G01*
X17378000Y95248000D01*
G75*
G02*
X17438000Y95308000I60000J0D01*
G01*
G37*
G36*
G01*
X19638000Y95308000D02*
X20118000Y95308000D01*
G75*
G02*
X20178000Y95248000I0J-60000D01*
G01*
X20178000Y94768000D01*
G75*
G02*
X20118000Y94708000I-60000J0D01*
G01*
X19638000Y94708000D01*
G75*
G02*
X19578000Y94768000I0J60000D01*
G01*
X19578000Y95248000D01*
G75*
G02*
X19638000Y95308000I60000J0D01*
G01*
G37*
G04 #@! TD*
G04 #@! TO.C,U3*
G36*
G01*
X78851300Y12090000D02*
X79358700Y12090000D01*
G75*
G02*
X79400000Y12048700I0J-41300D01*
G01*
X79400000Y10111300D01*
G75*
G02*
X79358700Y10070000I-41300J0D01*
G01*
X78851300Y10070000D01*
G75*
G02*
X78810000Y10111300I0J41300D01*
G01*
X78810000Y12048700D01*
G75*
G02*
X78851300Y12090000I41300J0D01*
G01*
G37*
G36*
G01*
X77581300Y12090000D02*
X78088700Y12090000D01*
G75*
G02*
X78130000Y12048700I0J-41300D01*
G01*
X78130000Y10111300D01*
G75*
G02*
X78088700Y10070000I-41300J0D01*
G01*
X77581300Y10070000D01*
G75*
G02*
X77540000Y10111300I0J41300D01*
G01*
X77540000Y12048700D01*
G75*
G02*
X77581300Y12090000I41300J0D01*
G01*
G37*
G36*
G01*
X76311300Y12090000D02*
X76818700Y12090000D01*
G75*
G02*
X76860000Y12048700I0J-41300D01*
G01*
X76860000Y10111300D01*
G75*
G02*
X76818700Y10070000I-41300J0D01*
G01*
X76311300Y10070000D01*
G75*
G02*
X76270000Y10111300I0J41300D01*
G01*
X76270000Y12048700D01*
G75*
G02*
X76311300Y12090000I41300J0D01*
G01*
G37*
G36*
G01*
X75041300Y12090000D02*
X75548700Y12090000D01*
G75*
G02*
X75590000Y12048700I0J-41300D01*
G01*
X75590000Y10111300D01*
G75*
G02*
X75548700Y10070000I-41300J0D01*
G01*
X75041300Y10070000D01*
G75*
G02*
X75000000Y10111300I0J41300D01*
G01*
X75000000Y12048700D01*
G75*
G02*
X75041300Y12090000I41300J0D01*
G01*
G37*
G36*
G01*
X75041300Y2730000D02*
X75548700Y2730000D01*
G75*
G02*
X75590000Y2688700I0J-41300D01*
G01*
X75590000Y751300D01*
G75*
G02*
X75548700Y710000I-41300J0D01*
G01*
X75041300Y710000D01*
G75*
G02*
X75000000Y751300I0J41300D01*
G01*
X75000000Y2688700D01*
G75*
G02*
X75041300Y2730000I41300J0D01*
G01*
G37*
G36*
G01*
X76311300Y2730000D02*
X76818700Y2730000D01*
G75*
G02*
X76860000Y2688700I0J-41300D01*
G01*
X76860000Y751300D01*
G75*
G02*
X76818700Y710000I-41300J0D01*
G01*
X76311300Y710000D01*
G75*
G02*
X76270000Y751300I0J41300D01*
G01*
X76270000Y2688700D01*
G75*
G02*
X76311300Y2730000I41300J0D01*
G01*
G37*
G36*
G01*
X77581300Y2730000D02*
X78088700Y2730000D01*
G75*
G02*
X78130000Y2688700I0J-41300D01*
G01*
X78130000Y751300D01*
G75*
G02*
X78088700Y710000I-41300J0D01*
G01*
X77581300Y710000D01*
G75*
G02*
X77540000Y751300I0J41300D01*
G01*
X77540000Y2688700D01*
G75*
G02*
X77581300Y2730000I41300J0D01*
G01*
G37*
G36*
G01*
X78851300Y2730000D02*
X79358700Y2730000D01*
G75*
G02*
X79400000Y2688700I0J-41300D01*
G01*
X79400000Y751300D01*
G75*
G02*
X79358700Y710000I-41300J0D01*
G01*
X78851300Y710000D01*
G75*
G02*
X78810000Y751300I0J41300D01*
G01*
X78810000Y2688700D01*
G75*
G02*
X78851300Y2730000I41300J0D01*
G01*
G37*
G04 #@! TD*
G04 #@! TO.C,Q16*
G36*
G01*
X11800000Y50875000D02*
X12100000Y50875000D01*
G75*
G02*
X12250000Y50725000I0J-150000D01*
G01*
X12250000Y49550000D01*
G75*
G02*
X12100000Y49400000I-150000J0D01*
G01*
X11800000Y49400000D01*
G75*
G02*
X11650000Y49550000I0J150000D01*
G01*
X11650000Y50725000D01*
G75*
G02*
X11800000Y50875000I150000J0D01*
G01*
G37*
G36*
G01*
X10850000Y49000000D02*
X11150000Y49000000D01*
G75*
G02*
X11300000Y48850000I0J-150000D01*
G01*
X11300000Y47675000D01*
G75*
G02*
X11150000Y47525000I-150000J0D01*
G01*
X10850000Y47525000D01*
G75*
G02*
X10700000Y47675000I0J150000D01*
G01*
X10700000Y48850000D01*
G75*
G02*
X10850000Y49000000I150000J0D01*
G01*
G37*
G36*
G01*
X9900000Y50875000D02*
X10200000Y50875000D01*
G75*
G02*
X10350000Y50725000I0J-150000D01*
G01*
X10350000Y49550000D01*
G75*
G02*
X10200000Y49400000I-150000J0D01*
G01*
X9900000Y49400000D01*
G75*
G02*
X9750000Y49550000I0J150000D01*
G01*
X9750000Y50725000D01*
G75*
G02*
X9900000Y50875000I150000J0D01*
G01*
G37*
G04 #@! TD*
D17*
G04 #@! TO.C,U4*
X19550000Y7775000D03*
X19550000Y9275000D03*
X19550000Y10775000D03*
X19550000Y12275000D03*
X19550000Y13775000D03*
X19550000Y15275000D03*
X19550000Y16775000D03*
X19550000Y18275000D03*
X19550000Y19775000D03*
X19550000Y21275000D03*
X19550000Y22775000D03*
X19550000Y24275000D03*
X19550000Y25775000D03*
X6850000Y25775000D03*
X6850000Y24275000D03*
X6850000Y22775000D03*
X6850000Y21275000D03*
X6850000Y19775000D03*
X6850000Y18275000D03*
X6850000Y16775000D03*
X6850000Y15275000D03*
X6850000Y13775000D03*
X6850000Y12275000D03*
X6850000Y10775000D03*
X6850000Y9275000D03*
X6850000Y7775000D03*
G04 #@! TD*
G04 #@! TO.C,F1*
G36*
G01*
X53946000Y85355010D02*
X53946000Y86045010D01*
G75*
G02*
X54176000Y86275010I230000J0D01*
G01*
X55516000Y86275010D01*
G75*
G02*
X55746000Y86045010I0J-230000D01*
G01*
X55746000Y85355010D01*
G75*
G02*
X55516000Y85125010I-230000J0D01*
G01*
X54176000Y85125010D01*
G75*
G02*
X53946000Y85355010I0J230000D01*
G01*
G37*
G36*
G01*
X53946000Y82454990D02*
X53946000Y83144990D01*
G75*
G02*
X54176000Y83374990I230000J0D01*
G01*
X55516000Y83374990D01*
G75*
G02*
X55746000Y83144990I0J-230000D01*
G01*
X55746000Y82454990D01*
G75*
G02*
X55516000Y82224990I-230000J0D01*
G01*
X54176000Y82224990D01*
G75*
G02*
X53946000Y82454990I0J230000D01*
G01*
G37*
G04 #@! TD*
G04 #@! TO.C,R14*
G36*
G01*
X70949999Y98275000D02*
X70949999Y99525000D01*
G75*
G02*
X71049999Y99625000I100000J0D01*
G01*
X71849999Y99625000D01*
G75*
G02*
X71949999Y99525000I0J-100000D01*
G01*
X71949999Y98275000D01*
G75*
G02*
X71849999Y98175000I-100000J0D01*
G01*
X71049999Y98175000D01*
G75*
G02*
X70949999Y98275000I0J100000D01*
G01*
G37*
G36*
G01*
X72850021Y98275000D02*
X72850021Y99525000D01*
G75*
G02*
X72950021Y99625000I100000J0D01*
G01*
X73750021Y99625000D01*
G75*
G02*
X73850021Y99525000I0J-100000D01*
G01*
X73850021Y98275000D01*
G75*
G02*
X73750021Y98175000I-100000J0D01*
G01*
X72950021Y98175000D01*
G75*
G02*
X72850021Y98275000I0J100000D01*
G01*
G37*
G04 #@! TD*
G04 #@! TO.C,D5*
G36*
G01*
X17360000Y73400000D02*
X17840000Y73400000D01*
G75*
G02*
X17900000Y73340000I0J-60000D01*
G01*
X17900000Y72860000D01*
G75*
G02*
X17840000Y72800000I-60000J0D01*
G01*
X17360000Y72800000D01*
G75*
G02*
X17300000Y72860000I0J60000D01*
G01*
X17300000Y73340000D01*
G75*
G02*
X17360000Y73400000I60000J0D01*
G01*
G37*
G36*
G01*
X19560000Y73400000D02*
X20040000Y73400000D01*
G75*
G02*
X20100000Y73340000I0J-60000D01*
G01*
X20100000Y72860000D01*
G75*
G02*
X20040000Y72800000I-60000J0D01*
G01*
X19560000Y72800000D01*
G75*
G02*
X19500000Y72860000I0J60000D01*
G01*
X19500000Y73340000D01*
G75*
G02*
X19560000Y73400000I60000J0D01*
G01*
G37*
G04 #@! TD*
G04 #@! TO.C,F3*
G36*
G01*
X40200000Y85405010D02*
X40200000Y86095010D01*
G75*
G02*
X40430000Y86325010I230000J0D01*
G01*
X41770000Y86325010D01*
G75*
G02*
X42000000Y86095010I0J-230000D01*
G01*
X42000000Y85405010D01*
G75*
G02*
X41770000Y85175010I-230000J0D01*
G01*
X40430000Y85175010D01*
G75*
G02*
X40200000Y85405010I0J230000D01*
G01*
G37*
G36*
G01*
X40200000Y82504990D02*
X40200000Y83194990D01*
G75*
G02*
X40430000Y83424990I230000J0D01*
G01*
X41770000Y83424990D01*
G75*
G02*
X42000000Y83194990I0J-230000D01*
G01*
X42000000Y82504990D01*
G75*
G02*
X41770000Y82274990I-230000J0D01*
G01*
X40430000Y82274990D01*
G75*
G02*
X40200000Y82504990I0J230000D01*
G01*
G37*
G04 #@! TD*
D12*
G04 #@! TO.C,Q7*
X71325000Y92125000D03*
X68275000Y95475000D03*
X71325000Y95475000D03*
X68275000Y92125000D03*
G36*
G01*
X68000000Y86400000D02*
X67040000Y86400000D01*
G75*
G02*
X66920000Y86520000I0J120000D01*
G01*
X66920000Y88480000D01*
G75*
G02*
X67040000Y88600000I120000J0D01*
G01*
X68000000Y88600000D01*
G75*
G02*
X68120000Y88480000I0J-120000D01*
G01*
X68120000Y86520000D01*
G75*
G02*
X68000000Y86400000I-120000J0D01*
G01*
G37*
G36*
G01*
X72560000Y86400000D02*
X71600000Y86400000D01*
G75*
G02*
X71480000Y86520000I0J120000D01*
G01*
X71480000Y88480000D01*
G75*
G02*
X71600000Y88600000I120000J0D01*
G01*
X72560000Y88600000D01*
G75*
G02*
X72680000Y88480000I0J-120000D01*
G01*
X72680000Y86520000D01*
G75*
G02*
X72560000Y86400000I-120000J0D01*
G01*
G37*
G04 #@! TD*
G04 #@! TO.C,Q6*
X71150000Y77300000D03*
X71150000Y80650000D03*
X68100000Y80650000D03*
X68100000Y77300000D03*
G36*
G01*
X67825000Y71575000D02*
X66865000Y71575000D01*
G75*
G02*
X66745000Y71695000I0J120000D01*
G01*
X66745000Y73655000D01*
G75*
G02*
X66865000Y73775000I120000J0D01*
G01*
X67825000Y73775000D01*
G75*
G02*
X67945000Y73655000I0J-120000D01*
G01*
X67945000Y71695000D01*
G75*
G02*
X67825000Y71575000I-120000J0D01*
G01*
G37*
G36*
G01*
X72385000Y71575000D02*
X71425000Y71575000D01*
G75*
G02*
X71305000Y71695000I0J120000D01*
G01*
X71305000Y73655000D01*
G75*
G02*
X71425000Y73775000I120000J0D01*
G01*
X72385000Y73775000D01*
G75*
G02*
X72505000Y73655000I0J-120000D01*
G01*
X72505000Y71695000D01*
G75*
G02*
X72385000Y71575000I-120000J0D01*
G01*
G37*
G04 #@! TD*
G04 #@! TO.C,Q21*
G36*
G01*
X22475000Y47500000D02*
X22475000Y47200000D01*
G75*
G02*
X22325000Y47050000I-150000J0D01*
G01*
X21150000Y47050000D01*
G75*
G02*
X21000000Y47200000I0J150000D01*
G01*
X21000000Y47500000D01*
G75*
G02*
X21150000Y47650000I150000J0D01*
G01*
X22325000Y47650000D01*
G75*
G02*
X22475000Y47500000I0J-150000D01*
G01*
G37*
G36*
G01*
X20600000Y48450000D02*
X20600000Y48150000D01*
G75*
G02*
X20450000Y48000000I-150000J0D01*
G01*
X19275000Y48000000D01*
G75*
G02*
X19125000Y48150000I0J150000D01*
G01*
X19125000Y48450000D01*
G75*
G02*
X19275000Y48600000I150000J0D01*
G01*
X20450000Y48600000D01*
G75*
G02*
X20600000Y48450000I0J-150000D01*
G01*
G37*
G36*
G01*
X22475000Y49400000D02*
X22475000Y49100000D01*
G75*
G02*
X22325000Y48950000I-150000J0D01*
G01*
X21150000Y48950000D01*
G75*
G02*
X21000000Y49100000I0J150000D01*
G01*
X21000000Y49400000D01*
G75*
G02*
X21150000Y49550000I150000J0D01*
G01*
X22325000Y49550000D01*
G75*
G02*
X22475000Y49400000I0J-150000D01*
G01*
G37*
G04 #@! TD*
G04 #@! TO.C,D18*
G36*
G01*
X8999998Y89400001D02*
X8099998Y89400001D01*
G75*
G02*
X7999998Y89500001I0J100000D01*
G01*
X7999998Y90300001D01*
G75*
G02*
X8099998Y90400001I100000J0D01*
G01*
X8999998Y90400001D01*
G75*
G02*
X9099998Y90300001I0J-100000D01*
G01*
X9099998Y89500001D01*
G75*
G02*
X8999998Y89400001I-100000J0D01*
G01*
G37*
G36*
G01*
X8999998Y91100001D02*
X8099998Y91100001D01*
G75*
G02*
X7999998Y91200001I0J100000D01*
G01*
X7999998Y92000001D01*
G75*
G02*
X8099998Y92100001I100000J0D01*
G01*
X8999998Y92100001D01*
G75*
G02*
X9099998Y92000001I0J-100000D01*
G01*
X9099998Y91200001D01*
G75*
G02*
X8999998Y91100001I-100000J0D01*
G01*
G37*
G04 #@! TD*
G04 #@! TO.C,D20*
G36*
G01*
X13399998Y99800001D02*
X12499998Y99800001D01*
G75*
G02*
X12399998Y99900001I0J100000D01*
G01*
X12399998Y100700001D01*
G75*
G02*
X12499998Y100800001I100000J0D01*
G01*
X13399998Y100800001D01*
G75*
G02*
X13499998Y100700001I0J-100000D01*
G01*
X13499998Y99900001D01*
G75*
G02*
X13399998Y99800001I-100000J0D01*
G01*
G37*
G36*
G01*
X13399998Y101500001D02*
X12499998Y101500001D01*
G75*
G02*
X12399998Y101600001I0J100000D01*
G01*
X12399998Y102400001D01*
G75*
G02*
X12499998Y102500001I100000J0D01*
G01*
X13399998Y102500001D01*
G75*
G02*
X13499998Y102400001I0J-100000D01*
G01*
X13499998Y101600001D01*
G75*
G02*
X13399998Y101500001I-100000J0D01*
G01*
G37*
G04 #@! TD*
G04 #@! TO.C,D27*
G36*
G01*
X12250000Y38190000D02*
X12250000Y39210000D01*
G75*
G02*
X12340000Y39300000I90000J0D01*
G01*
X13060000Y39300000D01*
G75*
G02*
X13150000Y39210000I0J-90000D01*
G01*
X13150000Y38190000D01*
G75*
G02*
X13060000Y38100000I-90000J0D01*
G01*
X12340000Y38100000D01*
G75*
G02*
X12250000Y38190000I0J90000D01*
G01*
G37*
G36*
G01*
X15550000Y38190000D02*
X15550000Y39210000D01*
G75*
G02*
X15640000Y39300000I90000J0D01*
G01*
X16360000Y39300000D01*
G75*
G02*
X16450000Y39210000I0J-90000D01*
G01*
X16450000Y38190000D01*
G75*
G02*
X16360000Y38100000I-90000J0D01*
G01*
X15640000Y38100000D01*
G75*
G02*
X15550000Y38190000I0J90000D01*
G01*
G37*
G04 #@! TD*
G04 #@! TO.C,R45*
G36*
G01*
X14550000Y51110000D02*
X14550000Y51890000D01*
G75*
G02*
X14620000Y51960000I70000J0D01*
G01*
X15180000Y51960000D01*
G75*
G02*
X15250000Y51890000I0J-70000D01*
G01*
X15250000Y51110000D01*
G75*
G02*
X15180000Y51040000I-70000J0D01*
G01*
X14620000Y51040000D01*
G75*
G02*
X14550000Y51110000I0J70000D01*
G01*
G37*
G36*
G01*
X16150000Y51110000D02*
X16150000Y51890000D01*
G75*
G02*
X16220000Y51960000I70000J0D01*
G01*
X16780000Y51960000D01*
G75*
G02*
X16850000Y51890000I0J-70000D01*
G01*
X16850000Y51110000D01*
G75*
G02*
X16780000Y51040000I-70000J0D01*
G01*
X16220000Y51040000D01*
G75*
G02*
X16150000Y51110000I0J70000D01*
G01*
G37*
G04 #@! TD*
G04 #@! TO.C,R28*
G36*
G01*
X36593000Y13804000D02*
X37263000Y13804000D01*
G75*
G02*
X37328000Y13739000I0J-65000D01*
G01*
X37328000Y13219000D01*
G75*
G02*
X37263000Y13154000I-65000J0D01*
G01*
X36593000Y13154000D01*
G75*
G02*
X36528000Y13219000I0J65000D01*
G01*
X36528000Y13739000D01*
G75*
G02*
X36593000Y13804000I65000J0D01*
G01*
G37*
G36*
G01*
X36573000Y12829000D02*
X37283000Y12829000D01*
G75*
G02*
X37328000Y12784000I0J-45000D01*
G01*
X37328000Y12424000D01*
G75*
G02*
X37283000Y12379000I-45000J0D01*
G01*
X36573000Y12379000D01*
G75*
G02*
X36528000Y12424000I0J45000D01*
G01*
X36528000Y12784000D01*
G75*
G02*
X36573000Y12829000I45000J0D01*
G01*
G37*
G36*
G01*
X36573000Y12029000D02*
X37283000Y12029000D01*
G75*
G02*
X37328000Y11984000I0J-45000D01*
G01*
X37328000Y11624000D01*
G75*
G02*
X37283000Y11579000I-45000J0D01*
G01*
X36573000Y11579000D01*
G75*
G02*
X36528000Y11624000I0J45000D01*
G01*
X36528000Y11984000D01*
G75*
G02*
X36573000Y12029000I45000J0D01*
G01*
G37*
G36*
G01*
X36593000Y11254000D02*
X37263000Y11254000D01*
G75*
G02*
X37328000Y11189000I0J-65000D01*
G01*
X37328000Y10669000D01*
G75*
G02*
X37263000Y10604000I-65000J0D01*
G01*
X36593000Y10604000D01*
G75*
G02*
X36528000Y10669000I0J65000D01*
G01*
X36528000Y11189000D01*
G75*
G02*
X36593000Y11254000I65000J0D01*
G01*
G37*
G36*
G01*
X38393000Y11254000D02*
X39063000Y11254000D01*
G75*
G02*
X39128000Y11189000I0J-65000D01*
G01*
X39128000Y10669000D01*
G75*
G02*
X39063000Y10604000I-65000J0D01*
G01*
X38393000Y10604000D01*
G75*
G02*
X38328000Y10669000I0J65000D01*
G01*
X38328000Y11189000D01*
G75*
G02*
X38393000Y11254000I65000J0D01*
G01*
G37*
G36*
G01*
X38373000Y12029000D02*
X39083000Y12029000D01*
G75*
G02*
X39128000Y11984000I0J-45000D01*
G01*
X39128000Y11624000D01*
G75*
G02*
X39083000Y11579000I-45000J0D01*
G01*
X38373000Y11579000D01*
G75*
G02*
X38328000Y11624000I0J45000D01*
G01*
X38328000Y11984000D01*
G75*
G02*
X38373000Y12029000I45000J0D01*
G01*
G37*
G36*
G01*
X38373000Y12829000D02*
X39083000Y12829000D01*
G75*
G02*
X39128000Y12784000I0J-45000D01*
G01*
X39128000Y12424000D01*
G75*
G02*
X39083000Y12379000I-45000J0D01*
G01*
X38373000Y12379000D01*
G75*
G02*
X38328000Y12424000I0J45000D01*
G01*
X38328000Y12784000D01*
G75*
G02*
X38373000Y12829000I45000J0D01*
G01*
G37*
G36*
G01*
X38393000Y13804000D02*
X39063000Y13804000D01*
G75*
G02*
X39128000Y13739000I0J-65000D01*
G01*
X39128000Y13219000D01*
G75*
G02*
X39063000Y13154000I-65000J0D01*
G01*
X38393000Y13154000D01*
G75*
G02*
X38328000Y13219000I0J65000D01*
G01*
X38328000Y13739000D01*
G75*
G02*
X38393000Y13804000I65000J0D01*
G01*
G37*
G04 #@! TD*
G04 #@! TO.C,R26*
G36*
G01*
X16735000Y47200000D02*
X16065000Y47200000D01*
G75*
G02*
X16000000Y47265000I0J65000D01*
G01*
X16000000Y47785000D01*
G75*
G02*
X16065000Y47850000I65000J0D01*
G01*
X16735000Y47850000D01*
G75*
G02*
X16800000Y47785000I0J-65000D01*
G01*
X16800000Y47265000D01*
G75*
G02*
X16735000Y47200000I-65000J0D01*
G01*
G37*
G36*
G01*
X16755000Y48175000D02*
X16045000Y48175000D01*
G75*
G02*
X16000000Y48220000I0J45000D01*
G01*
X16000000Y48580000D01*
G75*
G02*
X16045000Y48625000I45000J0D01*
G01*
X16755000Y48625000D01*
G75*
G02*
X16800000Y48580000I0J-45000D01*
G01*
X16800000Y48220000D01*
G75*
G02*
X16755000Y48175000I-45000J0D01*
G01*
G37*
G36*
G01*
X16755000Y48975000D02*
X16045000Y48975000D01*
G75*
G02*
X16000000Y49020000I0J45000D01*
G01*
X16000000Y49380000D01*
G75*
G02*
X16045000Y49425000I45000J0D01*
G01*
X16755000Y49425000D01*
G75*
G02*
X16800000Y49380000I0J-45000D01*
G01*
X16800000Y49020000D01*
G75*
G02*
X16755000Y48975000I-45000J0D01*
G01*
G37*
G36*
G01*
X16735000Y49750000D02*
X16065000Y49750000D01*
G75*
G02*
X16000000Y49815000I0J65000D01*
G01*
X16000000Y50335000D01*
G75*
G02*
X16065000Y50400000I65000J0D01*
G01*
X16735000Y50400000D01*
G75*
G02*
X16800000Y50335000I0J-65000D01*
G01*
X16800000Y49815000D01*
G75*
G02*
X16735000Y49750000I-65000J0D01*
G01*
G37*
G36*
G01*
X14935000Y49750000D02*
X14265000Y49750000D01*
G75*
G02*
X14200000Y49815000I0J65000D01*
G01*
X14200000Y50335000D01*
G75*
G02*
X14265000Y50400000I65000J0D01*
G01*
X14935000Y50400000D01*
G75*
G02*
X15000000Y50335000I0J-65000D01*
G01*
X15000000Y49815000D01*
G75*
G02*
X14935000Y49750000I-65000J0D01*
G01*
G37*
G36*
G01*
X14955000Y48975000D02*
X14245000Y48975000D01*
G75*
G02*
X14200000Y49020000I0J45000D01*
G01*
X14200000Y49380000D01*
G75*
G02*
X14245000Y49425000I45000J0D01*
G01*
X14955000Y49425000D01*
G75*
G02*
X15000000Y49380000I0J-45000D01*
G01*
X15000000Y49020000D01*
G75*
G02*
X14955000Y48975000I-45000J0D01*
G01*
G37*
G36*
G01*
X14955000Y48175000D02*
X14245000Y48175000D01*
G75*
G02*
X14200000Y48220000I0J45000D01*
G01*
X14200000Y48580000D01*
G75*
G02*
X14245000Y48625000I45000J0D01*
G01*
X14955000Y48625000D01*
G75*
G02*
X15000000Y48580000I0J-45000D01*
G01*
X15000000Y48220000D01*
G75*
G02*
X14955000Y48175000I-45000J0D01*
G01*
G37*
G36*
G01*
X14935000Y47200000D02*
X14265000Y47200000D01*
G75*
G02*
X14200000Y47265000I0J65000D01*
G01*
X14200000Y47785000D01*
G75*
G02*
X14265000Y47850000I65000J0D01*
G01*
X14935000Y47850000D01*
G75*
G02*
X15000000Y47785000I0J-65000D01*
G01*
X15000000Y47265000D01*
G75*
G02*
X14935000Y47200000I-65000J0D01*
G01*
G37*
G04 #@! TD*
G04 #@! TO.C,R25*
G36*
G01*
X10850000Y34265000D02*
X10850000Y34935000D01*
G75*
G02*
X10915000Y35000000I65000J0D01*
G01*
X11435000Y35000000D01*
G75*
G02*
X11500000Y34935000I0J-65000D01*
G01*
X11500000Y34265000D01*
G75*
G02*
X11435000Y34200000I-65000J0D01*
G01*
X10915000Y34200000D01*
G75*
G02*
X10850000Y34265000I0J65000D01*
G01*
G37*
G36*
G01*
X11825000Y34245000D02*
X11825000Y34955000D01*
G75*
G02*
X11870000Y35000000I45000J0D01*
G01*
X12230000Y35000000D01*
G75*
G02*
X12275000Y34955000I0J-45000D01*
G01*
X12275000Y34245000D01*
G75*
G02*
X12230000Y34200000I-45000J0D01*
G01*
X11870000Y34200000D01*
G75*
G02*
X11825000Y34245000I0J45000D01*
G01*
G37*
G36*
G01*
X12625000Y34245000D02*
X12625000Y34955000D01*
G75*
G02*
X12670000Y35000000I45000J0D01*
G01*
X13030000Y35000000D01*
G75*
G02*
X13075000Y34955000I0J-45000D01*
G01*
X13075000Y34245000D01*
G75*
G02*
X13030000Y34200000I-45000J0D01*
G01*
X12670000Y34200000D01*
G75*
G02*
X12625000Y34245000I0J45000D01*
G01*
G37*
G36*
G01*
X13400000Y34265000D02*
X13400000Y34935000D01*
G75*
G02*
X13465000Y35000000I65000J0D01*
G01*
X13985000Y35000000D01*
G75*
G02*
X14050000Y34935000I0J-65000D01*
G01*
X14050000Y34265000D01*
G75*
G02*
X13985000Y34200000I-65000J0D01*
G01*
X13465000Y34200000D01*
G75*
G02*
X13400000Y34265000I0J65000D01*
G01*
G37*
G36*
G01*
X13400000Y36065000D02*
X13400000Y36735000D01*
G75*
G02*
X13465000Y36800000I65000J0D01*
G01*
X13985000Y36800000D01*
G75*
G02*
X14050000Y36735000I0J-65000D01*
G01*
X14050000Y36065000D01*
G75*
G02*
X13985000Y36000000I-65000J0D01*
G01*
X13465000Y36000000D01*
G75*
G02*
X13400000Y36065000I0J65000D01*
G01*
G37*
G36*
G01*
X12625000Y36045000D02*
X12625000Y36755000D01*
G75*
G02*
X12670000Y36800000I45000J0D01*
G01*
X13030000Y36800000D01*
G75*
G02*
X13075000Y36755000I0J-45000D01*
G01*
X13075000Y36045000D01*
G75*
G02*
X13030000Y36000000I-45000J0D01*
G01*
X12670000Y36000000D01*
G75*
G02*
X12625000Y36045000I0J45000D01*
G01*
G37*
G36*
G01*
X11825000Y36045000D02*
X11825000Y36755000D01*
G75*
G02*
X11870000Y36800000I45000J0D01*
G01*
X12230000Y36800000D01*
G75*
G02*
X12275000Y36755000I0J-45000D01*
G01*
X12275000Y36045000D01*
G75*
G02*
X12230000Y36000000I-45000J0D01*
G01*
X11870000Y36000000D01*
G75*
G02*
X11825000Y36045000I0J45000D01*
G01*
G37*
G36*
G01*
X10850000Y36065000D02*
X10850000Y36735000D01*
G75*
G02*
X10915000Y36800000I65000J0D01*
G01*
X11435000Y36800000D01*
G75*
G02*
X11500000Y36735000I0J-65000D01*
G01*
X11500000Y36065000D01*
G75*
G02*
X11435000Y36000000I-65000J0D01*
G01*
X10915000Y36000000D01*
G75*
G02*
X10850000Y36065000I0J65000D01*
G01*
G37*
G04 #@! TD*
G04 #@! TO.C,R27*
G36*
G01*
X18344000Y40015000D02*
X18344000Y40685000D01*
G75*
G02*
X18409000Y40750000I65000J0D01*
G01*
X18929000Y40750000D01*
G75*
G02*
X18994000Y40685000I0J-65000D01*
G01*
X18994000Y40015000D01*
G75*
G02*
X18929000Y39950000I-65000J0D01*
G01*
X18409000Y39950000D01*
G75*
G02*
X18344000Y40015000I0J65000D01*
G01*
G37*
G36*
G01*
X19319000Y39995000D02*
X19319000Y40705000D01*
G75*
G02*
X19364000Y40750000I45000J0D01*
G01*
X19724000Y40750000D01*
G75*
G02*
X19769000Y40705000I0J-45000D01*
G01*
X19769000Y39995000D01*
G75*
G02*
X19724000Y39950000I-45000J0D01*
G01*
X19364000Y39950000D01*
G75*
G02*
X19319000Y39995000I0J45000D01*
G01*
G37*
G36*
G01*
X20119000Y39995000D02*
X20119000Y40705000D01*
G75*
G02*
X20164000Y40750000I45000J0D01*
G01*
X20524000Y40750000D01*
G75*
G02*
X20569000Y40705000I0J-45000D01*
G01*
X20569000Y39995000D01*
G75*
G02*
X20524000Y39950000I-45000J0D01*
G01*
X20164000Y39950000D01*
G75*
G02*
X20119000Y39995000I0J45000D01*
G01*
G37*
G36*
G01*
X20894000Y40015000D02*
X20894000Y40685000D01*
G75*
G02*
X20959000Y40750000I65000J0D01*
G01*
X21479000Y40750000D01*
G75*
G02*
X21544000Y40685000I0J-65000D01*
G01*
X21544000Y40015000D01*
G75*
G02*
X21479000Y39950000I-65000J0D01*
G01*
X20959000Y39950000D01*
G75*
G02*
X20894000Y40015000I0J65000D01*
G01*
G37*
G36*
G01*
X20894000Y41815000D02*
X20894000Y42485000D01*
G75*
G02*
X20959000Y42550000I65000J0D01*
G01*
X21479000Y42550000D01*
G75*
G02*
X21544000Y42485000I0J-65000D01*
G01*
X21544000Y41815000D01*
G75*
G02*
X21479000Y41750000I-65000J0D01*
G01*
X20959000Y41750000D01*
G75*
G02*
X20894000Y41815000I0J65000D01*
G01*
G37*
G36*
G01*
X20119000Y41795000D02*
X20119000Y42505000D01*
G75*
G02*
X20164000Y42550000I45000J0D01*
G01*
X20524000Y42550000D01*
G75*
G02*
X20569000Y42505000I0J-45000D01*
G01*
X20569000Y41795000D01*
G75*
G02*
X20524000Y41750000I-45000J0D01*
G01*
X20164000Y41750000D01*
G75*
G02*
X20119000Y41795000I0J45000D01*
G01*
G37*
G36*
G01*
X19319000Y41795000D02*
X19319000Y42505000D01*
G75*
G02*
X19364000Y42550000I45000J0D01*
G01*
X19724000Y42550000D01*
G75*
G02*
X19769000Y42505000I0J-45000D01*
G01*
X19769000Y41795000D01*
G75*
G02*
X19724000Y41750000I-45000J0D01*
G01*
X19364000Y41750000D01*
G75*
G02*
X19319000Y41795000I0J45000D01*
G01*
G37*
G36*
G01*
X18344000Y41815000D02*
X18344000Y42485000D01*
G75*
G02*
X18409000Y42550000I65000J0D01*
G01*
X18929000Y42550000D01*
G75*
G02*
X18994000Y42485000I0J-65000D01*
G01*
X18994000Y41815000D01*
G75*
G02*
X18929000Y41750000I-65000J0D01*
G01*
X18409000Y41750000D01*
G75*
G02*
X18344000Y41815000I0J65000D01*
G01*
G37*
G04 #@! TD*
G04 #@! TO.C,R46*
G36*
G01*
X46750000Y1010000D02*
X46750000Y1790000D01*
G75*
G02*
X46820000Y1860000I70000J0D01*
G01*
X47380000Y1860000D01*
G75*
G02*
X47450000Y1790000I0J-70000D01*
G01*
X47450000Y1010000D01*
G75*
G02*
X47380000Y940000I-70000J0D01*
G01*
X46820000Y940000D01*
G75*
G02*
X46750000Y1010000I0J70000D01*
G01*
G37*
G36*
G01*
X48350000Y1010000D02*
X48350000Y1790000D01*
G75*
G02*
X48420000Y1860000I70000J0D01*
G01*
X48980000Y1860000D01*
G75*
G02*
X49050000Y1790000I0J-70000D01*
G01*
X49050000Y1010000D01*
G75*
G02*
X48980000Y940000I-70000J0D01*
G01*
X48420000Y940000D01*
G75*
G02*
X48350000Y1010000I0J70000D01*
G01*
G37*
G04 #@! TD*
G04 #@! TO.C,Q10*
G36*
G01*
X13600000Y40725000D02*
X13300000Y40725000D01*
G75*
G02*
X13150000Y40875000I0J150000D01*
G01*
X13150000Y42050000D01*
G75*
G02*
X13300000Y42200000I150000J0D01*
G01*
X13600000Y42200000D01*
G75*
G02*
X13750000Y42050000I0J-150000D01*
G01*
X13750000Y40875000D01*
G75*
G02*
X13600000Y40725000I-150000J0D01*
G01*
G37*
G36*
G01*
X14550000Y42600000D02*
X14250000Y42600000D01*
G75*
G02*
X14100000Y42750000I0J150000D01*
G01*
X14100000Y43925000D01*
G75*
G02*
X14250000Y44075000I150000J0D01*
G01*
X14550000Y44075000D01*
G75*
G02*
X14700000Y43925000I0J-150000D01*
G01*
X14700000Y42750000D01*
G75*
G02*
X14550000Y42600000I-150000J0D01*
G01*
G37*
G36*
G01*
X15500000Y40725000D02*
X15200000Y40725000D01*
G75*
G02*
X15050000Y40875000I0J150000D01*
G01*
X15050000Y42050000D01*
G75*
G02*
X15200000Y42200000I150000J0D01*
G01*
X15500000Y42200000D01*
G75*
G02*
X15650000Y42050000I0J-150000D01*
G01*
X15650000Y40875000D01*
G75*
G02*
X15500000Y40725000I-150000J0D01*
G01*
G37*
G04 #@! TD*
G04 #@! TO.C,R47*
G36*
G01*
X46300000Y3010000D02*
X46300000Y3790000D01*
G75*
G02*
X46370000Y3860000I70000J0D01*
G01*
X46930000Y3860000D01*
G75*
G02*
X47000000Y3790000I0J-70000D01*
G01*
X47000000Y3010000D01*
G75*
G02*
X46930000Y2940000I-70000J0D01*
G01*
X46370000Y2940000D01*
G75*
G02*
X46300000Y3010000I0J70000D01*
G01*
G37*
G36*
G01*
X47900000Y3010000D02*
X47900000Y3790000D01*
G75*
G02*
X47970000Y3860000I70000J0D01*
G01*
X48530000Y3860000D01*
G75*
G02*
X48600000Y3790000I0J-70000D01*
G01*
X48600000Y3010000D01*
G75*
G02*
X48530000Y2940000I-70000J0D01*
G01*
X47970000Y2940000D01*
G75*
G02*
X47900000Y3010000I0J70000D01*
G01*
G37*
G04 #@! TD*
G04 #@! TO.C,R15*
G36*
G01*
X57757000Y83349999D02*
X56507000Y83349999D01*
G75*
G02*
X56407000Y83449999I0J100000D01*
G01*
X56407000Y84249999D01*
G75*
G02*
X56507000Y84349999I100000J0D01*
G01*
X57757000Y84349999D01*
G75*
G02*
X57857000Y84249999I0J-100000D01*
G01*
X57857000Y83449999D01*
G75*
G02*
X57757000Y83349999I-100000J0D01*
G01*
G37*
G36*
G01*
X57757000Y85250021D02*
X56507000Y85250021D01*
G75*
G02*
X56407000Y85350021I0J100000D01*
G01*
X56407000Y86150021D01*
G75*
G02*
X56507000Y86250021I100000J0D01*
G01*
X57757000Y86250021D01*
G75*
G02*
X57857000Y86150021I0J-100000D01*
G01*
X57857000Y85350021D01*
G75*
G02*
X57757000Y85250021I-100000J0D01*
G01*
G37*
G04 #@! TD*
G04 #@! TO.C,D4*
G36*
G01*
X17561499Y81587497D02*
X18041499Y81587497D01*
G75*
G02*
X18101499Y81527497I0J-60000D01*
G01*
X18101499Y81047497D01*
G75*
G02*
X18041499Y80987497I-60000J0D01*
G01*
X17561499Y80987497D01*
G75*
G02*
X17501499Y81047497I0J60000D01*
G01*
X17501499Y81527497D01*
G75*
G02*
X17561499Y81587497I60000J0D01*
G01*
G37*
G36*
G01*
X19761499Y81587497D02*
X20241499Y81587497D01*
G75*
G02*
X20301499Y81527497I0J-60000D01*
G01*
X20301499Y81047497D01*
G75*
G02*
X20241499Y80987497I-60000J0D01*
G01*
X19761499Y80987497D01*
G75*
G02*
X19701499Y81047497I0J60000D01*
G01*
X19701499Y81527497D01*
G75*
G02*
X19761499Y81587497I60000J0D01*
G01*
G37*
G04 #@! TD*
G04 #@! TO.C,R42*
G36*
G01*
X17900000Y49760000D02*
X17900000Y50540000D01*
G75*
G02*
X17970000Y50610000I70000J0D01*
G01*
X18530000Y50610000D01*
G75*
G02*
X18600000Y50540000I0J-70000D01*
G01*
X18600000Y49760000D01*
G75*
G02*
X18530000Y49690000I-70000J0D01*
G01*
X17970000Y49690000D01*
G75*
G02*
X17900000Y49760000I0J70000D01*
G01*
G37*
G36*
G01*
X19500000Y49760000D02*
X19500000Y50540000D01*
G75*
G02*
X19570000Y50610000I70000J0D01*
G01*
X20130000Y50610000D01*
G75*
G02*
X20200000Y50540000I0J-70000D01*
G01*
X20200000Y49760000D01*
G75*
G02*
X20130000Y49690000I-70000J0D01*
G01*
X19570000Y49690000D01*
G75*
G02*
X19500000Y49760000I0J70000D01*
G01*
G37*
G04 #@! TD*
G04 #@! TO.C,D7*
G36*
G01*
X19638502Y86212502D02*
X19158502Y86212502D01*
G75*
G02*
X19098502Y86272502I0J60000D01*
G01*
X19098502Y86752502D01*
G75*
G02*
X19158502Y86812502I60000J0D01*
G01*
X19638502Y86812502D01*
G75*
G02*
X19698502Y86752502I0J-60000D01*
G01*
X19698502Y86272502D01*
G75*
G02*
X19638502Y86212502I-60000J0D01*
G01*
G37*
G36*
G01*
X17438502Y86212502D02*
X16958502Y86212502D01*
G75*
G02*
X16898502Y86272502I0J60000D01*
G01*
X16898502Y86752502D01*
G75*
G02*
X16958502Y86812502I60000J0D01*
G01*
X17438502Y86812502D01*
G75*
G02*
X17498502Y86752502I0J-60000D01*
G01*
X17498502Y86272502D01*
G75*
G02*
X17438502Y86212502I-60000J0D01*
G01*
G37*
G04 #@! TD*
G04 #@! TO.C,R48*
G36*
G01*
X51300000Y3690000D02*
X51300000Y2910000D01*
G75*
G02*
X51230000Y2840000I-70000J0D01*
G01*
X50670000Y2840000D01*
G75*
G02*
X50600000Y2910000I0J70000D01*
G01*
X50600000Y3690000D01*
G75*
G02*
X50670000Y3760000I70000J0D01*
G01*
X51230000Y3760000D01*
G75*
G02*
X51300000Y3690000I0J-70000D01*
G01*
G37*
G36*
G01*
X49700000Y3690000D02*
X49700000Y2910000D01*
G75*
G02*
X49630000Y2840000I-70000J0D01*
G01*
X49070000Y2840000D01*
G75*
G02*
X49000000Y2910000I0J70000D01*
G01*
X49000000Y3690000D01*
G75*
G02*
X49070000Y3760000I70000J0D01*
G01*
X49630000Y3760000D01*
G75*
G02*
X49700000Y3690000I0J-70000D01*
G01*
G37*
G04 #@! TD*
G04 #@! TO.C,Q11*
G36*
G01*
X15375000Y36300000D02*
X15375000Y36600000D01*
G75*
G02*
X15525000Y36750000I150000J0D01*
G01*
X16700000Y36750000D01*
G75*
G02*
X16850000Y36600000I0J-150000D01*
G01*
X16850000Y36300000D01*
G75*
G02*
X16700000Y36150000I-150000J0D01*
G01*
X15525000Y36150000D01*
G75*
G02*
X15375000Y36300000I0J150000D01*
G01*
G37*
G36*
G01*
X17250000Y35350000D02*
X17250000Y35650000D01*
G75*
G02*
X17400000Y35800000I150000J0D01*
G01*
X18575000Y35800000D01*
G75*
G02*
X18725000Y35650000I0J-150000D01*
G01*
X18725000Y35350000D01*
G75*
G02*
X18575000Y35200000I-150000J0D01*
G01*
X17400000Y35200000D01*
G75*
G02*
X17250000Y35350000I0J150000D01*
G01*
G37*
G36*
G01*
X15375000Y34400000D02*
X15375000Y34700000D01*
G75*
G02*
X15525000Y34850000I150000J0D01*
G01*
X16700000Y34850000D01*
G75*
G02*
X16850000Y34700000I0J-150000D01*
G01*
X16850000Y34400000D01*
G75*
G02*
X16700000Y34250000I-150000J0D01*
G01*
X15525000Y34250000D01*
G75*
G02*
X15375000Y34400000I0J150000D01*
G01*
G37*
G04 #@! TD*
G04 #@! TO.C,R39*
G36*
G01*
X19302000Y33802000D02*
X19302000Y34582000D01*
G75*
G02*
X19372000Y34652000I70000J0D01*
G01*
X19932000Y34652000D01*
G75*
G02*
X20002000Y34582000I0J-70000D01*
G01*
X20002000Y33802000D01*
G75*
G02*
X19932000Y33732000I-70000J0D01*
G01*
X19372000Y33732000D01*
G75*
G02*
X19302000Y33802000I0J70000D01*
G01*
G37*
G36*
G01*
X20902000Y33802000D02*
X20902000Y34582000D01*
G75*
G02*
X20972000Y34652000I70000J0D01*
G01*
X21532000Y34652000D01*
G75*
G02*
X21602000Y34582000I0J-70000D01*
G01*
X21602000Y33802000D01*
G75*
G02*
X21532000Y33732000I-70000J0D01*
G01*
X20972000Y33732000D01*
G75*
G02*
X20902000Y33802000I0J70000D01*
G01*
G37*
G04 #@! TD*
G04 #@! TO.C,R1*
G36*
G01*
X20100000Y85135000D02*
X20100000Y84465000D01*
G75*
G02*
X20035000Y84400000I-65000J0D01*
G01*
X19515000Y84400000D01*
G75*
G02*
X19450000Y84465000I0J65000D01*
G01*
X19450000Y85135000D01*
G75*
G02*
X19515000Y85200000I65000J0D01*
G01*
X20035000Y85200000D01*
G75*
G02*
X20100000Y85135000I0J-65000D01*
G01*
G37*
G36*
G01*
X19125000Y85155000D02*
X19125000Y84445000D01*
G75*
G02*
X19080000Y84400000I-45000J0D01*
G01*
X18720000Y84400000D01*
G75*
G02*
X18675000Y84445000I0J45000D01*
G01*
X18675000Y85155000D01*
G75*
G02*
X18720000Y85200000I45000J0D01*
G01*
X19080000Y85200000D01*
G75*
G02*
X19125000Y85155000I0J-45000D01*
G01*
G37*
G36*
G01*
X18325000Y85155000D02*
X18325000Y84445000D01*
G75*
G02*
X18280000Y84400000I-45000J0D01*
G01*
X17920000Y84400000D01*
G75*
G02*
X17875000Y84445000I0J45000D01*
G01*
X17875000Y85155000D01*
G75*
G02*
X17920000Y85200000I45000J0D01*
G01*
X18280000Y85200000D01*
G75*
G02*
X18325000Y85155000I0J-45000D01*
G01*
G37*
G36*
G01*
X17550000Y85135000D02*
X17550000Y84465000D01*
G75*
G02*
X17485000Y84400000I-65000J0D01*
G01*
X16965000Y84400000D01*
G75*
G02*
X16900000Y84465000I0J65000D01*
G01*
X16900000Y85135000D01*
G75*
G02*
X16965000Y85200000I65000J0D01*
G01*
X17485000Y85200000D01*
G75*
G02*
X17550000Y85135000I0J-65000D01*
G01*
G37*
G36*
G01*
X17550000Y83335000D02*
X17550000Y82665000D01*
G75*
G02*
X17485000Y82600000I-65000J0D01*
G01*
X16965000Y82600000D01*
G75*
G02*
X16900000Y82665000I0J65000D01*
G01*
X16900000Y83335000D01*
G75*
G02*
X16965000Y83400000I65000J0D01*
G01*
X17485000Y83400000D01*
G75*
G02*
X17550000Y83335000I0J-65000D01*
G01*
G37*
G36*
G01*
X18325000Y83355000D02*
X18325000Y82645000D01*
G75*
G02*
X18280000Y82600000I-45000J0D01*
G01*
X17920000Y82600000D01*
G75*
G02*
X17875000Y82645000I0J45000D01*
G01*
X17875000Y83355000D01*
G75*
G02*
X17920000Y83400000I45000J0D01*
G01*
X18280000Y83400000D01*
G75*
G02*
X18325000Y83355000I0J-45000D01*
G01*
G37*
G36*
G01*
X19125000Y83355000D02*
X19125000Y82645000D01*
G75*
G02*
X19080000Y82600000I-45000J0D01*
G01*
X18720000Y82600000D01*
G75*
G02*
X18675000Y82645000I0J45000D01*
G01*
X18675000Y83355000D01*
G75*
G02*
X18720000Y83400000I45000J0D01*
G01*
X19080000Y83400000D01*
G75*
G02*
X19125000Y83355000I0J-45000D01*
G01*
G37*
G36*
G01*
X20100000Y83335000D02*
X20100000Y82665000D01*
G75*
G02*
X20035000Y82600000I-65000J0D01*
G01*
X19515000Y82600000D01*
G75*
G02*
X19450000Y82665000I0J65000D01*
G01*
X19450000Y83335000D01*
G75*
G02*
X19515000Y83400000I65000J0D01*
G01*
X20035000Y83400000D01*
G75*
G02*
X20100000Y83335000I0J-65000D01*
G01*
G37*
G04 #@! TD*
G04 #@! TO.C,D25*
G36*
G01*
X77910000Y97600000D02*
X76890000Y97600000D01*
G75*
G02*
X76800000Y97690000I0J90000D01*
G01*
X76800000Y98410000D01*
G75*
G02*
X76890000Y98500000I90000J0D01*
G01*
X77910000Y98500000D01*
G75*
G02*
X78000000Y98410000I0J-90000D01*
G01*
X78000000Y97690000D01*
G75*
G02*
X77910000Y97600000I-90000J0D01*
G01*
G37*
G36*
G01*
X77910000Y100900000D02*
X76890000Y100900000D01*
G75*
G02*
X76800000Y100990000I0J90000D01*
G01*
X76800000Y101710000D01*
G75*
G02*
X76890000Y101800000I90000J0D01*
G01*
X77910000Y101800000D01*
G75*
G02*
X78000000Y101710000I0J-90000D01*
G01*
X78000000Y100990000D01*
G75*
G02*
X77910000Y100900000I-90000J0D01*
G01*
G37*
G04 #@! TD*
G04 #@! TO.C,R7*
G36*
G01*
X59789000Y83349999D02*
X58539000Y83349999D01*
G75*
G02*
X58439000Y83449999I0J100000D01*
G01*
X58439000Y84249999D01*
G75*
G02*
X58539000Y84349999I100000J0D01*
G01*
X59789000Y84349999D01*
G75*
G02*
X59889000Y84249999I0J-100000D01*
G01*
X59889000Y83449999D01*
G75*
G02*
X59789000Y83349999I-100000J0D01*
G01*
G37*
G36*
G01*
X59789000Y85250021D02*
X58539000Y85250021D01*
G75*
G02*
X58439000Y85350021I0J100000D01*
G01*
X58439000Y86150021D01*
G75*
G02*
X58539000Y86250021I100000J0D01*
G01*
X59789000Y86250021D01*
G75*
G02*
X59889000Y86150021I0J-100000D01*
G01*
X59889000Y85350021D01*
G75*
G02*
X59789000Y85250021I-100000J0D01*
G01*
G37*
G04 #@! TD*
G04 #@! TO.C,R13*
G36*
G01*
X73850001Y101625000D02*
X73850001Y100375000D01*
G75*
G02*
X73750001Y100275000I-100000J0D01*
G01*
X72950001Y100275000D01*
G75*
G02*
X72850001Y100375000I0J100000D01*
G01*
X72850001Y101625000D01*
G75*
G02*
X72950001Y101725000I100000J0D01*
G01*
X73750001Y101725000D01*
G75*
G02*
X73850001Y101625000I0J-100000D01*
G01*
G37*
G36*
G01*
X71949979Y101625000D02*
X71949979Y100375000D01*
G75*
G02*
X71849979Y100275000I-100000J0D01*
G01*
X71049979Y100275000D01*
G75*
G02*
X70949979Y100375000I0J100000D01*
G01*
X70949979Y101625000D01*
G75*
G02*
X71049979Y101725000I100000J0D01*
G01*
X71849979Y101725000D01*
G75*
G02*
X71949979Y101625000I0J-100000D01*
G01*
G37*
G04 #@! TD*
G04 #@! TO.C,R20*
G36*
G01*
X61821000Y83397999D02*
X60571000Y83397999D01*
G75*
G02*
X60471000Y83497999I0J100000D01*
G01*
X60471000Y84297999D01*
G75*
G02*
X60571000Y84397999I100000J0D01*
G01*
X61821000Y84397999D01*
G75*
G02*
X61921000Y84297999I0J-100000D01*
G01*
X61921000Y83497999D01*
G75*
G02*
X61821000Y83397999I-100000J0D01*
G01*
G37*
G36*
G01*
X61821000Y85298021D02*
X60571000Y85298021D01*
G75*
G02*
X60471000Y85398021I0J100000D01*
G01*
X60471000Y86198021D01*
G75*
G02*
X60571000Y86298021I100000J0D01*
G01*
X61821000Y86298021D01*
G75*
G02*
X61921000Y86198021I0J-100000D01*
G01*
X61921000Y85398021D01*
G75*
G02*
X61821000Y85298021I-100000J0D01*
G01*
G37*
G04 #@! TD*
G04 #@! TO.C,C2*
G36*
G01*
X75834999Y13460000D02*
X75834999Y14140000D01*
G75*
G02*
X75919999Y14225000I85000J0D01*
G01*
X76599999Y14225000D01*
G75*
G02*
X76684999Y14140000I0J-85000D01*
G01*
X76684999Y13460000D01*
G75*
G02*
X76599999Y13375000I-85000J0D01*
G01*
X75919999Y13375000D01*
G75*
G02*
X75834999Y13460000I0J85000D01*
G01*
G37*
G36*
G01*
X77415001Y13460000D02*
X77415001Y14140000D01*
G75*
G02*
X77500001Y14225000I85000J0D01*
G01*
X78180001Y14225000D01*
G75*
G02*
X78265001Y14140000I0J-85000D01*
G01*
X78265001Y13460000D01*
G75*
G02*
X78180001Y13375000I-85000J0D01*
G01*
X77500001Y13375000D01*
G75*
G02*
X77415001Y13460000I0J85000D01*
G01*
G37*
G04 #@! TD*
D13*
G04 #@! TO.C,M2*
X27093188Y14812497D03*
X23687477Y29687499D03*
X27637492Y53507495D03*
X25737491Y53507500D03*
X29095165Y16512514D03*
G04 #@! TD*
G04 #@! TO.C,R12*
G36*
G01*
X27825000Y83349999D02*
X26575000Y83349999D01*
G75*
G02*
X26475000Y83449999I0J100000D01*
G01*
X26475000Y84249999D01*
G75*
G02*
X26575000Y84349999I100000J0D01*
G01*
X27825000Y84349999D01*
G75*
G02*
X27925000Y84249999I0J-100000D01*
G01*
X27925000Y83449999D01*
G75*
G02*
X27825000Y83349999I-100000J0D01*
G01*
G37*
G36*
G01*
X27825000Y85250021D02*
X26575000Y85250021D01*
G75*
G02*
X26475000Y85350021I0J100000D01*
G01*
X26475000Y86150021D01*
G75*
G02*
X26575000Y86250021I100000J0D01*
G01*
X27825000Y86250021D01*
G75*
G02*
X27925000Y86150021I0J-100000D01*
G01*
X27925000Y85350021D01*
G75*
G02*
X27825000Y85250021I-100000J0D01*
G01*
G37*
G04 #@! TD*
G04 #@! TO.C,R44*
G36*
G01*
X14550000Y52510000D02*
X14550000Y53290000D01*
G75*
G02*
X14620000Y53360000I70000J0D01*
G01*
X15180000Y53360000D01*
G75*
G02*
X15250000Y53290000I0J-70000D01*
G01*
X15250000Y52510000D01*
G75*
G02*
X15180000Y52440000I-70000J0D01*
G01*
X14620000Y52440000D01*
G75*
G02*
X14550000Y52510000I0J70000D01*
G01*
G37*
G36*
G01*
X16150000Y52510000D02*
X16150000Y53290000D01*
G75*
G02*
X16220000Y53360000I70000J0D01*
G01*
X16780000Y53360000D01*
G75*
G02*
X16850000Y53290000I0J-70000D01*
G01*
X16850000Y52510000D01*
G75*
G02*
X16780000Y52440000I-70000J0D01*
G01*
X16220000Y52440000D01*
G75*
G02*
X16150000Y52510000I0J70000D01*
G01*
G37*
G04 #@! TD*
G04 #@! TO.C,R18*
G36*
G01*
X35125000Y83349999D02*
X33875000Y83349999D01*
G75*
G02*
X33775000Y83449999I0J100000D01*
G01*
X33775000Y84249999D01*
G75*
G02*
X33875000Y84349999I100000J0D01*
G01*
X35125000Y84349999D01*
G75*
G02*
X35225000Y84249999I0J-100000D01*
G01*
X35225000Y83449999D01*
G75*
G02*
X35125000Y83349999I-100000J0D01*
G01*
G37*
G36*
G01*
X35125000Y85250021D02*
X33875000Y85250021D01*
G75*
G02*
X33775000Y85350021I0J100000D01*
G01*
X33775000Y86150021D01*
G75*
G02*
X33875000Y86250021I100000J0D01*
G01*
X35125000Y86250021D01*
G75*
G02*
X35225000Y86150021I0J-100000D01*
G01*
X35225000Y85350021D01*
G75*
G02*
X35125000Y85250021I-100000J0D01*
G01*
G37*
G04 #@! TD*
G04 #@! TO.C,D13*
G36*
G01*
X8999998Y73800001D02*
X8099998Y73800001D01*
G75*
G02*
X7999998Y73900001I0J100000D01*
G01*
X7999998Y74700001D01*
G75*
G02*
X8099998Y74800001I100000J0D01*
G01*
X8999998Y74800001D01*
G75*
G02*
X9099998Y74700001I0J-100000D01*
G01*
X9099998Y73900001D01*
G75*
G02*
X8999998Y73800001I-100000J0D01*
G01*
G37*
G36*
G01*
X8999998Y75500001D02*
X8099998Y75500001D01*
G75*
G02*
X7999998Y75600001I0J100000D01*
G01*
X7999998Y76400001D01*
G75*
G02*
X8099998Y76500001I100000J0D01*
G01*
X8999998Y76500001D01*
G75*
G02*
X9099998Y76400001I0J-100000D01*
G01*
X9099998Y75600001D01*
G75*
G02*
X8999998Y75500001I-100000J0D01*
G01*
G37*
G04 #@! TD*
D12*
G04 #@! TO.C,Q9*
X79800000Y80775000D03*
X79800000Y77425000D03*
X76750000Y77425000D03*
X76750000Y80775000D03*
G36*
G01*
X76475000Y71700000D02*
X75515000Y71700000D01*
G75*
G02*
X75395000Y71820000I0J120000D01*
G01*
X75395000Y73780000D01*
G75*
G02*
X75515000Y73900000I120000J0D01*
G01*
X76475000Y73900000D01*
G75*
G02*
X76595000Y73780000I0J-120000D01*
G01*
X76595000Y71820000D01*
G75*
G02*
X76475000Y71700000I-120000J0D01*
G01*
G37*
G36*
G01*
X81035000Y71700000D02*
X80075000Y71700000D01*
G75*
G02*
X79955000Y71820000I0J120000D01*
G01*
X79955000Y73780000D01*
G75*
G02*
X80075000Y73900000I120000J0D01*
G01*
X81035000Y73900000D01*
G75*
G02*
X81155000Y73780000I0J-120000D01*
G01*
X81155000Y71820000D01*
G75*
G02*
X81035000Y71700000I-120000J0D01*
G01*
G37*
G04 #@! TD*
D18*
G04 #@! TO.C,J2*
X43758607Y10150000D03*
X43758607Y14050000D03*
X45028607Y10150000D03*
X45028607Y14050000D03*
X46298607Y10150000D03*
X46298607Y14050000D03*
X47568607Y10150000D03*
X47568607Y14050000D03*
X48838607Y10150000D03*
X48838607Y14050000D03*
G04 #@! TD*
G04 #@! TO.C,F5*
G36*
G01*
X31400000Y85305010D02*
X31400000Y85995010D01*
G75*
G02*
X31630000Y86225010I230000J0D01*
G01*
X32970000Y86225010D01*
G75*
G02*
X33200000Y85995010I0J-230000D01*
G01*
X33200000Y85305010D01*
G75*
G02*
X32970000Y85075010I-230000J0D01*
G01*
X31630000Y85075010D01*
G75*
G02*
X31400000Y85305010I0J230000D01*
G01*
G37*
G36*
G01*
X31400000Y82404990D02*
X31400000Y83094990D01*
G75*
G02*
X31630000Y83324990I230000J0D01*
G01*
X32970000Y83324990D01*
G75*
G02*
X33200000Y83094990I0J-230000D01*
G01*
X33200000Y82404990D01*
G75*
G02*
X32970000Y82174990I-230000J0D01*
G01*
X31630000Y82174990D01*
G75*
G02*
X31400000Y82404990I0J230000D01*
G01*
G37*
G04 #@! TD*
G04 #@! TO.C,F2*
G36*
G01*
X51152000Y85405010D02*
X51152000Y86095010D01*
G75*
G02*
X51382000Y86325010I230000J0D01*
G01*
X52722000Y86325010D01*
G75*
G02*
X52952000Y86095010I0J-230000D01*
G01*
X52952000Y85405010D01*
G75*
G02*
X52722000Y85175010I-230000J0D01*
G01*
X51382000Y85175010D01*
G75*
G02*
X51152000Y85405010I0J230000D01*
G01*
G37*
G36*
G01*
X51152000Y82504990D02*
X51152000Y83194990D01*
G75*
G02*
X51382000Y83424990I230000J0D01*
G01*
X52722000Y83424990D01*
G75*
G02*
X52952000Y83194990I0J-230000D01*
G01*
X52952000Y82504990D01*
G75*
G02*
X52722000Y82274990I-230000J0D01*
G01*
X51382000Y82274990D01*
G75*
G02*
X51152000Y82504990I0J230000D01*
G01*
G37*
G04 #@! TD*
M02*
