G04 #@! TF.GenerationSoftware,KiCad,Pcbnew,7.0.6-7.0.6~ubuntu22.04.1*
G04 #@! TF.CreationDate,2023-07-25T20:21:24+00:00*
G04 #@! TF.ProjectId,alphax_2ch,616c7068-6178-45f3-9263-682e6b696361,G*
G04 #@! TF.SameCoordinates,PX141f5e0PYa2cace0*
G04 #@! TF.FileFunction,Soldermask,Top*
G04 #@! TF.FilePolarity,Negative*
%FSLAX46Y46*%
G04 Gerber Fmt 4.6, Leading zero omitted, Abs format (unit mm)*
G04 Created by KiCad (PCBNEW 7.0.6-7.0.6~ubuntu22.04.1) date 2023-07-25 20:21:24*
%MOMM*%
%LPD*%
G01*
G04 APERTURE LIST*
%ADD10C,0.120000*%
%ADD11C,1.524000*%
%ADD12O,1.700000X1.850000*%
%ADD13C,0.650000*%
%ADD14R,0.300000X1.150000*%
%ADD15O,1.000000X2.100000*%
%ADD16O,1.000000X1.600000*%
%ADD17C,1.700000*%
%ADD18C,1.000000*%
%ADD19C,1.500000*%
%ADD20O,0.499999X0.250000*%
%ADD21O,0.250000X0.499999*%
%ADD22C,0.599999*%
%ADD23C,0.600000*%
%ADD24R,5.800000X6.400000*%
%ADD25R,1.300000X1.000000*%
%ADD26C,2.000000*%
%ADD27O,0.700001X0.200000*%
%ADD28O,1.000001X0.499999*%
%ADD29O,2.900000X5.900000*%
%ADD30O,2.400000X2.900000*%
%ADD31R,0.740000X2.400000*%
G04 APERTURE END LIST*
G04 #@! TO.C,U4*
D10*
X19700000Y200000D02*
X6700000Y200000D01*
X6700000Y7200000D01*
X19700000Y7200000D01*
X19700000Y200000D01*
G36*
X19700000Y200000D02*
G01*
X6700000Y200000D01*
X6700000Y7200000D01*
X19700000Y7200000D01*
X19700000Y200000D01*
G37*
G04 #@! TD*
D11*
G04 #@! TO.C,R8*
X49836417Y82896579D03*
G36*
G01*
X50461417Y83351578D02*
X49211417Y83351578D01*
G75*
G02*
X49111417Y83451578I0J100000D01*
G01*
X49111417Y84251578D01*
G75*
G02*
X49211417Y84351578I100000J0D01*
G01*
X50461417Y84351578D01*
G75*
G02*
X50561417Y84251578I0J-100000D01*
G01*
X50561417Y83451578D01*
G75*
G02*
X50461417Y83351578I-100000J0D01*
G01*
G37*
G36*
G01*
X50461417Y85251600D02*
X49211417Y85251600D01*
G75*
G02*
X49111417Y85351600I0J100000D01*
G01*
X49111417Y86151600D01*
G75*
G02*
X49211417Y86251600I100000J0D01*
G01*
X50461417Y86251600D01*
G75*
G02*
X50561417Y86151600I0J-100000D01*
G01*
X50561417Y85351600D01*
G75*
G02*
X50461417Y85251600I-100000J0D01*
G01*
G37*
X49836417Y86706579D03*
G04 #@! TD*
G04 #@! TO.C,R69*
G36*
G01*
X17510000Y53350000D02*
X18290000Y53350000D01*
G75*
G02*
X18360000Y53280000I0J-70000D01*
G01*
X18360000Y52720000D01*
G75*
G02*
X18290000Y52650000I-70000J0D01*
G01*
X17510000Y52650000D01*
G75*
G02*
X17440000Y52720000I0J70000D01*
G01*
X17440000Y53280000D01*
G75*
G02*
X17510000Y53350000I70000J0D01*
G01*
G37*
G36*
G01*
X17510000Y51750000D02*
X18290000Y51750000D01*
G75*
G02*
X18360000Y51680000I0J-70000D01*
G01*
X18360000Y51120000D01*
G75*
G02*
X18290000Y51050000I-70000J0D01*
G01*
X17510000Y51050000D01*
G75*
G02*
X17440000Y51120000I0J70000D01*
G01*
X17440000Y51680000D01*
G75*
G02*
X17510000Y51750000I70000J0D01*
G01*
G37*
G04 #@! TD*
G04 #@! TO.C,R2*
G36*
G01*
X16900000Y76065000D02*
X16900000Y76735000D01*
G75*
G02*
X16965000Y76800000I65000J0D01*
G01*
X17485000Y76800000D01*
G75*
G02*
X17550000Y76735000I0J-65000D01*
G01*
X17550000Y76065000D01*
G75*
G02*
X17485000Y76000000I-65000J0D01*
G01*
X16965000Y76000000D01*
G75*
G02*
X16900000Y76065000I0J65000D01*
G01*
G37*
G36*
G01*
X17875000Y76045000D02*
X17875000Y76755000D01*
G75*
G02*
X17920000Y76800000I45000J0D01*
G01*
X18280000Y76800000D01*
G75*
G02*
X18325000Y76755000I0J-45000D01*
G01*
X18325000Y76045000D01*
G75*
G02*
X18280000Y76000000I-45000J0D01*
G01*
X17920000Y76000000D01*
G75*
G02*
X17875000Y76045000I0J45000D01*
G01*
G37*
G36*
G01*
X18675000Y76045000D02*
X18675000Y76755000D01*
G75*
G02*
X18720000Y76800000I45000J0D01*
G01*
X19080000Y76800000D01*
G75*
G02*
X19125000Y76755000I0J-45000D01*
G01*
X19125000Y76045000D01*
G75*
G02*
X19080000Y76000000I-45000J0D01*
G01*
X18720000Y76000000D01*
G75*
G02*
X18675000Y76045000I0J45000D01*
G01*
G37*
G36*
G01*
X19450000Y76065000D02*
X19450000Y76735000D01*
G75*
G02*
X19515000Y76800000I65000J0D01*
G01*
X20035000Y76800000D01*
G75*
G02*
X20100000Y76735000I0J-65000D01*
G01*
X20100000Y76065000D01*
G75*
G02*
X20035000Y76000000I-65000J0D01*
G01*
X19515000Y76000000D01*
G75*
G02*
X19450000Y76065000I0J65000D01*
G01*
G37*
G36*
G01*
X19450000Y77865000D02*
X19450000Y78535000D01*
G75*
G02*
X19515000Y78600000I65000J0D01*
G01*
X20035000Y78600000D01*
G75*
G02*
X20100000Y78535000I0J-65000D01*
G01*
X20100000Y77865000D01*
G75*
G02*
X20035000Y77800000I-65000J0D01*
G01*
X19515000Y77800000D01*
G75*
G02*
X19450000Y77865000I0J65000D01*
G01*
G37*
G36*
G01*
X18675000Y77845000D02*
X18675000Y78555000D01*
G75*
G02*
X18720000Y78600000I45000J0D01*
G01*
X19080000Y78600000D01*
G75*
G02*
X19125000Y78555000I0J-45000D01*
G01*
X19125000Y77845000D01*
G75*
G02*
X19080000Y77800000I-45000J0D01*
G01*
X18720000Y77800000D01*
G75*
G02*
X18675000Y77845000I0J45000D01*
G01*
G37*
G36*
G01*
X17875000Y77845000D02*
X17875000Y78555000D01*
G75*
G02*
X17920000Y78600000I45000J0D01*
G01*
X18280000Y78600000D01*
G75*
G02*
X18325000Y78555000I0J-45000D01*
G01*
X18325000Y77845000D01*
G75*
G02*
X18280000Y77800000I-45000J0D01*
G01*
X17920000Y77800000D01*
G75*
G02*
X17875000Y77845000I0J45000D01*
G01*
G37*
G36*
G01*
X16900000Y77865000D02*
X16900000Y78535000D01*
G75*
G02*
X16965000Y78600000I65000J0D01*
G01*
X17485000Y78600000D01*
G75*
G02*
X17550000Y78535000I0J-65000D01*
G01*
X17550000Y77865000D01*
G75*
G02*
X17485000Y77800000I-65000J0D01*
G01*
X16965000Y77800000D01*
G75*
G02*
X16900000Y77865000I0J65000D01*
G01*
G37*
G04 #@! TD*
G04 #@! TO.C,R56*
G36*
G01*
X50550000Y74390000D02*
X50550000Y73610000D01*
G75*
G02*
X50480000Y73540000I-70000J0D01*
G01*
X49920000Y73540000D01*
G75*
G02*
X49850000Y73610000I0J70000D01*
G01*
X49850000Y74390000D01*
G75*
G02*
X49920000Y74460000I70000J0D01*
G01*
X50480000Y74460000D01*
G75*
G02*
X50550000Y74390000I0J-70000D01*
G01*
G37*
G36*
G01*
X48950000Y74390000D02*
X48950000Y73610000D01*
G75*
G02*
X48880000Y73540000I-70000J0D01*
G01*
X48320000Y73540000D01*
G75*
G02*
X48250000Y73610000I0J70000D01*
G01*
X48250000Y74390000D01*
G75*
G02*
X48320000Y74460000I70000J0D01*
G01*
X48880000Y74460000D01*
G75*
G02*
X48950000Y74390000I0J-70000D01*
G01*
G37*
G04 #@! TD*
G04 #@! TO.C,R38*
G36*
G01*
X52150000Y66210000D02*
X52150000Y66990000D01*
G75*
G02*
X52220000Y67060000I70000J0D01*
G01*
X52780000Y67060000D01*
G75*
G02*
X52850000Y66990000I0J-70000D01*
G01*
X52850000Y66210000D01*
G75*
G02*
X52780000Y66140000I-70000J0D01*
G01*
X52220000Y66140000D01*
G75*
G02*
X52150000Y66210000I0J70000D01*
G01*
G37*
G36*
G01*
X53750000Y66210000D02*
X53750000Y66990000D01*
G75*
G02*
X53820000Y67060000I70000J0D01*
G01*
X54380000Y67060000D01*
G75*
G02*
X54450000Y66990000I0J-70000D01*
G01*
X54450000Y66210000D01*
G75*
G02*
X54380000Y66140000I-70000J0D01*
G01*
X53820000Y66140000D01*
G75*
G02*
X53750000Y66210000I0J70000D01*
G01*
G37*
G04 #@! TD*
G04 #@! TO.C,C3*
G36*
G01*
X22500000Y22864999D02*
X21820000Y22864999D01*
G75*
G02*
X21735000Y22949999I0J85000D01*
G01*
X21735000Y23629999D01*
G75*
G02*
X21820000Y23714999I85000J0D01*
G01*
X22500000Y23714999D01*
G75*
G02*
X22585000Y23629999I0J-85000D01*
G01*
X22585000Y22949999D01*
G75*
G02*
X22500000Y22864999I-85000J0D01*
G01*
G37*
G36*
G01*
X22500000Y24445001D02*
X21820000Y24445001D01*
G75*
G02*
X21735000Y24530001I0J85000D01*
G01*
X21735000Y25210001D01*
G75*
G02*
X21820000Y25295001I85000J0D01*
G01*
X22500000Y25295001D01*
G75*
G02*
X22585000Y25210001I0J-85000D01*
G01*
X22585000Y24530001D01*
G75*
G02*
X22500000Y24445001I-85000J0D01*
G01*
G37*
G04 #@! TD*
G04 #@! TO.C,R9*
X47882571Y82918049D03*
G36*
G01*
X48507571Y83373048D02*
X47257571Y83373048D01*
G75*
G02*
X47157571Y83473048I0J100000D01*
G01*
X47157571Y84273048D01*
G75*
G02*
X47257571Y84373048I100000J0D01*
G01*
X48507571Y84373048D01*
G75*
G02*
X48607571Y84273048I0J-100000D01*
G01*
X48607571Y83473048D01*
G75*
G02*
X48507571Y83373048I-100000J0D01*
G01*
G37*
G36*
G01*
X48507571Y85273070D02*
X47257571Y85273070D01*
G75*
G02*
X47157571Y85373070I0J100000D01*
G01*
X47157571Y86173070D01*
G75*
G02*
X47257571Y86273070I100000J0D01*
G01*
X48507571Y86273070D01*
G75*
G02*
X48607571Y86173070I0J-100000D01*
G01*
X48607571Y85373070D01*
G75*
G02*
X48507571Y85273070I-100000J0D01*
G01*
G37*
X47882571Y86728049D03*
G04 #@! TD*
G04 #@! TO.C,R21*
G36*
G01*
X8300000Y60094990D02*
X8300000Y59404990D01*
G75*
G02*
X8070000Y59174990I-230000J0D01*
G01*
X6730000Y59174990D01*
G75*
G02*
X6500000Y59404990I0J230000D01*
G01*
X6500000Y60094990D01*
G75*
G02*
X6730000Y60324990I230000J0D01*
G01*
X8070000Y60324990D01*
G75*
G02*
X8300000Y60094990I0J-230000D01*
G01*
G37*
G36*
G01*
X8300000Y62995010D02*
X8300000Y62305010D01*
G75*
G02*
X8070000Y62075010I-230000J0D01*
G01*
X6730000Y62075010D01*
G75*
G02*
X6500000Y62305010I0J230000D01*
G01*
X6500000Y62995010D01*
G75*
G02*
X6730000Y63225010I230000J0D01*
G01*
X8070000Y63225010D01*
G75*
G02*
X8300000Y62995010I0J-230000D01*
G01*
G37*
G04 #@! TD*
G04 #@! TO.C,F7*
X66550000Y62100000D03*
G36*
G01*
X67894990Y61200000D02*
X67204990Y61200000D01*
G75*
G02*
X66974990Y61430000I0J230000D01*
G01*
X66974990Y62770000D01*
G75*
G02*
X67204990Y63000000I230000J0D01*
G01*
X67894990Y63000000D01*
G75*
G02*
X68124990Y62770000I0J-230000D01*
G01*
X68124990Y61430000D01*
G75*
G02*
X67894990Y61200000I-230000J0D01*
G01*
G37*
G36*
G01*
X70795010Y61200000D02*
X70105010Y61200000D01*
G75*
G02*
X69875010Y61430000I0J230000D01*
G01*
X69875010Y62770000D01*
G75*
G02*
X70105010Y63000000I230000J0D01*
G01*
X70795010Y63000000D01*
G75*
G02*
X71025010Y62770000I0J-230000D01*
G01*
X71025010Y61430000D01*
G75*
G02*
X70795010Y61200000I-230000J0D01*
G01*
G37*
X71450000Y62100000D03*
G04 #@! TD*
G04 #@! TO.C,Q3*
G36*
G01*
X14465000Y29110000D02*
X14465000Y28810000D01*
G75*
G02*
X14315000Y28660000I-150000J0D01*
G01*
X13140000Y28660000D01*
G75*
G02*
X12990000Y28810000I0J150000D01*
G01*
X12990000Y29110000D01*
G75*
G02*
X13140000Y29260000I150000J0D01*
G01*
X14315000Y29260000D01*
G75*
G02*
X14465000Y29110000I0J-150000D01*
G01*
G37*
G36*
G01*
X12590000Y30060000D02*
X12590000Y29760000D01*
G75*
G02*
X12440000Y29610000I-150000J0D01*
G01*
X11265000Y29610000D01*
G75*
G02*
X11115000Y29760000I0J150000D01*
G01*
X11115000Y30060000D01*
G75*
G02*
X11265000Y30210000I150000J0D01*
G01*
X12440000Y30210000D01*
G75*
G02*
X12590000Y30060000I0J-150000D01*
G01*
G37*
G36*
G01*
X14465000Y31010000D02*
X14465000Y30710000D01*
G75*
G02*
X14315000Y30560000I-150000J0D01*
G01*
X13140000Y30560000D01*
G75*
G02*
X12990000Y30710000I0J150000D01*
G01*
X12990000Y31010000D01*
G75*
G02*
X13140000Y31160000I150000J0D01*
G01*
X14315000Y31160000D01*
G75*
G02*
X14465000Y31010000I0J-150000D01*
G01*
G37*
G04 #@! TD*
G04 #@! TO.C,F4*
X36700000Y86750000D03*
G36*
G01*
X35800000Y85405010D02*
X35800000Y86095010D01*
G75*
G02*
X36030000Y86325010I230000J0D01*
G01*
X37370000Y86325010D01*
G75*
G02*
X37600000Y86095010I0J-230000D01*
G01*
X37600000Y85405010D01*
G75*
G02*
X37370000Y85175010I-230000J0D01*
G01*
X36030000Y85175010D01*
G75*
G02*
X35800000Y85405010I0J230000D01*
G01*
G37*
G36*
G01*
X35800000Y82504990D02*
X35800000Y83194990D01*
G75*
G02*
X36030000Y83424990I230000J0D01*
G01*
X37370000Y83424990D01*
G75*
G02*
X37600000Y83194990I0J-230000D01*
G01*
X37600000Y82504990D01*
G75*
G02*
X37370000Y82274990I-230000J0D01*
G01*
X36030000Y82274990D01*
G75*
G02*
X35800000Y82504990I0J230000D01*
G01*
G37*
X36700000Y81850000D03*
G04 #@! TD*
G04 #@! TO.C,Q13*
G36*
G01*
X49175000Y76800000D02*
X49175000Y76500000D01*
G75*
G02*
X49025000Y76350000I-150000J0D01*
G01*
X47850000Y76350000D01*
G75*
G02*
X47700000Y76500000I0J150000D01*
G01*
X47700000Y76800000D01*
G75*
G02*
X47850000Y76950000I150000J0D01*
G01*
X49025000Y76950000D01*
G75*
G02*
X49175000Y76800000I0J-150000D01*
G01*
G37*
G36*
G01*
X47300000Y77750000D02*
X47300000Y77450000D01*
G75*
G02*
X47150000Y77300000I-150000J0D01*
G01*
X45975000Y77300000D01*
G75*
G02*
X45825000Y77450000I0J150000D01*
G01*
X45825000Y77750000D01*
G75*
G02*
X45975000Y77900000I150000J0D01*
G01*
X47150000Y77900000D01*
G75*
G02*
X47300000Y77750000I0J-150000D01*
G01*
G37*
G36*
G01*
X49175000Y78700000D02*
X49175000Y78400000D01*
G75*
G02*
X49025000Y78250000I-150000J0D01*
G01*
X47850000Y78250000D01*
G75*
G02*
X47700000Y78400000I0J150000D01*
G01*
X47700000Y78700000D01*
G75*
G02*
X47850000Y78850000I150000J0D01*
G01*
X49025000Y78850000D01*
G75*
G02*
X49175000Y78700000I0J-150000D01*
G01*
G37*
G04 #@! TD*
G04 #@! TO.C,D1*
G36*
G01*
X17561499Y80000000D02*
X18041499Y80000000D01*
G75*
G02*
X18101499Y79940000I0J-60000D01*
G01*
X18101499Y79460000D01*
G75*
G02*
X18041499Y79400000I-60000J0D01*
G01*
X17561499Y79400000D01*
G75*
G02*
X17501499Y79460000I0J60000D01*
G01*
X17501499Y79940000D01*
G75*
G02*
X17561499Y80000000I60000J0D01*
G01*
G37*
G36*
G01*
X19761499Y80000000D02*
X20241499Y80000000D01*
G75*
G02*
X20301499Y79940000I0J-60000D01*
G01*
X20301499Y79460000D01*
G75*
G02*
X20241499Y79400000I-60000J0D01*
G01*
X19761499Y79400000D01*
G75*
G02*
X19701499Y79460000I0J60000D01*
G01*
X19701499Y79940000D01*
G75*
G02*
X19761499Y80000000I60000J0D01*
G01*
G37*
G04 #@! TD*
G04 #@! TO.C,D15*
G36*
G01*
X13399998Y84200001D02*
X12499998Y84200001D01*
G75*
G02*
X12399998Y84300001I0J100000D01*
G01*
X12399998Y85100001D01*
G75*
G02*
X12499998Y85200001I100000J0D01*
G01*
X13399998Y85200001D01*
G75*
G02*
X13499998Y85100001I0J-100000D01*
G01*
X13499998Y84300001D01*
G75*
G02*
X13399998Y84200001I-100000J0D01*
G01*
G37*
G36*
G01*
X13399998Y85900001D02*
X12499998Y85900001D01*
G75*
G02*
X12399998Y86000001I0J100000D01*
G01*
X12399998Y86800001D01*
G75*
G02*
X12499998Y86900001I100000J0D01*
G01*
X13399998Y86900001D01*
G75*
G02*
X13499998Y86800001I0J-100000D01*
G01*
X13499998Y86000001D01*
G75*
G02*
X13399998Y85900001I-100000J0D01*
G01*
G37*
G04 #@! TD*
G04 #@! TO.C,R52*
G36*
G01*
X37950000Y13410000D02*
X37950000Y14190000D01*
G75*
G02*
X38020000Y14260000I70000J0D01*
G01*
X38580000Y14260000D01*
G75*
G02*
X38650000Y14190000I0J-70000D01*
G01*
X38650000Y13410000D01*
G75*
G02*
X38580000Y13340000I-70000J0D01*
G01*
X38020000Y13340000D01*
G75*
G02*
X37950000Y13410000I0J70000D01*
G01*
G37*
G36*
G01*
X39550000Y13410000D02*
X39550000Y14190000D01*
G75*
G02*
X39620000Y14260000I70000J0D01*
G01*
X40180000Y14260000D01*
G75*
G02*
X40250000Y14190000I0J-70000D01*
G01*
X40250000Y13410000D01*
G75*
G02*
X40180000Y13340000I-70000J0D01*
G01*
X39620000Y13340000D01*
G75*
G02*
X39550000Y13410000I0J70000D01*
G01*
G37*
G04 #@! TD*
G04 #@! TO.C,D6*
G36*
G01*
X17058502Y102312502D02*
X17538502Y102312502D01*
G75*
G02*
X17598502Y102252502I0J-60000D01*
G01*
X17598502Y101772502D01*
G75*
G02*
X17538502Y101712502I-60000J0D01*
G01*
X17058502Y101712502D01*
G75*
G02*
X16998502Y101772502I0J60000D01*
G01*
X16998502Y102252502D01*
G75*
G02*
X17058502Y102312502I60000J0D01*
G01*
G37*
G36*
G01*
X19258502Y102312502D02*
X19738502Y102312502D01*
G75*
G02*
X19798502Y102252502I0J-60000D01*
G01*
X19798502Y101772502D01*
G75*
G02*
X19738502Y101712502I-60000J0D01*
G01*
X19258502Y101712502D01*
G75*
G02*
X19198502Y101772502I0J60000D01*
G01*
X19198502Y102252502D01*
G75*
G02*
X19258502Y102312502I60000J0D01*
G01*
G37*
G04 #@! TD*
G04 #@! TO.C,J5*
G36*
G01*
X22650000Y13225000D02*
X22650000Y14575000D01*
G75*
G02*
X22900000Y14825000I250000J0D01*
G01*
X24100000Y14825000D01*
G75*
G02*
X24350000Y14575000I0J-250000D01*
G01*
X24350000Y13225000D01*
G75*
G02*
X24100000Y12975000I-250000J0D01*
G01*
X22900000Y12975000D01*
G75*
G02*
X22650000Y13225000I0J250000D01*
G01*
G37*
D12*
X26000000Y13900000D03*
X28500000Y13900000D03*
X31000000Y13900000D03*
X33500000Y13900000D03*
G04 #@! TD*
D13*
G04 #@! TO.C,J6*
X23910000Y6520000D03*
X29690000Y6520000D03*
D14*
X23450000Y7585000D03*
X24250000Y7585000D03*
X25550000Y7585000D03*
X26550000Y7585000D03*
X27050000Y7585000D03*
X28050000Y7585000D03*
X29350000Y7585000D03*
X30150000Y7585000D03*
X29850000Y7585000D03*
X29050000Y7585000D03*
X28550000Y7585000D03*
X27550000Y7585000D03*
X26050000Y7585000D03*
X25050000Y7585000D03*
X24550000Y7585000D03*
X23750000Y7585000D03*
D15*
X22480000Y7020000D03*
D16*
X22480000Y2840000D03*
D15*
X31120000Y7020000D03*
D16*
X31120000Y2840000D03*
G04 #@! TD*
G04 #@! TO.C,Q1*
G36*
G01*
X10637500Y34700000D02*
X10637500Y34400000D01*
G75*
G02*
X10487500Y34250000I-150000J0D01*
G01*
X9312500Y34250000D01*
G75*
G02*
X9162500Y34400000I0J150000D01*
G01*
X9162500Y34700000D01*
G75*
G02*
X9312500Y34850000I150000J0D01*
G01*
X10487500Y34850000D01*
G75*
G02*
X10637500Y34700000I0J-150000D01*
G01*
G37*
G36*
G01*
X8762500Y35650000D02*
X8762500Y35350000D01*
G75*
G02*
X8612500Y35200000I-150000J0D01*
G01*
X7437500Y35200000D01*
G75*
G02*
X7287500Y35350000I0J150000D01*
G01*
X7287500Y35650000D01*
G75*
G02*
X7437500Y35800000I150000J0D01*
G01*
X8612500Y35800000D01*
G75*
G02*
X8762500Y35650000I0J-150000D01*
G01*
G37*
G36*
G01*
X10637500Y36600000D02*
X10637500Y36300000D01*
G75*
G02*
X10487500Y36150000I-150000J0D01*
G01*
X9312500Y36150000D01*
G75*
G02*
X9162500Y36300000I0J150000D01*
G01*
X9162500Y36600000D01*
G75*
G02*
X9312500Y36750000I150000J0D01*
G01*
X10487500Y36750000D01*
G75*
G02*
X10637500Y36600000I0J-150000D01*
G01*
G37*
G04 #@! TD*
G04 #@! TO.C,R24*
G36*
G01*
X8300000Y64994990D02*
X8300000Y64304990D01*
G75*
G02*
X8070000Y64074990I-230000J0D01*
G01*
X6730000Y64074990D01*
G75*
G02*
X6500000Y64304990I0J230000D01*
G01*
X6500000Y64994990D01*
G75*
G02*
X6730000Y65224990I230000J0D01*
G01*
X8070000Y65224990D01*
G75*
G02*
X8300000Y64994990I0J-230000D01*
G01*
G37*
G36*
G01*
X8300000Y67895010D02*
X8300000Y67205010D01*
G75*
G02*
X8070000Y66975010I-230000J0D01*
G01*
X6730000Y66975010D01*
G75*
G02*
X6500000Y67205010I0J230000D01*
G01*
X6500000Y67895010D01*
G75*
G02*
X6730000Y68125010I230000J0D01*
G01*
X8070000Y68125010D01*
G75*
G02*
X8300000Y67895010I0J-230000D01*
G01*
G37*
G04 #@! TD*
G04 #@! TO.C,D12*
G36*
G01*
X13399998Y79000001D02*
X12499998Y79000001D01*
G75*
G02*
X12399998Y79100001I0J100000D01*
G01*
X12399998Y79900001D01*
G75*
G02*
X12499998Y80000001I100000J0D01*
G01*
X13399998Y80000001D01*
G75*
G02*
X13499998Y79900001I0J-100000D01*
G01*
X13499998Y79100001D01*
G75*
G02*
X13399998Y79000001I-100000J0D01*
G01*
G37*
G36*
G01*
X13399998Y80700001D02*
X12499998Y80700001D01*
G75*
G02*
X12399998Y80800001I0J100000D01*
G01*
X12399998Y81600001D01*
G75*
G02*
X12499998Y81700001I100000J0D01*
G01*
X13399998Y81700001D01*
G75*
G02*
X13499998Y81600001I0J-100000D01*
G01*
X13499998Y80800001D01*
G75*
G02*
X13399998Y80700001I-100000J0D01*
G01*
G37*
G04 #@! TD*
D17*
G04 #@! TO.C,P2*
X78100000Y59100000D03*
G04 #@! TD*
G04 #@! TO.C,D22*
G36*
G01*
X17060000Y100500000D02*
X17540000Y100500000D01*
G75*
G02*
X17600000Y100440000I0J-60000D01*
G01*
X17600000Y99960000D01*
G75*
G02*
X17540000Y99900000I-60000J0D01*
G01*
X17060000Y99900000D01*
G75*
G02*
X17000000Y99960000I0J60000D01*
G01*
X17000000Y100440000D01*
G75*
G02*
X17060000Y100500000I60000J0D01*
G01*
G37*
G36*
G01*
X19260000Y100500000D02*
X19740000Y100500000D01*
G75*
G02*
X19800000Y100440000I0J-60000D01*
G01*
X19800000Y99960000D01*
G75*
G02*
X19740000Y99900000I-60000J0D01*
G01*
X19260000Y99900000D01*
G75*
G02*
X19200000Y99960000I0J60000D01*
G01*
X19200000Y100440000D01*
G75*
G02*
X19260000Y100500000I60000J0D01*
G01*
G37*
G04 #@! TD*
G04 #@! TO.C,R32*
G36*
G01*
X58450000Y79290000D02*
X58450000Y78510000D01*
G75*
G02*
X58380000Y78440000I-70000J0D01*
G01*
X57820000Y78440000D01*
G75*
G02*
X57750000Y78510000I0J70000D01*
G01*
X57750000Y79290000D01*
G75*
G02*
X57820000Y79360000I70000J0D01*
G01*
X58380000Y79360000D01*
G75*
G02*
X58450000Y79290000I0J-70000D01*
G01*
G37*
G36*
G01*
X56850000Y79290000D02*
X56850000Y78510000D01*
G75*
G02*
X56780000Y78440000I-70000J0D01*
G01*
X56220000Y78440000D01*
G75*
G02*
X56150000Y78510000I0J70000D01*
G01*
X56150000Y79290000D01*
G75*
G02*
X56220000Y79360000I70000J0D01*
G01*
X56780000Y79360000D01*
G75*
G02*
X56850000Y79290000I0J-70000D01*
G01*
G37*
G04 #@! TD*
G04 #@! TO.C,D11*
G36*
G01*
X13399998Y94600001D02*
X12499998Y94600001D01*
G75*
G02*
X12399998Y94700001I0J100000D01*
G01*
X12399998Y95500001D01*
G75*
G02*
X12499998Y95600001I100000J0D01*
G01*
X13399998Y95600001D01*
G75*
G02*
X13499998Y95500001I0J-100000D01*
G01*
X13499998Y94700001D01*
G75*
G02*
X13399998Y94600001I-100000J0D01*
G01*
G37*
G36*
G01*
X13399998Y96300001D02*
X12499998Y96300001D01*
G75*
G02*
X12399998Y96400001I0J100000D01*
G01*
X12399998Y97200001D01*
G75*
G02*
X12499998Y97300001I100000J0D01*
G01*
X13399998Y97300001D01*
G75*
G02*
X13499998Y97200001I0J-100000D01*
G01*
X13499998Y96400001D01*
G75*
G02*
X13399998Y96300001I-100000J0D01*
G01*
G37*
G04 #@! TD*
D11*
G04 #@! TO.C,R11*
X24500000Y82895000D03*
G36*
G01*
X25125000Y83349999D02*
X23875000Y83349999D01*
G75*
G02*
X23775000Y83449999I0J100000D01*
G01*
X23775000Y84249999D01*
G75*
G02*
X23875000Y84349999I100000J0D01*
G01*
X25125000Y84349999D01*
G75*
G02*
X25225000Y84249999I0J-100000D01*
G01*
X25225000Y83449999D01*
G75*
G02*
X25125000Y83349999I-100000J0D01*
G01*
G37*
G36*
G01*
X25125000Y85250021D02*
X23875000Y85250021D01*
G75*
G02*
X23775000Y85350021I0J100000D01*
G01*
X23775000Y86150021D01*
G75*
G02*
X23875000Y86250021I100000J0D01*
G01*
X25125000Y86250021D01*
G75*
G02*
X25225000Y86150021I0J-100000D01*
G01*
X25225000Y85350021D01*
G75*
G02*
X25125000Y85250021I-100000J0D01*
G01*
G37*
X24500000Y86705000D03*
G04 #@! TD*
G04 #@! TO.C,R6*
X74305000Y103400000D03*
G36*
G01*
X73850001Y104025000D02*
X73850001Y102775000D01*
G75*
G02*
X73750001Y102675000I-100000J0D01*
G01*
X72950001Y102675000D01*
G75*
G02*
X72850001Y102775000I0J100000D01*
G01*
X72850001Y104025000D01*
G75*
G02*
X72950001Y104125000I100000J0D01*
G01*
X73750001Y104125000D01*
G75*
G02*
X73850001Y104025000I0J-100000D01*
G01*
G37*
G36*
G01*
X71949979Y104025000D02*
X71949979Y102775000D01*
G75*
G02*
X71849979Y102675000I-100000J0D01*
G01*
X71049979Y102675000D01*
G75*
G02*
X70949979Y102775000I0J100000D01*
G01*
X70949979Y104025000D01*
G75*
G02*
X71049979Y104125000I100000J0D01*
G01*
X71849979Y104125000D01*
G75*
G02*
X71949979Y104025000I0J-100000D01*
G01*
G37*
X70495000Y103400000D03*
G04 #@! TD*
D18*
G04 #@! TO.C,J1*
X63125000Y55900000D03*
X63125000Y73900000D03*
G36*
G01*
X59684999Y58150000D02*
X58685001Y58150000D01*
G75*
G02*
X58435000Y58400001I0J250001D01*
G01*
X58435000Y59399999D01*
G75*
G02*
X58685001Y59650000I250001J0D01*
G01*
X59684999Y59650000D01*
G75*
G02*
X59935000Y59399999I0J-250001D01*
G01*
X59935000Y58400001D01*
G75*
G02*
X59684999Y58150000I-250001J0D01*
G01*
G37*
D19*
X59185000Y61900000D03*
X59185000Y64900000D03*
X59185000Y67900000D03*
X59185000Y70900000D03*
X62185000Y58900000D03*
X62185000Y61900000D03*
X62185000Y64900000D03*
X62185000Y67900000D03*
X62185000Y70900000D03*
G04 #@! TD*
G04 #@! TO.C,R36*
G36*
G01*
X11522072Y55654980D02*
X11522072Y54964980D01*
G75*
G02*
X11292072Y54734980I-230000J0D01*
G01*
X9952072Y54734980D01*
G75*
G02*
X9722072Y54964980I0J230000D01*
G01*
X9722072Y55654980D01*
G75*
G02*
X9952072Y55884980I230000J0D01*
G01*
X11292072Y55884980D01*
G75*
G02*
X11522072Y55654980I0J-230000D01*
G01*
G37*
G36*
G01*
X11522072Y58555000D02*
X11522072Y57865000D01*
G75*
G02*
X11292072Y57635000I-230000J0D01*
G01*
X9952072Y57635000D01*
G75*
G02*
X9722072Y57865000I0J230000D01*
G01*
X9722072Y58555000D01*
G75*
G02*
X9952072Y58785000I230000J0D01*
G01*
X11292072Y58785000D01*
G75*
G02*
X11522072Y58555000I0J-230000D01*
G01*
G37*
G04 #@! TD*
G04 #@! TO.C,R39*
G36*
G01*
X52150000Y63110000D02*
X52150000Y63890000D01*
G75*
G02*
X52220000Y63960000I70000J0D01*
G01*
X52780000Y63960000D01*
G75*
G02*
X52850000Y63890000I0J-70000D01*
G01*
X52850000Y63110000D01*
G75*
G02*
X52780000Y63040000I-70000J0D01*
G01*
X52220000Y63040000D01*
G75*
G02*
X52150000Y63110000I0J70000D01*
G01*
G37*
G36*
G01*
X53750000Y63110000D02*
X53750000Y63890000D01*
G75*
G02*
X53820000Y63960000I70000J0D01*
G01*
X54380000Y63960000D01*
G75*
G02*
X54450000Y63890000I0J-70000D01*
G01*
X54450000Y63110000D01*
G75*
G02*
X54380000Y63040000I-70000J0D01*
G01*
X53820000Y63040000D01*
G75*
G02*
X53750000Y63110000I0J70000D01*
G01*
G37*
G04 #@! TD*
G04 #@! TO.C,R64*
G36*
G01*
X19210000Y46600000D02*
X19990000Y46600000D01*
G75*
G02*
X20060000Y46530000I0J-70000D01*
G01*
X20060000Y45970000D01*
G75*
G02*
X19990000Y45900000I-70000J0D01*
G01*
X19210000Y45900000D01*
G75*
G02*
X19140000Y45970000I0J70000D01*
G01*
X19140000Y46530000D01*
G75*
G02*
X19210000Y46600000I70000J0D01*
G01*
G37*
G36*
G01*
X19210000Y45000000D02*
X19990000Y45000000D01*
G75*
G02*
X20060000Y44930000I0J-70000D01*
G01*
X20060000Y44370000D01*
G75*
G02*
X19990000Y44300000I-70000J0D01*
G01*
X19210000Y44300000D01*
G75*
G02*
X19140000Y44370000I0J70000D01*
G01*
X19140000Y44930000D01*
G75*
G02*
X19210000Y45000000I70000J0D01*
G01*
G37*
G04 #@! TD*
G04 #@! TO.C,Q4*
G36*
G01*
X8300000Y54375000D02*
X8600000Y54375000D01*
G75*
G02*
X8750000Y54225000I0J-150000D01*
G01*
X8750000Y53050000D01*
G75*
G02*
X8600000Y52900000I-150000J0D01*
G01*
X8300000Y52900000D01*
G75*
G02*
X8150000Y53050000I0J150000D01*
G01*
X8150000Y54225000D01*
G75*
G02*
X8300000Y54375000I150000J0D01*
G01*
G37*
G36*
G01*
X7350000Y52500000D02*
X7650000Y52500000D01*
G75*
G02*
X7800000Y52350000I0J-150000D01*
G01*
X7800000Y51175000D01*
G75*
G02*
X7650000Y51025000I-150000J0D01*
G01*
X7350000Y51025000D01*
G75*
G02*
X7200000Y51175000I0J150000D01*
G01*
X7200000Y52350000D01*
G75*
G02*
X7350000Y52500000I150000J0D01*
G01*
G37*
G36*
G01*
X6400000Y54375000D02*
X6700000Y54375000D01*
G75*
G02*
X6850000Y54225000I0J-150000D01*
G01*
X6850000Y53050000D01*
G75*
G02*
X6700000Y52900000I-150000J0D01*
G01*
X6400000Y52900000D01*
G75*
G02*
X6250000Y53050000I0J150000D01*
G01*
X6250000Y54225000D01*
G75*
G02*
X6400000Y54375000I150000J0D01*
G01*
G37*
G04 #@! TD*
G04 #@! TO.C,R30*
G36*
G01*
X14550000Y51110000D02*
X14550000Y51890000D01*
G75*
G02*
X14620000Y51960000I70000J0D01*
G01*
X15180000Y51960000D01*
G75*
G02*
X15250000Y51890000I0J-70000D01*
G01*
X15250000Y51110000D01*
G75*
G02*
X15180000Y51040000I-70000J0D01*
G01*
X14620000Y51040000D01*
G75*
G02*
X14550000Y51110000I0J70000D01*
G01*
G37*
G36*
G01*
X16150000Y51110000D02*
X16150000Y51890000D01*
G75*
G02*
X16220000Y51960000I70000J0D01*
G01*
X16780000Y51960000D01*
G75*
G02*
X16850000Y51890000I0J-70000D01*
G01*
X16850000Y51110000D01*
G75*
G02*
X16780000Y51040000I-70000J0D01*
G01*
X16220000Y51040000D01*
G75*
G02*
X16150000Y51110000I0J70000D01*
G01*
G37*
G04 #@! TD*
G04 #@! TO.C,Q15*
G36*
G01*
X11800000Y54375000D02*
X12100000Y54375000D01*
G75*
G02*
X12250000Y54225000I0J-150000D01*
G01*
X12250000Y53050000D01*
G75*
G02*
X12100000Y52900000I-150000J0D01*
G01*
X11800000Y52900000D01*
G75*
G02*
X11650000Y53050000I0J150000D01*
G01*
X11650000Y54225000D01*
G75*
G02*
X11800000Y54375000I150000J0D01*
G01*
G37*
G36*
G01*
X10850000Y52500000D02*
X11150000Y52500000D01*
G75*
G02*
X11300000Y52350000I0J-150000D01*
G01*
X11300000Y51175000D01*
G75*
G02*
X11150000Y51025000I-150000J0D01*
G01*
X10850000Y51025000D01*
G75*
G02*
X10700000Y51175000I0J150000D01*
G01*
X10700000Y52350000D01*
G75*
G02*
X10850000Y52500000I150000J0D01*
G01*
G37*
G36*
G01*
X9900000Y54375000D02*
X10200000Y54375000D01*
G75*
G02*
X10350000Y54225000I0J-150000D01*
G01*
X10350000Y53050000D01*
G75*
G02*
X10200000Y52900000I-150000J0D01*
G01*
X9900000Y52900000D01*
G75*
G02*
X9750000Y53050000I0J150000D01*
G01*
X9750000Y54225000D01*
G75*
G02*
X9900000Y54375000I150000J0D01*
G01*
G37*
G04 #@! TD*
D11*
G04 #@! TO.C,R17*
X38900000Y82895000D03*
G36*
G01*
X39525000Y83349999D02*
X38275000Y83349999D01*
G75*
G02*
X38175000Y83449999I0J100000D01*
G01*
X38175000Y84249999D01*
G75*
G02*
X38275000Y84349999I100000J0D01*
G01*
X39525000Y84349999D01*
G75*
G02*
X39625000Y84249999I0J-100000D01*
G01*
X39625000Y83449999D01*
G75*
G02*
X39525000Y83349999I-100000J0D01*
G01*
G37*
G36*
G01*
X39525000Y85250021D02*
X38275000Y85250021D01*
G75*
G02*
X38175000Y85350021I0J100000D01*
G01*
X38175000Y86150021D01*
G75*
G02*
X38275000Y86250021I100000J0D01*
G01*
X39525000Y86250021D01*
G75*
G02*
X39625000Y86150021I0J-100000D01*
G01*
X39625000Y85350021D01*
G75*
G02*
X39525000Y85250021I-100000J0D01*
G01*
G37*
X38900000Y86705000D03*
G04 #@! TD*
G04 #@! TO.C,C6*
G36*
G01*
X8415001Y40940000D02*
X8415001Y40260000D01*
G75*
G02*
X8330001Y40175000I-85000J0D01*
G01*
X7650001Y40175000D01*
G75*
G02*
X7565001Y40260000I0J85000D01*
G01*
X7565001Y40940000D01*
G75*
G02*
X7650001Y41025000I85000J0D01*
G01*
X8330001Y41025000D01*
G75*
G02*
X8415001Y40940000I0J-85000D01*
G01*
G37*
G36*
G01*
X6834999Y40940000D02*
X6834999Y40260000D01*
G75*
G02*
X6749999Y40175000I-85000J0D01*
G01*
X6069999Y40175000D01*
G75*
G02*
X5984999Y40260000I0J85000D01*
G01*
X5984999Y40940000D01*
G75*
G02*
X6069999Y41025000I85000J0D01*
G01*
X6749999Y41025000D01*
G75*
G02*
X6834999Y40940000I0J-85000D01*
G01*
G37*
G04 #@! TD*
G04 #@! TO.C,R33*
G36*
G01*
X43990000Y77450000D02*
X43210000Y77450000D01*
G75*
G02*
X43140000Y77520000I0J70000D01*
G01*
X43140000Y78080000D01*
G75*
G02*
X43210000Y78150000I70000J0D01*
G01*
X43990000Y78150000D01*
G75*
G02*
X44060000Y78080000I0J-70000D01*
G01*
X44060000Y77520000D01*
G75*
G02*
X43990000Y77450000I-70000J0D01*
G01*
G37*
G36*
G01*
X43990000Y79050000D02*
X43210000Y79050000D01*
G75*
G02*
X43140000Y79120000I0J70000D01*
G01*
X43140000Y79680000D01*
G75*
G02*
X43210000Y79750000I70000J0D01*
G01*
X43990000Y79750000D01*
G75*
G02*
X44060000Y79680000I0J-70000D01*
G01*
X44060000Y79120000D01*
G75*
G02*
X43990000Y79050000I-70000J0D01*
G01*
G37*
G04 #@! TD*
D20*
G04 #@! TO.C,M8*
X72877495Y726666D03*
D21*
X62527501Y776664D03*
X63027502Y776664D03*
D22*
X69577499Y1826662D03*
X68702497Y2351662D03*
X69877501Y3101660D03*
X69802498Y6651661D03*
G04 #@! TD*
G04 #@! TO.C,R63*
G36*
G01*
X21310000Y42300000D02*
X22090000Y42300000D01*
G75*
G02*
X22160000Y42230000I0J-70000D01*
G01*
X22160000Y41670000D01*
G75*
G02*
X22090000Y41600000I-70000J0D01*
G01*
X21310000Y41600000D01*
G75*
G02*
X21240000Y41670000I0J70000D01*
G01*
X21240000Y42230000D01*
G75*
G02*
X21310000Y42300000I70000J0D01*
G01*
G37*
G36*
G01*
X21310000Y40700000D02*
X22090000Y40700000D01*
G75*
G02*
X22160000Y40630000I0J-70000D01*
G01*
X22160000Y40070000D01*
G75*
G02*
X22090000Y40000000I-70000J0D01*
G01*
X21310000Y40000000D01*
G75*
G02*
X21240000Y40070000I0J70000D01*
G01*
X21240000Y40630000D01*
G75*
G02*
X21310000Y40700000I70000J0D01*
G01*
G37*
G04 #@! TD*
D11*
G04 #@! TO.C,F6*
X66600010Y64700000D03*
G36*
G01*
X67945000Y63800000D02*
X67255000Y63800000D01*
G75*
G02*
X67025000Y64030000I0J230000D01*
G01*
X67025000Y65370000D01*
G75*
G02*
X67255000Y65600000I230000J0D01*
G01*
X67945000Y65600000D01*
G75*
G02*
X68175000Y65370000I0J-230000D01*
G01*
X68175000Y64030000D01*
G75*
G02*
X67945000Y63800000I-230000J0D01*
G01*
G37*
G36*
G01*
X70845020Y63800000D02*
X70155020Y63800000D01*
G75*
G02*
X69925020Y64030000I0J230000D01*
G01*
X69925020Y65370000D01*
G75*
G02*
X70155020Y65600000I230000J0D01*
G01*
X70845020Y65600000D01*
G75*
G02*
X71075020Y65370000I0J-230000D01*
G01*
X71075020Y64030000D01*
G75*
G02*
X70845020Y63800000I-230000J0D01*
G01*
G37*
X71500010Y64700000D03*
G04 #@! TD*
G04 #@! TO.C,R34*
G36*
G01*
X8300000Y55694990D02*
X8300000Y55004990D01*
G75*
G02*
X8070000Y54774990I-230000J0D01*
G01*
X6730000Y54774990D01*
G75*
G02*
X6500000Y55004990I0J230000D01*
G01*
X6500000Y55694990D01*
G75*
G02*
X6730000Y55924990I230000J0D01*
G01*
X8070000Y55924990D01*
G75*
G02*
X8300000Y55694990I0J-230000D01*
G01*
G37*
G36*
G01*
X8300000Y58595010D02*
X8300000Y57905010D01*
G75*
G02*
X8070000Y57675010I-230000J0D01*
G01*
X6730000Y57675010D01*
G75*
G02*
X6500000Y57905010I0J230000D01*
G01*
X6500000Y58595010D01*
G75*
G02*
X6730000Y58825010I230000J0D01*
G01*
X8070000Y58825010D01*
G75*
G02*
X8300000Y58595010I0J-230000D01*
G01*
G37*
G04 #@! TD*
G04 #@! TO.C,D26*
G36*
G01*
X5690000Y37465000D02*
X6710000Y37465000D01*
G75*
G02*
X6800000Y37375000I0J-90000D01*
G01*
X6800000Y36655000D01*
G75*
G02*
X6710000Y36565000I-90000J0D01*
G01*
X5690000Y36565000D01*
G75*
G02*
X5600000Y36655000I0J90000D01*
G01*
X5600000Y37375000D01*
G75*
G02*
X5690000Y37465000I90000J0D01*
G01*
G37*
G36*
G01*
X5690000Y34165000D02*
X6710000Y34165000D01*
G75*
G02*
X6800000Y34075000I0J-90000D01*
G01*
X6800000Y33355000D01*
G75*
G02*
X6710000Y33265000I-90000J0D01*
G01*
X5690000Y33265000D01*
G75*
G02*
X5600000Y33355000I0J90000D01*
G01*
X5600000Y34075000D01*
G75*
G02*
X5690000Y34165000I90000J0D01*
G01*
G37*
G04 #@! TD*
G04 #@! TO.C,Q22*
G36*
G01*
X22475000Y50900000D02*
X22475000Y50600000D01*
G75*
G02*
X22325000Y50450000I-150000J0D01*
G01*
X21150000Y50450000D01*
G75*
G02*
X21000000Y50600000I0J150000D01*
G01*
X21000000Y50900000D01*
G75*
G02*
X21150000Y51050000I150000J0D01*
G01*
X22325000Y51050000D01*
G75*
G02*
X22475000Y50900000I0J-150000D01*
G01*
G37*
G36*
G01*
X20600000Y51850000D02*
X20600000Y51550000D01*
G75*
G02*
X20450000Y51400000I-150000J0D01*
G01*
X19275000Y51400000D01*
G75*
G02*
X19125000Y51550000I0J150000D01*
G01*
X19125000Y51850000D01*
G75*
G02*
X19275000Y52000000I150000J0D01*
G01*
X20450000Y52000000D01*
G75*
G02*
X20600000Y51850000I0J-150000D01*
G01*
G37*
G36*
G01*
X22475000Y52800000D02*
X22475000Y52500000D01*
G75*
G02*
X22325000Y52350000I-150000J0D01*
G01*
X21150000Y52350000D01*
G75*
G02*
X21000000Y52500000I0J150000D01*
G01*
X21000000Y52800000D01*
G75*
G02*
X21150000Y52950000I150000J0D01*
G01*
X22325000Y52950000D01*
G75*
G02*
X22475000Y52800000I0J-150000D01*
G01*
G37*
G04 #@! TD*
G04 #@! TO.C,R16*
X45400000Y82895000D03*
G36*
G01*
X46025000Y83349999D02*
X44775000Y83349999D01*
G75*
G02*
X44675000Y83449999I0J100000D01*
G01*
X44675000Y84249999D01*
G75*
G02*
X44775000Y84349999I100000J0D01*
G01*
X46025000Y84349999D01*
G75*
G02*
X46125000Y84249999I0J-100000D01*
G01*
X46125000Y83449999D01*
G75*
G02*
X46025000Y83349999I-100000J0D01*
G01*
G37*
G36*
G01*
X46025000Y85250021D02*
X44775000Y85250021D01*
G75*
G02*
X44675000Y85350021I0J100000D01*
G01*
X44675000Y86150021D01*
G75*
G02*
X44775000Y86250021I100000J0D01*
G01*
X46025000Y86250021D01*
G75*
G02*
X46125000Y86150021I0J-100000D01*
G01*
X46125000Y85350021D01*
G75*
G02*
X46025000Y85250021I-100000J0D01*
G01*
G37*
X45400000Y86705000D03*
G04 #@! TD*
G04 #@! TO.C,R45*
G36*
G01*
X48750000Y60110000D02*
X48750000Y60890000D01*
G75*
G02*
X48820000Y60960000I70000J0D01*
G01*
X49380000Y60960000D01*
G75*
G02*
X49450000Y60890000I0J-70000D01*
G01*
X49450000Y60110000D01*
G75*
G02*
X49380000Y60040000I-70000J0D01*
G01*
X48820000Y60040000D01*
G75*
G02*
X48750000Y60110000I0J70000D01*
G01*
G37*
G36*
G01*
X50350000Y60110000D02*
X50350000Y60890000D01*
G75*
G02*
X50420000Y60960000I70000J0D01*
G01*
X50980000Y60960000D01*
G75*
G02*
X51050000Y60890000I0J-70000D01*
G01*
X51050000Y60110000D01*
G75*
G02*
X50980000Y60040000I-70000J0D01*
G01*
X50420000Y60040000D01*
G75*
G02*
X50350000Y60110000I0J70000D01*
G01*
G37*
G04 #@! TD*
G04 #@! TO.C,D9*
G36*
G01*
X8999998Y79000001D02*
X8099998Y79000001D01*
G75*
G02*
X7999998Y79100001I0J100000D01*
G01*
X7999998Y79900001D01*
G75*
G02*
X8099998Y80000001I100000J0D01*
G01*
X8999998Y80000001D01*
G75*
G02*
X9099998Y79900001I0J-100000D01*
G01*
X9099998Y79100001D01*
G75*
G02*
X8999998Y79000001I-100000J0D01*
G01*
G37*
G36*
G01*
X8999998Y80700001D02*
X8099998Y80700001D01*
G75*
G02*
X7999998Y80800001I0J100000D01*
G01*
X7999998Y81600001D01*
G75*
G02*
X8099998Y81700001I100000J0D01*
G01*
X8999998Y81700001D01*
G75*
G02*
X9099998Y81600001I0J-100000D01*
G01*
X9099998Y80800001D01*
G75*
G02*
X8999998Y80700001I-100000J0D01*
G01*
G37*
G04 #@! TD*
G04 #@! TO.C,R71*
G36*
G01*
X20760000Y46600000D02*
X21540000Y46600000D01*
G75*
G02*
X21610000Y46530000I0J-70000D01*
G01*
X21610000Y45970000D01*
G75*
G02*
X21540000Y45900000I-70000J0D01*
G01*
X20760000Y45900000D01*
G75*
G02*
X20690000Y45970000I0J70000D01*
G01*
X20690000Y46530000D01*
G75*
G02*
X20760000Y46600000I70000J0D01*
G01*
G37*
G36*
G01*
X20760000Y45000000D02*
X21540000Y45000000D01*
G75*
G02*
X21610000Y44930000I0J-70000D01*
G01*
X21610000Y44370000D01*
G75*
G02*
X21540000Y44300000I-70000J0D01*
G01*
X20760000Y44300000D01*
G75*
G02*
X20690000Y44370000I0J70000D01*
G01*
X20690000Y44930000D01*
G75*
G02*
X20760000Y45000000I70000J0D01*
G01*
G37*
G04 #@! TD*
D17*
G04 #@! TO.C,P3*
X60400000Y1900000D03*
G04 #@! TD*
G04 #@! TO.C,D8*
G36*
G01*
X19640000Y91406000D02*
X19160000Y91406000D01*
G75*
G02*
X19100000Y91466000I0J60000D01*
G01*
X19100000Y91946000D01*
G75*
G02*
X19160000Y92006000I60000J0D01*
G01*
X19640000Y92006000D01*
G75*
G02*
X19700000Y91946000I0J-60000D01*
G01*
X19700000Y91466000D01*
G75*
G02*
X19640000Y91406000I-60000J0D01*
G01*
G37*
G36*
G01*
X17440000Y91406000D02*
X16960000Y91406000D01*
G75*
G02*
X16900000Y91466000I0J60000D01*
G01*
X16900000Y91946000D01*
G75*
G02*
X16960000Y92006000I60000J0D01*
G01*
X17440000Y92006000D01*
G75*
G02*
X17500000Y91946000I0J-60000D01*
G01*
X17500000Y91466000D01*
G75*
G02*
X17440000Y91406000I-60000J0D01*
G01*
G37*
G04 #@! TD*
G04 #@! TO.C,D14*
G36*
G01*
X8999998Y99800001D02*
X8099998Y99800001D01*
G75*
G02*
X7999998Y99900001I0J100000D01*
G01*
X7999998Y100700001D01*
G75*
G02*
X8099998Y100800001I100000J0D01*
G01*
X8999998Y100800001D01*
G75*
G02*
X9099998Y100700001I0J-100000D01*
G01*
X9099998Y99900001D01*
G75*
G02*
X8999998Y99800001I-100000J0D01*
G01*
G37*
G36*
G01*
X8999998Y101500001D02*
X8099998Y101500001D01*
G75*
G02*
X7999998Y101600001I0J100000D01*
G01*
X7999998Y102400001D01*
G75*
G02*
X8099998Y102500001I100000J0D01*
G01*
X8999998Y102500001D01*
G75*
G02*
X9099998Y102400001I0J-100000D01*
G01*
X9099998Y101600001D01*
G75*
G02*
X8999998Y101500001I-100000J0D01*
G01*
G37*
G04 #@! TD*
D19*
G04 #@! TO.C,M1*
X32074999Y55675006D03*
X25675002Y55675006D03*
X23774999Y55675006D03*
X19474999Y55675006D03*
D23*
X17075002Y55225007D03*
X16075001Y55225007D03*
D19*
X13224999Y55675006D03*
X32525001Y71175003D03*
X30675002Y71175003D03*
X25724999Y71175003D03*
X13675001Y71175003D03*
G04 #@! TD*
G04 #@! TO.C,R47*
G36*
G01*
X16550000Y47915000D02*
X16550000Y47135000D01*
G75*
G02*
X16480000Y47065000I-70000J0D01*
G01*
X15920000Y47065000D01*
G75*
G02*
X15850000Y47135000I0J70000D01*
G01*
X15850000Y47915000D01*
G75*
G02*
X15920000Y47985000I70000J0D01*
G01*
X16480000Y47985000D01*
G75*
G02*
X16550000Y47915000I0J-70000D01*
G01*
G37*
G36*
G01*
X14950000Y47915000D02*
X14950000Y47135000D01*
G75*
G02*
X14880000Y47065000I-70000J0D01*
G01*
X14320000Y47065000D01*
G75*
G02*
X14250000Y47135000I0J70000D01*
G01*
X14250000Y47915000D01*
G75*
G02*
X14320000Y47985000I70000J0D01*
G01*
X14880000Y47985000D01*
G75*
G02*
X14950000Y47915000I0J-70000D01*
G01*
G37*
G04 #@! TD*
G04 #@! TO.C,R35*
G36*
G01*
X11550000Y69494990D02*
X11550000Y68804990D01*
G75*
G02*
X11320000Y68574990I-230000J0D01*
G01*
X9980000Y68574990D01*
G75*
G02*
X9750000Y68804990I0J230000D01*
G01*
X9750000Y69494990D01*
G75*
G02*
X9980000Y69724990I230000J0D01*
G01*
X11320000Y69724990D01*
G75*
G02*
X11550000Y69494990I0J-230000D01*
G01*
G37*
G36*
G01*
X11550000Y72395010D02*
X11550000Y71705010D01*
G75*
G02*
X11320000Y71475010I-230000J0D01*
G01*
X9980000Y71475010D01*
G75*
G02*
X9750000Y71705010I0J230000D01*
G01*
X9750000Y72395010D01*
G75*
G02*
X9980000Y72625010I230000J0D01*
G01*
X11320000Y72625010D01*
G75*
G02*
X11550000Y72395010I0J-230000D01*
G01*
G37*
G04 #@! TD*
D17*
G04 #@! TO.C,P5*
X56400000Y10900000D03*
G04 #@! TD*
G04 #@! TO.C,Q14*
G36*
G01*
X51287500Y76900000D02*
X51287500Y77200000D01*
G75*
G02*
X51437500Y77350000I150000J0D01*
G01*
X52612500Y77350000D01*
G75*
G02*
X52762500Y77200000I0J-150000D01*
G01*
X52762500Y76900000D01*
G75*
G02*
X52612500Y76750000I-150000J0D01*
G01*
X51437500Y76750000D01*
G75*
G02*
X51287500Y76900000I0J150000D01*
G01*
G37*
G36*
G01*
X53162500Y75950000D02*
X53162500Y76250000D01*
G75*
G02*
X53312500Y76400000I150000J0D01*
G01*
X54487500Y76400000D01*
G75*
G02*
X54637500Y76250000I0J-150000D01*
G01*
X54637500Y75950000D01*
G75*
G02*
X54487500Y75800000I-150000J0D01*
G01*
X53312500Y75800000D01*
G75*
G02*
X53162500Y75950000I0J150000D01*
G01*
G37*
G36*
G01*
X51287500Y75000000D02*
X51287500Y75300000D01*
G75*
G02*
X51437500Y75450000I150000J0D01*
G01*
X52612500Y75450000D01*
G75*
G02*
X52762500Y75300000I0J-150000D01*
G01*
X52762500Y75000000D01*
G75*
G02*
X52612500Y74850000I-150000J0D01*
G01*
X51437500Y74850000D01*
G75*
G02*
X51287500Y75000000I0J150000D01*
G01*
G37*
G04 #@! TD*
G04 #@! TO.C,D16*
G36*
G01*
X13399998Y89400001D02*
X12499998Y89400001D01*
G75*
G02*
X12399998Y89500001I0J100000D01*
G01*
X12399998Y90300001D01*
G75*
G02*
X12499998Y90400001I100000J0D01*
G01*
X13399998Y90400001D01*
G75*
G02*
X13499998Y90300001I0J-100000D01*
G01*
X13499998Y89500001D01*
G75*
G02*
X13399998Y89400001I-100000J0D01*
G01*
G37*
G36*
G01*
X13399998Y91100001D02*
X12499998Y91100001D01*
G75*
G02*
X12399998Y91200001I0J100000D01*
G01*
X12399998Y92000001D01*
G75*
G02*
X12499998Y92100001I100000J0D01*
G01*
X13399998Y92100001D01*
G75*
G02*
X13499998Y92000001I0J-100000D01*
G01*
X13499998Y91200001D01*
G75*
G02*
X13399998Y91100001I-100000J0D01*
G01*
G37*
G04 #@! TD*
G04 #@! TO.C,J10*
X66375000Y56800000D03*
G04 #@! TD*
D23*
G04 #@! TO.C,M3*
X41925000Y58675000D03*
X40725000Y58675000D03*
X43125000Y58675000D03*
X44325000Y58675000D03*
X37865000Y73100000D03*
X36865000Y73100000D03*
G04 #@! TD*
G04 #@! TO.C,R23*
G36*
G01*
X11550000Y60094990D02*
X11550000Y59404990D01*
G75*
G02*
X11320000Y59174990I-230000J0D01*
G01*
X9980000Y59174990D01*
G75*
G02*
X9750000Y59404990I0J230000D01*
G01*
X9750000Y60094990D01*
G75*
G02*
X9980000Y60324990I230000J0D01*
G01*
X11320000Y60324990D01*
G75*
G02*
X11550000Y60094990I0J-230000D01*
G01*
G37*
G36*
G01*
X11550000Y62995010D02*
X11550000Y62305010D01*
G75*
G02*
X11320000Y62075010I-230000J0D01*
G01*
X9980000Y62075010D01*
G75*
G02*
X9750000Y62305010I0J230000D01*
G01*
X9750000Y62995010D01*
G75*
G02*
X9980000Y63225010I230000J0D01*
G01*
X11320000Y63225010D01*
G75*
G02*
X11550000Y62995010I0J-230000D01*
G01*
G37*
G04 #@! TD*
D11*
G04 #@! TO.C,R10*
X43300000Y82895000D03*
G36*
G01*
X43925000Y83349999D02*
X42675000Y83349999D01*
G75*
G02*
X42575000Y83449999I0J100000D01*
G01*
X42575000Y84249999D01*
G75*
G02*
X42675000Y84349999I100000J0D01*
G01*
X43925000Y84349999D01*
G75*
G02*
X44025000Y84249999I0J-100000D01*
G01*
X44025000Y83449999D01*
G75*
G02*
X43925000Y83349999I-100000J0D01*
G01*
G37*
G36*
G01*
X43925000Y85250021D02*
X42675000Y85250021D01*
G75*
G02*
X42575000Y85350021I0J100000D01*
G01*
X42575000Y86150021D01*
G75*
G02*
X42675000Y86250021I100000J0D01*
G01*
X43925000Y86250021D01*
G75*
G02*
X44025000Y86150021I0J-100000D01*
G01*
X44025000Y85350021D01*
G75*
G02*
X43925000Y85250021I-100000J0D01*
G01*
G37*
X43300000Y86705000D03*
G04 #@! TD*
G04 #@! TO.C,D19*
G36*
G01*
X77910000Y97600000D02*
X76890000Y97600000D01*
G75*
G02*
X76800000Y97690000I0J90000D01*
G01*
X76800000Y98410000D01*
G75*
G02*
X76890000Y98500000I90000J0D01*
G01*
X77910000Y98500000D01*
G75*
G02*
X78000000Y98410000I0J-90000D01*
G01*
X78000000Y97690000D01*
G75*
G02*
X77910000Y97600000I-90000J0D01*
G01*
G37*
G36*
G01*
X77910000Y100900000D02*
X76890000Y100900000D01*
G75*
G02*
X76800000Y100990000I0J90000D01*
G01*
X76800000Y101710000D01*
G75*
G02*
X76890000Y101800000I90000J0D01*
G01*
X77910000Y101800000D01*
G75*
G02*
X78000000Y101710000I0J-90000D01*
G01*
X78000000Y100990000D01*
G75*
G02*
X77910000Y100900000I-90000J0D01*
G01*
G37*
G04 #@! TD*
G04 #@! TO.C,D21*
G36*
G01*
X17438000Y93784000D02*
X17918000Y93784000D01*
G75*
G02*
X17978000Y93724000I0J-60000D01*
G01*
X17978000Y93244000D01*
G75*
G02*
X17918000Y93184000I-60000J0D01*
G01*
X17438000Y93184000D01*
G75*
G02*
X17378000Y93244000I0J60000D01*
G01*
X17378000Y93724000D01*
G75*
G02*
X17438000Y93784000I60000J0D01*
G01*
G37*
G36*
G01*
X19638000Y93784000D02*
X20118000Y93784000D01*
G75*
G02*
X20178000Y93724000I0J-60000D01*
G01*
X20178000Y93244000D01*
G75*
G02*
X20118000Y93184000I-60000J0D01*
G01*
X19638000Y93184000D01*
G75*
G02*
X19578000Y93244000I0J60000D01*
G01*
X19578000Y93724000D01*
G75*
G02*
X19638000Y93784000I60000J0D01*
G01*
G37*
G04 #@! TD*
G04 #@! TO.C,R42*
G36*
G01*
X52150000Y57110000D02*
X52150000Y57890000D01*
G75*
G02*
X52220000Y57960000I70000J0D01*
G01*
X52780000Y57960000D01*
G75*
G02*
X52850000Y57890000I0J-70000D01*
G01*
X52850000Y57110000D01*
G75*
G02*
X52780000Y57040000I-70000J0D01*
G01*
X52220000Y57040000D01*
G75*
G02*
X52150000Y57110000I0J70000D01*
G01*
G37*
G36*
G01*
X53750000Y57110000D02*
X53750000Y57890000D01*
G75*
G02*
X53820000Y57960000I70000J0D01*
G01*
X54380000Y57960000D01*
G75*
G02*
X54450000Y57890000I0J-70000D01*
G01*
X54450000Y57110000D01*
G75*
G02*
X54380000Y57040000I-70000J0D01*
G01*
X53820000Y57040000D01*
G75*
G02*
X53750000Y57110000I0J70000D01*
G01*
G37*
G04 #@! TD*
G04 #@! TO.C,R31*
G36*
G01*
X14175000Y36750001D02*
X15425000Y36750001D01*
G75*
G02*
X15525000Y36650001I0J-100000D01*
G01*
X15525000Y35850001D01*
G75*
G02*
X15425000Y35750001I-100000J0D01*
G01*
X14175000Y35750001D01*
G75*
G02*
X14075000Y35850001I0J100000D01*
G01*
X14075000Y36650001D01*
G75*
G02*
X14175000Y36750001I100000J0D01*
G01*
G37*
G36*
G01*
X14175000Y34849979D02*
X15425000Y34849979D01*
G75*
G02*
X15525000Y34749979I0J-100000D01*
G01*
X15525000Y33949979D01*
G75*
G02*
X15425000Y33849979I-100000J0D01*
G01*
X14175000Y33849979D01*
G75*
G02*
X14075000Y33949979I0J100000D01*
G01*
X14075000Y34749979D01*
G75*
G02*
X14175000Y34849979I100000J0D01*
G01*
G37*
G04 #@! TD*
G04 #@! TO.C,R55*
G36*
G01*
X47650000Y74390000D02*
X47650000Y73610000D01*
G75*
G02*
X47580000Y73540000I-70000J0D01*
G01*
X47020000Y73540000D01*
G75*
G02*
X46950000Y73610000I0J70000D01*
G01*
X46950000Y74390000D01*
G75*
G02*
X47020000Y74460000I70000J0D01*
G01*
X47580000Y74460000D01*
G75*
G02*
X47650000Y74390000I0J-70000D01*
G01*
G37*
G36*
G01*
X46050000Y74390000D02*
X46050000Y73610000D01*
G75*
G02*
X45980000Y73540000I-70000J0D01*
G01*
X45420000Y73540000D01*
G75*
G02*
X45350000Y73610000I0J70000D01*
G01*
X45350000Y74390000D01*
G75*
G02*
X45420000Y74460000I70000J0D01*
G01*
X45980000Y74460000D01*
G75*
G02*
X46050000Y74390000I0J-70000D01*
G01*
G37*
G04 #@! TD*
G04 #@! TO.C,Q17*
G36*
G01*
X11400000Y44625000D02*
X11100000Y44625000D01*
G75*
G02*
X10950000Y44775000I0J150000D01*
G01*
X10950000Y45950000D01*
G75*
G02*
X11100000Y46100000I150000J0D01*
G01*
X11400000Y46100000D01*
G75*
G02*
X11550000Y45950000I0J-150000D01*
G01*
X11550000Y44775000D01*
G75*
G02*
X11400000Y44625000I-150000J0D01*
G01*
G37*
G36*
G01*
X12350000Y46500000D02*
X12050000Y46500000D01*
G75*
G02*
X11900000Y46650000I0J150000D01*
G01*
X11900000Y47825000D01*
G75*
G02*
X12050000Y47975000I150000J0D01*
G01*
X12350000Y47975000D01*
G75*
G02*
X12500000Y47825000I0J-150000D01*
G01*
X12500000Y46650000D01*
G75*
G02*
X12350000Y46500000I-150000J0D01*
G01*
G37*
G36*
G01*
X13300000Y44625000D02*
X13000000Y44625000D01*
G75*
G02*
X12850000Y44775000I0J150000D01*
G01*
X12850000Y45950000D01*
G75*
G02*
X13000000Y46100000I150000J0D01*
G01*
X13300000Y46100000D01*
G75*
G02*
X13450000Y45950000I0J-150000D01*
G01*
X13450000Y44775000D01*
G75*
G02*
X13300000Y44625000I-150000J0D01*
G01*
G37*
G04 #@! TD*
G04 #@! TO.C,R5*
G36*
G01*
X16900000Y96365000D02*
X16900000Y97035000D01*
G75*
G02*
X16965000Y97100000I65000J0D01*
G01*
X17485000Y97100000D01*
G75*
G02*
X17550000Y97035000I0J-65000D01*
G01*
X17550000Y96365000D01*
G75*
G02*
X17485000Y96300000I-65000J0D01*
G01*
X16965000Y96300000D01*
G75*
G02*
X16900000Y96365000I0J65000D01*
G01*
G37*
G36*
G01*
X17875000Y96345000D02*
X17875000Y97055000D01*
G75*
G02*
X17920000Y97100000I45000J0D01*
G01*
X18280000Y97100000D01*
G75*
G02*
X18325000Y97055000I0J-45000D01*
G01*
X18325000Y96345000D01*
G75*
G02*
X18280000Y96300000I-45000J0D01*
G01*
X17920000Y96300000D01*
G75*
G02*
X17875000Y96345000I0J45000D01*
G01*
G37*
G36*
G01*
X18675000Y96345000D02*
X18675000Y97055000D01*
G75*
G02*
X18720000Y97100000I45000J0D01*
G01*
X19080000Y97100000D01*
G75*
G02*
X19125000Y97055000I0J-45000D01*
G01*
X19125000Y96345000D01*
G75*
G02*
X19080000Y96300000I-45000J0D01*
G01*
X18720000Y96300000D01*
G75*
G02*
X18675000Y96345000I0J45000D01*
G01*
G37*
G36*
G01*
X19450000Y96365000D02*
X19450000Y97035000D01*
G75*
G02*
X19515000Y97100000I65000J0D01*
G01*
X20035000Y97100000D01*
G75*
G02*
X20100000Y97035000I0J-65000D01*
G01*
X20100000Y96365000D01*
G75*
G02*
X20035000Y96300000I-65000J0D01*
G01*
X19515000Y96300000D01*
G75*
G02*
X19450000Y96365000I0J65000D01*
G01*
G37*
G36*
G01*
X19450000Y98165000D02*
X19450000Y98835000D01*
G75*
G02*
X19515000Y98900000I65000J0D01*
G01*
X20035000Y98900000D01*
G75*
G02*
X20100000Y98835000I0J-65000D01*
G01*
X20100000Y98165000D01*
G75*
G02*
X20035000Y98100000I-65000J0D01*
G01*
X19515000Y98100000D01*
G75*
G02*
X19450000Y98165000I0J65000D01*
G01*
G37*
G36*
G01*
X18675000Y98145000D02*
X18675000Y98855000D01*
G75*
G02*
X18720000Y98900000I45000J0D01*
G01*
X19080000Y98900000D01*
G75*
G02*
X19125000Y98855000I0J-45000D01*
G01*
X19125000Y98145000D01*
G75*
G02*
X19080000Y98100000I-45000J0D01*
G01*
X18720000Y98100000D01*
G75*
G02*
X18675000Y98145000I0J45000D01*
G01*
G37*
G36*
G01*
X17875000Y98145000D02*
X17875000Y98855000D01*
G75*
G02*
X17920000Y98900000I45000J0D01*
G01*
X18280000Y98900000D01*
G75*
G02*
X18325000Y98855000I0J-45000D01*
G01*
X18325000Y98145000D01*
G75*
G02*
X18280000Y98100000I-45000J0D01*
G01*
X17920000Y98100000D01*
G75*
G02*
X17875000Y98145000I0J45000D01*
G01*
G37*
G36*
G01*
X16900000Y98165000D02*
X16900000Y98835000D01*
G75*
G02*
X16965000Y98900000I65000J0D01*
G01*
X17485000Y98900000D01*
G75*
G02*
X17550000Y98835000I0J-65000D01*
G01*
X17550000Y98165000D01*
G75*
G02*
X17485000Y98100000I-65000J0D01*
G01*
X16965000Y98100000D01*
G75*
G02*
X16900000Y98165000I0J65000D01*
G01*
G37*
G04 #@! TD*
G04 #@! TO.C,D2*
G36*
G01*
X17361499Y75087497D02*
X17841499Y75087497D01*
G75*
G02*
X17901499Y75027497I0J-60000D01*
G01*
X17901499Y74547497D01*
G75*
G02*
X17841499Y74487497I-60000J0D01*
G01*
X17361499Y74487497D01*
G75*
G02*
X17301499Y74547497I0J60000D01*
G01*
X17301499Y75027497D01*
G75*
G02*
X17361499Y75087497I60000J0D01*
G01*
G37*
G36*
G01*
X19561499Y75087497D02*
X20041499Y75087497D01*
G75*
G02*
X20101499Y75027497I0J-60000D01*
G01*
X20101499Y74547497D01*
G75*
G02*
X20041499Y74487497I-60000J0D01*
G01*
X19561499Y74487497D01*
G75*
G02*
X19501499Y74547497I0J60000D01*
G01*
X19501499Y75027497D01*
G75*
G02*
X19561499Y75087497I60000J0D01*
G01*
G37*
G04 #@! TD*
G04 #@! TO.C,D10*
G36*
G01*
X13399998Y73800001D02*
X12499998Y73800001D01*
G75*
G02*
X12399998Y73900001I0J100000D01*
G01*
X12399998Y74700001D01*
G75*
G02*
X12499998Y74800001I100000J0D01*
G01*
X13399998Y74800001D01*
G75*
G02*
X13499998Y74700001I0J-100000D01*
G01*
X13499998Y73900001D01*
G75*
G02*
X13399998Y73800001I-100000J0D01*
G01*
G37*
G36*
G01*
X13399998Y75500001D02*
X12499998Y75500001D01*
G75*
G02*
X12399998Y75600001I0J100000D01*
G01*
X12399998Y76400001D01*
G75*
G02*
X12499998Y76500001I100000J0D01*
G01*
X13399998Y76500001D01*
G75*
G02*
X13499998Y76400001I0J-100000D01*
G01*
X13499998Y75600001D01*
G75*
G02*
X13399998Y75500001I-100000J0D01*
G01*
G37*
G04 #@! TD*
G04 #@! TO.C,Q20*
G36*
G01*
X76400000Y86400000D02*
X75440000Y86400000D01*
G75*
G02*
X75320000Y86520000I0J120000D01*
G01*
X75320000Y88480000D01*
G75*
G02*
X75440000Y88600000I120000J0D01*
G01*
X76400000Y88600000D01*
G75*
G02*
X76520000Y88480000I0J-120000D01*
G01*
X76520000Y86520000D01*
G75*
G02*
X76400000Y86400000I-120000J0D01*
G01*
G37*
D24*
X78200000Y93800000D03*
G36*
G01*
X80960000Y86400000D02*
X80000000Y86400000D01*
G75*
G02*
X79880000Y86520000I0J120000D01*
G01*
X79880000Y88480000D01*
G75*
G02*
X80000000Y88600000I120000J0D01*
G01*
X80960000Y88600000D01*
G75*
G02*
X81080000Y88480000I0J-120000D01*
G01*
X81080000Y86520000D01*
G75*
G02*
X80960000Y86400000I-120000J0D01*
G01*
G37*
G04 #@! TD*
G04 #@! TO.C,D23*
G36*
G01*
X12250000Y38190000D02*
X12250000Y39210000D01*
G75*
G02*
X12340000Y39300000I90000J0D01*
G01*
X13060000Y39300000D01*
G75*
G02*
X13150000Y39210000I0J-90000D01*
G01*
X13150000Y38190000D01*
G75*
G02*
X13060000Y38100000I-90000J0D01*
G01*
X12340000Y38100000D01*
G75*
G02*
X12250000Y38190000I0J90000D01*
G01*
G37*
G36*
G01*
X15550000Y38190000D02*
X15550000Y39210000D01*
G75*
G02*
X15640000Y39300000I90000J0D01*
G01*
X16360000Y39300000D01*
G75*
G02*
X16450000Y39210000I0J-90000D01*
G01*
X16450000Y38190000D01*
G75*
G02*
X16360000Y38100000I-90000J0D01*
G01*
X15640000Y38100000D01*
G75*
G02*
X15550000Y38190000I0J90000D01*
G01*
G37*
G04 #@! TD*
G04 #@! TO.C,D17*
G36*
G01*
X8999998Y94600001D02*
X8099998Y94600001D01*
G75*
G02*
X7999998Y94700001I0J100000D01*
G01*
X7999998Y95500001D01*
G75*
G02*
X8099998Y95600001I100000J0D01*
G01*
X8999998Y95600001D01*
G75*
G02*
X9099998Y95500001I0J-100000D01*
G01*
X9099998Y94700001D01*
G75*
G02*
X8999998Y94600001I-100000J0D01*
G01*
G37*
G36*
G01*
X8999998Y96300001D02*
X8099998Y96300001D01*
G75*
G02*
X7999998Y96400001I0J100000D01*
G01*
X7999998Y97200001D01*
G75*
G02*
X8099998Y97300001I100000J0D01*
G01*
X8999998Y97300001D01*
G75*
G02*
X9099998Y97200001I0J-100000D01*
G01*
X9099998Y96400001D01*
G75*
G02*
X8999998Y96300001I-100000J0D01*
G01*
G37*
G04 #@! TD*
D11*
G04 #@! TO.C,R19*
X30000000Y82895000D03*
G36*
G01*
X30625000Y83349999D02*
X29375000Y83349999D01*
G75*
G02*
X29275000Y83449999I0J100000D01*
G01*
X29275000Y84249999D01*
G75*
G02*
X29375000Y84349999I100000J0D01*
G01*
X30625000Y84349999D01*
G75*
G02*
X30725000Y84249999I0J-100000D01*
G01*
X30725000Y83449999D01*
G75*
G02*
X30625000Y83349999I-100000J0D01*
G01*
G37*
G36*
G01*
X30625000Y85250021D02*
X29375000Y85250021D01*
G75*
G02*
X29275000Y85350021I0J100000D01*
G01*
X29275000Y86150021D01*
G75*
G02*
X29375000Y86250021I100000J0D01*
G01*
X30625000Y86250021D01*
G75*
G02*
X30725000Y86150021I0J-100000D01*
G01*
X30725000Y85350021D01*
G75*
G02*
X30625000Y85250021I-100000J0D01*
G01*
G37*
X30000000Y86705000D03*
G04 #@! TD*
G04 #@! TO.C,Q5*
G36*
G01*
X11800000Y50775000D02*
X12100000Y50775000D01*
G75*
G02*
X12250000Y50625000I0J-150000D01*
G01*
X12250000Y49450000D01*
G75*
G02*
X12100000Y49300000I-150000J0D01*
G01*
X11800000Y49300000D01*
G75*
G02*
X11650000Y49450000I0J150000D01*
G01*
X11650000Y50625000D01*
G75*
G02*
X11800000Y50775000I150000J0D01*
G01*
G37*
G36*
G01*
X10850000Y48900000D02*
X11150000Y48900000D01*
G75*
G02*
X11300000Y48750000I0J-150000D01*
G01*
X11300000Y47575000D01*
G75*
G02*
X11150000Y47425000I-150000J0D01*
G01*
X10850000Y47425000D01*
G75*
G02*
X10700000Y47575000I0J150000D01*
G01*
X10700000Y48750000D01*
G75*
G02*
X10850000Y48900000I150000J0D01*
G01*
G37*
G36*
G01*
X9900000Y50775000D02*
X10200000Y50775000D01*
G75*
G02*
X10350000Y50625000I0J-150000D01*
G01*
X10350000Y49450000D01*
G75*
G02*
X10200000Y49300000I-150000J0D01*
G01*
X9900000Y49300000D01*
G75*
G02*
X9750000Y49450000I0J150000D01*
G01*
X9750000Y50625000D01*
G75*
G02*
X9900000Y50775000I150000J0D01*
G01*
G37*
G04 #@! TD*
G04 #@! TO.C,Q12*
G36*
G01*
X55747756Y77222756D02*
X55747756Y77522756D01*
G75*
G02*
X55897756Y77672756I150000J0D01*
G01*
X57072756Y77672756D01*
G75*
G02*
X57222756Y77522756I0J-150000D01*
G01*
X57222756Y77222756D01*
G75*
G02*
X57072756Y77072756I-150000J0D01*
G01*
X55897756Y77072756D01*
G75*
G02*
X55747756Y77222756I0J150000D01*
G01*
G37*
G36*
G01*
X57622756Y76272756D02*
X57622756Y76572756D01*
G75*
G02*
X57772756Y76722756I150000J0D01*
G01*
X58947756Y76722756D01*
G75*
G02*
X59097756Y76572756I0J-150000D01*
G01*
X59097756Y76272756D01*
G75*
G02*
X58947756Y76122756I-150000J0D01*
G01*
X57772756Y76122756D01*
G75*
G02*
X57622756Y76272756I0J150000D01*
G01*
G37*
G36*
G01*
X55747756Y75322756D02*
X55747756Y75622756D01*
G75*
G02*
X55897756Y75772756I150000J0D01*
G01*
X57072756Y75772756D01*
G75*
G02*
X57222756Y75622756I0J-150000D01*
G01*
X57222756Y75322756D01*
G75*
G02*
X57072756Y75172756I-150000J0D01*
G01*
X55897756Y75172756D01*
G75*
G02*
X55747756Y75322756I0J150000D01*
G01*
G37*
G04 #@! TD*
G04 #@! TO.C,R54*
G36*
G01*
X19059000Y40000000D02*
X18279000Y40000000D01*
G75*
G02*
X18209000Y40070000I0J70000D01*
G01*
X18209000Y40630000D01*
G75*
G02*
X18279000Y40700000I70000J0D01*
G01*
X19059000Y40700000D01*
G75*
G02*
X19129000Y40630000I0J-70000D01*
G01*
X19129000Y40070000D01*
G75*
G02*
X19059000Y40000000I-70000J0D01*
G01*
G37*
G36*
G01*
X19059000Y41600000D02*
X18279000Y41600000D01*
G75*
G02*
X18209000Y41670000I0J70000D01*
G01*
X18209000Y42230000D01*
G75*
G02*
X18279000Y42300000I70000J0D01*
G01*
X19059000Y42300000D01*
G75*
G02*
X19129000Y42230000I0J-70000D01*
G01*
X19129000Y41670000D01*
G75*
G02*
X19059000Y41600000I-70000J0D01*
G01*
G37*
G04 #@! TD*
G04 #@! TO.C,Q2*
G36*
G01*
X8300000Y50825000D02*
X8600000Y50825000D01*
G75*
G02*
X8750000Y50675000I0J-150000D01*
G01*
X8750000Y49500000D01*
G75*
G02*
X8600000Y49350000I-150000J0D01*
G01*
X8300000Y49350000D01*
G75*
G02*
X8150000Y49500000I0J150000D01*
G01*
X8150000Y50675000D01*
G75*
G02*
X8300000Y50825000I150000J0D01*
G01*
G37*
G36*
G01*
X7350000Y48950000D02*
X7650000Y48950000D01*
G75*
G02*
X7800000Y48800000I0J-150000D01*
G01*
X7800000Y47625000D01*
G75*
G02*
X7650000Y47475000I-150000J0D01*
G01*
X7350000Y47475000D01*
G75*
G02*
X7200000Y47625000I0J150000D01*
G01*
X7200000Y48800000D01*
G75*
G02*
X7350000Y48950000I150000J0D01*
G01*
G37*
G36*
G01*
X6400000Y50825000D02*
X6700000Y50825000D01*
G75*
G02*
X6850000Y50675000I0J-150000D01*
G01*
X6850000Y49500000D01*
G75*
G02*
X6700000Y49350000I-150000J0D01*
G01*
X6400000Y49350000D01*
G75*
G02*
X6250000Y49500000I0J150000D01*
G01*
X6250000Y50675000D01*
G75*
G02*
X6400000Y50825000I150000J0D01*
G01*
G37*
G04 #@! TD*
G04 #@! TO.C,R48*
G36*
G01*
X8890000Y43130000D02*
X8890000Y43910000D01*
G75*
G02*
X8960000Y43980000I70000J0D01*
G01*
X9520000Y43980000D01*
G75*
G02*
X9590000Y43910000I0J-70000D01*
G01*
X9590000Y43130000D01*
G75*
G02*
X9520000Y43060000I-70000J0D01*
G01*
X8960000Y43060000D01*
G75*
G02*
X8890000Y43130000I0J70000D01*
G01*
G37*
G36*
G01*
X10490000Y43130000D02*
X10490000Y43910000D01*
G75*
G02*
X10560000Y43980000I70000J0D01*
G01*
X11120000Y43980000D01*
G75*
G02*
X11190000Y43910000I0J-70000D01*
G01*
X11190000Y43130000D01*
G75*
G02*
X11120000Y43060000I-70000J0D01*
G01*
X10560000Y43060000D01*
G75*
G02*
X10490000Y43130000I0J70000D01*
G01*
G37*
G04 #@! TD*
G04 #@! TO.C,D3*
G36*
G01*
X17438000Y95308000D02*
X17918000Y95308000D01*
G75*
G02*
X17978000Y95248000I0J-60000D01*
G01*
X17978000Y94768000D01*
G75*
G02*
X17918000Y94708000I-60000J0D01*
G01*
X17438000Y94708000D01*
G75*
G02*
X17378000Y94768000I0J60000D01*
G01*
X17378000Y95248000D01*
G75*
G02*
X17438000Y95308000I60000J0D01*
G01*
G37*
G36*
G01*
X19638000Y95308000D02*
X20118000Y95308000D01*
G75*
G02*
X20178000Y95248000I0J-60000D01*
G01*
X20178000Y94768000D01*
G75*
G02*
X20118000Y94708000I-60000J0D01*
G01*
X19638000Y94708000D01*
G75*
G02*
X19578000Y94768000I0J60000D01*
G01*
X19578000Y95248000D01*
G75*
G02*
X19638000Y95308000I60000J0D01*
G01*
G37*
G04 #@! TD*
G04 #@! TO.C,R46*
G36*
G01*
X48750000Y57110000D02*
X48750000Y57890000D01*
G75*
G02*
X48820000Y57960000I70000J0D01*
G01*
X49380000Y57960000D01*
G75*
G02*
X49450000Y57890000I0J-70000D01*
G01*
X49450000Y57110000D01*
G75*
G02*
X49380000Y57040000I-70000J0D01*
G01*
X48820000Y57040000D01*
G75*
G02*
X48750000Y57110000I0J70000D01*
G01*
G37*
G36*
G01*
X50350000Y57110000D02*
X50350000Y57890000D01*
G75*
G02*
X50420000Y57960000I70000J0D01*
G01*
X50980000Y57960000D01*
G75*
G02*
X51050000Y57890000I0J-70000D01*
G01*
X51050000Y57110000D01*
G75*
G02*
X50980000Y57040000I-70000J0D01*
G01*
X50420000Y57040000D01*
G75*
G02*
X50350000Y57110000I0J70000D01*
G01*
G37*
G04 #@! TD*
G04 #@! TO.C,Q16*
G36*
G01*
X7700000Y44725000D02*
X7400000Y44725000D01*
G75*
G02*
X7250000Y44875000I0J150000D01*
G01*
X7250000Y46050000D01*
G75*
G02*
X7400000Y46200000I150000J0D01*
G01*
X7700000Y46200000D01*
G75*
G02*
X7850000Y46050000I0J-150000D01*
G01*
X7850000Y44875000D01*
G75*
G02*
X7700000Y44725000I-150000J0D01*
G01*
G37*
G36*
G01*
X8650000Y46600000D02*
X8350000Y46600000D01*
G75*
G02*
X8200000Y46750000I0J150000D01*
G01*
X8200000Y47925000D01*
G75*
G02*
X8350000Y48075000I150000J0D01*
G01*
X8650000Y48075000D01*
G75*
G02*
X8800000Y47925000I0J-150000D01*
G01*
X8800000Y46750000D01*
G75*
G02*
X8650000Y46600000I-150000J0D01*
G01*
G37*
G36*
G01*
X9600000Y44725000D02*
X9300000Y44725000D01*
G75*
G02*
X9150000Y44875000I0J150000D01*
G01*
X9150000Y46050000D01*
G75*
G02*
X9300000Y46200000I150000J0D01*
G01*
X9600000Y46200000D01*
G75*
G02*
X9750000Y46050000I0J-150000D01*
G01*
X9750000Y44875000D01*
G75*
G02*
X9600000Y44725000I-150000J0D01*
G01*
G37*
G04 #@! TD*
D25*
G04 #@! TO.C,U4*
X19550000Y7775000D03*
X19550000Y9275000D03*
X19550000Y10775000D03*
X19550000Y12275000D03*
X19550000Y13775000D03*
X19550000Y15275000D03*
X19550000Y16775000D03*
X19550000Y18275000D03*
X19550000Y19775000D03*
X19550000Y21275000D03*
X19550000Y22775000D03*
X19550000Y24275000D03*
X19550000Y25775000D03*
X6850000Y25775000D03*
X6850000Y24275000D03*
X6850000Y22775000D03*
X6850000Y21275000D03*
X6850000Y19775000D03*
X6850000Y18275000D03*
X6850000Y16775000D03*
X6850000Y15275000D03*
X6850000Y13775000D03*
X6850000Y12275000D03*
X6850000Y10775000D03*
X6850000Y9275000D03*
X6850000Y7775000D03*
G04 #@! TD*
G04 #@! TO.C,D30*
G36*
G01*
X8050000Y29895000D02*
X7750000Y29895000D01*
G75*
G02*
X7600000Y30045000I0J150000D01*
G01*
X7600000Y31220000D01*
G75*
G02*
X7750000Y31370000I150000J0D01*
G01*
X8050000Y31370000D01*
G75*
G02*
X8200000Y31220000I0J-150000D01*
G01*
X8200000Y30045000D01*
G75*
G02*
X8050000Y29895000I-150000J0D01*
G01*
G37*
G36*
G01*
X9000000Y31770000D02*
X8700000Y31770000D01*
G75*
G02*
X8550000Y31920000I0J150000D01*
G01*
X8550000Y33095000D01*
G75*
G02*
X8700000Y33245000I150000J0D01*
G01*
X9000000Y33245000D01*
G75*
G02*
X9150000Y33095000I0J-150000D01*
G01*
X9150000Y31920000D01*
G75*
G02*
X9000000Y31770000I-150000J0D01*
G01*
G37*
G36*
G01*
X9950000Y29895000D02*
X9650000Y29895000D01*
G75*
G02*
X9500000Y30045000I0J150000D01*
G01*
X9500000Y31220000D01*
G75*
G02*
X9650000Y31370000I150000J0D01*
G01*
X9950000Y31370000D01*
G75*
G02*
X10100000Y31220000I0J-150000D01*
G01*
X10100000Y30045000D01*
G75*
G02*
X9950000Y29895000I-150000J0D01*
G01*
G37*
G04 #@! TD*
D11*
G04 #@! TO.C,F1*
X54846000Y86700000D03*
G36*
G01*
X53946000Y85355010D02*
X53946000Y86045010D01*
G75*
G02*
X54176000Y86275010I230000J0D01*
G01*
X55516000Y86275010D01*
G75*
G02*
X55746000Y86045010I0J-230000D01*
G01*
X55746000Y85355010D01*
G75*
G02*
X55516000Y85125010I-230000J0D01*
G01*
X54176000Y85125010D01*
G75*
G02*
X53946000Y85355010I0J230000D01*
G01*
G37*
G36*
G01*
X53946000Y82454990D02*
X53946000Y83144990D01*
G75*
G02*
X54176000Y83374990I230000J0D01*
G01*
X55516000Y83374990D01*
G75*
G02*
X55746000Y83144990I0J-230000D01*
G01*
X55746000Y82454990D01*
G75*
G02*
X55516000Y82224990I-230000J0D01*
G01*
X54176000Y82224990D01*
G75*
G02*
X53946000Y82454990I0J230000D01*
G01*
G37*
X54846000Y81800000D03*
G04 #@! TD*
G04 #@! TO.C,R14*
X70495000Y98900000D03*
G36*
G01*
X70949999Y98275000D02*
X70949999Y99525000D01*
G75*
G02*
X71049999Y99625000I100000J0D01*
G01*
X71849999Y99625000D01*
G75*
G02*
X71949999Y99525000I0J-100000D01*
G01*
X71949999Y98275000D01*
G75*
G02*
X71849999Y98175000I-100000J0D01*
G01*
X71049999Y98175000D01*
G75*
G02*
X70949999Y98275000I0J100000D01*
G01*
G37*
G36*
G01*
X72850021Y98275000D02*
X72850021Y99525000D01*
G75*
G02*
X72950021Y99625000I100000J0D01*
G01*
X73750021Y99625000D01*
G75*
G02*
X73850021Y99525000I0J-100000D01*
G01*
X73850021Y98275000D01*
G75*
G02*
X73750021Y98175000I-100000J0D01*
G01*
X72950021Y98175000D01*
G75*
G02*
X72850021Y98275000I0J100000D01*
G01*
G37*
X74305000Y98900000D03*
G04 #@! TD*
G04 #@! TO.C,D5*
G36*
G01*
X17360000Y73400000D02*
X17840000Y73400000D01*
G75*
G02*
X17900000Y73340000I0J-60000D01*
G01*
X17900000Y72860000D01*
G75*
G02*
X17840000Y72800000I-60000J0D01*
G01*
X17360000Y72800000D01*
G75*
G02*
X17300000Y72860000I0J60000D01*
G01*
X17300000Y73340000D01*
G75*
G02*
X17360000Y73400000I60000J0D01*
G01*
G37*
G36*
G01*
X19560000Y73400000D02*
X20040000Y73400000D01*
G75*
G02*
X20100000Y73340000I0J-60000D01*
G01*
X20100000Y72860000D01*
G75*
G02*
X20040000Y72800000I-60000J0D01*
G01*
X19560000Y72800000D01*
G75*
G02*
X19500000Y72860000I0J60000D01*
G01*
X19500000Y73340000D01*
G75*
G02*
X19560000Y73400000I60000J0D01*
G01*
G37*
G04 #@! TD*
G04 #@! TO.C,F3*
X41100000Y86750000D03*
G36*
G01*
X40200000Y85405010D02*
X40200000Y86095010D01*
G75*
G02*
X40430000Y86325010I230000J0D01*
G01*
X41770000Y86325010D01*
G75*
G02*
X42000000Y86095010I0J-230000D01*
G01*
X42000000Y85405010D01*
G75*
G02*
X41770000Y85175010I-230000J0D01*
G01*
X40430000Y85175010D01*
G75*
G02*
X40200000Y85405010I0J230000D01*
G01*
G37*
G36*
G01*
X40200000Y82504990D02*
X40200000Y83194990D01*
G75*
G02*
X40430000Y83424990I230000J0D01*
G01*
X41770000Y83424990D01*
G75*
G02*
X42000000Y83194990I0J-230000D01*
G01*
X42000000Y82504990D01*
G75*
G02*
X41770000Y82274990I-230000J0D01*
G01*
X40430000Y82274990D01*
G75*
G02*
X40200000Y82504990I0J230000D01*
G01*
G37*
X41100000Y81850000D03*
G04 #@! TD*
G04 #@! TO.C,R40*
G36*
G01*
X31805010Y79100000D02*
X32495010Y79100000D01*
G75*
G02*
X32725010Y78870000I0J-230000D01*
G01*
X32725010Y77530000D01*
G75*
G02*
X32495010Y77300000I-230000J0D01*
G01*
X31805010Y77300000D01*
G75*
G02*
X31575010Y77530000I0J230000D01*
G01*
X31575010Y78870000D01*
G75*
G02*
X31805010Y79100000I230000J0D01*
G01*
G37*
G36*
G01*
X28904990Y79100000D02*
X29594990Y79100000D01*
G75*
G02*
X29824990Y78870000I0J-230000D01*
G01*
X29824990Y77530000D01*
G75*
G02*
X29594990Y77300000I-230000J0D01*
G01*
X28904990Y77300000D01*
G75*
G02*
X28674990Y77530000I0J230000D01*
G01*
X28674990Y78870000D01*
G75*
G02*
X28904990Y79100000I230000J0D01*
G01*
G37*
G04 #@! TD*
G04 #@! TO.C,Q7*
G36*
G01*
X68000000Y86400000D02*
X67040000Y86400000D01*
G75*
G02*
X66920000Y86520000I0J120000D01*
G01*
X66920000Y88480000D01*
G75*
G02*
X67040000Y88600000I120000J0D01*
G01*
X68000000Y88600000D01*
G75*
G02*
X68120000Y88480000I0J-120000D01*
G01*
X68120000Y86520000D01*
G75*
G02*
X68000000Y86400000I-120000J0D01*
G01*
G37*
D24*
X69800000Y93800000D03*
G36*
G01*
X72560000Y86400000D02*
X71600000Y86400000D01*
G75*
G02*
X71480000Y86520000I0J120000D01*
G01*
X71480000Y88480000D01*
G75*
G02*
X71600000Y88600000I120000J0D01*
G01*
X72560000Y88600000D01*
G75*
G02*
X72680000Y88480000I0J-120000D01*
G01*
X72680000Y86520000D01*
G75*
G02*
X72560000Y86400000I-120000J0D01*
G01*
G37*
G04 #@! TD*
G04 #@! TO.C,Q6*
G36*
G01*
X67810000Y71570000D02*
X66850000Y71570000D01*
G75*
G02*
X66730000Y71690000I0J120000D01*
G01*
X66730000Y73650000D01*
G75*
G02*
X66850000Y73770000I120000J0D01*
G01*
X67810000Y73770000D01*
G75*
G02*
X67930000Y73650000I0J-120000D01*
G01*
X67930000Y71690000D01*
G75*
G02*
X67810000Y71570000I-120000J0D01*
G01*
G37*
X69610000Y78970000D03*
G36*
G01*
X72370000Y71570000D02*
X71410000Y71570000D01*
G75*
G02*
X71290000Y71690000I0J120000D01*
G01*
X71290000Y73650000D01*
G75*
G02*
X71410000Y73770000I120000J0D01*
G01*
X72370000Y73770000D01*
G75*
G02*
X72490000Y73650000I0J-120000D01*
G01*
X72490000Y71690000D01*
G75*
G02*
X72370000Y71570000I-120000J0D01*
G01*
G37*
G04 #@! TD*
G04 #@! TO.C,R51*
G36*
G01*
X37950000Y8910000D02*
X37950000Y9690000D01*
G75*
G02*
X38020000Y9760000I70000J0D01*
G01*
X38580000Y9760000D01*
G75*
G02*
X38650000Y9690000I0J-70000D01*
G01*
X38650000Y8910000D01*
G75*
G02*
X38580000Y8840000I-70000J0D01*
G01*
X38020000Y8840000D01*
G75*
G02*
X37950000Y8910000I0J70000D01*
G01*
G37*
G36*
G01*
X39550000Y8910000D02*
X39550000Y9690000D01*
G75*
G02*
X39620000Y9760000I70000J0D01*
G01*
X40180000Y9760000D01*
G75*
G02*
X40250000Y9690000I0J-70000D01*
G01*
X40250000Y8910000D01*
G75*
G02*
X40180000Y8840000I-70000J0D01*
G01*
X39620000Y8840000D01*
G75*
G02*
X39550000Y8910000I0J70000D01*
G01*
G37*
G04 #@! TD*
G04 #@! TO.C,Q21*
G36*
G01*
X16487500Y36300000D02*
X16487500Y36600000D01*
G75*
G02*
X16637500Y36750000I150000J0D01*
G01*
X17812500Y36750000D01*
G75*
G02*
X17962500Y36600000I0J-150000D01*
G01*
X17962500Y36300000D01*
G75*
G02*
X17812500Y36150000I-150000J0D01*
G01*
X16637500Y36150000D01*
G75*
G02*
X16487500Y36300000I0J150000D01*
G01*
G37*
G36*
G01*
X18362500Y35350000D02*
X18362500Y35650000D01*
G75*
G02*
X18512500Y35800000I150000J0D01*
G01*
X19687500Y35800000D01*
G75*
G02*
X19837500Y35650000I0J-150000D01*
G01*
X19837500Y35350000D01*
G75*
G02*
X19687500Y35200000I-150000J0D01*
G01*
X18512500Y35200000D01*
G75*
G02*
X18362500Y35350000I0J150000D01*
G01*
G37*
G36*
G01*
X16487500Y34400000D02*
X16487500Y34700000D01*
G75*
G02*
X16637500Y34850000I150000J0D01*
G01*
X17812500Y34850000D01*
G75*
G02*
X17962500Y34700000I0J-150000D01*
G01*
X17962500Y34400000D01*
G75*
G02*
X17812500Y34250000I-150000J0D01*
G01*
X16637500Y34250000D01*
G75*
G02*
X16487500Y34400000I0J150000D01*
G01*
G37*
G04 #@! TD*
D26*
G04 #@! TO.C,J3*
X84500000Y2100000D03*
G04 #@! TD*
G04 #@! TO.C,D18*
G36*
G01*
X77550000Y83790000D02*
X77550000Y84810000D01*
G75*
G02*
X77640000Y84900000I90000J0D01*
G01*
X78360000Y84900000D01*
G75*
G02*
X78450000Y84810000I0J-90000D01*
G01*
X78450000Y83790000D01*
G75*
G02*
X78360000Y83700000I-90000J0D01*
G01*
X77640000Y83700000D01*
G75*
G02*
X77550000Y83790000I0J90000D01*
G01*
G37*
G36*
G01*
X80850000Y83790000D02*
X80850000Y84810000D01*
G75*
G02*
X80940000Y84900000I90000J0D01*
G01*
X81660000Y84900000D01*
G75*
G02*
X81750000Y84810000I0J-90000D01*
G01*
X81750000Y83790000D01*
G75*
G02*
X81660000Y83700000I-90000J0D01*
G01*
X80940000Y83700000D01*
G75*
G02*
X80850000Y83790000I0J90000D01*
G01*
G37*
G04 #@! TD*
D27*
G04 #@! TO.C,M4*
X68943366Y9442499D03*
D28*
X70568356Y13212499D03*
D20*
X58543367Y14617503D03*
D22*
X67793366Y12132507D03*
X61368367Y13962500D03*
X61368367Y12687502D03*
X61368367Y11037513D03*
X61368367Y10137502D03*
G04 #@! TD*
G04 #@! TO.C,D20*
G36*
G01*
X13399998Y99800001D02*
X12499998Y99800001D01*
G75*
G02*
X12399998Y99900001I0J100000D01*
G01*
X12399998Y100700001D01*
G75*
G02*
X12499998Y100800001I100000J0D01*
G01*
X13399998Y100800001D01*
G75*
G02*
X13499998Y100700001I0J-100000D01*
G01*
X13499998Y99900001D01*
G75*
G02*
X13399998Y99800001I-100000J0D01*
G01*
G37*
G36*
G01*
X13399998Y101500001D02*
X12499998Y101500001D01*
G75*
G02*
X12399998Y101600001I0J100000D01*
G01*
X12399998Y102400001D01*
G75*
G02*
X12499998Y102500001I100000J0D01*
G01*
X13399998Y102500001D01*
G75*
G02*
X13499998Y102400001I0J-100000D01*
G01*
X13499998Y101600001D01*
G75*
G02*
X13399998Y101500001I-100000J0D01*
G01*
G37*
G04 #@! TD*
D17*
G04 #@! TO.C,J9*
X36475000Y35925000D03*
G04 #@! TD*
G04 #@! TO.C,R59*
G36*
G01*
X12710000Y36530000D02*
X13490000Y36530000D01*
G75*
G02*
X13560000Y36460000I0J-70000D01*
G01*
X13560000Y35900000D01*
G75*
G02*
X13490000Y35830000I-70000J0D01*
G01*
X12710000Y35830000D01*
G75*
G02*
X12640000Y35900000I0J70000D01*
G01*
X12640000Y36460000D01*
G75*
G02*
X12710000Y36530000I70000J0D01*
G01*
G37*
G36*
G01*
X12710000Y34930000D02*
X13490000Y34930000D01*
G75*
G02*
X13560000Y34860000I0J-70000D01*
G01*
X13560000Y34300000D01*
G75*
G02*
X13490000Y34230000I-70000J0D01*
G01*
X12710000Y34230000D01*
G75*
G02*
X12640000Y34300000I0J70000D01*
G01*
X12640000Y34860000D01*
G75*
G02*
X12710000Y34930000I70000J0D01*
G01*
G37*
G04 #@! TD*
G04 #@! TO.C,R67*
G36*
G01*
X14550000Y52510000D02*
X14550000Y53290000D01*
G75*
G02*
X14620000Y53360000I70000J0D01*
G01*
X15180000Y53360000D01*
G75*
G02*
X15250000Y53290000I0J-70000D01*
G01*
X15250000Y52510000D01*
G75*
G02*
X15180000Y52440000I-70000J0D01*
G01*
X14620000Y52440000D01*
G75*
G02*
X14550000Y52510000I0J70000D01*
G01*
G37*
G36*
G01*
X16150000Y52510000D02*
X16150000Y53290000D01*
G75*
G02*
X16220000Y53360000I70000J0D01*
G01*
X16780000Y53360000D01*
G75*
G02*
X16850000Y53290000I0J-70000D01*
G01*
X16850000Y52510000D01*
G75*
G02*
X16780000Y52440000I-70000J0D01*
G01*
X16220000Y52440000D01*
G75*
G02*
X16150000Y52510000I0J70000D01*
G01*
G37*
G04 #@! TD*
G04 #@! TO.C,R22*
G36*
G01*
X8300000Y69494990D02*
X8300000Y68804990D01*
G75*
G02*
X8070000Y68574990I-230000J0D01*
G01*
X6730000Y68574990D01*
G75*
G02*
X6500000Y68804990I0J230000D01*
G01*
X6500000Y69494990D01*
G75*
G02*
X6730000Y69724990I230000J0D01*
G01*
X8070000Y69724990D01*
G75*
G02*
X8300000Y69494990I0J-230000D01*
G01*
G37*
G36*
G01*
X8300000Y72395010D02*
X8300000Y71705010D01*
G75*
G02*
X8070000Y71475010I-230000J0D01*
G01*
X6730000Y71475010D01*
G75*
G02*
X6500000Y71705010I0J230000D01*
G01*
X6500000Y72395010D01*
G75*
G02*
X6730000Y72625010I230000J0D01*
G01*
X8070000Y72625010D01*
G75*
G02*
X8300000Y72395010I0J-230000D01*
G01*
G37*
G04 #@! TD*
G04 #@! TO.C,R49*
G36*
G01*
X36750000Y39290000D02*
X36750000Y38510000D01*
G75*
G02*
X36680000Y38440000I-70000J0D01*
G01*
X36120000Y38440000D01*
G75*
G02*
X36050000Y38510000I0J70000D01*
G01*
X36050000Y39290000D01*
G75*
G02*
X36120000Y39360000I70000J0D01*
G01*
X36680000Y39360000D01*
G75*
G02*
X36750000Y39290000I0J-70000D01*
G01*
G37*
G36*
G01*
X35150000Y39290000D02*
X35150000Y38510000D01*
G75*
G02*
X35080000Y38440000I-70000J0D01*
G01*
X34520000Y38440000D01*
G75*
G02*
X34450000Y38510000I0J70000D01*
G01*
X34450000Y39290000D01*
G75*
G02*
X34520000Y39360000I70000J0D01*
G01*
X35080000Y39360000D01*
G75*
G02*
X35150000Y39290000I0J-70000D01*
G01*
G37*
G04 #@! TD*
G04 #@! TO.C,R28*
G36*
G01*
X37950000Y10410000D02*
X37950000Y11190000D01*
G75*
G02*
X38020000Y11260000I70000J0D01*
G01*
X38580000Y11260000D01*
G75*
G02*
X38650000Y11190000I0J-70000D01*
G01*
X38650000Y10410000D01*
G75*
G02*
X38580000Y10340000I-70000J0D01*
G01*
X38020000Y10340000D01*
G75*
G02*
X37950000Y10410000I0J70000D01*
G01*
G37*
G36*
G01*
X39550000Y10410000D02*
X39550000Y11190000D01*
G75*
G02*
X39620000Y11260000I70000J0D01*
G01*
X40180000Y11260000D01*
G75*
G02*
X40250000Y11190000I0J-70000D01*
G01*
X40250000Y10410000D01*
G75*
G02*
X40180000Y10340000I-70000J0D01*
G01*
X39620000Y10340000D01*
G75*
G02*
X39550000Y10410000I0J70000D01*
G01*
G37*
G04 #@! TD*
G04 #@! TO.C,R61*
G36*
G01*
X16550000Y50465000D02*
X16550000Y49685000D01*
G75*
G02*
X16480000Y49615000I-70000J0D01*
G01*
X15920000Y49615000D01*
G75*
G02*
X15850000Y49685000I0J70000D01*
G01*
X15850000Y50465000D01*
G75*
G02*
X15920000Y50535000I70000J0D01*
G01*
X16480000Y50535000D01*
G75*
G02*
X16550000Y50465000I0J-70000D01*
G01*
G37*
G36*
G01*
X14950000Y50465000D02*
X14950000Y49685000D01*
G75*
G02*
X14880000Y49615000I-70000J0D01*
G01*
X14320000Y49615000D01*
G75*
G02*
X14250000Y49685000I0J70000D01*
G01*
X14250000Y50465000D01*
G75*
G02*
X14320000Y50535000I70000J0D01*
G01*
X14880000Y50535000D01*
G75*
G02*
X14950000Y50465000I0J-70000D01*
G01*
G37*
G04 #@! TD*
G04 #@! TO.C,C4*
G36*
G01*
X38160000Y77215001D02*
X38840000Y77215001D01*
G75*
G02*
X38925000Y77130001I0J-85000D01*
G01*
X38925000Y76450001D01*
G75*
G02*
X38840000Y76365001I-85000J0D01*
G01*
X38160000Y76365001D01*
G75*
G02*
X38075000Y76450001I0J85000D01*
G01*
X38075000Y77130001D01*
G75*
G02*
X38160000Y77215001I85000J0D01*
G01*
G37*
G36*
G01*
X38160000Y75634999D02*
X38840000Y75634999D01*
G75*
G02*
X38925000Y75549999I0J-85000D01*
G01*
X38925000Y74869999D01*
G75*
G02*
X38840000Y74784999I-85000J0D01*
G01*
X38160000Y74784999D01*
G75*
G02*
X38075000Y74869999I0J85000D01*
G01*
X38075000Y75549999D01*
G75*
G02*
X38160000Y75634999I85000J0D01*
G01*
G37*
G04 #@! TD*
D11*
G04 #@! TO.C,R26*
X52805000Y11600000D03*
G36*
G01*
X52350001Y12225000D02*
X52350001Y10975000D01*
G75*
G02*
X52250001Y10875000I-100000J0D01*
G01*
X51450001Y10875000D01*
G75*
G02*
X51350001Y10975000I0J100000D01*
G01*
X51350001Y12225000D01*
G75*
G02*
X51450001Y12325000I100000J0D01*
G01*
X52250001Y12325000D01*
G75*
G02*
X52350001Y12225000I0J-100000D01*
G01*
G37*
G36*
G01*
X50449979Y12225000D02*
X50449979Y10975000D01*
G75*
G02*
X50349979Y10875000I-100000J0D01*
G01*
X49549979Y10875000D01*
G75*
G02*
X49449979Y10975000I0J100000D01*
G01*
X49449979Y12225000D01*
G75*
G02*
X49549979Y12325000I100000J0D01*
G01*
X50349979Y12325000D01*
G75*
G02*
X50449979Y12225000I0J-100000D01*
G01*
G37*
X48995000Y11600000D03*
G04 #@! TD*
G04 #@! TO.C,R25*
X52805000Y13600000D03*
G36*
G01*
X52350001Y14225000D02*
X52350001Y12975000D01*
G75*
G02*
X52250001Y12875000I-100000J0D01*
G01*
X51450001Y12875000D01*
G75*
G02*
X51350001Y12975000I0J100000D01*
G01*
X51350001Y14225000D01*
G75*
G02*
X51450001Y14325000I100000J0D01*
G01*
X52250001Y14325000D01*
G75*
G02*
X52350001Y14225000I0J-100000D01*
G01*
G37*
G36*
G01*
X50449979Y14225000D02*
X50449979Y12975000D01*
G75*
G02*
X50349979Y12875000I-100000J0D01*
G01*
X49549979Y12875000D01*
G75*
G02*
X49449979Y12975000I0J100000D01*
G01*
X49449979Y14225000D01*
G75*
G02*
X49549979Y14325000I100000J0D01*
G01*
X50349979Y14325000D01*
G75*
G02*
X50449979Y14225000I0J-100000D01*
G01*
G37*
X48995000Y13600000D03*
G04 #@! TD*
G04 #@! TO.C,R37*
G36*
G01*
X11550000Y64994990D02*
X11550000Y64304990D01*
G75*
G02*
X11320000Y64074990I-230000J0D01*
G01*
X9980000Y64074990D01*
G75*
G02*
X9750000Y64304990I0J230000D01*
G01*
X9750000Y64994990D01*
G75*
G02*
X9980000Y65224990I230000J0D01*
G01*
X11320000Y65224990D01*
G75*
G02*
X11550000Y64994990I0J-230000D01*
G01*
G37*
G36*
G01*
X11550000Y67895010D02*
X11550000Y67205010D01*
G75*
G02*
X11320000Y66975010I-230000J0D01*
G01*
X9980000Y66975010D01*
G75*
G02*
X9750000Y67205010I0J230000D01*
G01*
X9750000Y67895010D01*
G75*
G02*
X9980000Y68125010I230000J0D01*
G01*
X11320000Y68125010D01*
G75*
G02*
X11550000Y67895010I0J-230000D01*
G01*
G37*
G04 #@! TD*
G04 #@! TO.C,R27*
G36*
G01*
X37950000Y11910000D02*
X37950000Y12690000D01*
G75*
G02*
X38020000Y12760000I70000J0D01*
G01*
X38580000Y12760000D01*
G75*
G02*
X38650000Y12690000I0J-70000D01*
G01*
X38650000Y11910000D01*
G75*
G02*
X38580000Y11840000I-70000J0D01*
G01*
X38020000Y11840000D01*
G75*
G02*
X37950000Y11910000I0J70000D01*
G01*
G37*
G36*
G01*
X39550000Y11910000D02*
X39550000Y12690000D01*
G75*
G02*
X39620000Y12760000I70000J0D01*
G01*
X40180000Y12760000D01*
G75*
G02*
X40250000Y12690000I0J-70000D01*
G01*
X40250000Y11910000D01*
G75*
G02*
X40180000Y11840000I-70000J0D01*
G01*
X39620000Y11840000D01*
G75*
G02*
X39550000Y11910000I0J70000D01*
G01*
G37*
G04 #@! TD*
G04 #@! TO.C,R70*
G36*
G01*
X22160000Y46600000D02*
X22940000Y46600000D01*
G75*
G02*
X23010000Y46530000I0J-70000D01*
G01*
X23010000Y45970000D01*
G75*
G02*
X22940000Y45900000I-70000J0D01*
G01*
X22160000Y45900000D01*
G75*
G02*
X22090000Y45970000I0J70000D01*
G01*
X22090000Y46530000D01*
G75*
G02*
X22160000Y46600000I70000J0D01*
G01*
G37*
G36*
G01*
X22160000Y45000000D02*
X22940000Y45000000D01*
G75*
G02*
X23010000Y44930000I0J-70000D01*
G01*
X23010000Y44370000D01*
G75*
G02*
X22940000Y44300000I-70000J0D01*
G01*
X22160000Y44300000D01*
G75*
G02*
X22090000Y44370000I0J70000D01*
G01*
X22090000Y44930000D01*
G75*
G02*
X22160000Y45000000I70000J0D01*
G01*
G37*
G04 #@! TD*
G04 #@! TO.C,Q10*
G36*
G01*
X13600000Y40725000D02*
X13300000Y40725000D01*
G75*
G02*
X13150000Y40875000I0J150000D01*
G01*
X13150000Y42050000D01*
G75*
G02*
X13300000Y42200000I150000J0D01*
G01*
X13600000Y42200000D01*
G75*
G02*
X13750000Y42050000I0J-150000D01*
G01*
X13750000Y40875000D01*
G75*
G02*
X13600000Y40725000I-150000J0D01*
G01*
G37*
G36*
G01*
X14550000Y42600000D02*
X14250000Y42600000D01*
G75*
G02*
X14100000Y42750000I0J150000D01*
G01*
X14100000Y43925000D01*
G75*
G02*
X14250000Y44075000I150000J0D01*
G01*
X14550000Y44075000D01*
G75*
G02*
X14700000Y43925000I0J-150000D01*
G01*
X14700000Y42750000D01*
G75*
G02*
X14550000Y42600000I-150000J0D01*
G01*
G37*
G36*
G01*
X15500000Y40725000D02*
X15200000Y40725000D01*
G75*
G02*
X15050000Y40875000I0J150000D01*
G01*
X15050000Y42050000D01*
G75*
G02*
X15200000Y42200000I150000J0D01*
G01*
X15500000Y42200000D01*
G75*
G02*
X15650000Y42050000I0J-150000D01*
G01*
X15650000Y40875000D01*
G75*
G02*
X15500000Y40725000I-150000J0D01*
G01*
G37*
G04 #@! TD*
G04 #@! TO.C,D24*
G36*
G01*
X10800000Y32190000D02*
X10800000Y33210000D01*
G75*
G02*
X10890000Y33300000I90000J0D01*
G01*
X11610000Y33300000D01*
G75*
G02*
X11700000Y33210000I0J-90000D01*
G01*
X11700000Y32190000D01*
G75*
G02*
X11610000Y32100000I-90000J0D01*
G01*
X10890000Y32100000D01*
G75*
G02*
X10800000Y32190000I0J90000D01*
G01*
G37*
G36*
G01*
X14100000Y32190000D02*
X14100000Y33210000D01*
G75*
G02*
X14190000Y33300000I90000J0D01*
G01*
X14910000Y33300000D01*
G75*
G02*
X15000000Y33210000I0J-90000D01*
G01*
X15000000Y32190000D01*
G75*
G02*
X14910000Y32100000I-90000J0D01*
G01*
X14190000Y32100000D01*
G75*
G02*
X14100000Y32190000I0J90000D01*
G01*
G37*
G04 #@! TD*
G04 #@! TO.C,R41*
G36*
G01*
X52150000Y60110000D02*
X52150000Y60890000D01*
G75*
G02*
X52220000Y60960000I70000J0D01*
G01*
X52780000Y60960000D01*
G75*
G02*
X52850000Y60890000I0J-70000D01*
G01*
X52850000Y60110000D01*
G75*
G02*
X52780000Y60040000I-70000J0D01*
G01*
X52220000Y60040000D01*
G75*
G02*
X52150000Y60110000I0J70000D01*
G01*
G37*
G36*
G01*
X53750000Y60110000D02*
X53750000Y60890000D01*
G75*
G02*
X53820000Y60960000I70000J0D01*
G01*
X54380000Y60960000D01*
G75*
G02*
X54450000Y60890000I0J-70000D01*
G01*
X54450000Y60110000D01*
G75*
G02*
X54380000Y60040000I-70000J0D01*
G01*
X53820000Y60040000D01*
G75*
G02*
X53750000Y60110000I0J70000D01*
G01*
G37*
G04 #@! TD*
G04 #@! TO.C,R15*
X57132000Y82895000D03*
G36*
G01*
X57757000Y83349999D02*
X56507000Y83349999D01*
G75*
G02*
X56407000Y83449999I0J100000D01*
G01*
X56407000Y84249999D01*
G75*
G02*
X56507000Y84349999I100000J0D01*
G01*
X57757000Y84349999D01*
G75*
G02*
X57857000Y84249999I0J-100000D01*
G01*
X57857000Y83449999D01*
G75*
G02*
X57757000Y83349999I-100000J0D01*
G01*
G37*
G36*
G01*
X57757000Y85250021D02*
X56507000Y85250021D01*
G75*
G02*
X56407000Y85350021I0J100000D01*
G01*
X56407000Y86150021D01*
G75*
G02*
X56507000Y86250021I100000J0D01*
G01*
X57757000Y86250021D01*
G75*
G02*
X57857000Y86150021I0J-100000D01*
G01*
X57857000Y85350021D01*
G75*
G02*
X57757000Y85250021I-100000J0D01*
G01*
G37*
X57132000Y86705000D03*
G04 #@! TD*
G04 #@! TO.C,R65*
G36*
G01*
X5475000Y31800012D02*
X6725000Y31800012D01*
G75*
G02*
X6825000Y31700012I0J-100000D01*
G01*
X6825000Y30900012D01*
G75*
G02*
X6725000Y30800012I-100000J0D01*
G01*
X5475000Y30800012D01*
G75*
G02*
X5375000Y30900012I0J100000D01*
G01*
X5375000Y31700012D01*
G75*
G02*
X5475000Y31800012I100000J0D01*
G01*
G37*
G36*
G01*
X5475000Y29899990D02*
X6725000Y29899990D01*
G75*
G02*
X6825000Y29799990I0J-100000D01*
G01*
X6825000Y28999990D01*
G75*
G02*
X6725000Y28899990I-100000J0D01*
G01*
X5475000Y28899990D01*
G75*
G02*
X5375000Y28999990I0J100000D01*
G01*
X5375000Y29799990D01*
G75*
G02*
X5475000Y29899990I100000J0D01*
G01*
G37*
G04 #@! TD*
G04 #@! TO.C,D4*
G36*
G01*
X17561499Y81587497D02*
X18041499Y81587497D01*
G75*
G02*
X18101499Y81527497I0J-60000D01*
G01*
X18101499Y81047497D01*
G75*
G02*
X18041499Y80987497I-60000J0D01*
G01*
X17561499Y80987497D01*
G75*
G02*
X17501499Y81047497I0J60000D01*
G01*
X17501499Y81527497D01*
G75*
G02*
X17561499Y81587497I60000J0D01*
G01*
G37*
G36*
G01*
X19761499Y81587497D02*
X20241499Y81587497D01*
G75*
G02*
X20301499Y81527497I0J-60000D01*
G01*
X20301499Y81047497D01*
G75*
G02*
X20241499Y80987497I-60000J0D01*
G01*
X19761499Y80987497D01*
G75*
G02*
X19701499Y81047497I0J60000D01*
G01*
X19701499Y81527497D01*
G75*
G02*
X19761499Y81587497I60000J0D01*
G01*
G37*
G04 #@! TD*
G04 #@! TO.C,D7*
G36*
G01*
X19638502Y86212502D02*
X19158502Y86212502D01*
G75*
G02*
X19098502Y86272502I0J60000D01*
G01*
X19098502Y86752502D01*
G75*
G02*
X19158502Y86812502I60000J0D01*
G01*
X19638502Y86812502D01*
G75*
G02*
X19698502Y86752502I0J-60000D01*
G01*
X19698502Y86272502D01*
G75*
G02*
X19638502Y86212502I-60000J0D01*
G01*
G37*
G36*
G01*
X17438502Y86212502D02*
X16958502Y86212502D01*
G75*
G02*
X16898502Y86272502I0J60000D01*
G01*
X16898502Y86752502D01*
G75*
G02*
X16958502Y86812502I60000J0D01*
G01*
X17438502Y86812502D01*
G75*
G02*
X17498502Y86752502I0J-60000D01*
G01*
X17498502Y86272502D01*
G75*
G02*
X17438502Y86212502I-60000J0D01*
G01*
G37*
G04 #@! TD*
G04 #@! TO.C,R50*
G36*
G01*
X36750000Y42190000D02*
X36750000Y41410000D01*
G75*
G02*
X36680000Y41340000I-70000J0D01*
G01*
X36120000Y41340000D01*
G75*
G02*
X36050000Y41410000I0J70000D01*
G01*
X36050000Y42190000D01*
G75*
G02*
X36120000Y42260000I70000J0D01*
G01*
X36680000Y42260000D01*
G75*
G02*
X36750000Y42190000I0J-70000D01*
G01*
G37*
G36*
G01*
X35150000Y42190000D02*
X35150000Y41410000D01*
G75*
G02*
X35080000Y41340000I-70000J0D01*
G01*
X34520000Y41340000D01*
G75*
G02*
X34450000Y41410000I0J70000D01*
G01*
X34450000Y42190000D01*
G75*
G02*
X34520000Y42260000I70000J0D01*
G01*
X35080000Y42260000D01*
G75*
G02*
X35150000Y42190000I0J-70000D01*
G01*
G37*
G04 #@! TD*
G04 #@! TO.C,Q11*
G36*
G01*
X76475000Y71700000D02*
X75515000Y71700000D01*
G75*
G02*
X75395000Y71820000I0J120000D01*
G01*
X75395000Y73780000D01*
G75*
G02*
X75515000Y73900000I120000J0D01*
G01*
X76475000Y73900000D01*
G75*
G02*
X76595000Y73780000I0J-120000D01*
G01*
X76595000Y71820000D01*
G75*
G02*
X76475000Y71700000I-120000J0D01*
G01*
G37*
D24*
X78275000Y79100000D03*
G36*
G01*
X81035000Y71700000D02*
X80075000Y71700000D01*
G75*
G02*
X79955000Y71820000I0J120000D01*
G01*
X79955000Y73780000D01*
G75*
G02*
X80075000Y73900000I120000J0D01*
G01*
X81035000Y73900000D01*
G75*
G02*
X81155000Y73780000I0J-120000D01*
G01*
X81155000Y71820000D01*
G75*
G02*
X81035000Y71700000I-120000J0D01*
G01*
G37*
G04 #@! TD*
G04 #@! TO.C,U1*
G36*
G01*
X23677500Y50951300D02*
X23677500Y51458700D01*
G75*
G02*
X23718800Y51500000I41300J0D01*
G01*
X25656200Y51500000D01*
G75*
G02*
X25697500Y51458700I0J-41300D01*
G01*
X25697500Y50951300D01*
G75*
G02*
X25656200Y50910000I-41300J0D01*
G01*
X23718800Y50910000D01*
G75*
G02*
X23677500Y50951300I0J41300D01*
G01*
G37*
G36*
G01*
X23677500Y49681300D02*
X23677500Y50188700D01*
G75*
G02*
X23718800Y50230000I41300J0D01*
G01*
X25656200Y50230000D01*
G75*
G02*
X25697500Y50188700I0J-41300D01*
G01*
X25697500Y49681300D01*
G75*
G02*
X25656200Y49640000I-41300J0D01*
G01*
X23718800Y49640000D01*
G75*
G02*
X23677500Y49681300I0J41300D01*
G01*
G37*
G36*
G01*
X23677500Y48411300D02*
X23677500Y48918700D01*
G75*
G02*
X23718800Y48960000I41300J0D01*
G01*
X25656200Y48960000D01*
G75*
G02*
X25697500Y48918700I0J-41300D01*
G01*
X25697500Y48411300D01*
G75*
G02*
X25656200Y48370000I-41300J0D01*
G01*
X23718800Y48370000D01*
G75*
G02*
X23677500Y48411300I0J41300D01*
G01*
G37*
G36*
G01*
X23677500Y47141300D02*
X23677500Y47648700D01*
G75*
G02*
X23718800Y47690000I41300J0D01*
G01*
X25656200Y47690000D01*
G75*
G02*
X25697500Y47648700I0J-41300D01*
G01*
X25697500Y47141300D01*
G75*
G02*
X25656200Y47100000I-41300J0D01*
G01*
X23718800Y47100000D01*
G75*
G02*
X23677500Y47141300I0J41300D01*
G01*
G37*
G36*
G01*
X33037500Y47141300D02*
X33037500Y47648700D01*
G75*
G02*
X33078800Y47690000I41300J0D01*
G01*
X35016200Y47690000D01*
G75*
G02*
X35057500Y47648700I0J-41300D01*
G01*
X35057500Y47141300D01*
G75*
G02*
X35016200Y47100000I-41300J0D01*
G01*
X33078800Y47100000D01*
G75*
G02*
X33037500Y47141300I0J41300D01*
G01*
G37*
G36*
G01*
X33037500Y48411300D02*
X33037500Y48918700D01*
G75*
G02*
X33078800Y48960000I41300J0D01*
G01*
X35016200Y48960000D01*
G75*
G02*
X35057500Y48918700I0J-41300D01*
G01*
X35057500Y48411300D01*
G75*
G02*
X35016200Y48370000I-41300J0D01*
G01*
X33078800Y48370000D01*
G75*
G02*
X33037500Y48411300I0J41300D01*
G01*
G37*
G36*
G01*
X33037500Y49681300D02*
X33037500Y50188700D01*
G75*
G02*
X33078800Y50230000I41300J0D01*
G01*
X35016200Y50230000D01*
G75*
G02*
X35057500Y50188700I0J-41300D01*
G01*
X35057500Y49681300D01*
G75*
G02*
X35016200Y49640000I-41300J0D01*
G01*
X33078800Y49640000D01*
G75*
G02*
X33037500Y49681300I0J41300D01*
G01*
G37*
G36*
G01*
X33037500Y50951300D02*
X33037500Y51458700D01*
G75*
G02*
X33078800Y51500000I41300J0D01*
G01*
X35016200Y51500000D01*
G75*
G02*
X35057500Y51458700I0J-41300D01*
G01*
X35057500Y50951300D01*
G75*
G02*
X35016200Y50910000I-41300J0D01*
G01*
X33078800Y50910000D01*
G75*
G02*
X33037500Y50951300I0J41300D01*
G01*
G37*
G04 #@! TD*
G04 #@! TO.C,R1*
G36*
G01*
X20100000Y85135000D02*
X20100000Y84465000D01*
G75*
G02*
X20035000Y84400000I-65000J0D01*
G01*
X19515000Y84400000D01*
G75*
G02*
X19450000Y84465000I0J65000D01*
G01*
X19450000Y85135000D01*
G75*
G02*
X19515000Y85200000I65000J0D01*
G01*
X20035000Y85200000D01*
G75*
G02*
X20100000Y85135000I0J-65000D01*
G01*
G37*
G36*
G01*
X19125000Y85155000D02*
X19125000Y84445000D01*
G75*
G02*
X19080000Y84400000I-45000J0D01*
G01*
X18720000Y84400000D01*
G75*
G02*
X18675000Y84445000I0J45000D01*
G01*
X18675000Y85155000D01*
G75*
G02*
X18720000Y85200000I45000J0D01*
G01*
X19080000Y85200000D01*
G75*
G02*
X19125000Y85155000I0J-45000D01*
G01*
G37*
G36*
G01*
X18325000Y85155000D02*
X18325000Y84445000D01*
G75*
G02*
X18280000Y84400000I-45000J0D01*
G01*
X17920000Y84400000D01*
G75*
G02*
X17875000Y84445000I0J45000D01*
G01*
X17875000Y85155000D01*
G75*
G02*
X17920000Y85200000I45000J0D01*
G01*
X18280000Y85200000D01*
G75*
G02*
X18325000Y85155000I0J-45000D01*
G01*
G37*
G36*
G01*
X17550000Y85135000D02*
X17550000Y84465000D01*
G75*
G02*
X17485000Y84400000I-65000J0D01*
G01*
X16965000Y84400000D01*
G75*
G02*
X16900000Y84465000I0J65000D01*
G01*
X16900000Y85135000D01*
G75*
G02*
X16965000Y85200000I65000J0D01*
G01*
X17485000Y85200000D01*
G75*
G02*
X17550000Y85135000I0J-65000D01*
G01*
G37*
G36*
G01*
X17550000Y83335000D02*
X17550000Y82665000D01*
G75*
G02*
X17485000Y82600000I-65000J0D01*
G01*
X16965000Y82600000D01*
G75*
G02*
X16900000Y82665000I0J65000D01*
G01*
X16900000Y83335000D01*
G75*
G02*
X16965000Y83400000I65000J0D01*
G01*
X17485000Y83400000D01*
G75*
G02*
X17550000Y83335000I0J-65000D01*
G01*
G37*
G36*
G01*
X18325000Y83355000D02*
X18325000Y82645000D01*
G75*
G02*
X18280000Y82600000I-45000J0D01*
G01*
X17920000Y82600000D01*
G75*
G02*
X17875000Y82645000I0J45000D01*
G01*
X17875000Y83355000D01*
G75*
G02*
X17920000Y83400000I45000J0D01*
G01*
X18280000Y83400000D01*
G75*
G02*
X18325000Y83355000I0J-45000D01*
G01*
G37*
G36*
G01*
X19125000Y83355000D02*
X19125000Y82645000D01*
G75*
G02*
X19080000Y82600000I-45000J0D01*
G01*
X18720000Y82600000D01*
G75*
G02*
X18675000Y82645000I0J45000D01*
G01*
X18675000Y83355000D01*
G75*
G02*
X18720000Y83400000I45000J0D01*
G01*
X19080000Y83400000D01*
G75*
G02*
X19125000Y83355000I0J-45000D01*
G01*
G37*
G36*
G01*
X20100000Y83335000D02*
X20100000Y82665000D01*
G75*
G02*
X20035000Y82600000I-65000J0D01*
G01*
X19515000Y82600000D01*
G75*
G02*
X19450000Y82665000I0J65000D01*
G01*
X19450000Y83335000D01*
G75*
G02*
X19515000Y83400000I65000J0D01*
G01*
X20035000Y83400000D01*
G75*
G02*
X20100000Y83335000I0J-65000D01*
G01*
G37*
G04 #@! TD*
G04 #@! TO.C,D25*
G36*
G01*
X10200000Y39260000D02*
X10200000Y38240000D01*
G75*
G02*
X10110000Y38150000I-90000J0D01*
G01*
X9390000Y38150000D01*
G75*
G02*
X9300000Y38240000I0J90000D01*
G01*
X9300000Y39260000D01*
G75*
G02*
X9390000Y39350000I90000J0D01*
G01*
X10110000Y39350000D01*
G75*
G02*
X10200000Y39260000I0J-90000D01*
G01*
G37*
G36*
G01*
X6900000Y39260000D02*
X6900000Y38240000D01*
G75*
G02*
X6810000Y38150000I-90000J0D01*
G01*
X6090000Y38150000D01*
G75*
G02*
X6000000Y38240000I0J90000D01*
G01*
X6000000Y39260000D01*
G75*
G02*
X6090000Y39350000I90000J0D01*
G01*
X6810000Y39350000D01*
G75*
G02*
X6900000Y39260000I0J-90000D01*
G01*
G37*
G04 #@! TD*
D11*
G04 #@! TO.C,R7*
X59164000Y82895000D03*
G36*
G01*
X59789000Y83349999D02*
X58539000Y83349999D01*
G75*
G02*
X58439000Y83449999I0J100000D01*
G01*
X58439000Y84249999D01*
G75*
G02*
X58539000Y84349999I100000J0D01*
G01*
X59789000Y84349999D01*
G75*
G02*
X59889000Y84249999I0J-100000D01*
G01*
X59889000Y83449999D01*
G75*
G02*
X59789000Y83349999I-100000J0D01*
G01*
G37*
G36*
G01*
X59789000Y85250021D02*
X58539000Y85250021D01*
G75*
G02*
X58439000Y85350021I0J100000D01*
G01*
X58439000Y86150021D01*
G75*
G02*
X58539000Y86250021I100000J0D01*
G01*
X59789000Y86250021D01*
G75*
G02*
X59889000Y86150021I0J-100000D01*
G01*
X59889000Y85350021D01*
G75*
G02*
X59789000Y85250021I-100000J0D01*
G01*
G37*
X59164000Y86705000D03*
G04 #@! TD*
G04 #@! TO.C,C1*
G36*
G01*
X35860000Y77215001D02*
X36540000Y77215001D01*
G75*
G02*
X36625000Y77130001I0J-85000D01*
G01*
X36625000Y76450001D01*
G75*
G02*
X36540000Y76365001I-85000J0D01*
G01*
X35860000Y76365001D01*
G75*
G02*
X35775000Y76450001I0J85000D01*
G01*
X35775000Y77130001D01*
G75*
G02*
X35860000Y77215001I85000J0D01*
G01*
G37*
G36*
G01*
X35860000Y75634999D02*
X36540000Y75634999D01*
G75*
G02*
X36625000Y75549999I0J-85000D01*
G01*
X36625000Y74869999D01*
G75*
G02*
X36540000Y74784999I-85000J0D01*
G01*
X35860000Y74784999D01*
G75*
G02*
X35775000Y74869999I0J85000D01*
G01*
X35775000Y75549999D01*
G75*
G02*
X35860000Y75634999I85000J0D01*
G01*
G37*
G04 #@! TD*
G04 #@! TO.C,R13*
X74305000Y101000000D03*
G36*
G01*
X73850001Y101625000D02*
X73850001Y100375000D01*
G75*
G02*
X73750001Y100275000I-100000J0D01*
G01*
X72950001Y100275000D01*
G75*
G02*
X72850001Y100375000I0J100000D01*
G01*
X72850001Y101625000D01*
G75*
G02*
X72950001Y101725000I100000J0D01*
G01*
X73750001Y101725000D01*
G75*
G02*
X73850001Y101625000I0J-100000D01*
G01*
G37*
G36*
G01*
X71949979Y101625000D02*
X71949979Y100375000D01*
G75*
G02*
X71849979Y100275000I-100000J0D01*
G01*
X71049979Y100275000D01*
G75*
G02*
X70949979Y100375000I0J100000D01*
G01*
X70949979Y101625000D01*
G75*
G02*
X71049979Y101725000I100000J0D01*
G01*
X71849979Y101725000D01*
G75*
G02*
X71949979Y101625000I0J-100000D01*
G01*
G37*
X70495000Y101000000D03*
G04 #@! TD*
G04 #@! TO.C,R44*
G36*
G01*
X48750000Y63110000D02*
X48750000Y63890000D01*
G75*
G02*
X48820000Y63960000I70000J0D01*
G01*
X49380000Y63960000D01*
G75*
G02*
X49450000Y63890000I0J-70000D01*
G01*
X49450000Y63110000D01*
G75*
G02*
X49380000Y63040000I-70000J0D01*
G01*
X48820000Y63040000D01*
G75*
G02*
X48750000Y63110000I0J70000D01*
G01*
G37*
G36*
G01*
X50350000Y63110000D02*
X50350000Y63890000D01*
G75*
G02*
X50420000Y63960000I70000J0D01*
G01*
X50980000Y63960000D01*
G75*
G02*
X51050000Y63890000I0J-70000D01*
G01*
X51050000Y63110000D01*
G75*
G02*
X50980000Y63040000I-70000J0D01*
G01*
X50420000Y63040000D01*
G75*
G02*
X50350000Y63110000I0J70000D01*
G01*
G37*
G04 #@! TD*
G04 #@! TO.C,R68*
G36*
G01*
X17450000Y49610000D02*
X17450000Y50390000D01*
G75*
G02*
X17520000Y50460000I70000J0D01*
G01*
X18080000Y50460000D01*
G75*
G02*
X18150000Y50390000I0J-70000D01*
G01*
X18150000Y49610000D01*
G75*
G02*
X18080000Y49540000I-70000J0D01*
G01*
X17520000Y49540000D01*
G75*
G02*
X17450000Y49610000I0J70000D01*
G01*
G37*
G36*
G01*
X19050000Y49610000D02*
X19050000Y50390000D01*
G75*
G02*
X19120000Y50460000I70000J0D01*
G01*
X19680000Y50460000D01*
G75*
G02*
X19750000Y50390000I0J-70000D01*
G01*
X19750000Y49610000D01*
G75*
G02*
X19680000Y49540000I-70000J0D01*
G01*
X19120000Y49540000D01*
G75*
G02*
X19050000Y49610000I0J70000D01*
G01*
G37*
G04 #@! TD*
G04 #@! TO.C,R20*
X61196000Y82943000D03*
G36*
G01*
X61821000Y83397999D02*
X60571000Y83397999D01*
G75*
G02*
X60471000Y83497999I0J100000D01*
G01*
X60471000Y84297999D01*
G75*
G02*
X60571000Y84397999I100000J0D01*
G01*
X61821000Y84397999D01*
G75*
G02*
X61921000Y84297999I0J-100000D01*
G01*
X61921000Y83497999D01*
G75*
G02*
X61821000Y83397999I-100000J0D01*
G01*
G37*
G36*
G01*
X61821000Y85298021D02*
X60571000Y85298021D01*
G75*
G02*
X60471000Y85398021I0J100000D01*
G01*
X60471000Y86198021D01*
G75*
G02*
X60571000Y86298021I100000J0D01*
G01*
X61821000Y86298021D01*
G75*
G02*
X61921000Y86198021I0J-100000D01*
G01*
X61921000Y85398021D01*
G75*
G02*
X61821000Y85298021I-100000J0D01*
G01*
G37*
X61196000Y86753000D03*
G04 #@! TD*
D29*
G04 #@! TO.C,P1*
X23600000Y98599000D03*
X63400000Y98599000D03*
D30*
X30750000Y92599000D03*
X34750000Y92599000D03*
X38250000Y92599000D03*
X41750000Y92599000D03*
X45250000Y92599000D03*
X48750000Y92599000D03*
X52250000Y92599000D03*
X56250000Y92599000D03*
X30750000Y96599000D03*
X34750000Y96599000D03*
X38250000Y96599000D03*
X41750000Y96599000D03*
X45250000Y96599000D03*
X48750000Y96599000D03*
X52250000Y96599000D03*
X56250000Y96599000D03*
X30750000Y100599000D03*
X34750000Y100599000D03*
X38250000Y100599000D03*
X41750000Y100599000D03*
X45250000Y100599000D03*
X48750000Y100599000D03*
X52250000Y100599000D03*
X56250000Y100599000D03*
G04 #@! TD*
G04 #@! TO.C,R43*
G36*
G01*
X48750000Y66210000D02*
X48750000Y66990000D01*
G75*
G02*
X48820000Y67060000I70000J0D01*
G01*
X49380000Y67060000D01*
G75*
G02*
X49450000Y66990000I0J-70000D01*
G01*
X49450000Y66210000D01*
G75*
G02*
X49380000Y66140000I-70000J0D01*
G01*
X48820000Y66140000D01*
G75*
G02*
X48750000Y66210000I0J70000D01*
G01*
G37*
G36*
G01*
X50350000Y66210000D02*
X50350000Y66990000D01*
G75*
G02*
X50420000Y67060000I70000J0D01*
G01*
X50980000Y67060000D01*
G75*
G02*
X51050000Y66990000I0J-70000D01*
G01*
X51050000Y66210000D01*
G75*
G02*
X50980000Y66140000I-70000J0D01*
G01*
X50420000Y66140000D01*
G75*
G02*
X50350000Y66210000I0J70000D01*
G01*
G37*
G04 #@! TD*
D11*
G04 #@! TO.C,R12*
X27200000Y82895000D03*
G36*
G01*
X27825000Y83349999D02*
X26575000Y83349999D01*
G75*
G02*
X26475000Y83449999I0J100000D01*
G01*
X26475000Y84249999D01*
G75*
G02*
X26575000Y84349999I100000J0D01*
G01*
X27825000Y84349999D01*
G75*
G02*
X27925000Y84249999I0J-100000D01*
G01*
X27925000Y83449999D01*
G75*
G02*
X27825000Y83349999I-100000J0D01*
G01*
G37*
G36*
G01*
X27825000Y85250021D02*
X26575000Y85250021D01*
G75*
G02*
X26475000Y85350021I0J100000D01*
G01*
X26475000Y86150021D01*
G75*
G02*
X26575000Y86250021I100000J0D01*
G01*
X27825000Y86250021D01*
G75*
G02*
X27925000Y86150021I0J-100000D01*
G01*
X27925000Y85350021D01*
G75*
G02*
X27825000Y85250021I-100000J0D01*
G01*
G37*
X27200000Y86705000D03*
G04 #@! TD*
G04 #@! TO.C,R18*
X34500000Y82895000D03*
G36*
G01*
X35125000Y83349999D02*
X33875000Y83349999D01*
G75*
G02*
X33775000Y83449999I0J100000D01*
G01*
X33775000Y84249999D01*
G75*
G02*
X33875000Y84349999I100000J0D01*
G01*
X35125000Y84349999D01*
G75*
G02*
X35225000Y84249999I0J-100000D01*
G01*
X35225000Y83449999D01*
G75*
G02*
X35125000Y83349999I-100000J0D01*
G01*
G37*
G36*
G01*
X35125000Y85250021D02*
X33875000Y85250021D01*
G75*
G02*
X33775000Y85350021I0J100000D01*
G01*
X33775000Y86150021D01*
G75*
G02*
X33875000Y86250021I100000J0D01*
G01*
X35125000Y86250021D01*
G75*
G02*
X35225000Y86150021I0J-100000D01*
G01*
X35225000Y85350021D01*
G75*
G02*
X35125000Y85250021I-100000J0D01*
G01*
G37*
X34500000Y86705000D03*
G04 #@! TD*
D17*
G04 #@! TO.C,P4*
X60400000Y4800000D03*
G04 #@! TD*
G04 #@! TO.C,R53*
G36*
G01*
X20590000Y40000000D02*
X19810000Y40000000D01*
G75*
G02*
X19740000Y40070000I0J70000D01*
G01*
X19740000Y40630000D01*
G75*
G02*
X19810000Y40700000I70000J0D01*
G01*
X20590000Y40700000D01*
G75*
G02*
X20660000Y40630000I0J-70000D01*
G01*
X20660000Y40070000D01*
G75*
G02*
X20590000Y40000000I-70000J0D01*
G01*
G37*
G36*
G01*
X20590000Y41600000D02*
X19810000Y41600000D01*
G75*
G02*
X19740000Y41670000I0J70000D01*
G01*
X19740000Y42230000D01*
G75*
G02*
X19810000Y42300000I70000J0D01*
G01*
X20590000Y42300000D01*
G75*
G02*
X20660000Y42230000I0J-70000D01*
G01*
X20660000Y41670000D01*
G75*
G02*
X20590000Y41600000I-70000J0D01*
G01*
G37*
G04 #@! TD*
G04 #@! TO.C,D13*
G36*
G01*
X8999998Y73800001D02*
X8099998Y73800001D01*
G75*
G02*
X7999998Y73900001I0J100000D01*
G01*
X7999998Y74700001D01*
G75*
G02*
X8099998Y74800001I100000J0D01*
G01*
X8999998Y74800001D01*
G75*
G02*
X9099998Y74700001I0J-100000D01*
G01*
X9099998Y73900001D01*
G75*
G02*
X8999998Y73800001I-100000J0D01*
G01*
G37*
G36*
G01*
X8999998Y75500001D02*
X8099998Y75500001D01*
G75*
G02*
X7999998Y75600001I0J100000D01*
G01*
X7999998Y76400001D01*
G75*
G02*
X8099998Y76500001I100000J0D01*
G01*
X8999998Y76500001D01*
G75*
G02*
X9099998Y76400001I0J-100000D01*
G01*
X9099998Y75600001D01*
G75*
G02*
X8999998Y75500001I-100000J0D01*
G01*
G37*
G04 #@! TD*
G04 #@! TO.C,Q23*
G36*
G01*
X22475000Y47500000D02*
X22475000Y47200000D01*
G75*
G02*
X22325000Y47050000I-150000J0D01*
G01*
X21150000Y47050000D01*
G75*
G02*
X21000000Y47200000I0J150000D01*
G01*
X21000000Y47500000D01*
G75*
G02*
X21150000Y47650000I150000J0D01*
G01*
X22325000Y47650000D01*
G75*
G02*
X22475000Y47500000I0J-150000D01*
G01*
G37*
G36*
G01*
X20600000Y48450000D02*
X20600000Y48150000D01*
G75*
G02*
X20450000Y48000000I-150000J0D01*
G01*
X19275000Y48000000D01*
G75*
G02*
X19125000Y48150000I0J150000D01*
G01*
X19125000Y48450000D01*
G75*
G02*
X19275000Y48600000I150000J0D01*
G01*
X20450000Y48600000D01*
G75*
G02*
X20600000Y48450000I0J-150000D01*
G01*
G37*
G36*
G01*
X22475000Y49400000D02*
X22475000Y49100000D01*
G75*
G02*
X22325000Y48950000I-150000J0D01*
G01*
X21150000Y48950000D01*
G75*
G02*
X21000000Y49100000I0J150000D01*
G01*
X21000000Y49400000D01*
G75*
G02*
X21150000Y49550000I150000J0D01*
G01*
X22325000Y49550000D01*
G75*
G02*
X22475000Y49400000I0J-150000D01*
G01*
G37*
G04 #@! TD*
D31*
G04 #@! TO.C,J2*
X51058607Y3050000D03*
X51058607Y6950000D03*
X52328607Y3050000D03*
X52328607Y6950000D03*
X53598607Y3050000D03*
X53598607Y6950000D03*
X54868607Y3050000D03*
X54868607Y6950000D03*
X56138607Y3050000D03*
X56138607Y6950000D03*
G04 #@! TD*
G04 #@! TO.C,R58*
G36*
G01*
X11990000Y34230000D02*
X11210000Y34230000D01*
G75*
G02*
X11140000Y34300000I0J70000D01*
G01*
X11140000Y34860000D01*
G75*
G02*
X11210000Y34930000I70000J0D01*
G01*
X11990000Y34930000D01*
G75*
G02*
X12060000Y34860000I0J-70000D01*
G01*
X12060000Y34300000D01*
G75*
G02*
X11990000Y34230000I-70000J0D01*
G01*
G37*
G36*
G01*
X11990000Y35830000D02*
X11210000Y35830000D01*
G75*
G02*
X11140000Y35900000I0J70000D01*
G01*
X11140000Y36460000D01*
G75*
G02*
X11210000Y36530000I70000J0D01*
G01*
X11990000Y36530000D01*
G75*
G02*
X12060000Y36460000I0J-70000D01*
G01*
X12060000Y35900000D01*
G75*
G02*
X11990000Y35830000I-70000J0D01*
G01*
G37*
G04 #@! TD*
D11*
G04 #@! TO.C,F5*
X32300000Y86650000D03*
G36*
G01*
X31400000Y85305010D02*
X31400000Y85995010D01*
G75*
G02*
X31630000Y86225010I230000J0D01*
G01*
X32970000Y86225010D01*
G75*
G02*
X33200000Y85995010I0J-230000D01*
G01*
X33200000Y85305010D01*
G75*
G02*
X32970000Y85075010I-230000J0D01*
G01*
X31630000Y85075010D01*
G75*
G02*
X31400000Y85305010I0J230000D01*
G01*
G37*
G36*
G01*
X31400000Y82404990D02*
X31400000Y83094990D01*
G75*
G02*
X31630000Y83324990I230000J0D01*
G01*
X32970000Y83324990D01*
G75*
G02*
X33200000Y83094990I0J-230000D01*
G01*
X33200000Y82404990D01*
G75*
G02*
X32970000Y82174990I-230000J0D01*
G01*
X31630000Y82174990D01*
G75*
G02*
X31400000Y82404990I0J230000D01*
G01*
G37*
X32300000Y81750000D03*
G04 #@! TD*
G04 #@! TO.C,R62*
G36*
G01*
X13760000Y48090000D02*
X12980000Y48090000D01*
G75*
G02*
X12910000Y48160000I0J70000D01*
G01*
X12910000Y48720000D01*
G75*
G02*
X12980000Y48790000I70000J0D01*
G01*
X13760000Y48790000D01*
G75*
G02*
X13830000Y48720000I0J-70000D01*
G01*
X13830000Y48160000D01*
G75*
G02*
X13760000Y48090000I-70000J0D01*
G01*
G37*
G36*
G01*
X13760000Y49690000D02*
X12980000Y49690000D01*
G75*
G02*
X12910000Y49760000I0J70000D01*
G01*
X12910000Y50320000D01*
G75*
G02*
X12980000Y50390000I70000J0D01*
G01*
X13760000Y50390000D01*
G75*
G02*
X13830000Y50320000I0J-70000D01*
G01*
X13830000Y49760000D01*
G75*
G02*
X13760000Y49690000I-70000J0D01*
G01*
G37*
G04 #@! TD*
G04 #@! TO.C,F2*
X52052000Y86750000D03*
G36*
G01*
X51152000Y85405010D02*
X51152000Y86095010D01*
G75*
G02*
X51382000Y86325010I230000J0D01*
G01*
X52722000Y86325010D01*
G75*
G02*
X52952000Y86095010I0J-230000D01*
G01*
X52952000Y85405010D01*
G75*
G02*
X52722000Y85175010I-230000J0D01*
G01*
X51382000Y85175010D01*
G75*
G02*
X51152000Y85405010I0J230000D01*
G01*
G37*
G36*
G01*
X51152000Y82504990D02*
X51152000Y83194990D01*
G75*
G02*
X51382000Y83424990I230000J0D01*
G01*
X52722000Y83424990D01*
G75*
G02*
X52952000Y83194990I0J-230000D01*
G01*
X52952000Y82504990D01*
G75*
G02*
X52722000Y82274990I-230000J0D01*
G01*
X51382000Y82274990D01*
G75*
G02*
X51152000Y82504990I0J230000D01*
G01*
G37*
X52052000Y81850000D03*
G04 #@! TD*
D17*
G04 #@! TO.C,J8*
X9000000Y85000000D03*
G04 #@! TD*
G04 #@! TO.C,J7*
X9100000Y90200000D03*
G04 #@! TD*
M02*
