M48
; DRILL file {KiCad (6.0.9)} date Sun Dec 11 18:11:56 2022
; FORMAT={2:4/ absolute / inch / suppress leading zeros}
; #@! TF.CreationDate,2022-12-11T18:11:56+03:00
; #@! TF.GenerationSoftware,Kicad,Pcbnew,(6.0.9)
; #@! TF.FileFunction,MixedPlating,1,4
FMAT,2
INCH,TZ
; #@! TA.AperFunction,Plated,PTH,ComponentDrill
T1C0.0118
; #@! TA.AperFunction,Plated,PTH,ViaDrill
T2C0.0118
; #@! TA.AperFunction,Plated,PTH,ComponentDrill
T3C0.0118
; #@! TA.AperFunction,Plated,PTH,ViaDrill
T4C0.0197
; #@! TA.AperFunction,Plated,PTH,ComponentDrill
T5C0.0320
; #@! TA.AperFunction,Plated,PTH,ComponentDrill
T6C0.0394
; #@! TA.AperFunction,Plated,PTH,ComponentDrill
T7C0.0591
; #@! TA.AperFunction,Plated,PTH,ViaDrill
T8C0.0787
; #@! TA.AperFunction,Plated,PTH,ComponentDrill
T9C0.0984
; #@! TA.AperFunction,NonPlated,NPTH,ComponentDrill
T10C0.0394
%
G90
G05
T1
X13711Y22717
X14065Y29616
X14459Y29616
X16663Y22717
X16978Y22717
X17293Y22717
X27048Y926
X27393Y719
X27481Y2619
X27511Y1221
T2
X693Y38005
X893Y31405
X893Y23905
X893Y15305
X993Y37505
X993Y31905
X1229Y38105
X1293Y39505
X1393Y38605
X1496Y16732
X1593Y39805
X1593Y39105
X1593Y4505
X1652Y10861
X1654Y11890
X1693Y405
X1993Y30005
X2008Y17382
X2152Y15761
X2193Y32905
X2193Y26805
X2293Y41505
X2293Y33405
X2336Y21724
X2340Y18807
X2362Y16890
X2370Y23231
X2386Y35405
X2393Y32405
X2493Y31605
X2579Y19272
X2638Y16220
X2675Y30331
X2686Y17289
X2697Y15606
X2795Y28701
X2835Y16772
X2851Y24832
X2913Y20906
X2953Y19882
X2972Y18327
X3031Y22362
X3252Y16361
X3268Y19123
X3523Y23269
X3544Y27946
X3544Y24988
X3593Y38869
X3642Y19433
X3667Y20379
X3721Y18105
X3858Y18574
X3858Y11614
X3898Y29567
X3944Y17881
X4083Y19496
X4093Y38605
X4106Y28989
X4114Y12874
X4291Y12087
X4293Y34705
X4370Y19853
X4488Y18515
X4493Y37305
X4593Y38205
X4593Y34005
X4605Y16697
X4634Y13976
X4646Y15866
X4651Y32268
X4657Y19094
X4693Y39805
X4693Y35705
X4803Y24016
X4803Y21654
X4843Y27677
X4967Y20158
X5100Y14557
X5183Y17579
X5197Y18110
X5260Y12780
X5276Y16929
X5372Y19722
X5394Y20036
X5406Y12429
X5492Y18740
X5512Y11811
X5645Y33262
X5699Y14820
X5787Y18002
X5827Y21535
X5827Y11890
X5993Y30505
X6042Y20749
X6052Y16761
X6052Y11361
X6052Y15889
X6102Y19024
X6102Y18709
X6102Y13228
X6110Y12027
X6155Y20455
X6158Y19652
X6193Y36505
X6265Y19356
X6293Y38805
X6293Y35305
X6293Y31542
X6352Y17661
X6393Y40005
X6393Y38105
X6457Y30355
X6536Y29565
X6614Y10945
X6614Y13557
X6614Y12751
X6676Y32426
X6729Y37305
X6816Y17835
X6831Y20315
X6850Y19409
X7126Y32847
X7126Y30511
X7126Y21535
X7149Y14321
X7173Y31838
X7193Y35905
X7193Y33858
X7244Y39449
X7252Y15161
X7279Y16827
X7283Y17165
X7322Y34145
X7352Y12761
X7421Y32362
X7441Y30505
X7652Y15261
X7652Y11561
X7717Y10512
X7785Y30511
X7991Y15162
X8060Y12205
X8110Y33386
X8110Y10157
X8133Y35351
X8152Y16261
X8193Y305
X8232Y9114
X8334Y18418
X8346Y15157
X8366Y20354
X8386Y16890
X8397Y13073
X8406Y19016
X8453Y33831
X8504Y21535
X8543Y10157
X8693Y33405
X8693Y5105
X8700Y6374
X8736Y8760
X8740Y28583
X8740Y11024
X8740Y7874
X8794Y40011
X8798Y14614
X8966Y18966
X8976Y14055
X9016Y17283
X9093Y12205
X9121Y3574
X9291Y15709
X9456Y20427
X9465Y18496
X9528Y28661
X9593Y37105
X9685Y31024
X9693Y35705
X9693Y34805
X9695Y10641
X9764Y16457
X9801Y12581
X9882Y8465
X9961Y4921
X9990Y19194
X10079Y31024
X10207Y4696
X10295Y5886
X10350Y20044
X10350Y15005
X10354Y40669
X10516Y30402
X10531Y4567
X10591Y21024
X10669Y5630
X10748Y4213
X10984Y19803
X11063Y20709
X11102Y28937
X11102Y4252
X11135Y37306
X11142Y28583
X11142Y5197
X11152Y39051
X11169Y35624
X11295Y1229
X11299Y21496
X11417Y4213
X11457Y20945
X11614Y12520
X11614Y6732
X11654Y9803
X11693Y20354
X11811Y15433
X12283Y21181
X12343Y15472
X12393Y14605
X12393Y12605
X12396Y18329
X12445Y3094
X12493Y17005
X12693Y37305
X12893Y39105
X12893Y6605
X12893Y5197
X12913Y20197
X12913Y3071
X13031Y30827
X13150Y29016
X13193Y17005
X13273Y12432
X13346Y22165
X13381Y12118
X13638Y3583
X13693Y37205
X13693Y305
X13780Y4803
X13858Y14675
X13858Y13228
X14000Y5057
X14003Y4582
X14016Y7047
X14055Y8228
X14079Y21772
X14094Y22402
X14164Y14313
X14250Y4255
X14393Y38805
X14554Y20397
X14630Y3745
X14993Y35105
X15000Y30079
X15093Y37205
X15591Y3740
X15693Y35105
X15793Y40205
X15793Y38805
X16393Y37205
X16693Y35105
X16811Y30157
X17193Y31905
X17693Y31305
X17793Y38805
X17793Y37205
X18147Y30185
X18393Y35105
X18413Y32155
X18891Y1239
X18933Y32045
X19193Y37205
X19252Y22165
X19291Y1850
X19396Y31940
X19577Y31388
X19893Y38905
X20157Y5118
X20394Y28110
X20394Y23031
X20413Y26144
X20593Y37205
X20709Y28819
X20906Y1890
X20945Y31930
X21593Y33205
X21693Y40205
X21693Y30906
X21793Y38805
X21793Y37205
X22008Y4646
X22441Y26969
X22493Y30485
X22593Y35205
X22618Y28484
X22712Y197
X22835Y23031
X22874Y24685
X22923Y29892
X23150Y5709
X23224Y30536
X23525Y22130
X23693Y35705
X23793Y29505
X23858Y22677
X23993Y39005
X23993Y31805
X24291Y27087
X24319Y961
X24403Y2462
X24764Y22047
X24793Y33305
X24961Y26142
X24993Y32705
X25102Y173
X25276Y24646
X25344Y29084
X25524Y29342
X25593Y35705
X25593Y31605
X25667Y39655
X25669Y5551
X25693Y30105
X25866Y22283
X25945Y28622
X26122Y27067
X26693Y4449
X26826Y27264
X26893Y35305
X27015Y39748
X27109Y27933
X27531Y27037
X27602Y22296
X27638Y24252
X28090Y27933
X28093Y38405
X28193Y32605
X28268Y4094
X28346Y5630
X28465Y22087
X28530Y24563
X28661Y27008
X28843Y213
X28976Y29805
X29103Y27189
X29193Y41305
X29378Y2693
X29409Y709
X29449Y5433
X29512Y27740
X29720Y1202
X29730Y700
X29730Y247
X29893Y39205
X30118Y5039
X30220Y1202
X30230Y700
X30230Y247
X30472Y38898
X30493Y41305
X30611Y24750
X30720Y1202
X30730Y700
X30730Y247
X30793Y29005
X30906Y22047
X31016Y41563
X31220Y4870
X31220Y1220
X31230Y4368
X31230Y3915
X31230Y719
X31230Y266
X31339Y33189
X31535Y4358
X31535Y709
X31593Y5005
X31654Y22087
X31811Y27126
X31850Y19685
X31850Y18543
X31850Y15394
X31850Y12795
X31850Y11575
X31893Y39205
X31969Y9252
X31993Y38605
X32047Y6693
X32086Y27441
X32441Y27402
X32559Y22871
X32593Y32105
X32593Y29905
X32593Y405
X32612Y33775
X32638Y26181
X32717Y26496
X32717Y20207
X32793Y28605
X32835Y33465
X32992Y27677
X32993Y34005
X33347Y28043
X33593Y29805
X33622Y12165
X33819Y12520
X33993Y32705
X33993Y5405
X34016Y21601
X34016Y14900
X34035Y38327
X34055Y27487
X34094Y28878
T3
X6329Y21742
X6722Y21742
X15148Y20699
X15148Y18061
X15148Y17746
X15148Y17431
X15148Y17116
X15148Y16801
X15148Y16486
X15148Y15856
X15148Y15541
X15148Y15226
X15148Y14911
X15148Y14596
X15148Y14281
X15148Y13967
X15148Y13652
X15148Y13337
X15148Y13022
X15148Y12077
X15148Y11762
X15148Y11447
X15148Y10187
X15148Y9872
X15148Y9557
X15148Y9242
X15148Y8297
X15148Y7982
X15148Y7667
X15148Y7352
X15148Y7037
X15148Y6014
X15148Y20384
X15148Y16171
X15148Y12707
X15148Y12392
X15148Y11132
X15148Y10817
X15148Y10502
X15148Y8927
X15148Y8612
X15384Y21565
X15463Y6014
X15778Y6014
X15856Y21565
X16093Y6014
X16329Y21565
X16407Y6014
X16722Y6014
X16801Y21565
X17037Y6014
X17274Y21565
X17352Y6014
X17667Y6014
X17707Y21565
X17982Y6014
X18179Y21565
X18297Y6014
X18612Y6014
X18652Y21565
X18927Y6014
X19124Y21565
X19242Y6014
X19557Y6014
X19596Y21565
X19872Y6014
X20069Y21565
X20187Y6014
X20502Y6014
X20541Y21565
X20817Y6014
X21014Y21565
X21132Y6014
X21447Y6014
X21486Y21565
X21762Y6014
X21959Y21565
X22077Y6014
X22431Y21565
X22904Y21565
X23376Y21565
X23848Y21565
X24242Y6014
X24321Y21565
X24557Y6014
X24793Y21565
X24872Y6014
X25187Y6014
X25266Y21565
X25738Y21565
X26211Y21565
X26683Y21565
X27156Y21565
X27628Y21565
X28100Y21565
X28573Y21565
X29045Y21565
X29203Y6014
X29518Y21565
X29990Y21565
X30463Y21565
X31407Y21565
X31565Y14911
X31565Y14518
X31565Y14124
X31565Y13730
X31565Y13337
X31565Y12943
X31565Y12549
X31565Y12156
X31565Y10935
X31565Y10620
X31565Y6014
X31565Y20581
X31565Y20187
T4
X26152Y32284
X26152Y31891
X26152Y31497
X26152Y31103
X26152Y30710
X26152Y30316
X26152Y29922
X26220Y38189
X26220Y37795
X26220Y37402
X26220Y37008
X26220Y36614
X26220Y36220
X26220Y35827
X27795Y28900
X28031Y34449
X28268Y29055
X28386Y35005
X28671Y32284
X28671Y31891
X28671Y31497
X28671Y31103
X28671Y30710
X28671Y30316
X28691Y29954
X28740Y38189
X28740Y37795
X28740Y37402
X28740Y37008
X28740Y36614
X28740Y36220
X28740Y35827
X28740Y34449
X28858Y28900
X29528Y38151
X29528Y37757
X29528Y37363
X29528Y36969
X29528Y36576
X29528Y36182
X29528Y35788
X29557Y32245
X29557Y31851
X29557Y31458
X29557Y31064
X29557Y30670
X29557Y30277
X29557Y29883
X31299Y34449
X31299Y28583
X31693Y34882
X31715Y28939
X32047Y38151
X32047Y37757
X32047Y37363
X32047Y36969
X32047Y36576
X32047Y36182
X32047Y35788
X32077Y32245
X32077Y31851
X32077Y31458
X32077Y31064
X32077Y30670
X32077Y30277
X32077Y29883
X32087Y34449
X32126Y28583
T5
X9646Y34136
X9646Y32636
X10709Y34136
X10709Y32636
X11811Y34136
X11811Y32636
X12717Y34114
X12717Y32185
X13583Y34136
X13583Y32636
X14449Y34154
X14449Y32224
X15315Y34136
X15315Y32636
X16181Y34154
X16181Y32224
X17047Y34136
X17047Y32636
X17874Y34136
X17874Y32636
X18851Y34145
X18851Y32645
X19621Y34136
X19621Y32636
X20493Y34154
X20493Y32224
X21593Y34134
X21593Y32205
X22493Y34136
X22493Y32636
X23293Y34136
X23293Y32636
X24093Y34155
X24093Y32655
X27754Y40709
X27754Y39764
X27754Y38937
X29254Y40709
X29254Y39764
X29254Y38937
T6
X5207Y21919
X5384Y28022
X7667Y21919
X9360Y21919
X10108Y21919
X10128Y28022
X12077Y28022
X12628Y21919
X12805Y28022
X23780Y1890
X23780Y748
X24016Y24528
X24393Y28780
X26220Y24528
T7
X12106Y39606
X12106Y38031
X12106Y36456
X13681Y39606
X13681Y38031
X13681Y36456
X15059Y39606
X15059Y38031
X15059Y36456
X16437Y39606
X16437Y38031
X16437Y36456
X17815Y39606
X17815Y38031
X17815Y36456
X19193Y39606
X19193Y38031
X19193Y36456
X20571Y39606
X20571Y38031
X20571Y36456
X22146Y39606
X22146Y38031
X22146Y36456
T8
X30472Y2480
T10
X10516Y2549
X12248Y2549
T9
X9291Y39409G85X9291Y38228
G05
X24961Y39409G85X24961Y38228
G05
T0
M30
