G04 #@! TF.GenerationSoftware,KiCad,Pcbnew,(6.0.1)*
G04 #@! TF.CreationDate,2022-03-15T09:01:39+02:00*
G04 #@! TF.ProjectId,alphax_2ch,616c7068-6178-45f3-9263-682e6b696361,b*
G04 #@! TF.SameCoordinates,PX141f5e0PYa2cace0*
G04 #@! TF.FileFunction,Legend,Bot*
G04 #@! TF.FilePolarity,Positive*
%FSLAX46Y46*%
G04 Gerber Fmt 4.6, Leading zero omitted, Abs format (unit mm)*
G04 Created by KiCad (PCBNEW (6.0.1)) date 2022-03-15 09:01:39*
%MOMM*%
%LPD*%
G01*
G04 APERTURE LIST*
%ADD10C,0.250000*%
%ADD11C,0.170000*%
%ADD12C,0.200000*%
%ADD13C,0.130000*%
%ADD14C,0.127000*%
%ADD15C,0.150000*%
%ADD16C,0.099060*%
%ADD17C,0.120000*%
%ADD18C,0.002540*%
G04 APERTURE END LIST*
D10*
X3950000Y27614286D02*
X3892857Y27728572D01*
X3892857Y27900000D01*
X3950000Y28071429D01*
X4064285Y28185715D01*
X4178571Y28242858D01*
X4407142Y28300000D01*
X4578571Y28300000D01*
X4807142Y28242858D01*
X4921428Y28185715D01*
X5035714Y28071429D01*
X5092857Y27900000D01*
X5092857Y27785715D01*
X5035714Y27614286D01*
X4978571Y27557143D01*
X4578571Y27557143D01*
X4578571Y27785715D01*
X5092857Y27042858D02*
X3892857Y27042858D01*
X5092857Y26357143D01*
X3892857Y26357143D01*
X5092857Y25785715D02*
X3892857Y25785715D01*
X3892857Y25500000D01*
X3950000Y25328572D01*
X4064285Y25214286D01*
X4178571Y25157143D01*
X4407142Y25100000D01*
X4578571Y25100000D01*
X4807142Y25157143D01*
X4921428Y25214286D01*
X5035714Y25328572D01*
X5092857Y25500000D01*
X5092857Y25785715D01*
D11*
X53793786Y90361986D02*
X53793786Y91161986D01*
X52993786Y91123890D02*
X53069977Y91161986D01*
X53184262Y91161986D01*
X53298548Y91123890D01*
X53374739Y91047700D01*
X53412834Y90971510D01*
X53450929Y90819129D01*
X53450929Y90704843D01*
X53412834Y90552462D01*
X53374739Y90476271D01*
X53298548Y90400081D01*
X53184262Y90361986D01*
X53108072Y90361986D01*
X52993786Y90400081D01*
X52955691Y90438176D01*
X52955691Y90704843D01*
X53108072Y90704843D01*
X52612834Y90361986D02*
X52612834Y91161986D01*
X52155691Y90361986D01*
X52155691Y91161986D01*
X51508072Y90781033D02*
X51393786Y90742938D01*
X51355691Y90704843D01*
X51317596Y90628652D01*
X51317596Y90514367D01*
X51355691Y90438176D01*
X51393786Y90400081D01*
X51469977Y90361986D01*
X51774739Y90361986D01*
X51774739Y91161986D01*
X51508072Y91161986D01*
X51431881Y91123890D01*
X51393786Y91085795D01*
X51355691Y91009605D01*
X51355691Y90933414D01*
X51393786Y90857224D01*
X51431881Y90819129D01*
X51508072Y90781033D01*
X51774739Y90781033D01*
X37944244Y98369395D02*
X37982339Y98331300D01*
X38096625Y98293205D01*
X38172816Y98293205D01*
X38287101Y98331300D01*
X38363292Y98407490D01*
X38401387Y98483681D01*
X38439482Y98636062D01*
X38439482Y98750348D01*
X38401387Y98902729D01*
X38363292Y98978919D01*
X38287101Y99055109D01*
X38172816Y99093205D01*
X38096625Y99093205D01*
X37982339Y99055109D01*
X37944244Y99017014D01*
X37144244Y98293205D02*
X37410911Y98674157D01*
X37601387Y98293205D02*
X37601387Y99093205D01*
X37296625Y99093205D01*
X37220435Y99055109D01*
X37182339Y99017014D01*
X37144244Y98940824D01*
X37144244Y98826538D01*
X37182339Y98750348D01*
X37220435Y98712252D01*
X37296625Y98674157D01*
X37601387Y98674157D01*
X36839482Y98521776D02*
X36458530Y98521776D01*
X36915673Y98293205D02*
X36649006Y99093205D01*
X36382339Y98293205D01*
X36115673Y98293205D02*
X36115673Y99093205D01*
X35658530Y98293205D01*
X35658530Y99093205D01*
X35277578Y98293205D02*
X35277578Y99093205D01*
X34820435Y98293205D02*
X35163292Y98750348D01*
X34820435Y99093205D02*
X35277578Y98636062D01*
X57289025Y98328095D02*
X57289025Y99128095D01*
X56908072Y98328095D02*
X56908072Y99128095D01*
X56717596Y99128095D01*
X56603311Y99089999D01*
X56527120Y99013809D01*
X56489025Y98937619D01*
X56450930Y98785238D01*
X56450930Y98670952D01*
X56489025Y98518571D01*
X56527120Y98442380D01*
X56603311Y98366190D01*
X56717596Y98328095D01*
X56908072Y98328095D01*
X55727120Y98328095D02*
X56108072Y98328095D01*
X56108072Y99128095D01*
X55460453Y98747142D02*
X55193787Y98747142D01*
X55079501Y98328095D02*
X55460453Y98328095D01*
X55460453Y99128095D01*
X55079501Y99128095D01*
D12*
X20240476Y25957143D02*
X20050000Y25157143D01*
X19859523Y25728572D01*
X19669047Y25157143D01*
X19478571Y25957143D01*
X19192857Y25957143D02*
X19002380Y25157143D01*
X18811904Y25728572D01*
X18621428Y25157143D01*
X18430952Y25957143D01*
X18145238Y25957143D02*
X17954761Y25157143D01*
X17764285Y25728572D01*
X17573809Y25157143D01*
X17383333Y25957143D01*
X17002380Y25271429D02*
X16954761Y25214286D01*
X17002380Y25157143D01*
X17050000Y25214286D01*
X17002380Y25271429D01*
X17002380Y25157143D01*
X16097619Y25157143D02*
X16097619Y25785715D01*
X16145238Y25900000D01*
X16240476Y25957143D01*
X16430952Y25957143D01*
X16526190Y25900000D01*
X16097619Y25214286D02*
X16192857Y25157143D01*
X16430952Y25157143D01*
X16526190Y25214286D01*
X16573809Y25328572D01*
X16573809Y25442858D01*
X16526190Y25557143D01*
X16430952Y25614286D01*
X16192857Y25614286D01*
X16097619Y25671429D01*
X15478571Y25157143D02*
X15573809Y25214286D01*
X15621428Y25328572D01*
X15621428Y26357143D01*
X15097619Y25957143D02*
X15097619Y24757143D01*
X15097619Y25900000D02*
X15002380Y25957143D01*
X14811904Y25957143D01*
X14716666Y25900000D01*
X14669047Y25842858D01*
X14621428Y25728572D01*
X14621428Y25385715D01*
X14669047Y25271429D01*
X14716666Y25214286D01*
X14811904Y25157143D01*
X15002380Y25157143D01*
X15097619Y25214286D01*
X14192857Y25157143D02*
X14192857Y26357143D01*
X13764285Y25157143D02*
X13764285Y25785715D01*
X13811904Y25900000D01*
X13907142Y25957143D01*
X14050000Y25957143D01*
X14145238Y25900000D01*
X14192857Y25842858D01*
X12859523Y25157143D02*
X12859523Y25785715D01*
X12907142Y25900000D01*
X13002380Y25957143D01*
X13192857Y25957143D01*
X13288095Y25900000D01*
X12859523Y25214286D02*
X12954761Y25157143D01*
X13192857Y25157143D01*
X13288095Y25214286D01*
X13335714Y25328572D01*
X13335714Y25442858D01*
X13288095Y25557143D01*
X13192857Y25614286D01*
X12954761Y25614286D01*
X12859523Y25671429D01*
X12478571Y25157143D02*
X11954761Y25957143D01*
X12478571Y25957143D02*
X11954761Y25157143D01*
X11573809Y25957143D02*
X11573809Y24757143D01*
X11573809Y25900000D02*
X11478571Y25957143D01*
X11288095Y25957143D01*
X11192857Y25900000D01*
X11145238Y25842858D01*
X11097619Y25728572D01*
X11097619Y25385715D01*
X11145238Y25271429D01*
X11192857Y25214286D01*
X11288095Y25157143D01*
X11478571Y25157143D01*
X11573809Y25214286D01*
X10669047Y25157143D02*
X10669047Y25957143D01*
X10669047Y25728572D02*
X10621428Y25842858D01*
X10573809Y25900000D01*
X10478571Y25957143D01*
X10383333Y25957143D01*
X10050000Y25271429D02*
X10002380Y25214286D01*
X10050000Y25157143D01*
X10097619Y25214286D01*
X10050000Y25271429D01*
X10050000Y25157143D01*
X9145238Y25214286D02*
X9240476Y25157143D01*
X9430952Y25157143D01*
X9526190Y25214286D01*
X9573809Y25271429D01*
X9621428Y25385715D01*
X9621428Y25728572D01*
X9573809Y25842858D01*
X9526190Y25900000D01*
X9430952Y25957143D01*
X9240476Y25957143D01*
X9145238Y25900000D01*
X8573809Y25157143D02*
X8669047Y25214286D01*
X8716666Y25271429D01*
X8764285Y25385715D01*
X8764285Y25728572D01*
X8716666Y25842858D01*
X8669047Y25900000D01*
X8573809Y25957143D01*
X8430952Y25957143D01*
X8335714Y25900000D01*
X8288095Y25842858D01*
X8240476Y25728572D01*
X8240476Y25385715D01*
X8288095Y25271429D01*
X8335714Y25214286D01*
X8430952Y25157143D01*
X8573809Y25157143D01*
X7811904Y25157143D02*
X7811904Y25957143D01*
X7811904Y25842858D02*
X7764285Y25900000D01*
X7669047Y25957143D01*
X7526190Y25957143D01*
X7430952Y25900000D01*
X7383333Y25785715D01*
X7383333Y25157143D01*
X7383333Y25785715D02*
X7335714Y25900000D01*
X7240476Y25957143D01*
X7097619Y25957143D01*
X7002380Y25900000D01*
X6954761Y25785715D01*
X6954761Y25157143D01*
D11*
X46222449Y95045952D02*
X45765306Y95045952D01*
X45993878Y94245952D02*
X45993878Y95045952D01*
X45498640Y94245952D02*
X45498640Y95045952D01*
X45193878Y95045952D01*
X45117687Y95007856D01*
X45079592Y94969761D01*
X45041497Y94893571D01*
X45041497Y94779285D01*
X45079592Y94703095D01*
X45117687Y94664999D01*
X45193878Y94626904D01*
X45498640Y94626904D01*
X44736735Y94284047D02*
X44622449Y94245952D01*
X44431973Y94245952D01*
X44355783Y94284047D01*
X44317687Y94322142D01*
X44279592Y94398333D01*
X44279592Y94474523D01*
X44317687Y94550714D01*
X44355783Y94588809D01*
X44431973Y94626904D01*
X44584354Y94664999D01*
X44660545Y94703095D01*
X44698640Y94741190D01*
X44736735Y94817380D01*
X44736735Y94893571D01*
X44698640Y94969761D01*
X44660545Y95007856D01*
X44584354Y95045952D01*
X44393878Y95045952D01*
X44279592Y95007856D01*
X57304867Y90292205D02*
X57304867Y91092205D01*
X56923915Y90292205D02*
X56923915Y91092205D01*
X56466772Y90292205D01*
X56466772Y91092205D01*
X55857248Y91092205D02*
X55857248Y90520776D01*
X55895343Y90406490D01*
X55971534Y90330300D01*
X56085820Y90292205D01*
X56162010Y90292205D01*
X55514391Y90520776D02*
X55133439Y90520776D01*
X55590581Y90292205D02*
X55323915Y91092205D01*
X55057248Y90292205D01*
X47541497Y98299615D02*
X47579592Y98261520D01*
X47693878Y98223425D01*
X47770069Y98223425D01*
X47884354Y98261520D01*
X47960545Y98337710D01*
X47998640Y98413901D01*
X48036735Y98566282D01*
X48036735Y98680568D01*
X47998640Y98832949D01*
X47960545Y98909139D01*
X47884354Y98985329D01*
X47770069Y99023425D01*
X47693878Y99023425D01*
X47579592Y98985329D01*
X47541497Y98947234D01*
X47236735Y98451996D02*
X46855783Y98451996D01*
X47312926Y98223425D02*
X47046259Y99023425D01*
X46779592Y98223425D01*
X46512926Y98223425D02*
X46512926Y99023425D01*
X46055783Y98223425D01*
X46055783Y99023425D01*
X38450838Y90746142D02*
X38717504Y90746142D01*
X38717504Y90327095D02*
X38717504Y91127095D01*
X38336552Y91127095D01*
X38031790Y90327095D02*
X38031790Y91127095D01*
X37727028Y91127095D01*
X37650838Y91088999D01*
X37612743Y91050904D01*
X37574647Y90974714D01*
X37574647Y90860428D01*
X37612743Y90784238D01*
X37650838Y90746142D01*
X37727028Y90708047D01*
X38031790Y90708047D01*
X50142962Y90361986D02*
X50142962Y91161986D01*
X49342962Y91123890D02*
X49419153Y91161986D01*
X49533438Y91161986D01*
X49647724Y91123890D01*
X49723915Y91047700D01*
X49762010Y90971510D01*
X49800105Y90819129D01*
X49800105Y90704843D01*
X49762010Y90552462D01*
X49723915Y90476271D01*
X49647724Y90400081D01*
X49533438Y90361986D01*
X49457248Y90361986D01*
X49342962Y90400081D01*
X49304867Y90438176D01*
X49304867Y90704843D01*
X49457248Y90704843D01*
X48962010Y90361986D02*
X48962010Y91161986D01*
X48504867Y90361986D01*
X48504867Y91161986D01*
X48162010Y90590557D02*
X47781058Y90590557D01*
X48238200Y90361986D02*
X47971534Y91161986D01*
X47704867Y90361986D01*
X52746351Y94357032D02*
X52784446Y94318937D01*
X52898732Y94280842D01*
X52974922Y94280842D01*
X53089208Y94318937D01*
X53165399Y94395127D01*
X53203494Y94471318D01*
X53241589Y94623699D01*
X53241589Y94737985D01*
X53203494Y94890366D01*
X53165399Y94966556D01*
X53089208Y95042746D01*
X52974922Y95080842D01*
X52898732Y95080842D01*
X52784446Y95042746D01*
X52746351Y95004651D01*
X52022541Y94280842D02*
X52403494Y94280842D01*
X52403494Y95080842D01*
X51870160Y95080842D02*
X51413018Y95080842D01*
X51641589Y94280842D02*
X51641589Y95080842D01*
X31273273Y91054109D02*
X31349464Y91092205D01*
X31463750Y91092205D01*
X31578035Y91054109D01*
X31654226Y90977919D01*
X31692321Y90901729D01*
X31730416Y90749348D01*
X31730416Y90635062D01*
X31692321Y90482681D01*
X31654226Y90406490D01*
X31578035Y90330300D01*
X31463750Y90292205D01*
X31387559Y90292205D01*
X31273273Y90330300D01*
X31235178Y90368395D01*
X31235178Y90635062D01*
X31387559Y90635062D01*
X30892321Y90292205D02*
X30892321Y91092205D01*
X30435178Y90292205D01*
X30435178Y91092205D01*
X30054226Y90292205D02*
X30054226Y91092205D01*
X29863750Y91092205D01*
X29749464Y91054109D01*
X29673273Y90977919D01*
X29635178Y90901729D01*
X29597083Y90749348D01*
X29597083Y90635062D01*
X29635178Y90482681D01*
X29673273Y90406490D01*
X29749464Y90330300D01*
X29863750Y90292205D01*
X30054226Y90292205D01*
X31273273Y95031582D02*
X31349464Y95069678D01*
X31463750Y95069678D01*
X31578035Y95031582D01*
X31654226Y94955392D01*
X31692321Y94879202D01*
X31730416Y94726821D01*
X31730416Y94612535D01*
X31692321Y94460154D01*
X31654226Y94383963D01*
X31578035Y94307773D01*
X31463750Y94269678D01*
X31387559Y94269678D01*
X31273273Y94307773D01*
X31235178Y94345868D01*
X31235178Y94612535D01*
X31387559Y94612535D01*
X30892321Y94269678D02*
X30892321Y95069678D01*
X30435178Y94269678D01*
X30435178Y95069678D01*
X30054226Y94269678D02*
X30054226Y95069678D01*
X29863750Y95069678D01*
X29749464Y95031582D01*
X29673273Y94955392D01*
X29635178Y94879202D01*
X29597083Y94726821D01*
X29597083Y94612535D01*
X29635178Y94460154D01*
X29673273Y94383963D01*
X29749464Y94307773D01*
X29863750Y94269678D01*
X30054226Y94269678D01*
X57396900Y94280842D02*
X57396900Y95080842D01*
X57015948Y94280842D02*
X57015948Y95080842D01*
X56558805Y94280842D01*
X56558805Y95080842D01*
X55949281Y95080842D02*
X55949281Y94509413D01*
X55987376Y94395127D01*
X56063567Y94318937D01*
X56177852Y94280842D01*
X56254043Y94280842D01*
X55301662Y94699889D02*
X55187376Y94661794D01*
X55149281Y94623699D01*
X55111186Y94547508D01*
X55111186Y94433223D01*
X55149281Y94357032D01*
X55187376Y94318937D01*
X55263567Y94280842D01*
X55568329Y94280842D01*
X55568329Y95080842D01*
X55301662Y95080842D01*
X55225471Y95042746D01*
X55187376Y95004651D01*
X55149281Y94928461D01*
X55149281Y94852270D01*
X55187376Y94776080D01*
X55225471Y94737985D01*
X55301662Y94699889D01*
X55568329Y94699889D01*
X42657248Y94474523D02*
X42276295Y94474523D01*
X42733438Y94245952D02*
X42466772Y95045952D01*
X42200105Y94245952D01*
X41666772Y94664999D02*
X41933438Y94664999D01*
X41933438Y94245952D02*
X41933438Y95045952D01*
X41552486Y95045952D01*
X40790581Y94245952D02*
X41057248Y94626904D01*
X41247724Y94245952D02*
X41247724Y95045952D01*
X40942962Y95045952D01*
X40866772Y95007856D01*
X40828676Y94969761D01*
X40790581Y94893571D01*
X40790581Y94779285D01*
X40828676Y94703095D01*
X40866772Y94664999D01*
X40942962Y94626904D01*
X41247724Y94626904D01*
X43330325Y99017014D02*
X43292230Y99055109D01*
X43216039Y99093205D01*
X43025563Y99093205D01*
X42949373Y99055109D01*
X42911277Y99017014D01*
X42873182Y98940824D01*
X42873182Y98864633D01*
X42911277Y98750348D01*
X43368420Y98293205D01*
X42873182Y98293205D01*
X42568420Y98331300D02*
X42454135Y98293205D01*
X42263658Y98293205D01*
X42187468Y98331300D01*
X42149373Y98369395D01*
X42111277Y98445586D01*
X42111277Y98521776D01*
X42149373Y98597967D01*
X42187468Y98636062D01*
X42263658Y98674157D01*
X42416039Y98712252D01*
X42492230Y98750348D01*
X42530325Y98788443D01*
X42568420Y98864633D01*
X42568420Y98940824D01*
X42530325Y99017014D01*
X42492230Y99055109D01*
X42416039Y99093205D01*
X42225563Y99093205D01*
X42111277Y99055109D01*
X41882706Y99093205D02*
X41425563Y99093205D01*
X41654135Y98293205D02*
X41654135Y99093205D01*
X41158896Y98712252D02*
X40892230Y98712252D01*
X40777944Y98293205D02*
X41158896Y98293205D01*
X41158896Y99093205D01*
X40777944Y99093205D01*
X40435087Y98293205D02*
X40435087Y99093205D01*
X40130325Y99093205D01*
X40054135Y99055109D01*
X40016039Y99017014D01*
X39977944Y98940824D01*
X39977944Y98826538D01*
X40016039Y98750348D01*
X40054135Y98712252D01*
X40130325Y98674157D01*
X40435087Y98674157D01*
X52882888Y98369395D02*
X52920984Y98331300D01*
X53035269Y98293205D01*
X53111460Y98293205D01*
X53225746Y98331300D01*
X53301936Y98407490D01*
X53340031Y98483681D01*
X53378127Y98636062D01*
X53378127Y98750348D01*
X53340031Y98902729D01*
X53301936Y98978919D01*
X53225746Y99055109D01*
X53111460Y99093205D01*
X53035269Y99093205D01*
X52920984Y99055109D01*
X52882888Y99017014D01*
X52578127Y98521776D02*
X52197174Y98521776D01*
X52654317Y98293205D02*
X52387650Y99093205D01*
X52120984Y98293205D01*
X51854317Y98293205D02*
X51854317Y99093205D01*
X51587650Y98521776D01*
X51320984Y99093205D01*
X51320984Y98293205D01*
X31416040Y98712252D02*
X31682706Y98712252D01*
X31682706Y98293205D02*
X31682706Y99093205D01*
X31301754Y99093205D01*
X31035087Y98521776D02*
X30654135Y98521776D01*
X31111278Y98293205D02*
X30844611Y99093205D01*
X30577944Y98293205D01*
X30311278Y98293205D02*
X30311278Y99093205D01*
X29854135Y98293205D01*
X29854135Y99093205D01*
X46409537Y91123890D02*
X46485728Y91161986D01*
X46600014Y91161986D01*
X46714299Y91123890D01*
X46790490Y91047700D01*
X46828585Y90971510D01*
X46866680Y90819129D01*
X46866680Y90704843D01*
X46828585Y90552462D01*
X46790490Y90476271D01*
X46714299Y90400081D01*
X46600014Y90361986D01*
X46523823Y90361986D01*
X46409537Y90400081D01*
X46371442Y90438176D01*
X46371442Y90704843D01*
X46523823Y90704843D01*
X46028585Y90361986D02*
X46028585Y91161986D01*
X45571442Y90361986D01*
X45571442Y91161986D01*
X45190490Y90361986D02*
X45190490Y91161986D01*
X45000014Y91161986D01*
X44885728Y91123890D01*
X44809537Y91047700D01*
X44771442Y90971510D01*
X44733347Y90819129D01*
X44733347Y90704843D01*
X44771442Y90552462D01*
X44809537Y90476271D01*
X44885728Y90400081D01*
X45000014Y90361986D01*
X45190490Y90361986D01*
X44428585Y90590557D02*
X44047633Y90590557D01*
X44504776Y90361986D02*
X44238109Y91161986D01*
X43971442Y90361986D01*
X49974739Y94515824D02*
X49365215Y94515824D01*
X49669977Y94211062D02*
X49669977Y94820586D01*
X48603310Y95011062D02*
X48984263Y95011062D01*
X49022358Y94630109D01*
X48984263Y94668205D01*
X48908072Y94706300D01*
X48717596Y94706300D01*
X48641406Y94668205D01*
X48603310Y94630109D01*
X48565215Y94553919D01*
X48565215Y94363443D01*
X48603310Y94287252D01*
X48641406Y94249157D01*
X48717596Y94211062D01*
X48908072Y94211062D01*
X48984263Y94249157D01*
X49022358Y94287252D01*
X48336644Y95011062D02*
X48069977Y94211062D01*
X47803310Y95011062D01*
X35720526Y94211062D02*
X35720526Y95011062D01*
X35453860Y94439633D01*
X35187193Y95011062D01*
X35187193Y94211062D01*
X34844336Y94439633D02*
X34463383Y94439633D01*
X34920526Y94211062D02*
X34653860Y95011062D01*
X34387193Y94211062D01*
X34120526Y94211062D02*
X34120526Y95011062D01*
X33815764Y95011062D01*
X33739574Y94972966D01*
X33701479Y94934871D01*
X33663383Y94858681D01*
X33663383Y94744395D01*
X33701479Y94668205D01*
X33739574Y94630109D01*
X33815764Y94592014D01*
X34120526Y94592014D01*
X38708073Y94245952D02*
X38708073Y95045952D01*
X38365215Y94474523D02*
X37984263Y94474523D01*
X38441406Y94245952D02*
X38174739Y95045952D01*
X37908073Y94245952D01*
X37755692Y95045952D02*
X37298549Y95045952D01*
X37527120Y94245952D02*
X37527120Y95045952D01*
X36155416Y90631857D02*
X35545893Y90631857D01*
X35850654Y90327095D02*
X35850654Y90936619D01*
X34745893Y90327095D02*
X35203035Y90327095D01*
X34974464Y90327095D02*
X34974464Y91127095D01*
X35050654Y91012809D01*
X35126845Y90936619D01*
X35203035Y90898523D01*
X34441131Y91050904D02*
X34403035Y91088999D01*
X34326845Y91127095D01*
X34136369Y91127095D01*
X34060178Y91088999D01*
X34022083Y91050904D01*
X33983988Y90974714D01*
X33983988Y90898523D01*
X34022083Y90784238D01*
X34479226Y90327095D01*
X33983988Y90327095D01*
X33755416Y91127095D02*
X33488750Y90327095D01*
X33222083Y91127095D01*
X43393878Y91161986D02*
X42936735Y91161986D01*
X43165307Y90361986D02*
X43165307Y91161986D01*
X42708164Y90590557D02*
X42327212Y90590557D01*
X42784355Y90361986D02*
X42517688Y91161986D01*
X42251021Y90361986D01*
X41527212Y90438176D02*
X41565307Y90400081D01*
X41679593Y90361986D01*
X41755783Y90361986D01*
X41870069Y90400081D01*
X41946259Y90476271D01*
X41984355Y90552462D01*
X42022450Y90704843D01*
X42022450Y90819129D01*
X41984355Y90971510D01*
X41946259Y91047700D01*
X41870069Y91123890D01*
X41755783Y91161986D01*
X41679593Y91161986D01*
X41565307Y91123890D01*
X41527212Y91085795D01*
X41184355Y90361986D02*
X41184355Y91161986D01*
X41184355Y90781033D02*
X40727212Y90781033D01*
X40727212Y90361986D02*
X40727212Y91161986D01*
X40193878Y91161986D02*
X40041497Y91161986D01*
X39965307Y91123890D01*
X39889116Y91047700D01*
X39851021Y90895319D01*
X39851021Y90628652D01*
X39889116Y90476271D01*
X39965307Y90400081D01*
X40041497Y90361986D01*
X40193878Y90361986D01*
X40270069Y90400081D01*
X40346259Y90476271D01*
X40384355Y90628652D01*
X40384355Y90895319D01*
X40346259Y91047700D01*
X40270069Y91123890D01*
X40193878Y91161986D01*
D13*
G04 #@! TO.C,R8*
X49992467Y81135007D02*
X50242467Y81492150D01*
X50421038Y81135007D02*
X50421038Y81885007D01*
X50135324Y81885007D01*
X50063895Y81849292D01*
X50028181Y81813578D01*
X49992467Y81742150D01*
X49992467Y81635007D01*
X50028181Y81563578D01*
X50063895Y81527864D01*
X50135324Y81492150D01*
X50421038Y81492150D01*
X49563895Y81563578D02*
X49635324Y81599292D01*
X49671038Y81635007D01*
X49706752Y81706435D01*
X49706752Y81742150D01*
X49671038Y81813578D01*
X49635324Y81849292D01*
X49563895Y81885007D01*
X49421038Y81885007D01*
X49349609Y81849292D01*
X49313895Y81813578D01*
X49278181Y81742150D01*
X49278181Y81706435D01*
X49313895Y81635007D01*
X49349609Y81599292D01*
X49421038Y81563578D01*
X49563895Y81563578D01*
X49635324Y81527864D01*
X49671038Y81492150D01*
X49706752Y81420721D01*
X49706752Y81277864D01*
X49671038Y81206435D01*
X49635324Y81170721D01*
X49563895Y81135007D01*
X49421038Y81135007D01*
X49349609Y81170721D01*
X49313895Y81206435D01*
X49278181Y81277864D01*
X49278181Y81420721D01*
X49313895Y81492150D01*
X49349609Y81527864D01*
X49421038Y81563578D01*
D14*
G04 #@! TO.C,R9*
X48009571Y80978335D02*
X48263571Y81341192D01*
X48444999Y80978335D02*
X48444999Y81740335D01*
X48154713Y81740335D01*
X48082142Y81704049D01*
X48045856Y81667764D01*
X48009571Y81595192D01*
X48009571Y81486335D01*
X48045856Y81413764D01*
X48082142Y81377478D01*
X48154713Y81341192D01*
X48444999Y81341192D01*
X47646713Y80978335D02*
X47501571Y80978335D01*
X47428999Y81014621D01*
X47392713Y81050907D01*
X47320142Y81159764D01*
X47283856Y81304907D01*
X47283856Y81595192D01*
X47320142Y81667764D01*
X47356428Y81704049D01*
X47428999Y81740335D01*
X47574142Y81740335D01*
X47646713Y81704049D01*
X47682999Y81667764D01*
X47719285Y81595192D01*
X47719285Y81413764D01*
X47682999Y81341192D01*
X47646713Y81304907D01*
X47574142Y81268621D01*
X47428999Y81268621D01*
X47356428Y81304907D01*
X47320142Y81341192D01*
X47283856Y81413764D01*
G04 #@! TO.C,F4*
X36954000Y80054429D02*
X37208000Y80054429D01*
X37208000Y79655286D02*
X37208000Y80417286D01*
X36845142Y80417286D01*
X36228285Y80163286D02*
X36228285Y79655286D01*
X36409714Y80453572D02*
X36591142Y79909286D01*
X36119428Y79909286D01*
D11*
G04 #@! TO.C,P2*
X62696095Y74897620D02*
X62696095Y75897620D01*
X62315142Y75897620D01*
X62219904Y75850000D01*
X62172285Y75802381D01*
X62124666Y75707143D01*
X62124666Y75564286D01*
X62172285Y75469048D01*
X62219904Y75421429D01*
X62315142Y75373810D01*
X62696095Y75373810D01*
X61743714Y75802381D02*
X61696095Y75850000D01*
X61600857Y75897620D01*
X61362761Y75897620D01*
X61267523Y75850000D01*
X61219904Y75802381D01*
X61172285Y75707143D01*
X61172285Y75611905D01*
X61219904Y75469048D01*
X61791333Y74897620D01*
X61172285Y74897620D01*
D13*
G04 #@! TO.C,R11*
X24848142Y80952715D02*
X25098142Y81309858D01*
X25276714Y80952715D02*
X25276714Y81702715D01*
X24991000Y81702715D01*
X24919571Y81667000D01*
X24883857Y81631286D01*
X24848142Y81559858D01*
X24848142Y81452715D01*
X24883857Y81381286D01*
X24919571Y81345572D01*
X24991000Y81309858D01*
X25276714Y81309858D01*
X24133857Y80952715D02*
X24562428Y80952715D01*
X24348142Y80952715D02*
X24348142Y81702715D01*
X24419571Y81595572D01*
X24491000Y81524143D01*
X24562428Y81488429D01*
X23419571Y80952715D02*
X23848142Y80952715D01*
X23633857Y80952715D02*
X23633857Y81702715D01*
X23705285Y81595572D01*
X23776714Y81524143D01*
X23848142Y81488429D01*
G04 #@! TO.C,R6*
X68476714Y103275000D02*
X68833857Y103025000D01*
X68476714Y102846429D02*
X69226714Y102846429D01*
X69226714Y103132143D01*
X69191000Y103203572D01*
X69155285Y103239286D01*
X69083857Y103275000D01*
X68976714Y103275000D01*
X68905285Y103239286D01*
X68869571Y103203572D01*
X68833857Y103132143D01*
X68833857Y102846429D01*
X69226714Y103917858D02*
X69226714Y103775000D01*
X69191000Y103703572D01*
X69155285Y103667858D01*
X69048142Y103596429D01*
X68905285Y103560715D01*
X68619571Y103560715D01*
X68548142Y103596429D01*
X68512428Y103632143D01*
X68476714Y103703572D01*
X68476714Y103846429D01*
X68512428Y103917858D01*
X68548142Y103953572D01*
X68619571Y103989286D01*
X68798142Y103989286D01*
X68869571Y103953572D01*
X68905285Y103917858D01*
X68941000Y103846429D01*
X68941000Y103703572D01*
X68905285Y103632143D01*
X68869571Y103596429D01*
X68798142Y103560715D01*
G04 #@! TO.C,R17*
X39326142Y80698715D02*
X39576142Y81055858D01*
X39754714Y80698715D02*
X39754714Y81448715D01*
X39469000Y81448715D01*
X39397571Y81413000D01*
X39361857Y81377286D01*
X39326142Y81305858D01*
X39326142Y81198715D01*
X39361857Y81127286D01*
X39397571Y81091572D01*
X39469000Y81055858D01*
X39754714Y81055858D01*
X38611857Y80698715D02*
X39040428Y80698715D01*
X38826142Y80698715D02*
X38826142Y81448715D01*
X38897571Y81341572D01*
X38969000Y81270143D01*
X39040428Y81234429D01*
X38361857Y81448715D02*
X37861857Y81448715D01*
X38183285Y80698715D01*
G04 #@! TO.C,R16*
X45882142Y80952715D02*
X46132142Y81309858D01*
X46310714Y80952715D02*
X46310714Y81702715D01*
X46025000Y81702715D01*
X45953571Y81667000D01*
X45917857Y81631286D01*
X45882142Y81559858D01*
X45882142Y81452715D01*
X45917857Y81381286D01*
X45953571Y81345572D01*
X46025000Y81309858D01*
X46310714Y81309858D01*
X45167857Y80952715D02*
X45596428Y80952715D01*
X45382142Y80952715D02*
X45382142Y81702715D01*
X45453571Y81595572D01*
X45525000Y81524143D01*
X45596428Y81488429D01*
X44525000Y81702715D02*
X44667857Y81702715D01*
X44739285Y81667000D01*
X44775000Y81631286D01*
X44846428Y81524143D01*
X44882142Y81381286D01*
X44882142Y81095572D01*
X44846428Y81024143D01*
X44810714Y80988429D01*
X44739285Y80952715D01*
X44596428Y80952715D01*
X44525000Y80988429D01*
X44489285Y81024143D01*
X44453571Y81095572D01*
X44453571Y81274143D01*
X44489285Y81345572D01*
X44525000Y81381286D01*
X44596428Y81417000D01*
X44739285Y81417000D01*
X44810714Y81381286D01*
X44846428Y81345572D01*
X44882142Y81274143D01*
D14*
G04 #@! TO.C,R10*
X43789857Y80955286D02*
X44043857Y81318143D01*
X44225285Y80955286D02*
X44225285Y81717286D01*
X43935000Y81717286D01*
X43862428Y81681000D01*
X43826142Y81644715D01*
X43789857Y81572143D01*
X43789857Y81463286D01*
X43826142Y81390715D01*
X43862428Y81354429D01*
X43935000Y81318143D01*
X44225285Y81318143D01*
X43064142Y80955286D02*
X43499571Y80955286D01*
X43281857Y80955286D02*
X43281857Y81717286D01*
X43354428Y81608429D01*
X43427000Y81535858D01*
X43499571Y81499572D01*
X42592428Y81717286D02*
X42519857Y81717286D01*
X42447285Y81681000D01*
X42411000Y81644715D01*
X42374714Y81572143D01*
X42338428Y81427000D01*
X42338428Y81245572D01*
X42374714Y81100429D01*
X42411000Y81027858D01*
X42447285Y80991572D01*
X42519857Y80955286D01*
X42592428Y80955286D01*
X42665000Y80991572D01*
X42701285Y81027858D01*
X42737571Y81100429D01*
X42773857Y81245572D01*
X42773857Y81427000D01*
X42737571Y81572143D01*
X42701285Y81644715D01*
X42665000Y81681000D01*
X42592428Y81717286D01*
G04 #@! TO.C,R19*
X30489857Y80955286D02*
X30743857Y81318143D01*
X30925285Y80955286D02*
X30925285Y81717286D01*
X30635000Y81717286D01*
X30562428Y81681000D01*
X30526142Y81644715D01*
X30489857Y81572143D01*
X30489857Y81463286D01*
X30526142Y81390715D01*
X30562428Y81354429D01*
X30635000Y81318143D01*
X30925285Y81318143D01*
X29764142Y80955286D02*
X30199571Y80955286D01*
X29981857Y80955286D02*
X29981857Y81717286D01*
X30054428Y81608429D01*
X30127000Y81535858D01*
X30199571Y81499572D01*
X29401285Y80955286D02*
X29256142Y80955286D01*
X29183571Y80991572D01*
X29147285Y81027858D01*
X29074714Y81136715D01*
X29038428Y81281858D01*
X29038428Y81572143D01*
X29074714Y81644715D01*
X29111000Y81681000D01*
X29183571Y81717286D01*
X29328714Y81717286D01*
X29401285Y81681000D01*
X29437571Y81644715D01*
X29473857Y81572143D01*
X29473857Y81390715D01*
X29437571Y81318143D01*
X29401285Y81281858D01*
X29328714Y81245572D01*
X29183571Y81245572D01*
X29111000Y81281858D01*
X29074714Y81318143D01*
X29038428Y81390715D01*
G04 #@! TO.C,F1*
X55150000Y80254429D02*
X55404000Y80254429D01*
X55404000Y79855286D02*
X55404000Y80617286D01*
X55041142Y80617286D01*
X54351714Y79855286D02*
X54787142Y79855286D01*
X54569428Y79855286D02*
X54569428Y80617286D01*
X54642000Y80508429D01*
X54714571Y80435858D01*
X54787142Y80399572D01*
D13*
G04 #@! TO.C,R14*
X68476714Y98417858D02*
X68833857Y98167858D01*
X68476714Y97989286D02*
X69226714Y97989286D01*
X69226714Y98275000D01*
X69191000Y98346429D01*
X69155285Y98382143D01*
X69083857Y98417858D01*
X68976714Y98417858D01*
X68905285Y98382143D01*
X68869571Y98346429D01*
X68833857Y98275000D01*
X68833857Y97989286D01*
X68476714Y99132143D02*
X68476714Y98703572D01*
X68476714Y98917858D02*
X69226714Y98917858D01*
X69119571Y98846429D01*
X69048142Y98775000D01*
X69012428Y98703572D01*
X68976714Y99775000D02*
X68476714Y99775000D01*
X69262428Y99596429D02*
X68726714Y99417858D01*
X68726714Y99882143D01*
D14*
G04 #@! TO.C,F3*
X41504000Y80304429D02*
X41758000Y80304429D01*
X41758000Y79905286D02*
X41758000Y80667286D01*
X41395142Y80667286D01*
X41177428Y80667286D02*
X40705714Y80667286D01*
X40959714Y80377000D01*
X40850857Y80377000D01*
X40778285Y80340715D01*
X40742000Y80304429D01*
X40705714Y80231858D01*
X40705714Y80050429D01*
X40742000Y79977858D01*
X40778285Y79941572D01*
X40850857Y79905286D01*
X41068571Y79905286D01*
X41141142Y79941572D01*
X41177428Y79977858D01*
D13*
G04 #@! TO.C,R15*
X57614142Y80952715D02*
X57864142Y81309858D01*
X58042714Y80952715D02*
X58042714Y81702715D01*
X57757000Y81702715D01*
X57685571Y81667000D01*
X57649857Y81631286D01*
X57614142Y81559858D01*
X57614142Y81452715D01*
X57649857Y81381286D01*
X57685571Y81345572D01*
X57757000Y81309858D01*
X58042714Y81309858D01*
X56899857Y80952715D02*
X57328428Y80952715D01*
X57114142Y80952715D02*
X57114142Y81702715D01*
X57185571Y81595572D01*
X57257000Y81524143D01*
X57328428Y81488429D01*
X56221285Y81702715D02*
X56578428Y81702715D01*
X56614142Y81345572D01*
X56578428Y81381286D01*
X56507000Y81417000D01*
X56328428Y81417000D01*
X56257000Y81381286D01*
X56221285Y81345572D01*
X56185571Y81274143D01*
X56185571Y81095572D01*
X56221285Y81024143D01*
X56257000Y80988429D01*
X56328428Y80952715D01*
X56507000Y80952715D01*
X56578428Y80988429D01*
X56614142Y81024143D01*
D14*
G04 #@! TO.C,R7*
X59291000Y80955286D02*
X59545000Y81318143D01*
X59726428Y80955286D02*
X59726428Y81717286D01*
X59436142Y81717286D01*
X59363571Y81681000D01*
X59327285Y81644715D01*
X59291000Y81572143D01*
X59291000Y81463286D01*
X59327285Y81390715D01*
X59363571Y81354429D01*
X59436142Y81318143D01*
X59726428Y81318143D01*
X59037000Y81717286D02*
X58529000Y81717286D01*
X58855571Y80955286D01*
D13*
G04 #@! TO.C,R13*
X68476714Y100621858D02*
X68833857Y100371858D01*
X68476714Y100193286D02*
X69226714Y100193286D01*
X69226714Y100479000D01*
X69191000Y100550429D01*
X69155285Y100586143D01*
X69083857Y100621858D01*
X68976714Y100621858D01*
X68905285Y100586143D01*
X68869571Y100550429D01*
X68833857Y100479000D01*
X68833857Y100193286D01*
X68476714Y101336143D02*
X68476714Y100907572D01*
X68476714Y101121858D02*
X69226714Y101121858D01*
X69119571Y101050429D01*
X69048142Y100979000D01*
X69012428Y100907572D01*
X69226714Y101586143D02*
X69226714Y102050429D01*
X68941000Y101800429D01*
X68941000Y101907572D01*
X68905285Y101979000D01*
X68869571Y102014715D01*
X68798142Y102050429D01*
X68619571Y102050429D01*
X68548142Y102014715D01*
X68512428Y101979000D01*
X68476714Y101907572D01*
X68476714Y101693286D01*
X68512428Y101621858D01*
X68548142Y101586143D01*
G04 #@! TO.C,R20*
X61626093Y81107095D02*
X61876093Y81464238D01*
X62054665Y81107095D02*
X62054665Y81857095D01*
X61768951Y81857095D01*
X61697522Y81821380D01*
X61661808Y81785666D01*
X61626093Y81714238D01*
X61626093Y81607095D01*
X61661808Y81535666D01*
X61697522Y81499952D01*
X61768951Y81464238D01*
X62054665Y81464238D01*
X61340379Y81785666D02*
X61304665Y81821380D01*
X61233236Y81857095D01*
X61054665Y81857095D01*
X60983236Y81821380D01*
X60947522Y81785666D01*
X60911808Y81714238D01*
X60911808Y81642809D01*
X60947522Y81535666D01*
X61376093Y81107095D01*
X60911808Y81107095D01*
X60447522Y81857095D02*
X60376093Y81857095D01*
X60304665Y81821380D01*
X60268951Y81785666D01*
X60233236Y81714238D01*
X60197522Y81571380D01*
X60197522Y81392809D01*
X60233236Y81249952D01*
X60268951Y81178523D01*
X60304665Y81142809D01*
X60376093Y81107095D01*
X60447522Y81107095D01*
X60518951Y81142809D01*
X60554665Y81178523D01*
X60590379Y81249952D01*
X60626093Y81392809D01*
X60626093Y81571380D01*
X60590379Y81714238D01*
X60554665Y81785666D01*
X60518951Y81821380D01*
X60447522Y81857095D01*
D15*
G04 #@! TO.C,P1*
X40407142Y100865667D02*
X40454761Y100913286D01*
X40502380Y101056143D01*
X40502380Y101151381D01*
X40454761Y101294239D01*
X40359523Y101389477D01*
X40264285Y101437096D01*
X40073809Y101484715D01*
X39930952Y101484715D01*
X39740476Y101437096D01*
X39645238Y101389477D01*
X39550000Y101294239D01*
X39502380Y101151381D01*
X39502380Y101056143D01*
X39550000Y100913286D01*
X39597619Y100865667D01*
X39835714Y100008524D02*
X40502380Y100008524D01*
X39454761Y100246620D02*
X40169047Y100484715D01*
X40169047Y99865667D01*
X46978571Y96903762D02*
X47026190Y96760905D01*
X47073809Y96713286D01*
X47169047Y96665667D01*
X47311904Y96665667D01*
X47407142Y96713286D01*
X47454761Y96760905D01*
X47502380Y96856143D01*
X47502380Y97237096D01*
X46502380Y97237096D01*
X46502380Y96903762D01*
X46550000Y96808524D01*
X46597619Y96760905D01*
X46692857Y96713286D01*
X46788095Y96713286D01*
X46883333Y96760905D01*
X46930952Y96808524D01*
X46978571Y96903762D01*
X46978571Y97237096D01*
X46502380Y95808524D02*
X46502380Y95999000D01*
X46550000Y96094239D01*
X46597619Y96141858D01*
X46740476Y96237096D01*
X46930952Y96284715D01*
X47311904Y96284715D01*
X47407142Y96237096D01*
X47454761Y96189477D01*
X47502380Y96094239D01*
X47502380Y95903762D01*
X47454761Y95808524D01*
X47407142Y95760905D01*
X47311904Y95713286D01*
X47073809Y95713286D01*
X46978571Y95760905D01*
X46930952Y95808524D01*
X46883333Y95903762D01*
X46883333Y96094239D01*
X46930952Y96189477D01*
X46978571Y96237096D01*
X47073809Y96284715D01*
X32916666Y93313286D02*
X32916666Y92837096D01*
X33202380Y93408524D02*
X32202380Y93075191D01*
X33202380Y92741858D01*
X32297619Y92456143D02*
X32250000Y92408524D01*
X32202380Y92313286D01*
X32202380Y92075191D01*
X32250000Y91979953D01*
X32297619Y91932334D01*
X32392857Y91884715D01*
X32488095Y91884715D01*
X32630952Y91932334D01*
X33202380Y92503762D01*
X33202380Y91884715D01*
X50716666Y93213286D02*
X50716666Y92737096D01*
X51002380Y93308524D02*
X50002380Y92975191D01*
X51002380Y92641858D01*
X50002380Y92403762D02*
X50002380Y91737096D01*
X51002380Y92165667D01*
X33107142Y100965667D02*
X33154761Y101013286D01*
X33202380Y101156143D01*
X33202380Y101251381D01*
X33154761Y101394239D01*
X33059523Y101489477D01*
X32964285Y101537096D01*
X32773809Y101584715D01*
X32630952Y101584715D01*
X32440476Y101537096D01*
X32345238Y101489477D01*
X32250000Y101394239D01*
X32202380Y101251381D01*
X32202380Y101156143D01*
X32250000Y101013286D01*
X32297619Y100965667D01*
X32297619Y100584715D02*
X32250000Y100537096D01*
X32202380Y100441858D01*
X32202380Y100203762D01*
X32250000Y100108524D01*
X32297619Y100060905D01*
X32392857Y100013286D01*
X32488095Y100013286D01*
X32630952Y100060905D01*
X33202380Y100632334D01*
X33202380Y100013286D01*
X43716666Y93213286D02*
X43716666Y92737096D01*
X44002380Y93308524D02*
X43002380Y92975191D01*
X44002380Y92641858D01*
X43002380Y91832334D02*
X43002380Y92308524D01*
X43478571Y92356143D01*
X43430952Y92308524D01*
X43383333Y92213286D01*
X43383333Y91975191D01*
X43430952Y91879953D01*
X43478571Y91832334D01*
X43573809Y91784715D01*
X43811904Y91784715D01*
X43907142Y91832334D01*
X43954761Y91879953D01*
X44002380Y91975191D01*
X44002380Y92213286D01*
X43954761Y92308524D01*
X43907142Y92356143D01*
X43478571Y96903762D02*
X43526190Y96760905D01*
X43573809Y96713286D01*
X43669047Y96665667D01*
X43811904Y96665667D01*
X43907142Y96713286D01*
X43954761Y96760905D01*
X44002380Y96856143D01*
X44002380Y97237096D01*
X43002380Y97237096D01*
X43002380Y96903762D01*
X43050000Y96808524D01*
X43097619Y96760905D01*
X43192857Y96713286D01*
X43288095Y96713286D01*
X43383333Y96760905D01*
X43430952Y96808524D01*
X43478571Y96903762D01*
X43478571Y97237096D01*
X43002380Y95760905D02*
X43002380Y96237096D01*
X43478571Y96284715D01*
X43430952Y96237096D01*
X43383333Y96141858D01*
X43383333Y95903762D01*
X43430952Y95808524D01*
X43478571Y95760905D01*
X43573809Y95713286D01*
X43811904Y95713286D01*
X43907142Y95760905D01*
X43954761Y95808524D01*
X44002380Y95903762D01*
X44002380Y96141858D01*
X43954761Y96237096D01*
X43907142Y96284715D01*
X39978571Y96903762D02*
X40026190Y96760905D01*
X40073809Y96713286D01*
X40169047Y96665667D01*
X40311904Y96665667D01*
X40407142Y96713286D01*
X40454761Y96760905D01*
X40502380Y96856143D01*
X40502380Y97237096D01*
X39502380Y97237096D01*
X39502380Y96903762D01*
X39550000Y96808524D01*
X39597619Y96760905D01*
X39692857Y96713286D01*
X39788095Y96713286D01*
X39883333Y96760905D01*
X39930952Y96808524D01*
X39978571Y96903762D01*
X39978571Y97237096D01*
X39835714Y95808524D02*
X40502380Y95808524D01*
X39454761Y96046620D02*
X40169047Y96284715D01*
X40169047Y95665667D01*
X43907142Y100865667D02*
X43954761Y100913286D01*
X44002380Y101056143D01*
X44002380Y101151381D01*
X43954761Y101294239D01*
X43859523Y101389477D01*
X43764285Y101437096D01*
X43573809Y101484715D01*
X43430952Y101484715D01*
X43240476Y101437096D01*
X43145238Y101389477D01*
X43050000Y101294239D01*
X43002380Y101151381D01*
X43002380Y101056143D01*
X43050000Y100913286D01*
X43097619Y100865667D01*
X43002380Y99960905D02*
X43002380Y100437096D01*
X43478571Y100484715D01*
X43430952Y100437096D01*
X43383333Y100341858D01*
X43383333Y100103762D01*
X43430952Y100008524D01*
X43478571Y99960905D01*
X43573809Y99913286D01*
X43811904Y99913286D01*
X43907142Y99960905D01*
X43954761Y100008524D01*
X44002380Y100103762D01*
X44002380Y100341858D01*
X43954761Y100437096D01*
X43907142Y100484715D01*
X47216666Y93213286D02*
X47216666Y92737096D01*
X47502380Y93308524D02*
X46502380Y92975191D01*
X47502380Y92641858D01*
X46502380Y91879953D02*
X46502380Y92070429D01*
X46550000Y92165667D01*
X46597619Y92213286D01*
X46740476Y92308524D01*
X46930952Y92356143D01*
X47311904Y92356143D01*
X47407142Y92308524D01*
X47454761Y92260905D01*
X47502380Y92165667D01*
X47502380Y91975191D01*
X47454761Y91879953D01*
X47407142Y91832334D01*
X47311904Y91784715D01*
X47073809Y91784715D01*
X46978571Y91832334D01*
X46930952Y91879953D01*
X46883333Y91975191D01*
X46883333Y92165667D01*
X46930952Y92260905D01*
X46978571Y92308524D01*
X47073809Y92356143D01*
X54378571Y96903762D02*
X54426190Y96760905D01*
X54473809Y96713286D01*
X54569047Y96665667D01*
X54711904Y96665667D01*
X54807142Y96713286D01*
X54854761Y96760905D01*
X54902380Y96856143D01*
X54902380Y97237096D01*
X53902380Y97237096D01*
X53902380Y96903762D01*
X53950000Y96808524D01*
X53997619Y96760905D01*
X54092857Y96713286D01*
X54188095Y96713286D01*
X54283333Y96760905D01*
X54330952Y96808524D01*
X54378571Y96903762D01*
X54378571Y97237096D01*
X54330952Y96094239D02*
X54283333Y96189477D01*
X54235714Y96237096D01*
X54140476Y96284715D01*
X54092857Y96284715D01*
X53997619Y96237096D01*
X53950000Y96189477D01*
X53902380Y96094239D01*
X53902380Y95903762D01*
X53950000Y95808524D01*
X53997619Y95760905D01*
X54092857Y95713286D01*
X54140476Y95713286D01*
X54235714Y95760905D01*
X54283333Y95808524D01*
X54330952Y95903762D01*
X54330952Y96094239D01*
X54378571Y96189477D01*
X54426190Y96237096D01*
X54521428Y96284715D01*
X54711904Y96284715D01*
X54807142Y96237096D01*
X54854761Y96189477D01*
X54902380Y96094239D01*
X54902380Y95903762D01*
X54854761Y95808524D01*
X54807142Y95760905D01*
X54711904Y95713286D01*
X54521428Y95713286D01*
X54426190Y95760905D01*
X54378571Y95808524D01*
X54330952Y95903762D01*
X50907142Y100865667D02*
X50954761Y100913286D01*
X51002380Y101056143D01*
X51002380Y101151381D01*
X50954761Y101294239D01*
X50859523Y101389477D01*
X50764285Y101437096D01*
X50573809Y101484715D01*
X50430952Y101484715D01*
X50240476Y101437096D01*
X50145238Y101389477D01*
X50050000Y101294239D01*
X50002380Y101151381D01*
X50002380Y101056143D01*
X50050000Y100913286D01*
X50097619Y100865667D01*
X50002380Y100532334D02*
X50002380Y99865667D01*
X51002380Y100294239D01*
X29007142Y100865667D02*
X29054761Y100913286D01*
X29102380Y101056143D01*
X29102380Y101151381D01*
X29054761Y101294239D01*
X28959523Y101389477D01*
X28864285Y101437096D01*
X28673809Y101484715D01*
X28530952Y101484715D01*
X28340476Y101437096D01*
X28245238Y101389477D01*
X28150000Y101294239D01*
X28102380Y101151381D01*
X28102380Y101056143D01*
X28150000Y100913286D01*
X28197619Y100865667D01*
X29102380Y99913286D02*
X29102380Y100484715D01*
X29102380Y100199000D02*
X28102380Y100199000D01*
X28245238Y100294239D01*
X28340476Y100389477D01*
X28388095Y100484715D01*
X50478571Y96903762D02*
X50526190Y96760905D01*
X50573809Y96713286D01*
X50669047Y96665667D01*
X50811904Y96665667D01*
X50907142Y96713286D01*
X50954761Y96760905D01*
X51002380Y96856143D01*
X51002380Y97237096D01*
X50002380Y97237096D01*
X50002380Y96903762D01*
X50050000Y96808524D01*
X50097619Y96760905D01*
X50192857Y96713286D01*
X50288095Y96713286D01*
X50383333Y96760905D01*
X50430952Y96808524D01*
X50478571Y96903762D01*
X50478571Y97237096D01*
X50002380Y96332334D02*
X50002380Y95665667D01*
X51002380Y96094239D01*
X54807142Y100865667D02*
X54854761Y100913286D01*
X54902380Y101056143D01*
X54902380Y101151381D01*
X54854761Y101294239D01*
X54759523Y101389477D01*
X54664285Y101437096D01*
X54473809Y101484715D01*
X54330952Y101484715D01*
X54140476Y101437096D01*
X54045238Y101389477D01*
X53950000Y101294239D01*
X53902380Y101151381D01*
X53902380Y101056143D01*
X53950000Y100913286D01*
X53997619Y100865667D01*
X54330952Y100294239D02*
X54283333Y100389477D01*
X54235714Y100437096D01*
X54140476Y100484715D01*
X54092857Y100484715D01*
X53997619Y100437096D01*
X53950000Y100389477D01*
X53902380Y100294239D01*
X53902380Y100103762D01*
X53950000Y100008524D01*
X53997619Y99960905D01*
X54092857Y99913286D01*
X54140476Y99913286D01*
X54235714Y99960905D01*
X54283333Y100008524D01*
X54330952Y100103762D01*
X54330952Y100294239D01*
X54378571Y100389477D01*
X54426190Y100437096D01*
X54521428Y100484715D01*
X54711904Y100484715D01*
X54807142Y100437096D01*
X54854761Y100389477D01*
X54902380Y100294239D01*
X54902380Y100103762D01*
X54854761Y100008524D01*
X54807142Y99960905D01*
X54711904Y99913286D01*
X54521428Y99913286D01*
X54426190Y99960905D01*
X54378571Y100008524D01*
X54330952Y100103762D01*
X28816666Y93313286D02*
X28816666Y92837096D01*
X29102380Y93408524D02*
X28102380Y93075191D01*
X29102380Y92741858D01*
X29102380Y91884715D02*
X29102380Y92456143D01*
X29102380Y92170429D02*
X28102380Y92170429D01*
X28245238Y92265667D01*
X28340476Y92360905D01*
X28388095Y92456143D01*
X36478571Y96903762D02*
X36526190Y96760905D01*
X36573809Y96713286D01*
X36669047Y96665667D01*
X36811904Y96665667D01*
X36907142Y96713286D01*
X36954761Y96760905D01*
X37002380Y96856143D01*
X37002380Y97237096D01*
X36002380Y97237096D01*
X36002380Y96903762D01*
X36050000Y96808524D01*
X36097619Y96760905D01*
X36192857Y96713286D01*
X36288095Y96713286D01*
X36383333Y96760905D01*
X36430952Y96808524D01*
X36478571Y96903762D01*
X36478571Y97237096D01*
X36002380Y96332334D02*
X36002380Y95713286D01*
X36383333Y96046620D01*
X36383333Y95903762D01*
X36430952Y95808524D01*
X36478571Y95760905D01*
X36573809Y95713286D01*
X36811904Y95713286D01*
X36907142Y95760905D01*
X36954761Y95808524D01*
X37002380Y95903762D01*
X37002380Y96189477D01*
X36954761Y96284715D01*
X36907142Y96332334D01*
X36716666Y93213286D02*
X36716666Y92737096D01*
X37002380Y93308524D02*
X36002380Y92975191D01*
X37002380Y92641858D01*
X36002380Y92403762D02*
X36002380Y91784715D01*
X36383333Y92118048D01*
X36383333Y91975191D01*
X36430952Y91879953D01*
X36478571Y91832334D01*
X36573809Y91784715D01*
X36811904Y91784715D01*
X36907142Y91832334D01*
X36954761Y91879953D01*
X37002380Y91975191D01*
X37002380Y92260905D01*
X36954761Y92356143D01*
X36907142Y92403762D01*
X36907142Y100865667D02*
X36954761Y100913286D01*
X37002380Y101056143D01*
X37002380Y101151381D01*
X36954761Y101294239D01*
X36859523Y101389477D01*
X36764285Y101437096D01*
X36573809Y101484715D01*
X36430952Y101484715D01*
X36240476Y101437096D01*
X36145238Y101389477D01*
X36050000Y101294239D01*
X36002380Y101151381D01*
X36002380Y101056143D01*
X36050000Y100913286D01*
X36097619Y100865667D01*
X36002380Y100532334D02*
X36002380Y99913286D01*
X36383333Y100246620D01*
X36383333Y100103762D01*
X36430952Y100008524D01*
X36478571Y99960905D01*
X36573809Y99913286D01*
X36811904Y99913286D01*
X36907142Y99960905D01*
X36954761Y100008524D01*
X37002380Y100103762D01*
X37002380Y100389477D01*
X36954761Y100484715D01*
X36907142Y100532334D01*
X32678571Y97003762D02*
X32726190Y96860905D01*
X32773809Y96813286D01*
X32869047Y96765667D01*
X33011904Y96765667D01*
X33107142Y96813286D01*
X33154761Y96860905D01*
X33202380Y96956143D01*
X33202380Y97337096D01*
X32202380Y97337096D01*
X32202380Y97003762D01*
X32250000Y96908524D01*
X32297619Y96860905D01*
X32392857Y96813286D01*
X32488095Y96813286D01*
X32583333Y96860905D01*
X32630952Y96908524D01*
X32678571Y97003762D01*
X32678571Y97337096D01*
X32297619Y96384715D02*
X32250000Y96337096D01*
X32202380Y96241858D01*
X32202380Y96003762D01*
X32250000Y95908524D01*
X32297619Y95860905D01*
X32392857Y95813286D01*
X32488095Y95813286D01*
X32630952Y95860905D01*
X33202380Y96432334D01*
X33202380Y95813286D01*
X54616666Y93213286D02*
X54616666Y92737096D01*
X54902380Y93308524D02*
X53902380Y92975191D01*
X54902380Y92641858D01*
X54330952Y92165667D02*
X54283333Y92260905D01*
X54235714Y92308524D01*
X54140476Y92356143D01*
X54092857Y92356143D01*
X53997619Y92308524D01*
X53950000Y92260905D01*
X53902380Y92165667D01*
X53902380Y91975191D01*
X53950000Y91879953D01*
X53997619Y91832334D01*
X54092857Y91784715D01*
X54140476Y91784715D01*
X54235714Y91832334D01*
X54283333Y91879953D01*
X54330952Y91975191D01*
X54330952Y92165667D01*
X54378571Y92260905D01*
X54426190Y92308524D01*
X54521428Y92356143D01*
X54711904Y92356143D01*
X54807142Y92308524D01*
X54854761Y92260905D01*
X54902380Y92165667D01*
X54902380Y91975191D01*
X54854761Y91879953D01*
X54807142Y91832334D01*
X54711904Y91784715D01*
X54521428Y91784715D01*
X54426190Y91832334D01*
X54378571Y91879953D01*
X54330952Y91975191D01*
X40216666Y93213286D02*
X40216666Y92737096D01*
X40502380Y93308524D02*
X39502380Y92975191D01*
X40502380Y92641858D01*
X39835714Y91879953D02*
X40502380Y91879953D01*
X39454761Y92118048D02*
X40169047Y92356143D01*
X40169047Y91737096D01*
X28578571Y96903762D02*
X28626190Y96760905D01*
X28673809Y96713286D01*
X28769047Y96665667D01*
X28911904Y96665667D01*
X29007142Y96713286D01*
X29054761Y96760905D01*
X29102380Y96856143D01*
X29102380Y97237096D01*
X28102380Y97237096D01*
X28102380Y96903762D01*
X28150000Y96808524D01*
X28197619Y96760905D01*
X28292857Y96713286D01*
X28388095Y96713286D01*
X28483333Y96760905D01*
X28530952Y96808524D01*
X28578571Y96903762D01*
X28578571Y97237096D01*
X29102380Y95713286D02*
X29102380Y96284715D01*
X29102380Y95999000D02*
X28102380Y95999000D01*
X28245238Y96094239D01*
X28340476Y96189477D01*
X28388095Y96284715D01*
X47407142Y100865667D02*
X47454761Y100913286D01*
X47502380Y101056143D01*
X47502380Y101151381D01*
X47454761Y101294239D01*
X47359523Y101389477D01*
X47264285Y101437096D01*
X47073809Y101484715D01*
X46930952Y101484715D01*
X46740476Y101437096D01*
X46645238Y101389477D01*
X46550000Y101294239D01*
X46502380Y101151381D01*
X46502380Y101056143D01*
X46550000Y100913286D01*
X46597619Y100865667D01*
X46502380Y100008524D02*
X46502380Y100199000D01*
X46550000Y100294239D01*
X46597619Y100341858D01*
X46740476Y100437096D01*
X46930952Y100484715D01*
X47311904Y100484715D01*
X47407142Y100437096D01*
X47454761Y100389477D01*
X47502380Y100294239D01*
X47502380Y100103762D01*
X47454761Y100008524D01*
X47407142Y99960905D01*
X47311904Y99913286D01*
X47073809Y99913286D01*
X46978571Y99960905D01*
X46930952Y100008524D01*
X46883333Y100103762D01*
X46883333Y100294239D01*
X46930952Y100389477D01*
X46978571Y100437096D01*
X47073809Y100484715D01*
D13*
G04 #@! TO.C,R12*
X27682142Y80952715D02*
X27932142Y81309858D01*
X28110714Y80952715D02*
X28110714Y81702715D01*
X27825000Y81702715D01*
X27753571Y81667000D01*
X27717857Y81631286D01*
X27682142Y81559858D01*
X27682142Y81452715D01*
X27717857Y81381286D01*
X27753571Y81345572D01*
X27825000Y81309858D01*
X28110714Y81309858D01*
X26967857Y80952715D02*
X27396428Y80952715D01*
X27182142Y80952715D02*
X27182142Y81702715D01*
X27253571Y81595572D01*
X27325000Y81524143D01*
X27396428Y81488429D01*
X26682142Y81631286D02*
X26646428Y81667000D01*
X26575000Y81702715D01*
X26396428Y81702715D01*
X26325000Y81667000D01*
X26289285Y81631286D01*
X26253571Y81559858D01*
X26253571Y81488429D01*
X26289285Y81381286D01*
X26717857Y80952715D01*
X26253571Y80952715D01*
G04 #@! TO.C,R18*
X34982142Y80952715D02*
X35232142Y81309858D01*
X35410714Y80952715D02*
X35410714Y81702715D01*
X35125000Y81702715D01*
X35053571Y81667000D01*
X35017857Y81631286D01*
X34982142Y81559858D01*
X34982142Y81452715D01*
X35017857Y81381286D01*
X35053571Y81345572D01*
X35125000Y81309858D01*
X35410714Y81309858D01*
X34267857Y80952715D02*
X34696428Y80952715D01*
X34482142Y80952715D02*
X34482142Y81702715D01*
X34553571Y81595572D01*
X34625000Y81524143D01*
X34696428Y81488429D01*
X33839285Y81381286D02*
X33910714Y81417000D01*
X33946428Y81452715D01*
X33982142Y81524143D01*
X33982142Y81559858D01*
X33946428Y81631286D01*
X33910714Y81667000D01*
X33839285Y81702715D01*
X33696428Y81702715D01*
X33625000Y81667000D01*
X33589285Y81631286D01*
X33553571Y81559858D01*
X33553571Y81524143D01*
X33589285Y81452715D01*
X33625000Y81417000D01*
X33696428Y81381286D01*
X33839285Y81381286D01*
X33910714Y81345572D01*
X33946428Y81309858D01*
X33982142Y81238429D01*
X33982142Y81095572D01*
X33946428Y81024143D01*
X33910714Y80988429D01*
X33839285Y80952715D01*
X33696428Y80952715D01*
X33625000Y80988429D01*
X33589285Y81024143D01*
X33553571Y81095572D01*
X33553571Y81238429D01*
X33589285Y81309858D01*
X33625000Y81345572D01*
X33696428Y81381286D01*
D14*
G04 #@! TO.C,F5*
X32604000Y80304429D02*
X32858000Y80304429D01*
X32858000Y79905286D02*
X32858000Y80667286D01*
X32495142Y80667286D01*
X31842000Y80667286D02*
X32204857Y80667286D01*
X32241142Y80304429D01*
X32204857Y80340715D01*
X32132285Y80377000D01*
X31950857Y80377000D01*
X31878285Y80340715D01*
X31842000Y80304429D01*
X31805714Y80231858D01*
X31805714Y80050429D01*
X31842000Y79977858D01*
X31878285Y79941572D01*
X31950857Y79905286D01*
X32132285Y79905286D01*
X32204857Y79941572D01*
X32241142Y79977858D01*
G04 #@! TO.C,F2*
X52406000Y80404429D02*
X52660000Y80404429D01*
X52660000Y80005286D02*
X52660000Y80767286D01*
X52297142Y80767286D01*
X52043142Y80694715D02*
X52006857Y80731000D01*
X51934285Y80767286D01*
X51752857Y80767286D01*
X51680285Y80731000D01*
X51644000Y80694715D01*
X51607714Y80622143D01*
X51607714Y80549572D01*
X51644000Y80440715D01*
X52079428Y80005286D01*
X51607714Y80005286D01*
D12*
G04 #@! TO.C,M4*
X73163146Y10445112D02*
X73761855Y10445112D01*
X60088527Y8944729D02*
X60338145Y8695110D01*
X60338526Y16545110D02*
X73400207Y16545110D01*
X72413145Y9695111D02*
X72413145Y8695110D01*
X60088527Y16295110D02*
X60088527Y8944729D01*
X73400207Y16545110D02*
X73761855Y16183462D01*
X73761855Y16183462D02*
X73761855Y10445112D01*
X60338145Y8695110D02*
X72413145Y8695110D01*
X73163146Y10445112D02*
X72413145Y9695111D01*
X60338526Y16545110D02*
X60088527Y16295110D01*
D16*
G04 #@! TO.C,R8*
X50636417Y85309579D02*
X50636417Y86325579D01*
X49036417Y86325579D02*
X49036417Y85309579D01*
X50636417Y83277579D02*
X50636417Y84293579D01*
X49036417Y84293579D02*
X49036417Y83277579D01*
D17*
X49036417Y83226579D02*
G75*
G03*
X50638055Y83222579I800000J-330000D01*
G01*
X50639911Y86385181D02*
G75*
G03*
X49036417Y86376579I-803494J321398D01*
G01*
D16*
G04 #@! TO.C,R9*
X48682571Y83299049D02*
X48682571Y84315049D01*
X47082571Y86347049D02*
X47082571Y85331049D01*
X47082571Y84315049D02*
X47082571Y83299049D01*
X48682571Y85331049D02*
X48682571Y86347049D01*
D17*
X48686065Y86406651D02*
G75*
G03*
X47082571Y86398049I-803494J321398D01*
G01*
X47082571Y83248049D02*
G75*
G03*
X48684209Y83244049I800000J-330000D01*
G01*
G04 #@! TO.C,F4*
X37700000Y81900000D02*
X37700000Y86750000D01*
X35700000Y81900000D02*
X35700000Y86750000D01*
X35700000Y81850000D02*
G75*
G03*
X37700000Y81850000I1000000J0D01*
G01*
X37700000Y86750000D02*
G75*
G03*
X35700000Y86750000I-1000000J0D01*
G01*
D12*
G04 #@! TO.C,M5*
X79774998Y70229684D02*
X51445000Y70229684D01*
X51025000Y55754681D02*
X50525000Y56254681D01*
X81324998Y68679684D02*
X81324998Y56154683D01*
X80924993Y55754678D02*
X51025000Y55754681D01*
X81324998Y68679684D02*
X79774998Y70229684D01*
X81324998Y56154683D02*
X80924993Y55754678D01*
X50525000Y69304687D02*
X50525000Y56254681D01*
X51449998Y70229684D02*
X50525000Y69304687D01*
D17*
G04 #@! TO.C,P2*
X62982373Y74430000D02*
X63288000Y74430000D01*
X60933627Y71770000D02*
X60628000Y71770000D01*
X60922462Y74430000D02*
X60628000Y74430000D01*
X62993538Y71770000D02*
X63288000Y71770000D01*
X60628000Y71770000D02*
X60628000Y74430000D01*
X63288000Y74430000D02*
X63288000Y71770000D01*
D16*
G04 #@! TO.C,R11*
X25300000Y85308000D02*
X25300000Y86324000D01*
X23700000Y86324000D02*
X23700000Y85308000D01*
X23700000Y84292000D02*
X23700000Y83276000D01*
X25300000Y83276000D02*
X25300000Y84292000D01*
D17*
X23700000Y83225000D02*
G75*
G03*
X25301638Y83221000I800000J-330000D01*
G01*
X25303494Y86383602D02*
G75*
G03*
X23700000Y86375000I-803494J321398D01*
G01*
D16*
G04 #@! TO.C,R6*
X70876000Y102600000D02*
X71892000Y102600000D01*
X71892000Y104200000D02*
X70876000Y104200000D01*
X73924000Y104200000D02*
X72908000Y104200000D01*
X72908000Y102600000D02*
X73924000Y102600000D01*
D17*
X73975000Y102600000D02*
G75*
G03*
X73979000Y104201638I330000J800000D01*
G01*
X70816398Y104203494D02*
G75*
G03*
X70825000Y102600000I-321398J-803494D01*
G01*
D16*
G04 #@! TO.C,R17*
X39700000Y85308000D02*
X39700000Y86324000D01*
X38100000Y84292000D02*
X38100000Y83276000D01*
X38100000Y86324000D02*
X38100000Y85308000D01*
X39700000Y83276000D02*
X39700000Y84292000D01*
D17*
X39703494Y86383602D02*
G75*
G03*
X38100000Y86375000I-803494J321398D01*
G01*
X38100000Y83225000D02*
G75*
G03*
X39701638Y83221000I800000J-330000D01*
G01*
D16*
G04 #@! TO.C,R16*
X44600000Y84292000D02*
X44600000Y83276000D01*
X44600000Y86324000D02*
X44600000Y85308000D01*
X46200000Y85308000D02*
X46200000Y86324000D01*
X46200000Y83276000D02*
X46200000Y84292000D01*
D17*
X44600000Y83225000D02*
G75*
G03*
X46201638Y83221000I800000J-330000D01*
G01*
X46203494Y86383602D02*
G75*
G03*
X44600000Y86375000I-803494J321398D01*
G01*
D12*
G04 #@! TO.C,M7*
X57824540Y16362498D02*
X50931663Y16362498D01*
X50970510Y5187498D02*
X50931663Y16362498D01*
X57768337Y5462502D02*
X56943338Y5462502D01*
X56668332Y5187498D02*
X56943338Y5462502D01*
X56668332Y5187498D02*
X50970510Y5187498D01*
X57768337Y5462502D02*
X57818337Y5518704D01*
X57818337Y5518704D02*
X57818337Y16362498D01*
G04 #@! TO.C,M1*
X22416017Y71137889D02*
X13341016Y71137889D01*
X24240979Y64912925D02*
X23491016Y65662888D01*
X23491016Y70062890D02*
X22416017Y71137889D01*
X29516015Y64787891D02*
X29390981Y64912925D01*
X29390981Y64912925D02*
X24240979Y64912925D01*
X29516015Y55612888D02*
X13341016Y55612888D01*
X29516015Y64787891D02*
X29516015Y55612888D01*
X13341016Y71137889D02*
X13341016Y55612888D01*
X23491016Y70062890D02*
X23491016Y65662888D01*
G04 #@! TO.C,M3*
X47000000Y57750000D02*
X30250000Y57750000D01*
X30250000Y57750000D02*
X30250000Y75800000D01*
X30250000Y75800000D02*
X47000000Y75800000D01*
X47000000Y75800000D02*
X47000000Y57750000D01*
D16*
G04 #@! TO.C,R10*
X44100000Y83276000D02*
X44100000Y84292000D01*
X42500000Y86324000D02*
X42500000Y85308000D01*
X44100000Y85308000D02*
X44100000Y86324000D01*
X42500000Y84292000D02*
X42500000Y83276000D01*
D17*
X44103494Y86383602D02*
G75*
G03*
X42500000Y86375000I-803494J321398D01*
G01*
X42500000Y83225000D02*
G75*
G03*
X44101638Y83221000I800000J-330000D01*
G01*
D16*
G04 #@! TO.C,R19*
X29200000Y84292000D02*
X29200000Y83276000D01*
X30800000Y85308000D02*
X30800000Y86324000D01*
X30800000Y83276000D02*
X30800000Y84292000D01*
X29200000Y86324000D02*
X29200000Y85308000D01*
D17*
X29200000Y83225000D02*
G75*
G03*
X30801638Y83221000I800000J-330000D01*
G01*
X30803494Y86383602D02*
G75*
G03*
X29200000Y86375000I-803494J321398D01*
G01*
G04 #@! TO.C,F1*
X53846000Y81850000D02*
X53846000Y86700000D01*
X55846000Y81850000D02*
X55846000Y86700000D01*
X53846000Y81800000D02*
G75*
G03*
X55846000Y81800000I1000000J0D01*
G01*
X55846000Y86700000D02*
G75*
G03*
X53846000Y86700000I-1000000J0D01*
G01*
D16*
G04 #@! TO.C,R14*
X73924000Y99700000D02*
X72908000Y99700000D01*
X72908000Y98100000D02*
X73924000Y98100000D01*
X71892000Y99700000D02*
X70876000Y99700000D01*
X70876000Y98100000D02*
X71892000Y98100000D01*
D17*
X70825000Y99700000D02*
G75*
G03*
X70821000Y98098362I-330000J-800000D01*
G01*
X73983602Y98096506D02*
G75*
G03*
X73975000Y99700000I321398J803494D01*
G01*
G04 #@! TO.C,F3*
X40100000Y81900000D02*
X40100000Y86750000D01*
X42100000Y81900000D02*
X42100000Y86750000D01*
X40100000Y81850000D02*
G75*
G03*
X42100000Y81850000I1000000J0D01*
G01*
X42100000Y86750000D02*
G75*
G03*
X40100000Y86750000I-1000000J0D01*
G01*
D12*
G04 #@! TO.C,M6*
X80868412Y54002635D02*
X35455726Y54002630D01*
X80949867Y16853623D02*
X37562499Y16853623D01*
X35113299Y17777823D02*
X35113291Y53660195D01*
X35337499Y17553623D02*
X35113299Y17777823D01*
X37562499Y16853623D02*
X36862501Y17553623D01*
X36862501Y17553623D02*
X35337499Y17553623D01*
X35455726Y54002630D02*
X35113291Y53660195D01*
X81437504Y17341261D02*
X80949867Y16853623D01*
X81437504Y17341261D02*
X81437501Y53433546D01*
X81437501Y53433546D02*
X80868412Y54002635D01*
D16*
G04 #@! TO.C,R15*
X57932000Y85308000D02*
X57932000Y86324000D01*
X56332000Y84292000D02*
X56332000Y83276000D01*
X56332000Y86324000D02*
X56332000Y85308000D01*
X57932000Y83276000D02*
X57932000Y84292000D01*
D17*
X56332000Y83225000D02*
G75*
G03*
X57933638Y83221000I800000J-330000D01*
G01*
X57935494Y86383602D02*
G75*
G03*
X56332000Y86375000I-803494J321398D01*
G01*
D16*
G04 #@! TO.C,R7*
X58364000Y86324000D02*
X58364000Y85308000D01*
X58364000Y84292000D02*
X58364000Y83276000D01*
X59964000Y83276000D02*
X59964000Y84292000D01*
X59964000Y85308000D02*
X59964000Y86324000D01*
D17*
X59967494Y86383602D02*
G75*
G03*
X58364000Y86375000I-803494J321398D01*
G01*
X58364000Y83225000D02*
G75*
G03*
X59965638Y83221000I800000J-330000D01*
G01*
D16*
G04 #@! TO.C,R13*
X70876000Y100200000D02*
X71892000Y100200000D01*
X71892000Y101800000D02*
X70876000Y101800000D01*
X73924000Y101800000D02*
X72908000Y101800000D01*
X72908000Y100200000D02*
X73924000Y100200000D01*
D17*
X73975000Y100200000D02*
G75*
G03*
X73979000Y101801638I330000J800000D01*
G01*
X70816398Y101803494D02*
G75*
G03*
X70825000Y100200000I-321398J-803494D01*
G01*
D16*
G04 #@! TO.C,R20*
X60396000Y86372000D02*
X60396000Y85356000D01*
X61996000Y85356000D02*
X61996000Y86372000D01*
X61996000Y83324000D02*
X61996000Y84340000D01*
X60396000Y84340000D02*
X60396000Y83324000D01*
D17*
X60396000Y83273000D02*
G75*
G03*
X61997638Y83269000I800000J-330000D01*
G01*
X61999494Y86431602D02*
G75*
G03*
X60396000Y86423000I-803494J321398D01*
G01*
D12*
G04 #@! TO.C,M2*
X30712500Y52237497D02*
X30112499Y52837499D01*
X30112499Y53362491D02*
X29462493Y54012497D01*
X30712500Y14587499D02*
X23462680Y14587499D01*
X30112499Y52837499D02*
X30112499Y53362491D01*
X23462680Y14587499D02*
X23537158Y54012497D01*
X30712500Y14587499D02*
X30712500Y52237497D01*
X29462493Y54012497D02*
X23537158Y54012497D01*
X24987495Y45362502D02*
X24987495Y47987503D01*
D16*
G04 #@! TO.C,R12*
X26400000Y86324000D02*
X26400000Y85308000D01*
X28000000Y83276000D02*
X28000000Y84292000D01*
X26400000Y84292000D02*
X26400000Y83276000D01*
X28000000Y85308000D02*
X28000000Y86324000D01*
D17*
X26400000Y83225000D02*
G75*
G03*
X28001638Y83221000I800000J-330000D01*
G01*
X28003494Y86383602D02*
G75*
G03*
X26400000Y86375000I-803494J321398D01*
G01*
D16*
G04 #@! TO.C,R18*
X35300000Y85308000D02*
X35300000Y86324000D01*
X33700000Y86324000D02*
X33700000Y85308000D01*
X35300000Y83276000D02*
X35300000Y84292000D01*
X33700000Y84292000D02*
X33700000Y83276000D01*
D17*
X35303494Y86383602D02*
G75*
G03*
X33700000Y86375000I-803494J321398D01*
G01*
X33700000Y83225000D02*
G75*
G03*
X35301638Y83221000I800000J-330000D01*
G01*
G04 #@! TO.C,F5*
X31300000Y81800000D02*
X31300000Y86650000D01*
X33300000Y81800000D02*
X33300000Y86650000D01*
X31300000Y81750000D02*
G75*
G03*
X33300000Y81750000I1000000J0D01*
G01*
X33300000Y86650000D02*
G75*
G03*
X31300000Y86650000I-1000000J0D01*
G01*
G04 #@! TO.C,F2*
X53052000Y81900000D02*
X53052000Y86750000D01*
X51052000Y81900000D02*
X51052000Y86750000D01*
X53052000Y86750000D02*
G75*
G03*
X51052000Y86750000I-1000000J0D01*
G01*
X51052000Y81850000D02*
G75*
G03*
X53052000Y81850000I1000000J0D01*
G01*
D18*
G04 #@! TO.C,G2*
X63547200Y4596240D02*
X63549740Y3900280D01*
X63549740Y3900280D02*
X63704680Y3209400D01*
X63704680Y3209400D02*
X64004400Y2556620D01*
X64004400Y2556620D02*
X64433660Y1980040D01*
X64433660Y1980040D02*
X64586060Y1822560D01*
X64586060Y1822560D02*
X65099140Y1406000D01*
X65099140Y1406000D02*
X65624920Y1129140D01*
X65624920Y1129140D02*
X66211660Y974200D01*
X66211660Y974200D02*
X66773000Y925940D01*
X66773000Y925940D02*
X67367360Y931020D01*
X67367360Y931020D02*
X67827100Y999600D01*
X67827100Y999600D02*
X67956640Y1035160D01*
X67956640Y1035160D02*
X68634820Y1337420D01*
X68634820Y1337420D02*
X69221560Y1781920D01*
X69221560Y1781920D02*
X69719400Y2368660D01*
X69719400Y2368660D02*
X70008960Y2853800D01*
X70008960Y2853800D02*
X70115640Y3072240D01*
X70115640Y3072240D02*
X70184220Y3270360D01*
X70184220Y3270360D02*
X70222320Y3491340D01*
X70222320Y3491340D02*
X70240100Y3780900D01*
X70240100Y3780900D02*
X70245180Y4189840D01*
X70245180Y4189840D02*
X70245180Y4243180D01*
X70245180Y4243180D02*
X70240100Y4667360D01*
X70240100Y4667360D02*
X70224860Y4972160D01*
X70224860Y4972160D02*
X70186760Y5203300D01*
X70186760Y5203300D02*
X70120720Y5411580D01*
X70120720Y5411580D02*
X70016580Y5642720D01*
X70016580Y5642720D02*
X70001340Y5668120D01*
X70001340Y5668120D02*
X69668600Y6196440D01*
X69668600Y6196440D02*
X69216480Y6694280D01*
X69216480Y6694280D02*
X68698320Y7105760D01*
X68698320Y7105760D02*
X68375740Y7293720D01*
X68375740Y7293720D02*
X68136980Y7402940D01*
X68136980Y7402940D02*
X67931240Y7476600D01*
X67931240Y7476600D02*
X67705180Y7517240D01*
X67705180Y7517240D02*
X67415620Y7537560D01*
X67415620Y7537560D02*
X67009220Y7542640D01*
X67009220Y7542640D02*
X66940640Y7542640D01*
X66940640Y7542640D02*
X66521540Y7540100D01*
X66521540Y7540100D02*
X66219280Y7524860D01*
X66219280Y7524860D02*
X65990680Y7489300D01*
X65990680Y7489300D02*
X65782400Y7423260D01*
X65782400Y7423260D02*
X65546180Y7316580D01*
X65546180Y7316580D02*
X65459820Y7273400D01*
X65459820Y7273400D02*
X64923880Y6935580D01*
X64923880Y6935580D02*
X64420960Y6488540D01*
X64420960Y6488540D02*
X64012020Y5983080D01*
X64012020Y5983080D02*
X63943440Y5871320D01*
X63943440Y5871320D02*
X63752940Y5553820D01*
X63752940Y5553820D02*
X64260940Y5553820D01*
X64260940Y5553820D02*
X64573360Y5541120D01*
X64573360Y5541120D02*
X64751160Y5495400D01*
X64751160Y5495400D02*
X64814660Y5429360D01*
X64814660Y5429360D02*
X64799420Y5320140D01*
X64799420Y5320140D02*
X64728300Y5302360D01*
X64728300Y5302360D02*
X64636860Y5259180D01*
X64636860Y5259180D02*
X64634320Y5106780D01*
X64634320Y5106780D02*
X64641940Y5068680D01*
X64641940Y5068680D02*
X64677500Y4885800D01*
X64677500Y4885800D02*
X64730840Y4586080D01*
X64730840Y4586080D02*
X64799420Y4217780D01*
X64799420Y4217780D02*
X64837520Y3996800D01*
X64837520Y3996800D02*
X64916260Y3595480D01*
X64916260Y3595480D02*
X64984840Y3333860D01*
X64984840Y3333860D02*
X65053420Y3184000D01*
X65053420Y3184000D02*
X65129620Y3123040D01*
X65129620Y3123040D02*
X65139780Y3120500D01*
X65139780Y3120500D02*
X65152480Y3115420D01*
X65152480Y3115420D02*
X65152480Y5553820D01*
X65152480Y5553820D02*
X66110060Y5553820D01*
X66110060Y5553820D02*
X66534240Y5551280D01*
X66534240Y5551280D02*
X66816180Y5538580D01*
X66816180Y5538580D02*
X66981280Y5513180D01*
X66981280Y5513180D02*
X67054940Y5472540D01*
X67054940Y5472540D02*
X67070180Y5426820D01*
X67070180Y5426820D02*
X67001600Y5315060D01*
X67001600Y5315060D02*
X66943180Y5299820D01*
X66943180Y5299820D02*
X66884760Y5304900D01*
X66884760Y5304900D02*
X66846660Y5297280D01*
X66846660Y5297280D02*
X66831420Y5254100D01*
X66831420Y5254100D02*
X66839040Y5149960D01*
X66839040Y5149960D02*
X66874600Y4954380D01*
X66874600Y4954380D02*
X66935560Y4647040D01*
X66935560Y4647040D02*
X67027000Y4200000D01*
X67027000Y4200000D02*
X67108280Y3803760D01*
X67108280Y3803760D02*
X67174320Y3471020D01*
X67174320Y3471020D02*
X67220040Y3237340D01*
X67220040Y3237340D02*
X67237820Y3133200D01*
X67237820Y3133200D02*
X67237820Y3130660D01*
X67237820Y3130660D02*
X67308940Y3102720D01*
X67308940Y3102720D02*
X67364820Y3100180D01*
X67364820Y3100180D02*
X67438480Y3072240D01*
X67438480Y3072240D02*
X67438480Y5553820D01*
X67438480Y5553820D02*
X68396060Y5553820D01*
X68396060Y5553820D02*
X68820240Y5551280D01*
X68820240Y5551280D02*
X69102180Y5538580D01*
X69102180Y5538580D02*
X69267280Y5513180D01*
X69267280Y5513180D02*
X69340940Y5472540D01*
X69340940Y5472540D02*
X69356180Y5426820D01*
X69356180Y5426820D02*
X69287600Y5317600D01*
X69287600Y5317600D02*
X69224100Y5299820D01*
X69224100Y5299820D02*
X69127580Y5243940D01*
X69127580Y5243940D02*
X69132660Y5152500D01*
X69132660Y5152500D02*
X69165680Y5012800D01*
X69165680Y5012800D02*
X69224100Y4746100D01*
X69224100Y4746100D02*
X69295220Y4395580D01*
X69295220Y4395580D02*
X69363800Y4052680D01*
X69363800Y4052680D02*
X69465400Y3575160D01*
X69465400Y3575160D02*
X69556840Y3260200D01*
X69556840Y3260200D02*
X69633040Y3112880D01*
X69633040Y3112880D02*
X69658440Y3100180D01*
X69658440Y3100180D02*
X69798140Y3041760D01*
X69798140Y3041760D02*
X69821000Y3013820D01*
X69821000Y3013820D02*
X69765120Y2975720D01*
X69765120Y2975720D02*
X69549220Y2947780D01*
X69549220Y2947780D02*
X69178380Y2932540D01*
X69178380Y2932540D02*
X68853260Y2930000D01*
X68853260Y2930000D02*
X67832180Y2930000D01*
X67832180Y2930000D02*
X67832180Y3184000D01*
X67832180Y3184000D02*
X67870280Y3387200D01*
X67870280Y3387200D02*
X67959180Y3438000D01*
X67959180Y3438000D02*
X68070940Y3374500D01*
X68070940Y3374500D02*
X68086180Y3318620D01*
X68086180Y3318620D02*
X68159840Y3250040D01*
X68159840Y3250040D02*
X68345260Y3181460D01*
X68345260Y3181460D02*
X68578940Y3128120D01*
X68578940Y3128120D02*
X68805000Y3100180D01*
X68805000Y3100180D02*
X68962480Y3112880D01*
X68962480Y3112880D02*
X68990420Y3130660D01*
X68990420Y3130660D02*
X69005660Y3232260D01*
X69005660Y3232260D02*
X68998040Y3450700D01*
X68998040Y3450700D02*
X68977720Y3646280D01*
X68977720Y3646280D02*
X68919300Y4116180D01*
X68919300Y4116180D02*
X68586560Y4116180D01*
X68586560Y4116180D02*
X68378280Y4095860D01*
X68378280Y4095860D02*
X68261440Y4042520D01*
X68261440Y4042520D02*
X68253820Y4024740D01*
X68253820Y4024740D02*
X68220800Y3940920D01*
X68220800Y3940920D02*
X68144600Y3976480D01*
X68144600Y3976480D02*
X68055700Y4095860D01*
X68055700Y4095860D02*
X67992200Y4268580D01*
X67992200Y4268580D02*
X67992200Y4271120D01*
X67992200Y4271120D02*
X67974420Y4464160D01*
X67974420Y4464160D02*
X68030300Y4537820D01*
X68030300Y4537820D02*
X68053160Y4537820D01*
X68053160Y4537820D02*
X68159840Y4489560D01*
X68159840Y4489560D02*
X68170000Y4454000D01*
X68170000Y4454000D02*
X68246200Y4400660D01*
X68246200Y4400660D02*
X68431620Y4370180D01*
X68431620Y4370180D02*
X68495120Y4370180D01*
X68495120Y4370180D02*
X68817700Y4370180D01*
X68817700Y4370180D02*
X68733880Y4835000D01*
X68733880Y4835000D02*
X68650060Y5302360D01*
X68650060Y5302360D02*
X68147140Y5299820D01*
X68147140Y5299820D02*
X67865200Y5294740D01*
X67865200Y5294740D02*
X67720420Y5266800D01*
X67720420Y5266800D02*
X67684860Y5208380D01*
X67684860Y5208380D02*
X67692480Y5172820D01*
X67692480Y5172820D02*
X67682320Y5063600D01*
X67682320Y5063600D02*
X67626440Y5045820D01*
X67626440Y5045820D02*
X67535000Y5122020D01*
X67535000Y5122020D02*
X67476580Y5297280D01*
X67476580Y5297280D02*
X67474040Y5299820D01*
X67474040Y5299820D02*
X67438480Y5553820D01*
X67438480Y5553820D02*
X67438480Y3072240D01*
X67438480Y3072240D02*
X67479120Y3054460D01*
X67479120Y3054460D02*
X67491820Y3013820D01*
X67491820Y3013820D02*
X67415620Y2970640D01*
X67415620Y2970640D02*
X67214960Y2940160D01*
X67214960Y2940160D02*
X66983820Y2930000D01*
X66983820Y2930000D02*
X66714580Y2942700D01*
X66714580Y2942700D02*
X66531700Y2975720D01*
X66531700Y2975720D02*
X66475820Y3013820D01*
X66475820Y3013820D02*
X66546940Y3087480D01*
X66546940Y3087480D02*
X66612980Y3100180D01*
X66612980Y3100180D02*
X66694260Y3125580D01*
X66694260Y3125580D02*
X66719660Y3232260D01*
X66719660Y3232260D02*
X66696800Y3458320D01*
X66696800Y3458320D02*
X66691720Y3491340D01*
X66691720Y3491340D02*
X66646000Y3752960D01*
X66646000Y3752960D02*
X66602820Y3951080D01*
X66602820Y3951080D02*
X66587580Y3999340D01*
X66587580Y3999340D02*
X66491060Y4070460D01*
X66491060Y4070460D02*
X66315800Y4111100D01*
X66315800Y4111100D02*
X66125300Y4111100D01*
X66125300Y4111100D02*
X65993220Y4073000D01*
X65993220Y4073000D02*
X65967820Y4029820D01*
X65967820Y4029820D02*
X65927180Y3940920D01*
X65927180Y3940920D02*
X65833200Y3958700D01*
X65833200Y3958700D02*
X65734140Y4062840D01*
X65734140Y4062840D02*
X65690960Y4179680D01*
X65690960Y4179680D02*
X65670640Y4393040D01*
X65670640Y4393040D02*
X65721440Y4454000D01*
X65721440Y4454000D02*
X65817960Y4385420D01*
X65817960Y4385420D02*
X65967820Y4316840D01*
X65967820Y4316840D02*
X66191340Y4286360D01*
X66191340Y4286360D02*
X66209120Y4283820D01*
X66209120Y4283820D02*
X66498680Y4283820D01*
X66498680Y4283820D02*
X66440260Y4725780D01*
X66440260Y4725780D02*
X66399620Y4987400D01*
X66399620Y4987400D02*
X66358980Y5177900D01*
X66358980Y5177900D02*
X66341200Y5233780D01*
X66341200Y5233780D02*
X66239600Y5269340D01*
X66239600Y5269340D02*
X66021160Y5294740D01*
X66021160Y5294740D02*
X65828120Y5299820D01*
X65828120Y5299820D02*
X65558880Y5292200D01*
X65558880Y5292200D02*
X65426800Y5261720D01*
X65426800Y5261720D02*
X65398860Y5200760D01*
X65398860Y5200760D02*
X65406480Y5175360D01*
X65406480Y5175360D02*
X65396320Y5063600D01*
X65396320Y5063600D02*
X65340440Y5045820D01*
X65340440Y5045820D02*
X65249000Y5122020D01*
X65249000Y5122020D02*
X65190580Y5297280D01*
X65190580Y5297280D02*
X65188040Y5299820D01*
X65188040Y5299820D02*
X65152480Y5553820D01*
X65152480Y5553820D02*
X65152480Y3115420D01*
X65152480Y3115420D02*
X65284560Y3059540D01*
X65284560Y3059540D02*
X65276940Y3001120D01*
X65276940Y3001120D02*
X65137240Y2955400D01*
X65137240Y2955400D02*
X64880700Y2932540D01*
X64880700Y2932540D02*
X64784180Y2930000D01*
X64784180Y2930000D02*
X64512400Y2942700D01*
X64512400Y2942700D02*
X64329520Y2975720D01*
X64329520Y2975720D02*
X64276180Y3013820D01*
X64276180Y3013820D02*
X64344760Y3090020D01*
X64344760Y3090020D02*
X64403180Y3100180D01*
X64403180Y3100180D02*
X64464140Y3105260D01*
X64464140Y3105260D02*
X64502240Y3135740D01*
X64502240Y3135740D02*
X64512400Y3217020D01*
X64512400Y3217020D02*
X64497160Y3377040D01*
X64497160Y3377040D02*
X64453980Y3638660D01*
X64453980Y3638660D02*
X64377780Y4027280D01*
X64377780Y4027280D02*
X64326980Y4281280D01*
X64326980Y4281280D02*
X64222840Y4763880D01*
X64222840Y4763880D02*
X64126320Y5094080D01*
X64126320Y5094080D02*
X64045040Y5264260D01*
X64045040Y5264260D02*
X64014560Y5287120D01*
X64014560Y5287120D02*
X63867240Y5381100D01*
X63867240Y5381100D02*
X63836760Y5416660D01*
X63836760Y5416660D02*
X63773260Y5424280D01*
X63773260Y5424280D02*
X63699600Y5292200D01*
X63699600Y5292200D02*
X63625940Y5050900D01*
X63625940Y5050900D02*
X63564980Y4733400D01*
X63564980Y4733400D02*
X63547200Y4596240D01*
X63547200Y4596240D02*
X63547200Y4596240D01*
G36*
X65129620Y3123040D02*
G01*
X65053420Y3184000D01*
X64984840Y3333860D01*
X64916260Y3595480D01*
X64837520Y3996800D01*
X64799420Y4217780D01*
X64730840Y4586080D01*
X64677500Y4885800D01*
X64641940Y5068680D01*
X64634320Y5106780D01*
X64636860Y5259180D01*
X64728300Y5302360D01*
X64799420Y5320140D01*
X64814660Y5429360D01*
X64751160Y5495400D01*
X64573360Y5541120D01*
X64260940Y5553820D01*
X65152480Y5553820D01*
X65188040Y5299820D01*
X65190580Y5297280D01*
X65249000Y5122020D01*
X65340440Y5045820D01*
X65396320Y5063600D01*
X65406480Y5175360D01*
X65398860Y5200760D01*
X65426800Y5261720D01*
X65558880Y5292200D01*
X65828120Y5299820D01*
X66021160Y5294740D01*
X66239600Y5269340D01*
X66341200Y5233780D01*
X66358980Y5177900D01*
X66399620Y4987400D01*
X66440260Y4725780D01*
X66498680Y4283820D01*
X66209120Y4283820D01*
X66191340Y4286360D01*
X65967820Y4316840D01*
X65817960Y4385420D01*
X65721440Y4454000D01*
X65670640Y4393040D01*
X65690960Y4179680D01*
X65734140Y4062840D01*
X65833200Y3958700D01*
X65927180Y3940920D01*
X65967820Y4029820D01*
X65993220Y4073000D01*
X66125300Y4111100D01*
X66315800Y4111100D01*
X66491060Y4070460D01*
X66587580Y3999340D01*
X66602820Y3951080D01*
X66646000Y3752960D01*
X66691720Y3491340D01*
X66696800Y3458320D01*
X66719660Y3232260D01*
X66694260Y3125580D01*
X66612980Y3100180D01*
X66546940Y3087480D01*
X66475820Y3013820D01*
X66531700Y2975720D01*
X66714580Y2942700D01*
X66983820Y2930000D01*
X67214960Y2940160D01*
X67415620Y2970640D01*
X67491820Y3013820D01*
X67479120Y3054460D01*
X67438480Y3072240D01*
X67364820Y3100180D01*
X67308940Y3102720D01*
X67237820Y3130660D01*
X67237820Y3133200D01*
X67220040Y3237340D01*
X67174320Y3471020D01*
X67108280Y3803760D01*
X67027000Y4200000D01*
X66935560Y4647040D01*
X66874600Y4954380D01*
X66839040Y5149960D01*
X66831420Y5254100D01*
X66846660Y5297280D01*
X66884760Y5304900D01*
X66943180Y5299820D01*
X67001600Y5315060D01*
X67070180Y5426820D01*
X67054940Y5472540D01*
X66981280Y5513180D01*
X66816180Y5538580D01*
X66534240Y5551280D01*
X66110060Y5553820D01*
X67438480Y5553820D01*
X67474040Y5299820D01*
X67476580Y5297280D01*
X67535000Y5122020D01*
X67626440Y5045820D01*
X67682320Y5063600D01*
X67692480Y5172820D01*
X67684860Y5208380D01*
X67720420Y5266800D01*
X67865200Y5294740D01*
X68147140Y5299820D01*
X68650060Y5302360D01*
X68733880Y4835000D01*
X68817700Y4370180D01*
X68431620Y4370180D01*
X68246200Y4400660D01*
X68170000Y4454000D01*
X68159840Y4489560D01*
X68053160Y4537820D01*
X68030300Y4537820D01*
X67974420Y4464160D01*
X67992200Y4271120D01*
X67992200Y4268580D01*
X68055700Y4095860D01*
X68144600Y3976480D01*
X68220800Y3940920D01*
X68253820Y4024740D01*
X68261440Y4042520D01*
X68378280Y4095860D01*
X68586560Y4116180D01*
X68919300Y4116180D01*
X68977720Y3646280D01*
X68998040Y3450700D01*
X69005660Y3232260D01*
X68990420Y3130660D01*
X68962480Y3112880D01*
X68805000Y3100180D01*
X68578940Y3128120D01*
X68345260Y3181460D01*
X68159840Y3250040D01*
X68086180Y3318620D01*
X68070940Y3374500D01*
X67959180Y3438000D01*
X67870280Y3387200D01*
X67832180Y3184000D01*
X67832180Y2930000D01*
X68853260Y2930000D01*
X69178380Y2932540D01*
X69549220Y2947780D01*
X69765120Y2975720D01*
X69821000Y3013820D01*
X69798140Y3041760D01*
X69658440Y3100180D01*
X69633040Y3112880D01*
X69556840Y3260200D01*
X69465400Y3575160D01*
X69363800Y4052680D01*
X69295220Y4395580D01*
X69224100Y4746100D01*
X69165680Y5012800D01*
X69132660Y5152500D01*
X69127580Y5243940D01*
X69224100Y5299820D01*
X69287600Y5317600D01*
X69356180Y5426820D01*
X69340940Y5472540D01*
X69267280Y5513180D01*
X69102180Y5538580D01*
X68820240Y5551280D01*
X68396060Y5553820D01*
X67438480Y5553820D01*
X66110060Y5553820D01*
X65152480Y5553820D01*
X64260940Y5553820D01*
X63752940Y5553820D01*
X63943440Y5871320D01*
X64012020Y5983080D01*
X64420960Y6488540D01*
X64923880Y6935580D01*
X65459820Y7273400D01*
X65546180Y7316580D01*
X65782400Y7423260D01*
X65990680Y7489300D01*
X66219280Y7524860D01*
X66521540Y7540100D01*
X66940640Y7542640D01*
X67009220Y7542640D01*
X67415620Y7537560D01*
X67705180Y7517240D01*
X67931240Y7476600D01*
X68136980Y7402940D01*
X68375740Y7293720D01*
X68698320Y7105760D01*
X69216480Y6694280D01*
X69668600Y6196440D01*
X70001340Y5668120D01*
X70016580Y5642720D01*
X70120720Y5411580D01*
X70186760Y5203300D01*
X70224860Y4972160D01*
X70240100Y4667360D01*
X70245180Y4243180D01*
X70245180Y4189840D01*
X70240100Y3780900D01*
X70222320Y3491340D01*
X70184220Y3270360D01*
X70115640Y3072240D01*
X70008960Y2853800D01*
X69719400Y2368660D01*
X69221560Y1781920D01*
X68634820Y1337420D01*
X67956640Y1035160D01*
X67827100Y999600D01*
X67367360Y931020D01*
X66773000Y925940D01*
X66211660Y974200D01*
X65624920Y1129140D01*
X65099140Y1406000D01*
X64586060Y1822560D01*
X64433660Y1980040D01*
X64004400Y2556620D01*
X63704680Y3209400D01*
X63549740Y3900280D01*
X63547200Y4596240D01*
X63564980Y4733400D01*
X63625940Y5050900D01*
X63699600Y5292200D01*
X63773260Y5424280D01*
X63836760Y5416660D01*
X63867240Y5381100D01*
X64014560Y5287120D01*
X64045040Y5264260D01*
X64126320Y5094080D01*
X64222840Y4763880D01*
X64326980Y4281280D01*
X64377780Y4027280D01*
X64453980Y3638660D01*
X64497160Y3377040D01*
X64512400Y3217020D01*
X64502240Y3135740D01*
X64464140Y3105260D01*
X64403180Y3100180D01*
X64344760Y3090020D01*
X64276180Y3013820D01*
X64329520Y2975720D01*
X64512400Y2942700D01*
X64784180Y2930000D01*
X64880700Y2932540D01*
X65137240Y2955400D01*
X65276940Y3001120D01*
X65284560Y3059540D01*
X65152480Y3115420D01*
X65139780Y3120500D01*
X65129620Y3123040D01*
G37*
X65129620Y3123040D02*
X65053420Y3184000D01*
X64984840Y3333860D01*
X64916260Y3595480D01*
X64837520Y3996800D01*
X64799420Y4217780D01*
X64730840Y4586080D01*
X64677500Y4885800D01*
X64641940Y5068680D01*
X64634320Y5106780D01*
X64636860Y5259180D01*
X64728300Y5302360D01*
X64799420Y5320140D01*
X64814660Y5429360D01*
X64751160Y5495400D01*
X64573360Y5541120D01*
X64260940Y5553820D01*
X65152480Y5553820D01*
X65188040Y5299820D01*
X65190580Y5297280D01*
X65249000Y5122020D01*
X65340440Y5045820D01*
X65396320Y5063600D01*
X65406480Y5175360D01*
X65398860Y5200760D01*
X65426800Y5261720D01*
X65558880Y5292200D01*
X65828120Y5299820D01*
X66021160Y5294740D01*
X66239600Y5269340D01*
X66341200Y5233780D01*
X66358980Y5177900D01*
X66399620Y4987400D01*
X66440260Y4725780D01*
X66498680Y4283820D01*
X66209120Y4283820D01*
X66191340Y4286360D01*
X65967820Y4316840D01*
X65817960Y4385420D01*
X65721440Y4454000D01*
X65670640Y4393040D01*
X65690960Y4179680D01*
X65734140Y4062840D01*
X65833200Y3958700D01*
X65927180Y3940920D01*
X65967820Y4029820D01*
X65993220Y4073000D01*
X66125300Y4111100D01*
X66315800Y4111100D01*
X66491060Y4070460D01*
X66587580Y3999340D01*
X66602820Y3951080D01*
X66646000Y3752960D01*
X66691720Y3491340D01*
X66696800Y3458320D01*
X66719660Y3232260D01*
X66694260Y3125580D01*
X66612980Y3100180D01*
X66546940Y3087480D01*
X66475820Y3013820D01*
X66531700Y2975720D01*
X66714580Y2942700D01*
X66983820Y2930000D01*
X67214960Y2940160D01*
X67415620Y2970640D01*
X67491820Y3013820D01*
X67479120Y3054460D01*
X67438480Y3072240D01*
X67364820Y3100180D01*
X67308940Y3102720D01*
X67237820Y3130660D01*
X67237820Y3133200D01*
X67220040Y3237340D01*
X67174320Y3471020D01*
X67108280Y3803760D01*
X67027000Y4200000D01*
X66935560Y4647040D01*
X66874600Y4954380D01*
X66839040Y5149960D01*
X66831420Y5254100D01*
X66846660Y5297280D01*
X66884760Y5304900D01*
X66943180Y5299820D01*
X67001600Y5315060D01*
X67070180Y5426820D01*
X67054940Y5472540D01*
X66981280Y5513180D01*
X66816180Y5538580D01*
X66534240Y5551280D01*
X66110060Y5553820D01*
X67438480Y5553820D01*
X67474040Y5299820D01*
X67476580Y5297280D01*
X67535000Y5122020D01*
X67626440Y5045820D01*
X67682320Y5063600D01*
X67692480Y5172820D01*
X67684860Y5208380D01*
X67720420Y5266800D01*
X67865200Y5294740D01*
X68147140Y5299820D01*
X68650060Y5302360D01*
X68733880Y4835000D01*
X68817700Y4370180D01*
X68431620Y4370180D01*
X68246200Y4400660D01*
X68170000Y4454000D01*
X68159840Y4489560D01*
X68053160Y4537820D01*
X68030300Y4537820D01*
X67974420Y4464160D01*
X67992200Y4271120D01*
X67992200Y4268580D01*
X68055700Y4095860D01*
X68144600Y3976480D01*
X68220800Y3940920D01*
X68253820Y4024740D01*
X68261440Y4042520D01*
X68378280Y4095860D01*
X68586560Y4116180D01*
X68919300Y4116180D01*
X68977720Y3646280D01*
X68998040Y3450700D01*
X69005660Y3232260D01*
X68990420Y3130660D01*
X68962480Y3112880D01*
X68805000Y3100180D01*
X68578940Y3128120D01*
X68345260Y3181460D01*
X68159840Y3250040D01*
X68086180Y3318620D01*
X68070940Y3374500D01*
X67959180Y3438000D01*
X67870280Y3387200D01*
X67832180Y3184000D01*
X67832180Y2930000D01*
X68853260Y2930000D01*
X69178380Y2932540D01*
X69549220Y2947780D01*
X69765120Y2975720D01*
X69821000Y3013820D01*
X69798140Y3041760D01*
X69658440Y3100180D01*
X69633040Y3112880D01*
X69556840Y3260200D01*
X69465400Y3575160D01*
X69363800Y4052680D01*
X69295220Y4395580D01*
X69224100Y4746100D01*
X69165680Y5012800D01*
X69132660Y5152500D01*
X69127580Y5243940D01*
X69224100Y5299820D01*
X69287600Y5317600D01*
X69356180Y5426820D01*
X69340940Y5472540D01*
X69267280Y5513180D01*
X69102180Y5538580D01*
X68820240Y5551280D01*
X68396060Y5553820D01*
X67438480Y5553820D01*
X66110060Y5553820D01*
X65152480Y5553820D01*
X64260940Y5553820D01*
X63752940Y5553820D01*
X63943440Y5871320D01*
X64012020Y5983080D01*
X64420960Y6488540D01*
X64923880Y6935580D01*
X65459820Y7273400D01*
X65546180Y7316580D01*
X65782400Y7423260D01*
X65990680Y7489300D01*
X66219280Y7524860D01*
X66521540Y7540100D01*
X66940640Y7542640D01*
X67009220Y7542640D01*
X67415620Y7537560D01*
X67705180Y7517240D01*
X67931240Y7476600D01*
X68136980Y7402940D01*
X68375740Y7293720D01*
X68698320Y7105760D01*
X69216480Y6694280D01*
X69668600Y6196440D01*
X70001340Y5668120D01*
X70016580Y5642720D01*
X70120720Y5411580D01*
X70186760Y5203300D01*
X70224860Y4972160D01*
X70240100Y4667360D01*
X70245180Y4243180D01*
X70245180Y4189840D01*
X70240100Y3780900D01*
X70222320Y3491340D01*
X70184220Y3270360D01*
X70115640Y3072240D01*
X70008960Y2853800D01*
X69719400Y2368660D01*
X69221560Y1781920D01*
X68634820Y1337420D01*
X67956640Y1035160D01*
X67827100Y999600D01*
X67367360Y931020D01*
X66773000Y925940D01*
X66211660Y974200D01*
X65624920Y1129140D01*
X65099140Y1406000D01*
X64586060Y1822560D01*
X64433660Y1980040D01*
X64004400Y2556620D01*
X63704680Y3209400D01*
X63549740Y3900280D01*
X63547200Y4596240D01*
X63564980Y4733400D01*
X63625940Y5050900D01*
X63699600Y5292200D01*
X63773260Y5424280D01*
X63836760Y5416660D01*
X63867240Y5381100D01*
X64014560Y5287120D01*
X64045040Y5264260D01*
X64126320Y5094080D01*
X64222840Y4763880D01*
X64326980Y4281280D01*
X64377780Y4027280D01*
X64453980Y3638660D01*
X64497160Y3377040D01*
X64512400Y3217020D01*
X64502240Y3135740D01*
X64464140Y3105260D01*
X64403180Y3100180D01*
X64344760Y3090020D01*
X64276180Y3013820D01*
X64329520Y2975720D01*
X64512400Y2942700D01*
X64784180Y2930000D01*
X64880700Y2932540D01*
X65137240Y2955400D01*
X65276940Y3001120D01*
X65284560Y3059540D01*
X65152480Y3115420D01*
X65139780Y3120500D01*
X65129620Y3123040D01*
G04 #@! TO.C,G\u002A\u002A\u002A*
G36*
X17392790Y16678164D02*
G01*
X16892462Y16678164D01*
X16892462Y17178492D01*
X17392790Y17178492D01*
X17392790Y16678164D01*
G37*
G36*
X4884583Y8172583D02*
G01*
X4884583Y9673568D01*
X5885239Y9673568D01*
X6385568Y9673568D01*
X6385568Y9173239D01*
X7886552Y9173239D01*
X7886552Y9673568D01*
X6885896Y9673568D01*
X6885896Y11174552D01*
X6385568Y11174552D01*
X6385568Y10674224D01*
X5885239Y10674224D01*
X5885239Y9673568D01*
X4884583Y9673568D01*
X4884583Y12175209D01*
X5885239Y12175209D01*
X6385568Y12175209D01*
X6385568Y11674881D01*
X6885896Y11674881D01*
X6885896Y12175209D01*
X7886552Y12175209D01*
X7886552Y11674881D01*
X7386224Y11674881D01*
X7386224Y11174552D01*
X9387537Y11174552D01*
X9387537Y10173896D01*
X7886552Y10173896D01*
X7886552Y10674224D01*
X7386224Y10674224D01*
X7386224Y10173896D01*
X7886552Y10173896D01*
X7886552Y9673568D01*
X8386881Y9673568D01*
X8386881Y9173239D01*
X8887209Y9173239D01*
X8887209Y9673568D01*
X9387537Y9673568D01*
X9387537Y9173239D01*
X11388851Y9173239D01*
X11388851Y9673568D01*
X11889179Y9673568D01*
X11889179Y9173239D01*
X14891149Y9173239D01*
X15391477Y9173239D01*
X20394760Y9173239D01*
X20394760Y12675537D01*
X16892462Y12675537D01*
X16892462Y9173239D01*
X15891805Y9173239D01*
X15891805Y9673568D01*
X15391477Y9673568D01*
X15391477Y9173239D01*
X14891149Y9173239D01*
X14891149Y9673568D01*
X15391477Y9673568D01*
X15391477Y11174552D01*
X16392134Y11174552D01*
X16392134Y13175866D01*
X18893775Y13175866D01*
X19394103Y13175866D01*
X20394760Y13175866D01*
X20394760Y13676194D01*
X19394103Y13676194D01*
X19394103Y13175866D01*
X18893775Y13175866D01*
X18893775Y13676194D01*
X17893118Y13676194D01*
X17893118Y14176522D01*
X17392790Y14176522D01*
X17392790Y14676851D01*
X17893118Y14676851D01*
X18893775Y14676851D01*
X19394103Y14676851D01*
X20394760Y14676851D01*
X20394760Y15177179D01*
X19394103Y15177179D01*
X19394103Y14676851D01*
X18893775Y14676851D01*
X18893775Y15177179D01*
X19394103Y15177179D01*
X19394103Y16177835D01*
X18393447Y16177835D01*
X18393447Y15677507D01*
X17893118Y15677507D01*
X17893118Y14676851D01*
X17392790Y14676851D01*
X16392134Y14676851D01*
X16392134Y15177179D01*
X16892462Y15177179D01*
X17392790Y15177179D01*
X17392790Y15677507D01*
X16892462Y15677507D01*
X16892462Y15177179D01*
X16392134Y15177179D01*
X16392134Y16177835D01*
X17392790Y16177835D01*
X17392790Y16678164D01*
X18393447Y16678164D01*
X18393447Y17178492D01*
X18893775Y17178492D01*
X18893775Y16678164D01*
X19894432Y16678164D01*
X19894432Y16177835D01*
X20394760Y16177835D01*
X20394760Y17678820D01*
X19894432Y17678820D01*
X19894432Y18179149D01*
X20394760Y18179149D01*
X20394760Y18679477D01*
X19894432Y18679477D01*
X19894432Y19179805D01*
X18393447Y19179805D01*
X18393447Y19680134D01*
X16392134Y19680134D01*
X16392134Y20180462D01*
X16892462Y20180462D01*
X20394760Y20180462D01*
X20394760Y23682760D01*
X16892462Y23682760D01*
X16892462Y20180462D01*
X16392134Y20180462D01*
X16392134Y21181118D01*
X15891805Y21181118D01*
X15891805Y22181775D01*
X15391477Y22181775D01*
X15391477Y22682103D01*
X16392134Y22682103D01*
X16392134Y23182432D01*
X15891805Y23182432D01*
X15891805Y23682760D01*
X15391477Y23682760D01*
X15391477Y22682103D01*
X14891149Y22682103D01*
X14891149Y23682760D01*
X13390164Y23682760D01*
X13390164Y22682103D01*
X13890492Y22682103D01*
X13890492Y22181775D01*
X12889835Y22181775D01*
X12889835Y23182432D01*
X12389507Y23182432D01*
X12389507Y23682760D01*
X11889179Y23682760D01*
X11889179Y23182432D01*
X12389507Y23182432D01*
X12389507Y22181775D01*
X11889179Y22181775D01*
X11889179Y22682103D01*
X11388851Y22682103D01*
X11388851Y23682760D01*
X10388194Y23682760D01*
X10388194Y23182432D01*
X9887866Y23182432D01*
X9887866Y21681447D01*
X11388851Y21681447D01*
X11388851Y22181775D01*
X11889179Y22181775D01*
X11889179Y21181118D01*
X12389507Y21181118D01*
X12389507Y20680790D01*
X11889179Y20680790D01*
X11889179Y20180462D01*
X11388851Y20180462D01*
X11388851Y21181118D01*
X9887866Y21181118D01*
X9887866Y20180462D01*
X10388194Y20180462D01*
X10388194Y20680790D01*
X10888522Y20680790D01*
X10888522Y19179805D01*
X9387537Y19179805D01*
X9387537Y19680134D01*
X8386881Y19680134D01*
X8386881Y19179805D01*
X6885896Y19179805D01*
X6885896Y19680134D01*
X6385568Y19680134D01*
X6385568Y19179805D01*
X5885239Y19179805D01*
X5885239Y18179149D01*
X6385568Y18179149D01*
X6385568Y18679477D01*
X6885896Y18679477D01*
X6885896Y18179149D01*
X7386224Y18179149D01*
X7386224Y17178492D01*
X6885896Y17178492D01*
X6885896Y17678820D01*
X6385568Y17678820D01*
X6385568Y17178492D01*
X5885239Y17178492D01*
X5885239Y16177835D01*
X6385568Y16177835D01*
X6385568Y15677507D01*
X5885239Y15677507D01*
X5885239Y13676194D01*
X6885896Y13676194D01*
X6885896Y14176522D01*
X7386224Y14176522D01*
X7386224Y13175866D01*
X6885896Y13175866D01*
X6885896Y12675537D01*
X6385568Y12675537D01*
X6385568Y13175866D01*
X5885239Y13175866D01*
X5885239Y12175209D01*
X4884583Y12175209D01*
X4884583Y20180462D01*
X5885239Y20180462D01*
X9387537Y20180462D01*
X9387537Y23682760D01*
X5885239Y23682760D01*
X5885239Y20180462D01*
X4884583Y20180462D01*
X4884583Y24683416D01*
X21395416Y24683416D01*
X21395416Y8172583D01*
X4884583Y8172583D01*
G37*
G36*
X8887209Y13676194D02*
G01*
X8386881Y13676194D01*
X8386881Y14176522D01*
X8887209Y14176522D01*
X8887209Y13676194D01*
G37*
G36*
X12889835Y21181118D02*
G01*
X12389507Y21181118D01*
X12389507Y21681447D01*
X12889835Y21681447D01*
X12889835Y21181118D01*
G37*
G36*
X10388194Y9673568D02*
G01*
X9887866Y9673568D01*
X9887866Y10173896D01*
X10388194Y10173896D01*
X10388194Y9673568D01*
G37*
G36*
X12389507Y16678164D02*
G01*
X11388851Y16678164D01*
X11388851Y17178492D01*
X12389507Y17178492D01*
X12389507Y16678164D01*
G37*
G36*
X11388851Y14676851D02*
G01*
X10888522Y14676851D01*
X10888522Y15177179D01*
X11388851Y15177179D01*
X11388851Y14676851D01*
G37*
G36*
X18893775Y18179149D02*
G01*
X18393447Y18179149D01*
X18393447Y18679477D01*
X18893775Y18679477D01*
X18893775Y18179149D01*
G37*
G36*
X17392790Y13676194D02*
G01*
X16392134Y13676194D01*
X16392134Y14176522D01*
X17392790Y14176522D01*
X17392790Y13676194D01*
G37*
G36*
X17392790Y9673568D02*
G01*
X17392790Y10173896D01*
X17893118Y10173896D01*
X19394103Y10173896D01*
X19394103Y11674881D01*
X17893118Y11674881D01*
X17893118Y10173896D01*
X17392790Y10173896D01*
X17392790Y12175209D01*
X19894432Y12175209D01*
X19894432Y9673568D01*
X17392790Y9673568D01*
G37*
G36*
X6885896Y14176522D02*
G01*
X6385568Y14176522D01*
X6385568Y14676851D01*
X6885896Y14676851D01*
X6885896Y14176522D01*
G37*
G36*
X16392134Y19179805D02*
G01*
X17392790Y19179805D01*
X17392790Y18679477D01*
X15891805Y18679477D01*
X15891805Y19680134D01*
X16392134Y19680134D01*
X16392134Y19179805D01*
G37*
G36*
X14390820Y21681447D02*
G01*
X13890492Y21681447D01*
X13890492Y22181775D01*
X14390820Y22181775D01*
X14390820Y21681447D01*
G37*
G36*
X15891805Y14176522D02*
G01*
X15391477Y14176522D01*
X15391477Y14676851D01*
X15891805Y14676851D01*
X15891805Y14176522D01*
G37*
G36*
X8386881Y11674881D02*
G01*
X8386881Y12175209D01*
X8887209Y12175209D01*
X9387537Y12175209D01*
X9387537Y12675537D01*
X8887209Y12675537D01*
X8887209Y12175209D01*
X8386881Y12175209D01*
X8386881Y13175866D01*
X9887866Y13175866D01*
X9887866Y11674881D01*
X8386881Y11674881D01*
G37*
G36*
X15891805Y19680134D02*
G01*
X15391477Y19680134D01*
X15391477Y21181118D01*
X15891805Y21181118D01*
X15891805Y19680134D01*
G37*
G36*
X12889835Y20180462D02*
G01*
X12389507Y20180462D01*
X12389507Y20680790D01*
X12889835Y20680790D01*
X12889835Y20180462D01*
G37*
G36*
X12889835Y16177835D02*
G01*
X12389507Y16177835D01*
X12389507Y16678164D01*
X12889835Y16678164D01*
X12889835Y16177835D01*
G37*
G36*
X13890492Y14676851D02*
G01*
X12889835Y14676851D01*
X12889835Y15177179D01*
X13890492Y15177179D01*
X13890492Y14676851D01*
G37*
G36*
X14390820Y10674224D02*
G01*
X14390820Y10173896D01*
X14891149Y10173896D01*
X14891149Y9673568D01*
X13890492Y9673568D01*
X13890492Y10173896D01*
X13390164Y10173896D01*
X13390164Y10674224D01*
X14390820Y10674224D01*
G37*
G36*
X11388851Y15677507D02*
G01*
X11889179Y15677507D01*
X11889179Y15177179D01*
X12389507Y15177179D01*
X12389507Y14176522D01*
X11889179Y14176522D01*
X11889179Y13175866D01*
X12389507Y13175866D01*
X12389507Y12675537D01*
X11889179Y12675537D01*
X11889179Y12175209D01*
X12389507Y12175209D01*
X12389507Y11674881D01*
X12889835Y11674881D01*
X12889835Y11174552D01*
X13390164Y11174552D01*
X13390164Y10674224D01*
X12889835Y10674224D01*
X12889835Y10173896D01*
X13390164Y10173896D01*
X13390164Y9673568D01*
X12389507Y9673568D01*
X12389507Y10173896D01*
X11889179Y10173896D01*
X11889179Y10674224D01*
X11388851Y10674224D01*
X11388851Y12175209D01*
X10888522Y12175209D01*
X10888522Y13175866D01*
X10388194Y13175866D01*
X10388194Y13676194D01*
X11388851Y13676194D01*
X11388851Y14676851D01*
X11889179Y14676851D01*
X11889179Y15177179D01*
X11388851Y15177179D01*
X11388851Y15677507D01*
X9887866Y15677507D01*
X9887866Y16177835D01*
X10388194Y16177835D01*
X10388194Y16678164D01*
X9887866Y16678164D01*
X9887866Y18179149D01*
X8386881Y18179149D01*
X8386881Y17678820D01*
X9387537Y17678820D01*
X9387537Y17178492D01*
X7886552Y17178492D01*
X7886552Y16678164D01*
X9887866Y16678164D01*
X9887866Y16177835D01*
X9387537Y16177835D01*
X9387537Y15677507D01*
X8887209Y15677507D01*
X8887209Y16177835D01*
X8386881Y16177835D01*
X8386881Y15677507D01*
X7886552Y15677507D01*
X7886552Y15177179D01*
X8386881Y15177179D01*
X8386881Y14676851D01*
X6885896Y14676851D01*
X6885896Y16177835D01*
X7386224Y16177835D01*
X7386224Y15677507D01*
X7886552Y15677507D01*
X7886552Y16678164D01*
X7386224Y16678164D01*
X7386224Y17178492D01*
X7886552Y17178492D01*
X7886552Y18679477D01*
X8386881Y18679477D01*
X8386881Y19179805D01*
X9387537Y19179805D01*
X9387537Y18679477D01*
X9887866Y18679477D01*
X9887866Y18179149D01*
X10388194Y18179149D01*
X10388194Y18679477D01*
X10888522Y18679477D01*
X10888522Y19179805D01*
X11388851Y19179805D01*
X11388851Y19680134D01*
X12889835Y19680134D01*
X13390164Y19680134D01*
X14390820Y19680134D01*
X14390820Y20680790D01*
X13890492Y20680790D01*
X13890492Y20180462D01*
X13390164Y20180462D01*
X13390164Y19680134D01*
X12889835Y19680134D01*
X12889835Y20180462D01*
X13390164Y20180462D01*
X13390164Y21681447D01*
X13890492Y21681447D01*
X13890492Y21181118D01*
X14891149Y21181118D01*
X14891149Y19179805D01*
X13890492Y19179805D01*
X13890492Y18679477D01*
X13390164Y18679477D01*
X13390164Y18179149D01*
X12889835Y18179149D01*
X12889835Y19179805D01*
X11889179Y19179805D01*
X11889179Y18679477D01*
X10888522Y18679477D01*
X10888522Y17678820D01*
X10388194Y17678820D01*
X10388194Y17178492D01*
X10888522Y17178492D01*
X10888522Y16177835D01*
X11388851Y16177835D01*
X11388851Y15677507D01*
G37*
G36*
X14891149Y12175209D02*
G01*
X14891149Y11674881D01*
X14390820Y11674881D01*
X14390820Y11174552D01*
X14891149Y11174552D01*
X14891149Y10674224D01*
X14390820Y10674224D01*
X14390820Y11174552D01*
X13390164Y11174552D01*
X13390164Y11674881D01*
X12889835Y11674881D01*
X12889835Y12175209D01*
X12389507Y12175209D01*
X12389507Y12675537D01*
X13390164Y12675537D01*
X13390164Y12175209D01*
X13890492Y12175209D01*
X13890492Y12675537D01*
X14390820Y12675537D01*
X14891149Y12675537D01*
X14891149Y13175866D01*
X14390820Y13175866D01*
X14390820Y12675537D01*
X13890492Y12675537D01*
X13890492Y13175866D01*
X14390820Y13175866D01*
X14390820Y13676194D01*
X13890492Y13676194D01*
X13890492Y14676851D01*
X14390820Y14676851D01*
X14390820Y15177179D01*
X13890492Y15177179D01*
X13890492Y16177835D01*
X14390820Y16177835D01*
X14891149Y16177835D01*
X14891149Y16678164D01*
X14390820Y16678164D01*
X14390820Y16177835D01*
X13890492Y16177835D01*
X13890492Y16678164D01*
X12889835Y16678164D01*
X12889835Y17178492D01*
X12389507Y17178492D01*
X12389507Y17678820D01*
X13390164Y17678820D01*
X13390164Y17178492D01*
X15391477Y17178492D01*
X15391477Y17678820D01*
X14390820Y17678820D01*
X14390820Y18179149D01*
X13890492Y18179149D01*
X13890492Y18679477D01*
X14390820Y18679477D01*
X14390820Y18179149D01*
X14891149Y18179149D01*
X14891149Y18679477D01*
X15391477Y18679477D01*
X15391477Y18179149D01*
X15891805Y18179149D01*
X15891805Y17678820D01*
X16392134Y17678820D01*
X16392134Y17178492D01*
X15891805Y17178492D01*
X15891805Y15677507D01*
X14891149Y15677507D01*
X14891149Y14676851D01*
X14390820Y14676851D01*
X14390820Y14176522D01*
X15391477Y14176522D01*
X15391477Y13676194D01*
X15891805Y13676194D01*
X15891805Y12175209D01*
X14891149Y12175209D01*
G37*
G36*
X15391477Y11674881D02*
G01*
X15391477Y11174552D01*
X14891149Y11174552D01*
X14891149Y11674881D01*
X15391477Y11674881D01*
G37*
G36*
X8887209Y15677507D02*
G01*
X8887209Y15177179D01*
X8386881Y15177179D01*
X8386881Y15677507D01*
X8887209Y15677507D01*
G37*
G36*
X19894432Y18179149D02*
G01*
X19394103Y18179149D01*
X19394103Y18679477D01*
X19894432Y18679477D01*
X19894432Y18179149D01*
G37*
G36*
X11388851Y17178492D02*
G01*
X10888522Y17178492D01*
X10888522Y17678820D01*
X11388851Y17678820D01*
X11388851Y17178492D01*
G37*
G36*
X11388851Y10173896D02*
G01*
X10388194Y10173896D01*
X10388194Y10674224D01*
X11388851Y10674224D01*
X11388851Y10173896D01*
G37*
G36*
X11388851Y22181775D02*
G01*
X10888522Y22181775D01*
X10888522Y22682103D01*
X11388851Y22682103D01*
X11388851Y22181775D01*
G37*
G36*
X6885896Y16177835D02*
G01*
X6385568Y16177835D01*
X6385568Y17178492D01*
X6885896Y17178492D01*
X6885896Y16177835D01*
G37*
G36*
X17392790Y20680790D02*
G01*
X17392790Y21181118D01*
X17893118Y21181118D01*
X19394103Y21181118D01*
X19394103Y22682103D01*
X17893118Y22682103D01*
X17893118Y21181118D01*
X17392790Y21181118D01*
X17392790Y23182432D01*
X19894432Y23182432D01*
X19894432Y20680790D01*
X17392790Y20680790D01*
G37*
G36*
X12389507Y17678820D02*
G01*
X11388851Y17678820D01*
X11388851Y18179149D01*
X12389507Y18179149D01*
X12389507Y17678820D01*
G37*
G36*
X12389507Y15677507D02*
G01*
X11889179Y15677507D01*
X11889179Y16177835D01*
X12389507Y16177835D01*
X12389507Y15677507D01*
G37*
G36*
X10888522Y22682103D02*
G01*
X10388194Y22682103D01*
X10388194Y23182432D01*
X10888522Y23182432D01*
X10888522Y22682103D01*
G37*
G36*
X13890492Y17678820D02*
G01*
X13390164Y17678820D01*
X13390164Y18179149D01*
X13890492Y18179149D01*
X13890492Y17678820D01*
G37*
G36*
X6385568Y20680790D02*
G01*
X6385568Y21181118D01*
X6885896Y21181118D01*
X8386881Y21181118D01*
X8386881Y22682103D01*
X6885896Y22682103D01*
X6885896Y21181118D01*
X6385568Y21181118D01*
X6385568Y23182432D01*
X8887209Y23182432D01*
X8887209Y20680790D01*
X6385568Y20680790D01*
G37*
G36*
X14390820Y22682103D02*
G01*
X13890492Y22682103D01*
X13890492Y23182432D01*
X14390820Y23182432D01*
X14390820Y22682103D01*
G37*
G36*
X17893118Y18179149D02*
G01*
X18393447Y18179149D01*
X18393447Y17178492D01*
X17893118Y17178492D01*
X17893118Y17678820D01*
X16892462Y17678820D01*
X16892462Y18179149D01*
X17392790Y18179149D01*
X17392790Y18679477D01*
X17893118Y18679477D01*
X17893118Y18179149D01*
G37*
G36*
X19394103Y17178492D02*
G01*
X18893775Y17178492D01*
X18893775Y18179149D01*
X19394103Y18179149D01*
X19394103Y17178492D01*
G37*
G36*
X10388194Y14176522D02*
G01*
X9887866Y14176522D01*
X9887866Y14676851D01*
X8887209Y14676851D01*
X8887209Y15177179D01*
X10388194Y15177179D01*
X10388194Y14176522D01*
G37*
G36*
X7886552Y12675537D02*
G01*
X7386224Y12675537D01*
X7386224Y13175866D01*
X7886552Y13175866D01*
X7886552Y12675537D01*
G37*
G36*
X13390164Y13676194D02*
G01*
X12889835Y13676194D01*
X12889835Y13175866D01*
X12389507Y13175866D01*
X12389507Y14176522D01*
X13390164Y14176522D01*
X13390164Y13676194D01*
G37*
G36*
X15391477Y21681447D02*
G01*
X14891149Y21681447D01*
X14891149Y22181775D01*
X15391477Y22181775D01*
X15391477Y21681447D01*
G37*
G04 #@! TO.C,G3*
G36*
X48175404Y9569818D02*
G01*
X48218052Y9534014D01*
X48218068Y9534000D01*
X48246654Y9506792D01*
X48267034Y9480564D01*
X48282755Y9447962D01*
X48297364Y9401630D01*
X48314408Y9334214D01*
X48317264Y9321993D01*
X48332140Y9247567D01*
X48347271Y9156661D01*
X48361034Y9059657D01*
X48371809Y8966935D01*
X48377206Y8912612D01*
X48383667Y8841691D01*
X48386845Y8789547D01*
X48386577Y8749854D01*
X48382701Y8716287D01*
X48375056Y8682522D01*
X48363478Y8642233D01*
X48358141Y8625427D01*
X48323556Y8544096D01*
X48271180Y8454212D01*
X48199158Y8352862D01*
X48105636Y8237132D01*
X48048523Y8173664D01*
X47990904Y8121541D01*
X47930956Y8082246D01*
X47860036Y8049165D01*
X47833664Y8038636D01*
X47798966Y8025448D01*
X47781998Y8019961D01*
X47778941Y8020635D01*
X47756821Y8032994D01*
X47721242Y8057019D01*
X47679171Y8087684D01*
X47637572Y8119964D01*
X47603410Y8148831D01*
X47576306Y8178020D01*
X47531444Y8247632D01*
X47494331Y8332584D01*
X47469237Y8424112D01*
X47466520Y8438511D01*
X47459643Y8485133D01*
X47459979Y8522988D01*
X47468583Y8564046D01*
X47486507Y8620280D01*
X47497989Y8651679D01*
X47543190Y8747551D01*
X47599272Y8836253D01*
X47661246Y8910584D01*
X47724124Y8963342D01*
X47784154Y9008360D01*
X47855282Y9075987D01*
X47925082Y9155570D01*
X47990051Y9242022D01*
X48046682Y9330255D01*
X48091472Y9415182D01*
X48120916Y9491715D01*
X48131509Y9554766D01*
X48131541Y9558282D01*
X48135651Y9581113D01*
X48149104Y9585238D01*
X48175404Y9569818D01*
G37*
G36*
X37057108Y4852295D02*
G01*
X37193746Y4810656D01*
X37325594Y4742141D01*
X37450538Y4647854D01*
X37566468Y4528898D01*
X37638770Y4443401D01*
X37654698Y4505741D01*
X37665138Y4543454D01*
X37695130Y4621168D01*
X37732896Y4675976D01*
X37782065Y4712206D01*
X37846269Y4734188D01*
X37888249Y4740964D01*
X37977548Y4736764D01*
X38056432Y4707226D01*
X38121804Y4654509D01*
X38170565Y4580768D01*
X38199619Y4488161D01*
X38201001Y4476408D01*
X38201613Y4449948D01*
X38200262Y4411263D01*
X38196754Y4358273D01*
X38190899Y4288900D01*
X38182504Y4201067D01*
X38171377Y4092696D01*
X38157325Y3961709D01*
X38140157Y3806027D01*
X38119681Y3623573D01*
X38109864Y3536948D01*
X38092052Y3382365D01*
X38076500Y3252839D01*
X38062697Y3145794D01*
X38050129Y3058659D01*
X38038285Y2988858D01*
X38026653Y2933820D01*
X38014719Y2890969D01*
X38001973Y2857733D01*
X37987900Y2831539D01*
X37971990Y2809812D01*
X37953729Y2789980D01*
X37901449Y2750246D01*
X37827164Y2722970D01*
X37743977Y2711964D01*
X37662517Y2719527D01*
X37595146Y2746325D01*
X37546636Y2791197D01*
X37538403Y2805554D01*
X37529837Y2833328D01*
X37526041Y2871626D01*
X37527144Y2924053D01*
X37533271Y2994217D01*
X37544550Y3085723D01*
X37561107Y3202177D01*
X37574387Y3296129D01*
X37594732Y3469741D01*
X37605727Y3621006D01*
X37607202Y3753455D01*
X37598986Y3870618D01*
X37580908Y3976026D01*
X37552797Y4073209D01*
X37514481Y4165699D01*
X37493295Y4206236D01*
X37438013Y4289361D01*
X37372688Y4364772D01*
X37301762Y4428734D01*
X37229675Y4477511D01*
X37160868Y4507365D01*
X37099784Y4514561D01*
X37082331Y4510970D01*
X37046636Y4488162D01*
X37015574Y4443168D01*
X36987818Y4373698D01*
X36962036Y4277463D01*
X36956895Y4253483D01*
X36951200Y4220730D01*
X36946595Y4183667D01*
X36942968Y4139200D01*
X36940206Y4084234D01*
X36938197Y4015677D01*
X36936830Y3930435D01*
X36935992Y3825412D01*
X36935572Y3697516D01*
X36935457Y3543653D01*
X36935247Y3385113D01*
X36934564Y3250317D01*
X36933352Y3140510D01*
X36931551Y3053638D01*
X36929105Y2987646D01*
X36925957Y2940479D01*
X36922048Y2910084D01*
X36917323Y2894406D01*
X36885350Y2855096D01*
X36825751Y2816439D01*
X36751746Y2792801D01*
X36669878Y2785319D01*
X36586690Y2795132D01*
X36508725Y2823376D01*
X36490103Y2834592D01*
X36442971Y2875368D01*
X36403590Y2925081D01*
X36381168Y2972938D01*
X36378341Y2999811D01*
X36377296Y3049516D01*
X36378231Y3114050D01*
X36381146Y3186148D01*
X36381276Y3188594D01*
X36385003Y3260374D01*
X36389684Y3352847D01*
X36394922Y3458014D01*
X36400317Y3567875D01*
X36405471Y3674431D01*
X36411051Y3781252D01*
X36421237Y3941062D01*
X36432834Y4087418D01*
X36445523Y4217200D01*
X36458988Y4327286D01*
X36472911Y4414554D01*
X36486975Y4475882D01*
X36509670Y4543438D01*
X36565203Y4659189D01*
X36634267Y4749451D01*
X36716711Y4814091D01*
X36812386Y4852974D01*
X36921141Y4865964D01*
X37057108Y4852295D01*
G37*
G36*
X42372028Y2434841D02*
G01*
X42714842Y2434666D01*
X43054563Y2434403D01*
X43389954Y2434053D01*
X43719778Y2433615D01*
X44042799Y2433089D01*
X44357780Y2432476D01*
X44663485Y2431775D01*
X44958677Y2430987D01*
X45242120Y2430111D01*
X45512576Y2429148D01*
X45768810Y2428097D01*
X46009584Y2426959D01*
X46233663Y2425733D01*
X46439809Y2424419D01*
X46626787Y2423018D01*
X46793358Y2421529D01*
X46938288Y2419953D01*
X47060339Y2418289D01*
X47158274Y2416537D01*
X47230858Y2414698D01*
X47276853Y2412772D01*
X47295023Y2410757D01*
X47332075Y2381502D01*
X47364403Y2326165D01*
X47375903Y2256938D01*
X47374346Y2233688D01*
X47360217Y2195002D01*
X47326498Y2154500D01*
X47277093Y2105095D01*
X36431235Y2105095D01*
X36381830Y2154500D01*
X36361620Y2176380D01*
X36338744Y2214424D01*
X36332425Y2256938D01*
X36339322Y2311267D01*
X36367153Y2370342D01*
X36413305Y2410757D01*
X36413317Y2410764D01*
X36431577Y2412778D01*
X36477659Y2414704D01*
X36550325Y2416543D01*
X36648339Y2418294D01*
X36770464Y2419958D01*
X36915464Y2421534D01*
X37082103Y2423022D01*
X37269143Y2424423D01*
X37475348Y2425737D01*
X37699482Y2426962D01*
X37940307Y2428101D01*
X38196588Y2429151D01*
X38467088Y2430114D01*
X38750569Y2430990D01*
X39045797Y2431778D01*
X39351533Y2432478D01*
X39666542Y2433091D01*
X39989586Y2433616D01*
X40319430Y2434054D01*
X40654836Y2434404D01*
X40994569Y2434667D01*
X41337391Y2434842D01*
X41682066Y2434929D01*
X42027357Y2434929D01*
X42372028Y2434841D01*
G37*
G36*
X47970286Y9944418D02*
G01*
X47986111Y9930061D01*
X47988473Y9927855D01*
X48004824Y9904598D01*
X48013020Y9869898D01*
X48015262Y9815068D01*
X48010293Y9736927D01*
X47980205Y9605367D01*
X47924756Y9479548D01*
X47846136Y9365295D01*
X47845887Y9364998D01*
X47809924Y9328836D01*
X47755463Y9281887D01*
X47688592Y9228713D01*
X47615399Y9173878D01*
X47541972Y9121943D01*
X47474401Y9077472D01*
X47418773Y9045027D01*
X47392216Y9029636D01*
X47337905Y8989141D01*
X47298194Y8947258D01*
X47290142Y8935195D01*
X47257213Y8863565D01*
X47233565Y8772872D01*
X47220715Y8670560D01*
X47220178Y8564077D01*
X47222237Y8533852D01*
X47228819Y8480651D01*
X47240886Y8432290D01*
X47261325Y8378694D01*
X47293021Y8309786D01*
X47312635Y8269911D01*
X47345176Y8211131D01*
X47380087Y8160733D01*
X47423974Y8109667D01*
X47483442Y8048882D01*
X47531063Y8000585D01*
X47570952Y7956056D01*
X47590226Y7927677D01*
X47589901Y7914163D01*
X47579015Y7910052D01*
X47539562Y7909400D01*
X47483780Y7919011D01*
X47418668Y7937914D01*
X47396298Y7947044D01*
X47336396Y7979470D01*
X47266369Y8024976D01*
X47193208Y8078323D01*
X47123903Y8134273D01*
X47065445Y8187588D01*
X47024825Y8233030D01*
X46975327Y8307613D01*
X46907618Y8449942D01*
X46866589Y8602951D01*
X46852791Y8764939D01*
X46859912Y8833473D01*
X46890539Y8933924D01*
X46943606Y9041568D01*
X47017245Y9152773D01*
X47109586Y9263910D01*
X47112607Y9267144D01*
X47137659Y9290416D01*
X47170405Y9314330D01*
X47214650Y9341042D01*
X47274198Y9372713D01*
X47352855Y9411500D01*
X47454425Y9459563D01*
X47526275Y9493238D01*
X47604642Y9530585D01*
X47663548Y9560046D01*
X47707005Y9584076D01*
X47739028Y9605130D01*
X47763630Y9625664D01*
X47784826Y9648132D01*
X47806629Y9674989D01*
X47836508Y9717148D01*
X47877239Y9785234D01*
X47908901Y9849874D01*
X47916643Y9868579D01*
X47936337Y9915558D01*
X47949264Y9941181D01*
X47959292Y9949463D01*
X47970286Y9944418D01*
G37*
G36*
X40002901Y4025359D02*
G01*
X40008668Y3978269D01*
X40017715Y3949792D01*
X40034344Y3931229D01*
X40062855Y3913877D01*
X40064459Y3912994D01*
X40126266Y3866873D01*
X40161952Y3810149D01*
X40173424Y3739820D01*
X40170032Y3695871D01*
X40149623Y3639920D01*
X40111361Y3606225D01*
X40055930Y3595626D01*
X39997999Y3596740D01*
X39988347Y3468882D01*
X39979431Y3381816D01*
X39950131Y3226388D01*
X39905736Y3089814D01*
X39847166Y2973744D01*
X39775343Y2879826D01*
X39691186Y2809712D01*
X39595616Y2765049D01*
X39590773Y2763565D01*
X39548644Y2754003D01*
X39511401Y2755313D01*
X39469334Y2769212D01*
X39412733Y2797420D01*
X39369262Y2823729D01*
X39306839Y2865916D01*
X39230635Y2920225D01*
X39144964Y2983357D01*
X39054141Y3052012D01*
X38962477Y3122892D01*
X38874287Y3192697D01*
X38793884Y3258128D01*
X38725581Y3315887D01*
X38673693Y3362673D01*
X38632943Y3402113D01*
X38552133Y3486332D01*
X38494264Y3557627D01*
X38458301Y3618003D01*
X38443205Y3669466D01*
X38447938Y3714022D01*
X38471465Y3753676D01*
X38493887Y3775376D01*
X38529417Y3792819D01*
X38582044Y3801669D01*
X38599955Y3803075D01*
X38630616Y3802774D01*
X38660060Y3796828D01*
X38691379Y3783090D01*
X38727665Y3759412D01*
X38772009Y3723650D01*
X38827503Y3673654D01*
X38897241Y3607280D01*
X38984313Y3522380D01*
X39054859Y3454301D01*
X39148368Y3368621D01*
X39226188Y3303859D01*
X39289774Y3258918D01*
X39340584Y3232701D01*
X39380073Y3224110D01*
X39396708Y3227352D01*
X39430266Y3253476D01*
X39461346Y3302141D01*
X39488352Y3368950D01*
X39509688Y3449509D01*
X39523759Y3539421D01*
X39528969Y3634289D01*
X39529143Y3647092D01*
X39529919Y3673967D01*
X39529096Y3695784D01*
X39524067Y3714740D01*
X39512226Y3733032D01*
X39490964Y3752857D01*
X39457676Y3776412D01*
X39409754Y3805894D01*
X39344592Y3843499D01*
X39259582Y3891424D01*
X39152117Y3951867D01*
X39051323Y4009728D01*
X38959534Y4065475D01*
X38888765Y4113006D01*
X38836227Y4154554D01*
X38799131Y4192351D01*
X38774688Y4228629D01*
X38760108Y4265622D01*
X38750276Y4314669D01*
X39168752Y4314669D01*
X39169730Y4292278D01*
X39184112Y4280385D01*
X39185383Y4279847D01*
X39208055Y4269545D01*
X39250611Y4249763D01*
X39307460Y4223109D01*
X39373014Y4192194D01*
X39383118Y4187417D01*
X39449678Y4156213D01*
X39494730Y4136253D01*
X39522469Y4126407D01*
X39537089Y4125549D01*
X39542785Y4132551D01*
X39543752Y4146284D01*
X39543737Y4148388D01*
X39538472Y4200542D01*
X39525529Y4268467D01*
X39507553Y4341387D01*
X39487183Y4408523D01*
X39467063Y4459099D01*
X39454638Y4483369D01*
X39435781Y4510645D01*
X39414157Y4521568D01*
X39380651Y4522864D01*
X39348534Y4518070D01*
X39287815Y4490163D01*
X39233676Y4442497D01*
X39193748Y4380866D01*
X39181736Y4353355D01*
X39168752Y4314669D01*
X38750276Y4314669D01*
X38746460Y4333706D01*
X38748034Y4429388D01*
X38776658Y4518913D01*
X38832998Y4604060D01*
X38917723Y4686611D01*
X39030602Y4767973D01*
X39185800Y4847785D01*
X39356167Y4902836D01*
X39541769Y4933154D01*
X39647529Y4942984D01*
X39725565Y4860461D01*
X39778230Y4797524D01*
X39844934Y4689808D01*
X39900037Y4561743D01*
X39944144Y4411523D01*
X39977862Y4237340D01*
X39988762Y4146284D01*
X40001798Y4037390D01*
X40002901Y4025359D01*
G37*
G36*
X43977572Y3942196D02*
G01*
X44042807Y3907589D01*
X44080166Y3885499D01*
X44116025Y3851916D01*
X44134296Y3808644D01*
X44140652Y3746335D01*
X44137466Y3693739D01*
X44116812Y3638867D01*
X44077791Y3605972D01*
X44020969Y3595766D01*
X43961143Y3597020D01*
X43961143Y3528647D01*
X43958983Y3479474D01*
X43947598Y3386202D01*
X43928405Y3284379D01*
X43903631Y3185165D01*
X43875505Y3099723D01*
X43861932Y3066385D01*
X43804028Y2954584D01*
X43736211Y2868521D01*
X43656809Y2806404D01*
X43564146Y2766442D01*
X43548562Y2762182D01*
X43517022Y2756691D01*
X43485178Y2757227D01*
X43450206Y2765278D01*
X43409285Y2782328D01*
X43359591Y2809862D01*
X43298301Y2849366D01*
X43222594Y2902326D01*
X43129646Y2970226D01*
X43016635Y3054552D01*
X42970446Y3089667D01*
X42859055Y3178122D01*
X42754212Y3266531D01*
X42658811Y3352148D01*
X42575745Y3432227D01*
X42507908Y3504021D01*
X42458192Y3564786D01*
X42429492Y3611775D01*
X42412628Y3664973D01*
X42412192Y3710309D01*
X42424161Y3735841D01*
X42461780Y3771177D01*
X42515087Y3795849D01*
X42575963Y3805155D01*
X42589929Y3804624D01*
X42621801Y3798638D01*
X42656242Y3784265D01*
X42696119Y3759352D01*
X42744298Y3721747D01*
X42803645Y3669296D01*
X42877027Y3599847D01*
X42967311Y3511247D01*
X43038551Y3441603D01*
X43124808Y3361286D01*
X43196055Y3300864D01*
X43254373Y3258889D01*
X43301838Y3233915D01*
X43340530Y3224496D01*
X43372526Y3229184D01*
X43372943Y3229347D01*
X43403645Y3255251D01*
X43432502Y3304736D01*
X43457849Y3372391D01*
X43478019Y3452807D01*
X43491343Y3540576D01*
X43496155Y3630288D01*
X43496367Y3645453D01*
X43497325Y3672802D01*
X43496821Y3694804D01*
X43492241Y3713700D01*
X43480968Y3731733D01*
X43460390Y3751145D01*
X43427891Y3774177D01*
X43380856Y3803071D01*
X43316673Y3840070D01*
X43232725Y3887414D01*
X43126398Y3947347D01*
X43124741Y3948285D01*
X43011549Y4013590D01*
X42921761Y4068564D01*
X42852609Y4115410D01*
X42801327Y4156335D01*
X42765149Y4193542D01*
X42741310Y4229236D01*
X42727042Y4265622D01*
X42716322Y4319097D01*
X43140141Y4319097D01*
X43149157Y4291496D01*
X43150308Y4290458D01*
X43173396Y4275748D01*
X43216519Y4252360D01*
X43273946Y4223294D01*
X43339948Y4191553D01*
X43358434Y4182882D01*
X43422522Y4153100D01*
X43465503Y4134335D01*
X43491595Y4125505D01*
X43505011Y4125534D01*
X43509970Y4133340D01*
X43510686Y4147846D01*
X43510362Y4159052D01*
X43503580Y4215752D01*
X43489920Y4285252D01*
X43471920Y4357134D01*
X43452120Y4420978D01*
X43433059Y4466365D01*
X43432442Y4467490D01*
X43401154Y4509996D01*
X43365224Y4527574D01*
X43320323Y4520831D01*
X43262122Y4490376D01*
X43256463Y4486666D01*
X43211751Y4448920D01*
X43175051Y4404170D01*
X43149977Y4358775D01*
X43140141Y4319097D01*
X42716322Y4319097D01*
X42713394Y4333706D01*
X42714967Y4429388D01*
X42743591Y4518913D01*
X42799932Y4604060D01*
X42884656Y4686611D01*
X42997076Y4767680D01*
X43152361Y4847626D01*
X43322800Y4902774D01*
X43508396Y4933126D01*
X43613850Y4942927D01*
X43691292Y4862972D01*
X43712222Y4840267D01*
X43790420Y4731523D01*
X43854976Y4598807D01*
X43906066Y4441607D01*
X43943865Y4259411D01*
X43957122Y4147846D01*
X43968547Y4051706D01*
X43977572Y3942196D01*
G37*
G36*
X47073949Y7829785D02*
G01*
X47108991Y7826457D01*
X47167314Y7820322D01*
X47245283Y7811800D01*
X47339263Y7801312D01*
X47445620Y7789282D01*
X47560718Y7776129D01*
X47680924Y7762274D01*
X47802601Y7748141D01*
X47922116Y7734148D01*
X48035834Y7720719D01*
X48140119Y7708274D01*
X48231338Y7697235D01*
X48305854Y7688023D01*
X48360034Y7681059D01*
X48390243Y7676765D01*
X48395534Y7675840D01*
X48443525Y7660048D01*
X48474032Y7630769D01*
X48490102Y7583219D01*
X48494782Y7512615D01*
X48493822Y7461788D01*
X48490425Y7396695D01*
X48485420Y7344628D01*
X48484561Y7338510D01*
X48477167Y7302691D01*
X48463411Y7276402D01*
X48437158Y7251398D01*
X48392274Y7219432D01*
X48382556Y7212778D01*
X48351587Y7189900D01*
X48326005Y7166184D01*
X48302124Y7136601D01*
X48276260Y7096126D01*
X48244729Y7039731D01*
X48203844Y6962390D01*
X48187009Y6929250D01*
X48148740Y6848093D01*
X48109373Y6757886D01*
X48070820Y6663685D01*
X48034991Y6570546D01*
X48003797Y6483525D01*
X47979150Y6407676D01*
X47962960Y6348056D01*
X47957139Y6309720D01*
X47956789Y6304367D01*
X47952850Y6272238D01*
X47944991Y6216719D01*
X47933786Y6141619D01*
X47919810Y6050747D01*
X47903637Y5947912D01*
X47885841Y5836922D01*
X47871677Y5749589D01*
X47851926Y5628087D01*
X47836253Y5530851D01*
X47824439Y5455114D01*
X47816261Y5398111D01*
X47811500Y5357075D01*
X47809935Y5329240D01*
X47811346Y5311840D01*
X47815511Y5302109D01*
X47822211Y5297280D01*
X47831224Y5294588D01*
X47842331Y5291265D01*
X47882188Y5265583D01*
X47922227Y5214849D01*
X47951998Y5148200D01*
X47967509Y5072612D01*
X47970103Y5029350D01*
X47966771Y4988062D01*
X47954089Y4945928D01*
X47929509Y4890761D01*
X47914548Y4860655D01*
X47881236Y4806020D01*
X47843313Y4765123D01*
X47792320Y4727921D01*
X47786471Y4721792D01*
X47778412Y4702292D01*
X47771007Y4667534D01*
X47763724Y4614079D01*
X47756031Y4538482D01*
X47747395Y4437303D01*
X47742598Y4378384D01*
X47732824Y4260766D01*
X47722396Y4137773D01*
X47712287Y4020853D01*
X47703473Y3921456D01*
X47701291Y3897132D01*
X47692020Y3790896D01*
X47682427Y3677095D01*
X47673525Y3567898D01*
X47666326Y3475469D01*
X47659220Y3394276D01*
X47640476Y3253833D01*
X47614643Y3137130D01*
X47580722Y3040996D01*
X47537717Y2962257D01*
X47484628Y2897741D01*
X47449422Y2866629D01*
X47373496Y2818083D01*
X47292431Y2785627D01*
X47216063Y2773800D01*
X47194422Y2774988D01*
X47117438Y2793748D01*
X47034165Y2832172D01*
X46951131Y2886205D01*
X46874864Y2951792D01*
X46811894Y3024875D01*
X46798855Y3044491D01*
X46767260Y3112133D01*
X46753285Y3179595D01*
X46756845Y3241081D01*
X46777857Y3290796D01*
X46816236Y3322942D01*
X46826360Y3327733D01*
X46835776Y3334434D01*
X46843930Y3345798D01*
X46851729Y3365245D01*
X46860080Y3396198D01*
X46869890Y3442078D01*
X46882067Y3506306D01*
X46897519Y3592304D01*
X46917152Y3703493D01*
X46921181Y3726732D01*
X46938381Y3840685D01*
X46946544Y3927461D01*
X46945647Y3986845D01*
X46943279Y4019501D01*
X46948571Y4080449D01*
X46968219Y4151855D01*
X46970654Y4159417D01*
X46985028Y4215289D01*
X47000942Y4292702D01*
X47017351Y4385432D01*
X47033210Y4487255D01*
X47047476Y4591949D01*
X47059103Y4693290D01*
X47064466Y4745844D01*
X46751563Y4820479D01*
X46474799Y4884748D01*
X46180584Y4948879D01*
X45908283Y5003570D01*
X45888462Y5007362D01*
X45829931Y5018628D01*
X45782360Y5027878D01*
X45754544Y5033407D01*
X45747880Y5034486D01*
X45736474Y5032359D01*
X45728074Y5020230D01*
X45721229Y4993368D01*
X45714487Y4947041D01*
X45706395Y4876520D01*
X45700695Y4825974D01*
X45691451Y4748284D01*
X45682582Y4678133D01*
X45675411Y4626205D01*
X45661739Y4528855D01*
X45645803Y4404237D01*
X45628500Y4259566D01*
X45610318Y4099369D01*
X45591750Y3928175D01*
X45573285Y3750511D01*
X45555414Y3570904D01*
X45538629Y3393882D01*
X45523420Y3223974D01*
X45516194Y3143434D01*
X45507342Y3058403D01*
X45498253Y2993126D01*
X45487782Y2942329D01*
X45474785Y2900740D01*
X45458117Y2863088D01*
X45436636Y2824099D01*
X45426339Y2807445D01*
X45377277Y2749122D01*
X45313311Y2705188D01*
X45227516Y2670561D01*
X45183406Y2656607D01*
X45147527Y2647408D01*
X45117333Y2645104D01*
X45081373Y2648998D01*
X45028200Y2658390D01*
X45003264Y2663479D01*
X44908492Y2695744D01*
X44835537Y2743930D01*
X44786353Y2806837D01*
X44782679Y2814063D01*
X44770896Y2841948D01*
X44762152Y2873431D01*
X44756612Y2911021D01*
X44754441Y2957225D01*
X44755805Y3014553D01*
X44760870Y3085511D01*
X44769801Y3172609D01*
X44782765Y3278354D01*
X44799927Y3405254D01*
X44821453Y3555819D01*
X44847507Y3732555D01*
X44872303Y3900515D01*
X44905475Y4130738D01*
X44933672Y4334274D01*
X44957001Y4512272D01*
X44975572Y4665882D01*
X44989492Y4796255D01*
X44998869Y4904541D01*
X45003813Y4991890D01*
X45004431Y5059452D01*
X45000831Y5108378D01*
X44993122Y5139817D01*
X44981412Y5154920D01*
X44958074Y5175647D01*
X44926980Y5221230D01*
X44895315Y5282888D01*
X44865857Y5353819D01*
X44841379Y5427222D01*
X44824657Y5496297D01*
X44818466Y5554240D01*
X44823720Y5609192D01*
X44845556Y5682340D01*
X44880750Y5749028D01*
X44925382Y5803630D01*
X44975532Y5840519D01*
X45027283Y5854065D01*
X45075248Y5854065D01*
X45106371Y6191908D01*
X45112974Y6263926D01*
X45128922Y6441617D01*
X45142395Y6598469D01*
X45153859Y6740363D01*
X45163777Y6873184D01*
X45172615Y7002815D01*
X45180837Y7135140D01*
X45182024Y7154605D01*
X45190206Y7260357D01*
X45201208Y7342344D01*
X45217092Y7405127D01*
X45239917Y7453269D01*
X45271744Y7491331D01*
X45314631Y7523875D01*
X45370640Y7555463D01*
X45401953Y7568805D01*
X45483177Y7587240D01*
X45573105Y7591167D01*
X45660446Y7580586D01*
X45733912Y7555496D01*
X45837456Y7490018D01*
X45915451Y7413474D01*
X45966779Y7326824D01*
X45990926Y7230719D01*
X45993178Y7186568D01*
X45990915Y7100726D01*
X45982376Y6990076D01*
X45967766Y6856670D01*
X45947289Y6702562D01*
X45921149Y6529806D01*
X45906230Y6435591D01*
X45880294Y6268064D01*
X45859241Y6126165D01*
X45842805Y6007929D01*
X45830717Y5911391D01*
X45822711Y5834587D01*
X45818519Y5775551D01*
X45813832Y5675240D01*
X45930079Y5632532D01*
X45947843Y5626182D01*
X46021993Y5602198D01*
X46111685Y5576195D01*
X46213280Y5548961D01*
X46323145Y5521286D01*
X46437641Y5493957D01*
X46553134Y5467763D01*
X46665987Y5443491D01*
X46772563Y5421931D01*
X46869227Y5403870D01*
X46952342Y5390096D01*
X47018273Y5381398D01*
X47063383Y5378563D01*
X47084035Y5382381D01*
X47087021Y5387238D01*
X47095995Y5418876D01*
X47105766Y5474168D01*
X47115987Y5549162D01*
X47126310Y5639910D01*
X47136387Y5742462D01*
X47145872Y5852867D01*
X47154416Y5967175D01*
X47161671Y6081437D01*
X47167291Y6191702D01*
X47170926Y6294021D01*
X47172231Y6384443D01*
X47173072Y6443846D01*
X47176553Y6528794D01*
X47182104Y6607680D01*
X47189049Y6669008D01*
X47189936Y6674901D01*
X47196201Y6725110D01*
X47198182Y6770331D01*
X47195451Y6818919D01*
X47187580Y6879232D01*
X47174139Y6959625D01*
X47161502Y7028917D01*
X47145560Y7110773D01*
X47130225Y7184377D01*
X47117561Y7239520D01*
X47117012Y7241711D01*
X47101795Y7295815D01*
X47085361Y7331783D01*
X47061386Y7359719D01*
X47023544Y7389730D01*
X46995185Y7412992D01*
X46961920Y7448197D01*
X46945246Y7477037D01*
X46943968Y7483869D01*
X46941370Y7521968D01*
X46941314Y7576745D01*
X46943877Y7638779D01*
X46946034Y7670960D01*
X46951176Y7722287D01*
X46958805Y7755462D01*
X46971099Y7777923D01*
X46990234Y7797109D01*
X46991569Y7798239D01*
X47029255Y7820897D01*
X47066031Y7830267D01*
X47073949Y7829785D01*
G37*
G36*
X41066070Y5998181D02*
G01*
X41132879Y5964423D01*
X41184908Y5913361D01*
X41199903Y5891322D01*
X41224265Y5849245D01*
X41244108Y5803813D01*
X41259381Y5752921D01*
X41270031Y5694467D01*
X41276006Y5626346D01*
X41277252Y5546454D01*
X41273718Y5452687D01*
X41265351Y5342941D01*
X41252098Y5215113D01*
X41233908Y5067098D01*
X41210727Y4896793D01*
X41182504Y4702094D01*
X41149185Y4480896D01*
X41148971Y4479492D01*
X41131418Y4362015D01*
X41114570Y4244806D01*
X41099197Y4133552D01*
X41086066Y4033941D01*
X41075947Y3951660D01*
X41069610Y3892395D01*
X41069564Y3891894D01*
X41062861Y3823518D01*
X41053456Y3734264D01*
X41042217Y3632023D01*
X41030009Y3524685D01*
X41017701Y3420141D01*
X41016475Y3409929D01*
X41004432Y3309459D01*
X40992649Y3210921D01*
X40981931Y3121046D01*
X40973079Y3046564D01*
X40966896Y2994205D01*
X40964947Y2978794D01*
X40954880Y2919288D01*
X40942788Y2869903D01*
X40930873Y2840061D01*
X40921895Y2829084D01*
X40882689Y2799211D01*
X40829134Y2772345D01*
X40771612Y2754090D01*
X40742529Y2749448D01*
X40678031Y2746044D01*
X40609341Y2748882D01*
X40547439Y2757286D01*
X40503309Y2770581D01*
X40490891Y2777279D01*
X40436728Y2823362D01*
X40400042Y2883956D01*
X40386544Y2950271D01*
X40386574Y2952272D01*
X40389950Y2986367D01*
X40398271Y3042934D01*
X40410631Y3116549D01*
X40426124Y3201789D01*
X40443843Y3293231D01*
X40454655Y3347585D01*
X40483073Y3493756D01*
X40506115Y3618568D01*
X40524641Y3727242D01*
X40539511Y3824998D01*
X40551587Y3917058D01*
X40561728Y4008642D01*
X40562910Y4019838D01*
X40570012Y4080101D01*
X40580530Y4162614D01*
X40593767Y4262201D01*
X40609028Y4373690D01*
X40625616Y4491905D01*
X40642836Y4611674D01*
X40654375Y4691420D01*
X40674725Y4836393D01*
X40690772Y4959482D01*
X40702820Y5065255D01*
X40711173Y5158278D01*
X40716136Y5243119D01*
X40718014Y5324343D01*
X40717110Y5406518D01*
X40713728Y5494211D01*
X40708175Y5591988D01*
X40705152Y5641066D01*
X40700703Y5721670D01*
X40698654Y5780585D01*
X40699152Y5822701D01*
X40702345Y5852906D01*
X40708383Y5876089D01*
X40717411Y5897137D01*
X40727515Y5914946D01*
X40775144Y5964479D01*
X40839018Y5997784D01*
X40912935Y6014646D01*
X40990687Y6014850D01*
X41066070Y5998181D01*
G37*
G36*
X49888698Y4156219D02*
G01*
X49887296Y3955036D01*
X49885689Y3768231D01*
X49883878Y3597639D01*
X49881861Y3445095D01*
X49879639Y3312436D01*
X49877211Y3201496D01*
X49874576Y3114110D01*
X49871733Y3052115D01*
X49868683Y3017345D01*
X49843142Y2875903D01*
X49774036Y2611485D01*
X49680013Y2359327D01*
X49562511Y2120744D01*
X49422967Y1897051D01*
X49262817Y1689560D01*
X49083499Y1499588D01*
X48886448Y1328446D01*
X48673102Y1177450D01*
X48444897Y1047914D01*
X48203271Y941151D01*
X47949660Y858476D01*
X47685501Y801204D01*
X47412230Y770647D01*
X47389757Y769982D01*
X47338096Y769271D01*
X47259860Y768605D01*
X47156370Y767982D01*
X47028948Y767402D01*
X46878913Y766864D01*
X46707587Y766369D01*
X46516290Y765916D01*
X46306342Y765505D01*
X46079066Y765134D01*
X45835780Y764804D01*
X45577807Y764514D01*
X45306466Y764264D01*
X45023079Y764053D01*
X44728966Y763880D01*
X44425448Y763747D01*
X44113846Y763651D01*
X43795480Y763593D01*
X43471670Y763572D01*
X43143739Y763588D01*
X42813006Y763640D01*
X42480793Y763728D01*
X42148419Y763851D01*
X41817206Y764010D01*
X41488475Y764202D01*
X41163545Y764430D01*
X40843738Y764690D01*
X40530375Y764985D01*
X40224776Y765312D01*
X39928262Y765671D01*
X39642154Y766062D01*
X39367772Y766485D01*
X39106437Y766940D01*
X38859470Y767424D01*
X38628192Y767940D01*
X38413923Y768485D01*
X38217983Y769059D01*
X38041695Y769663D01*
X37886378Y770295D01*
X37753353Y770955D01*
X37643941Y771643D01*
X37559462Y772359D01*
X37501238Y773101D01*
X37470589Y773869D01*
X37413162Y777908D01*
X37317667Y788181D01*
X37218003Y802164D01*
X37128265Y818038D01*
X37039005Y837684D01*
X36776043Y914616D01*
X36525987Y1016488D01*
X36290155Y1141875D01*
X36069866Y1289350D01*
X35866436Y1457487D01*
X35681185Y1644860D01*
X35515431Y1850043D01*
X35370491Y2071610D01*
X35247685Y2308135D01*
X35148329Y2558191D01*
X35073744Y2820354D01*
X35025245Y3093196D01*
X35024171Y3104689D01*
X35021996Y3148553D01*
X35020005Y3218746D01*
X35018196Y3315496D01*
X35016568Y3439031D01*
X35015120Y3589579D01*
X35013850Y3767367D01*
X35012756Y3972622D01*
X35011839Y4205573D01*
X35011096Y4466447D01*
X35010525Y4755471D01*
X35010372Y4877835D01*
X35332844Y4877835D01*
X35332938Y4598883D01*
X35333256Y4344286D01*
X35333797Y4114566D01*
X35334559Y3910247D01*
X35335540Y3731851D01*
X35336737Y3579901D01*
X35338150Y3454920D01*
X35339776Y3357432D01*
X35341614Y3287958D01*
X35343661Y3247023D01*
X35362199Y3082654D01*
X35413576Y2825565D01*
X35491165Y2580923D01*
X35594829Y2349015D01*
X35724434Y2130127D01*
X35879843Y1924546D01*
X36060921Y1732557D01*
X36082433Y1712270D01*
X36281282Y1546432D01*
X36494480Y1405698D01*
X36721020Y1290517D01*
X36959896Y1201338D01*
X37210100Y1138612D01*
X37470628Y1102788D01*
X37471707Y1102704D01*
X37501711Y1101594D01*
X37559326Y1100538D01*
X37643234Y1099537D01*
X37752119Y1098590D01*
X37884662Y1097697D01*
X38039544Y1096859D01*
X38215448Y1096074D01*
X38411056Y1095343D01*
X38625050Y1094666D01*
X38856111Y1094043D01*
X39102923Y1093472D01*
X39364166Y1092956D01*
X39638523Y1092492D01*
X39924676Y1092081D01*
X40221307Y1091723D01*
X40527098Y1091418D01*
X40840731Y1091166D01*
X41160888Y1090966D01*
X41486250Y1090818D01*
X41815501Y1090723D01*
X42147322Y1090680D01*
X42480395Y1090689D01*
X42813401Y1090749D01*
X43145024Y1090862D01*
X43473945Y1091026D01*
X43798845Y1091241D01*
X44118408Y1091508D01*
X44431315Y1091826D01*
X44736248Y1092195D01*
X45031889Y1092615D01*
X45316920Y1093086D01*
X45590023Y1093607D01*
X45849881Y1094179D01*
X46095174Y1094802D01*
X46324586Y1095475D01*
X46536798Y1096198D01*
X46730492Y1096971D01*
X46904350Y1097794D01*
X47057054Y1098666D01*
X47187286Y1099589D01*
X47293729Y1100560D01*
X47375064Y1101582D01*
X47429973Y1102652D01*
X47457139Y1103772D01*
X47567826Y1116295D01*
X47817543Y1164713D01*
X48057312Y1239171D01*
X48285494Y1338266D01*
X48500448Y1460593D01*
X48700534Y1604749D01*
X48884111Y1769331D01*
X49049541Y1952933D01*
X49195181Y2154153D01*
X49319392Y2371587D01*
X49420534Y2603831D01*
X49496967Y2849482D01*
X49502827Y2872784D01*
X49511462Y2907956D01*
X49519345Y2942244D01*
X49526507Y2977009D01*
X49532979Y3013611D01*
X49538793Y3053411D01*
X49543980Y3097772D01*
X49548573Y3148054D01*
X49552601Y3205618D01*
X49556098Y3271827D01*
X49559094Y3348039D01*
X49561621Y3435618D01*
X49563710Y3535924D01*
X49565394Y3650319D01*
X49566702Y3780163D01*
X49567667Y3926819D01*
X49568321Y4091646D01*
X49568695Y4276006D01*
X49568819Y4481261D01*
X49568727Y4708772D01*
X49568449Y4959900D01*
X49568017Y5236005D01*
X49567462Y5538451D01*
X49566816Y5868596D01*
X49566429Y6067770D01*
X49565852Y6373665D01*
X49565311Y6652708D01*
X49564764Y6906275D01*
X49564167Y7135741D01*
X49563477Y7342483D01*
X49562651Y7527874D01*
X49561645Y7693293D01*
X49560417Y7840112D01*
X49558922Y7969710D01*
X49557117Y8083460D01*
X49554960Y8182739D01*
X49552407Y8268922D01*
X49549414Y8343384D01*
X49545939Y8407502D01*
X49541938Y8462651D01*
X49537368Y8510207D01*
X49532185Y8551544D01*
X49526346Y8588040D01*
X49519808Y8621068D01*
X49512528Y8652006D01*
X49504462Y8682228D01*
X49495568Y8713110D01*
X49485800Y8746027D01*
X49475118Y8782356D01*
X49437866Y8898816D01*
X49342904Y9129306D01*
X49223905Y9349040D01*
X49083179Y9554455D01*
X48923033Y9741986D01*
X48745775Y9908071D01*
X48745291Y9908475D01*
X48671195Y9968577D01*
X48602363Y10021405D01*
X48541650Y10065085D01*
X48491911Y10097742D01*
X48456000Y10117499D01*
X48436773Y10122484D01*
X48437085Y10110819D01*
X48447068Y10092853D01*
X48469869Y10052589D01*
X48502166Y9995937D01*
X48541270Y9927616D01*
X48584490Y9852341D01*
X48606826Y9813076D01*
X48661677Y9713875D01*
X48718081Y9608646D01*
X48770547Y9507713D01*
X48813589Y9421399D01*
X48835431Y9376039D01*
X48866860Y9309027D01*
X48888640Y9257810D01*
X48902846Y9215733D01*
X48911557Y9176141D01*
X48916847Y9132377D01*
X48920795Y9077786D01*
X48924065Y9015889D01*
X48923836Y8963052D01*
X48918209Y8916022D01*
X48905787Y8863716D01*
X48885175Y8795056D01*
X48875484Y8765551D01*
X48846823Y8688607D01*
X48815147Y8614412D01*
X48785719Y8555628D01*
X48741219Y8482937D01*
X48659311Y8369415D01*
X48566458Y8260171D01*
X48467193Y8159671D01*
X48366045Y8072378D01*
X48267547Y8002755D01*
X48176229Y7955266D01*
X48142567Y7941821D01*
X48096819Y7925341D01*
X48067690Y7919206D01*
X48048718Y7922461D01*
X48033440Y7934148D01*
X48029727Y7940904D01*
X48034445Y7960397D01*
X48056185Y7992027D01*
X48097191Y8039497D01*
X48135699Y8083332D01*
X48228526Y8200942D01*
X48313876Y8325726D01*
X48389854Y8453752D01*
X48454563Y8581087D01*
X48506107Y8703801D01*
X48542590Y8817962D01*
X48562116Y8919638D01*
X48562788Y9004898D01*
X48557059Y9036734D01*
X48534832Y9114053D01*
X48498115Y9213510D01*
X48447559Y9333514D01*
X48383815Y9472472D01*
X48307536Y9628790D01*
X48277014Y9690299D01*
X48233451Y9781334D01*
X48200289Y9856503D01*
X48175096Y9921836D01*
X48155442Y9983365D01*
X48138897Y10047119D01*
X48127890Y10095970D01*
X48114755Y10161498D01*
X48105775Y10215540D01*
X48102448Y10249755D01*
X48101685Y10270864D01*
X48095638Y10288505D01*
X48078711Y10302293D01*
X48045308Y10316479D01*
X47989833Y10335312D01*
X47879998Y10368994D01*
X47671973Y10417334D01*
X47456891Y10446213D01*
X47452154Y10446590D01*
X47418862Y10448164D01*
X47364732Y10449623D01*
X47289331Y10450969D01*
X47192226Y10452202D01*
X47072986Y10453323D01*
X46931176Y10454333D01*
X46766363Y10455234D01*
X46578116Y10456025D01*
X46366002Y10456709D01*
X46129587Y10457286D01*
X45868438Y10457756D01*
X45582123Y10458121D01*
X45270209Y10458383D01*
X44932264Y10458540D01*
X44567854Y10458596D01*
X44176546Y10458550D01*
X43757908Y10458404D01*
X43311506Y10458158D01*
X42836909Y10457814D01*
X42333683Y10457372D01*
X42302390Y10457342D01*
X41853042Y10456910D01*
X41431764Y10456490D01*
X41037627Y10456076D01*
X40669699Y10455663D01*
X40327054Y10455245D01*
X40008760Y10454817D01*
X39713888Y10454373D01*
X39441509Y10453907D01*
X39190694Y10453414D01*
X38960512Y10452889D01*
X38750035Y10452325D01*
X38558332Y10451718D01*
X38384476Y10451061D01*
X38227535Y10450349D01*
X38086580Y10449577D01*
X37960683Y10448738D01*
X37848913Y10447828D01*
X37750341Y10446841D01*
X37664038Y10445771D01*
X37589074Y10444612D01*
X37524519Y10443360D01*
X37469445Y10442008D01*
X37422921Y10440551D01*
X37384019Y10438983D01*
X37351808Y10437299D01*
X37325360Y10435493D01*
X37303744Y10433559D01*
X37286031Y10431493D01*
X37271293Y10429288D01*
X37258598Y10426939D01*
X37039541Y10374103D01*
X36795720Y10291909D01*
X36568862Y10187859D01*
X36356649Y10060867D01*
X36156767Y9909845D01*
X36064860Y9828031D01*
X35893861Y9648222D01*
X35741957Y9449954D01*
X35611590Y9236991D01*
X35505202Y9013098D01*
X35425234Y8782040D01*
X35419449Y8761766D01*
X35409231Y8726592D01*
X35399917Y8694376D01*
X35391463Y8663726D01*
X35383824Y8633249D01*
X35376956Y8601553D01*
X35370815Y8567246D01*
X35365356Y8528936D01*
X35360535Y8485231D01*
X35356308Y8434738D01*
X35352631Y8376066D01*
X35349459Y8307823D01*
X35346748Y8228615D01*
X35344454Y8137052D01*
X35342532Y8031741D01*
X35340939Y7911289D01*
X35339629Y7774305D01*
X35338558Y7619397D01*
X35337683Y7445172D01*
X35336959Y7250238D01*
X35336341Y7033204D01*
X35335786Y6792677D01*
X35335249Y6527264D01*
X35334685Y6235574D01*
X35334051Y5916215D01*
X35333929Y5855585D01*
X35333338Y5506709D01*
X35332977Y5180617D01*
X35332844Y4877835D01*
X35010372Y4877835D01*
X35010127Y5072874D01*
X35009899Y5418883D01*
X35009840Y5793725D01*
X35009880Y6098844D01*
X35009972Y6398733D01*
X35010125Y6672085D01*
X35010350Y6920204D01*
X35010658Y7144396D01*
X35011061Y7345965D01*
X35011568Y7526218D01*
X35012192Y7686459D01*
X35012942Y7827994D01*
X35013830Y7952127D01*
X35014867Y8060164D01*
X35016064Y8153411D01*
X35017431Y8233172D01*
X35018980Y8300753D01*
X35020722Y8357458D01*
X35022666Y8404594D01*
X35024825Y8443466D01*
X35027210Y8475377D01*
X35029830Y8501635D01*
X35032698Y8523544D01*
X35075800Y8747950D01*
X35151909Y9009540D01*
X35253112Y9259445D01*
X35378093Y9496088D01*
X35525535Y9717895D01*
X35694123Y9923290D01*
X35882539Y10110697D01*
X36089468Y10278539D01*
X36313593Y10425242D01*
X36553597Y10549229D01*
X36808166Y10648925D01*
X36886896Y10673996D01*
X37076564Y10723919D01*
X37268309Y10758355D01*
X37474626Y10779756D01*
X37484537Y10780300D01*
X37529142Y10781618D01*
X37600934Y10782873D01*
X37698575Y10784064D01*
X37820726Y10785192D01*
X37966046Y10786257D01*
X38133198Y10787258D01*
X38320841Y10788196D01*
X38527636Y10789071D01*
X38752245Y10789882D01*
X38993327Y10790630D01*
X39249544Y10791314D01*
X39519555Y10791935D01*
X39802023Y10792493D01*
X40095607Y10792987D01*
X40398969Y10793418D01*
X40710769Y10793786D01*
X41029668Y10794090D01*
X41354326Y10794331D01*
X41683404Y10794509D01*
X42015564Y10794623D01*
X42349465Y10794673D01*
X42683768Y10794661D01*
X43017135Y10794585D01*
X43348225Y10794445D01*
X43675700Y10794243D01*
X43998220Y10793976D01*
X44314447Y10793647D01*
X44623040Y10793254D01*
X44922660Y10792798D01*
X45211969Y10792278D01*
X45489626Y10791695D01*
X45754294Y10791049D01*
X46004631Y10790339D01*
X46239300Y10789566D01*
X46456960Y10788729D01*
X46656273Y10787830D01*
X46835899Y10786866D01*
X46994500Y10785840D01*
X47130734Y10784750D01*
X47243265Y10783596D01*
X47330751Y10782380D01*
X47391854Y10781100D01*
X47425235Y10779756D01*
X47629976Y10758249D01*
X47836364Y10721676D01*
X48022956Y10672287D01*
X48038235Y10667406D01*
X48088434Y10652049D01*
X48118599Y10648314D01*
X48135275Y10659629D01*
X48145008Y10689423D01*
X48154345Y10741127D01*
X48155986Y10749577D01*
X48171585Y10789470D01*
X48199658Y10810149D01*
X48207451Y10813076D01*
X48235609Y10821002D01*
X48250542Y10814790D01*
X48256317Y10789471D01*
X48257001Y10740078D01*
X48256963Y10735200D01*
X48257681Y10676032D01*
X48263657Y10633295D01*
X48279105Y10601241D01*
X48308239Y10574122D01*
X48355273Y10546190D01*
X48424420Y10511698D01*
X48546907Y10447920D01*
X48773806Y10305623D01*
X48983771Y10141167D01*
X49175467Y9956396D01*
X49347554Y9753152D01*
X49498695Y9533279D01*
X49627552Y9298619D01*
X49732788Y9051016D01*
X49813064Y8792312D01*
X49867043Y8524351D01*
X49869030Y8504850D01*
X49871979Y8451725D01*
X49874735Y8372598D01*
X49877300Y8269304D01*
X49879671Y8143679D01*
X49881848Y7997559D01*
X49883831Y7832779D01*
X49885619Y7651174D01*
X49887212Y7454579D01*
X49888609Y7244831D01*
X49889810Y7023764D01*
X49890814Y6793214D01*
X49891620Y6555016D01*
X49892228Y6311007D01*
X49892638Y6063020D01*
X49892848Y5812893D01*
X49892859Y5562459D01*
X49892669Y5313555D01*
X49892279Y5068016D01*
X49891687Y4827677D01*
X49890893Y4594375D01*
X49890391Y4481261D01*
X49889897Y4369943D01*
X49888698Y4156219D01*
G37*
G36*
X42078647Y6011335D02*
G01*
X42159548Y5983029D01*
X42225644Y5929898D01*
X42277124Y5851773D01*
X42314176Y5748483D01*
X42318835Y5728562D01*
X42327595Y5673196D01*
X42332313Y5607422D01*
X42332816Y5529228D01*
X42328930Y5436601D01*
X42320482Y5327529D01*
X42307300Y5200000D01*
X42289210Y5052003D01*
X42266039Y4881525D01*
X42237614Y4686554D01*
X42203762Y4465078D01*
X42193949Y4400814D01*
X42176209Y4279119D01*
X42159238Y4156192D01*
X42144028Y4039509D01*
X42131570Y3936546D01*
X42122855Y3854780D01*
X42120483Y3829993D01*
X42107221Y3698131D01*
X42092825Y3564787D01*
X42077741Y3433337D01*
X42062414Y3307161D01*
X42047290Y3189635D01*
X42032814Y3084139D01*
X42019432Y2994050D01*
X42007590Y2922746D01*
X41997733Y2873605D01*
X41990306Y2850006D01*
X41972944Y2827460D01*
X41918756Y2785457D01*
X41850167Y2758563D01*
X41820155Y2753582D01*
X41766832Y2748633D01*
X41708855Y2746261D01*
X41621095Y2752649D01*
X41544813Y2777565D01*
X41490529Y2821368D01*
X41458079Y2884197D01*
X41447299Y2966187D01*
X41448757Y2988664D01*
X41455417Y3040656D01*
X41466538Y3110334D01*
X41481092Y3191395D01*
X41498053Y3277538D01*
X41506807Y3320222D01*
X41533663Y3453943D01*
X41555173Y3566670D01*
X41572298Y3664093D01*
X41586003Y3751904D01*
X41597250Y3835795D01*
X41607001Y3921456D01*
X41609544Y3944424D01*
X41618048Y4014532D01*
X41629606Y4103965D01*
X41643345Y4206180D01*
X41658392Y4314630D01*
X41673874Y4422772D01*
X41696774Y4580089D01*
X41717595Y4724124D01*
X41734794Y4845623D01*
X41748643Y4947811D01*
X41759414Y5033913D01*
X41767379Y5107153D01*
X41772812Y5170756D01*
X41775984Y5227946D01*
X41777167Y5281948D01*
X41776636Y5335985D01*
X41774661Y5393283D01*
X41771515Y5457066D01*
X41767471Y5530558D01*
X41765952Y5558848D01*
X41761715Y5650524D01*
X41758934Y5732508D01*
X41757711Y5799973D01*
X41758147Y5848091D01*
X41760342Y5872034D01*
X41761892Y5876859D01*
X41795987Y5934187D01*
X41852579Y5978124D01*
X41927530Y6006339D01*
X42016705Y6016500D01*
X42078647Y6011335D01*
G37*
D17*
G04 #@! TO.C,J4*
X3450000Y26300000D02*
G75*
G03*
X3450000Y26300000I-1200000J0D01*
G01*
G04 #@! TD*
M02*
