G04 #@! TF.GenerationSoftware,KiCad,Pcbnew,(6.0.9)*
G04 #@! TF.CreationDate,2022-12-11T18:11:54+03:00*
G04 #@! TF.ProjectId,alphax_2ch,616c7068-6178-45f3-9263-682e6b696361,E*
G04 #@! TF.SameCoordinates,PX141f5e0PYa2cace0*
G04 #@! TF.FileFunction,Soldermask,Bot*
G04 #@! TF.FilePolarity,Negative*
%FSLAX46Y46*%
G04 Gerber Fmt 4.6, Leading zero omitted, Abs format (unit mm)*
G04 Created by KiCad (PCBNEW (6.0.9)) date 2022-12-11 18:11:54*
%MOMM*%
%LPD*%
G01*
G04 APERTURE LIST*
%ADD10C,0.120000*%
%ADD11C,1.524000*%
%ADD12C,1.700000*%
%ADD13C,1.000000*%
%ADD14C,0.599999*%
%ADD15C,1.500000*%
%ADD16C,0.600000*%
%ADD17O,2.900000X5.900000*%
%ADD18O,2.400000X2.900000*%
%ADD19C,2.000000*%
G04 APERTURE END LIST*
G04 #@! TO.C,U4*
G36*
X19700000Y200000D02*
G01*
X6700000Y200000D01*
X6700000Y7200000D01*
X19700000Y7200000D01*
X19700000Y200000D01*
G37*
D10*
X19700000Y200000D02*
X6700000Y200000D01*
X6700000Y7200000D01*
X19700000Y7200000D01*
X19700000Y200000D01*
G04 #@! TD*
D11*
G04 #@! TO.C,R8*
X49836417Y82896579D03*
X49836417Y86706579D03*
G04 #@! TD*
G04 #@! TO.C,R9*
X47882571Y82918049D03*
X47882571Y86728049D03*
G04 #@! TD*
G04 #@! TO.C,F4*
X36700000Y86750000D03*
X36700000Y81850000D03*
G04 #@! TD*
D12*
G04 #@! TO.C,P2*
X61958000Y73100000D03*
G04 #@! TD*
D11*
G04 #@! TO.C,R11*
X24500000Y82895000D03*
X24500000Y86705000D03*
G04 #@! TD*
G04 #@! TO.C,R6*
X74305000Y103400000D03*
X70495000Y103400000D03*
G04 #@! TD*
D13*
G04 #@! TO.C,J1*
X26710000Y6475000D03*
X31110000Y6475000D03*
G04 #@! TD*
D11*
G04 #@! TO.C,R17*
X38900000Y82895000D03*
X38900000Y86705000D03*
G04 #@! TD*
D14*
G04 #@! TO.C,M8*
X69577499Y1826662D03*
X68702497Y2351662D03*
X69877501Y3101660D03*
X69802498Y6651661D03*
G04 #@! TD*
D11*
G04 #@! TO.C,R16*
X45400000Y82895000D03*
X45400000Y86705000D03*
G04 #@! TD*
D12*
G04 #@! TO.C,P3*
X60400000Y1900000D03*
G04 #@! TD*
D15*
G04 #@! TO.C,M1*
X32074999Y55675006D03*
X25675002Y55675006D03*
X23774999Y55675006D03*
X19474999Y55675006D03*
D16*
X17075002Y55225007D03*
X16075001Y55225007D03*
D15*
X13224999Y55675006D03*
X32525001Y71175003D03*
X30675002Y71175003D03*
X25724999Y71175003D03*
X13675001Y71175003D03*
G04 #@! TD*
D14*
G04 #@! TO.C,M3*
X34825000Y57700000D03*
X42325000Y57700000D03*
X43125000Y57700000D03*
X43925000Y57700000D03*
X36725000Y75225000D03*
X35725000Y75225000D03*
G04 #@! TD*
D11*
G04 #@! TO.C,R10*
X43300000Y82895000D03*
X43300000Y86705000D03*
G04 #@! TD*
G04 #@! TO.C,R19*
X30000000Y82895000D03*
X30000000Y86705000D03*
G04 #@! TD*
G04 #@! TO.C,F1*
X54846000Y86700000D03*
X54846000Y81800000D03*
G04 #@! TD*
G04 #@! TO.C,R14*
X70495000Y98900000D03*
X74305000Y98900000D03*
G04 #@! TD*
G04 #@! TO.C,F3*
X41100000Y86750000D03*
X41100000Y81850000D03*
G04 #@! TD*
G04 #@! TO.C,R15*
X57132000Y82895000D03*
X57132000Y86705000D03*
G04 #@! TD*
G04 #@! TO.C,R7*
X59164000Y82895000D03*
X59164000Y86705000D03*
G04 #@! TD*
G04 #@! TO.C,R13*
X74305000Y101000000D03*
X70495000Y101000000D03*
G04 #@! TD*
G04 #@! TO.C,R20*
X61196000Y82943000D03*
X61196000Y86753000D03*
G04 #@! TD*
D17*
G04 #@! TO.C,P1*
X63400000Y98599000D03*
X23600000Y98599000D03*
D18*
X30750000Y92599000D03*
X34750000Y92599000D03*
X38250000Y92599000D03*
X41750000Y92599000D03*
X45250000Y92599000D03*
X48750000Y92599000D03*
X52250000Y92599000D03*
X56250000Y92599000D03*
X30750000Y96599000D03*
X34750000Y96599000D03*
X38250000Y96599000D03*
X41750000Y96599000D03*
X45250000Y96599000D03*
X48750000Y96599000D03*
X52250000Y96599000D03*
X56250000Y96599000D03*
X30750000Y100599000D03*
X34750000Y100599000D03*
X38250000Y100599000D03*
X41750000Y100599000D03*
X45250000Y100599000D03*
X48750000Y100599000D03*
X52250000Y100599000D03*
X56250000Y100599000D03*
G04 #@! TD*
D11*
G04 #@! TO.C,R12*
X27200000Y82895000D03*
X27200000Y86705000D03*
G04 #@! TD*
G04 #@! TO.C,R18*
X34500000Y82895000D03*
X34500000Y86705000D03*
G04 #@! TD*
D12*
G04 #@! TO.C,P4*
X60400000Y4800000D03*
G04 #@! TD*
D11*
G04 #@! TO.C,F5*
X32300000Y86650000D03*
X32300000Y81750000D03*
G04 #@! TD*
G04 #@! TO.C,F2*
X52052000Y86750000D03*
X52052000Y81850000D03*
G04 #@! TD*
D12*
G04 #@! TO.C,J8*
X66600000Y62300000D03*
G04 #@! TD*
G04 #@! TO.C,J7*
X61000000Y62300000D03*
G04 #@! TD*
G04 #@! TO.C,D30*
G36*
G01*
X6400000Y54412500D02*
X6700000Y54412500D01*
G75*
G02*
X6850000Y54262500I0J-150000D01*
G01*
X6850000Y53087500D01*
G75*
G02*
X6700000Y52937500I-150000J0D01*
G01*
X6400000Y52937500D01*
G75*
G02*
X6250000Y53087500I0J150000D01*
G01*
X6250000Y54262500D01*
G75*
G02*
X6400000Y54412500I150000J0D01*
G01*
G37*
G36*
G01*
X8300000Y54412500D02*
X8600000Y54412500D01*
G75*
G02*
X8750000Y54262500I0J-150000D01*
G01*
X8750000Y53087500D01*
G75*
G02*
X8600000Y52937500I-150000J0D01*
G01*
X8300000Y52937500D01*
G75*
G02*
X8150000Y53087500I0J150000D01*
G01*
X8150000Y54262500D01*
G75*
G02*
X8300000Y54412500I150000J0D01*
G01*
G37*
G36*
G01*
X7350000Y52537500D02*
X7650000Y52537500D01*
G75*
G02*
X7800000Y52387500I0J-150000D01*
G01*
X7800000Y51212500D01*
G75*
G02*
X7650000Y51062500I-150000J0D01*
G01*
X7350000Y51062500D01*
G75*
G02*
X7200000Y51212500I0J150000D01*
G01*
X7200000Y52387500D01*
G75*
G02*
X7350000Y52537500I150000J0D01*
G01*
G37*
G04 #@! TD*
G04 #@! TO.C,D31*
G36*
G01*
X6400000Y58412500D02*
X6700000Y58412500D01*
G75*
G02*
X6850000Y58262500I0J-150000D01*
G01*
X6850000Y57087500D01*
G75*
G02*
X6700000Y56937500I-150000J0D01*
G01*
X6400000Y56937500D01*
G75*
G02*
X6250000Y57087500I0J150000D01*
G01*
X6250000Y58262500D01*
G75*
G02*
X6400000Y58412500I150000J0D01*
G01*
G37*
G36*
G01*
X8300000Y58412500D02*
X8600000Y58412500D01*
G75*
G02*
X8750000Y58262500I0J-150000D01*
G01*
X8750000Y57087500D01*
G75*
G02*
X8600000Y56937500I-150000J0D01*
G01*
X8300000Y56937500D01*
G75*
G02*
X8150000Y57087500I0J150000D01*
G01*
X8150000Y58262500D01*
G75*
G02*
X8300000Y58412500I150000J0D01*
G01*
G37*
G36*
G01*
X7350000Y56537500D02*
X7650000Y56537500D01*
G75*
G02*
X7800000Y56387500I0J-150000D01*
G01*
X7800000Y55212500D01*
G75*
G02*
X7650000Y55062500I-150000J0D01*
G01*
X7350000Y55062500D01*
G75*
G02*
X7200000Y55212500I0J150000D01*
G01*
X7200000Y56387500D01*
G75*
G02*
X7350000Y56537500I150000J0D01*
G01*
G37*
G04 #@! TD*
D19*
G04 #@! TO.C,J4*
X2250000Y26300000D03*
G04 #@! TD*
M02*
