M48
; DRILL file {KiCad (6.0.1)} date Wed Feb 16 12:04:19 2022
; FORMAT={2:4/ absolute / inch / suppress leading zeros}
; #@! TF.CreationDate,2022-02-16T12:04:19+02:00
; #@! TF.GenerationSoftware,Kicad,Pcbnew,(6.0.1)
; #@! TF.FileFunction,MixedPlating,1,2
FMAT,2
INCH,TZ
; #@! TA.AperFunction,Plated,PTH,ComponentDrill
T1C0.0118
; #@! TA.AperFunction,Plated,PTH,ViaDrill
T2C0.0118
; #@! TA.AperFunction,Plated,PTH,ViaDrill
T3C0.0197
; #@! TA.AperFunction,Plated,PTH,ComponentDrill
T4C0.0320
; #@! TA.AperFunction,Plated,PTH,ComponentDrill
T5C0.0394
; #@! TA.AperFunction,Plated,PTH,ComponentDrill
T6C0.0591
; #@! TA.AperFunction,Plated,PTH,ComponentDrill
T7C0.0984
; #@! TA.AperFunction,NonPlated,NPTH,ComponentDrill
T8C0.0394
%
G90
G05
T1
X5932Y22062
X8422Y24838
X9163Y24644
X9170Y22584
X9414Y20664
X9414Y16373
X9414Y10782
X9414Y5954
X10910Y6501
X11315Y25281
X12215Y22835
X12569Y29734
X12963Y29734
X15167Y22835
X15482Y22835
X15797Y22835
X20452Y5103
X21850Y5133
X22145Y4670
X22352Y5015
X25743Y3532
X25999Y4047
X26511Y3532
X26639Y4224
X26974Y4254
X27318Y4339
X27535Y3532
X27702Y4254
X28450Y4260
X28568Y5864
T2
X693Y38005
X893Y31405
X893Y23905
X893Y15305
X993Y37505
X993Y31905
X1229Y38105
X1293Y39505
X1393Y38605
X1496Y16732
X1593Y39805
X1593Y39105
X1593Y4505
X1652Y11361
X1652Y10861
X1654Y11890
X1693Y405
X1993Y30005
X2152Y16261
X2152Y15761
X2165Y17244
X2193Y32905
X2193Y26805
X2293Y41505
X2293Y33405
X2340Y18807
X2370Y23231
X2386Y35405
X2393Y32405
X2493Y31605
X2493Y29605
X2579Y19272
X2686Y17289
X2693Y30305
X2697Y15606
X2701Y16732
X2752Y12861
X2795Y28701
X2795Y24803
X2953Y19882
X2953Y11535
X2972Y18327
X3252Y16361
X3252Y12061
X3346Y19094
X3352Y15161
X3574Y23228
X3593Y38869
X3593Y27905
X3667Y20379
X3721Y18105
X3740Y17520
X3780Y18701
X3852Y15861
X3952Y13361
X3955Y12035
X3976Y19449
X4093Y38605
X4252Y28661
X4252Y16772
X4291Y27913
X4293Y34705
X4331Y24843
X4370Y19853
X4488Y18515
X4493Y37305
X4593Y38205
X4593Y34005
X4630Y22349
X4693Y39805
X4693Y35705
X4693Y31605
X4752Y14561
X4752Y13361
X4803Y19252
X4893Y23905
X4993Y27205
X4993Y24505
X5002Y20523
X5152Y12661
X5183Y17579
X5197Y18110
X5276Y16929
X5293Y21205
X5315Y18937
X5512Y19882
X5787Y18002
X5906Y20827
X5993Y32805
X5993Y30505
X6052Y16761
X6052Y11361
X6052Y15889
X6102Y19024
X6102Y18709
X6181Y19764
X6193Y36505
X6193Y29069
X6260Y19370
X6293Y38805
X6293Y35305
X6352Y17661
X6389Y31378
X6393Y40005
X6393Y38105
X6457Y30157
X6534Y29564
X6614Y10945
X6652Y12761
X6676Y32426
X6698Y13597
X6729Y37305
X6816Y17835
X6850Y19646
X6850Y18740
X7126Y32847
X7126Y30547
X7135Y35540
X7149Y14321
X7193Y35905
X7193Y33805
X7252Y15161
X7293Y21705
X7314Y34127
X7323Y16890
X7352Y12761
X7441Y30505
X7441Y17953
X7481Y20969
X7652Y15261
X7652Y11561
X7717Y10512
X7785Y30533
X7991Y15162
X7993Y33305
X8052Y11961
X8110Y10157
X8133Y35351
X8152Y16261
X8193Y305
X8268Y18307
X8317Y16979
X8346Y15157
X8397Y13073
X8543Y10157
X8593Y30905
X8597Y28293
X8693Y33405
X8693Y5105
X8740Y7874
X8780Y11969
X8794Y40011
X8798Y14614
X8893Y21205
X8976Y14055
X8993Y29505
X9093Y29005
X9093Y28605
X9093Y12905
X9291Y15709
X9293Y25705
X9567Y4094
X9593Y37105
X9693Y35705
X9693Y34805
X9693Y31705
X9793Y29005
X9893Y21688
X9919Y26515
X9961Y4921
X9993Y31505
X9993Y27105
X10207Y4696
X10354Y40669
X10493Y28905
X10593Y21605
X10748Y4213
X10891Y25789
X10893Y30505
X11102Y4252
X11135Y37306
X11142Y5276
X11152Y39051
X11169Y35624
X11171Y26305
X11417Y4213
X11593Y27605
X11693Y26705
X11893Y22205
X12068Y21598
X12293Y20405
X12293Y19205
X12293Y15005
X12357Y21805
X12393Y14605
X12393Y12605
X12450Y3502
X12493Y20705
X12493Y19505
X12493Y17005
X12693Y37305
X12780Y30809
X12793Y21005
X12893Y39105
X12893Y12505
X12893Y6605
X12893Y5205
X13137Y4183
X13193Y21365
X13193Y17005
X13228Y16654
X13393Y30205
X13393Y20705
X13393Y20205
X13425Y16260
X13593Y22505
X13593Y19805
X13602Y15886
X13617Y13819
X13693Y37205
X13693Y305
X13793Y3505
X13893Y6805
X14031Y4700
X14122Y5002
X14195Y22679
X14221Y4426
X14226Y5299
X14293Y4005
X14393Y38805
X14993Y35105
X15093Y37205
X15293Y5705
X15693Y35105
X15793Y40205
X15793Y38805
X16193Y22505
X16260Y5929
X16393Y37205
X16693Y35105
X16840Y22352
X16850Y5906
X17131Y6294
X17193Y31905
X17559Y6339
X17693Y31305
X17793Y38805
X17793Y37205
X17806Y21671
X17913Y6220
X18193Y30205
X18268Y6339
X18393Y35105
X18393Y32105
X18693Y27405
X18693Y3305
X18793Y25405
X18893Y32005
X19008Y22389
X19193Y37205
X19195Y30707
X19291Y26299
X19293Y31805
X19293Y25005
X19293Y22605
X19543Y28917
X19593Y27505
X19724Y26535
X19764Y25186
X19793Y21816
X19893Y38905
X19893Y29570
X19961Y6378
X20136Y21562
X20293Y28569
X20293Y1905
X20293Y305
X20593Y37205
X20593Y30611
X20695Y30138
X20945Y31890
X20984Y30906
X20998Y30054
X21338Y29764
X21593Y33205
X21693Y40205
X21793Y38805
X21793Y37205
X21893Y28041
X22047Y31024
X22290Y28044
X22593Y35205
X22638Y27913
X22866Y29162
X23093Y5105
X23093Y4405
X23093Y3705
X23093Y1905
X23228Y6339
X23293Y30605
X23593Y28005
X23693Y35705
X23740Y2559
X23793Y29505
X23993Y39005
X23993Y31805
X23993Y27905
X23993Y21705
X24134Y2559
X24724Y29528
X24793Y33305
X24993Y32705
X25046Y29101
X25347Y29193
X25593Y35705
X25593Y31605
X25630Y28105
X25667Y39655
X25693Y30105
X26088Y27849
X26893Y35305
X26993Y27886
X26993Y21505
X27015Y39748
X28093Y38405
X28193Y32605
X28493Y305
X28793Y3605
X28976Y29805
X29173Y6496
X29193Y41305
X29252Y4803
X29293Y4305
X29331Y6102
X29493Y5505
X29893Y39205
X30472Y38898
X30493Y41305
X30793Y29005
X31339Y33189
X31393Y41405
X31593Y5005
X31721Y21358
X31893Y39205
X31948Y28005
X31993Y38605
X32244Y27835
X32244Y27363
X32593Y32105
X32593Y29905
X32593Y4005
X32593Y405
X32612Y33775
X32693Y22005
X32717Y26496
X32793Y28605
X32834Y26987
X32835Y33465
X32993Y34005
X33536Y28047
X33593Y29805
X33593Y29205
X33893Y28405
X33993Y38805
X33993Y32705
X33993Y28905
X33993Y27505
X33993Y21605
X33993Y14905
X33993Y5405
T3
X26152Y32284
X26152Y31891
X26152Y31497
X26152Y31103
X26152Y30710
X26152Y30316
X26152Y29922
X26220Y38189
X26220Y37795
X26220Y37402
X26220Y37008
X26220Y36614
X26220Y36220
X26220Y35827
X27986Y28854
X28031Y34449
X28307Y29094
X28386Y35005
X28636Y28847
X28671Y32284
X28671Y31891
X28671Y31497
X28671Y31103
X28671Y30710
X28671Y30316
X28671Y29922
X28740Y38189
X28740Y37795
X28740Y37402
X28740Y37008
X28740Y36614
X28740Y36220
X28740Y35827
X28740Y34449
X29528Y38151
X29528Y37757
X29528Y37363
X29528Y36969
X29528Y36576
X29528Y36182
X29528Y35788
X29557Y32245
X29557Y31851
X29557Y31458
X29557Y31064
X29557Y30670
X29557Y30277
X29557Y29883
X31299Y34449
X31299Y28583
X31693Y34882
X31715Y28939
X32047Y38151
X32047Y37757
X32047Y37363
X32047Y36969
X32047Y36576
X32047Y36182
X32047Y35788
X32077Y32245
X32077Y31851
X32077Y31458
X32077Y31064
X32077Y30670
X32077Y30277
X32077Y29883
X32087Y34449
X32126Y28583
T4
X9646Y34136
X9646Y32636
X10709Y34136
X10709Y32636
X11811Y34136
X11811Y32636
X12717Y34114
X12717Y32185
X13583Y34136
X13583Y32636
X14449Y34154
X14449Y32224
X15315Y34136
X15315Y32636
X16181Y34154
X16181Y32224
X17047Y34136
X17047Y32636
X17874Y34136
X17874Y32636
X18851Y34145
X18851Y32645
X19621Y34136
X19621Y32636
X20493Y34154
X20493Y32224
X21593Y34134
X21593Y32205
X22493Y34136
X22493Y32636
X23293Y34136
X23293Y32636
X24093Y34155
X24093Y32655
X27754Y40709
X27754Y39764
X27754Y38937
X29254Y40709
X29254Y39764
X29254Y38937
T5
X24393Y28780
T6
X12106Y39606
X12106Y38031
X12106Y36456
X13681Y39606
X13681Y38031
X13681Y36456
X15059Y39606
X15059Y38031
X15059Y36456
X16437Y39606
X16437Y38031
X16437Y36456
X17815Y39606
X17815Y38031
X17815Y36456
X19193Y39606
X19193Y38031
X19193Y36456
X20571Y39606
X20571Y38031
X20571Y36456
X22146Y39606
X22146Y38031
X22146Y36456
T8
X10512Y2549
X12244Y2549
T7
X9291Y39409G85X9291Y38228
G05
X24961Y39409G85X24961Y38228
G05
T0
M30
