G04 #@! TF.GenerationSoftware,KiCad,Pcbnew,(6.0.9)*
G04 #@! TF.CreationDate,2022-12-10T14:18:16+03:00*
G04 #@! TF.ProjectId,alphax_2ch,616c7068-6178-45f3-9263-682e6b696361,E*
G04 #@! TF.SameCoordinates,PX141f5e0PYa2cace0*
G04 #@! TF.FileFunction,Legend,Bot*
G04 #@! TF.FilePolarity,Positive*
%FSLAX46Y46*%
G04 Gerber Fmt 4.6, Leading zero omitted, Abs format (unit mm)*
G04 Created by KiCad (PCBNEW (6.0.9)) date 2022-12-10 14:18:16*
%MOMM*%
%LPD*%
G01*
G04 APERTURE LIST*
%ADD10C,0.250000*%
%ADD11C,0.170000*%
%ADD12C,0.200000*%
%ADD13C,0.130000*%
%ADD14C,0.127000*%
%ADD15C,0.150000*%
%ADD16C,0.099060*%
%ADD17C,0.120000*%
%ADD18C,0.002540*%
G04 APERTURE END LIST*
D10*
X3214285Y24300000D02*
X3328571Y24357143D01*
X3500000Y24357143D01*
X3671428Y24300000D01*
X3785714Y24185715D01*
X3842857Y24071429D01*
X3900000Y23842858D01*
X3900000Y23671429D01*
X3842857Y23442858D01*
X3785714Y23328572D01*
X3671428Y23214286D01*
X3500000Y23157143D01*
X3385714Y23157143D01*
X3214285Y23214286D01*
X3157142Y23271429D01*
X3157142Y23671429D01*
X3385714Y23671429D01*
X2642857Y23157143D02*
X2642857Y24357143D01*
X1957142Y23157143D01*
X1957142Y24357143D01*
X1385714Y23157143D02*
X1385714Y24357143D01*
X1100000Y24357143D01*
X928571Y24300000D01*
X814285Y24185715D01*
X757142Y24071429D01*
X700000Y23842858D01*
X700000Y23671429D01*
X757142Y23442858D01*
X814285Y23328572D01*
X928571Y23214286D01*
X1100000Y23157143D01*
X1385714Y23157143D01*
D11*
X53793786Y90361986D02*
X53793786Y91161986D01*
X52993786Y91123890D02*
X53069977Y91161986D01*
X53184262Y91161986D01*
X53298548Y91123890D01*
X53374739Y91047700D01*
X53412834Y90971510D01*
X53450929Y90819129D01*
X53450929Y90704843D01*
X53412834Y90552462D01*
X53374739Y90476271D01*
X53298548Y90400081D01*
X53184262Y90361986D01*
X53108072Y90361986D01*
X52993786Y90400081D01*
X52955691Y90438176D01*
X52955691Y90704843D01*
X53108072Y90704843D01*
X52612834Y90361986D02*
X52612834Y91161986D01*
X52155691Y90361986D01*
X52155691Y91161986D01*
X51508072Y90781033D02*
X51393786Y90742938D01*
X51355691Y90704843D01*
X51317596Y90628652D01*
X51317596Y90514367D01*
X51355691Y90438176D01*
X51393786Y90400081D01*
X51469977Y90361986D01*
X51774739Y90361986D01*
X51774739Y91161986D01*
X51508072Y91161986D01*
X51431881Y91123890D01*
X51393786Y91085795D01*
X51355691Y91009605D01*
X51355691Y90933414D01*
X51393786Y90857224D01*
X51431881Y90819129D01*
X51508072Y90781033D01*
X51774739Y90781033D01*
D10*
X62971428Y64571429D02*
X63028571Y64514286D01*
X63200000Y64457143D01*
X63314285Y64457143D01*
X63485714Y64514286D01*
X63600000Y64628572D01*
X63657142Y64742858D01*
X63714285Y64971429D01*
X63714285Y65142858D01*
X63657142Y65371429D01*
X63600000Y65485715D01*
X63485714Y65600000D01*
X63314285Y65657143D01*
X63200000Y65657143D01*
X63028571Y65600000D01*
X62971428Y65542858D01*
X61771428Y64457143D02*
X62171428Y65028572D01*
X62457142Y64457143D02*
X62457142Y65657143D01*
X62000000Y65657143D01*
X61885714Y65600000D01*
X61828571Y65542858D01*
X61771428Y65428572D01*
X61771428Y65257143D01*
X61828571Y65142858D01*
X61885714Y65085715D01*
X62000000Y65028572D01*
X62457142Y65028572D01*
X61314285Y64800000D02*
X60742857Y64800000D01*
X61428571Y64457143D02*
X61028571Y65657143D01*
X60628571Y64457143D01*
X60228571Y64457143D02*
X60228571Y65657143D01*
X59542857Y64457143D01*
X59542857Y65657143D01*
X58971428Y64457143D02*
X58971428Y65657143D01*
X58285714Y64457143D02*
X58800000Y65142858D01*
X58285714Y65657143D02*
X58971428Y64971429D01*
D11*
X37944244Y98369395D02*
X37982339Y98331300D01*
X38096625Y98293205D01*
X38172816Y98293205D01*
X38287101Y98331300D01*
X38363292Y98407490D01*
X38401387Y98483681D01*
X38439482Y98636062D01*
X38439482Y98750348D01*
X38401387Y98902729D01*
X38363292Y98978919D01*
X38287101Y99055109D01*
X38172816Y99093205D01*
X38096625Y99093205D01*
X37982339Y99055109D01*
X37944244Y99017014D01*
X37144244Y98293205D02*
X37410911Y98674157D01*
X37601387Y98293205D02*
X37601387Y99093205D01*
X37296625Y99093205D01*
X37220435Y99055109D01*
X37182339Y99017014D01*
X37144244Y98940824D01*
X37144244Y98826538D01*
X37182339Y98750348D01*
X37220435Y98712252D01*
X37296625Y98674157D01*
X37601387Y98674157D01*
X36839482Y98521776D02*
X36458530Y98521776D01*
X36915673Y98293205D02*
X36649006Y99093205D01*
X36382339Y98293205D01*
X36115673Y98293205D02*
X36115673Y99093205D01*
X35658530Y98293205D01*
X35658530Y99093205D01*
X35277578Y98293205D02*
X35277578Y99093205D01*
X34820435Y98293205D02*
X35163292Y98750348D01*
X34820435Y99093205D02*
X35277578Y98636062D01*
X57289025Y98328095D02*
X57289025Y99128095D01*
X56908072Y98328095D02*
X56908072Y99128095D01*
X56717596Y99128095D01*
X56603311Y99089999D01*
X56527120Y99013809D01*
X56489025Y98937619D01*
X56450930Y98785238D01*
X56450930Y98670952D01*
X56489025Y98518571D01*
X56527120Y98442380D01*
X56603311Y98366190D01*
X56717596Y98328095D01*
X56908072Y98328095D01*
X55727120Y98328095D02*
X56108072Y98328095D01*
X56108072Y99128095D01*
X55460453Y98747142D02*
X55193787Y98747142D01*
X55079501Y98328095D02*
X55460453Y98328095D01*
X55460453Y99128095D01*
X55079501Y99128095D01*
D12*
X19890476Y26257143D02*
X19700000Y25457143D01*
X19509523Y26028572D01*
X19319047Y25457143D01*
X19128571Y26257143D01*
X18842857Y26257143D02*
X18652380Y25457143D01*
X18461904Y26028572D01*
X18271428Y25457143D01*
X18080952Y26257143D01*
X17795238Y26257143D02*
X17604761Y25457143D01*
X17414285Y26028572D01*
X17223809Y25457143D01*
X17033333Y26257143D01*
X16652380Y25571429D02*
X16604761Y25514286D01*
X16652380Y25457143D01*
X16700000Y25514286D01*
X16652380Y25571429D01*
X16652380Y25457143D01*
X15747619Y25457143D02*
X15747619Y26085715D01*
X15795238Y26200000D01*
X15890476Y26257143D01*
X16080952Y26257143D01*
X16176190Y26200000D01*
X15747619Y25514286D02*
X15842857Y25457143D01*
X16080952Y25457143D01*
X16176190Y25514286D01*
X16223809Y25628572D01*
X16223809Y25742858D01*
X16176190Y25857143D01*
X16080952Y25914286D01*
X15842857Y25914286D01*
X15747619Y25971429D01*
X15128571Y25457143D02*
X15223809Y25514286D01*
X15271428Y25628572D01*
X15271428Y26657143D01*
X14747619Y26257143D02*
X14747619Y25057143D01*
X14747619Y26200000D02*
X14652380Y26257143D01*
X14461904Y26257143D01*
X14366666Y26200000D01*
X14319047Y26142858D01*
X14271428Y26028572D01*
X14271428Y25685715D01*
X14319047Y25571429D01*
X14366666Y25514286D01*
X14461904Y25457143D01*
X14652380Y25457143D01*
X14747619Y25514286D01*
X13842857Y25457143D02*
X13842857Y26657143D01*
X13414285Y25457143D02*
X13414285Y26085715D01*
X13461904Y26200000D01*
X13557142Y26257143D01*
X13700000Y26257143D01*
X13795238Y26200000D01*
X13842857Y26142858D01*
X12509523Y25457143D02*
X12509523Y26085715D01*
X12557142Y26200000D01*
X12652380Y26257143D01*
X12842857Y26257143D01*
X12938095Y26200000D01*
X12509523Y25514286D02*
X12604761Y25457143D01*
X12842857Y25457143D01*
X12938095Y25514286D01*
X12985714Y25628572D01*
X12985714Y25742858D01*
X12938095Y25857143D01*
X12842857Y25914286D01*
X12604761Y25914286D01*
X12509523Y25971429D01*
X12128571Y25457143D02*
X11604761Y26257143D01*
X12128571Y26257143D02*
X11604761Y25457143D01*
X11223809Y26257143D02*
X11223809Y25057143D01*
X11223809Y26200000D02*
X11128571Y26257143D01*
X10938095Y26257143D01*
X10842857Y26200000D01*
X10795238Y26142858D01*
X10747619Y26028572D01*
X10747619Y25685715D01*
X10795238Y25571429D01*
X10842857Y25514286D01*
X10938095Y25457143D01*
X11128571Y25457143D01*
X11223809Y25514286D01*
X10319047Y25457143D02*
X10319047Y26257143D01*
X10319047Y26028572D02*
X10271428Y26142858D01*
X10223809Y26200000D01*
X10128571Y26257143D01*
X10033333Y26257143D01*
X9700000Y25571429D02*
X9652380Y25514286D01*
X9700000Y25457143D01*
X9747619Y25514286D01*
X9700000Y25571429D01*
X9700000Y25457143D01*
X8795238Y25514286D02*
X8890476Y25457143D01*
X9080952Y25457143D01*
X9176190Y25514286D01*
X9223809Y25571429D01*
X9271428Y25685715D01*
X9271428Y26028572D01*
X9223809Y26142858D01*
X9176190Y26200000D01*
X9080952Y26257143D01*
X8890476Y26257143D01*
X8795238Y26200000D01*
X8223809Y25457143D02*
X8319047Y25514286D01*
X8366666Y25571429D01*
X8414285Y25685715D01*
X8414285Y26028572D01*
X8366666Y26142858D01*
X8319047Y26200000D01*
X8223809Y26257143D01*
X8080952Y26257143D01*
X7985714Y26200000D01*
X7938095Y26142858D01*
X7890476Y26028572D01*
X7890476Y25685715D01*
X7938095Y25571429D01*
X7985714Y25514286D01*
X8080952Y25457143D01*
X8223809Y25457143D01*
X7461904Y25457143D02*
X7461904Y26257143D01*
X7461904Y26142858D02*
X7414285Y26200000D01*
X7319047Y26257143D01*
X7176190Y26257143D01*
X7080952Y26200000D01*
X7033333Y26085715D01*
X7033333Y25457143D01*
X7033333Y26085715D02*
X6985714Y26200000D01*
X6890476Y26257143D01*
X6747619Y26257143D01*
X6652380Y26200000D01*
X6604761Y26085715D01*
X6604761Y25457143D01*
D11*
X46222449Y95045952D02*
X45765306Y95045952D01*
X45993878Y94245952D02*
X45993878Y95045952D01*
X45498640Y94245952D02*
X45498640Y95045952D01*
X45193878Y95045952D01*
X45117687Y95007856D01*
X45079592Y94969761D01*
X45041497Y94893571D01*
X45041497Y94779285D01*
X45079592Y94703095D01*
X45117687Y94664999D01*
X45193878Y94626904D01*
X45498640Y94626904D01*
X44736735Y94284047D02*
X44622449Y94245952D01*
X44431973Y94245952D01*
X44355783Y94284047D01*
X44317687Y94322142D01*
X44279592Y94398333D01*
X44279592Y94474523D01*
X44317687Y94550714D01*
X44355783Y94588809D01*
X44431973Y94626904D01*
X44584354Y94664999D01*
X44660545Y94703095D01*
X44698640Y94741190D01*
X44736735Y94817380D01*
X44736735Y94893571D01*
X44698640Y94969761D01*
X44660545Y95007856D01*
X44584354Y95045952D01*
X44393878Y95045952D01*
X44279592Y95007856D01*
X57304867Y90292205D02*
X57304867Y91092205D01*
X56923915Y90292205D02*
X56923915Y91092205D01*
X56466772Y90292205D01*
X56466772Y91092205D01*
X55857248Y91092205D02*
X55857248Y90520776D01*
X55895343Y90406490D01*
X55971534Y90330300D01*
X56085820Y90292205D01*
X56162010Y90292205D01*
X55514391Y90520776D02*
X55133439Y90520776D01*
X55590581Y90292205D02*
X55323915Y91092205D01*
X55057248Y90292205D01*
X47541497Y98299615D02*
X47579592Y98261520D01*
X47693878Y98223425D01*
X47770069Y98223425D01*
X47884354Y98261520D01*
X47960545Y98337710D01*
X47998640Y98413901D01*
X48036735Y98566282D01*
X48036735Y98680568D01*
X47998640Y98832949D01*
X47960545Y98909139D01*
X47884354Y98985329D01*
X47770069Y99023425D01*
X47693878Y99023425D01*
X47579592Y98985329D01*
X47541497Y98947234D01*
X47236735Y98451996D02*
X46855783Y98451996D01*
X47312926Y98223425D02*
X47046259Y99023425D01*
X46779592Y98223425D01*
X46512926Y98223425D02*
X46512926Y99023425D01*
X46055783Y98223425D01*
X46055783Y99023425D01*
X38450838Y90746142D02*
X38717504Y90746142D01*
X38717504Y90327095D02*
X38717504Y91127095D01*
X38336552Y91127095D01*
X38031790Y90327095D02*
X38031790Y91127095D01*
X37727028Y91127095D01*
X37650838Y91088999D01*
X37612743Y91050904D01*
X37574647Y90974714D01*
X37574647Y90860428D01*
X37612743Y90784238D01*
X37650838Y90746142D01*
X37727028Y90708047D01*
X38031790Y90708047D01*
X50142962Y90361986D02*
X50142962Y91161986D01*
X49342962Y91123890D02*
X49419153Y91161986D01*
X49533438Y91161986D01*
X49647724Y91123890D01*
X49723915Y91047700D01*
X49762010Y90971510D01*
X49800105Y90819129D01*
X49800105Y90704843D01*
X49762010Y90552462D01*
X49723915Y90476271D01*
X49647724Y90400081D01*
X49533438Y90361986D01*
X49457248Y90361986D01*
X49342962Y90400081D01*
X49304867Y90438176D01*
X49304867Y90704843D01*
X49457248Y90704843D01*
X48962010Y90361986D02*
X48962010Y91161986D01*
X48504867Y90361986D01*
X48504867Y91161986D01*
X48162010Y90590557D02*
X47781058Y90590557D01*
X48238200Y90361986D02*
X47971534Y91161986D01*
X47704867Y90361986D01*
X52746351Y94357032D02*
X52784446Y94318937D01*
X52898732Y94280842D01*
X52974922Y94280842D01*
X53089208Y94318937D01*
X53165399Y94395127D01*
X53203494Y94471318D01*
X53241589Y94623699D01*
X53241589Y94737985D01*
X53203494Y94890366D01*
X53165399Y94966556D01*
X53089208Y95042746D01*
X52974922Y95080842D01*
X52898732Y95080842D01*
X52784446Y95042746D01*
X52746351Y95004651D01*
X52022541Y94280842D02*
X52403494Y94280842D01*
X52403494Y95080842D01*
X51870160Y95080842D02*
X51413018Y95080842D01*
X51641589Y94280842D02*
X51641589Y95080842D01*
X31273273Y91054109D02*
X31349464Y91092205D01*
X31463750Y91092205D01*
X31578035Y91054109D01*
X31654226Y90977919D01*
X31692321Y90901729D01*
X31730416Y90749348D01*
X31730416Y90635062D01*
X31692321Y90482681D01*
X31654226Y90406490D01*
X31578035Y90330300D01*
X31463750Y90292205D01*
X31387559Y90292205D01*
X31273273Y90330300D01*
X31235178Y90368395D01*
X31235178Y90635062D01*
X31387559Y90635062D01*
X30892321Y90292205D02*
X30892321Y91092205D01*
X30435178Y90292205D01*
X30435178Y91092205D01*
X30054226Y90292205D02*
X30054226Y91092205D01*
X29863750Y91092205D01*
X29749464Y91054109D01*
X29673273Y90977919D01*
X29635178Y90901729D01*
X29597083Y90749348D01*
X29597083Y90635062D01*
X29635178Y90482681D01*
X29673273Y90406490D01*
X29749464Y90330300D01*
X29863750Y90292205D01*
X30054226Y90292205D01*
X31273273Y95031582D02*
X31349464Y95069678D01*
X31463750Y95069678D01*
X31578035Y95031582D01*
X31654226Y94955392D01*
X31692321Y94879202D01*
X31730416Y94726821D01*
X31730416Y94612535D01*
X31692321Y94460154D01*
X31654226Y94383963D01*
X31578035Y94307773D01*
X31463750Y94269678D01*
X31387559Y94269678D01*
X31273273Y94307773D01*
X31235178Y94345868D01*
X31235178Y94612535D01*
X31387559Y94612535D01*
X30892321Y94269678D02*
X30892321Y95069678D01*
X30435178Y94269678D01*
X30435178Y95069678D01*
X30054226Y94269678D02*
X30054226Y95069678D01*
X29863750Y95069678D01*
X29749464Y95031582D01*
X29673273Y94955392D01*
X29635178Y94879202D01*
X29597083Y94726821D01*
X29597083Y94612535D01*
X29635178Y94460154D01*
X29673273Y94383963D01*
X29749464Y94307773D01*
X29863750Y94269678D01*
X30054226Y94269678D01*
X57396900Y94280842D02*
X57396900Y95080842D01*
X57015948Y94280842D02*
X57015948Y95080842D01*
X56558805Y94280842D01*
X56558805Y95080842D01*
X55949281Y95080842D02*
X55949281Y94509413D01*
X55987376Y94395127D01*
X56063567Y94318937D01*
X56177852Y94280842D01*
X56254043Y94280842D01*
X55301662Y94699889D02*
X55187376Y94661794D01*
X55149281Y94623699D01*
X55111186Y94547508D01*
X55111186Y94433223D01*
X55149281Y94357032D01*
X55187376Y94318937D01*
X55263567Y94280842D01*
X55568329Y94280842D01*
X55568329Y95080842D01*
X55301662Y95080842D01*
X55225471Y95042746D01*
X55187376Y95004651D01*
X55149281Y94928461D01*
X55149281Y94852270D01*
X55187376Y94776080D01*
X55225471Y94737985D01*
X55301662Y94699889D01*
X55568329Y94699889D01*
X42657248Y94474523D02*
X42276295Y94474523D01*
X42733438Y94245952D02*
X42466772Y95045952D01*
X42200105Y94245952D01*
X41666772Y94664999D02*
X41933438Y94664999D01*
X41933438Y94245952D02*
X41933438Y95045952D01*
X41552486Y95045952D01*
X40790581Y94245952D02*
X41057248Y94626904D01*
X41247724Y94245952D02*
X41247724Y95045952D01*
X40942962Y95045952D01*
X40866772Y95007856D01*
X40828676Y94969761D01*
X40790581Y94893571D01*
X40790581Y94779285D01*
X40828676Y94703095D01*
X40866772Y94664999D01*
X40942962Y94626904D01*
X41247724Y94626904D01*
X43330325Y99017014D02*
X43292230Y99055109D01*
X43216039Y99093205D01*
X43025563Y99093205D01*
X42949373Y99055109D01*
X42911277Y99017014D01*
X42873182Y98940824D01*
X42873182Y98864633D01*
X42911277Y98750348D01*
X43368420Y98293205D01*
X42873182Y98293205D01*
X42568420Y98331300D02*
X42454135Y98293205D01*
X42263658Y98293205D01*
X42187468Y98331300D01*
X42149373Y98369395D01*
X42111277Y98445586D01*
X42111277Y98521776D01*
X42149373Y98597967D01*
X42187468Y98636062D01*
X42263658Y98674157D01*
X42416039Y98712252D01*
X42492230Y98750348D01*
X42530325Y98788443D01*
X42568420Y98864633D01*
X42568420Y98940824D01*
X42530325Y99017014D01*
X42492230Y99055109D01*
X42416039Y99093205D01*
X42225563Y99093205D01*
X42111277Y99055109D01*
X41882706Y99093205D02*
X41425563Y99093205D01*
X41654135Y98293205D02*
X41654135Y99093205D01*
X41158896Y98712252D02*
X40892230Y98712252D01*
X40777944Y98293205D02*
X41158896Y98293205D01*
X41158896Y99093205D01*
X40777944Y99093205D01*
X40435087Y98293205D02*
X40435087Y99093205D01*
X40130325Y99093205D01*
X40054135Y99055109D01*
X40016039Y99017014D01*
X39977944Y98940824D01*
X39977944Y98826538D01*
X40016039Y98750348D01*
X40054135Y98712252D01*
X40130325Y98674157D01*
X40435087Y98674157D01*
X52882888Y98369395D02*
X52920984Y98331300D01*
X53035269Y98293205D01*
X53111460Y98293205D01*
X53225746Y98331300D01*
X53301936Y98407490D01*
X53340031Y98483681D01*
X53378127Y98636062D01*
X53378127Y98750348D01*
X53340031Y98902729D01*
X53301936Y98978919D01*
X53225746Y99055109D01*
X53111460Y99093205D01*
X53035269Y99093205D01*
X52920984Y99055109D01*
X52882888Y99017014D01*
X52578127Y98521776D02*
X52197174Y98521776D01*
X52654317Y98293205D02*
X52387650Y99093205D01*
X52120984Y98293205D01*
X51854317Y98293205D02*
X51854317Y99093205D01*
X51587650Y98521776D01*
X51320984Y99093205D01*
X51320984Y98293205D01*
X31416040Y98712252D02*
X31682706Y98712252D01*
X31682706Y98293205D02*
X31682706Y99093205D01*
X31301754Y99093205D01*
X31035087Y98521776D02*
X30654135Y98521776D01*
X31111278Y98293205D02*
X30844611Y99093205D01*
X30577944Y98293205D01*
X30311278Y98293205D02*
X30311278Y99093205D01*
X29854135Y98293205D01*
X29854135Y99093205D01*
D10*
X67528571Y64571429D02*
X67585714Y64514286D01*
X67757142Y64457143D01*
X67871428Y64457143D01*
X68042857Y64514286D01*
X68157142Y64628572D01*
X68214285Y64742858D01*
X68271428Y64971429D01*
X68271428Y65142858D01*
X68214285Y65371429D01*
X68157142Y65485715D01*
X68042857Y65600000D01*
X67871428Y65657143D01*
X67757142Y65657143D01*
X67585714Y65600000D01*
X67528571Y65542858D01*
X67071428Y64800000D02*
X66500000Y64800000D01*
X67185714Y64457143D02*
X66785714Y65657143D01*
X66385714Y64457143D01*
X65985714Y64457143D02*
X65985714Y65657143D01*
X65585714Y64800000D01*
X65185714Y65657143D01*
X65185714Y64457143D01*
D11*
X46409537Y91123890D02*
X46485728Y91161986D01*
X46600014Y91161986D01*
X46714299Y91123890D01*
X46790490Y91047700D01*
X46828585Y90971510D01*
X46866680Y90819129D01*
X46866680Y90704843D01*
X46828585Y90552462D01*
X46790490Y90476271D01*
X46714299Y90400081D01*
X46600014Y90361986D01*
X46523823Y90361986D01*
X46409537Y90400081D01*
X46371442Y90438176D01*
X46371442Y90704843D01*
X46523823Y90704843D01*
X46028585Y90361986D02*
X46028585Y91161986D01*
X45571442Y90361986D01*
X45571442Y91161986D01*
X45190490Y90361986D02*
X45190490Y91161986D01*
X45000014Y91161986D01*
X44885728Y91123890D01*
X44809537Y91047700D01*
X44771442Y90971510D01*
X44733347Y90819129D01*
X44733347Y90704843D01*
X44771442Y90552462D01*
X44809537Y90476271D01*
X44885728Y90400081D01*
X45000014Y90361986D01*
X45190490Y90361986D01*
X44428585Y90590557D02*
X44047633Y90590557D01*
X44504776Y90361986D02*
X44238109Y91161986D01*
X43971442Y90361986D01*
X49974739Y94515824D02*
X49365215Y94515824D01*
X49669977Y94211062D02*
X49669977Y94820586D01*
X48603310Y95011062D02*
X48984263Y95011062D01*
X49022358Y94630109D01*
X48984263Y94668205D01*
X48908072Y94706300D01*
X48717596Y94706300D01*
X48641406Y94668205D01*
X48603310Y94630109D01*
X48565215Y94553919D01*
X48565215Y94363443D01*
X48603310Y94287252D01*
X48641406Y94249157D01*
X48717596Y94211062D01*
X48908072Y94211062D01*
X48984263Y94249157D01*
X49022358Y94287252D01*
X48336644Y95011062D02*
X48069977Y94211062D01*
X47803310Y95011062D01*
X35720526Y94211062D02*
X35720526Y95011062D01*
X35453860Y94439633D01*
X35187193Y95011062D01*
X35187193Y94211062D01*
X34844336Y94439633D02*
X34463383Y94439633D01*
X34920526Y94211062D02*
X34653860Y95011062D01*
X34387193Y94211062D01*
X34120526Y94211062D02*
X34120526Y95011062D01*
X33815764Y95011062D01*
X33739574Y94972966D01*
X33701479Y94934871D01*
X33663383Y94858681D01*
X33663383Y94744395D01*
X33701479Y94668205D01*
X33739574Y94630109D01*
X33815764Y94592014D01*
X34120526Y94592014D01*
X38708073Y94245952D02*
X38708073Y95045952D01*
X38365215Y94474523D02*
X37984263Y94474523D01*
X38441406Y94245952D02*
X38174739Y95045952D01*
X37908073Y94245952D01*
X37755692Y95045952D02*
X37298549Y95045952D01*
X37527120Y94245952D02*
X37527120Y95045952D01*
X36155416Y90631857D02*
X35545893Y90631857D01*
X35850654Y90327095D02*
X35850654Y90936619D01*
X34745893Y90327095D02*
X35203035Y90327095D01*
X34974464Y90327095D02*
X34974464Y91127095D01*
X35050654Y91012809D01*
X35126845Y90936619D01*
X35203035Y90898523D01*
X34441131Y91050904D02*
X34403035Y91088999D01*
X34326845Y91127095D01*
X34136369Y91127095D01*
X34060178Y91088999D01*
X34022083Y91050904D01*
X33983988Y90974714D01*
X33983988Y90898523D01*
X34022083Y90784238D01*
X34479226Y90327095D01*
X33983988Y90327095D01*
X33755416Y91127095D02*
X33488750Y90327095D01*
X33222083Y91127095D01*
X43393878Y91161986D02*
X42936735Y91161986D01*
X43165307Y90361986D02*
X43165307Y91161986D01*
X42708164Y90590557D02*
X42327212Y90590557D01*
X42784355Y90361986D02*
X42517688Y91161986D01*
X42251021Y90361986D01*
X41527212Y90438176D02*
X41565307Y90400081D01*
X41679593Y90361986D01*
X41755783Y90361986D01*
X41870069Y90400081D01*
X41946259Y90476271D01*
X41984355Y90552462D01*
X42022450Y90704843D01*
X42022450Y90819129D01*
X41984355Y90971510D01*
X41946259Y91047700D01*
X41870069Y91123890D01*
X41755783Y91161986D01*
X41679593Y91161986D01*
X41565307Y91123890D01*
X41527212Y91085795D01*
X41184355Y90361986D02*
X41184355Y91161986D01*
X41184355Y90781033D02*
X40727212Y90781033D01*
X40727212Y90361986D02*
X40727212Y91161986D01*
X40193878Y91161986D02*
X40041497Y91161986D01*
X39965307Y91123890D01*
X39889116Y91047700D01*
X39851021Y90895319D01*
X39851021Y90628652D01*
X39889116Y90476271D01*
X39965307Y90400081D01*
X40041497Y90361986D01*
X40193878Y90361986D01*
X40270069Y90400081D01*
X40346259Y90476271D01*
X40384355Y90628652D01*
X40384355Y90895319D01*
X40346259Y91047700D01*
X40270069Y91123890D01*
X40193878Y91161986D01*
D13*
G04 #@! TO.C,R8*
X49992467Y81135007D02*
X50242467Y81492150D01*
X50421038Y81135007D02*
X50421038Y81885007D01*
X50135324Y81885007D01*
X50063895Y81849292D01*
X50028181Y81813578D01*
X49992467Y81742150D01*
X49992467Y81635007D01*
X50028181Y81563578D01*
X50063895Y81527864D01*
X50135324Y81492150D01*
X50421038Y81492150D01*
X49563895Y81563578D02*
X49635324Y81599292D01*
X49671038Y81635007D01*
X49706752Y81706435D01*
X49706752Y81742150D01*
X49671038Y81813578D01*
X49635324Y81849292D01*
X49563895Y81885007D01*
X49421038Y81885007D01*
X49349609Y81849292D01*
X49313895Y81813578D01*
X49278181Y81742150D01*
X49278181Y81706435D01*
X49313895Y81635007D01*
X49349609Y81599292D01*
X49421038Y81563578D01*
X49563895Y81563578D01*
X49635324Y81527864D01*
X49671038Y81492150D01*
X49706752Y81420721D01*
X49706752Y81277864D01*
X49671038Y81206435D01*
X49635324Y81170721D01*
X49563895Y81135007D01*
X49421038Y81135007D01*
X49349609Y81170721D01*
X49313895Y81206435D01*
X49278181Y81277864D01*
X49278181Y81420721D01*
X49313895Y81492150D01*
X49349609Y81527864D01*
X49421038Y81563578D01*
D14*
G04 #@! TO.C,R9*
X48009571Y80978335D02*
X48263571Y81341192D01*
X48444999Y80978335D02*
X48444999Y81740335D01*
X48154713Y81740335D01*
X48082142Y81704049D01*
X48045856Y81667764D01*
X48009571Y81595192D01*
X48009571Y81486335D01*
X48045856Y81413764D01*
X48082142Y81377478D01*
X48154713Y81341192D01*
X48444999Y81341192D01*
X47646713Y80978335D02*
X47501571Y80978335D01*
X47428999Y81014621D01*
X47392713Y81050907D01*
X47320142Y81159764D01*
X47283856Y81304907D01*
X47283856Y81595192D01*
X47320142Y81667764D01*
X47356428Y81704049D01*
X47428999Y81740335D01*
X47574142Y81740335D01*
X47646713Y81704049D01*
X47682999Y81667764D01*
X47719285Y81595192D01*
X47719285Y81413764D01*
X47682999Y81341192D01*
X47646713Y81304907D01*
X47574142Y81268621D01*
X47428999Y81268621D01*
X47356428Y81304907D01*
X47320142Y81341192D01*
X47283856Y81413764D01*
G04 #@! TO.C,F4*
X36954000Y80054429D02*
X37208000Y80054429D01*
X37208000Y79655286D02*
X37208000Y80417286D01*
X36845142Y80417286D01*
X36228285Y80163286D02*
X36228285Y79655286D01*
X36409714Y80453572D02*
X36591142Y79909286D01*
X36119428Y79909286D01*
D11*
G04 #@! TO.C,P2*
X62696095Y74897620D02*
X62696095Y75897620D01*
X62315142Y75897620D01*
X62219904Y75850000D01*
X62172285Y75802381D01*
X62124666Y75707143D01*
X62124666Y75564286D01*
X62172285Y75469048D01*
X62219904Y75421429D01*
X62315142Y75373810D01*
X62696095Y75373810D01*
X61743714Y75802381D02*
X61696095Y75850000D01*
X61600857Y75897620D01*
X61362761Y75897620D01*
X61267523Y75850000D01*
X61219904Y75802381D01*
X61172285Y75707143D01*
X61172285Y75611905D01*
X61219904Y75469048D01*
X61791333Y74897620D01*
X61172285Y74897620D01*
D13*
G04 #@! TO.C,R11*
X24848142Y80952715D02*
X25098142Y81309858D01*
X25276714Y80952715D02*
X25276714Y81702715D01*
X24991000Y81702715D01*
X24919571Y81667000D01*
X24883857Y81631286D01*
X24848142Y81559858D01*
X24848142Y81452715D01*
X24883857Y81381286D01*
X24919571Y81345572D01*
X24991000Y81309858D01*
X25276714Y81309858D01*
X24133857Y80952715D02*
X24562428Y80952715D01*
X24348142Y80952715D02*
X24348142Y81702715D01*
X24419571Y81595572D01*
X24491000Y81524143D01*
X24562428Y81488429D01*
X23419571Y80952715D02*
X23848142Y80952715D01*
X23633857Y80952715D02*
X23633857Y81702715D01*
X23705285Y81595572D01*
X23776714Y81524143D01*
X23848142Y81488429D01*
G04 #@! TO.C,R6*
X69155285Y103525000D02*
X68798142Y103775000D01*
X69155285Y103953572D02*
X68405285Y103953572D01*
X68405285Y103667858D01*
X68441000Y103596429D01*
X68476714Y103560715D01*
X68548142Y103525000D01*
X68655285Y103525000D01*
X68726714Y103560715D01*
X68762428Y103596429D01*
X68798142Y103667858D01*
X68798142Y103953572D01*
X68405285Y102882143D02*
X68405285Y103025000D01*
X68441000Y103096429D01*
X68476714Y103132143D01*
X68583857Y103203572D01*
X68726714Y103239286D01*
X69012428Y103239286D01*
X69083857Y103203572D01*
X69119571Y103167858D01*
X69155285Y103096429D01*
X69155285Y102953572D01*
X69119571Y102882143D01*
X69083857Y102846429D01*
X69012428Y102810715D01*
X68833857Y102810715D01*
X68762428Y102846429D01*
X68726714Y102882143D01*
X68691000Y102953572D01*
X68691000Y103096429D01*
X68726714Y103167858D01*
X68762428Y103203572D01*
X68833857Y103239286D01*
G04 #@! TO.C,R17*
X39326142Y80698715D02*
X39576142Y81055858D01*
X39754714Y80698715D02*
X39754714Y81448715D01*
X39469000Y81448715D01*
X39397571Y81413000D01*
X39361857Y81377286D01*
X39326142Y81305858D01*
X39326142Y81198715D01*
X39361857Y81127286D01*
X39397571Y81091572D01*
X39469000Y81055858D01*
X39754714Y81055858D01*
X38611857Y80698715D02*
X39040428Y80698715D01*
X38826142Y80698715D02*
X38826142Y81448715D01*
X38897571Y81341572D01*
X38969000Y81270143D01*
X39040428Y81234429D01*
X38361857Y81448715D02*
X37861857Y81448715D01*
X38183285Y80698715D01*
G04 #@! TO.C,R16*
X45882142Y80952715D02*
X46132142Y81309858D01*
X46310714Y80952715D02*
X46310714Y81702715D01*
X46025000Y81702715D01*
X45953571Y81667000D01*
X45917857Y81631286D01*
X45882142Y81559858D01*
X45882142Y81452715D01*
X45917857Y81381286D01*
X45953571Y81345572D01*
X46025000Y81309858D01*
X46310714Y81309858D01*
X45167857Y80952715D02*
X45596428Y80952715D01*
X45382142Y80952715D02*
X45382142Y81702715D01*
X45453571Y81595572D01*
X45525000Y81524143D01*
X45596428Y81488429D01*
X44525000Y81702715D02*
X44667857Y81702715D01*
X44739285Y81667000D01*
X44775000Y81631286D01*
X44846428Y81524143D01*
X44882142Y81381286D01*
X44882142Y81095572D01*
X44846428Y81024143D01*
X44810714Y80988429D01*
X44739285Y80952715D01*
X44596428Y80952715D01*
X44525000Y80988429D01*
X44489285Y81024143D01*
X44453571Y81095572D01*
X44453571Y81274143D01*
X44489285Y81345572D01*
X44525000Y81381286D01*
X44596428Y81417000D01*
X44739285Y81417000D01*
X44810714Y81381286D01*
X44846428Y81345572D01*
X44882142Y81274143D01*
D11*
G04 #@! TO.C,P3*
X58695238Y1429048D02*
X58695238Y2249048D01*
X58382857Y2249048D01*
X58304761Y2210000D01*
X58265714Y2170953D01*
X58226666Y2092858D01*
X58226666Y1975715D01*
X58265714Y1897620D01*
X58304761Y1858572D01*
X58382857Y1819524D01*
X58695238Y1819524D01*
X57953333Y2249048D02*
X57445714Y2249048D01*
X57719047Y1936667D01*
X57601904Y1936667D01*
X57523809Y1897620D01*
X57484761Y1858572D01*
X57445714Y1780477D01*
X57445714Y1585239D01*
X57484761Y1507143D01*
X57523809Y1468096D01*
X57601904Y1429048D01*
X57836190Y1429048D01*
X57914285Y1468096D01*
X57953333Y1507143D01*
D14*
G04 #@! TO.C,R10*
X43789857Y80955286D02*
X44043857Y81318143D01*
X44225285Y80955286D02*
X44225285Y81717286D01*
X43935000Y81717286D01*
X43862428Y81681000D01*
X43826142Y81644715D01*
X43789857Y81572143D01*
X43789857Y81463286D01*
X43826142Y81390715D01*
X43862428Y81354429D01*
X43935000Y81318143D01*
X44225285Y81318143D01*
X43064142Y80955286D02*
X43499571Y80955286D01*
X43281857Y80955286D02*
X43281857Y81717286D01*
X43354428Y81608429D01*
X43427000Y81535858D01*
X43499571Y81499572D01*
X42592428Y81717286D02*
X42519857Y81717286D01*
X42447285Y81681000D01*
X42411000Y81644715D01*
X42374714Y81572143D01*
X42338428Y81427000D01*
X42338428Y81245572D01*
X42374714Y81100429D01*
X42411000Y81027858D01*
X42447285Y80991572D01*
X42519857Y80955286D01*
X42592428Y80955286D01*
X42665000Y80991572D01*
X42701285Y81027858D01*
X42737571Y81100429D01*
X42773857Y81245572D01*
X42773857Y81427000D01*
X42737571Y81572143D01*
X42701285Y81644715D01*
X42665000Y81681000D01*
X42592428Y81717286D01*
G04 #@! TO.C,R19*
X30489857Y80955286D02*
X30743857Y81318143D01*
X30925285Y80955286D02*
X30925285Y81717286D01*
X30635000Y81717286D01*
X30562428Y81681000D01*
X30526142Y81644715D01*
X30489857Y81572143D01*
X30489857Y81463286D01*
X30526142Y81390715D01*
X30562428Y81354429D01*
X30635000Y81318143D01*
X30925285Y81318143D01*
X29764142Y80955286D02*
X30199571Y80955286D01*
X29981857Y80955286D02*
X29981857Y81717286D01*
X30054428Y81608429D01*
X30127000Y81535858D01*
X30199571Y81499572D01*
X29401285Y80955286D02*
X29256142Y80955286D01*
X29183571Y80991572D01*
X29147285Y81027858D01*
X29074714Y81136715D01*
X29038428Y81281858D01*
X29038428Y81572143D01*
X29074714Y81644715D01*
X29111000Y81681000D01*
X29183571Y81717286D01*
X29328714Y81717286D01*
X29401285Y81681000D01*
X29437571Y81644715D01*
X29473857Y81572143D01*
X29473857Y81390715D01*
X29437571Y81318143D01*
X29401285Y81281858D01*
X29328714Y81245572D01*
X29183571Y81245572D01*
X29111000Y81281858D01*
X29074714Y81318143D01*
X29038428Y81390715D01*
G04 #@! TO.C,F1*
X55150000Y80254429D02*
X55404000Y80254429D01*
X55404000Y79855286D02*
X55404000Y80617286D01*
X55041142Y80617286D01*
X54351714Y79855286D02*
X54787142Y79855286D01*
X54569428Y79855286D02*
X54569428Y80617286D01*
X54642000Y80508429D01*
X54714571Y80435858D01*
X54787142Y80399572D01*
D13*
G04 #@! TO.C,R14*
X69155285Y99382143D02*
X68798142Y99632143D01*
X69155285Y99810715D02*
X68405285Y99810715D01*
X68405285Y99525000D01*
X68441000Y99453572D01*
X68476714Y99417858D01*
X68548142Y99382143D01*
X68655285Y99382143D01*
X68726714Y99417858D01*
X68762428Y99453572D01*
X68798142Y99525000D01*
X68798142Y99810715D01*
X69155285Y98667858D02*
X69155285Y99096429D01*
X69155285Y98882143D02*
X68405285Y98882143D01*
X68512428Y98953572D01*
X68583857Y99025000D01*
X68619571Y99096429D01*
X68655285Y98025000D02*
X69155285Y98025000D01*
X68369571Y98203572D02*
X68905285Y98382143D01*
X68905285Y97917858D01*
D14*
G04 #@! TO.C,F3*
X41504000Y80304429D02*
X41758000Y80304429D01*
X41758000Y79905286D02*
X41758000Y80667286D01*
X41395142Y80667286D01*
X41177428Y80667286D02*
X40705714Y80667286D01*
X40959714Y80377000D01*
X40850857Y80377000D01*
X40778285Y80340715D01*
X40742000Y80304429D01*
X40705714Y80231858D01*
X40705714Y80050429D01*
X40742000Y79977858D01*
X40778285Y79941572D01*
X40850857Y79905286D01*
X41068571Y79905286D01*
X41141142Y79941572D01*
X41177428Y79977858D01*
D13*
G04 #@! TO.C,R15*
X57614142Y80952715D02*
X57864142Y81309858D01*
X58042714Y80952715D02*
X58042714Y81702715D01*
X57757000Y81702715D01*
X57685571Y81667000D01*
X57649857Y81631286D01*
X57614142Y81559858D01*
X57614142Y81452715D01*
X57649857Y81381286D01*
X57685571Y81345572D01*
X57757000Y81309858D01*
X58042714Y81309858D01*
X56899857Y80952715D02*
X57328428Y80952715D01*
X57114142Y80952715D02*
X57114142Y81702715D01*
X57185571Y81595572D01*
X57257000Y81524143D01*
X57328428Y81488429D01*
X56221285Y81702715D02*
X56578428Y81702715D01*
X56614142Y81345572D01*
X56578428Y81381286D01*
X56507000Y81417000D01*
X56328428Y81417000D01*
X56257000Y81381286D01*
X56221285Y81345572D01*
X56185571Y81274143D01*
X56185571Y81095572D01*
X56221285Y81024143D01*
X56257000Y80988429D01*
X56328428Y80952715D01*
X56507000Y80952715D01*
X56578428Y80988429D01*
X56614142Y81024143D01*
D14*
G04 #@! TO.C,R7*
X59291000Y80955286D02*
X59545000Y81318143D01*
X59726428Y80955286D02*
X59726428Y81717286D01*
X59436142Y81717286D01*
X59363571Y81681000D01*
X59327285Y81644715D01*
X59291000Y81572143D01*
X59291000Y81463286D01*
X59327285Y81390715D01*
X59363571Y81354429D01*
X59436142Y81318143D01*
X59726428Y81318143D01*
X59037000Y81717286D02*
X58529000Y81717286D01*
X58855571Y80955286D01*
D13*
G04 #@! TO.C,R13*
X69155285Y101586143D02*
X68798142Y101836143D01*
X69155285Y102014715D02*
X68405285Y102014715D01*
X68405285Y101729000D01*
X68441000Y101657572D01*
X68476714Y101621858D01*
X68548142Y101586143D01*
X68655285Y101586143D01*
X68726714Y101621858D01*
X68762428Y101657572D01*
X68798142Y101729000D01*
X68798142Y102014715D01*
X69155285Y100871858D02*
X69155285Y101300429D01*
X69155285Y101086143D02*
X68405285Y101086143D01*
X68512428Y101157572D01*
X68583857Y101229000D01*
X68619571Y101300429D01*
X68405285Y100621858D02*
X68405285Y100157572D01*
X68691000Y100407572D01*
X68691000Y100300429D01*
X68726714Y100229000D01*
X68762428Y100193286D01*
X68833857Y100157572D01*
X69012428Y100157572D01*
X69083857Y100193286D01*
X69119571Y100229000D01*
X69155285Y100300429D01*
X69155285Y100514715D01*
X69119571Y100586143D01*
X69083857Y100621858D01*
G04 #@! TO.C,R20*
X61626093Y81107095D02*
X61876093Y81464238D01*
X62054665Y81107095D02*
X62054665Y81857095D01*
X61768951Y81857095D01*
X61697522Y81821380D01*
X61661808Y81785666D01*
X61626093Y81714238D01*
X61626093Y81607095D01*
X61661808Y81535666D01*
X61697522Y81499952D01*
X61768951Y81464238D01*
X62054665Y81464238D01*
X61340379Y81785666D02*
X61304665Y81821380D01*
X61233236Y81857095D01*
X61054665Y81857095D01*
X60983236Y81821380D01*
X60947522Y81785666D01*
X60911808Y81714238D01*
X60911808Y81642809D01*
X60947522Y81535666D01*
X61376093Y81107095D01*
X60911808Y81107095D01*
X60447522Y81857095D02*
X60376093Y81857095D01*
X60304665Y81821380D01*
X60268951Y81785666D01*
X60233236Y81714238D01*
X60197522Y81571380D01*
X60197522Y81392809D01*
X60233236Y81249952D01*
X60268951Y81178523D01*
X60304665Y81142809D01*
X60376093Y81107095D01*
X60447522Y81107095D01*
X60518951Y81142809D01*
X60554665Y81178523D01*
X60590379Y81249952D01*
X60626093Y81392809D01*
X60626093Y81571380D01*
X60590379Y81714238D01*
X60554665Y81785666D01*
X60518951Y81821380D01*
X60447522Y81857095D01*
D15*
G04 #@! TO.C,P1*
X40407142Y100865667D02*
X40454761Y100913286D01*
X40502380Y101056143D01*
X40502380Y101151381D01*
X40454761Y101294239D01*
X40359523Y101389477D01*
X40264285Y101437096D01*
X40073809Y101484715D01*
X39930952Y101484715D01*
X39740476Y101437096D01*
X39645238Y101389477D01*
X39550000Y101294239D01*
X39502380Y101151381D01*
X39502380Y101056143D01*
X39550000Y100913286D01*
X39597619Y100865667D01*
X39835714Y100008524D02*
X40502380Y100008524D01*
X39454761Y100246620D02*
X40169047Y100484715D01*
X40169047Y99865667D01*
X46978571Y96903762D02*
X47026190Y96760905D01*
X47073809Y96713286D01*
X47169047Y96665667D01*
X47311904Y96665667D01*
X47407142Y96713286D01*
X47454761Y96760905D01*
X47502380Y96856143D01*
X47502380Y97237096D01*
X46502380Y97237096D01*
X46502380Y96903762D01*
X46550000Y96808524D01*
X46597619Y96760905D01*
X46692857Y96713286D01*
X46788095Y96713286D01*
X46883333Y96760905D01*
X46930952Y96808524D01*
X46978571Y96903762D01*
X46978571Y97237096D01*
X46502380Y95808524D02*
X46502380Y95999000D01*
X46550000Y96094239D01*
X46597619Y96141858D01*
X46740476Y96237096D01*
X46930952Y96284715D01*
X47311904Y96284715D01*
X47407142Y96237096D01*
X47454761Y96189477D01*
X47502380Y96094239D01*
X47502380Y95903762D01*
X47454761Y95808524D01*
X47407142Y95760905D01*
X47311904Y95713286D01*
X47073809Y95713286D01*
X46978571Y95760905D01*
X46930952Y95808524D01*
X46883333Y95903762D01*
X46883333Y96094239D01*
X46930952Y96189477D01*
X46978571Y96237096D01*
X47073809Y96284715D01*
X32916666Y93313286D02*
X32916666Y92837096D01*
X33202380Y93408524D02*
X32202380Y93075191D01*
X33202380Y92741858D01*
X32297619Y92456143D02*
X32250000Y92408524D01*
X32202380Y92313286D01*
X32202380Y92075191D01*
X32250000Y91979953D01*
X32297619Y91932334D01*
X32392857Y91884715D01*
X32488095Y91884715D01*
X32630952Y91932334D01*
X33202380Y92503762D01*
X33202380Y91884715D01*
X50716666Y93213286D02*
X50716666Y92737096D01*
X51002380Y93308524D02*
X50002380Y92975191D01*
X51002380Y92641858D01*
X50002380Y92403762D02*
X50002380Y91737096D01*
X51002380Y92165667D01*
X33107142Y100965667D02*
X33154761Y101013286D01*
X33202380Y101156143D01*
X33202380Y101251381D01*
X33154761Y101394239D01*
X33059523Y101489477D01*
X32964285Y101537096D01*
X32773809Y101584715D01*
X32630952Y101584715D01*
X32440476Y101537096D01*
X32345238Y101489477D01*
X32250000Y101394239D01*
X32202380Y101251381D01*
X32202380Y101156143D01*
X32250000Y101013286D01*
X32297619Y100965667D01*
X32297619Y100584715D02*
X32250000Y100537096D01*
X32202380Y100441858D01*
X32202380Y100203762D01*
X32250000Y100108524D01*
X32297619Y100060905D01*
X32392857Y100013286D01*
X32488095Y100013286D01*
X32630952Y100060905D01*
X33202380Y100632334D01*
X33202380Y100013286D01*
X43716666Y93213286D02*
X43716666Y92737096D01*
X44002380Y93308524D02*
X43002380Y92975191D01*
X44002380Y92641858D01*
X43002380Y91832334D02*
X43002380Y92308524D01*
X43478571Y92356143D01*
X43430952Y92308524D01*
X43383333Y92213286D01*
X43383333Y91975191D01*
X43430952Y91879953D01*
X43478571Y91832334D01*
X43573809Y91784715D01*
X43811904Y91784715D01*
X43907142Y91832334D01*
X43954761Y91879953D01*
X44002380Y91975191D01*
X44002380Y92213286D01*
X43954761Y92308524D01*
X43907142Y92356143D01*
X43478571Y96903762D02*
X43526190Y96760905D01*
X43573809Y96713286D01*
X43669047Y96665667D01*
X43811904Y96665667D01*
X43907142Y96713286D01*
X43954761Y96760905D01*
X44002380Y96856143D01*
X44002380Y97237096D01*
X43002380Y97237096D01*
X43002380Y96903762D01*
X43050000Y96808524D01*
X43097619Y96760905D01*
X43192857Y96713286D01*
X43288095Y96713286D01*
X43383333Y96760905D01*
X43430952Y96808524D01*
X43478571Y96903762D01*
X43478571Y97237096D01*
X43002380Y95760905D02*
X43002380Y96237096D01*
X43478571Y96284715D01*
X43430952Y96237096D01*
X43383333Y96141858D01*
X43383333Y95903762D01*
X43430952Y95808524D01*
X43478571Y95760905D01*
X43573809Y95713286D01*
X43811904Y95713286D01*
X43907142Y95760905D01*
X43954761Y95808524D01*
X44002380Y95903762D01*
X44002380Y96141858D01*
X43954761Y96237096D01*
X43907142Y96284715D01*
X39978571Y96903762D02*
X40026190Y96760905D01*
X40073809Y96713286D01*
X40169047Y96665667D01*
X40311904Y96665667D01*
X40407142Y96713286D01*
X40454761Y96760905D01*
X40502380Y96856143D01*
X40502380Y97237096D01*
X39502380Y97237096D01*
X39502380Y96903762D01*
X39550000Y96808524D01*
X39597619Y96760905D01*
X39692857Y96713286D01*
X39788095Y96713286D01*
X39883333Y96760905D01*
X39930952Y96808524D01*
X39978571Y96903762D01*
X39978571Y97237096D01*
X39835714Y95808524D02*
X40502380Y95808524D01*
X39454761Y96046620D02*
X40169047Y96284715D01*
X40169047Y95665667D01*
X43907142Y100865667D02*
X43954761Y100913286D01*
X44002380Y101056143D01*
X44002380Y101151381D01*
X43954761Y101294239D01*
X43859523Y101389477D01*
X43764285Y101437096D01*
X43573809Y101484715D01*
X43430952Y101484715D01*
X43240476Y101437096D01*
X43145238Y101389477D01*
X43050000Y101294239D01*
X43002380Y101151381D01*
X43002380Y101056143D01*
X43050000Y100913286D01*
X43097619Y100865667D01*
X43002380Y99960905D02*
X43002380Y100437096D01*
X43478571Y100484715D01*
X43430952Y100437096D01*
X43383333Y100341858D01*
X43383333Y100103762D01*
X43430952Y100008524D01*
X43478571Y99960905D01*
X43573809Y99913286D01*
X43811904Y99913286D01*
X43907142Y99960905D01*
X43954761Y100008524D01*
X44002380Y100103762D01*
X44002380Y100341858D01*
X43954761Y100437096D01*
X43907142Y100484715D01*
X47216666Y93213286D02*
X47216666Y92737096D01*
X47502380Y93308524D02*
X46502380Y92975191D01*
X47502380Y92641858D01*
X46502380Y91879953D02*
X46502380Y92070429D01*
X46550000Y92165667D01*
X46597619Y92213286D01*
X46740476Y92308524D01*
X46930952Y92356143D01*
X47311904Y92356143D01*
X47407142Y92308524D01*
X47454761Y92260905D01*
X47502380Y92165667D01*
X47502380Y91975191D01*
X47454761Y91879953D01*
X47407142Y91832334D01*
X47311904Y91784715D01*
X47073809Y91784715D01*
X46978571Y91832334D01*
X46930952Y91879953D01*
X46883333Y91975191D01*
X46883333Y92165667D01*
X46930952Y92260905D01*
X46978571Y92308524D01*
X47073809Y92356143D01*
X54378571Y96903762D02*
X54426190Y96760905D01*
X54473809Y96713286D01*
X54569047Y96665667D01*
X54711904Y96665667D01*
X54807142Y96713286D01*
X54854761Y96760905D01*
X54902380Y96856143D01*
X54902380Y97237096D01*
X53902380Y97237096D01*
X53902380Y96903762D01*
X53950000Y96808524D01*
X53997619Y96760905D01*
X54092857Y96713286D01*
X54188095Y96713286D01*
X54283333Y96760905D01*
X54330952Y96808524D01*
X54378571Y96903762D01*
X54378571Y97237096D01*
X54330952Y96094239D02*
X54283333Y96189477D01*
X54235714Y96237096D01*
X54140476Y96284715D01*
X54092857Y96284715D01*
X53997619Y96237096D01*
X53950000Y96189477D01*
X53902380Y96094239D01*
X53902380Y95903762D01*
X53950000Y95808524D01*
X53997619Y95760905D01*
X54092857Y95713286D01*
X54140476Y95713286D01*
X54235714Y95760905D01*
X54283333Y95808524D01*
X54330952Y95903762D01*
X54330952Y96094239D01*
X54378571Y96189477D01*
X54426190Y96237096D01*
X54521428Y96284715D01*
X54711904Y96284715D01*
X54807142Y96237096D01*
X54854761Y96189477D01*
X54902380Y96094239D01*
X54902380Y95903762D01*
X54854761Y95808524D01*
X54807142Y95760905D01*
X54711904Y95713286D01*
X54521428Y95713286D01*
X54426190Y95760905D01*
X54378571Y95808524D01*
X54330952Y95903762D01*
X50907142Y100865667D02*
X50954761Y100913286D01*
X51002380Y101056143D01*
X51002380Y101151381D01*
X50954761Y101294239D01*
X50859523Y101389477D01*
X50764285Y101437096D01*
X50573809Y101484715D01*
X50430952Y101484715D01*
X50240476Y101437096D01*
X50145238Y101389477D01*
X50050000Y101294239D01*
X50002380Y101151381D01*
X50002380Y101056143D01*
X50050000Y100913286D01*
X50097619Y100865667D01*
X50002380Y100532334D02*
X50002380Y99865667D01*
X51002380Y100294239D01*
X29007142Y100865667D02*
X29054761Y100913286D01*
X29102380Y101056143D01*
X29102380Y101151381D01*
X29054761Y101294239D01*
X28959523Y101389477D01*
X28864285Y101437096D01*
X28673809Y101484715D01*
X28530952Y101484715D01*
X28340476Y101437096D01*
X28245238Y101389477D01*
X28150000Y101294239D01*
X28102380Y101151381D01*
X28102380Y101056143D01*
X28150000Y100913286D01*
X28197619Y100865667D01*
X29102380Y99913286D02*
X29102380Y100484715D01*
X29102380Y100199000D02*
X28102380Y100199000D01*
X28245238Y100294239D01*
X28340476Y100389477D01*
X28388095Y100484715D01*
X50478571Y96903762D02*
X50526190Y96760905D01*
X50573809Y96713286D01*
X50669047Y96665667D01*
X50811904Y96665667D01*
X50907142Y96713286D01*
X50954761Y96760905D01*
X51002380Y96856143D01*
X51002380Y97237096D01*
X50002380Y97237096D01*
X50002380Y96903762D01*
X50050000Y96808524D01*
X50097619Y96760905D01*
X50192857Y96713286D01*
X50288095Y96713286D01*
X50383333Y96760905D01*
X50430952Y96808524D01*
X50478571Y96903762D01*
X50478571Y97237096D01*
X50002380Y96332334D02*
X50002380Y95665667D01*
X51002380Y96094239D01*
X54807142Y100865667D02*
X54854761Y100913286D01*
X54902380Y101056143D01*
X54902380Y101151381D01*
X54854761Y101294239D01*
X54759523Y101389477D01*
X54664285Y101437096D01*
X54473809Y101484715D01*
X54330952Y101484715D01*
X54140476Y101437096D01*
X54045238Y101389477D01*
X53950000Y101294239D01*
X53902380Y101151381D01*
X53902380Y101056143D01*
X53950000Y100913286D01*
X53997619Y100865667D01*
X54330952Y100294239D02*
X54283333Y100389477D01*
X54235714Y100437096D01*
X54140476Y100484715D01*
X54092857Y100484715D01*
X53997619Y100437096D01*
X53950000Y100389477D01*
X53902380Y100294239D01*
X53902380Y100103762D01*
X53950000Y100008524D01*
X53997619Y99960905D01*
X54092857Y99913286D01*
X54140476Y99913286D01*
X54235714Y99960905D01*
X54283333Y100008524D01*
X54330952Y100103762D01*
X54330952Y100294239D01*
X54378571Y100389477D01*
X54426190Y100437096D01*
X54521428Y100484715D01*
X54711904Y100484715D01*
X54807142Y100437096D01*
X54854761Y100389477D01*
X54902380Y100294239D01*
X54902380Y100103762D01*
X54854761Y100008524D01*
X54807142Y99960905D01*
X54711904Y99913286D01*
X54521428Y99913286D01*
X54426190Y99960905D01*
X54378571Y100008524D01*
X54330952Y100103762D01*
X28816666Y93313286D02*
X28816666Y92837096D01*
X29102380Y93408524D02*
X28102380Y93075191D01*
X29102380Y92741858D01*
X29102380Y91884715D02*
X29102380Y92456143D01*
X29102380Y92170429D02*
X28102380Y92170429D01*
X28245238Y92265667D01*
X28340476Y92360905D01*
X28388095Y92456143D01*
X36478571Y96903762D02*
X36526190Y96760905D01*
X36573809Y96713286D01*
X36669047Y96665667D01*
X36811904Y96665667D01*
X36907142Y96713286D01*
X36954761Y96760905D01*
X37002380Y96856143D01*
X37002380Y97237096D01*
X36002380Y97237096D01*
X36002380Y96903762D01*
X36050000Y96808524D01*
X36097619Y96760905D01*
X36192857Y96713286D01*
X36288095Y96713286D01*
X36383333Y96760905D01*
X36430952Y96808524D01*
X36478571Y96903762D01*
X36478571Y97237096D01*
X36002380Y96332334D02*
X36002380Y95713286D01*
X36383333Y96046620D01*
X36383333Y95903762D01*
X36430952Y95808524D01*
X36478571Y95760905D01*
X36573809Y95713286D01*
X36811904Y95713286D01*
X36907142Y95760905D01*
X36954761Y95808524D01*
X37002380Y95903762D01*
X37002380Y96189477D01*
X36954761Y96284715D01*
X36907142Y96332334D01*
X36716666Y93213286D02*
X36716666Y92737096D01*
X37002380Y93308524D02*
X36002380Y92975191D01*
X37002380Y92641858D01*
X36002380Y92403762D02*
X36002380Y91784715D01*
X36383333Y92118048D01*
X36383333Y91975191D01*
X36430952Y91879953D01*
X36478571Y91832334D01*
X36573809Y91784715D01*
X36811904Y91784715D01*
X36907142Y91832334D01*
X36954761Y91879953D01*
X37002380Y91975191D01*
X37002380Y92260905D01*
X36954761Y92356143D01*
X36907142Y92403762D01*
X36907142Y100865667D02*
X36954761Y100913286D01*
X37002380Y101056143D01*
X37002380Y101151381D01*
X36954761Y101294239D01*
X36859523Y101389477D01*
X36764285Y101437096D01*
X36573809Y101484715D01*
X36430952Y101484715D01*
X36240476Y101437096D01*
X36145238Y101389477D01*
X36050000Y101294239D01*
X36002380Y101151381D01*
X36002380Y101056143D01*
X36050000Y100913286D01*
X36097619Y100865667D01*
X36002380Y100532334D02*
X36002380Y99913286D01*
X36383333Y100246620D01*
X36383333Y100103762D01*
X36430952Y100008524D01*
X36478571Y99960905D01*
X36573809Y99913286D01*
X36811904Y99913286D01*
X36907142Y99960905D01*
X36954761Y100008524D01*
X37002380Y100103762D01*
X37002380Y100389477D01*
X36954761Y100484715D01*
X36907142Y100532334D01*
X32678571Y97003762D02*
X32726190Y96860905D01*
X32773809Y96813286D01*
X32869047Y96765667D01*
X33011904Y96765667D01*
X33107142Y96813286D01*
X33154761Y96860905D01*
X33202380Y96956143D01*
X33202380Y97337096D01*
X32202380Y97337096D01*
X32202380Y97003762D01*
X32250000Y96908524D01*
X32297619Y96860905D01*
X32392857Y96813286D01*
X32488095Y96813286D01*
X32583333Y96860905D01*
X32630952Y96908524D01*
X32678571Y97003762D01*
X32678571Y97337096D01*
X32297619Y96384715D02*
X32250000Y96337096D01*
X32202380Y96241858D01*
X32202380Y96003762D01*
X32250000Y95908524D01*
X32297619Y95860905D01*
X32392857Y95813286D01*
X32488095Y95813286D01*
X32630952Y95860905D01*
X33202380Y96432334D01*
X33202380Y95813286D01*
X54616666Y93213286D02*
X54616666Y92737096D01*
X54902380Y93308524D02*
X53902380Y92975191D01*
X54902380Y92641858D01*
X54330952Y92165667D02*
X54283333Y92260905D01*
X54235714Y92308524D01*
X54140476Y92356143D01*
X54092857Y92356143D01*
X53997619Y92308524D01*
X53950000Y92260905D01*
X53902380Y92165667D01*
X53902380Y91975191D01*
X53950000Y91879953D01*
X53997619Y91832334D01*
X54092857Y91784715D01*
X54140476Y91784715D01*
X54235714Y91832334D01*
X54283333Y91879953D01*
X54330952Y91975191D01*
X54330952Y92165667D01*
X54378571Y92260905D01*
X54426190Y92308524D01*
X54521428Y92356143D01*
X54711904Y92356143D01*
X54807142Y92308524D01*
X54854761Y92260905D01*
X54902380Y92165667D01*
X54902380Y91975191D01*
X54854761Y91879953D01*
X54807142Y91832334D01*
X54711904Y91784715D01*
X54521428Y91784715D01*
X54426190Y91832334D01*
X54378571Y91879953D01*
X54330952Y91975191D01*
X40216666Y93213286D02*
X40216666Y92737096D01*
X40502380Y93308524D02*
X39502380Y92975191D01*
X40502380Y92641858D01*
X39835714Y91879953D02*
X40502380Y91879953D01*
X39454761Y92118048D02*
X40169047Y92356143D01*
X40169047Y91737096D01*
X28578571Y96903762D02*
X28626190Y96760905D01*
X28673809Y96713286D01*
X28769047Y96665667D01*
X28911904Y96665667D01*
X29007142Y96713286D01*
X29054761Y96760905D01*
X29102380Y96856143D01*
X29102380Y97237096D01*
X28102380Y97237096D01*
X28102380Y96903762D01*
X28150000Y96808524D01*
X28197619Y96760905D01*
X28292857Y96713286D01*
X28388095Y96713286D01*
X28483333Y96760905D01*
X28530952Y96808524D01*
X28578571Y96903762D01*
X28578571Y97237096D01*
X29102380Y95713286D02*
X29102380Y96284715D01*
X29102380Y95999000D02*
X28102380Y95999000D01*
X28245238Y96094239D01*
X28340476Y96189477D01*
X28388095Y96284715D01*
X47407142Y100865667D02*
X47454761Y100913286D01*
X47502380Y101056143D01*
X47502380Y101151381D01*
X47454761Y101294239D01*
X47359523Y101389477D01*
X47264285Y101437096D01*
X47073809Y101484715D01*
X46930952Y101484715D01*
X46740476Y101437096D01*
X46645238Y101389477D01*
X46550000Y101294239D01*
X46502380Y101151381D01*
X46502380Y101056143D01*
X46550000Y100913286D01*
X46597619Y100865667D01*
X46502380Y100008524D02*
X46502380Y100199000D01*
X46550000Y100294239D01*
X46597619Y100341858D01*
X46740476Y100437096D01*
X46930952Y100484715D01*
X47311904Y100484715D01*
X47407142Y100437096D01*
X47454761Y100389477D01*
X47502380Y100294239D01*
X47502380Y100103762D01*
X47454761Y100008524D01*
X47407142Y99960905D01*
X47311904Y99913286D01*
X47073809Y99913286D01*
X46978571Y99960905D01*
X46930952Y100008524D01*
X46883333Y100103762D01*
X46883333Y100294239D01*
X46930952Y100389477D01*
X46978571Y100437096D01*
X47073809Y100484715D01*
D13*
G04 #@! TO.C,R12*
X27682142Y80952715D02*
X27932142Y81309858D01*
X28110714Y80952715D02*
X28110714Y81702715D01*
X27825000Y81702715D01*
X27753571Y81667000D01*
X27717857Y81631286D01*
X27682142Y81559858D01*
X27682142Y81452715D01*
X27717857Y81381286D01*
X27753571Y81345572D01*
X27825000Y81309858D01*
X28110714Y81309858D01*
X26967857Y80952715D02*
X27396428Y80952715D01*
X27182142Y80952715D02*
X27182142Y81702715D01*
X27253571Y81595572D01*
X27325000Y81524143D01*
X27396428Y81488429D01*
X26682142Y81631286D02*
X26646428Y81667000D01*
X26575000Y81702715D01*
X26396428Y81702715D01*
X26325000Y81667000D01*
X26289285Y81631286D01*
X26253571Y81559858D01*
X26253571Y81488429D01*
X26289285Y81381286D01*
X26717857Y80952715D01*
X26253571Y80952715D01*
G04 #@! TO.C,R18*
X34982142Y80952715D02*
X35232142Y81309858D01*
X35410714Y80952715D02*
X35410714Y81702715D01*
X35125000Y81702715D01*
X35053571Y81667000D01*
X35017857Y81631286D01*
X34982142Y81559858D01*
X34982142Y81452715D01*
X35017857Y81381286D01*
X35053571Y81345572D01*
X35125000Y81309858D01*
X35410714Y81309858D01*
X34267857Y80952715D02*
X34696428Y80952715D01*
X34482142Y80952715D02*
X34482142Y81702715D01*
X34553571Y81595572D01*
X34625000Y81524143D01*
X34696428Y81488429D01*
X33839285Y81381286D02*
X33910714Y81417000D01*
X33946428Y81452715D01*
X33982142Y81524143D01*
X33982142Y81559858D01*
X33946428Y81631286D01*
X33910714Y81667000D01*
X33839285Y81702715D01*
X33696428Y81702715D01*
X33625000Y81667000D01*
X33589285Y81631286D01*
X33553571Y81559858D01*
X33553571Y81524143D01*
X33589285Y81452715D01*
X33625000Y81417000D01*
X33696428Y81381286D01*
X33839285Y81381286D01*
X33910714Y81345572D01*
X33946428Y81309858D01*
X33982142Y81238429D01*
X33982142Y81095572D01*
X33946428Y81024143D01*
X33910714Y80988429D01*
X33839285Y80952715D01*
X33696428Y80952715D01*
X33625000Y80988429D01*
X33589285Y81024143D01*
X33553571Y81095572D01*
X33553571Y81238429D01*
X33589285Y81309858D01*
X33625000Y81345572D01*
X33696428Y81381286D01*
D11*
G04 #@! TO.C,P4*
X58705238Y4419048D02*
X58705238Y5239048D01*
X58392857Y5239048D01*
X58314761Y5200000D01*
X58275714Y5160953D01*
X58236666Y5082858D01*
X58236666Y4965715D01*
X58275714Y4887620D01*
X58314761Y4848572D01*
X58392857Y4809524D01*
X58705238Y4809524D01*
X57533809Y4965715D02*
X57533809Y4419048D01*
X57729047Y5278096D02*
X57924285Y4692381D01*
X57416666Y4692381D01*
D14*
G04 #@! TO.C,F5*
X32604000Y80304429D02*
X32858000Y80304429D01*
X32858000Y79905286D02*
X32858000Y80667286D01*
X32495142Y80667286D01*
X31842000Y80667286D02*
X32204857Y80667286D01*
X32241142Y80304429D01*
X32204857Y80340715D01*
X32132285Y80377000D01*
X31950857Y80377000D01*
X31878285Y80340715D01*
X31842000Y80304429D01*
X31805714Y80231858D01*
X31805714Y80050429D01*
X31842000Y79977858D01*
X31878285Y79941572D01*
X31950857Y79905286D01*
X32132285Y79905286D01*
X32204857Y79941572D01*
X32241142Y79977858D01*
G04 #@! TO.C,F2*
X52406000Y80404429D02*
X52660000Y80404429D01*
X52660000Y80005286D02*
X52660000Y80767286D01*
X52297142Y80767286D01*
X52043142Y80694715D02*
X52006857Y80731000D01*
X51934285Y80767286D01*
X51752857Y80767286D01*
X51680285Y80731000D01*
X51644000Y80694715D01*
X51607714Y80622143D01*
X51607714Y80549572D01*
X51644000Y80440715D01*
X52079428Y80005286D01*
X51607714Y80005286D01*
D15*
G04 #@! TO.C,J8*
X68302380Y62633334D02*
X69016666Y62633334D01*
X69159523Y62680953D01*
X69254761Y62776191D01*
X69302380Y62919048D01*
X69302380Y63014286D01*
X68730952Y62014286D02*
X68683333Y62109524D01*
X68635714Y62157143D01*
X68540476Y62204762D01*
X68492857Y62204762D01*
X68397619Y62157143D01*
X68350000Y62109524D01*
X68302380Y62014286D01*
X68302380Y61823810D01*
X68350000Y61728572D01*
X68397619Y61680953D01*
X68492857Y61633334D01*
X68540476Y61633334D01*
X68635714Y61680953D01*
X68683333Y61728572D01*
X68730952Y61823810D01*
X68730952Y62014286D01*
X68778571Y62109524D01*
X68826190Y62157143D01*
X68921428Y62204762D01*
X69111904Y62204762D01*
X69207142Y62157143D01*
X69254761Y62109524D01*
X69302380Y62014286D01*
X69302380Y61823810D01*
X69254761Y61728572D01*
X69207142Y61680953D01*
X69111904Y61633334D01*
X68921428Y61633334D01*
X68826190Y61680953D01*
X68778571Y61728572D01*
X68730952Y61823810D01*
G04 #@! TO.C,J7*
X62702380Y62633334D02*
X63416666Y62633334D01*
X63559523Y62680953D01*
X63654761Y62776191D01*
X63702380Y62919048D01*
X63702380Y63014286D01*
X62702380Y62252381D02*
X62702380Y61585715D01*
X63702380Y62014286D01*
D12*
G04 #@! TO.C,M1*
X12574999Y71825002D02*
X12574999Y56425002D01*
X14474999Y71825002D02*
X24875001Y71825002D01*
X33174997Y70325002D02*
X33174999Y55025003D01*
X17575001Y55025005D02*
X18675004Y55025005D01*
X12574999Y71825002D02*
X12874999Y71825002D01*
X26574999Y71825002D02*
X29775002Y71825002D01*
X26475001Y55025005D02*
X31275001Y55025005D01*
X14024999Y55025005D02*
X15574999Y55025000D01*
X32875001Y55025003D02*
X33174999Y55025003D01*
X20274999Y55025005D02*
X22974999Y55025005D01*
D16*
G04 #@! TO.C,R8*
X50636417Y85309579D02*
X50636417Y86325579D01*
X50636417Y83277579D02*
X50636417Y84293579D01*
X49036417Y84293579D02*
X49036417Y83277579D01*
X49036417Y86325579D02*
X49036417Y85309579D01*
D17*
X49036417Y83226579D02*
G75*
G03*
X50638055Y83222579I800000J-330000D01*
G01*
X50639911Y86385181D02*
G75*
G03*
X49036417Y86376579I-803494J321398D01*
G01*
D16*
G04 #@! TO.C,R9*
X47082571Y86347049D02*
X47082571Y85331049D01*
X48682571Y85331049D02*
X48682571Y86347049D01*
X48682571Y83299049D02*
X48682571Y84315049D01*
X47082571Y84315049D02*
X47082571Y83299049D01*
D17*
X47082571Y83248049D02*
G75*
G03*
X48684209Y83244049I800000J-330000D01*
G01*
X48686065Y86406651D02*
G75*
G03*
X47082571Y86398049I-803494J321398D01*
G01*
G04 #@! TO.C,F4*
X35700000Y81900000D02*
X35700000Y86750000D01*
X37700000Y81900000D02*
X37700000Y86750000D01*
X37700000Y86750000D02*
G75*
G03*
X35700000Y86750000I-1000000J0D01*
G01*
X35700000Y81850000D02*
G75*
G03*
X37700000Y81850000I1000000J0D01*
G01*
G04 #@! TO.C,P2*
X62982373Y74430000D02*
X63288000Y74430000D01*
X60933627Y71770000D02*
X60628000Y71770000D01*
X60922462Y74430000D02*
X60628000Y74430000D01*
X62993538Y71770000D02*
X63288000Y71770000D01*
X60628000Y71770000D02*
X60628000Y74430000D01*
X63288000Y74430000D02*
X63288000Y71770000D01*
D16*
G04 #@! TO.C,R11*
X23700000Y84292000D02*
X23700000Y83276000D01*
X25300000Y85308000D02*
X25300000Y86324000D01*
X23700000Y86324000D02*
X23700000Y85308000D01*
X25300000Y83276000D02*
X25300000Y84292000D01*
D17*
X23700000Y83225000D02*
G75*
G03*
X25301638Y83221000I800000J-330000D01*
G01*
X25303494Y86383602D02*
G75*
G03*
X23700000Y86375000I-803494J321398D01*
G01*
D16*
G04 #@! TO.C,R6*
X71892000Y104200000D02*
X70876000Y104200000D01*
X72908000Y102600000D02*
X73924000Y102600000D01*
X70876000Y102600000D02*
X71892000Y102600000D01*
X73924000Y104200000D02*
X72908000Y104200000D01*
D17*
X70816398Y104203494D02*
G75*
G03*
X70825000Y102600000I-321398J-803494D01*
G01*
X73975000Y102600000D02*
G75*
G03*
X73979000Y104201638I330000J800000D01*
G01*
D16*
G04 #@! TO.C,R17*
X38100000Y84292000D02*
X38100000Y83276000D01*
X39700000Y85308000D02*
X39700000Y86324000D01*
X39700000Y83276000D02*
X39700000Y84292000D01*
X38100000Y86324000D02*
X38100000Y85308000D01*
D17*
X39703494Y86383602D02*
G75*
G03*
X38100000Y86375000I-803494J321398D01*
G01*
X38100000Y83225000D02*
G75*
G03*
X39701638Y83221000I800000J-330000D01*
G01*
D12*
G04 #@! TO.C,M8*
X62308705Y551663D02*
X73152499Y551663D01*
X62252503Y601663D02*
X62308705Y551663D01*
X61977499Y1701668D02*
X62252503Y1426662D01*
X61977499Y7399490D02*
X73152499Y7438337D01*
X61977499Y1701668D02*
X61977499Y7399490D01*
X62252503Y601663D02*
X62252503Y1426662D01*
X73152499Y545460D02*
X73152499Y7438337D01*
D16*
G04 #@! TO.C,R16*
X44600000Y86324000D02*
X44600000Y85308000D01*
X46200000Y83276000D02*
X46200000Y84292000D01*
X44600000Y84292000D02*
X44600000Y83276000D01*
X46200000Y85308000D02*
X46200000Y86324000D01*
D17*
X46203494Y86383602D02*
G75*
G03*
X44600000Y86375000I-803494J321398D01*
G01*
X44600000Y83225000D02*
G75*
G03*
X46201638Y83221000I800000J-330000D01*
G01*
G04 #@! TO.C,P3*
X61424373Y3230000D02*
X61730000Y3230000D01*
X59364462Y3230000D02*
X59070000Y3230000D01*
X61435538Y570000D02*
X61730000Y570000D01*
X59375627Y570000D02*
X59070000Y570000D01*
X61730000Y3230000D02*
X61730000Y570000D01*
X59070000Y570000D02*
X59070000Y3230000D01*
D12*
G04 #@! TO.C,M3*
X50800000Y57450000D02*
X34050000Y57450000D01*
X34050000Y57450000D02*
X34050000Y75500000D01*
X34050000Y75500000D02*
X50800000Y75500000D01*
X50800000Y75500000D02*
X50800000Y57450000D01*
D16*
G04 #@! TO.C,R10*
X44100000Y83276000D02*
X44100000Y84292000D01*
X42500000Y86324000D02*
X42500000Y85308000D01*
X42500000Y84292000D02*
X42500000Y83276000D01*
X44100000Y85308000D02*
X44100000Y86324000D01*
D17*
X42500000Y83225000D02*
G75*
G03*
X44101638Y83221000I800000J-330000D01*
G01*
X44103494Y86383602D02*
G75*
G03*
X42500000Y86375000I-803494J321398D01*
G01*
D16*
G04 #@! TO.C,R19*
X29200000Y84292000D02*
X29200000Y83276000D01*
X30800000Y83276000D02*
X30800000Y84292000D01*
X30800000Y85308000D02*
X30800000Y86324000D01*
X29200000Y86324000D02*
X29200000Y85308000D01*
D17*
X30803494Y86383602D02*
G75*
G03*
X29200000Y86375000I-803494J321398D01*
G01*
X29200000Y83225000D02*
G75*
G03*
X30801638Y83221000I800000J-330000D01*
G01*
G04 #@! TO.C,F1*
X53846000Y81850000D02*
X53846000Y86700000D01*
X55846000Y81850000D02*
X55846000Y86700000D01*
X53846000Y81800000D02*
G75*
G03*
X55846000Y81800000I1000000J0D01*
G01*
X55846000Y86700000D02*
G75*
G03*
X53846000Y86700000I-1000000J0D01*
G01*
D16*
G04 #@! TO.C,R14*
X70876000Y98100000D02*
X71892000Y98100000D01*
X71892000Y99700000D02*
X70876000Y99700000D01*
X73924000Y99700000D02*
X72908000Y99700000D01*
X72908000Y98100000D02*
X73924000Y98100000D01*
D17*
X73983602Y98096506D02*
G75*
G03*
X73975000Y99700000I321398J803494D01*
G01*
X70825000Y99700000D02*
G75*
G03*
X70821000Y98098362I-330000J-800000D01*
G01*
G04 #@! TO.C,F3*
X42100000Y81900000D02*
X42100000Y86750000D01*
X40100000Y81900000D02*
X40100000Y86750000D01*
X42100000Y86750000D02*
G75*
G03*
X40100000Y86750000I-1000000J0D01*
G01*
X40100000Y81850000D02*
G75*
G03*
X42100000Y81850000I1000000J0D01*
G01*
D12*
G04 #@! TO.C,M4*
X39574999Y15075002D02*
X80375001Y15075002D01*
X38274999Y15075002D02*
X38275001Y54975001D01*
X80375001Y15075002D02*
X80375001Y54975001D01*
X38275001Y54975001D02*
X80375001Y54975001D01*
X38274999Y15075002D02*
X39574999Y15075002D01*
D16*
G04 #@! TO.C,R15*
X57932000Y85308000D02*
X57932000Y86324000D01*
X56332000Y84292000D02*
X56332000Y83276000D01*
X56332000Y86324000D02*
X56332000Y85308000D01*
X57932000Y83276000D02*
X57932000Y84292000D01*
D17*
X57935494Y86383602D02*
G75*
G03*
X56332000Y86375000I-803494J321398D01*
G01*
X56332000Y83225000D02*
G75*
G03*
X57933638Y83221000I800000J-330000D01*
G01*
D16*
G04 #@! TO.C,R7*
X59964000Y85308000D02*
X59964000Y86324000D01*
X58364000Y84292000D02*
X58364000Y83276000D01*
X59964000Y83276000D02*
X59964000Y84292000D01*
X58364000Y86324000D02*
X58364000Y85308000D01*
D17*
X58364000Y83225000D02*
G75*
G03*
X59965638Y83221000I800000J-330000D01*
G01*
X59967494Y86383602D02*
G75*
G03*
X58364000Y86375000I-803494J321398D01*
G01*
D16*
G04 #@! TO.C,R13*
X73924000Y101800000D02*
X72908000Y101800000D01*
X71892000Y101800000D02*
X70876000Y101800000D01*
X70876000Y100200000D02*
X71892000Y100200000D01*
X72908000Y100200000D02*
X73924000Y100200000D01*
D17*
X70816398Y101803494D02*
G75*
G03*
X70825000Y100200000I-321398J-803494D01*
G01*
X73975000Y100200000D02*
G75*
G03*
X73979000Y101801638I330000J800000D01*
G01*
D16*
G04 #@! TO.C,R20*
X60396000Y84340000D02*
X60396000Y83324000D01*
X60396000Y86372000D02*
X60396000Y85356000D01*
X61996000Y85356000D02*
X61996000Y86372000D01*
X61996000Y83324000D02*
X61996000Y84340000D01*
D17*
X61999494Y86431602D02*
G75*
G03*
X60396000Y86423000I-803494J321398D01*
G01*
X60396000Y83273000D02*
G75*
G03*
X61997638Y83269000I800000J-330000D01*
G01*
D16*
G04 #@! TO.C,R12*
X26400000Y84292000D02*
X26400000Y83276000D01*
X26400000Y86324000D02*
X26400000Y85308000D01*
X28000000Y85308000D02*
X28000000Y86324000D01*
X28000000Y83276000D02*
X28000000Y84292000D01*
D17*
X26400000Y83225000D02*
G75*
G03*
X28001638Y83221000I800000J-330000D01*
G01*
X28003494Y86383602D02*
G75*
G03*
X26400000Y86375000I-803494J321398D01*
G01*
D16*
G04 #@! TO.C,R18*
X33700000Y86324000D02*
X33700000Y85308000D01*
X33700000Y84292000D02*
X33700000Y83276000D01*
X35300000Y85308000D02*
X35300000Y86324000D01*
X35300000Y83276000D02*
X35300000Y84292000D01*
D17*
X33700000Y83225000D02*
G75*
G03*
X35301638Y83221000I800000J-330000D01*
G01*
X35303494Y86383602D02*
G75*
G03*
X33700000Y86375000I-803494J321398D01*
G01*
G04 #@! TO.C,P4*
X59070000Y3470000D02*
X59070000Y6130000D01*
X59375627Y3470000D02*
X59070000Y3470000D01*
X59364462Y6130000D02*
X59070000Y6130000D01*
X61730000Y6130000D02*
X61730000Y3470000D01*
X61435538Y3470000D02*
X61730000Y3470000D01*
X61424373Y6130000D02*
X61730000Y6130000D01*
G04 #@! TO.C,F5*
X33300000Y81800000D02*
X33300000Y86650000D01*
X31300000Y81800000D02*
X31300000Y86650000D01*
X31300000Y81750000D02*
G75*
G03*
X33300000Y81750000I1000000J0D01*
G01*
X33300000Y86650000D02*
G75*
G03*
X31300000Y86650000I-1000000J0D01*
G01*
G04 #@! TO.C,F2*
X53052000Y81900000D02*
X53052000Y86750000D01*
X51052000Y81900000D02*
X51052000Y86750000D01*
X51052000Y81850000D02*
G75*
G03*
X53052000Y81850000I1000000J0D01*
G01*
X53052000Y86750000D02*
G75*
G03*
X51052000Y86750000I-1000000J0D01*
G01*
G04 #@! TO.C,G2*
G36*
X75379620Y2733040D02*
G01*
X75303420Y2794000D01*
X75234840Y2943860D01*
X75166260Y3205480D01*
X75087520Y3606800D01*
X75049420Y3827780D01*
X74980840Y4196080D01*
X74927500Y4495800D01*
X74891940Y4678680D01*
X74884320Y4716780D01*
X74886860Y4869180D01*
X74978300Y4912360D01*
X75049420Y4930140D01*
X75064660Y5039360D01*
X75001160Y5105400D01*
X74823360Y5151120D01*
X74510940Y5163820D01*
X75402480Y5163820D01*
X75438040Y4909820D01*
X75440580Y4907280D01*
X75499000Y4732020D01*
X75590440Y4655820D01*
X75646320Y4673600D01*
X75656480Y4785360D01*
X75648860Y4810760D01*
X75676800Y4871720D01*
X75808880Y4902200D01*
X76078120Y4909820D01*
X76271160Y4904740D01*
X76489600Y4879340D01*
X76591200Y4843780D01*
X76608980Y4787900D01*
X76649620Y4597400D01*
X76690260Y4335780D01*
X76748680Y3893820D01*
X76459120Y3893820D01*
X76441340Y3896360D01*
X76217820Y3926840D01*
X76067960Y3995420D01*
X75971440Y4064000D01*
X75920640Y4003040D01*
X75940960Y3789680D01*
X75984140Y3672840D01*
X76083200Y3568700D01*
X76177180Y3550920D01*
X76217820Y3639820D01*
X76243220Y3683000D01*
X76375300Y3721100D01*
X76565800Y3721100D01*
X76741060Y3680460D01*
X76837580Y3609340D01*
X76852820Y3561080D01*
X76896000Y3362960D01*
X76941720Y3101340D01*
X76946800Y3068320D01*
X76969660Y2842260D01*
X76944260Y2735580D01*
X76862980Y2710180D01*
X76796940Y2697480D01*
X76725820Y2623820D01*
X76781700Y2585720D01*
X76964580Y2552700D01*
X77233820Y2540000D01*
X77464960Y2550160D01*
X77665620Y2580640D01*
X77741820Y2623820D01*
X77729120Y2664460D01*
X77688480Y2682240D01*
X77614820Y2710180D01*
X77558940Y2712720D01*
X77487820Y2740660D01*
X77487820Y2743200D01*
X77470040Y2847340D01*
X77424320Y3081020D01*
X77358280Y3413760D01*
X77277000Y3810000D01*
X77185560Y4257040D01*
X77124600Y4564380D01*
X77089040Y4759960D01*
X77081420Y4864100D01*
X77096660Y4907280D01*
X77134760Y4914900D01*
X77193180Y4909820D01*
X77251600Y4925060D01*
X77320180Y5036820D01*
X77304940Y5082540D01*
X77231280Y5123180D01*
X77066180Y5148580D01*
X76784240Y5161280D01*
X76360060Y5163820D01*
X77688480Y5163820D01*
X77724040Y4909820D01*
X77726580Y4907280D01*
X77785000Y4732020D01*
X77876440Y4655820D01*
X77932320Y4673600D01*
X77942480Y4782820D01*
X77934860Y4818380D01*
X77970420Y4876800D01*
X78115200Y4904740D01*
X78397140Y4909820D01*
X78900060Y4912360D01*
X78983880Y4445000D01*
X79067700Y3980180D01*
X78681620Y3980180D01*
X78496200Y4010660D01*
X78420000Y4064000D01*
X78409840Y4099560D01*
X78303160Y4147820D01*
X78280300Y4147820D01*
X78224420Y4074160D01*
X78242200Y3881120D01*
X78242200Y3878580D01*
X78305700Y3705860D01*
X78394600Y3586480D01*
X78470800Y3550920D01*
X78503820Y3634740D01*
X78511440Y3652520D01*
X78628280Y3705860D01*
X78836560Y3726180D01*
X79169300Y3726180D01*
X79227720Y3256280D01*
X79248040Y3060700D01*
X79255660Y2842260D01*
X79240420Y2740660D01*
X79212480Y2722880D01*
X79055000Y2710180D01*
X78828940Y2738120D01*
X78595260Y2791460D01*
X78409840Y2860040D01*
X78336180Y2928620D01*
X78320940Y2984500D01*
X78209180Y3048000D01*
X78120280Y2997200D01*
X78082180Y2794000D01*
X78082180Y2540000D01*
X79103260Y2540000D01*
X79428380Y2542540D01*
X79799220Y2557780D01*
X80015120Y2585720D01*
X80071000Y2623820D01*
X80048140Y2651760D01*
X79908440Y2710180D01*
X79883040Y2722880D01*
X79806840Y2870200D01*
X79715400Y3185160D01*
X79613800Y3662680D01*
X79545220Y4005580D01*
X79474100Y4356100D01*
X79415680Y4622800D01*
X79382660Y4762500D01*
X79377580Y4853940D01*
X79474100Y4909820D01*
X79537600Y4927600D01*
X79606180Y5036820D01*
X79590940Y5082540D01*
X79517280Y5123180D01*
X79352180Y5148580D01*
X79070240Y5161280D01*
X78646060Y5163820D01*
X77688480Y5163820D01*
X76360060Y5163820D01*
X75402480Y5163820D01*
X74510940Y5163820D01*
X74002940Y5163820D01*
X74193440Y5481320D01*
X74262020Y5593080D01*
X74670960Y6098540D01*
X75173880Y6545580D01*
X75709820Y6883400D01*
X75796180Y6926580D01*
X76032400Y7033260D01*
X76240680Y7099300D01*
X76469280Y7134860D01*
X76771540Y7150100D01*
X77190640Y7152640D01*
X77259220Y7152640D01*
X77665620Y7147560D01*
X77955180Y7127240D01*
X78181240Y7086600D01*
X78386980Y7012940D01*
X78625740Y6903720D01*
X78948320Y6715760D01*
X79466480Y6304280D01*
X79918600Y5806440D01*
X80251340Y5278120D01*
X80266580Y5252720D01*
X80370720Y5021580D01*
X80436760Y4813300D01*
X80474860Y4582160D01*
X80490100Y4277360D01*
X80495180Y3853180D01*
X80495180Y3799840D01*
X80490100Y3390900D01*
X80472320Y3101340D01*
X80434220Y2880360D01*
X80365640Y2682240D01*
X80258960Y2463800D01*
X79969400Y1978660D01*
X79471560Y1391920D01*
X78884820Y947420D01*
X78206640Y645160D01*
X78077100Y609600D01*
X77617360Y541020D01*
X77023000Y535940D01*
X76461660Y584200D01*
X75874920Y739140D01*
X75349140Y1016000D01*
X74836060Y1432560D01*
X74683660Y1590040D01*
X74254400Y2166620D01*
X73954680Y2819400D01*
X73799740Y3510280D01*
X73797200Y4206240D01*
X73814980Y4343400D01*
X73875940Y4660900D01*
X73949600Y4902200D01*
X74023260Y5034280D01*
X74086760Y5026660D01*
X74117240Y4991100D01*
X74264560Y4897120D01*
X74295040Y4874260D01*
X74376320Y4704080D01*
X74472840Y4373880D01*
X74576980Y3891280D01*
X74627780Y3637280D01*
X74703980Y3248660D01*
X74747160Y2987040D01*
X74762400Y2827020D01*
X74752240Y2745740D01*
X74714140Y2715260D01*
X74653180Y2710180D01*
X74594760Y2700020D01*
X74526180Y2623820D01*
X74579520Y2585720D01*
X74762400Y2552700D01*
X75034180Y2540000D01*
X75130700Y2542540D01*
X75387240Y2565400D01*
X75526940Y2611120D01*
X75534560Y2669540D01*
X75402480Y2725420D01*
X75389780Y2730500D01*
X75379620Y2733040D01*
G37*
D18*
X75379620Y2733040D02*
X75303420Y2794000D01*
X75234840Y2943860D01*
X75166260Y3205480D01*
X75087520Y3606800D01*
X75049420Y3827780D01*
X74980840Y4196080D01*
X74927500Y4495800D01*
X74891940Y4678680D01*
X74884320Y4716780D01*
X74886860Y4869180D01*
X74978300Y4912360D01*
X75049420Y4930140D01*
X75064660Y5039360D01*
X75001160Y5105400D01*
X74823360Y5151120D01*
X74510940Y5163820D01*
X75402480Y5163820D01*
X75438040Y4909820D01*
X75440580Y4907280D01*
X75499000Y4732020D01*
X75590440Y4655820D01*
X75646320Y4673600D01*
X75656480Y4785360D01*
X75648860Y4810760D01*
X75676800Y4871720D01*
X75808880Y4902200D01*
X76078120Y4909820D01*
X76271160Y4904740D01*
X76489600Y4879340D01*
X76591200Y4843780D01*
X76608980Y4787900D01*
X76649620Y4597400D01*
X76690260Y4335780D01*
X76748680Y3893820D01*
X76459120Y3893820D01*
X76441340Y3896360D01*
X76217820Y3926840D01*
X76067960Y3995420D01*
X75971440Y4064000D01*
X75920640Y4003040D01*
X75940960Y3789680D01*
X75984140Y3672840D01*
X76083200Y3568700D01*
X76177180Y3550920D01*
X76217820Y3639820D01*
X76243220Y3683000D01*
X76375300Y3721100D01*
X76565800Y3721100D01*
X76741060Y3680460D01*
X76837580Y3609340D01*
X76852820Y3561080D01*
X76896000Y3362960D01*
X76941720Y3101340D01*
X76946800Y3068320D01*
X76969660Y2842260D01*
X76944260Y2735580D01*
X76862980Y2710180D01*
X76796940Y2697480D01*
X76725820Y2623820D01*
X76781700Y2585720D01*
X76964580Y2552700D01*
X77233820Y2540000D01*
X77464960Y2550160D01*
X77665620Y2580640D01*
X77741820Y2623820D01*
X77729120Y2664460D01*
X77688480Y2682240D01*
X77614820Y2710180D01*
X77558940Y2712720D01*
X77487820Y2740660D01*
X77487820Y2743200D01*
X77470040Y2847340D01*
X77424320Y3081020D01*
X77358280Y3413760D01*
X77277000Y3810000D01*
X77185560Y4257040D01*
X77124600Y4564380D01*
X77089040Y4759960D01*
X77081420Y4864100D01*
X77096660Y4907280D01*
X77134760Y4914900D01*
X77193180Y4909820D01*
X77251600Y4925060D01*
X77320180Y5036820D01*
X77304940Y5082540D01*
X77231280Y5123180D01*
X77066180Y5148580D01*
X76784240Y5161280D01*
X76360060Y5163820D01*
X77688480Y5163820D01*
X77724040Y4909820D01*
X77726580Y4907280D01*
X77785000Y4732020D01*
X77876440Y4655820D01*
X77932320Y4673600D01*
X77942480Y4782820D01*
X77934860Y4818380D01*
X77970420Y4876800D01*
X78115200Y4904740D01*
X78397140Y4909820D01*
X78900060Y4912360D01*
X78983880Y4445000D01*
X79067700Y3980180D01*
X78681620Y3980180D01*
X78496200Y4010660D01*
X78420000Y4064000D01*
X78409840Y4099560D01*
X78303160Y4147820D01*
X78280300Y4147820D01*
X78224420Y4074160D01*
X78242200Y3881120D01*
X78242200Y3878580D01*
X78305700Y3705860D01*
X78394600Y3586480D01*
X78470800Y3550920D01*
X78503820Y3634740D01*
X78511440Y3652520D01*
X78628280Y3705860D01*
X78836560Y3726180D01*
X79169300Y3726180D01*
X79227720Y3256280D01*
X79248040Y3060700D01*
X79255660Y2842260D01*
X79240420Y2740660D01*
X79212480Y2722880D01*
X79055000Y2710180D01*
X78828940Y2738120D01*
X78595260Y2791460D01*
X78409840Y2860040D01*
X78336180Y2928620D01*
X78320940Y2984500D01*
X78209180Y3048000D01*
X78120280Y2997200D01*
X78082180Y2794000D01*
X78082180Y2540000D01*
X79103260Y2540000D01*
X79428380Y2542540D01*
X79799220Y2557780D01*
X80015120Y2585720D01*
X80071000Y2623820D01*
X80048140Y2651760D01*
X79908440Y2710180D01*
X79883040Y2722880D01*
X79806840Y2870200D01*
X79715400Y3185160D01*
X79613800Y3662680D01*
X79545220Y4005580D01*
X79474100Y4356100D01*
X79415680Y4622800D01*
X79382660Y4762500D01*
X79377580Y4853940D01*
X79474100Y4909820D01*
X79537600Y4927600D01*
X79606180Y5036820D01*
X79590940Y5082540D01*
X79517280Y5123180D01*
X79352180Y5148580D01*
X79070240Y5161280D01*
X78646060Y5163820D01*
X77688480Y5163820D01*
X76360060Y5163820D01*
X75402480Y5163820D01*
X74510940Y5163820D01*
X74002940Y5163820D01*
X74193440Y5481320D01*
X74262020Y5593080D01*
X74670960Y6098540D01*
X75173880Y6545580D01*
X75709820Y6883400D01*
X75796180Y6926580D01*
X76032400Y7033260D01*
X76240680Y7099300D01*
X76469280Y7134860D01*
X76771540Y7150100D01*
X77190640Y7152640D01*
X77259220Y7152640D01*
X77665620Y7147560D01*
X77955180Y7127240D01*
X78181240Y7086600D01*
X78386980Y7012940D01*
X78625740Y6903720D01*
X78948320Y6715760D01*
X79466480Y6304280D01*
X79918600Y5806440D01*
X80251340Y5278120D01*
X80266580Y5252720D01*
X80370720Y5021580D01*
X80436760Y4813300D01*
X80474860Y4582160D01*
X80490100Y4277360D01*
X80495180Y3853180D01*
X80495180Y3799840D01*
X80490100Y3390900D01*
X80472320Y3101340D01*
X80434220Y2880360D01*
X80365640Y2682240D01*
X80258960Y2463800D01*
X79969400Y1978660D01*
X79471560Y1391920D01*
X78884820Y947420D01*
X78206640Y645160D01*
X78077100Y609600D01*
X77617360Y541020D01*
X77023000Y535940D01*
X76461660Y584200D01*
X75874920Y739140D01*
X75349140Y1016000D01*
X74836060Y1432560D01*
X74683660Y1590040D01*
X74254400Y2166620D01*
X73954680Y2819400D01*
X73799740Y3510280D01*
X73797200Y4206240D01*
X73814980Y4343400D01*
X73875940Y4660900D01*
X73949600Y4902200D01*
X74023260Y5034280D01*
X74086760Y5026660D01*
X74117240Y4991100D01*
X74264560Y4897120D01*
X74295040Y4874260D01*
X74376320Y4704080D01*
X74472840Y4373880D01*
X74576980Y3891280D01*
X74627780Y3637280D01*
X74703980Y3248660D01*
X74747160Y2987040D01*
X74762400Y2827020D01*
X74752240Y2745740D01*
X74714140Y2715260D01*
X74653180Y2710180D01*
X74594760Y2700020D01*
X74526180Y2623820D01*
X74579520Y2585720D01*
X74762400Y2552700D01*
X75034180Y2540000D01*
X75130700Y2542540D01*
X75387240Y2565400D01*
X75526940Y2611120D01*
X75534560Y2669540D01*
X75402480Y2725420D01*
X75389780Y2730500D01*
X75379620Y2733040D01*
D17*
G04 #@! TO.C,J8*
X67930000Y60970000D02*
X65270000Y60970000D01*
X65270000Y61264462D02*
X65270000Y60970000D01*
X67930000Y61275627D02*
X67930000Y60970000D01*
X67930000Y63335538D02*
X67930000Y63630000D01*
X65270000Y63630000D02*
X67930000Y63630000D01*
X65270000Y63324373D02*
X65270000Y63630000D01*
G04 #@! TO.C,G\u002A\u002A\u002A*
G36*
X17392790Y16678164D02*
G01*
X16892462Y16678164D01*
X16892462Y17178492D01*
X17392790Y17178492D01*
X17392790Y16678164D01*
G37*
G36*
X4884583Y8172583D02*
G01*
X4884583Y9673568D01*
X5885239Y9673568D01*
X6385568Y9673568D01*
X6385568Y9173239D01*
X7886552Y9173239D01*
X7886552Y9673568D01*
X6885896Y9673568D01*
X6885896Y11174552D01*
X6385568Y11174552D01*
X6385568Y10674224D01*
X5885239Y10674224D01*
X5885239Y9673568D01*
X4884583Y9673568D01*
X4884583Y12175209D01*
X5885239Y12175209D01*
X6385568Y12175209D01*
X6385568Y11674881D01*
X6885896Y11674881D01*
X6885896Y12175209D01*
X7886552Y12175209D01*
X7886552Y11674881D01*
X7386224Y11674881D01*
X7386224Y11174552D01*
X9387537Y11174552D01*
X9387537Y10173896D01*
X7886552Y10173896D01*
X7886552Y10674224D01*
X7386224Y10674224D01*
X7386224Y10173896D01*
X7886552Y10173896D01*
X7886552Y9673568D01*
X8386881Y9673568D01*
X8386881Y9173239D01*
X8887209Y9173239D01*
X8887209Y9673568D01*
X9387537Y9673568D01*
X9387537Y9173239D01*
X11388851Y9173239D01*
X11388851Y9673568D01*
X11889179Y9673568D01*
X11889179Y9173239D01*
X14891149Y9173239D01*
X15391477Y9173239D01*
X20394760Y9173239D01*
X20394760Y12675537D01*
X16892462Y12675537D01*
X16892462Y9173239D01*
X15891805Y9173239D01*
X15891805Y9673568D01*
X15391477Y9673568D01*
X15391477Y9173239D01*
X14891149Y9173239D01*
X14891149Y9673568D01*
X15391477Y9673568D01*
X15391477Y11174552D01*
X16392134Y11174552D01*
X16392134Y13175866D01*
X18893775Y13175866D01*
X19394103Y13175866D01*
X20394760Y13175866D01*
X20394760Y13676194D01*
X19394103Y13676194D01*
X19394103Y13175866D01*
X18893775Y13175866D01*
X18893775Y13676194D01*
X17893118Y13676194D01*
X17893118Y14176522D01*
X17392790Y14176522D01*
X17392790Y14676851D01*
X17893118Y14676851D01*
X18893775Y14676851D01*
X19394103Y14676851D01*
X20394760Y14676851D01*
X20394760Y15177179D01*
X19394103Y15177179D01*
X19394103Y14676851D01*
X18893775Y14676851D01*
X18893775Y15177179D01*
X19394103Y15177179D01*
X19394103Y16177835D01*
X18393447Y16177835D01*
X18393447Y15677507D01*
X17893118Y15677507D01*
X17893118Y14676851D01*
X17392790Y14676851D01*
X16392134Y14676851D01*
X16392134Y15177179D01*
X16892462Y15177179D01*
X17392790Y15177179D01*
X17392790Y15677507D01*
X16892462Y15677507D01*
X16892462Y15177179D01*
X16392134Y15177179D01*
X16392134Y16177835D01*
X17392790Y16177835D01*
X17392790Y16678164D01*
X18393447Y16678164D01*
X18393447Y17178492D01*
X18893775Y17178492D01*
X18893775Y16678164D01*
X19894432Y16678164D01*
X19894432Y16177835D01*
X20394760Y16177835D01*
X20394760Y17678820D01*
X19894432Y17678820D01*
X19894432Y18179149D01*
X20394760Y18179149D01*
X20394760Y18679477D01*
X19894432Y18679477D01*
X19894432Y19179805D01*
X18393447Y19179805D01*
X18393447Y19680134D01*
X16392134Y19680134D01*
X16392134Y20180462D01*
X16892462Y20180462D01*
X20394760Y20180462D01*
X20394760Y23682760D01*
X16892462Y23682760D01*
X16892462Y20180462D01*
X16392134Y20180462D01*
X16392134Y21181118D01*
X15891805Y21181118D01*
X15891805Y22181775D01*
X15391477Y22181775D01*
X15391477Y22682103D01*
X16392134Y22682103D01*
X16392134Y23182432D01*
X15891805Y23182432D01*
X15891805Y23682760D01*
X15391477Y23682760D01*
X15391477Y22682103D01*
X14891149Y22682103D01*
X14891149Y23682760D01*
X13390164Y23682760D01*
X13390164Y22682103D01*
X13890492Y22682103D01*
X13890492Y22181775D01*
X12889835Y22181775D01*
X12889835Y23182432D01*
X12389507Y23182432D01*
X12389507Y23682760D01*
X11889179Y23682760D01*
X11889179Y23182432D01*
X12389507Y23182432D01*
X12389507Y22181775D01*
X11889179Y22181775D01*
X11889179Y22682103D01*
X11388851Y22682103D01*
X11388851Y23682760D01*
X10388194Y23682760D01*
X10388194Y23182432D01*
X9887866Y23182432D01*
X9887866Y21681447D01*
X11388851Y21681447D01*
X11388851Y22181775D01*
X11889179Y22181775D01*
X11889179Y21181118D01*
X12389507Y21181118D01*
X12389507Y20680790D01*
X11889179Y20680790D01*
X11889179Y20180462D01*
X11388851Y20180462D01*
X11388851Y21181118D01*
X9887866Y21181118D01*
X9887866Y20180462D01*
X10388194Y20180462D01*
X10388194Y20680790D01*
X10888522Y20680790D01*
X10888522Y19179805D01*
X9387537Y19179805D01*
X9387537Y19680134D01*
X8386881Y19680134D01*
X8386881Y19179805D01*
X6885896Y19179805D01*
X6885896Y19680134D01*
X6385568Y19680134D01*
X6385568Y19179805D01*
X5885239Y19179805D01*
X5885239Y18179149D01*
X6385568Y18179149D01*
X6385568Y18679477D01*
X6885896Y18679477D01*
X6885896Y18179149D01*
X7386224Y18179149D01*
X7386224Y17178492D01*
X6885896Y17178492D01*
X6885896Y17678820D01*
X6385568Y17678820D01*
X6385568Y17178492D01*
X5885239Y17178492D01*
X5885239Y16177835D01*
X6385568Y16177835D01*
X6385568Y15677507D01*
X5885239Y15677507D01*
X5885239Y13676194D01*
X6885896Y13676194D01*
X6885896Y14176522D01*
X7386224Y14176522D01*
X7386224Y13175866D01*
X6885896Y13175866D01*
X6885896Y12675537D01*
X6385568Y12675537D01*
X6385568Y13175866D01*
X5885239Y13175866D01*
X5885239Y12175209D01*
X4884583Y12175209D01*
X4884583Y20180462D01*
X5885239Y20180462D01*
X9387537Y20180462D01*
X9387537Y23682760D01*
X5885239Y23682760D01*
X5885239Y20180462D01*
X4884583Y20180462D01*
X4884583Y24683416D01*
X21395416Y24683416D01*
X21395416Y8172583D01*
X4884583Y8172583D01*
G37*
G36*
X8887209Y13676194D02*
G01*
X8386881Y13676194D01*
X8386881Y14176522D01*
X8887209Y14176522D01*
X8887209Y13676194D01*
G37*
G36*
X12889835Y21181118D02*
G01*
X12389507Y21181118D01*
X12389507Y21681447D01*
X12889835Y21681447D01*
X12889835Y21181118D01*
G37*
G36*
X10388194Y9673568D02*
G01*
X9887866Y9673568D01*
X9887866Y10173896D01*
X10388194Y10173896D01*
X10388194Y9673568D01*
G37*
G36*
X12389507Y16678164D02*
G01*
X11388851Y16678164D01*
X11388851Y17178492D01*
X12389507Y17178492D01*
X12389507Y16678164D01*
G37*
G36*
X11388851Y14676851D02*
G01*
X10888522Y14676851D01*
X10888522Y15177179D01*
X11388851Y15177179D01*
X11388851Y14676851D01*
G37*
G36*
X18893775Y18179149D02*
G01*
X18393447Y18179149D01*
X18393447Y18679477D01*
X18893775Y18679477D01*
X18893775Y18179149D01*
G37*
G36*
X17392790Y13676194D02*
G01*
X16392134Y13676194D01*
X16392134Y14176522D01*
X17392790Y14176522D01*
X17392790Y13676194D01*
G37*
G36*
X17392790Y9673568D02*
G01*
X17392790Y10173896D01*
X17893118Y10173896D01*
X19394103Y10173896D01*
X19394103Y11674881D01*
X17893118Y11674881D01*
X17893118Y10173896D01*
X17392790Y10173896D01*
X17392790Y12175209D01*
X19894432Y12175209D01*
X19894432Y9673568D01*
X17392790Y9673568D01*
G37*
G36*
X6885896Y14176522D02*
G01*
X6385568Y14176522D01*
X6385568Y14676851D01*
X6885896Y14676851D01*
X6885896Y14176522D01*
G37*
G36*
X16392134Y19179805D02*
G01*
X17392790Y19179805D01*
X17392790Y18679477D01*
X15891805Y18679477D01*
X15891805Y19680134D01*
X16392134Y19680134D01*
X16392134Y19179805D01*
G37*
G36*
X14390820Y21681447D02*
G01*
X13890492Y21681447D01*
X13890492Y22181775D01*
X14390820Y22181775D01*
X14390820Y21681447D01*
G37*
G36*
X15891805Y14176522D02*
G01*
X15391477Y14176522D01*
X15391477Y14676851D01*
X15891805Y14676851D01*
X15891805Y14176522D01*
G37*
G36*
X8386881Y11674881D02*
G01*
X8386881Y12175209D01*
X8887209Y12175209D01*
X9387537Y12175209D01*
X9387537Y12675537D01*
X8887209Y12675537D01*
X8887209Y12175209D01*
X8386881Y12175209D01*
X8386881Y13175866D01*
X9887866Y13175866D01*
X9887866Y11674881D01*
X8386881Y11674881D01*
G37*
G36*
X15891805Y19680134D02*
G01*
X15391477Y19680134D01*
X15391477Y21181118D01*
X15891805Y21181118D01*
X15891805Y19680134D01*
G37*
G36*
X12889835Y20180462D02*
G01*
X12389507Y20180462D01*
X12389507Y20680790D01*
X12889835Y20680790D01*
X12889835Y20180462D01*
G37*
G36*
X12889835Y16177835D02*
G01*
X12389507Y16177835D01*
X12389507Y16678164D01*
X12889835Y16678164D01*
X12889835Y16177835D01*
G37*
G36*
X13890492Y14676851D02*
G01*
X12889835Y14676851D01*
X12889835Y15177179D01*
X13890492Y15177179D01*
X13890492Y14676851D01*
G37*
G36*
X14390820Y10674224D02*
G01*
X14390820Y10173896D01*
X14891149Y10173896D01*
X14891149Y9673568D01*
X13890492Y9673568D01*
X13890492Y10173896D01*
X13390164Y10173896D01*
X13390164Y10674224D01*
X14390820Y10674224D01*
G37*
G36*
X11388851Y15677507D02*
G01*
X11889179Y15677507D01*
X11889179Y15177179D01*
X12389507Y15177179D01*
X12389507Y14176522D01*
X11889179Y14176522D01*
X11889179Y13175866D01*
X12389507Y13175866D01*
X12389507Y12675537D01*
X11889179Y12675537D01*
X11889179Y12175209D01*
X12389507Y12175209D01*
X12389507Y11674881D01*
X12889835Y11674881D01*
X12889835Y11174552D01*
X13390164Y11174552D01*
X13390164Y10674224D01*
X12889835Y10674224D01*
X12889835Y10173896D01*
X13390164Y10173896D01*
X13390164Y9673568D01*
X12389507Y9673568D01*
X12389507Y10173896D01*
X11889179Y10173896D01*
X11889179Y10674224D01*
X11388851Y10674224D01*
X11388851Y12175209D01*
X10888522Y12175209D01*
X10888522Y13175866D01*
X10388194Y13175866D01*
X10388194Y13676194D01*
X11388851Y13676194D01*
X11388851Y14676851D01*
X11889179Y14676851D01*
X11889179Y15177179D01*
X11388851Y15177179D01*
X11388851Y15677507D01*
X9887866Y15677507D01*
X9887866Y16177835D01*
X10388194Y16177835D01*
X10388194Y16678164D01*
X9887866Y16678164D01*
X9887866Y18179149D01*
X8386881Y18179149D01*
X8386881Y17678820D01*
X9387537Y17678820D01*
X9387537Y17178492D01*
X7886552Y17178492D01*
X7886552Y16678164D01*
X9887866Y16678164D01*
X9887866Y16177835D01*
X9387537Y16177835D01*
X9387537Y15677507D01*
X8887209Y15677507D01*
X8887209Y16177835D01*
X8386881Y16177835D01*
X8386881Y15677507D01*
X7886552Y15677507D01*
X7886552Y15177179D01*
X8386881Y15177179D01*
X8386881Y14676851D01*
X6885896Y14676851D01*
X6885896Y16177835D01*
X7386224Y16177835D01*
X7386224Y15677507D01*
X7886552Y15677507D01*
X7886552Y16678164D01*
X7386224Y16678164D01*
X7386224Y17178492D01*
X7886552Y17178492D01*
X7886552Y18679477D01*
X8386881Y18679477D01*
X8386881Y19179805D01*
X9387537Y19179805D01*
X9387537Y18679477D01*
X9887866Y18679477D01*
X9887866Y18179149D01*
X10388194Y18179149D01*
X10388194Y18679477D01*
X10888522Y18679477D01*
X10888522Y19179805D01*
X11388851Y19179805D01*
X11388851Y19680134D01*
X12889835Y19680134D01*
X13390164Y19680134D01*
X14390820Y19680134D01*
X14390820Y20680790D01*
X13890492Y20680790D01*
X13890492Y20180462D01*
X13390164Y20180462D01*
X13390164Y19680134D01*
X12889835Y19680134D01*
X12889835Y20180462D01*
X13390164Y20180462D01*
X13390164Y21681447D01*
X13890492Y21681447D01*
X13890492Y21181118D01*
X14891149Y21181118D01*
X14891149Y19179805D01*
X13890492Y19179805D01*
X13890492Y18679477D01*
X13390164Y18679477D01*
X13390164Y18179149D01*
X12889835Y18179149D01*
X12889835Y19179805D01*
X11889179Y19179805D01*
X11889179Y18679477D01*
X10888522Y18679477D01*
X10888522Y17678820D01*
X10388194Y17678820D01*
X10388194Y17178492D01*
X10888522Y17178492D01*
X10888522Y16177835D01*
X11388851Y16177835D01*
X11388851Y15677507D01*
G37*
G36*
X14891149Y12175209D02*
G01*
X14891149Y11674881D01*
X14390820Y11674881D01*
X14390820Y11174552D01*
X14891149Y11174552D01*
X14891149Y10674224D01*
X14390820Y10674224D01*
X14390820Y11174552D01*
X13390164Y11174552D01*
X13390164Y11674881D01*
X12889835Y11674881D01*
X12889835Y12175209D01*
X12389507Y12175209D01*
X12389507Y12675537D01*
X13390164Y12675537D01*
X13390164Y12175209D01*
X13890492Y12175209D01*
X13890492Y12675537D01*
X14390820Y12675537D01*
X14891149Y12675537D01*
X14891149Y13175866D01*
X14390820Y13175866D01*
X14390820Y12675537D01*
X13890492Y12675537D01*
X13890492Y13175866D01*
X14390820Y13175866D01*
X14390820Y13676194D01*
X13890492Y13676194D01*
X13890492Y14676851D01*
X14390820Y14676851D01*
X14390820Y15177179D01*
X13890492Y15177179D01*
X13890492Y16177835D01*
X14390820Y16177835D01*
X14891149Y16177835D01*
X14891149Y16678164D01*
X14390820Y16678164D01*
X14390820Y16177835D01*
X13890492Y16177835D01*
X13890492Y16678164D01*
X12889835Y16678164D01*
X12889835Y17178492D01*
X12389507Y17178492D01*
X12389507Y17678820D01*
X13390164Y17678820D01*
X13390164Y17178492D01*
X15391477Y17178492D01*
X15391477Y17678820D01*
X14390820Y17678820D01*
X14390820Y18179149D01*
X13890492Y18179149D01*
X13890492Y18679477D01*
X14390820Y18679477D01*
X14390820Y18179149D01*
X14891149Y18179149D01*
X14891149Y18679477D01*
X15391477Y18679477D01*
X15391477Y18179149D01*
X15891805Y18179149D01*
X15891805Y17678820D01*
X16392134Y17678820D01*
X16392134Y17178492D01*
X15891805Y17178492D01*
X15891805Y15677507D01*
X14891149Y15677507D01*
X14891149Y14676851D01*
X14390820Y14676851D01*
X14390820Y14176522D01*
X15391477Y14176522D01*
X15391477Y13676194D01*
X15891805Y13676194D01*
X15891805Y12175209D01*
X14891149Y12175209D01*
G37*
G36*
X15391477Y11674881D02*
G01*
X15391477Y11174552D01*
X14891149Y11174552D01*
X14891149Y11674881D01*
X15391477Y11674881D01*
G37*
G36*
X8887209Y15677507D02*
G01*
X8887209Y15177179D01*
X8386881Y15177179D01*
X8386881Y15677507D01*
X8887209Y15677507D01*
G37*
G36*
X19894432Y18179149D02*
G01*
X19394103Y18179149D01*
X19394103Y18679477D01*
X19894432Y18679477D01*
X19894432Y18179149D01*
G37*
G36*
X11388851Y17178492D02*
G01*
X10888522Y17178492D01*
X10888522Y17678820D01*
X11388851Y17678820D01*
X11388851Y17178492D01*
G37*
G36*
X11388851Y10173896D02*
G01*
X10388194Y10173896D01*
X10388194Y10674224D01*
X11388851Y10674224D01*
X11388851Y10173896D01*
G37*
G36*
X11388851Y22181775D02*
G01*
X10888522Y22181775D01*
X10888522Y22682103D01*
X11388851Y22682103D01*
X11388851Y22181775D01*
G37*
G36*
X6885896Y16177835D02*
G01*
X6385568Y16177835D01*
X6385568Y17178492D01*
X6885896Y17178492D01*
X6885896Y16177835D01*
G37*
G36*
X17392790Y20680790D02*
G01*
X17392790Y21181118D01*
X17893118Y21181118D01*
X19394103Y21181118D01*
X19394103Y22682103D01*
X17893118Y22682103D01*
X17893118Y21181118D01*
X17392790Y21181118D01*
X17392790Y23182432D01*
X19894432Y23182432D01*
X19894432Y20680790D01*
X17392790Y20680790D01*
G37*
G36*
X12389507Y17678820D02*
G01*
X11388851Y17678820D01*
X11388851Y18179149D01*
X12389507Y18179149D01*
X12389507Y17678820D01*
G37*
G36*
X12389507Y15677507D02*
G01*
X11889179Y15677507D01*
X11889179Y16177835D01*
X12389507Y16177835D01*
X12389507Y15677507D01*
G37*
G36*
X10888522Y22682103D02*
G01*
X10388194Y22682103D01*
X10388194Y23182432D01*
X10888522Y23182432D01*
X10888522Y22682103D01*
G37*
G36*
X13890492Y17678820D02*
G01*
X13390164Y17678820D01*
X13390164Y18179149D01*
X13890492Y18179149D01*
X13890492Y17678820D01*
G37*
G36*
X6385568Y20680790D02*
G01*
X6385568Y21181118D01*
X6885896Y21181118D01*
X8386881Y21181118D01*
X8386881Y22682103D01*
X6885896Y22682103D01*
X6885896Y21181118D01*
X6385568Y21181118D01*
X6385568Y23182432D01*
X8887209Y23182432D01*
X8887209Y20680790D01*
X6385568Y20680790D01*
G37*
G36*
X14390820Y22682103D02*
G01*
X13890492Y22682103D01*
X13890492Y23182432D01*
X14390820Y23182432D01*
X14390820Y22682103D01*
G37*
G36*
X17893118Y18179149D02*
G01*
X18393447Y18179149D01*
X18393447Y17178492D01*
X17893118Y17178492D01*
X17893118Y17678820D01*
X16892462Y17678820D01*
X16892462Y18179149D01*
X17392790Y18179149D01*
X17392790Y18679477D01*
X17893118Y18679477D01*
X17893118Y18179149D01*
G37*
G36*
X19394103Y17178492D02*
G01*
X18893775Y17178492D01*
X18893775Y18179149D01*
X19394103Y18179149D01*
X19394103Y17178492D01*
G37*
G36*
X10388194Y14176522D02*
G01*
X9887866Y14176522D01*
X9887866Y14676851D01*
X8887209Y14676851D01*
X8887209Y15177179D01*
X10388194Y15177179D01*
X10388194Y14176522D01*
G37*
G36*
X7886552Y12675537D02*
G01*
X7386224Y12675537D01*
X7386224Y13175866D01*
X7886552Y13175866D01*
X7886552Y12675537D01*
G37*
G36*
X13390164Y13676194D02*
G01*
X12889835Y13676194D01*
X12889835Y13175866D01*
X12389507Y13175866D01*
X12389507Y14176522D01*
X13390164Y14176522D01*
X13390164Y13676194D01*
G37*
G36*
X15391477Y21681447D02*
G01*
X14891149Y21681447D01*
X14891149Y22181775D01*
X15391477Y22181775D01*
X15391477Y21681447D01*
G37*
G04 #@! TO.C,J7*
X59670000Y63630000D02*
X62330000Y63630000D01*
X62330000Y60970000D02*
X59670000Y60970000D01*
X59670000Y63324373D02*
X59670000Y63630000D01*
X62330000Y61275627D02*
X62330000Y60970000D01*
X59670000Y61264462D02*
X59670000Y60970000D01*
X62330000Y63335538D02*
X62330000Y63630000D01*
G04 #@! TO.C,D30*
X5940000Y52737500D02*
X5940000Y52087500D01*
X9060000Y52737500D02*
X9060000Y53387500D01*
X9060000Y52737500D02*
X9060000Y52087500D01*
X5940000Y52737500D02*
X5940000Y54412500D01*
G04 #@! TO.C,G3*
G36*
X47889404Y9359818D02*
G01*
X47932052Y9324014D01*
X47932068Y9324000D01*
X47960654Y9296792D01*
X47981034Y9270564D01*
X47996755Y9237962D01*
X48011364Y9191630D01*
X48028408Y9124214D01*
X48031264Y9111993D01*
X48046140Y9037567D01*
X48061271Y8946661D01*
X48075034Y8849657D01*
X48085809Y8756935D01*
X48091206Y8702612D01*
X48097667Y8631691D01*
X48100845Y8579547D01*
X48100577Y8539854D01*
X48096701Y8506287D01*
X48089056Y8472522D01*
X48077478Y8432233D01*
X48072141Y8415427D01*
X48037556Y8334096D01*
X47985180Y8244212D01*
X47913158Y8142862D01*
X47819636Y8027132D01*
X47762523Y7963664D01*
X47704904Y7911541D01*
X47644956Y7872246D01*
X47574036Y7839165D01*
X47547664Y7828636D01*
X47512966Y7815448D01*
X47495998Y7809961D01*
X47492941Y7810635D01*
X47470821Y7822994D01*
X47435242Y7847019D01*
X47393171Y7877684D01*
X47351572Y7909964D01*
X47317410Y7938831D01*
X47290306Y7968020D01*
X47245444Y8037632D01*
X47208331Y8122584D01*
X47183237Y8214112D01*
X47180520Y8228511D01*
X47173643Y8275133D01*
X47173979Y8312988D01*
X47182583Y8354046D01*
X47200507Y8410280D01*
X47211989Y8441679D01*
X47257190Y8537551D01*
X47313272Y8626253D01*
X47375246Y8700584D01*
X47438124Y8753342D01*
X47498154Y8798360D01*
X47569282Y8865987D01*
X47639082Y8945570D01*
X47704051Y9032022D01*
X47760682Y9120255D01*
X47805472Y9205182D01*
X47834916Y9281715D01*
X47845509Y9344766D01*
X47845541Y9348282D01*
X47849651Y9371113D01*
X47863104Y9375238D01*
X47889404Y9359818D01*
G37*
G36*
X36771108Y4642295D02*
G01*
X36907746Y4600656D01*
X37039594Y4532141D01*
X37164538Y4437854D01*
X37280468Y4318898D01*
X37352770Y4233401D01*
X37368698Y4295741D01*
X37379138Y4333454D01*
X37409130Y4411168D01*
X37446896Y4465976D01*
X37496065Y4502206D01*
X37560269Y4524188D01*
X37602249Y4530964D01*
X37691548Y4526764D01*
X37770432Y4497226D01*
X37835804Y4444509D01*
X37884565Y4370768D01*
X37913619Y4278161D01*
X37915001Y4266408D01*
X37915613Y4239948D01*
X37914262Y4201263D01*
X37910754Y4148273D01*
X37904899Y4078900D01*
X37896504Y3991067D01*
X37885377Y3882696D01*
X37871325Y3751709D01*
X37854157Y3596027D01*
X37833681Y3413573D01*
X37823864Y3326948D01*
X37806052Y3172365D01*
X37790500Y3042839D01*
X37776697Y2935794D01*
X37764129Y2848659D01*
X37752285Y2778858D01*
X37740653Y2723820D01*
X37728719Y2680969D01*
X37715973Y2647733D01*
X37701900Y2621539D01*
X37685990Y2599812D01*
X37667729Y2579980D01*
X37615449Y2540246D01*
X37541164Y2512970D01*
X37457977Y2501964D01*
X37376517Y2509527D01*
X37309146Y2536325D01*
X37260636Y2581197D01*
X37252403Y2595554D01*
X37243837Y2623328D01*
X37240041Y2661626D01*
X37241144Y2714053D01*
X37247271Y2784217D01*
X37258550Y2875723D01*
X37275107Y2992177D01*
X37288387Y3086129D01*
X37308732Y3259741D01*
X37319727Y3411006D01*
X37321202Y3543455D01*
X37312986Y3660618D01*
X37294908Y3766026D01*
X37266797Y3863209D01*
X37228481Y3955699D01*
X37207295Y3996236D01*
X37152013Y4079361D01*
X37086688Y4154772D01*
X37015762Y4218734D01*
X36943675Y4267511D01*
X36874868Y4297365D01*
X36813784Y4304561D01*
X36796331Y4300970D01*
X36760636Y4278162D01*
X36729574Y4233168D01*
X36701818Y4163698D01*
X36676036Y4067463D01*
X36670895Y4043483D01*
X36665200Y4010730D01*
X36660595Y3973667D01*
X36656968Y3929200D01*
X36654206Y3874234D01*
X36652197Y3805677D01*
X36650830Y3720435D01*
X36649992Y3615412D01*
X36649572Y3487516D01*
X36649457Y3333653D01*
X36649247Y3175113D01*
X36648564Y3040317D01*
X36647352Y2930510D01*
X36645551Y2843638D01*
X36643105Y2777646D01*
X36639957Y2730479D01*
X36636048Y2700084D01*
X36631323Y2684406D01*
X36599350Y2645096D01*
X36539751Y2606439D01*
X36465746Y2582801D01*
X36383878Y2575319D01*
X36300690Y2585132D01*
X36222725Y2613376D01*
X36204103Y2624592D01*
X36156971Y2665368D01*
X36117590Y2715081D01*
X36095168Y2762938D01*
X36092341Y2789811D01*
X36091296Y2839516D01*
X36092231Y2904050D01*
X36095146Y2976148D01*
X36095276Y2978594D01*
X36099003Y3050374D01*
X36103684Y3142847D01*
X36108922Y3248014D01*
X36114317Y3357875D01*
X36119471Y3464431D01*
X36125051Y3571252D01*
X36135237Y3731062D01*
X36146834Y3877418D01*
X36159523Y4007200D01*
X36172988Y4117286D01*
X36186911Y4204554D01*
X36200975Y4265882D01*
X36223670Y4333438D01*
X36279203Y4449189D01*
X36348267Y4539451D01*
X36430711Y4604091D01*
X36526386Y4642974D01*
X36635141Y4655964D01*
X36771108Y4642295D01*
G37*
G36*
X42086028Y2224841D02*
G01*
X42428842Y2224666D01*
X42768563Y2224403D01*
X43103954Y2224053D01*
X43433778Y2223615D01*
X43756799Y2223089D01*
X44071780Y2222476D01*
X44377485Y2221775D01*
X44672677Y2220987D01*
X44956120Y2220111D01*
X45226576Y2219148D01*
X45482810Y2218097D01*
X45723584Y2216959D01*
X45947663Y2215733D01*
X46153809Y2214419D01*
X46340787Y2213018D01*
X46507358Y2211529D01*
X46652288Y2209953D01*
X46774339Y2208289D01*
X46872274Y2206537D01*
X46944858Y2204698D01*
X46990853Y2202772D01*
X47009023Y2200757D01*
X47046075Y2171502D01*
X47078403Y2116165D01*
X47089903Y2046938D01*
X47088346Y2023688D01*
X47074217Y1985002D01*
X47040498Y1944500D01*
X46991093Y1895095D01*
X36145235Y1895095D01*
X36095830Y1944500D01*
X36075620Y1966380D01*
X36052744Y2004424D01*
X36046425Y2046938D01*
X36053322Y2101267D01*
X36081153Y2160342D01*
X36127305Y2200757D01*
X36127317Y2200764D01*
X36145577Y2202778D01*
X36191659Y2204704D01*
X36264325Y2206543D01*
X36362339Y2208294D01*
X36484464Y2209958D01*
X36629464Y2211534D01*
X36796103Y2213022D01*
X36983143Y2214423D01*
X37189348Y2215737D01*
X37413482Y2216962D01*
X37654307Y2218101D01*
X37910588Y2219151D01*
X38181088Y2220114D01*
X38464569Y2220990D01*
X38759797Y2221778D01*
X39065533Y2222478D01*
X39380542Y2223091D01*
X39703586Y2223616D01*
X40033430Y2224054D01*
X40368836Y2224404D01*
X40708569Y2224667D01*
X41051391Y2224842D01*
X41396066Y2224929D01*
X41741357Y2224929D01*
X42086028Y2224841D01*
G37*
G36*
X47684286Y9734418D02*
G01*
X47700111Y9720061D01*
X47702473Y9717855D01*
X47718824Y9694598D01*
X47727020Y9659898D01*
X47729262Y9605068D01*
X47724293Y9526927D01*
X47694205Y9395367D01*
X47638756Y9269548D01*
X47560136Y9155295D01*
X47559887Y9154998D01*
X47523924Y9118836D01*
X47469463Y9071887D01*
X47402592Y9018713D01*
X47329399Y8963878D01*
X47255972Y8911943D01*
X47188401Y8867472D01*
X47132773Y8835027D01*
X47106216Y8819636D01*
X47051905Y8779141D01*
X47012194Y8737258D01*
X47004142Y8725195D01*
X46971213Y8653565D01*
X46947565Y8562872D01*
X46934715Y8460560D01*
X46934178Y8354077D01*
X46936237Y8323852D01*
X46942819Y8270651D01*
X46954886Y8222290D01*
X46975325Y8168694D01*
X47007021Y8099786D01*
X47026635Y8059911D01*
X47059176Y8001131D01*
X47094087Y7950733D01*
X47137974Y7899667D01*
X47197442Y7838882D01*
X47245063Y7790585D01*
X47284952Y7746056D01*
X47304226Y7717677D01*
X47303901Y7704163D01*
X47293015Y7700052D01*
X47253562Y7699400D01*
X47197780Y7709011D01*
X47132668Y7727914D01*
X47110298Y7737044D01*
X47050396Y7769470D01*
X46980369Y7814976D01*
X46907208Y7868323D01*
X46837903Y7924273D01*
X46779445Y7977588D01*
X46738825Y8023030D01*
X46689327Y8097613D01*
X46621618Y8239942D01*
X46580589Y8392951D01*
X46566791Y8554939D01*
X46573912Y8623473D01*
X46604539Y8723924D01*
X46657606Y8831568D01*
X46731245Y8942773D01*
X46823586Y9053910D01*
X46826607Y9057144D01*
X46851659Y9080416D01*
X46884405Y9104330D01*
X46928650Y9131042D01*
X46988198Y9162713D01*
X47066855Y9201500D01*
X47168425Y9249563D01*
X47240275Y9283238D01*
X47318642Y9320585D01*
X47377548Y9350046D01*
X47421005Y9374076D01*
X47453028Y9395130D01*
X47477630Y9415664D01*
X47498826Y9438132D01*
X47520629Y9464989D01*
X47550508Y9507148D01*
X47591239Y9575234D01*
X47622901Y9639874D01*
X47630643Y9658579D01*
X47650337Y9705558D01*
X47663264Y9731181D01*
X47673292Y9739463D01*
X47684286Y9734418D01*
G37*
G36*
X39716901Y3815359D02*
G01*
X39722668Y3768269D01*
X39731715Y3739792D01*
X39748344Y3721229D01*
X39776855Y3703877D01*
X39778459Y3702994D01*
X39840266Y3656873D01*
X39875952Y3600149D01*
X39887424Y3529820D01*
X39884032Y3485871D01*
X39863623Y3429920D01*
X39825361Y3396225D01*
X39769930Y3385626D01*
X39711999Y3386740D01*
X39702347Y3258882D01*
X39693431Y3171816D01*
X39664131Y3016388D01*
X39619736Y2879814D01*
X39561166Y2763744D01*
X39489343Y2669826D01*
X39405186Y2599712D01*
X39309616Y2555049D01*
X39304773Y2553565D01*
X39262644Y2544003D01*
X39225401Y2545313D01*
X39183334Y2559212D01*
X39126733Y2587420D01*
X39083262Y2613729D01*
X39020839Y2655916D01*
X38944635Y2710225D01*
X38858964Y2773357D01*
X38768141Y2842012D01*
X38676477Y2912892D01*
X38588287Y2982697D01*
X38507884Y3048128D01*
X38439581Y3105887D01*
X38387693Y3152673D01*
X38346943Y3192113D01*
X38266133Y3276332D01*
X38208264Y3347627D01*
X38172301Y3408003D01*
X38157205Y3459466D01*
X38161938Y3504022D01*
X38185465Y3543676D01*
X38207887Y3565376D01*
X38243417Y3582819D01*
X38296044Y3591669D01*
X38313955Y3593075D01*
X38344616Y3592774D01*
X38374060Y3586828D01*
X38405379Y3573090D01*
X38441665Y3549412D01*
X38486009Y3513650D01*
X38541503Y3463654D01*
X38611241Y3397280D01*
X38698313Y3312380D01*
X38768859Y3244301D01*
X38862368Y3158621D01*
X38940188Y3093859D01*
X39003774Y3048918D01*
X39054584Y3022701D01*
X39094073Y3014110D01*
X39110708Y3017352D01*
X39144266Y3043476D01*
X39175346Y3092141D01*
X39202352Y3158950D01*
X39223688Y3239509D01*
X39237759Y3329421D01*
X39242969Y3424289D01*
X39243143Y3437092D01*
X39243919Y3463967D01*
X39243096Y3485784D01*
X39238067Y3504740D01*
X39226226Y3523032D01*
X39204964Y3542857D01*
X39171676Y3566412D01*
X39123754Y3595894D01*
X39058592Y3633499D01*
X38973582Y3681424D01*
X38866117Y3741867D01*
X38765323Y3799728D01*
X38673534Y3855475D01*
X38602765Y3903006D01*
X38550227Y3944554D01*
X38513131Y3982351D01*
X38488688Y4018629D01*
X38474108Y4055622D01*
X38464276Y4104669D01*
X38882752Y4104669D01*
X38883730Y4082278D01*
X38898112Y4070385D01*
X38899383Y4069847D01*
X38922055Y4059545D01*
X38964611Y4039763D01*
X39021460Y4013109D01*
X39087014Y3982194D01*
X39097118Y3977417D01*
X39163678Y3946213D01*
X39208730Y3926253D01*
X39236469Y3916407D01*
X39251089Y3915549D01*
X39256785Y3922551D01*
X39257752Y3936284D01*
X39257737Y3938388D01*
X39252472Y3990542D01*
X39239529Y4058467D01*
X39221553Y4131387D01*
X39201183Y4198523D01*
X39181063Y4249099D01*
X39168638Y4273369D01*
X39149781Y4300645D01*
X39128157Y4311568D01*
X39094651Y4312864D01*
X39062534Y4308070D01*
X39001815Y4280163D01*
X38947676Y4232497D01*
X38907748Y4170866D01*
X38895736Y4143355D01*
X38882752Y4104669D01*
X38464276Y4104669D01*
X38460460Y4123706D01*
X38462034Y4219388D01*
X38490658Y4308913D01*
X38546998Y4394060D01*
X38631723Y4476611D01*
X38744602Y4557973D01*
X38899800Y4637785D01*
X39070167Y4692836D01*
X39255769Y4723154D01*
X39361529Y4732984D01*
X39439565Y4650461D01*
X39492230Y4587524D01*
X39558934Y4479808D01*
X39614037Y4351743D01*
X39658144Y4201523D01*
X39691862Y4027340D01*
X39702762Y3936284D01*
X39715798Y3827390D01*
X39716901Y3815359D01*
G37*
G36*
X43691572Y3732196D02*
G01*
X43756807Y3697589D01*
X43794166Y3675499D01*
X43830025Y3641916D01*
X43848296Y3598644D01*
X43854652Y3536335D01*
X43851466Y3483739D01*
X43830812Y3428867D01*
X43791791Y3395972D01*
X43734969Y3385766D01*
X43675143Y3387020D01*
X43675143Y3318647D01*
X43672983Y3269474D01*
X43661598Y3176202D01*
X43642405Y3074379D01*
X43617631Y2975165D01*
X43589505Y2889723D01*
X43575932Y2856385D01*
X43518028Y2744584D01*
X43450211Y2658521D01*
X43370809Y2596404D01*
X43278146Y2556442D01*
X43262562Y2552182D01*
X43231022Y2546691D01*
X43199178Y2547227D01*
X43164206Y2555278D01*
X43123285Y2572328D01*
X43073591Y2599862D01*
X43012301Y2639366D01*
X42936594Y2692326D01*
X42843646Y2760226D01*
X42730635Y2844552D01*
X42684446Y2879667D01*
X42573055Y2968122D01*
X42468212Y3056531D01*
X42372811Y3142148D01*
X42289745Y3222227D01*
X42221908Y3294021D01*
X42172192Y3354786D01*
X42143492Y3401775D01*
X42126628Y3454973D01*
X42126192Y3500309D01*
X42138161Y3525841D01*
X42175780Y3561177D01*
X42229087Y3585849D01*
X42289963Y3595155D01*
X42303929Y3594624D01*
X42335801Y3588638D01*
X42370242Y3574265D01*
X42410119Y3549352D01*
X42458298Y3511747D01*
X42517645Y3459296D01*
X42591027Y3389847D01*
X42681311Y3301247D01*
X42752551Y3231603D01*
X42838808Y3151286D01*
X42910055Y3090864D01*
X42968373Y3048889D01*
X43015838Y3023915D01*
X43054530Y3014496D01*
X43086526Y3019184D01*
X43086943Y3019347D01*
X43117645Y3045251D01*
X43146502Y3094736D01*
X43171849Y3162391D01*
X43192019Y3242807D01*
X43205343Y3330576D01*
X43210155Y3420288D01*
X43210367Y3435453D01*
X43211325Y3462802D01*
X43210821Y3484804D01*
X43206241Y3503700D01*
X43194968Y3521733D01*
X43174390Y3541145D01*
X43141891Y3564177D01*
X43094856Y3593071D01*
X43030673Y3630070D01*
X42946725Y3677414D01*
X42840398Y3737347D01*
X42838741Y3738285D01*
X42725549Y3803590D01*
X42635761Y3858564D01*
X42566609Y3905410D01*
X42515327Y3946335D01*
X42479149Y3983542D01*
X42455310Y4019236D01*
X42441042Y4055622D01*
X42430322Y4109097D01*
X42854141Y4109097D01*
X42863157Y4081496D01*
X42864308Y4080458D01*
X42887396Y4065748D01*
X42930519Y4042360D01*
X42987946Y4013294D01*
X43053948Y3981553D01*
X43072434Y3972882D01*
X43136522Y3943100D01*
X43179503Y3924335D01*
X43205595Y3915505D01*
X43219011Y3915534D01*
X43223970Y3923340D01*
X43224686Y3937846D01*
X43224362Y3949052D01*
X43217580Y4005752D01*
X43203920Y4075252D01*
X43185920Y4147134D01*
X43166120Y4210978D01*
X43147059Y4256365D01*
X43146442Y4257490D01*
X43115154Y4299996D01*
X43079224Y4317574D01*
X43034323Y4310831D01*
X42976122Y4280376D01*
X42970463Y4276666D01*
X42925751Y4238920D01*
X42889051Y4194170D01*
X42863977Y4148775D01*
X42854141Y4109097D01*
X42430322Y4109097D01*
X42427394Y4123706D01*
X42428967Y4219388D01*
X42457591Y4308913D01*
X42513932Y4394060D01*
X42598656Y4476611D01*
X42711076Y4557680D01*
X42866361Y4637626D01*
X43036800Y4692774D01*
X43222396Y4723126D01*
X43327850Y4732927D01*
X43405292Y4652972D01*
X43426222Y4630267D01*
X43504420Y4521523D01*
X43568976Y4388807D01*
X43620066Y4231607D01*
X43657865Y4049411D01*
X43671122Y3937846D01*
X43682547Y3841706D01*
X43691572Y3732196D01*
G37*
G36*
X46787949Y7619785D02*
G01*
X46822991Y7616457D01*
X46881314Y7610322D01*
X46959283Y7601800D01*
X47053263Y7591312D01*
X47159620Y7579282D01*
X47274718Y7566129D01*
X47394924Y7552274D01*
X47516601Y7538141D01*
X47636116Y7524148D01*
X47749834Y7510719D01*
X47854119Y7498274D01*
X47945338Y7487235D01*
X48019854Y7478023D01*
X48074034Y7471059D01*
X48104243Y7466765D01*
X48109534Y7465840D01*
X48157525Y7450048D01*
X48188032Y7420769D01*
X48204102Y7373219D01*
X48208782Y7302615D01*
X48207822Y7251788D01*
X48204425Y7186695D01*
X48199420Y7134628D01*
X48198561Y7128510D01*
X48191167Y7092691D01*
X48177411Y7066402D01*
X48151158Y7041398D01*
X48106274Y7009432D01*
X48096556Y7002778D01*
X48065587Y6979900D01*
X48040005Y6956184D01*
X48016124Y6926601D01*
X47990260Y6886126D01*
X47958729Y6829731D01*
X47917844Y6752390D01*
X47901009Y6719250D01*
X47862740Y6638093D01*
X47823373Y6547886D01*
X47784820Y6453685D01*
X47748991Y6360546D01*
X47717797Y6273525D01*
X47693150Y6197676D01*
X47676960Y6138056D01*
X47671139Y6099720D01*
X47670789Y6094367D01*
X47666850Y6062238D01*
X47658991Y6006719D01*
X47647786Y5931619D01*
X47633810Y5840747D01*
X47617637Y5737912D01*
X47599841Y5626922D01*
X47585677Y5539589D01*
X47565926Y5418087D01*
X47550253Y5320851D01*
X47538439Y5245114D01*
X47530261Y5188111D01*
X47525500Y5147075D01*
X47523935Y5119240D01*
X47525346Y5101840D01*
X47529511Y5092109D01*
X47536211Y5087280D01*
X47545224Y5084588D01*
X47556331Y5081265D01*
X47596188Y5055583D01*
X47636227Y5004849D01*
X47665998Y4938200D01*
X47681509Y4862612D01*
X47684103Y4819350D01*
X47680771Y4778062D01*
X47668089Y4735928D01*
X47643509Y4680761D01*
X47628548Y4650655D01*
X47595236Y4596020D01*
X47557313Y4555123D01*
X47506320Y4517921D01*
X47500471Y4511792D01*
X47492412Y4492292D01*
X47485007Y4457534D01*
X47477724Y4404079D01*
X47470031Y4328482D01*
X47461395Y4227303D01*
X47456598Y4168384D01*
X47446824Y4050766D01*
X47436396Y3927773D01*
X47426287Y3810853D01*
X47417473Y3711456D01*
X47415291Y3687132D01*
X47406020Y3580896D01*
X47396427Y3467095D01*
X47387525Y3357898D01*
X47380326Y3265469D01*
X47373220Y3184276D01*
X47354476Y3043833D01*
X47328643Y2927130D01*
X47294722Y2830996D01*
X47251717Y2752257D01*
X47198628Y2687741D01*
X47163422Y2656629D01*
X47087496Y2608083D01*
X47006431Y2575627D01*
X46930063Y2563800D01*
X46908422Y2564988D01*
X46831438Y2583748D01*
X46748165Y2622172D01*
X46665131Y2676205D01*
X46588864Y2741792D01*
X46525894Y2814875D01*
X46512855Y2834491D01*
X46481260Y2902133D01*
X46467285Y2969595D01*
X46470845Y3031081D01*
X46491857Y3080796D01*
X46530236Y3112942D01*
X46540360Y3117733D01*
X46549776Y3124434D01*
X46557930Y3135798D01*
X46565729Y3155245D01*
X46574080Y3186198D01*
X46583890Y3232078D01*
X46596067Y3296306D01*
X46611519Y3382304D01*
X46631152Y3493493D01*
X46635181Y3516732D01*
X46652381Y3630685D01*
X46660544Y3717461D01*
X46659647Y3776845D01*
X46657279Y3809501D01*
X46662571Y3870449D01*
X46682219Y3941855D01*
X46684654Y3949417D01*
X46699028Y4005289D01*
X46714942Y4082702D01*
X46731351Y4175432D01*
X46747210Y4277255D01*
X46761476Y4381949D01*
X46773103Y4483290D01*
X46778466Y4535844D01*
X46465563Y4610479D01*
X46188799Y4674748D01*
X45894584Y4738879D01*
X45622283Y4793570D01*
X45602462Y4797362D01*
X45543931Y4808628D01*
X45496360Y4817878D01*
X45468544Y4823407D01*
X45461880Y4824486D01*
X45450474Y4822359D01*
X45442074Y4810230D01*
X45435229Y4783368D01*
X45428487Y4737041D01*
X45420395Y4666520D01*
X45414695Y4615974D01*
X45405451Y4538284D01*
X45396582Y4468133D01*
X45389411Y4416205D01*
X45375739Y4318855D01*
X45359803Y4194237D01*
X45342500Y4049566D01*
X45324318Y3889369D01*
X45305750Y3718175D01*
X45287285Y3540511D01*
X45269414Y3360904D01*
X45252629Y3183882D01*
X45237420Y3013974D01*
X45230194Y2933434D01*
X45221342Y2848403D01*
X45212253Y2783126D01*
X45201782Y2732329D01*
X45188785Y2690740D01*
X45172117Y2653088D01*
X45150636Y2614099D01*
X45140339Y2597445D01*
X45091277Y2539122D01*
X45027311Y2495188D01*
X44941516Y2460561D01*
X44897406Y2446607D01*
X44861527Y2437408D01*
X44831333Y2435104D01*
X44795373Y2438998D01*
X44742200Y2448390D01*
X44717264Y2453479D01*
X44622492Y2485744D01*
X44549537Y2533930D01*
X44500353Y2596837D01*
X44496679Y2604063D01*
X44484896Y2631948D01*
X44476152Y2663431D01*
X44470612Y2701021D01*
X44468441Y2747225D01*
X44469805Y2804553D01*
X44474870Y2875511D01*
X44483801Y2962609D01*
X44496765Y3068354D01*
X44513927Y3195254D01*
X44535453Y3345819D01*
X44561507Y3522555D01*
X44586303Y3690515D01*
X44619475Y3920738D01*
X44647672Y4124274D01*
X44671001Y4302272D01*
X44689572Y4455882D01*
X44703492Y4586255D01*
X44712869Y4694541D01*
X44717813Y4781890D01*
X44718431Y4849452D01*
X44714831Y4898378D01*
X44707122Y4929817D01*
X44695412Y4944920D01*
X44672074Y4965647D01*
X44640980Y5011230D01*
X44609315Y5072888D01*
X44579857Y5143819D01*
X44555379Y5217222D01*
X44538657Y5286297D01*
X44532466Y5344240D01*
X44537720Y5399192D01*
X44559556Y5472340D01*
X44594750Y5539028D01*
X44639382Y5593630D01*
X44689532Y5630519D01*
X44741283Y5644065D01*
X44789248Y5644065D01*
X44820371Y5981908D01*
X44826974Y6053926D01*
X44842922Y6231617D01*
X44856395Y6388469D01*
X44867859Y6530363D01*
X44877777Y6663184D01*
X44886615Y6792815D01*
X44894837Y6925140D01*
X44896024Y6944605D01*
X44904206Y7050357D01*
X44915208Y7132344D01*
X44931092Y7195127D01*
X44953917Y7243269D01*
X44985744Y7281331D01*
X45028631Y7313875D01*
X45084640Y7345463D01*
X45115953Y7358805D01*
X45197177Y7377240D01*
X45287105Y7381167D01*
X45374446Y7370586D01*
X45447912Y7345496D01*
X45551456Y7280018D01*
X45629451Y7203474D01*
X45680779Y7116824D01*
X45704926Y7020719D01*
X45707178Y6976568D01*
X45704915Y6890726D01*
X45696376Y6780076D01*
X45681766Y6646670D01*
X45661289Y6492562D01*
X45635149Y6319806D01*
X45620230Y6225591D01*
X45594294Y6058064D01*
X45573241Y5916165D01*
X45556805Y5797929D01*
X45544717Y5701391D01*
X45536711Y5624587D01*
X45532519Y5565551D01*
X45527832Y5465240D01*
X45644079Y5422532D01*
X45661843Y5416182D01*
X45735993Y5392198D01*
X45825685Y5366195D01*
X45927280Y5338961D01*
X46037145Y5311286D01*
X46151641Y5283957D01*
X46267134Y5257763D01*
X46379987Y5233491D01*
X46486563Y5211931D01*
X46583227Y5193870D01*
X46666342Y5180096D01*
X46732273Y5171398D01*
X46777383Y5168563D01*
X46798035Y5172381D01*
X46801021Y5177238D01*
X46809995Y5208876D01*
X46819766Y5264168D01*
X46829987Y5339162D01*
X46840310Y5429910D01*
X46850387Y5532462D01*
X46859872Y5642867D01*
X46868416Y5757175D01*
X46875671Y5871437D01*
X46881291Y5981702D01*
X46884926Y6084021D01*
X46886231Y6174443D01*
X46887072Y6233846D01*
X46890553Y6318794D01*
X46896104Y6397680D01*
X46903049Y6459008D01*
X46903936Y6464901D01*
X46910201Y6515110D01*
X46912182Y6560331D01*
X46909451Y6608919D01*
X46901580Y6669232D01*
X46888139Y6749625D01*
X46875502Y6818917D01*
X46859560Y6900773D01*
X46844225Y6974377D01*
X46831561Y7029520D01*
X46831012Y7031711D01*
X46815795Y7085815D01*
X46799361Y7121783D01*
X46775386Y7149719D01*
X46737544Y7179730D01*
X46709185Y7202992D01*
X46675920Y7238197D01*
X46659246Y7267037D01*
X46657968Y7273869D01*
X46655370Y7311968D01*
X46655314Y7366745D01*
X46657877Y7428779D01*
X46660034Y7460960D01*
X46665176Y7512287D01*
X46672805Y7545462D01*
X46685099Y7567923D01*
X46704234Y7587109D01*
X46705569Y7588239D01*
X46743255Y7610897D01*
X46780031Y7620267D01*
X46787949Y7619785D01*
G37*
G36*
X40780070Y5788181D02*
G01*
X40846879Y5754423D01*
X40898908Y5703361D01*
X40913903Y5681322D01*
X40938265Y5639245D01*
X40958108Y5593813D01*
X40973381Y5542921D01*
X40984031Y5484467D01*
X40990006Y5416346D01*
X40991252Y5336454D01*
X40987718Y5242687D01*
X40979351Y5132941D01*
X40966098Y5005113D01*
X40947908Y4857098D01*
X40924727Y4686793D01*
X40896504Y4492094D01*
X40863185Y4270896D01*
X40862971Y4269492D01*
X40845418Y4152015D01*
X40828570Y4034806D01*
X40813197Y3923552D01*
X40800066Y3823941D01*
X40789947Y3741660D01*
X40783610Y3682395D01*
X40783564Y3681894D01*
X40776861Y3613518D01*
X40767456Y3524264D01*
X40756217Y3422023D01*
X40744009Y3314685D01*
X40731701Y3210141D01*
X40730475Y3199929D01*
X40718432Y3099459D01*
X40706649Y3000921D01*
X40695931Y2911046D01*
X40687079Y2836564D01*
X40680896Y2784205D01*
X40678947Y2768794D01*
X40668880Y2709288D01*
X40656788Y2659903D01*
X40644873Y2630061D01*
X40635895Y2619084D01*
X40596689Y2589211D01*
X40543134Y2562345D01*
X40485612Y2544090D01*
X40456529Y2539448D01*
X40392031Y2536044D01*
X40323341Y2538882D01*
X40261439Y2547286D01*
X40217309Y2560581D01*
X40204891Y2567279D01*
X40150728Y2613362D01*
X40114042Y2673956D01*
X40100544Y2740271D01*
X40100574Y2742272D01*
X40103950Y2776367D01*
X40112271Y2832934D01*
X40124631Y2906549D01*
X40140124Y2991789D01*
X40157843Y3083231D01*
X40168655Y3137585D01*
X40197073Y3283756D01*
X40220115Y3408568D01*
X40238641Y3517242D01*
X40253511Y3614998D01*
X40265587Y3707058D01*
X40275728Y3798642D01*
X40276910Y3809838D01*
X40284012Y3870101D01*
X40294530Y3952614D01*
X40307767Y4052201D01*
X40323028Y4163690D01*
X40339616Y4281905D01*
X40356836Y4401674D01*
X40368375Y4481420D01*
X40388725Y4626393D01*
X40404772Y4749482D01*
X40416820Y4855255D01*
X40425173Y4948278D01*
X40430136Y5033119D01*
X40432014Y5114343D01*
X40431110Y5196518D01*
X40427728Y5284211D01*
X40422175Y5381988D01*
X40419152Y5431066D01*
X40414703Y5511670D01*
X40412654Y5570585D01*
X40413152Y5612701D01*
X40416345Y5642906D01*
X40422383Y5666089D01*
X40431411Y5687137D01*
X40441515Y5704946D01*
X40489144Y5754479D01*
X40553018Y5787784D01*
X40626935Y5804646D01*
X40704687Y5804850D01*
X40780070Y5788181D01*
G37*
G36*
X49602698Y3946219D02*
G01*
X49601296Y3745036D01*
X49599689Y3558231D01*
X49597878Y3387639D01*
X49595861Y3235095D01*
X49593639Y3102436D01*
X49591211Y2991496D01*
X49588576Y2904110D01*
X49585733Y2842115D01*
X49582683Y2807345D01*
X49557142Y2665903D01*
X49488036Y2401485D01*
X49394013Y2149327D01*
X49276511Y1910744D01*
X49136967Y1687051D01*
X48976817Y1479560D01*
X48797499Y1289588D01*
X48600448Y1118446D01*
X48387102Y967450D01*
X48158897Y837914D01*
X47917271Y731151D01*
X47663660Y648476D01*
X47399501Y591204D01*
X47126230Y560647D01*
X47103757Y559982D01*
X47052096Y559271D01*
X46973860Y558605D01*
X46870370Y557982D01*
X46742948Y557402D01*
X46592913Y556864D01*
X46421587Y556369D01*
X46230290Y555916D01*
X46020342Y555505D01*
X45793066Y555134D01*
X45549780Y554804D01*
X45291807Y554514D01*
X45020466Y554264D01*
X44737079Y554053D01*
X44442966Y553880D01*
X44139448Y553747D01*
X43827846Y553651D01*
X43509480Y553593D01*
X43185670Y553572D01*
X42857739Y553588D01*
X42527006Y553640D01*
X42194793Y553728D01*
X41862419Y553851D01*
X41531206Y554010D01*
X41202475Y554202D01*
X40877545Y554430D01*
X40557738Y554690D01*
X40244375Y554985D01*
X39938776Y555312D01*
X39642262Y555671D01*
X39356154Y556062D01*
X39081772Y556485D01*
X38820437Y556940D01*
X38573470Y557424D01*
X38342192Y557940D01*
X38127923Y558485D01*
X37931983Y559059D01*
X37755695Y559663D01*
X37600378Y560295D01*
X37467353Y560955D01*
X37357941Y561643D01*
X37273462Y562359D01*
X37215238Y563101D01*
X37184589Y563869D01*
X37127162Y567908D01*
X37031667Y578181D01*
X36932003Y592164D01*
X36842265Y608038D01*
X36753005Y627684D01*
X36490043Y704616D01*
X36239987Y806488D01*
X36004155Y931875D01*
X35783866Y1079350D01*
X35580436Y1247487D01*
X35395185Y1434860D01*
X35229431Y1640043D01*
X35084491Y1861610D01*
X34961685Y2098135D01*
X34862329Y2348191D01*
X34787744Y2610354D01*
X34739245Y2883196D01*
X34738171Y2894689D01*
X34735996Y2938553D01*
X34734005Y3008746D01*
X34732196Y3105496D01*
X34730568Y3229031D01*
X34729120Y3379579D01*
X34727850Y3557367D01*
X34726756Y3762622D01*
X34725839Y3995573D01*
X34725096Y4256447D01*
X34724525Y4545471D01*
X34724372Y4667835D01*
X35046844Y4667835D01*
X35046938Y4388883D01*
X35047256Y4134286D01*
X35047797Y3904566D01*
X35048559Y3700247D01*
X35049540Y3521851D01*
X35050737Y3369901D01*
X35052150Y3244920D01*
X35053776Y3147432D01*
X35055614Y3077958D01*
X35057661Y3037023D01*
X35076199Y2872654D01*
X35127576Y2615565D01*
X35205165Y2370923D01*
X35308829Y2139015D01*
X35438434Y1920127D01*
X35593843Y1714546D01*
X35774921Y1522557D01*
X35796433Y1502270D01*
X35995282Y1336432D01*
X36208480Y1195698D01*
X36435020Y1080517D01*
X36673896Y991338D01*
X36924100Y928612D01*
X37184628Y892788D01*
X37185707Y892704D01*
X37215711Y891594D01*
X37273326Y890538D01*
X37357234Y889537D01*
X37466119Y888590D01*
X37598662Y887697D01*
X37753544Y886859D01*
X37929448Y886074D01*
X38125056Y885343D01*
X38339050Y884666D01*
X38570111Y884043D01*
X38816923Y883472D01*
X39078166Y882956D01*
X39352523Y882492D01*
X39638676Y882081D01*
X39935307Y881723D01*
X40241098Y881418D01*
X40554731Y881166D01*
X40874888Y880966D01*
X41200250Y880818D01*
X41529501Y880723D01*
X41861322Y880680D01*
X42194395Y880689D01*
X42527401Y880749D01*
X42859024Y880862D01*
X43187945Y881026D01*
X43512845Y881241D01*
X43832408Y881508D01*
X44145315Y881826D01*
X44450248Y882195D01*
X44745889Y882615D01*
X45030920Y883086D01*
X45304023Y883607D01*
X45563881Y884179D01*
X45809174Y884802D01*
X46038586Y885475D01*
X46250798Y886198D01*
X46444492Y886971D01*
X46618350Y887794D01*
X46771054Y888666D01*
X46901286Y889589D01*
X47007729Y890560D01*
X47089064Y891582D01*
X47143973Y892652D01*
X47171139Y893772D01*
X47281826Y906295D01*
X47531543Y954713D01*
X47771312Y1029171D01*
X47999494Y1128266D01*
X48214448Y1250593D01*
X48414534Y1394749D01*
X48598111Y1559331D01*
X48763541Y1742933D01*
X48909181Y1944153D01*
X49033392Y2161587D01*
X49134534Y2393831D01*
X49210967Y2639482D01*
X49216827Y2662784D01*
X49225462Y2697956D01*
X49233345Y2732244D01*
X49240507Y2767009D01*
X49246979Y2803611D01*
X49252793Y2843411D01*
X49257980Y2887772D01*
X49262573Y2938054D01*
X49266601Y2995618D01*
X49270098Y3061827D01*
X49273094Y3138039D01*
X49275621Y3225618D01*
X49277710Y3325924D01*
X49279394Y3440319D01*
X49280702Y3570163D01*
X49281667Y3716819D01*
X49282321Y3881646D01*
X49282695Y4066006D01*
X49282819Y4271261D01*
X49282727Y4498772D01*
X49282449Y4749900D01*
X49282017Y5026005D01*
X49281462Y5328451D01*
X49280816Y5658596D01*
X49280429Y5857770D01*
X49279852Y6163665D01*
X49279311Y6442708D01*
X49278764Y6696275D01*
X49278167Y6925741D01*
X49277477Y7132483D01*
X49276651Y7317874D01*
X49275645Y7483293D01*
X49274417Y7630112D01*
X49272922Y7759710D01*
X49271117Y7873460D01*
X49268960Y7972739D01*
X49266407Y8058922D01*
X49263414Y8133384D01*
X49259939Y8197502D01*
X49255938Y8252651D01*
X49251368Y8300207D01*
X49246185Y8341544D01*
X49240346Y8378040D01*
X49233808Y8411068D01*
X49226528Y8442006D01*
X49218462Y8472228D01*
X49209568Y8503110D01*
X49199800Y8536027D01*
X49189118Y8572356D01*
X49151866Y8688816D01*
X49056904Y8919306D01*
X48937905Y9139040D01*
X48797179Y9344455D01*
X48637033Y9531986D01*
X48459775Y9698071D01*
X48459291Y9698475D01*
X48385195Y9758577D01*
X48316363Y9811405D01*
X48255650Y9855085D01*
X48205911Y9887742D01*
X48170000Y9907499D01*
X48150773Y9912484D01*
X48151085Y9900819D01*
X48161068Y9882853D01*
X48183869Y9842589D01*
X48216166Y9785937D01*
X48255270Y9717616D01*
X48298490Y9642341D01*
X48320826Y9603076D01*
X48375677Y9503875D01*
X48432081Y9398646D01*
X48484547Y9297713D01*
X48527589Y9211399D01*
X48549431Y9166039D01*
X48580860Y9099027D01*
X48602640Y9047810D01*
X48616846Y9005733D01*
X48625557Y8966141D01*
X48630847Y8922377D01*
X48634795Y8867786D01*
X48638065Y8805889D01*
X48637836Y8753052D01*
X48632209Y8706022D01*
X48619787Y8653716D01*
X48599175Y8585056D01*
X48589484Y8555551D01*
X48560823Y8478607D01*
X48529147Y8404412D01*
X48499719Y8345628D01*
X48455219Y8272937D01*
X48373311Y8159415D01*
X48280458Y8050171D01*
X48181193Y7949671D01*
X48080045Y7862378D01*
X47981547Y7792755D01*
X47890229Y7745266D01*
X47856567Y7731821D01*
X47810819Y7715341D01*
X47781690Y7709206D01*
X47762718Y7712461D01*
X47747440Y7724148D01*
X47743727Y7730904D01*
X47748445Y7750397D01*
X47770185Y7782027D01*
X47811191Y7829497D01*
X47849699Y7873332D01*
X47942526Y7990942D01*
X48027876Y8115726D01*
X48103854Y8243752D01*
X48168563Y8371087D01*
X48220107Y8493801D01*
X48256590Y8607962D01*
X48276116Y8709638D01*
X48276788Y8794898D01*
X48271059Y8826734D01*
X48248832Y8904053D01*
X48212115Y9003510D01*
X48161559Y9123514D01*
X48097815Y9262472D01*
X48021536Y9418790D01*
X47991014Y9480299D01*
X47947451Y9571334D01*
X47914289Y9646503D01*
X47889096Y9711836D01*
X47869442Y9773365D01*
X47852897Y9837119D01*
X47841890Y9885970D01*
X47828755Y9951498D01*
X47819775Y10005540D01*
X47816448Y10039755D01*
X47815685Y10060864D01*
X47809638Y10078505D01*
X47792711Y10092293D01*
X47759308Y10106479D01*
X47703833Y10125312D01*
X47593998Y10158994D01*
X47385973Y10207334D01*
X47170891Y10236213D01*
X47166154Y10236590D01*
X47132862Y10238164D01*
X47078732Y10239623D01*
X47003331Y10240969D01*
X46906226Y10242202D01*
X46786986Y10243323D01*
X46645176Y10244333D01*
X46480363Y10245234D01*
X46292116Y10246025D01*
X46080002Y10246709D01*
X45843587Y10247286D01*
X45582438Y10247756D01*
X45296123Y10248121D01*
X44984209Y10248383D01*
X44646264Y10248540D01*
X44281854Y10248596D01*
X43890546Y10248550D01*
X43471908Y10248404D01*
X43025506Y10248158D01*
X42550909Y10247814D01*
X42047683Y10247372D01*
X42016390Y10247342D01*
X41567042Y10246910D01*
X41145764Y10246490D01*
X40751627Y10246076D01*
X40383699Y10245663D01*
X40041054Y10245245D01*
X39722760Y10244817D01*
X39427888Y10244373D01*
X39155509Y10243907D01*
X38904694Y10243414D01*
X38674512Y10242889D01*
X38464035Y10242325D01*
X38272332Y10241718D01*
X38098476Y10241061D01*
X37941535Y10240349D01*
X37800580Y10239577D01*
X37674683Y10238738D01*
X37562913Y10237828D01*
X37464341Y10236841D01*
X37378038Y10235771D01*
X37303074Y10234612D01*
X37238519Y10233360D01*
X37183445Y10232008D01*
X37136921Y10230551D01*
X37098019Y10228983D01*
X37065808Y10227299D01*
X37039360Y10225493D01*
X37017744Y10223559D01*
X37000031Y10221493D01*
X36985293Y10219288D01*
X36972598Y10216939D01*
X36753541Y10164103D01*
X36509720Y10081909D01*
X36282862Y9977859D01*
X36070649Y9850867D01*
X35870767Y9699845D01*
X35778860Y9618031D01*
X35607861Y9438222D01*
X35455957Y9239954D01*
X35325590Y9026991D01*
X35219202Y8803098D01*
X35139234Y8572040D01*
X35133449Y8551766D01*
X35123231Y8516592D01*
X35113917Y8484376D01*
X35105463Y8453726D01*
X35097824Y8423249D01*
X35090956Y8391553D01*
X35084815Y8357246D01*
X35079356Y8318936D01*
X35074535Y8275231D01*
X35070308Y8224738D01*
X35066631Y8166066D01*
X35063459Y8097823D01*
X35060748Y8018615D01*
X35058454Y7927052D01*
X35056532Y7821741D01*
X35054939Y7701289D01*
X35053629Y7564305D01*
X35052558Y7409397D01*
X35051683Y7235172D01*
X35050959Y7040238D01*
X35050341Y6823204D01*
X35049786Y6582677D01*
X35049249Y6317264D01*
X35048685Y6025574D01*
X35048051Y5706215D01*
X35047929Y5645585D01*
X35047338Y5296709D01*
X35046977Y4970617D01*
X35046844Y4667835D01*
X34724372Y4667835D01*
X34724127Y4862874D01*
X34723899Y5208883D01*
X34723840Y5583725D01*
X34723880Y5888844D01*
X34723972Y6188733D01*
X34724125Y6462085D01*
X34724350Y6710204D01*
X34724658Y6934396D01*
X34725061Y7135965D01*
X34725568Y7316218D01*
X34726192Y7476459D01*
X34726942Y7617994D01*
X34727830Y7742127D01*
X34728867Y7850164D01*
X34730064Y7943411D01*
X34731431Y8023172D01*
X34732980Y8090753D01*
X34734722Y8147458D01*
X34736666Y8194594D01*
X34738825Y8233466D01*
X34741210Y8265377D01*
X34743830Y8291635D01*
X34746698Y8313544D01*
X34789800Y8537950D01*
X34865909Y8799540D01*
X34967112Y9049445D01*
X35092093Y9286088D01*
X35239535Y9507895D01*
X35408123Y9713290D01*
X35596539Y9900697D01*
X35803468Y10068539D01*
X36027593Y10215242D01*
X36267597Y10339229D01*
X36522166Y10438925D01*
X36600896Y10463996D01*
X36790564Y10513919D01*
X36982309Y10548355D01*
X37188626Y10569756D01*
X37198537Y10570300D01*
X37243142Y10571618D01*
X37314934Y10572873D01*
X37412575Y10574064D01*
X37534726Y10575192D01*
X37680046Y10576257D01*
X37847198Y10577258D01*
X38034841Y10578196D01*
X38241636Y10579071D01*
X38466245Y10579882D01*
X38707327Y10580630D01*
X38963544Y10581314D01*
X39233555Y10581935D01*
X39516023Y10582493D01*
X39809607Y10582987D01*
X40112969Y10583418D01*
X40424769Y10583786D01*
X40743668Y10584090D01*
X41068326Y10584331D01*
X41397404Y10584509D01*
X41729564Y10584623D01*
X42063465Y10584673D01*
X42397768Y10584661D01*
X42731135Y10584585D01*
X43062225Y10584445D01*
X43389700Y10584243D01*
X43712220Y10583976D01*
X44028447Y10583647D01*
X44337040Y10583254D01*
X44636660Y10582798D01*
X44925969Y10582278D01*
X45203626Y10581695D01*
X45468294Y10581049D01*
X45718631Y10580339D01*
X45953300Y10579566D01*
X46170960Y10578729D01*
X46370273Y10577830D01*
X46549899Y10576866D01*
X46708500Y10575840D01*
X46844734Y10574750D01*
X46957265Y10573596D01*
X47044751Y10572380D01*
X47105854Y10571100D01*
X47139235Y10569756D01*
X47343976Y10548249D01*
X47550364Y10511676D01*
X47736956Y10462287D01*
X47752235Y10457406D01*
X47802434Y10442049D01*
X47832599Y10438314D01*
X47849275Y10449629D01*
X47859008Y10479423D01*
X47868345Y10531127D01*
X47869986Y10539577D01*
X47885585Y10579470D01*
X47913658Y10600149D01*
X47921451Y10603076D01*
X47949609Y10611002D01*
X47964542Y10604790D01*
X47970317Y10579471D01*
X47971001Y10530078D01*
X47970963Y10525200D01*
X47971681Y10466032D01*
X47977657Y10423295D01*
X47993105Y10391241D01*
X48022239Y10364122D01*
X48069273Y10336190D01*
X48138420Y10301698D01*
X48260907Y10237920D01*
X48487806Y10095623D01*
X48697771Y9931167D01*
X48889467Y9746396D01*
X49061554Y9543152D01*
X49212695Y9323279D01*
X49341552Y9088619D01*
X49446788Y8841016D01*
X49527064Y8582312D01*
X49581043Y8314351D01*
X49583030Y8294850D01*
X49585979Y8241725D01*
X49588735Y8162598D01*
X49591300Y8059304D01*
X49593671Y7933679D01*
X49595848Y7787559D01*
X49597831Y7622779D01*
X49599619Y7441174D01*
X49601212Y7244579D01*
X49602609Y7034831D01*
X49603810Y6813764D01*
X49604814Y6583214D01*
X49605620Y6345016D01*
X49606228Y6101007D01*
X49606638Y5853020D01*
X49606848Y5602893D01*
X49606859Y5352459D01*
X49606669Y5103555D01*
X49606279Y4858016D01*
X49605687Y4617677D01*
X49604893Y4384375D01*
X49604391Y4271261D01*
X49603897Y4159943D01*
X49602698Y3946219D01*
G37*
G36*
X41792647Y5801335D02*
G01*
X41873548Y5773029D01*
X41939644Y5719898D01*
X41991124Y5641773D01*
X42028176Y5538483D01*
X42032835Y5518562D01*
X42041595Y5463196D01*
X42046313Y5397422D01*
X42046816Y5319228D01*
X42042930Y5226601D01*
X42034482Y5117529D01*
X42021300Y4990000D01*
X42003210Y4842003D01*
X41980039Y4671525D01*
X41951614Y4476554D01*
X41917762Y4255078D01*
X41907949Y4190814D01*
X41890209Y4069119D01*
X41873238Y3946192D01*
X41858028Y3829509D01*
X41845570Y3726546D01*
X41836855Y3644780D01*
X41834483Y3619993D01*
X41821221Y3488131D01*
X41806825Y3354787D01*
X41791741Y3223337D01*
X41776414Y3097161D01*
X41761290Y2979635D01*
X41746814Y2874139D01*
X41733432Y2784050D01*
X41721590Y2712746D01*
X41711733Y2663605D01*
X41704306Y2640006D01*
X41686944Y2617460D01*
X41632756Y2575457D01*
X41564167Y2548563D01*
X41534155Y2543582D01*
X41480832Y2538633D01*
X41422855Y2536261D01*
X41335095Y2542649D01*
X41258813Y2567565D01*
X41204529Y2611368D01*
X41172079Y2674197D01*
X41161299Y2756187D01*
X41162757Y2778664D01*
X41169417Y2830656D01*
X41180538Y2900334D01*
X41195092Y2981395D01*
X41212053Y3067538D01*
X41220807Y3110222D01*
X41247663Y3243943D01*
X41269173Y3356670D01*
X41286298Y3454093D01*
X41300003Y3541904D01*
X41311250Y3625795D01*
X41321001Y3711456D01*
X41323544Y3734424D01*
X41332048Y3804532D01*
X41343606Y3893965D01*
X41357345Y3996180D01*
X41372392Y4104630D01*
X41387874Y4212772D01*
X41410774Y4370089D01*
X41431595Y4514124D01*
X41448794Y4635623D01*
X41462643Y4737811D01*
X41473414Y4823913D01*
X41481379Y4897153D01*
X41486812Y4960756D01*
X41489984Y5017946D01*
X41491167Y5071948D01*
X41490636Y5125985D01*
X41488661Y5183283D01*
X41485515Y5247066D01*
X41481471Y5320558D01*
X41479952Y5348848D01*
X41475715Y5440524D01*
X41472934Y5522508D01*
X41471711Y5589973D01*
X41472147Y5638091D01*
X41474342Y5662034D01*
X41475892Y5666859D01*
X41509987Y5724187D01*
X41566579Y5768124D01*
X41641530Y5796339D01*
X41730705Y5806500D01*
X41792647Y5801335D01*
G37*
G04 #@! TO.C,D31*
X5940000Y56737500D02*
X5940000Y56087500D01*
X9060000Y56737500D02*
X9060000Y56087500D01*
X5940000Y56737500D02*
X5940000Y58412500D01*
X9060000Y56737500D02*
X9060000Y57387500D01*
G04 #@! TO.C,J4*
X3450000Y26300000D02*
G75*
G03*
X3450000Y26300000I-1200000J0D01*
G01*
G04 #@! TD*
M02*
