G04 #@! TF.GenerationSoftware,KiCad,Pcbnew,(6.0.9)*
G04 #@! TF.CreationDate,2022-12-11T18:41:33+03:00*
G04 #@! TF.ProjectId,alphax_2ch,616c7068-6178-45f3-9263-682e6b696361,E*
G04 #@! TF.SameCoordinates,PX141f5e0PYa2cace0*
G04 #@! TF.FileFunction,AssemblyDrawing,Bot*
%FSLAX46Y46*%
G04 Gerber Fmt 4.6, Leading zero omitted, Abs format (unit mm)*
G04 Created by KiCad (PCBNEW (6.0.9)) date 2022-12-11 18:41:33*
%MOMM*%
%LPD*%
G01*
G04 APERTURE LIST*
%ADD10C,0.050000*%
%ADD11C,0.150000*%
%ADD12C,0.100000*%
G04 APERTURE END LIST*
D10*
G04 #@! TO.C,D30*
X7644761Y53126072D02*
X7324761Y53126072D01*
X7324761Y53049881D01*
X7340000Y53004167D01*
X7370476Y52973691D01*
X7400952Y52958453D01*
X7461904Y52943215D01*
X7507619Y52943215D01*
X7568571Y52958453D01*
X7599047Y52973691D01*
X7629523Y53004167D01*
X7644761Y53049881D01*
X7644761Y53126072D01*
X7324761Y52836548D02*
X7324761Y52638453D01*
X7446666Y52745120D01*
X7446666Y52699405D01*
X7461904Y52668929D01*
X7477142Y52653691D01*
X7507619Y52638453D01*
X7583809Y52638453D01*
X7614285Y52653691D01*
X7629523Y52668929D01*
X7644761Y52699405D01*
X7644761Y52790834D01*
X7629523Y52821310D01*
X7614285Y52836548D01*
X7324761Y52440358D02*
X7324761Y52409881D01*
X7340000Y52379405D01*
X7355238Y52364167D01*
X7385714Y52348929D01*
X7446666Y52333691D01*
X7522857Y52333691D01*
X7583809Y52348929D01*
X7614285Y52364167D01*
X7629523Y52379405D01*
X7644761Y52409881D01*
X7644761Y52440358D01*
X7629523Y52470834D01*
X7614285Y52486072D01*
X7583809Y52501310D01*
X7522857Y52516548D01*
X7446666Y52516548D01*
X7385714Y52501310D01*
X7355238Y52486072D01*
X7340000Y52470834D01*
X7324761Y52440358D01*
G04 #@! TO.C,D31*
X7644761Y57126072D02*
X7324761Y57126072D01*
X7324761Y57049881D01*
X7340000Y57004167D01*
X7370476Y56973691D01*
X7400952Y56958453D01*
X7461904Y56943215D01*
X7507619Y56943215D01*
X7568571Y56958453D01*
X7599047Y56973691D01*
X7629523Y57004167D01*
X7644761Y57049881D01*
X7644761Y57126072D01*
X7324761Y56836548D02*
X7324761Y56638453D01*
X7446666Y56745120D01*
X7446666Y56699405D01*
X7461904Y56668929D01*
X7477142Y56653691D01*
X7507619Y56638453D01*
X7583809Y56638453D01*
X7614285Y56653691D01*
X7629523Y56668929D01*
X7644761Y56699405D01*
X7644761Y56790834D01*
X7629523Y56821310D01*
X7614285Y56836548D01*
X7644761Y56333691D02*
X7644761Y56516548D01*
X7644761Y56425120D02*
X7324761Y56425120D01*
X7370476Y56455596D01*
X7400952Y56486072D01*
X7416190Y56516548D01*
D11*
G04 #@! TO.C,J4*
X2583333Y28847620D02*
X2583333Y28133334D01*
X2630952Y27990477D01*
X2726190Y27895239D01*
X2869047Y27847620D01*
X2964285Y27847620D01*
X1678571Y28514286D02*
X1678571Y27847620D01*
X1916666Y28895239D02*
X2154761Y28180953D01*
X1535714Y28180953D01*
D12*
G04 #@! TO.C,J8*
X65330000Y63570000D02*
X65330000Y61030000D01*
X67870000Y61665000D02*
X67870000Y63570000D01*
X65330000Y61030000D02*
X67235000Y61030000D01*
X67870000Y63570000D02*
X65330000Y63570000D01*
X67235000Y61030000D02*
X67870000Y61665000D01*
G04 #@! TO.C,J7*
X61635000Y61030000D02*
X62270000Y61665000D01*
X59730000Y61030000D02*
X61635000Y61030000D01*
X62270000Y63570000D02*
X59730000Y63570000D01*
X62270000Y61665000D02*
X62270000Y63570000D01*
X59730000Y63570000D02*
X59730000Y61030000D01*
G04 #@! TO.C,D30*
X6375000Y53387500D02*
X6050000Y53062500D01*
X8950000Y52087500D02*
X8950000Y53387500D01*
X8950000Y53387500D02*
X6375000Y53387500D01*
X6050000Y52087500D02*
X8950000Y52087500D01*
X6050000Y53062500D02*
X6050000Y52087500D01*
G04 #@! TO.C,D31*
X6050000Y56087500D02*
X8950000Y56087500D01*
X8950000Y56087500D02*
X8950000Y57387500D01*
X8950000Y57387500D02*
X6375000Y57387500D01*
X6375000Y57387500D02*
X6050000Y57062500D01*
X6050000Y57062500D02*
X6050000Y56087500D01*
G04 #@! TD*
M02*
