G75*
G70*
%OFA0B0*%
%FSLAX25Y25*%
%IPPOS*%
%LPD*%
%AMOC8*
5,1,8,0,0,1.08239X$1,22.5*
%
%AMM127*
21,1,0.038980,0.026770,-0.000000,0.000000,270.000000*
21,1,0.026770,0.038980,-0.000000,0.000000,270.000000*
1,1,0.012210,-0.013390,-0.013390*
1,1,0.012210,-0.013390,0.013390*
1,1,0.012210,0.013390,0.013390*
1,1,0.012210,0.013390,-0.013390*
%
%AMM144*
21,1,0.076380,0.036220,-0.000000,-0.000000,180.000000*
21,1,0.061810,0.050790,-0.000000,-0.000000,180.000000*
1,1,0.014570,-0.030910,0.018110*
1,1,0.014570,0.030910,0.018110*
1,1,0.014570,0.030910,-0.018110*
1,1,0.014570,-0.030910,-0.018110*
%
%AMM145*
21,1,0.029130,0.018900,-0.000000,-0.000000,90.000000*
21,1,0.018900,0.029130,-0.000000,-0.000000,90.000000*
1,1,0.010240,0.009450,0.009450*
1,1,0.010240,0.009450,-0.009450*
1,1,0.010240,-0.009450,-0.009450*
1,1,0.010240,-0.009450,0.009450*
%
%AMM146*
21,1,0.041340,0.026770,-0.000000,-0.000000,180.000000*
21,1,0.029130,0.038980,-0.000000,-0.000000,180.000000*
1,1,0.012210,-0.014570,0.013390*
1,1,0.012210,0.014570,0.013390*
1,1,0.012210,0.014570,-0.013390*
1,1,0.012210,-0.014570,-0.013390*
%
%AMM147*
21,1,0.100000,0.111020,-0.000000,-0.000000,0.000000*
21,1,0.075590,0.135430,-0.000000,-0.000000,0.000000*
1,1,0.024410,0.037800,-0.055510*
1,1,0.024410,-0.037800,-0.055510*
1,1,0.024410,-0.037800,0.055510*
1,1,0.024410,0.037800,0.055510*
%
%AMM148*
21,1,0.027170,0.052760,-0.000000,-0.000000,180.000000*
21,1,0.017320,0.062600,-0.000000,-0.000000,180.000000*
1,1,0.009840,-0.008660,0.026380*
1,1,0.009840,0.008660,0.026380*
1,1,0.009840,0.008660,-0.026380*
1,1,0.009840,-0.008660,-0.026380*
%
%AMM149*
21,1,0.040950,0.030320,-0.000000,-0.000000,270.000000*
21,1,0.028350,0.042910,-0.000000,-0.000000,270.000000*
1,1,0.012600,-0.015160,-0.014170*
1,1,0.012600,-0.015160,0.014170*
1,1,0.012600,0.015160,0.014170*
1,1,0.012600,0.015160,-0.014170*
%
%AMM150*
21,1,0.038980,0.026770,-0.000000,-0.000000,0.000000*
21,1,0.026770,0.038980,-0.000000,-0.000000,0.000000*
1,1,0.012210,0.013390,-0.013390*
1,1,0.012210,-0.013390,-0.013390*
1,1,0.012210,-0.013390,0.013390*
1,1,0.012210,0.013390,0.013390*
%
%AMM151*
21,1,0.041340,0.026770,-0.000000,-0.000000,270.000000*
21,1,0.029130,0.038980,-0.000000,-0.000000,270.000000*
1,1,0.012210,-0.013390,-0.014570*
1,1,0.012210,-0.013390,0.014570*
1,1,0.012210,0.013390,0.014570*
1,1,0.012210,0.013390,-0.014570*
%
%AMM152*
21,1,0.038980,0.026770,-0.000000,-0.000000,270.000000*
21,1,0.026770,0.038980,-0.000000,-0.000000,270.000000*
1,1,0.012210,-0.013390,-0.013390*
1,1,0.012210,-0.013390,0.013390*
1,1,0.012210,0.013390,0.013390*
1,1,0.012210,0.013390,-0.013390*
%
%AMM153*
21,1,0.033070,0.030710,-0.000000,-0.000000,180.000000*
21,1,0.022050,0.041730,-0.000000,-0.000000,180.000000*
1,1,0.011020,-0.011020,0.015350*
1,1,0.011020,0.011020,0.015350*
1,1,0.011020,0.011020,-0.015350*
1,1,0.011020,-0.011020,-0.015350*
%
%AMM154*
21,1,0.029130,0.018900,-0.000000,-0.000000,0.000000*
21,1,0.018900,0.029130,-0.000000,-0.000000,0.000000*
1,1,0.010240,0.009450,-0.009450*
1,1,0.010240,-0.009450,-0.009450*
1,1,0.010240,-0.009450,0.009450*
1,1,0.010240,0.009450,0.009450*
%
%AMM165*
21,1,0.111810,0.050390,-0.000000,0.000000,90.000000*
21,1,0.093700,0.068500,-0.000000,0.000000,90.000000*
1,1,0.018110,0.025200,0.046850*
1,1,0.018110,0.025200,-0.046850*
1,1,0.018110,-0.025200,-0.046850*
1,1,0.018110,-0.025200,0.046850*
%
%AMM166*
21,1,0.044880,0.049210,-0.000000,0.000000,180.000000*
21,1,0.031500,0.062600,-0.000000,0.000000,180.000000*
1,1,0.013390,-0.015750,0.024610*
1,1,0.013390,0.015750,0.024610*
1,1,0.013390,0.015750,-0.024610*
1,1,0.013390,-0.015750,-0.024610*
%
%AMM167*
21,1,0.076380,0.036220,-0.000000,0.000000,270.000000*
21,1,0.061810,0.050790,-0.000000,0.000000,270.000000*
1,1,0.014570,-0.018110,-0.030910*
1,1,0.014570,-0.018110,0.030910*
1,1,0.014570,0.018110,0.030910*
1,1,0.014570,0.018110,-0.030910*
%
%AMM168*
21,1,0.092130,0.073230,-0.000000,0.000000,180.000000*
21,1,0.069290,0.096060,-0.000000,0.000000,180.000000*
1,1,0.022840,-0.034650,0.036610*
1,1,0.022840,0.034650,0.036610*
1,1,0.022840,0.034650,-0.036610*
1,1,0.022840,-0.034650,-0.036610*
%
%AMM169*
21,1,0.084250,0.053540,-0.000000,0.000000,270.000000*
21,1,0.065350,0.072440,-0.000000,0.000000,270.000000*
1,1,0.018900,-0.026770,-0.032680*
1,1,0.018900,-0.026770,0.032680*
1,1,0.018900,0.026770,0.032680*
1,1,0.018900,0.026770,-0.032680*
%
%AMM170*
21,1,0.127560,0.075590,-0.000000,0.000000,0.000000*
21,1,0.103150,0.100000,-0.000000,0.000000,0.000000*
1,1,0.024410,0.051580,-0.037800*
1,1,0.024410,-0.051580,-0.037800*
1,1,0.024410,-0.051580,0.037800*
1,1,0.024410,0.051580,0.037800*
%
%AMM171*
21,1,0.038980,0.026770,-0.000000,0.000000,0.000000*
21,1,0.026770,0.038980,-0.000000,0.000000,0.000000*
1,1,0.012210,0.013390,-0.013390*
1,1,0.012210,-0.013390,-0.013390*
1,1,0.012210,-0.013390,0.013390*
1,1,0.012210,0.013390,0.013390*
%
%AMM172*
21,1,0.080320,0.083460,-0.000000,0.000000,270.000000*
21,1,0.059840,0.103940,-0.000000,0.000000,270.000000*
1,1,0.020470,-0.041730,-0.029920*
1,1,0.020470,-0.041730,0.029920*
1,1,0.020470,0.041730,0.029920*
1,1,0.020470,0.041730,-0.029920*
%
%AMM173*
21,1,0.033070,0.030710,-0.000000,0.000000,270.000000*
21,1,0.022050,0.041730,-0.000000,0.000000,270.000000*
1,1,0.011020,-0.015350,-0.011020*
1,1,0.011020,-0.015350,0.011020*
1,1,0.011020,0.015350,0.011020*
1,1,0.011020,0.015350,-0.011020*
%
%AMM174*
21,1,0.033070,0.030710,-0.000000,0.000000,180.000000*
21,1,0.022050,0.041730,-0.000000,0.000000,180.000000*
1,1,0.011020,-0.011020,0.015350*
1,1,0.011020,0.011020,0.015350*
1,1,0.011020,0.011020,-0.015350*
1,1,0.011020,-0.011020,-0.015350*
%
%AMM178*
21,1,0.038980,0.026770,-0.000000,0.000000,90.000000*
21,1,0.026770,0.038980,-0.000000,0.000000,90.000000*
1,1,0.012210,0.013390,0.013390*
1,1,0.012210,0.013390,-0.013390*
1,1,0.012210,-0.013390,-0.013390*
1,1,0.012210,-0.013390,0.013390*
%
%AMM184*
21,1,0.033070,0.030710,-0.000000,-0.000000,90.000000*
21,1,0.022050,0.041730,-0.000000,-0.000000,90.000000*
1,1,0.011020,0.015350,0.011020*
1,1,0.011020,0.015350,-0.011020*
1,1,0.011020,-0.015350,-0.011020*
1,1,0.011020,-0.015350,0.011020*
%
%AMM189*
21,1,0.033070,0.030710,0.000000,-0.000000,270.000000*
21,1,0.022050,0.041730,0.000000,-0.000000,270.000000*
1,1,0.011020,-0.015350,-0.011020*
1,1,0.011020,-0.015350,0.011020*
1,1,0.011020,0.015350,0.011020*
1,1,0.011020,0.015350,-0.011020*
%
%AMM190*
21,1,0.038980,0.026770,0.000000,-0.000000,270.000000*
21,1,0.026770,0.038980,0.000000,-0.000000,270.000000*
1,1,0.012210,-0.013390,-0.013390*
1,1,0.012210,-0.013390,0.013390*
1,1,0.012210,0.013390,0.013390*
1,1,0.012210,0.013390,-0.013390*
%
%AMM191*
21,1,0.033070,0.030710,0.000000,-0.000000,180.000000*
21,1,0.022050,0.041730,0.000000,-0.000000,180.000000*
1,1,0.011020,-0.011020,0.015350*
1,1,0.011020,0.011020,0.015350*
1,1,0.011020,0.011020,-0.015350*
1,1,0.011020,-0.011020,-0.015350*
%
%AMM227*
21,1,0.033070,0.030710,-0.000000,-0.000000,270.000000*
21,1,0.022050,0.041730,-0.000000,-0.000000,270.000000*
1,1,0.011020,-0.015350,-0.011020*
1,1,0.011020,-0.015350,0.011020*
1,1,0.011020,0.015350,0.011020*
1,1,0.011020,0.015350,-0.011020*
%
%AMM228*
21,1,0.092130,0.073230,-0.000000,-0.000000,90.000000*
21,1,0.069290,0.096060,-0.000000,-0.000000,90.000000*
1,1,0.022840,0.036610,0.034650*
1,1,0.022840,0.036610,-0.034650*
1,1,0.022840,-0.036610,-0.034650*
1,1,0.022840,-0.036610,0.034650*
%
%AMM229*
21,1,0.044880,0.049210,-0.000000,-0.000000,270.000000*
21,1,0.031500,0.062600,-0.000000,-0.000000,270.000000*
1,1,0.013390,-0.024610,-0.015750*
1,1,0.013390,-0.024610,0.015750*
1,1,0.013390,0.024610,0.015750*
1,1,0.013390,0.024610,-0.015750*
%
%AMM230*
21,1,0.023230,0.027950,-0.000000,-0.000000,180.000000*
21,1,0.014170,0.037010,-0.000000,-0.000000,180.000000*
1,1,0.009060,-0.007090,0.013980*
1,1,0.009060,0.007090,0.013980*
1,1,0.009060,0.007090,-0.013980*
1,1,0.009060,-0.007090,-0.013980*
%
%AMM231*
21,1,0.038980,0.026770,-0.000000,-0.000000,90.000000*
21,1,0.026770,0.038980,-0.000000,-0.000000,90.000000*
1,1,0.012210,0.013390,0.013390*
1,1,0.012210,0.013390,-0.013390*
1,1,0.012210,-0.013390,-0.013390*
1,1,0.012210,-0.013390,0.013390*
%
%AMM232*
21,1,0.029130,0.030710,-0.000000,-0.000000,270.000000*
21,1,0.018900,0.040950,-0.000000,-0.000000,270.000000*
1,1,0.010240,-0.015350,-0.009450*
1,1,0.010240,-0.015350,0.009450*
1,1,0.010240,0.015350,0.009450*
1,1,0.010240,0.015350,-0.009450*
%
%AMM233*
21,1,0.031100,0.026380,-0.000000,-0.000000,180.000000*
21,1,0.020470,0.037010,-0.000000,-0.000000,180.000000*
1,1,0.010630,-0.010240,0.013190*
1,1,0.010630,0.010240,0.013190*
1,1,0.010630,0.010240,-0.013190*
1,1,0.010630,-0.010240,-0.013190*
%
%AMM234*
21,1,0.044880,0.049210,-0.000000,-0.000000,0.000000*
21,1,0.031500,0.062600,-0.000000,-0.000000,0.000000*
1,1,0.013390,0.015750,-0.024610*
1,1,0.013390,-0.015750,-0.024610*
1,1,0.013390,-0.015750,0.024610*
1,1,0.013390,0.015750,0.024610*
%
%AMM235*
21,1,0.040950,0.050000,-0.000000,-0.000000,90.000000*
21,1,0.028350,0.062600,-0.000000,-0.000000,90.000000*
1,1,0.012600,0.025000,0.014170*
1,1,0.012600,0.025000,-0.014170*
1,1,0.012600,-0.025000,-0.014170*
1,1,0.012600,-0.025000,0.014170*
%
%AMM264*
21,1,0.040950,0.030320,-0.000000,0.000000,270.000000*
21,1,0.028350,0.042910,-0.000000,0.000000,270.000000*
1,1,0.012600,-0.015160,-0.014170*
1,1,0.012600,-0.015160,0.014170*
1,1,0.012600,0.015160,0.014170*
1,1,0.012600,0.015160,-0.014170*
%
%AMM305*
21,1,0.041340,0.026770,-0.000000,-0.000000,0.000000*
21,1,0.029130,0.038980,-0.000000,-0.000000,0.000000*
1,1,0.012210,0.014570,-0.013390*
1,1,0.012210,-0.014570,-0.013390*
1,1,0.012210,-0.014570,0.013390*
1,1,0.012210,0.014570,0.013390*
%
%AMM306*
21,1,0.040950,0.030320,-0.000000,-0.000000,0.000000*
21,1,0.028350,0.042910,-0.000000,-0.000000,0.000000*
1,1,0.012600,0.014170,-0.015160*
1,1,0.012600,-0.014170,-0.015160*
1,1,0.012600,-0.014170,0.015160*
1,1,0.012600,0.014170,0.015160*
%
%AMM307*
21,1,0.040950,0.030320,-0.000000,-0.000000,90.000000*
21,1,0.028350,0.042910,-0.000000,-0.000000,90.000000*
1,1,0.012600,0.015160,0.014170*
1,1,0.012600,0.015160,-0.014170*
1,1,0.012600,-0.015160,-0.014170*
1,1,0.012600,-0.015160,0.014170*
%
%AMM308*
21,1,0.033070,0.018900,-0.000000,-0.000000,0.000000*
21,1,0.022840,0.029130,-0.000000,-0.000000,0.000000*
1,1,0.010240,0.011420,-0.009450*
1,1,0.010240,-0.011420,-0.009450*
1,1,0.010240,-0.011420,0.009450*
1,1,0.010240,0.011420,0.009450*
%
%AMM309*
21,1,0.143310,0.067720,-0.000000,-0.000000,180.000000*
21,1,0.120870,0.090160,-0.000000,-0.000000,180.000000*
1,1,0.022440,-0.060430,0.033860*
1,1,0.022440,0.060430,0.033860*
1,1,0.022440,0.060430,-0.033860*
1,1,0.022440,-0.060430,-0.033860*
%
%AMM310*
21,1,0.048820,0.075980,-0.000000,-0.000000,180.000000*
21,1,0.034650,0.090160,-0.000000,-0.000000,180.000000*
1,1,0.014170,-0.017320,0.037990*
1,1,0.014170,0.017320,0.037990*
1,1,0.014170,0.017320,-0.037990*
1,1,0.014170,-0.017320,-0.037990*
%
%AMM311*
21,1,0.048820,0.075990,-0.000000,-0.000000,180.000000*
21,1,0.034650,0.090160,-0.000000,-0.000000,180.000000*
1,1,0.014170,-0.017320,0.037990*
1,1,0.014170,0.017320,0.037990*
1,1,0.014170,0.017320,-0.037990*
1,1,0.014170,-0.017320,-0.037990*
%
%AMM312*
21,1,0.044880,0.035430,-0.000000,-0.000000,90.000000*
21,1,0.031500,0.048820,-0.000000,-0.000000,90.000000*
1,1,0.013390,0.017720,0.015750*
1,1,0.013390,0.017720,-0.015750*
1,1,0.013390,-0.017720,-0.015750*
1,1,0.013390,-0.017720,0.015750*
%
%AMM313*
21,1,0.041340,0.026770,-0.000000,-0.000000,90.000000*
21,1,0.029130,0.038980,-0.000000,-0.000000,90.000000*
1,1,0.012210,0.013390,0.014570*
1,1,0.012210,0.013390,-0.014570*
1,1,0.012210,-0.013390,-0.014570*
1,1,0.012210,-0.013390,0.014570*
%
%AMM314*
21,1,0.033070,0.049610,-0.000000,-0.000000,90.000000*
21,1,0.022050,0.060630,-0.000000,-0.000000,90.000000*
1,1,0.011020,0.024800,0.011020*
1,1,0.011020,0.024800,-0.011020*
1,1,0.011020,-0.024800,-0.011020*
1,1,0.011020,-0.024800,0.011020*
%
%AMM315*
21,1,0.033070,0.030710,-0.000000,-0.000000,0.000000*
21,1,0.022050,0.041730,-0.000000,-0.000000,0.000000*
1,1,0.011020,0.011020,-0.015350*
1,1,0.011020,-0.011020,-0.015350*
1,1,0.011020,-0.011020,0.015350*
1,1,0.011020,0.011020,0.015350*
%
%AMM316*
21,1,0.023230,0.027950,-0.000000,-0.000000,90.000000*
21,1,0.014170,0.037010,-0.000000,-0.000000,90.000000*
1,1,0.009060,0.013980,0.007090*
1,1,0.009060,0.013980,-0.007090*
1,1,0.009060,-0.013980,-0.007090*
1,1,0.009060,-0.013980,0.007090*
%
%AMM317*
21,1,0.031100,0.026380,-0.000000,-0.000000,90.000000*
21,1,0.020470,0.037010,-0.000000,-0.000000,90.000000*
1,1,0.010630,0.013190,0.010240*
1,1,0.010630,0.013190,-0.010240*
1,1,0.010630,-0.013190,-0.010240*
1,1,0.010630,-0.013190,0.010240*
%
%AMM318*
21,1,0.029130,0.030710,-0.000000,-0.000000,0.000000*
21,1,0.018900,0.040950,-0.000000,-0.000000,0.000000*
1,1,0.010240,0.009450,-0.015350*
1,1,0.010240,-0.009450,-0.015350*
1,1,0.010240,-0.009450,0.015350*
1,1,0.010240,0.009450,0.015350*
%
%AMM319*
21,1,0.015350,0.017720,-0.000000,-0.000000,0.000000*
21,1,0.000000,0.033070,-0.000000,-0.000000,0.000000*
1,1,0.015350,-0.000000,-0.008860*
1,1,0.015350,-0.000000,-0.008860*
1,1,0.015350,-0.000000,0.008860*
1,1,0.015350,-0.000000,0.008860*
%
%ADD102O,0.04488X0.02520*%
%ADD103O,0.11417X0.23228*%
%ADD107C,0.02362*%
%ADD109O,0.01535X0.02520*%
%ADD113R,0.01969X0.07874*%
%ADD121C,0.03937*%
%ADD139C,0.00472*%
%ADD157O,0.00984X0.01969*%
%ADD163C,0.03701*%
%ADD179R,0.22835X0.25197*%
%ADD181C,0.09449*%
%ADD182R,0.02559X0.01575*%
%ADD192O,0.05669X0.01417*%
%ADD193C,0.06000*%
%ADD202R,0.05906X0.05217*%
%ADD208C,0.04451*%
%ADD209O,0.02520X0.01535*%
%ADD211R,0.07874X0.06693*%
%ADD220R,0.02559X0.05157*%
%ADD226R,0.02913X0.09449*%
%ADD228R,0.06457X0.05669*%
%ADD242O,0.01575X0.00787*%
%ADD271M127*%
%ADD288M144*%
%ADD289M145*%
%ADD29O,0.03937X0.01969*%
%ADD290M146*%
%ADD291M147*%
%ADD292M148*%
%ADD293M149*%
%ADD294M150*%
%ADD295M151*%
%ADD296M152*%
%ADD297M153*%
%ADD298M154*%
%ADD31O,0.02520X0.04488*%
%ADD312M165*%
%ADD313M166*%
%ADD314M167*%
%ADD315M168*%
%ADD316M169*%
%ADD317O,0.02520X0.09213*%
%ADD318M170*%
%ADD319M171*%
%ADD320M172*%
%ADD321M173*%
%ADD322M174*%
%ADD328M178*%
%ADD330O,0.02126X0.01339*%
%ADD331O,0.01535X0.05512*%
%ADD336M184*%
%ADD341M189*%
%ADD342M190*%
%ADD343M191*%
%ADD35C,0.06693*%
%ADD379M227*%
%ADD380M228*%
%ADD381M229*%
%ADD382M230*%
%ADD383M231*%
%ADD384M232*%
%ADD385M233*%
%ADD386M234*%
%ADD387M235*%
%ADD39R,0.02362X0.05157*%
%ADD419M264*%
%ADD42R,0.07244X0.10000*%
%ADD43O,0.01339X0.02520*%
%ADD463M305*%
%ADD464M306*%
%ADD465M307*%
%ADD466M308*%
%ADD467M309*%
%ADD468M310*%
%ADD469M311*%
%ADD470M312*%
%ADD471M313*%
%ADD472M314*%
%ADD473M315*%
%ADD474M316*%
%ADD475M317*%
%ADD476M318*%
%ADD477M319*%
%ADD479O,0.02913X0.09213*%
%ADD53O,0.04882X0.01732*%
%ADD59O,0.01969X0.03937*%
%ADD74C,0.02913*%
%ADD77R,0.01575X0.02559*%
%ADD82O,0.00787X0.01969*%
%ADD84O,0.01417X0.05669*%
%ADD85C,0.03651*%
%ADD87O,0.01969X0.00984*%
X0000000Y0000000D02*
%LPD*%
G01*
D139*
X0026378Y0000591D02*
X0026378Y0020276D01*
X0026378Y0020276D02*
X0077559Y0020276D01*
X0077559Y0020276D02*
X0077559Y0000591D01*
X0077559Y0000591D02*
X0026378Y0000591D01*
G36*
X0077559Y0000591D02*
G01*
X0026378Y0000591D01*
X0026378Y0020276D01*
X0077559Y0020276D01*
X0077559Y0000591D01*
G37*
X0077559Y0000591D02*
X0026378Y0000591D01*
X0026378Y0020276D01*
X0077559Y0020276D01*
X0077559Y0000591D01*
D242*
X0237258Y0034627D03*
X0237258Y0037619D03*
X0237258Y0042245D03*
X0237258Y0046871D03*
X0237258Y0050177D03*
X0237258Y0053130D03*
X0237258Y0057756D03*
X0237258Y0062382D03*
D107*
X0277020Y0042540D03*
X0275347Y0035315D03*
X0273182Y0043386D03*
X0269737Y0042540D03*
X0266390Y0042245D03*
X0265111Y0035315D03*
X0259993Y0040473D03*
X0257434Y0035315D03*
X0285682Y0058642D03*
X0284501Y0042599D03*
G36*
G01*
X0198667Y0328156D02*
X0193746Y0328156D01*
G75*
G02*
X0193352Y0328550I0000000J0000394D01*
G01*
X0193352Y0331699D01*
G75*
G02*
X0193746Y0332093I0000394J0000000D01*
G01*
X0198667Y0332093D01*
G75*
G02*
X0199061Y0331699I0000000J-000394D01*
G01*
X0199061Y0328550D01*
G75*
G02*
X0198667Y0328156I-000394J0000000D01*
G01*
G37*
D193*
X0196206Y0326364D03*
X0196206Y0341364D03*
G36*
G01*
X0198667Y0335636D02*
X0193746Y0335636D01*
G75*
G02*
X0193352Y0336030I0000000J0000394D01*
G01*
X0193352Y0339180D01*
G75*
G02*
X0193746Y0339573I0000394J0000000D01*
G01*
X0198667Y0339573D01*
G75*
G02*
X0199061Y0339180I0000000J-000394D01*
G01*
X0199061Y0336030D01*
G75*
G02*
X0198667Y0335636I-000394J0000000D01*
G01*
G37*
G36*
G01*
X0194528Y0293504D02*
X0197598Y0293504D01*
G75*
G02*
X0197874Y0293228I0000000J-000276D01*
G01*
X0197874Y0291024D01*
G75*
G02*
X0197598Y0290748I-000276J0000000D01*
G01*
X0194528Y0290748D01*
G75*
G02*
X0194252Y0291024I0000000J0000276D01*
G01*
X0194252Y0293228D01*
G75*
G02*
X0194528Y0293504I0000276J0000000D01*
G01*
G37*
G36*
G01*
X0194528Y0287205D02*
X0197598Y0287205D01*
G75*
G02*
X0197874Y0286929I0000000J-000276D01*
G01*
X0197874Y0284724D01*
G75*
G02*
X0197598Y0284449I-000276J0000000D01*
G01*
X0194528Y0284449D01*
G75*
G02*
X0194252Y0284724I0000000J0000276D01*
G01*
X0194252Y0286929D01*
G75*
G02*
X0194528Y0287205I0000276J0000000D01*
G01*
G37*
G36*
G01*
X0066535Y0299469D02*
X0066535Y0302106D01*
G75*
G02*
X0066791Y0302362I0000256J0000000D01*
G01*
X0068839Y0302362D01*
G75*
G02*
X0069094Y0302106I0000000J-000256D01*
G01*
X0069094Y0299469D01*
G75*
G02*
X0068839Y0299213I-000256J0000000D01*
G01*
X0066791Y0299213D01*
G75*
G02*
X0066535Y0299469I0000000J0000256D01*
G01*
G37*
G36*
G01*
X0070374Y0299390D02*
X0070374Y0302185D01*
G75*
G02*
X0070551Y0302362I0000177J0000000D01*
G01*
X0071969Y0302362D01*
G75*
G02*
X0072146Y0302185I0000000J-000177D01*
G01*
X0072146Y0299390D01*
G75*
G02*
X0071969Y0299213I-000177J0000000D01*
G01*
X0070551Y0299213D01*
G75*
G02*
X0070374Y0299390I0000000J0000177D01*
G01*
G37*
G36*
G01*
X0073524Y0299390D02*
X0073524Y0302185D01*
G75*
G02*
X0073701Y0302362I0000177J0000000D01*
G01*
X0075118Y0302362D01*
G75*
G02*
X0075295Y0302185I0000000J-000177D01*
G01*
X0075295Y0299390D01*
G75*
G02*
X0075118Y0299213I-000177J0000000D01*
G01*
X0073701Y0299213D01*
G75*
G02*
X0073524Y0299390I0000000J0000177D01*
G01*
G37*
G36*
G01*
X0076575Y0299469D02*
X0076575Y0302106D01*
G75*
G02*
X0076831Y0302362I0000256J0000000D01*
G01*
X0078878Y0302362D01*
G75*
G02*
X0079134Y0302106I0000000J-000256D01*
G01*
X0079134Y0299469D01*
G75*
G02*
X0078878Y0299213I-000256J0000000D01*
G01*
X0076831Y0299213D01*
G75*
G02*
X0076575Y0299469I0000000J0000256D01*
G01*
G37*
G36*
G01*
X0076575Y0306555D02*
X0076575Y0309193D01*
G75*
G02*
X0076831Y0309449I0000256J0000000D01*
G01*
X0078878Y0309449D01*
G75*
G02*
X0079134Y0309193I0000000J-000256D01*
G01*
X0079134Y0306555D01*
G75*
G02*
X0078878Y0306299I-000256J0000000D01*
G01*
X0076831Y0306299D01*
G75*
G02*
X0076575Y0306555I0000000J0000256D01*
G01*
G37*
G36*
G01*
X0073524Y0306476D02*
X0073524Y0309272D01*
G75*
G02*
X0073701Y0309449I0000177J0000000D01*
G01*
X0075118Y0309449D01*
G75*
G02*
X0075295Y0309272I0000000J-000177D01*
G01*
X0075295Y0306476D01*
G75*
G02*
X0075118Y0306299I-000177J0000000D01*
G01*
X0073701Y0306299D01*
G75*
G02*
X0073524Y0306476I0000000J0000177D01*
G01*
G37*
G36*
G01*
X0070374Y0306476D02*
X0070374Y0309272D01*
G75*
G02*
X0070551Y0309449I0000177J0000000D01*
G01*
X0071969Y0309449D01*
G75*
G02*
X0072146Y0309272I0000000J-000177D01*
G01*
X0072146Y0306476D01*
G75*
G02*
X0071969Y0306299I-000177J0000000D01*
G01*
X0070551Y0306299D01*
G75*
G02*
X0070374Y0306476I0000000J0000177D01*
G01*
G37*
G36*
G01*
X0066535Y0306555D02*
X0066535Y0309193D01*
G75*
G02*
X0066791Y0309449I0000256J0000000D01*
G01*
X0068839Y0309449D01*
G75*
G02*
X0069094Y0309193I0000000J-000256D01*
G01*
X0069094Y0306555D01*
G75*
G02*
X0068839Y0306299I-000256J0000000D01*
G01*
X0066791Y0306299D01*
G75*
G02*
X0066535Y0306555I0000000J0000256D01*
G01*
G37*
G36*
G01*
X0079228Y0354909D02*
X0079228Y0352272D01*
G75*
G02*
X0078972Y0352016I-000256J0000000D01*
G01*
X0076925Y0352016D01*
G75*
G02*
X0076669Y0352272I0000000J0000256D01*
G01*
X0076669Y0354909D01*
G75*
G02*
X0076925Y0355165I0000256J0000000D01*
G01*
X0078972Y0355165D01*
G75*
G02*
X0079228Y0354909I0000000J-000256D01*
G01*
G37*
G36*
G01*
X0075390Y0354988D02*
X0075390Y0352193D01*
G75*
G02*
X0075213Y0352016I-000177J0000000D01*
G01*
X0073795Y0352016D01*
G75*
G02*
X0073618Y0352193I0000000J0000177D01*
G01*
X0073618Y0354988D01*
G75*
G02*
X0073795Y0355165I0000177J0000000D01*
G01*
X0075213Y0355165D01*
G75*
G02*
X0075390Y0354988I0000000J-000177D01*
G01*
G37*
G36*
G01*
X0072240Y0354988D02*
X0072240Y0352193D01*
G75*
G02*
X0072063Y0352016I-000177J0000000D01*
G01*
X0070646Y0352016D01*
G75*
G02*
X0070469Y0352193I0000000J0000177D01*
G01*
X0070469Y0354988D01*
G75*
G02*
X0070646Y0355165I0000177J0000000D01*
G01*
X0072063Y0355165D01*
G75*
G02*
X0072240Y0354988I0000000J-000177D01*
G01*
G37*
G36*
G01*
X0069189Y0354909D02*
X0069189Y0352272D01*
G75*
G02*
X0068933Y0352016I-000256J0000000D01*
G01*
X0066886Y0352016D01*
G75*
G02*
X0066630Y0352272I0000000J0000256D01*
G01*
X0066630Y0354909D01*
G75*
G02*
X0066886Y0355165I0000256J0000000D01*
G01*
X0068933Y0355165D01*
G75*
G02*
X0069189Y0354909I0000000J-000256D01*
G01*
G37*
G36*
G01*
X0069189Y0347823D02*
X0069189Y0345185D01*
G75*
G02*
X0068933Y0344929I-000256J0000000D01*
G01*
X0066886Y0344929D01*
G75*
G02*
X0066630Y0345185I0000000J0000256D01*
G01*
X0066630Y0347823D01*
G75*
G02*
X0066886Y0348079I0000256J0000000D01*
G01*
X0068933Y0348079D01*
G75*
G02*
X0069189Y0347823I0000000J-000256D01*
G01*
G37*
G36*
G01*
X0072240Y0347902D02*
X0072240Y0345106D01*
G75*
G02*
X0072063Y0344929I-000177J0000000D01*
G01*
X0070646Y0344929D01*
G75*
G02*
X0070469Y0345106I0000000J0000177D01*
G01*
X0070469Y0347902D01*
G75*
G02*
X0070646Y0348079I0000177J0000000D01*
G01*
X0072063Y0348079D01*
G75*
G02*
X0072240Y0347902I0000000J-000177D01*
G01*
G37*
G36*
G01*
X0075390Y0347902D02*
X0075390Y0345106D01*
G75*
G02*
X0075213Y0344929I-000177J0000000D01*
G01*
X0073795Y0344929D01*
G75*
G02*
X0073618Y0345106I0000000J0000177D01*
G01*
X0073618Y0347902D01*
G75*
G02*
X0073795Y0348079I0000177J0000000D01*
G01*
X0075213Y0348079D01*
G75*
G02*
X0075390Y0347902I0000000J-000177D01*
G01*
G37*
G36*
G01*
X0079228Y0347823D02*
X0079228Y0345185D01*
G75*
G02*
X0078972Y0344929I-000256J0000000D01*
G01*
X0076925Y0344929D01*
G75*
G02*
X0076669Y0345185I0000000J0000256D01*
G01*
X0076669Y0347823D01*
G75*
G02*
X0076925Y0348079I0000256J0000000D01*
G01*
X0078972Y0348079D01*
G75*
G02*
X0079228Y0347823I0000000J-000256D01*
G01*
G37*
G36*
G01*
X0063760Y0092362D02*
X0063760Y0095039D01*
G75*
G02*
X0064094Y0095374I0000335J0000000D01*
G01*
X0066772Y0095374D01*
G75*
G02*
X0067106Y0095039I0000000J-000335D01*
G01*
X0067106Y0092362D01*
G75*
G02*
X0066772Y0092028I-000335J0000000D01*
G01*
X0064094Y0092028D01*
G75*
G02*
X0063760Y0092362I0000000J0000335D01*
G01*
G37*
G36*
G01*
X0069980Y0092362D02*
X0069980Y0095039D01*
G75*
G02*
X0070315Y0095374I0000335J0000000D01*
G01*
X0072992Y0095374D01*
G75*
G02*
X0073327Y0095039I0000000J-000335D01*
G01*
X0073327Y0092362D01*
G75*
G02*
X0072992Y0092028I-000335J0000000D01*
G01*
X0070315Y0092028D01*
G75*
G02*
X0069980Y0092362I0000000J0000335D01*
G01*
G37*
X0188514Y0326449D03*
G36*
G01*
X0190975Y0328240D02*
X0186053Y0328240D01*
G75*
G02*
X0185660Y0328634I0000000J0000394D01*
G01*
X0185660Y0331784D01*
G75*
G02*
X0186053Y0332177I0000394J0000000D01*
G01*
X0190975Y0332177D01*
G75*
G02*
X0191368Y0331784I0000000J-000394D01*
G01*
X0191368Y0328634D01*
G75*
G02*
X0190975Y0328240I-000394J0000000D01*
G01*
G37*
G36*
G01*
X0190975Y0335721D02*
X0186053Y0335721D01*
G75*
G02*
X0185660Y0336114I0000000J0000394D01*
G01*
X0185660Y0339264D01*
G75*
G02*
X0186053Y0339658I0000394J0000000D01*
G01*
X0190975Y0339658D01*
G75*
G02*
X0191368Y0339264I0000000J-000394D01*
G01*
X0191368Y0336114D01*
G75*
G02*
X0190975Y0335721I-000394J0000000D01*
G01*
G37*
X0188514Y0341449D03*
G36*
G01*
X0032677Y0236594D02*
X0032677Y0233878D01*
G75*
G02*
X0031772Y0232972I-000906J0000000D01*
G01*
X0026496Y0232972D01*
G75*
G02*
X0025591Y0233878I0000000J0000906D01*
G01*
X0025591Y0236594D01*
G75*
G02*
X0026496Y0237500I0000906J0000000D01*
G01*
X0031772Y0237500D01*
G75*
G02*
X0032677Y0236594I0000000J-000906D01*
G01*
G37*
G36*
G01*
X0032677Y0248012D02*
X0032677Y0245295D01*
G75*
G02*
X0031772Y0244390I-000906J0000000D01*
G01*
X0026496Y0244390D01*
G75*
G02*
X0025591Y0245295I0000000J0000906D01*
G01*
X0025591Y0248012D01*
G75*
G02*
X0026496Y0248917I0000906J0000000D01*
G01*
X0031772Y0248917D01*
G75*
G02*
X0032677Y0248012I0000000J-000906D01*
G01*
G37*
X0144488Y0341535D03*
G36*
G01*
X0140945Y0336240D02*
X0140945Y0338957D01*
G75*
G02*
X0141850Y0339862I0000906J0000000D01*
G01*
X0147126Y0339862D01*
G75*
G02*
X0148031Y0338957I0000000J-000906D01*
G01*
X0148031Y0336240D01*
G75*
G02*
X0147126Y0335335I-000906J0000000D01*
G01*
X0141850Y0335335D01*
G75*
G02*
X0140945Y0336240I0000000J0000906D01*
G01*
G37*
X0144488Y0322244D03*
G36*
G01*
X0140945Y0324823D02*
X0140945Y0327539D01*
G75*
G02*
X0141850Y0328445I0000906J0000000D01*
G01*
X0147126Y0328445D01*
G75*
G02*
X0148031Y0327539I0000000J-000906D01*
G01*
X0148031Y0324823D01*
G75*
G02*
X0147126Y0323917I-000906J0000000D01*
G01*
X0141850Y0323917D01*
G75*
G02*
X0140945Y0324823I0000000J0000906D01*
G01*
G37*
G36*
G01*
X0224705Y0301969D02*
X0224705Y0300787D01*
G75*
G02*
X0224114Y0300197I-000591J0000000D01*
G01*
X0219488Y0300197D01*
G75*
G02*
X0218898Y0300787I0000000J0000591D01*
G01*
X0218898Y0301969D01*
G75*
G02*
X0219488Y0302559I0000591J0000000D01*
G01*
X0224114Y0302559D01*
G75*
G02*
X0224705Y0301969I0000000J-000591D01*
G01*
G37*
G36*
G01*
X0217323Y0305709D02*
X0217323Y0304528D01*
G75*
G02*
X0216732Y0303937I-000591J0000000D01*
G01*
X0212106Y0303937D01*
G75*
G02*
X0211516Y0304528I0000000J0000591D01*
G01*
X0211516Y0305709D01*
G75*
G02*
X0212106Y0306299I0000591J0000000D01*
G01*
X0216732Y0306299D01*
G75*
G02*
X0217323Y0305709I0000000J-000591D01*
G01*
G37*
G36*
G01*
X0224705Y0309449D02*
X0224705Y0308268D01*
G75*
G02*
X0224114Y0307677I-000591J0000000D01*
G01*
X0219488Y0307677D01*
G75*
G02*
X0218898Y0308268I0000000J0000591D01*
G01*
X0218898Y0309449D01*
G75*
G02*
X0219488Y0310039I0000591J0000000D01*
G01*
X0224114Y0310039D01*
G75*
G02*
X0224705Y0309449I0000000J-000591D01*
G01*
G37*
G36*
G01*
X0069140Y0314961D02*
X0071030Y0314961D01*
G75*
G02*
X0071266Y0314724I0000000J-000236D01*
G01*
X0071266Y0312835D01*
G75*
G02*
X0071030Y0312598I-000236J0000000D01*
G01*
X0069140Y0312598D01*
G75*
G02*
X0068904Y0312835I0000000J0000236D01*
G01*
X0068904Y0314724D01*
G75*
G02*
X0069140Y0314961I0000236J0000000D01*
G01*
G37*
G36*
G01*
X0077801Y0314961D02*
X0079691Y0314961D01*
G75*
G02*
X0079927Y0314724I0000000J-000236D01*
G01*
X0079927Y0312835D01*
G75*
G02*
X0079691Y0312598I-000236J0000000D01*
G01*
X0077801Y0312598D01*
G75*
G02*
X0077565Y0312835I0000000J0000236D01*
G01*
X0077565Y0314724D01*
G75*
G02*
X0077801Y0314961I0000236J0000000D01*
G01*
G37*
G36*
G01*
X0052756Y0331496D02*
X0049213Y0331496D01*
G75*
G02*
X0048819Y0331890I0000000J0000394D01*
G01*
X0048819Y0335039D01*
G75*
G02*
X0049213Y0335433I0000394J0000000D01*
G01*
X0052756Y0335433D01*
G75*
G02*
X0053150Y0335039I0000000J-000394D01*
G01*
X0053150Y0331890D01*
G75*
G02*
X0052756Y0331496I-000394J0000000D01*
G01*
G37*
G36*
G01*
X0052756Y0338189D02*
X0049213Y0338189D01*
G75*
G02*
X0048819Y0338583I0000000J0000394D01*
G01*
X0048819Y0341732D01*
G75*
G02*
X0049213Y0342126I0000394J0000000D01*
G01*
X0052756Y0342126D01*
G75*
G02*
X0053150Y0341732I0000000J-000394D01*
G01*
X0053150Y0338583D01*
G75*
G02*
X0052756Y0338189I-000394J0000000D01*
G01*
G37*
G36*
G01*
X0107421Y0290787D02*
X0107421Y0293465D01*
G75*
G02*
X0107756Y0293799I0000335J0000000D01*
G01*
X0110433Y0293799D01*
G75*
G02*
X0110768Y0293465I0000000J-000335D01*
G01*
X0110768Y0290787D01*
G75*
G02*
X0110433Y0290453I-000335J0000000D01*
G01*
X0107756Y0290453D01*
G75*
G02*
X0107421Y0290787I0000000J0000335D01*
G01*
G37*
G36*
G01*
X0113642Y0290787D02*
X0113642Y0293465D01*
G75*
G02*
X0113976Y0293799I0000335J0000000D01*
G01*
X0116654Y0293799D01*
G75*
G02*
X0116988Y0293465I0000000J-000335D01*
G01*
X0116988Y0290787D01*
G75*
G02*
X0116654Y0290453I-000335J0000000D01*
G01*
X0113976Y0290453D01*
G75*
G02*
X0113642Y0290787I0000000J0000335D01*
G01*
G37*
G36*
G01*
X0172165Y0023819D02*
X0179409Y0023819D01*
G75*
G02*
X0179724Y0023504I0000000J-000315D01*
G01*
X0179724Y0020984D01*
G75*
G02*
X0179409Y0020669I-000315J0000000D01*
G01*
X0172165Y0020669D01*
G75*
G02*
X0171850Y0020984I0000000J0000315D01*
G01*
X0171850Y0023504D01*
G75*
G02*
X0172165Y0023819I0000315J0000000D01*
G01*
G37*
G36*
G01*
X0172165Y0007283D02*
X0179409Y0007283D01*
G75*
G02*
X0179724Y0006969I0000000J-000315D01*
G01*
X0179724Y0004449D01*
G75*
G02*
X0179409Y0004134I-000315J0000000D01*
G01*
X0172165Y0004134D01*
G75*
G02*
X0171850Y0004449I0000000J0000315D01*
G01*
X0171850Y0006969D01*
G75*
G02*
X0172165Y0007283I0000315J0000000D01*
G01*
G37*
G36*
G01*
X0067159Y0402805D02*
X0069049Y0402805D01*
G75*
G02*
X0069285Y0402569I0000000J-000236D01*
G01*
X0069285Y0400679D01*
G75*
G02*
X0069049Y0400443I-000236J0000000D01*
G01*
X0067159Y0400443D01*
G75*
G02*
X0066923Y0400679I0000000J0000236D01*
G01*
X0066923Y0402569D01*
G75*
G02*
X0067159Y0402805I0000236J0000000D01*
G01*
G37*
G36*
G01*
X0075821Y0402805D02*
X0077711Y0402805D01*
G75*
G02*
X0077947Y0402569I0000000J-000236D01*
G01*
X0077947Y0400679D01*
G75*
G02*
X0077711Y0400443I-000236J0000000D01*
G01*
X0075821Y0400443D01*
G75*
G02*
X0075585Y0400679I0000000J0000236D01*
G01*
X0075585Y0402569D01*
G75*
G02*
X0075821Y0402805I0000236J0000000D01*
G01*
G37*
G36*
G01*
X0198091Y0024567D02*
X0198091Y0021890D01*
G75*
G02*
X0197756Y0021555I-000335J0000000D01*
G01*
X0195079Y0021555D01*
G75*
G02*
X0194744Y0021890I0000000J0000335D01*
G01*
X0194744Y0024567D01*
G75*
G02*
X0195079Y0024902I0000335J0000000D01*
G01*
X0197756Y0024902D01*
G75*
G02*
X0198091Y0024567I0000000J-000335D01*
G01*
G37*
G36*
G01*
X0191870Y0024567D02*
X0191870Y0021890D01*
G75*
G02*
X0191535Y0021555I-000335J0000000D01*
G01*
X0188858Y0021555D01*
G75*
G02*
X0188524Y0021890I0000000J0000335D01*
G01*
X0188524Y0024567D01*
G75*
G02*
X0188858Y0024902I0000335J0000000D01*
G01*
X0191535Y0024902D01*
G75*
G02*
X0191870Y0024567I0000000J-000335D01*
G01*
G37*
G36*
G01*
X0028346Y0102854D02*
X0027165Y0102854D01*
G75*
G02*
X0026575Y0103445I0000000J0000591D01*
G01*
X0026575Y0108071D01*
G75*
G02*
X0027165Y0108661I0000591J0000000D01*
G01*
X0028346Y0108661D01*
G75*
G02*
X0028937Y0108071I0000000J-000591D01*
G01*
X0028937Y0103445D01*
G75*
G02*
X0028346Y0102854I-000591J0000000D01*
G01*
G37*
G36*
G01*
X0032087Y0110236D02*
X0030906Y0110236D01*
G75*
G02*
X0030315Y0110827I0000000J0000591D01*
G01*
X0030315Y0115453D01*
G75*
G02*
X0030906Y0116043I0000591J0000000D01*
G01*
X0032087Y0116043D01*
G75*
G02*
X0032677Y0115453I0000000J-000591D01*
G01*
X0032677Y0110827D01*
G75*
G02*
X0032087Y0110236I-000591J0000000D01*
G01*
G37*
G36*
G01*
X0035827Y0102854D02*
X0034646Y0102854D01*
G75*
G02*
X0034055Y0103445I0000000J0000591D01*
G01*
X0034055Y0108071D01*
G75*
G02*
X0034646Y0108661I0000591J0000000D01*
G01*
X0035827Y0108661D01*
G75*
G02*
X0036417Y0108071I0000000J-000591D01*
G01*
X0036417Y0103445D01*
G75*
G02*
X0035827Y0102854I-000591J0000000D01*
G01*
G37*
G36*
G01*
X0032677Y0255886D02*
X0032677Y0253169D01*
G75*
G02*
X0031772Y0252264I-000906J0000000D01*
G01*
X0026496Y0252264D01*
G75*
G02*
X0025591Y0253169I0000000J0000906D01*
G01*
X0025591Y0255886D01*
G75*
G02*
X0026496Y0256791I0000906J0000000D01*
G01*
X0031772Y0256791D01*
G75*
G02*
X0032677Y0255886I0000000J-000906D01*
G01*
G37*
G36*
G01*
X0032677Y0267303D02*
X0032677Y0264587D01*
G75*
G02*
X0031772Y0263681I-000906J0000000D01*
G01*
X0026496Y0263681D01*
G75*
G02*
X0025591Y0264587I0000000J0000906D01*
G01*
X0025591Y0267303D01*
G75*
G02*
X0026496Y0268209I0000906J0000000D01*
G01*
X0031772Y0268209D01*
G75*
G02*
X0032677Y0267303I0000000J-000906D01*
G01*
G37*
G36*
G01*
X0039764Y0139803D02*
X0039764Y0135787D01*
G75*
G02*
X0039409Y0135433I-000354J0000000D01*
G01*
X0036575Y0135433D01*
G75*
G02*
X0036220Y0135787I0000000J0000354D01*
G01*
X0036220Y0139803D01*
G75*
G02*
X0036575Y0140157I0000354J0000000D01*
G01*
X0039409Y0140157D01*
G75*
G02*
X0039764Y0139803I0000000J-000354D01*
G01*
G37*
G36*
G01*
X0026772Y0139803D02*
X0026772Y0135787D01*
G75*
G02*
X0026417Y0135433I-000354J0000000D01*
G01*
X0023583Y0135433D01*
G75*
G02*
X0023228Y0135787I0000000J0000354D01*
G01*
X0023228Y0139803D01*
G75*
G02*
X0023583Y0140157I0000354J0000000D01*
G01*
X0026417Y0140157D01*
G75*
G02*
X0026772Y0139803I0000000J-000354D01*
G01*
G37*
G36*
G01*
X0052756Y0311024D02*
X0049213Y0311024D01*
G75*
G02*
X0048819Y0311417I0000000J0000394D01*
G01*
X0048819Y0314567D01*
G75*
G02*
X0049213Y0314961I0000394J0000000D01*
G01*
X0052756Y0314961D01*
G75*
G02*
X0053150Y0314567I0000000J-000394D01*
G01*
X0053150Y0311417D01*
G75*
G02*
X0052756Y0311024I-000394J0000000D01*
G01*
G37*
G36*
G01*
X0052756Y0317717D02*
X0049213Y0317717D01*
G75*
G02*
X0048819Y0318110I0000000J0000394D01*
G01*
X0048819Y0321260D01*
G75*
G02*
X0049213Y0321654I0000394J0000000D01*
G01*
X0052756Y0321654D01*
G75*
G02*
X0053150Y0321260I0000000J-000394D01*
G01*
X0053150Y0318110D01*
G75*
G02*
X0052756Y0317717I-000394J0000000D01*
G01*
G37*
D35*
X0243929Y0287795D03*
G36*
G01*
X0075654Y0096512D02*
X0075654Y0099583D01*
G75*
G02*
X0075929Y0099858I0000276J0000000D01*
G01*
X0078134Y0099858D01*
G75*
G02*
X0078409Y0099583I0000000J-000276D01*
G01*
X0078409Y0096512D01*
G75*
G02*
X0078134Y0096236I-000276J0000000D01*
G01*
X0075929Y0096236D01*
G75*
G02*
X0075654Y0096512I0000000J0000276D01*
G01*
G37*
G36*
G01*
X0081953Y0096512D02*
X0081953Y0099583D01*
G75*
G02*
X0082228Y0099858I0000276J0000000D01*
G01*
X0084433Y0099858D01*
G75*
G02*
X0084709Y0099583I0000000J-000276D01*
G01*
X0084709Y0096512D01*
G75*
G02*
X0084433Y0096236I-000276J0000000D01*
G01*
X0082228Y0096236D01*
G75*
G02*
X0081953Y0096512I0000000J0000276D01*
G01*
G37*
G36*
G01*
X0067165Y0395669D02*
X0069055Y0395669D01*
G75*
G02*
X0069291Y0395433I0000000J-000236D01*
G01*
X0069291Y0393543D01*
G75*
G02*
X0069055Y0393307I-000236J0000000D01*
G01*
X0067165Y0393307D01*
G75*
G02*
X0066929Y0393543I0000000J0000236D01*
G01*
X0066929Y0395433D01*
G75*
G02*
X0067165Y0395669I0000236J0000000D01*
G01*
G37*
G36*
G01*
X0075827Y0395669D02*
X0077717Y0395669D01*
G75*
G02*
X0077953Y0395433I0000000J-000236D01*
G01*
X0077953Y0393543D01*
G75*
G02*
X0077717Y0393307I-000236J0000000D01*
G01*
X0075827Y0393307D01*
G75*
G02*
X0075591Y0393543I0000000J0000236D01*
G01*
X0075591Y0395433D01*
G75*
G02*
X0075827Y0395669I0000236J0000000D01*
G01*
G37*
G36*
G01*
X0203346Y0302583D02*
X0203346Y0299512D01*
G75*
G02*
X0203071Y0299236I-000276J0000000D01*
G01*
X0200866Y0299236D01*
G75*
G02*
X0200591Y0299512I0000000J0000276D01*
G01*
X0200591Y0302583D01*
G75*
G02*
X0200866Y0302858I0000276J0000000D01*
G01*
X0203071Y0302858D01*
G75*
G02*
X0203346Y0302583I0000000J-000276D01*
G01*
G37*
G36*
G01*
X0197047Y0302583D02*
X0197047Y0299512D01*
G75*
G02*
X0196772Y0299236I-000276J0000000D01*
G01*
X0194567Y0299236D01*
G75*
G02*
X0194291Y0299512I0000000J0000276D01*
G01*
X0194291Y0302583D01*
G75*
G02*
X0194567Y0302858I0000276J0000000D01*
G01*
X0196772Y0302858D01*
G75*
G02*
X0197047Y0302583I0000000J-000276D01*
G01*
G37*
G36*
G01*
X0052756Y0372441D02*
X0049213Y0372441D01*
G75*
G02*
X0048819Y0372835I0000000J0000394D01*
G01*
X0048819Y0375984D01*
G75*
G02*
X0049213Y0376378I0000394J0000000D01*
G01*
X0052756Y0376378D01*
G75*
G02*
X0053150Y0375984I0000000J-000394D01*
G01*
X0053150Y0372835D01*
G75*
G02*
X0052756Y0372441I-000394J0000000D01*
G01*
G37*
G36*
G01*
X0052756Y0379134D02*
X0049213Y0379134D01*
G75*
G02*
X0048819Y0379528I0000000J0000394D01*
G01*
X0048819Y0382677D01*
G75*
G02*
X0049213Y0383071I0000394J0000000D01*
G01*
X0052756Y0383071D01*
G75*
G02*
X0053150Y0382677I0000000J-000394D01*
G01*
X0053150Y0379528D01*
G75*
G02*
X0052756Y0379134I-000394J0000000D01*
G01*
G37*
D193*
X0096457Y0326358D03*
G36*
G01*
X0098917Y0328150D02*
X0093996Y0328150D01*
G75*
G02*
X0093602Y0328543I0000000J0000394D01*
G01*
X0093602Y0331693D01*
G75*
G02*
X0093996Y0332087I0000394J0000000D01*
G01*
X0098917Y0332087D01*
G75*
G02*
X0099311Y0331693I0000000J-000394D01*
G01*
X0099311Y0328543D01*
G75*
G02*
X0098917Y0328150I-000394J0000000D01*
G01*
G37*
G36*
G01*
X0098917Y0335630D02*
X0093996Y0335630D01*
G75*
G02*
X0093602Y0336024I0000000J0000394D01*
G01*
X0093602Y0339173D01*
G75*
G02*
X0093996Y0339567I0000394J0000000D01*
G01*
X0098917Y0339567D01*
G75*
G02*
X0099311Y0339173I0000000J-000394D01*
G01*
X0099311Y0336024D01*
G75*
G02*
X0098917Y0335630I-000394J0000000D01*
G01*
G37*
X0096457Y0341358D03*
X0292539Y0407087D03*
G36*
G01*
X0290748Y0409547D02*
X0290748Y0404626D01*
G75*
G02*
X0290354Y0404232I-000394J0000000D01*
G01*
X0287205Y0404232D01*
G75*
G02*
X0286811Y0404626I0000000J0000394D01*
G01*
X0286811Y0409547D01*
G75*
G02*
X0287205Y0409941I0000394J0000000D01*
G01*
X0290354Y0409941D01*
G75*
G02*
X0290748Y0409547I0000000J-000394D01*
G01*
G37*
G36*
G01*
X0283268Y0409547D02*
X0283268Y0404626D01*
G75*
G02*
X0282874Y0404232I-000394J0000000D01*
G01*
X0279724Y0404232D01*
G75*
G02*
X0279331Y0404626I0000000J0000394D01*
G01*
X0279331Y0409547D01*
G75*
G02*
X0279724Y0409941I0000394J0000000D01*
G01*
X0282874Y0409941D01*
G75*
G02*
X0283268Y0409547I0000000J-000394D01*
G01*
G37*
X0277539Y0407087D03*
D121*
X0122441Y0025394D03*
X0105118Y0025394D03*
D113*
X0107480Y0036024D03*
X0110630Y0036024D03*
X0113780Y0036024D03*
X0116929Y0036024D03*
X0120079Y0036024D03*
D211*
X0096260Y0014173D03*
X0131299Y0014173D03*
X0096260Y0035630D03*
X0131299Y0035630D03*
G36*
G01*
X0045362Y0219114D02*
X0045362Y0216398D01*
G75*
G02*
X0044457Y0215492I-000906J0000000D01*
G01*
X0039181Y0215492D01*
G75*
G02*
X0038276Y0216398I0000000J0000906D01*
G01*
X0038276Y0219114D01*
G75*
G02*
X0039181Y0220020I0000906J0000000D01*
G01*
X0044457Y0220020D01*
G75*
G02*
X0045362Y0219114I0000000J-000906D01*
G01*
G37*
G36*
G01*
X0045362Y0230531D02*
X0045362Y0227815D01*
G75*
G02*
X0044457Y0226909I-000906J0000000D01*
G01*
X0039181Y0226909D01*
G75*
G02*
X0038276Y0227815I0000000J0000906D01*
G01*
X0038276Y0230531D01*
G75*
G02*
X0039181Y0231437I0000906J0000000D01*
G01*
X0044457Y0231437D01*
G75*
G02*
X0045362Y0230531I0000000J-000906D01*
G01*
G37*
G36*
G01*
X0300787Y0340157D02*
X0297008Y0340157D01*
G75*
G02*
X0296535Y0340630I0000000J0000472D01*
G01*
X0296535Y0348346D01*
G75*
G02*
X0297008Y0348819I0000472J0000000D01*
G01*
X0300787Y0348819D01*
G75*
G02*
X0301260Y0348346I0000000J-000472D01*
G01*
X0301260Y0340630D01*
G75*
G02*
X0300787Y0340157I-000472J0000000D01*
G01*
G37*
D179*
X0307874Y0369291D03*
G36*
G01*
X0318740Y0340157D02*
X0314961Y0340157D01*
G75*
G02*
X0314488Y0340630I0000000J0000472D01*
G01*
X0314488Y0348346D01*
G75*
G02*
X0314961Y0348819I0000472J0000000D01*
G01*
X0318740Y0348819D01*
G75*
G02*
X0319213Y0348346I0000000J-000472D01*
G01*
X0319213Y0340630D01*
G75*
G02*
X0318740Y0340157I-000472J0000000D01*
G01*
G37*
G36*
G01*
X0032677Y0200098D02*
X0033858Y0200098D01*
G75*
G02*
X0034449Y0199508I0000000J-000591D01*
G01*
X0034449Y0194882D01*
G75*
G02*
X0033858Y0194291I-000591J0000000D01*
G01*
X0032677Y0194291D01*
G75*
G02*
X0032087Y0194882I0000000J0000591D01*
G01*
X0032087Y0199508D01*
G75*
G02*
X0032677Y0200098I0000591J0000000D01*
G01*
G37*
G36*
G01*
X0028937Y0192717D02*
X0030118Y0192717D01*
G75*
G02*
X0030709Y0192126I0000000J-000591D01*
G01*
X0030709Y0187500D01*
G75*
G02*
X0030118Y0186909I-000591J0000000D01*
G01*
X0028937Y0186909D01*
G75*
G02*
X0028346Y0187500I0000000J0000591D01*
G01*
X0028346Y0192126D01*
G75*
G02*
X0028937Y0192717I0000591J0000000D01*
G01*
G37*
G36*
G01*
X0025197Y0200098D02*
X0026378Y0200098D01*
G75*
G02*
X0026969Y0199508I0000000J-000591D01*
G01*
X0026969Y0194882D01*
G75*
G02*
X0026378Y0194291I-000591J0000000D01*
G01*
X0025197Y0194291D01*
G75*
G02*
X0024606Y0194882I0000000J0000591D01*
G01*
X0024606Y0199508D01*
G75*
G02*
X0025197Y0200098I0000591J0000000D01*
G01*
G37*
G36*
G01*
X0028740Y0118996D02*
X0027559Y0118996D01*
G75*
G02*
X0026969Y0119587I0000000J0000591D01*
G01*
X0026969Y0124213D01*
G75*
G02*
X0027559Y0124803I0000591J0000000D01*
G01*
X0028740Y0124803D01*
G75*
G02*
X0029331Y0124213I0000000J-000591D01*
G01*
X0029331Y0119587D01*
G75*
G02*
X0028740Y0118996I-000591J0000000D01*
G01*
G37*
G36*
G01*
X0032480Y0126378D02*
X0031299Y0126378D01*
G75*
G02*
X0030709Y0126969I0000000J0000591D01*
G01*
X0030709Y0131594D01*
G75*
G02*
X0031299Y0132185I0000591J0000000D01*
G01*
X0032480Y0132185D01*
G75*
G02*
X0033071Y0131594I0000000J-000591D01*
G01*
X0033071Y0126969D01*
G75*
G02*
X0032480Y0126378I-000591J0000000D01*
G01*
G37*
G36*
G01*
X0036220Y0118996D02*
X0035039Y0118996D01*
G75*
G02*
X0034449Y0119587I0000000J0000591D01*
G01*
X0034449Y0124213D01*
G75*
G02*
X0035039Y0124803I0000591J0000000D01*
G01*
X0036220Y0124803D01*
G75*
G02*
X0036811Y0124213I0000000J-000591D01*
G01*
X0036811Y0119587D01*
G75*
G02*
X0036220Y0118996I-000591J0000000D01*
G01*
G37*
G36*
G01*
X0235465Y0287598D02*
X0232394Y0287598D01*
G75*
G02*
X0232118Y0287874I0000000J0000276D01*
G01*
X0232118Y0290079D01*
G75*
G02*
X0232394Y0290354I0000276J0000000D01*
G01*
X0235465Y0290354D01*
G75*
G02*
X0235740Y0290079I0000000J-000276D01*
G01*
X0235740Y0287874D01*
G75*
G02*
X0235465Y0287598I-000276J0000000D01*
G01*
G37*
G36*
G01*
X0235465Y0293898D02*
X0232394Y0293898D01*
G75*
G02*
X0232118Y0294173I0000000J0000276D01*
G01*
X0232118Y0296378D01*
G75*
G02*
X0232394Y0296654I0000276J0000000D01*
G01*
X0235465Y0296654D01*
G75*
G02*
X0235740Y0296378I0000000J-000276D01*
G01*
X0235740Y0294173D01*
G75*
G02*
X0235465Y0293898I-000276J0000000D01*
G01*
G37*
G36*
G01*
X0028307Y0157382D02*
X0029567Y0157382D01*
G75*
G02*
X0029724Y0157224I0000000J-000157D01*
G01*
X0029724Y0154980D01*
G75*
G02*
X0029567Y0154823I-000157J0000000D01*
G01*
X0028307Y0154823D01*
G75*
G02*
X0028150Y0154980I0000000J0000157D01*
G01*
X0028150Y0157224D01*
G75*
G02*
X0028307Y0157382I0000157J0000000D01*
G01*
G37*
G36*
G01*
X0025748Y0157382D02*
X0027008Y0157382D01*
G75*
G02*
X0027165Y0157224I0000000J-000157D01*
G01*
X0027165Y0154980D01*
G75*
G02*
X0027008Y0154823I-000157J0000000D01*
G01*
X0025748Y0154823D01*
G75*
G02*
X0025591Y0154980I0000000J0000157D01*
G01*
X0025591Y0157224D01*
G75*
G02*
X0025748Y0157382I0000157J0000000D01*
G01*
G37*
G36*
G01*
X0023189Y0157382D02*
X0024449Y0157382D01*
G75*
G02*
X0024606Y0157224I0000000J-000157D01*
G01*
X0024606Y0154980D01*
G75*
G02*
X0024449Y0154823I-000157J0000000D01*
G01*
X0023189Y0154823D01*
G75*
G02*
X0023031Y0154980I0000000J0000157D01*
G01*
X0023031Y0157224D01*
G75*
G02*
X0023189Y0157382I0000157J0000000D01*
G01*
G37*
G36*
G01*
X0023189Y0149902D02*
X0024449Y0149902D01*
G75*
G02*
X0024606Y0149744I0000000J-000157D01*
G01*
X0024606Y0147500D01*
G75*
G02*
X0024449Y0147343I-000157J0000000D01*
G01*
X0023189Y0147343D01*
G75*
G02*
X0023031Y0147500I0000000J0000157D01*
G01*
X0023031Y0149744D01*
G75*
G02*
X0023189Y0149902I0000157J0000000D01*
G01*
G37*
G36*
G01*
X0025748Y0149902D02*
X0027008Y0149902D01*
G75*
G02*
X0027165Y0149744I0000000J-000157D01*
G01*
X0027165Y0147500D01*
G75*
G02*
X0027008Y0147343I-000157J0000000D01*
G01*
X0025748Y0147343D01*
G75*
G02*
X0025591Y0147500I0000000J0000157D01*
G01*
X0025591Y0149744D01*
G75*
G02*
X0025748Y0149902I0000157J0000000D01*
G01*
G37*
G36*
G01*
X0028307Y0149902D02*
X0029567Y0149902D01*
G75*
G02*
X0029724Y0149744I0000000J-000157D01*
G01*
X0029724Y0147500D01*
G75*
G02*
X0029567Y0147343I-000157J0000000D01*
G01*
X0028307Y0147343D01*
G75*
G02*
X0028150Y0147500I0000000J0000157D01*
G01*
X0028150Y0149744D01*
G75*
G02*
X0028307Y0149902I0000157J0000000D01*
G01*
G37*
G36*
G01*
X0044882Y0175689D02*
X0043701Y0175689D01*
G75*
G02*
X0043110Y0176280I0000000J0000591D01*
G01*
X0043110Y0180906D01*
G75*
G02*
X0043701Y0181496I0000591J0000000D01*
G01*
X0044882Y0181496D01*
G75*
G02*
X0045472Y0180906I0000000J-000591D01*
G01*
X0045472Y0176280D01*
G75*
G02*
X0044882Y0175689I-000591J0000000D01*
G01*
G37*
G36*
G01*
X0048622Y0183071D02*
X0047441Y0183071D01*
G75*
G02*
X0046850Y0183661I0000000J0000591D01*
G01*
X0046850Y0188287D01*
G75*
G02*
X0047441Y0188878I0000591J0000000D01*
G01*
X0048622Y0188878D01*
G75*
G02*
X0049213Y0188287I0000000J-000591D01*
G01*
X0049213Y0183661D01*
G75*
G02*
X0048622Y0183071I-000591J0000000D01*
G01*
G37*
G36*
G01*
X0052362Y0175689D02*
X0051181Y0175689D01*
G75*
G02*
X0050591Y0176280I0000000J0000591D01*
G01*
X0050591Y0180906D01*
G75*
G02*
X0051181Y0181496I0000591J0000000D01*
G01*
X0052362Y0181496D01*
G75*
G02*
X0052953Y0180906I0000000J-000591D01*
G01*
X0052953Y0176280D01*
G75*
G02*
X0052362Y0175689I-000591J0000000D01*
G01*
G37*
G36*
G01*
X0155610Y0328150D02*
X0150689Y0328150D01*
G75*
G02*
X0150295Y0328543I0000000J0000394D01*
G01*
X0150295Y0331693D01*
G75*
G02*
X0150689Y0332087I0000394J0000000D01*
G01*
X0155610Y0332087D01*
G75*
G02*
X0156004Y0331693I0000000J-000394D01*
G01*
X0156004Y0328543D01*
G75*
G02*
X0155610Y0328150I-000394J0000000D01*
G01*
G37*
D193*
X0153150Y0326358D03*
X0153150Y0341358D03*
G36*
G01*
X0155610Y0335630D02*
X0150689Y0335630D01*
G75*
G02*
X0150295Y0336024I0000000J0000394D01*
G01*
X0150295Y0339173D01*
G75*
G02*
X0150689Y0339567I0000394J0000000D01*
G01*
X0155610Y0339567D01*
G75*
G02*
X0156004Y0339173I0000000J-000394D01*
G01*
X0156004Y0336024D01*
G75*
G02*
X0155610Y0335630I-000394J0000000D01*
G01*
G37*
G36*
G01*
X0203740Y0308583D02*
X0203740Y0305512D01*
G75*
G02*
X0203465Y0305236I-000276J0000000D01*
G01*
X0201260Y0305236D01*
G75*
G02*
X0200984Y0305512I0000000J0000276D01*
G01*
X0200984Y0308583D01*
G75*
G02*
X0201260Y0308858I0000276J0000000D01*
G01*
X0203465Y0308858D01*
G75*
G02*
X0203740Y0308583I0000000J-000276D01*
G01*
G37*
G36*
G01*
X0197441Y0308583D02*
X0197441Y0305512D01*
G75*
G02*
X0197165Y0305236I-000276J0000000D01*
G01*
X0194961Y0305236D01*
G75*
G02*
X0194685Y0305512I0000000J0000276D01*
G01*
X0194685Y0308583D01*
G75*
G02*
X0194961Y0308858I0000276J0000000D01*
G01*
X0197165Y0308858D01*
G75*
G02*
X0197441Y0308583I0000000J-000276D01*
G01*
G37*
G36*
G01*
X0076780Y0102453D02*
X0075598Y0102453D01*
G75*
G02*
X0075008Y0103043I0000000J0000591D01*
G01*
X0075008Y0107669D01*
G75*
G02*
X0075598Y0108260I0000591J0000000D01*
G01*
X0076780Y0108260D01*
G75*
G02*
X0077370Y0107669I0000000J-000591D01*
G01*
X0077370Y0103043D01*
G75*
G02*
X0076780Y0102453I-000591J0000000D01*
G01*
G37*
G36*
G01*
X0080520Y0109835D02*
X0079339Y0109835D01*
G75*
G02*
X0078748Y0110425I0000000J0000591D01*
G01*
X0078748Y0115051D01*
G75*
G02*
X0079339Y0115642I0000591J0000000D01*
G01*
X0080520Y0115642D01*
G75*
G02*
X0081110Y0115051I0000000J-000591D01*
G01*
X0081110Y0110425D01*
G75*
G02*
X0080520Y0109835I-000591J0000000D01*
G01*
G37*
G36*
G01*
X0084260Y0102453D02*
X0083079Y0102453D01*
G75*
G02*
X0082488Y0103043I0000000J0000591D01*
G01*
X0082488Y0107669D01*
G75*
G02*
X0083079Y0108260I0000591J0000000D01*
G01*
X0084260Y0108260D01*
G75*
G02*
X0084850Y0107669I0000000J-000591D01*
G01*
X0084850Y0103043D01*
G75*
G02*
X0084260Y0102453I-000591J0000000D01*
G01*
G37*
G36*
G01*
X0146575Y0023819D02*
X0153819Y0023819D01*
G75*
G02*
X0154134Y0023504I0000000J-000315D01*
G01*
X0154134Y0020984D01*
G75*
G02*
X0153819Y0020669I-000315J0000000D01*
G01*
X0146575Y0020669D01*
G75*
G02*
X0146260Y0020984I0000000J0000315D01*
G01*
X0146260Y0023504D01*
G75*
G02*
X0146575Y0023819I0000315J0000000D01*
G01*
G37*
G36*
G01*
X0146575Y0007283D02*
X0153819Y0007283D01*
G75*
G02*
X0154134Y0006969I0000000J-000315D01*
G01*
X0154134Y0004449D01*
G75*
G02*
X0153819Y0004134I-000315J0000000D01*
G01*
X0146575Y0004134D01*
G75*
G02*
X0146260Y0004449I0000000J0000315D01*
G01*
X0146260Y0006969D01*
G75*
G02*
X0146575Y0007283I0000315J0000000D01*
G01*
G37*
G36*
G01*
X0069079Y0115642D02*
X0070260Y0115642D01*
G75*
G02*
X0070850Y0115051I0000000J-000591D01*
G01*
X0070850Y0110425D01*
G75*
G02*
X0070260Y0109835I-000591J0000000D01*
G01*
X0069079Y0109835D01*
G75*
G02*
X0068488Y0110425I0000000J0000591D01*
G01*
X0068488Y0115051D01*
G75*
G02*
X0069079Y0115642I0000591J0000000D01*
G01*
G37*
G36*
G01*
X0065339Y0108260D02*
X0066520Y0108260D01*
G75*
G02*
X0067110Y0107669I0000000J-000591D01*
G01*
X0067110Y0103043D01*
G75*
G02*
X0066520Y0102453I-000591J0000000D01*
G01*
X0065339Y0102453D01*
G75*
G02*
X0064748Y0103043I0000000J0000591D01*
G01*
X0064748Y0107669D01*
G75*
G02*
X0065339Y0108260I0000591J0000000D01*
G01*
G37*
G36*
G01*
X0061598Y0115642D02*
X0062780Y0115642D01*
G75*
G02*
X0063370Y0115051I0000000J-000591D01*
G01*
X0063370Y0110425D01*
G75*
G02*
X0062780Y0109835I-000591J0000000D01*
G01*
X0061598Y0109835D01*
G75*
G02*
X0061008Y0110425I0000000J0000591D01*
G01*
X0061008Y0115051D01*
G75*
G02*
X0061598Y0115642I0000591J0000000D01*
G01*
G37*
G36*
G01*
X0045472Y0236594D02*
X0045472Y0233878D01*
G75*
G02*
X0044567Y0232972I-000906J0000000D01*
G01*
X0039291Y0232972D01*
G75*
G02*
X0038386Y0233878I0000000J0000906D01*
G01*
X0038386Y0236594D01*
G75*
G02*
X0039291Y0237500I0000906J0000000D01*
G01*
X0044567Y0237500D01*
G75*
G02*
X0045472Y0236594I0000000J-000906D01*
G01*
G37*
G36*
G01*
X0045472Y0248012D02*
X0045472Y0245295D01*
G75*
G02*
X0044567Y0244390I-000906J0000000D01*
G01*
X0039291Y0244390D01*
G75*
G02*
X0038386Y0245295I0000000J0000906D01*
G01*
X0038386Y0248012D01*
G75*
G02*
X0039291Y0248917I0000906J0000000D01*
G01*
X0044567Y0248917D01*
G75*
G02*
X0045472Y0248012I0000000J-000906D01*
G01*
G37*
G36*
G01*
X0304331Y0333898D02*
X0304331Y0329882D01*
G75*
G02*
X0303976Y0329528I-000354J0000000D01*
G01*
X0301142Y0329528D01*
G75*
G02*
X0300787Y0329882I0000000J0000354D01*
G01*
X0300787Y0333898D01*
G75*
G02*
X0301142Y0334252I0000354J0000000D01*
G01*
X0303976Y0334252D01*
G75*
G02*
X0304331Y0333898I0000000J-000354D01*
G01*
G37*
G36*
G01*
X0291339Y0333898D02*
X0291339Y0329882D01*
G75*
G02*
X0290984Y0329528I-000354J0000000D01*
G01*
X0288150Y0329528D01*
G75*
G02*
X0287795Y0329882I0000000J0000354D01*
G01*
X0287795Y0333898D01*
G75*
G02*
X0288150Y0334252I0000354J0000000D01*
G01*
X0290984Y0334252D01*
G75*
G02*
X0291339Y0333898I0000000J-000354D01*
G01*
G37*
G36*
G01*
X0306299Y0329882D02*
X0306299Y0333898D01*
G75*
G02*
X0306654Y0334252I0000354J0000000D01*
G01*
X0309488Y0334252D01*
G75*
G02*
X0309843Y0333898I0000000J-000354D01*
G01*
X0309843Y0329882D01*
G75*
G02*
X0309488Y0329528I-000354J0000000D01*
G01*
X0306654Y0329528D01*
G75*
G02*
X0306299Y0329882I0000000J0000354D01*
G01*
G37*
G36*
G01*
X0319291Y0329882D02*
X0319291Y0333898D01*
G75*
G02*
X0319646Y0334252I0000354J0000000D01*
G01*
X0322480Y0334252D01*
G75*
G02*
X0322835Y0333898I0000000J-000354D01*
G01*
X0322835Y0329882D01*
G75*
G02*
X0322480Y0329528I-000354J0000000D01*
G01*
X0319646Y0329528D01*
G75*
G02*
X0319291Y0329882I0000000J0000354D01*
G01*
G37*
G36*
G01*
X0181201Y0328150D02*
X0176280Y0328150D01*
G75*
G02*
X0175886Y0328543I0000000J0000394D01*
G01*
X0175886Y0331693D01*
G75*
G02*
X0176280Y0332087I0000394J0000000D01*
G01*
X0181201Y0332087D01*
G75*
G02*
X0181594Y0331693I0000000J-000394D01*
G01*
X0181594Y0328543D01*
G75*
G02*
X0181201Y0328150I-000394J0000000D01*
G01*
G37*
X0178740Y0326358D03*
X0178740Y0341358D03*
G36*
G01*
X0181201Y0335630D02*
X0176280Y0335630D01*
G75*
G02*
X0175886Y0336024I0000000J0000394D01*
G01*
X0175886Y0339173D01*
G75*
G02*
X0176280Y0339567I0000394J0000000D01*
G01*
X0181201Y0339567D01*
G75*
G02*
X0181594Y0339173I0000000J-000394D01*
G01*
X0181594Y0336024D01*
G75*
G02*
X0181201Y0335630I-000394J0000000D01*
G01*
G37*
D157*
X0227846Y0063140D03*
D87*
X0227650Y0022392D03*
X0227650Y0024360D03*
D107*
X0223516Y0050148D03*
X0221449Y0046703D03*
X0218496Y0051329D03*
X0204520Y0051033D03*
G36*
G01*
X0035433Y0311024D02*
X0031890Y0311024D01*
G75*
G02*
X0031496Y0311417I0000000J0000394D01*
G01*
X0031496Y0314567D01*
G75*
G02*
X0031890Y0314961I0000394J0000000D01*
G01*
X0035433Y0314961D01*
G75*
G02*
X0035827Y0314567I0000000J-000394D01*
G01*
X0035827Y0311417D01*
G75*
G02*
X0035433Y0311024I-000394J0000000D01*
G01*
G37*
G36*
G01*
X0035433Y0317717D02*
X0031890Y0317717D01*
G75*
G02*
X0031496Y0318110I0000000J0000394D01*
G01*
X0031496Y0321260D01*
G75*
G02*
X0031890Y0321654I0000394J0000000D01*
G01*
X0035433Y0321654D01*
G75*
G02*
X0035827Y0321260I0000000J-000394D01*
G01*
X0035827Y0318110D01*
G75*
G02*
X0035433Y0317717I-000394J0000000D01*
G01*
G37*
G36*
G01*
X0077323Y0359866D02*
X0075433Y0359866D01*
G75*
G02*
X0075197Y0360102I0000000J0000236D01*
G01*
X0075197Y0361992D01*
G75*
G02*
X0075433Y0362228I0000236J0000000D01*
G01*
X0077323Y0362228D01*
G75*
G02*
X0077559Y0361992I0000000J-000236D01*
G01*
X0077559Y0360102D01*
G75*
G02*
X0077323Y0359866I-000236J0000000D01*
G01*
G37*
G36*
G01*
X0068661Y0359866D02*
X0066772Y0359866D01*
G75*
G02*
X0066535Y0360102I0000000J0000236D01*
G01*
X0066535Y0361992D01*
G75*
G02*
X0066772Y0362228I0000236J0000000D01*
G01*
X0068661Y0362228D01*
G75*
G02*
X0068898Y0361992I0000000J-000236D01*
G01*
X0068898Y0360102D01*
G75*
G02*
X0068661Y0359866I-000236J0000000D01*
G01*
G37*
G36*
G01*
X0035433Y0392913D02*
X0031890Y0392913D01*
G75*
G02*
X0031496Y0393307I0000000J0000394D01*
G01*
X0031496Y0396457D01*
G75*
G02*
X0031890Y0396850I0000394J0000000D01*
G01*
X0035433Y0396850D01*
G75*
G02*
X0035827Y0396457I0000000J-000394D01*
G01*
X0035827Y0393307D01*
G75*
G02*
X0035433Y0392913I-000394J0000000D01*
G01*
G37*
G36*
G01*
X0035433Y0399606D02*
X0031890Y0399606D01*
G75*
G02*
X0031496Y0400000I0000000J0000394D01*
G01*
X0031496Y0403150D01*
G75*
G02*
X0031890Y0403543I0000394J0000000D01*
G01*
X0035433Y0403543D01*
G75*
G02*
X0035827Y0403150I0000000J-000394D01*
G01*
X0035827Y0400000D01*
G75*
G02*
X0035433Y0399606I-000394J0000000D01*
G01*
G37*
D29*
X0054689Y0238338D03*
D82*
X0115811Y0254283D03*
D107*
X0059315Y0220622D03*
X0091697Y0225838D03*
X0091628Y0246439D03*
X0084217Y0248378D03*
X0113154Y0252807D03*
G36*
G01*
X0045472Y0273602D02*
X0045472Y0270886D01*
G75*
G02*
X0044567Y0269980I-000906J0000000D01*
G01*
X0039291Y0269980D01*
G75*
G02*
X0038386Y0270886I0000000J0000906D01*
G01*
X0038386Y0273602D01*
G75*
G02*
X0039291Y0274508I0000906J0000000D01*
G01*
X0044567Y0274508D01*
G75*
G02*
X0045472Y0273602I0000000J-000906D01*
G01*
G37*
G36*
G01*
X0045472Y0285020D02*
X0045472Y0282303D01*
G75*
G02*
X0044567Y0281398I-000906J0000000D01*
G01*
X0039291Y0281398D01*
G75*
G02*
X0038386Y0282303I0000000J0000906D01*
G01*
X0038386Y0285020D01*
G75*
G02*
X0039291Y0285925I0000906J0000000D01*
G01*
X0044567Y0285925D01*
G75*
G02*
X0045472Y0285020I0000000J-000906D01*
G01*
G37*
G36*
G01*
X0214862Y0288583D02*
X0214862Y0287402D01*
G75*
G02*
X0214272Y0286811I-000591J0000000D01*
G01*
X0209646Y0286811D01*
G75*
G02*
X0209055Y0287402I0000000J0000591D01*
G01*
X0209055Y0288583D01*
G75*
G02*
X0209646Y0289173I0000591J0000000D01*
G01*
X0214272Y0289173D01*
G75*
G02*
X0214862Y0288583I0000000J-000591D01*
G01*
G37*
G36*
G01*
X0207480Y0292323D02*
X0207480Y0291142D01*
G75*
G02*
X0206890Y0290551I-000591J0000000D01*
G01*
X0202264Y0290551D01*
G75*
G02*
X0201673Y0291142I0000000J0000591D01*
G01*
X0201673Y0292323D01*
G75*
G02*
X0202264Y0292913I0000591J0000000D01*
G01*
X0206890Y0292913D01*
G75*
G02*
X0207480Y0292323I0000000J-000591D01*
G01*
G37*
G36*
G01*
X0214862Y0296063D02*
X0214862Y0294882D01*
G75*
G02*
X0214272Y0294291I-000591J0000000D01*
G01*
X0209646Y0294291D01*
G75*
G02*
X0209055Y0294882I0000000J0000591D01*
G01*
X0209055Y0296063D01*
G75*
G02*
X0209646Y0296654I0000591J0000000D01*
G01*
X0214272Y0296654D01*
G75*
G02*
X0214862Y0296063I0000000J-000591D01*
G01*
G37*
G36*
G01*
X0040945Y0107441D02*
X0040945Y0111457D01*
G75*
G02*
X0041299Y0111811I0000354J0000000D01*
G01*
X0044134Y0111811D01*
G75*
G02*
X0044488Y0111457I0000000J-000354D01*
G01*
X0044488Y0107441D01*
G75*
G02*
X0044134Y0107087I-000354J0000000D01*
G01*
X0041299Y0107087D01*
G75*
G02*
X0040945Y0107441I0000000J0000354D01*
G01*
G37*
G36*
G01*
X0053937Y0107441D02*
X0053937Y0111457D01*
G75*
G02*
X0054291Y0111811I0000354J0000000D01*
G01*
X0057126Y0111811D01*
G75*
G02*
X0057480Y0111457I0000000J-000354D01*
G01*
X0057480Y0107441D01*
G75*
G02*
X0057126Y0107087I-000354J0000000D01*
G01*
X0054291Y0107087D01*
G75*
G02*
X0053937Y0107441I0000000J0000354D01*
G01*
G37*
G36*
G01*
X0034350Y0145386D02*
X0034350Y0142709D01*
G75*
G02*
X0034016Y0142374I-000335J0000000D01*
G01*
X0031339Y0142374D01*
G75*
G02*
X0031004Y0142709I0000000J0000335D01*
G01*
X0031004Y0145386D01*
G75*
G02*
X0031339Y0145720I0000335J0000000D01*
G01*
X0034016Y0145720D01*
G75*
G02*
X0034350Y0145386I0000000J-000335D01*
G01*
G37*
G36*
G01*
X0028130Y0145386D02*
X0028130Y0142709D01*
G75*
G02*
X0027795Y0142374I-000335J0000000D01*
G01*
X0025118Y0142374D01*
G75*
G02*
X0024783Y0142709I0000000J0000335D01*
G01*
X0024783Y0145386D01*
G75*
G02*
X0025118Y0145720I0000335J0000000D01*
G01*
X0027795Y0145720D01*
G75*
G02*
X0028130Y0145386I0000000J-000335D01*
G01*
G37*
G36*
G01*
X0052756Y0351969D02*
X0049213Y0351969D01*
G75*
G02*
X0048819Y0352362I0000000J0000394D01*
G01*
X0048819Y0355512D01*
G75*
G02*
X0049213Y0355906I0000394J0000000D01*
G01*
X0052756Y0355906D01*
G75*
G02*
X0053150Y0355512I0000000J-000394D01*
G01*
X0053150Y0352362D01*
G75*
G02*
X0052756Y0351969I-000394J0000000D01*
G01*
G37*
G36*
G01*
X0052756Y0358661D02*
X0049213Y0358661D01*
G75*
G02*
X0048819Y0359055I0000000J0000394D01*
G01*
X0048819Y0362205D01*
G75*
G02*
X0049213Y0362598I0000394J0000000D01*
G01*
X0052756Y0362598D01*
G75*
G02*
X0053150Y0362205I0000000J-000394D01*
G01*
X0053150Y0359055D01*
G75*
G02*
X0052756Y0358661I-000394J0000000D01*
G01*
G37*
X0122146Y0228346D03*
X0151673Y0228346D03*
X0154823Y0228346D03*
X0157972Y0228346D03*
X0129626Y0297343D03*
X0125689Y0297343D03*
G36*
G01*
X0096957Y0276520D02*
X0093886Y0276520D01*
G75*
G02*
X0093611Y0276795I0000000J0000276D01*
G01*
X0093611Y0279000D01*
G75*
G02*
X0093886Y0279276I0000276J0000000D01*
G01*
X0096957Y0279276D01*
G75*
G02*
X0097233Y0279000I0000000J-000276D01*
G01*
X0097233Y0276795D01*
G75*
G02*
X0096957Y0276520I-000276J0000000D01*
G01*
G37*
G36*
G01*
X0096957Y0282819D02*
X0093886Y0282819D01*
G75*
G02*
X0093611Y0283094I0000000J0000276D01*
G01*
X0093611Y0285299D01*
G75*
G02*
X0093886Y0285575I0000276J0000000D01*
G01*
X0096957Y0285575D01*
G75*
G02*
X0097233Y0285299I0000000J-000276D01*
G01*
X0097233Y0283094D01*
G75*
G02*
X0096957Y0282819I-000276J0000000D01*
G01*
G37*
G36*
G01*
X0032677Y0219272D02*
X0032677Y0216555D01*
G75*
G02*
X0031772Y0215650I-000906J0000000D01*
G01*
X0026496Y0215650D01*
G75*
G02*
X0025591Y0216555I0000000J0000906D01*
G01*
X0025591Y0219272D01*
G75*
G02*
X0026496Y0220177I0000906J0000000D01*
G01*
X0031772Y0220177D01*
G75*
G02*
X0032677Y0219272I0000000J-000906D01*
G01*
G37*
G36*
G01*
X0032677Y0230689D02*
X0032677Y0227972D01*
G75*
G02*
X0031772Y0227067I-000906J0000000D01*
G01*
X0026496Y0227067D01*
G75*
G02*
X0025591Y0227972I0000000J0000906D01*
G01*
X0025591Y0230689D01*
G75*
G02*
X0026496Y0231595I0000906J0000000D01*
G01*
X0031772Y0231595D01*
G75*
G02*
X0032677Y0230689I0000000J-000906D01*
G01*
G37*
D193*
X0170472Y0326358D03*
G36*
G01*
X0172933Y0328150D02*
X0168012Y0328150D01*
G75*
G02*
X0167618Y0328543I0000000J0000394D01*
G01*
X0167618Y0331693D01*
G75*
G02*
X0168012Y0332087I0000394J0000000D01*
G01*
X0172933Y0332087D01*
G75*
G02*
X0173327Y0331693I0000000J-000394D01*
G01*
X0173327Y0328543D01*
G75*
G02*
X0172933Y0328150I-000394J0000000D01*
G01*
G37*
X0170472Y0341358D03*
G36*
G01*
X0172933Y0335630D02*
X0168012Y0335630D01*
G75*
G02*
X0167618Y0336024I0000000J0000394D01*
G01*
X0167618Y0339173D01*
G75*
G02*
X0168012Y0339567I0000394J0000000D01*
G01*
X0172933Y0339567D01*
G75*
G02*
X0173327Y0339173I0000000J-000394D01*
G01*
X0173327Y0336024D01*
G75*
G02*
X0172933Y0335630I-000394J0000000D01*
G01*
G37*
G36*
G01*
X0035433Y0331496D02*
X0031890Y0331496D01*
G75*
G02*
X0031496Y0331890I0000000J0000394D01*
G01*
X0031496Y0335039D01*
G75*
G02*
X0031890Y0335433I0000394J0000000D01*
G01*
X0035433Y0335433D01*
G75*
G02*
X0035827Y0335039I0000000J-000394D01*
G01*
X0035827Y0331890D01*
G75*
G02*
X0035433Y0331496I-000394J0000000D01*
G01*
G37*
G36*
G01*
X0035433Y0338189D02*
X0031890Y0338189D01*
G75*
G02*
X0031496Y0338583I0000000J0000394D01*
G01*
X0031496Y0341732D01*
G75*
G02*
X0031890Y0342126I0000394J0000000D01*
G01*
X0035433Y0342126D01*
G75*
G02*
X0035827Y0341732I0000000J-000394D01*
G01*
X0035827Y0338583D01*
G75*
G02*
X0035433Y0338189I-000394J0000000D01*
G01*
G37*
G36*
G01*
X0068654Y0369228D02*
X0070543Y0369228D01*
G75*
G02*
X0070780Y0368992I0000000J-000236D01*
G01*
X0070780Y0367102D01*
G75*
G02*
X0070543Y0366866I-000236J0000000D01*
G01*
X0068654Y0366866D01*
G75*
G02*
X0068417Y0367102I0000000J0000236D01*
G01*
X0068417Y0368992D01*
G75*
G02*
X0068654Y0369228I0000236J0000000D01*
G01*
G37*
G36*
G01*
X0077315Y0369228D02*
X0079205Y0369228D01*
G75*
G02*
X0079441Y0368992I0000000J-000236D01*
G01*
X0079441Y0367102D01*
G75*
G02*
X0079205Y0366866I-000236J0000000D01*
G01*
X0077315Y0366866D01*
G75*
G02*
X0077079Y0367102I0000000J0000236D01*
G01*
X0077079Y0368992D01*
G75*
G02*
X0077315Y0369228I0000236J0000000D01*
G01*
G37*
G36*
G01*
X0230512Y0300984D02*
X0227441Y0300984D01*
G75*
G02*
X0227165Y0301260I0000000J0000276D01*
G01*
X0227165Y0303465D01*
G75*
G02*
X0227441Y0303740I0000276J0000000D01*
G01*
X0230512Y0303740D01*
G75*
G02*
X0230787Y0303465I0000000J-000276D01*
G01*
X0230787Y0301260D01*
G75*
G02*
X0230512Y0300984I-000276J0000000D01*
G01*
G37*
G36*
G01*
X0230512Y0307283D02*
X0227441Y0307283D01*
G75*
G02*
X0227165Y0307559I0000000J0000276D01*
G01*
X0227165Y0309764D01*
G75*
G02*
X0227441Y0310039I0000276J0000000D01*
G01*
X0230512Y0310039D01*
G75*
G02*
X0230787Y0309764I0000000J-000276D01*
G01*
X0230787Y0307559D01*
G75*
G02*
X0230512Y0307283I-000276J0000000D01*
G01*
G37*
D220*
X0115429Y0284823D03*
X0110429Y0284823D03*
X0105429Y0284823D03*
D39*
X0100429Y0284823D03*
D220*
X0100429Y0262421D03*
X0105429Y0262421D03*
X0110429Y0262421D03*
X0115429Y0262421D03*
D202*
X0110882Y0271014D03*
X0104976Y0276230D03*
X0110882Y0276230D03*
X0104976Y0271014D03*
G36*
G01*
X0046457Y0213681D02*
X0047638Y0213681D01*
G75*
G02*
X0048228Y0213091I0000000J-000591D01*
G01*
X0048228Y0208465D01*
G75*
G02*
X0047638Y0207874I-000591J0000000D01*
G01*
X0046457Y0207874D01*
G75*
G02*
X0045866Y0208465I0000000J0000591D01*
G01*
X0045866Y0213091D01*
G75*
G02*
X0046457Y0213681I0000591J0000000D01*
G01*
G37*
G36*
G01*
X0042717Y0206299D02*
X0043898Y0206299D01*
G75*
G02*
X0044488Y0205709I0000000J-000591D01*
G01*
X0044488Y0201083D01*
G75*
G02*
X0043898Y0200492I-000591J0000000D01*
G01*
X0042717Y0200492D01*
G75*
G02*
X0042126Y0201083I0000000J0000591D01*
G01*
X0042126Y0205709D01*
G75*
G02*
X0042717Y0206299I0000591J0000000D01*
G01*
G37*
G36*
G01*
X0038976Y0213681D02*
X0040157Y0213681D01*
G75*
G02*
X0040748Y0213091I0000000J-000591D01*
G01*
X0040748Y0208465D01*
G75*
G02*
X0040157Y0207874I-000591J0000000D01*
G01*
X0038976Y0207874D01*
G75*
G02*
X0038386Y0208465I0000000J0000591D01*
G01*
X0038386Y0213091D01*
G75*
G02*
X0038976Y0213681I0000591J0000000D01*
G01*
G37*
G36*
G01*
X0066535Y0379390D02*
X0066535Y0382028D01*
G75*
G02*
X0066791Y0382283I0000256J0000000D01*
G01*
X0068839Y0382283D01*
G75*
G02*
X0069094Y0382028I0000000J-000256D01*
G01*
X0069094Y0379390D01*
G75*
G02*
X0068839Y0379134I-000256J0000000D01*
G01*
X0066791Y0379134D01*
G75*
G02*
X0066535Y0379390I0000000J0000256D01*
G01*
G37*
G36*
G01*
X0070374Y0379311D02*
X0070374Y0382106D01*
G75*
G02*
X0070551Y0382283I0000177J0000000D01*
G01*
X0071969Y0382283D01*
G75*
G02*
X0072146Y0382106I0000000J-000177D01*
G01*
X0072146Y0379311D01*
G75*
G02*
X0071969Y0379134I-000177J0000000D01*
G01*
X0070551Y0379134D01*
G75*
G02*
X0070374Y0379311I0000000J0000177D01*
G01*
G37*
G36*
G01*
X0073524Y0379311D02*
X0073524Y0382106D01*
G75*
G02*
X0073701Y0382283I0000177J0000000D01*
G01*
X0075118Y0382283D01*
G75*
G02*
X0075295Y0382106I0000000J-000177D01*
G01*
X0075295Y0379311D01*
G75*
G02*
X0075118Y0379134I-000177J0000000D01*
G01*
X0073701Y0379134D01*
G75*
G02*
X0073524Y0379311I0000000J0000177D01*
G01*
G37*
G36*
G01*
X0076575Y0379390D02*
X0076575Y0382028D01*
G75*
G02*
X0076831Y0382283I0000256J0000000D01*
G01*
X0078878Y0382283D01*
G75*
G02*
X0079134Y0382028I0000000J-000256D01*
G01*
X0079134Y0379390D01*
G75*
G02*
X0078878Y0379134I-000256J0000000D01*
G01*
X0076831Y0379134D01*
G75*
G02*
X0076575Y0379390I0000000J0000256D01*
G01*
G37*
G36*
G01*
X0076575Y0386476D02*
X0076575Y0389114D01*
G75*
G02*
X0076831Y0389370I0000256J0000000D01*
G01*
X0078878Y0389370D01*
G75*
G02*
X0079134Y0389114I0000000J-000256D01*
G01*
X0079134Y0386476D01*
G75*
G02*
X0078878Y0386220I-000256J0000000D01*
G01*
X0076831Y0386220D01*
G75*
G02*
X0076575Y0386476I0000000J0000256D01*
G01*
G37*
G36*
G01*
X0073524Y0386398D02*
X0073524Y0389193D01*
G75*
G02*
X0073701Y0389370I0000177J0000000D01*
G01*
X0075118Y0389370D01*
G75*
G02*
X0075295Y0389193I0000000J-000177D01*
G01*
X0075295Y0386398D01*
G75*
G02*
X0075118Y0386220I-000177J0000000D01*
G01*
X0073701Y0386220D01*
G75*
G02*
X0073524Y0386398I0000000J0000177D01*
G01*
G37*
G36*
G01*
X0070374Y0386398D02*
X0070374Y0389193D01*
G75*
G02*
X0070551Y0389370I0000177J0000000D01*
G01*
X0071969Y0389370D01*
G75*
G02*
X0072146Y0389193I0000000J-000177D01*
G01*
X0072146Y0386398D01*
G75*
G02*
X0071969Y0386220I-000177J0000000D01*
G01*
X0070551Y0386220D01*
G75*
G02*
X0070374Y0386398I0000000J0000177D01*
G01*
G37*
G36*
G01*
X0066535Y0386476D02*
X0066535Y0389114D01*
G75*
G02*
X0066791Y0389370I0000256J0000000D01*
G01*
X0068839Y0389370D01*
G75*
G02*
X0069094Y0389114I0000000J-000256D01*
G01*
X0069094Y0386476D01*
G75*
G02*
X0068839Y0386220I-000256J0000000D01*
G01*
X0066791Y0386220D01*
G75*
G02*
X0066535Y0386476I0000000J0000256D01*
G01*
G37*
G36*
G01*
X0068352Y0295620D02*
X0070242Y0295620D01*
G75*
G02*
X0070478Y0295384I0000000J-000236D01*
G01*
X0070478Y0293494D01*
G75*
G02*
X0070242Y0293258I-000236J0000000D01*
G01*
X0068352Y0293258D01*
G75*
G02*
X0068116Y0293494I0000000J0000236D01*
G01*
X0068116Y0295384D01*
G75*
G02*
X0068352Y0295620I0000236J0000000D01*
G01*
G37*
G36*
G01*
X0077014Y0295620D02*
X0078904Y0295620D01*
G75*
G02*
X0079140Y0295384I0000000J-000236D01*
G01*
X0079140Y0293494D01*
G75*
G02*
X0078904Y0293258I-000236J0000000D01*
G01*
X0077014Y0293258D01*
G75*
G02*
X0076778Y0293494I0000000J0000236D01*
G01*
X0076778Y0295384D01*
G75*
G02*
X0077014Y0295620I0000236J0000000D01*
G01*
G37*
G36*
G01*
X0052756Y0290551D02*
X0049213Y0290551D01*
G75*
G02*
X0048819Y0290945I0000000J0000394D01*
G01*
X0048819Y0294094D01*
G75*
G02*
X0049213Y0294488I0000394J0000000D01*
G01*
X0052756Y0294488D01*
G75*
G02*
X0053150Y0294094I0000000J-000394D01*
G01*
X0053150Y0290945D01*
G75*
G02*
X0052756Y0290551I-000394J0000000D01*
G01*
G37*
G36*
G01*
X0052756Y0297244D02*
X0049213Y0297244D01*
G75*
G02*
X0048819Y0297638I0000000J0000394D01*
G01*
X0048819Y0300787D01*
G75*
G02*
X0049213Y0301181I0000394J0000000D01*
G01*
X0052756Y0301181D01*
G75*
G02*
X0053150Y0300787I0000000J-000394D01*
G01*
X0053150Y0297638D01*
G75*
G02*
X0052756Y0297244I-000394J0000000D01*
G01*
G37*
G36*
G01*
X0035433Y0372441D02*
X0031890Y0372441D01*
G75*
G02*
X0031496Y0372835I0000000J0000394D01*
G01*
X0031496Y0375984D01*
G75*
G02*
X0031890Y0376378I0000394J0000000D01*
G01*
X0035433Y0376378D01*
G75*
G02*
X0035827Y0375984I0000000J-000394D01*
G01*
X0035827Y0372835D01*
G75*
G02*
X0035433Y0372441I-000394J0000000D01*
G01*
G37*
G36*
G01*
X0035433Y0379134D02*
X0031890Y0379134D01*
G75*
G02*
X0031496Y0379528I0000000J0000394D01*
G01*
X0031496Y0382677D01*
G75*
G02*
X0031890Y0383071I0000394J0000000D01*
G01*
X0035433Y0383071D01*
G75*
G02*
X0035827Y0382677I0000000J-000394D01*
G01*
X0035827Y0379528D01*
G75*
G02*
X0035433Y0379134I-000394J0000000D01*
G01*
G37*
D193*
X0118110Y0326358D03*
G36*
G01*
X0120571Y0328150D02*
X0115650Y0328150D01*
G75*
G02*
X0115256Y0328543I0000000J0000394D01*
G01*
X0115256Y0331693D01*
G75*
G02*
X0115650Y0332087I0000394J0000000D01*
G01*
X0120571Y0332087D01*
G75*
G02*
X0120965Y0331693I0000000J-000394D01*
G01*
X0120965Y0328543D01*
G75*
G02*
X0120571Y0328150I-000394J0000000D01*
G01*
G37*
G36*
G01*
X0120571Y0335630D02*
X0115650Y0335630D01*
G75*
G02*
X0115256Y0336024I0000000J0000394D01*
G01*
X0115256Y0339173D01*
G75*
G02*
X0115650Y0339567I0000394J0000000D01*
G01*
X0120571Y0339567D01*
G75*
G02*
X0120965Y0339173I0000000J-000394D01*
G01*
X0120965Y0336024D01*
G75*
G02*
X0120571Y0335630I-000394J0000000D01*
G01*
G37*
X0118110Y0341358D03*
G36*
G01*
X0032677Y0214075D02*
X0033858Y0214075D01*
G75*
G02*
X0034449Y0213484I0000000J-000591D01*
G01*
X0034449Y0208858D01*
G75*
G02*
X0033858Y0208268I-000591J0000000D01*
G01*
X0032677Y0208268D01*
G75*
G02*
X0032087Y0208858I0000000J0000591D01*
G01*
X0032087Y0213484D01*
G75*
G02*
X0032677Y0214075I0000591J0000000D01*
G01*
G37*
G36*
G01*
X0028937Y0206693D02*
X0030118Y0206693D01*
G75*
G02*
X0030709Y0206102I0000000J-000591D01*
G01*
X0030709Y0201476D01*
G75*
G02*
X0030118Y0200886I-000591J0000000D01*
G01*
X0028937Y0200886D01*
G75*
G02*
X0028346Y0201476I0000000J0000591D01*
G01*
X0028346Y0206102D01*
G75*
G02*
X0028937Y0206693I0000591J0000000D01*
G01*
G37*
G36*
G01*
X0025197Y0214075D02*
X0026378Y0214075D01*
G75*
G02*
X0026969Y0213484I0000000J-000591D01*
G01*
X0026969Y0208858D01*
G75*
G02*
X0026378Y0208268I-000591J0000000D01*
G01*
X0025197Y0208268D01*
G75*
G02*
X0024606Y0208858I0000000J0000591D01*
G01*
X0024606Y0213484D01*
G75*
G02*
X0025197Y0214075I0000591J0000000D01*
G01*
G37*
G36*
G01*
X0230524Y0288583D02*
X0230524Y0287402D01*
G75*
G02*
X0229933Y0286811I-000591J0000000D01*
G01*
X0225307Y0286811D01*
G75*
G02*
X0224717Y0287402I0000000J0000591D01*
G01*
X0224717Y0288583D01*
G75*
G02*
X0225307Y0289173I0000591J0000000D01*
G01*
X0229933Y0289173D01*
G75*
G02*
X0230524Y0288583I0000000J-000591D01*
G01*
G37*
G36*
G01*
X0223142Y0292323D02*
X0223142Y0291142D01*
G75*
G02*
X0222551Y0290551I-000591J0000000D01*
G01*
X0217925Y0290551D01*
G75*
G02*
X0217335Y0291142I0000000J0000591D01*
G01*
X0217335Y0292323D01*
G75*
G02*
X0217925Y0292913I0000591J0000000D01*
G01*
X0222551Y0292913D01*
G75*
G02*
X0223142Y0292323I0000000J-000591D01*
G01*
G37*
G36*
G01*
X0230524Y0296063D02*
X0230524Y0294882D01*
G75*
G02*
X0229933Y0294291I-000591J0000000D01*
G01*
X0225307Y0294291D01*
G75*
G02*
X0224717Y0294882I0000000J0000591D01*
G01*
X0224717Y0296063D01*
G75*
G02*
X0225307Y0296654I0000591J0000000D01*
G01*
X0229933Y0296654D01*
G75*
G02*
X0230524Y0296063I0000000J-000591D01*
G01*
G37*
G36*
G01*
X0030315Y0175689D02*
X0029134Y0175689D01*
G75*
G02*
X0028543Y0176280I0000000J0000591D01*
G01*
X0028543Y0180906D01*
G75*
G02*
X0029134Y0181496I0000591J0000000D01*
G01*
X0030315Y0181496D01*
G75*
G02*
X0030906Y0180906I0000000J-000591D01*
G01*
X0030906Y0176280D01*
G75*
G02*
X0030315Y0175689I-000591J0000000D01*
G01*
G37*
G36*
G01*
X0034055Y0183071D02*
X0032874Y0183071D01*
G75*
G02*
X0032283Y0183661I0000000J0000591D01*
G01*
X0032283Y0188287D01*
G75*
G02*
X0032874Y0188878I0000591J0000000D01*
G01*
X0034055Y0188878D01*
G75*
G02*
X0034646Y0188287I0000000J-000591D01*
G01*
X0034646Y0183661D01*
G75*
G02*
X0034055Y0183071I-000591J0000000D01*
G01*
G37*
G36*
G01*
X0037795Y0175689D02*
X0036614Y0175689D01*
G75*
G02*
X0036024Y0176280I0000000J0000591D01*
G01*
X0036024Y0180906D01*
G75*
G02*
X0036614Y0181496I0000591J0000000D01*
G01*
X0037795Y0181496D01*
G75*
G02*
X0038386Y0180906I0000000J-000591D01*
G01*
X0038386Y0176280D01*
G75*
G02*
X0037795Y0175689I-000591J0000000D01*
G01*
G37*
G36*
G01*
X0068654Y0375228D02*
X0070543Y0375228D01*
G75*
G02*
X0070780Y0374992I0000000J-000236D01*
G01*
X0070780Y0373102D01*
G75*
G02*
X0070543Y0372866I-000236J0000000D01*
G01*
X0068654Y0372866D01*
G75*
G02*
X0068417Y0373102I0000000J0000236D01*
G01*
X0068417Y0374992D01*
G75*
G02*
X0068654Y0375228I0000236J0000000D01*
G01*
G37*
G36*
G01*
X0077315Y0375228D02*
X0079205Y0375228D01*
G75*
G02*
X0079441Y0374992I0000000J-000236D01*
G01*
X0079441Y0373102D01*
G75*
G02*
X0079205Y0372866I-000236J0000000D01*
G01*
X0077315Y0372866D01*
G75*
G02*
X0077079Y0373102I0000000J0000236D01*
G01*
X0077079Y0374992D01*
G75*
G02*
X0077315Y0375228I0000236J0000000D01*
G01*
G37*
G36*
G01*
X0310438Y0047598D02*
X0312436Y0047598D01*
G75*
G02*
X0312598Y0047436I0000000J-000163D01*
G01*
X0312598Y0039808D01*
G75*
G02*
X0312436Y0039646I-000163J0000000D01*
G01*
X0310438Y0039646D01*
G75*
G02*
X0310276Y0039808I0000000J0000163D01*
G01*
X0310276Y0047436D01*
G75*
G02*
X0310438Y0047598I0000163J0000000D01*
G01*
G37*
G36*
G01*
X0305438Y0047598D02*
X0307436Y0047598D01*
G75*
G02*
X0307598Y0047436I0000000J-000163D01*
G01*
X0307598Y0039808D01*
G75*
G02*
X0307436Y0039646I-000163J0000000D01*
G01*
X0305438Y0039646D01*
G75*
G02*
X0305276Y0039808I0000000J0000163D01*
G01*
X0305276Y0047436D01*
G75*
G02*
X0305438Y0047598I0000163J0000000D01*
G01*
G37*
G36*
G01*
X0300438Y0047598D02*
X0302436Y0047598D01*
G75*
G02*
X0302598Y0047436I0000000J-000163D01*
G01*
X0302598Y0039808D01*
G75*
G02*
X0302436Y0039646I-000163J0000000D01*
G01*
X0300438Y0039646D01*
G75*
G02*
X0300276Y0039808I0000000J0000163D01*
G01*
X0300276Y0047436D01*
G75*
G02*
X0300438Y0047598I0000163J0000000D01*
G01*
G37*
G36*
G01*
X0295438Y0047598D02*
X0297436Y0047598D01*
G75*
G02*
X0297598Y0047436I0000000J-000163D01*
G01*
X0297598Y0039808D01*
G75*
G02*
X0297436Y0039646I-000163J0000000D01*
G01*
X0295438Y0039646D01*
G75*
G02*
X0295276Y0039808I0000000J0000163D01*
G01*
X0295276Y0047436D01*
G75*
G02*
X0295438Y0047598I0000163J0000000D01*
G01*
G37*
G36*
G01*
X0295438Y0010748D02*
X0297436Y0010748D01*
G75*
G02*
X0297598Y0010585I0000000J-000163D01*
G01*
X0297598Y0002958D01*
G75*
G02*
X0297436Y0002795I-000163J0000000D01*
G01*
X0295438Y0002795D01*
G75*
G02*
X0295276Y0002958I0000000J0000163D01*
G01*
X0295276Y0010585D01*
G75*
G02*
X0295438Y0010748I0000163J0000000D01*
G01*
G37*
G36*
G01*
X0300438Y0010748D02*
X0302436Y0010748D01*
G75*
G02*
X0302598Y0010585I0000000J-000163D01*
G01*
X0302598Y0002958D01*
G75*
G02*
X0302436Y0002795I-000163J0000000D01*
G01*
X0300438Y0002795D01*
G75*
G02*
X0300276Y0002958I0000000J0000163D01*
G01*
X0300276Y0010585D01*
G75*
G02*
X0300438Y0010748I0000163J0000000D01*
G01*
G37*
G36*
G01*
X0305438Y0010748D02*
X0307436Y0010748D01*
G75*
G02*
X0307598Y0010585I0000000J-000163D01*
G01*
X0307598Y0002958D01*
G75*
G02*
X0307436Y0002795I-000163J0000000D01*
G01*
X0305438Y0002795D01*
G75*
G02*
X0305276Y0002958I0000000J0000163D01*
G01*
X0305276Y0010585D01*
G75*
G02*
X0305438Y0010748I0000163J0000000D01*
G01*
G37*
G36*
G01*
X0310438Y0010748D02*
X0312436Y0010748D01*
G75*
G02*
X0312598Y0010585I0000000J-000163D01*
G01*
X0312598Y0002958D01*
G75*
G02*
X0312436Y0002795I-000163J0000000D01*
G01*
X0310438Y0002795D01*
G75*
G02*
X0310276Y0002958I0000000J0000163D01*
G01*
X0310276Y0010585D01*
G75*
G02*
X0310438Y0010748I0000163J0000000D01*
G01*
G37*
G36*
G01*
X0046457Y0200295D02*
X0047638Y0200295D01*
G75*
G02*
X0048228Y0199705I0000000J-000591D01*
G01*
X0048228Y0195079D01*
G75*
G02*
X0047638Y0194488I-000591J0000000D01*
G01*
X0046457Y0194488D01*
G75*
G02*
X0045866Y0195079I0000000J0000591D01*
G01*
X0045866Y0199705D01*
G75*
G02*
X0046457Y0200295I0000591J0000000D01*
G01*
G37*
G36*
G01*
X0042717Y0192913D02*
X0043898Y0192913D01*
G75*
G02*
X0044488Y0192323I0000000J-000591D01*
G01*
X0044488Y0187697D01*
G75*
G02*
X0043898Y0187106I-000591J0000000D01*
G01*
X0042717Y0187106D01*
G75*
G02*
X0042126Y0187697I0000000J0000591D01*
G01*
X0042126Y0192323D01*
G75*
G02*
X0042717Y0192913I0000591J0000000D01*
G01*
G37*
G36*
G01*
X0038976Y0200295D02*
X0040157Y0200295D01*
G75*
G02*
X0040748Y0199705I0000000J-000591D01*
G01*
X0040748Y0195079D01*
G75*
G02*
X0040157Y0194488I-000591J0000000D01*
G01*
X0038976Y0194488D01*
G75*
G02*
X0038386Y0195079I0000000J0000591D01*
G01*
X0038386Y0199705D01*
G75*
G02*
X0038976Y0200295I0000591J0000000D01*
G01*
G37*
G36*
G01*
X0070177Y0085433D02*
X0073130Y0085433D01*
G75*
G02*
X0074606Y0083957I0000000J-001476D01*
G01*
X0074606Y0075098D01*
G75*
G02*
X0073130Y0073622I-001476J0000000D01*
G01*
X0070177Y0073622D01*
G75*
G02*
X0068701Y0075098I0000000J0001476D01*
G01*
X0068701Y0083957D01*
G75*
G02*
X0070177Y0085433I0001476J0000000D01*
G01*
G37*
G36*
G01*
X0062303Y0085433D02*
X0065256Y0085433D01*
G75*
G02*
X0066732Y0083957I0000000J-001476D01*
G01*
X0066732Y0075098D01*
G75*
G02*
X0065256Y0073622I-001476J0000000D01*
G01*
X0062303Y0073622D01*
G75*
G02*
X0060827Y0075098I0000000J0001476D01*
G01*
X0060827Y0083957D01*
G75*
G02*
X0062303Y0085433I0001476J0000000D01*
G01*
G37*
G36*
G01*
X0054429Y0085433D02*
X0057382Y0085433D01*
G75*
G02*
X0058858Y0083957I0000000J-001476D01*
G01*
X0058858Y0075098D01*
G75*
G02*
X0057382Y0073622I-001476J0000000D01*
G01*
X0054429Y0073622D01*
G75*
G02*
X0052953Y0075098I0000000J0001476D01*
G01*
X0052953Y0083957D01*
G75*
G02*
X0054429Y0085433I0001476J0000000D01*
G01*
G37*
G36*
G01*
X0046555Y0085433D02*
X0049508Y0085433D01*
G75*
G02*
X0050984Y0083957I0000000J-001476D01*
G01*
X0050984Y0075098D01*
G75*
G02*
X0049508Y0073622I-001476J0000000D01*
G01*
X0046555Y0073622D01*
G75*
G02*
X0045079Y0075098I0000000J0001476D01*
G01*
X0045079Y0083957D01*
G75*
G02*
X0046555Y0085433I0001476J0000000D01*
G01*
G37*
G36*
G01*
X0038681Y0085433D02*
X0041634Y0085433D01*
G75*
G02*
X0043110Y0083957I0000000J-001476D01*
G01*
X0043110Y0075098D01*
G75*
G02*
X0041634Y0073622I-001476J0000000D01*
G01*
X0038681Y0073622D01*
G75*
G02*
X0037205Y0075098I0000000J0001476D01*
G01*
X0037205Y0083957D01*
G75*
G02*
X0038681Y0085433I0001476J0000000D01*
G01*
G37*
G36*
G01*
X0030807Y0085433D02*
X0033760Y0085433D01*
G75*
G02*
X0035236Y0083957I0000000J-001476D01*
G01*
X0035236Y0075098D01*
G75*
G02*
X0033760Y0073622I-001476J0000000D01*
G01*
X0030807Y0073622D01*
G75*
G02*
X0029331Y0075098I0000000J0001476D01*
G01*
X0029331Y0083957D01*
G75*
G02*
X0030807Y0085433I0001476J0000000D01*
G01*
G37*
X0215929Y0341339D03*
G36*
G01*
X0212386Y0336043D02*
X0212386Y0338760D01*
G75*
G02*
X0213291Y0339665I0000906J0000000D01*
G01*
X0218567Y0339665D01*
G75*
G02*
X0219472Y0338760I0000000J-000906D01*
G01*
X0219472Y0336043D01*
G75*
G02*
X0218567Y0335138I-000906J0000000D01*
G01*
X0213291Y0335138D01*
G75*
G02*
X0212386Y0336043I0000000J0000906D01*
G01*
G37*
G36*
G01*
X0212386Y0324626D02*
X0212386Y0327342D01*
G75*
G02*
X0213291Y0328248I0000906J0000000D01*
G01*
X0218567Y0328248D01*
G75*
G02*
X0219472Y0327342I0000000J-000906D01*
G01*
X0219472Y0324626D01*
G75*
G02*
X0218567Y0323720I-000906J0000000D01*
G01*
X0213291Y0323720D01*
G75*
G02*
X0212386Y0324626I0000000J0000906D01*
G01*
G37*
X0215929Y0322047D03*
G36*
G01*
X0279331Y0386909D02*
X0279331Y0391831D01*
G75*
G02*
X0279724Y0392224I0000394J0000000D01*
G01*
X0282874Y0392224D01*
G75*
G02*
X0283268Y0391831I0000000J-000394D01*
G01*
X0283268Y0386909D01*
G75*
G02*
X0282874Y0386516I-000394J0000000D01*
G01*
X0279724Y0386516D01*
G75*
G02*
X0279331Y0386909I0000000J0000394D01*
G01*
G37*
X0277539Y0389370D03*
G36*
G01*
X0286811Y0386909D02*
X0286811Y0391831D01*
G75*
G02*
X0287205Y0392224I0000394J0000000D01*
G01*
X0290354Y0392224D01*
G75*
G02*
X0290748Y0391831I0000000J-000394D01*
G01*
X0290748Y0386909D01*
G75*
G02*
X0290354Y0386516I-000394J0000000D01*
G01*
X0287205Y0386516D01*
G75*
G02*
X0286811Y0386909I0000000J0000394D01*
G01*
G37*
X0292539Y0389370D03*
G36*
G01*
X0068346Y0288976D02*
X0070236Y0288976D01*
G75*
G02*
X0070472Y0288740I0000000J-000236D01*
G01*
X0070472Y0286850D01*
G75*
G02*
X0070236Y0286614I-000236J0000000D01*
G01*
X0068346Y0286614D01*
G75*
G02*
X0068110Y0286850I0000000J0000236D01*
G01*
X0068110Y0288740D01*
G75*
G02*
X0068346Y0288976I0000236J0000000D01*
G01*
G37*
G36*
G01*
X0077008Y0288976D02*
X0078898Y0288976D01*
G75*
G02*
X0079134Y0288740I0000000J-000236D01*
G01*
X0079134Y0286850D01*
G75*
G02*
X0078898Y0286614I-000236J0000000D01*
G01*
X0077008Y0286614D01*
G75*
G02*
X0076772Y0286850I0000000J0000236D01*
G01*
X0076772Y0288740D01*
G75*
G02*
X0077008Y0288976I0000236J0000000D01*
G01*
G37*
G36*
G01*
X0158268Y0336240D02*
X0158268Y0338957D01*
G75*
G02*
X0159173Y0339862I0000906J0000000D01*
G01*
X0164449Y0339862D01*
G75*
G02*
X0165354Y0338957I0000000J-000906D01*
G01*
X0165354Y0336240D01*
G75*
G02*
X0164449Y0335335I-000906J0000000D01*
G01*
X0159173Y0335335D01*
G75*
G02*
X0158268Y0336240I0000000J0000906D01*
G01*
G37*
X0161811Y0341535D03*
G36*
G01*
X0158268Y0324823D02*
X0158268Y0327539D01*
G75*
G02*
X0159173Y0328445I0000906J0000000D01*
G01*
X0164449Y0328445D01*
G75*
G02*
X0165354Y0327539I0000000J-000906D01*
G01*
X0165354Y0324823D01*
G75*
G02*
X0164449Y0323917I-000906J0000000D01*
G01*
X0159173Y0323917D01*
G75*
G02*
X0158268Y0324823I0000000J0000906D01*
G01*
G37*
X0161811Y0322244D03*
G36*
G01*
X0267717Y0340157D02*
X0263937Y0340157D01*
G75*
G02*
X0263465Y0340630I0000000J0000472D01*
G01*
X0263465Y0348346D01*
G75*
G02*
X0263937Y0348819I0000472J0000000D01*
G01*
X0267717Y0348819D01*
G75*
G02*
X0268189Y0348346I0000000J-000472D01*
G01*
X0268189Y0340630D01*
G75*
G02*
X0267717Y0340157I-000472J0000000D01*
G01*
G37*
D179*
X0274803Y0369291D03*
G36*
G01*
X0285669Y0340157D02*
X0281890Y0340157D01*
G75*
G02*
X0281417Y0340630I0000000J0000472D01*
G01*
X0281417Y0348346D01*
G75*
G02*
X0281890Y0348819I0000472J0000000D01*
G01*
X0285669Y0348819D01*
G75*
G02*
X0286142Y0348346I0000000J-000472D01*
G01*
X0286142Y0340630D01*
G75*
G02*
X0285669Y0340157I-000472J0000000D01*
G01*
G37*
G36*
G01*
X0267028Y0281791D02*
X0263248Y0281791D01*
G75*
G02*
X0262776Y0282264I0000000J0000472D01*
G01*
X0262776Y0289980D01*
G75*
G02*
X0263248Y0290453I0000472J0000000D01*
G01*
X0267028Y0290453D01*
G75*
G02*
X0267500Y0289980I0000000J-000472D01*
G01*
X0267500Y0282264D01*
G75*
G02*
X0267028Y0281791I-000472J0000000D01*
G01*
G37*
X0274114Y0310925D03*
G36*
G01*
X0284980Y0281791D02*
X0281201Y0281791D01*
G75*
G02*
X0280728Y0282264I0000000J0000472D01*
G01*
X0280728Y0289980D01*
G75*
G02*
X0281201Y0290453I0000472J0000000D01*
G01*
X0284980Y0290453D01*
G75*
G02*
X0285453Y0289980I0000000J-000472D01*
G01*
X0285453Y0282264D01*
G75*
G02*
X0284980Y0281791I-000472J0000000D01*
G01*
G37*
G36*
G01*
X0035433Y0351969D02*
X0031890Y0351969D01*
G75*
G02*
X0031496Y0352362I0000000J0000394D01*
G01*
X0031496Y0355512D01*
G75*
G02*
X0031890Y0355906I0000394J0000000D01*
G01*
X0035433Y0355906D01*
G75*
G02*
X0035827Y0355512I0000000J-000394D01*
G01*
X0035827Y0352362D01*
G75*
G02*
X0035433Y0351969I-000394J0000000D01*
G01*
G37*
G36*
G01*
X0035433Y0358661D02*
X0031890Y0358661D01*
G75*
G02*
X0031496Y0359055I0000000J0000394D01*
G01*
X0031496Y0362205D01*
G75*
G02*
X0031890Y0362598I0000394J0000000D01*
G01*
X0035433Y0362598D01*
G75*
G02*
X0035827Y0362205I0000000J-000394D01*
G01*
X0035827Y0359055D01*
G75*
G02*
X0035433Y0358661I-000394J0000000D01*
G01*
G37*
G36*
G01*
X0052756Y0392913D02*
X0049213Y0392913D01*
G75*
G02*
X0048819Y0393307I0000000J0000394D01*
G01*
X0048819Y0396457D01*
G75*
G02*
X0049213Y0396850I0000394J0000000D01*
G01*
X0052756Y0396850D01*
G75*
G02*
X0053150Y0396457I0000000J-000394D01*
G01*
X0053150Y0393307D01*
G75*
G02*
X0052756Y0392913I-000394J0000000D01*
G01*
G37*
G36*
G01*
X0052756Y0399606D02*
X0049213Y0399606D01*
G75*
G02*
X0048819Y0400000I0000000J0000394D01*
G01*
X0048819Y0403150D01*
G75*
G02*
X0049213Y0403543I0000394J0000000D01*
G01*
X0052756Y0403543D01*
G75*
G02*
X0053150Y0403150I0000000J-000394D01*
G01*
X0053150Y0400000D01*
G75*
G02*
X0052756Y0399606I-000394J0000000D01*
G01*
G37*
G36*
G01*
X0047638Y0135787D02*
X0047638Y0139803D01*
G75*
G02*
X0047992Y0140157I0000354J0000000D01*
G01*
X0050827Y0140157D01*
G75*
G02*
X0051181Y0139803I0000000J-000354D01*
G01*
X0051181Y0135787D01*
G75*
G02*
X0050827Y0135433I-000354J0000000D01*
G01*
X0047992Y0135433D01*
G75*
G02*
X0047638Y0135787I0000000J0000354D01*
G01*
G37*
G36*
G01*
X0060630Y0135787D02*
X0060630Y0139803D01*
G75*
G02*
X0060984Y0140157I0000354J0000000D01*
G01*
X0063819Y0140157D01*
G75*
G02*
X0064173Y0139803I0000000J-000354D01*
G01*
X0064173Y0135787D01*
G75*
G02*
X0063819Y0135433I-000354J0000000D01*
G01*
X0060984Y0135433D01*
G75*
G02*
X0060630Y0135787I0000000J0000354D01*
G01*
G37*
G36*
G01*
X0032677Y0273602D02*
X0032677Y0270886D01*
G75*
G02*
X0031772Y0269980I-000906J0000000D01*
G01*
X0026496Y0269980D01*
G75*
G02*
X0025591Y0270886I0000000J0000906D01*
G01*
X0025591Y0273602D01*
G75*
G02*
X0026496Y0274508I0000906J0000000D01*
G01*
X0031772Y0274508D01*
G75*
G02*
X0032677Y0273602I0000000J-000906D01*
G01*
G37*
G36*
G01*
X0032677Y0285020D02*
X0032677Y0282303D01*
G75*
G02*
X0031772Y0281398I-000906J0000000D01*
G01*
X0026496Y0281398D01*
G75*
G02*
X0025591Y0282303I0000000J0000906D01*
G01*
X0025591Y0285020D01*
G75*
G02*
X0026496Y0285925I0000906J0000000D01*
G01*
X0031772Y0285925D01*
G75*
G02*
X0032677Y0285020I0000000J-000906D01*
G01*
G37*
G36*
G01*
X0144067Y0054346D02*
X0146705Y0054346D01*
G75*
G02*
X0146961Y0054091I0000000J-000256D01*
G01*
X0146961Y0052043D01*
G75*
G02*
X0146705Y0051787I-000256J0000000D01*
G01*
X0144067Y0051787D01*
G75*
G02*
X0143811Y0052043I0000000J0000256D01*
G01*
X0143811Y0054091D01*
G75*
G02*
X0144067Y0054346I0000256J0000000D01*
G01*
G37*
G36*
G01*
X0143988Y0050508D02*
X0146783Y0050508D01*
G75*
G02*
X0146961Y0050331I0000000J-000177D01*
G01*
X0146961Y0048913D01*
G75*
G02*
X0146783Y0048736I-000177J0000000D01*
G01*
X0143988Y0048736D01*
G75*
G02*
X0143811Y0048913I0000000J0000177D01*
G01*
X0143811Y0050331D01*
G75*
G02*
X0143988Y0050508I0000177J0000000D01*
G01*
G37*
G36*
G01*
X0143988Y0047358D02*
X0146783Y0047358D01*
G75*
G02*
X0146961Y0047181I0000000J-000177D01*
G01*
X0146961Y0045764D01*
G75*
G02*
X0146783Y0045587I-000177J0000000D01*
G01*
X0143988Y0045587D01*
G75*
G02*
X0143811Y0045764I0000000J0000177D01*
G01*
X0143811Y0047181D01*
G75*
G02*
X0143988Y0047358I0000177J0000000D01*
G01*
G37*
G36*
G01*
X0144067Y0044307D02*
X0146705Y0044307D01*
G75*
G02*
X0146961Y0044051I0000000J-000256D01*
G01*
X0146961Y0042004D01*
G75*
G02*
X0146705Y0041748I-000256J0000000D01*
G01*
X0144067Y0041748D01*
G75*
G02*
X0143811Y0042004I0000000J0000256D01*
G01*
X0143811Y0044051D01*
G75*
G02*
X0144067Y0044307I0000256J0000000D01*
G01*
G37*
G36*
G01*
X0151154Y0044307D02*
X0153791Y0044307D01*
G75*
G02*
X0154047Y0044051I0000000J-000256D01*
G01*
X0154047Y0042004D01*
G75*
G02*
X0153791Y0041748I-000256J0000000D01*
G01*
X0151154Y0041748D01*
G75*
G02*
X0150898Y0042004I0000000J0000256D01*
G01*
X0150898Y0044051D01*
G75*
G02*
X0151154Y0044307I0000256J0000000D01*
G01*
G37*
G36*
G01*
X0151075Y0047358D02*
X0153870Y0047358D01*
G75*
G02*
X0154047Y0047181I0000000J-000177D01*
G01*
X0154047Y0045764D01*
G75*
G02*
X0153870Y0045587I-000177J0000000D01*
G01*
X0151075Y0045587D01*
G75*
G02*
X0150898Y0045764I0000000J0000177D01*
G01*
X0150898Y0047181D01*
G75*
G02*
X0151075Y0047358I0000177J0000000D01*
G01*
G37*
G36*
G01*
X0151075Y0050508D02*
X0153870Y0050508D01*
G75*
G02*
X0154047Y0050331I0000000J-000177D01*
G01*
X0154047Y0048913D01*
G75*
G02*
X0153870Y0048736I-000177J0000000D01*
G01*
X0151075Y0048736D01*
G75*
G02*
X0150898Y0048913I0000000J0000177D01*
G01*
X0150898Y0050331D01*
G75*
G02*
X0151075Y0050508I0000177J0000000D01*
G01*
G37*
G36*
G01*
X0151154Y0054346D02*
X0153791Y0054346D01*
G75*
G02*
X0154047Y0054091I0000000J-000256D01*
G01*
X0154047Y0052043D01*
G75*
G02*
X0153791Y0051787I-000256J0000000D01*
G01*
X0151154Y0051787D01*
G75*
G02*
X0150898Y0052043I0000000J0000256D01*
G01*
X0150898Y0054091D01*
G75*
G02*
X0151154Y0054346I0000256J0000000D01*
G01*
G37*
G36*
G01*
X0032677Y0160492D02*
X0032677Y0163130D01*
G75*
G02*
X0032933Y0163386I0000256J0000000D01*
G01*
X0034980Y0163386D01*
G75*
G02*
X0035236Y0163130I0000000J-000256D01*
G01*
X0035236Y0160492D01*
G75*
G02*
X0034980Y0160236I-000256J0000000D01*
G01*
X0032933Y0160236D01*
G75*
G02*
X0032677Y0160492I0000000J0000256D01*
G01*
G37*
G36*
G01*
X0036516Y0160413D02*
X0036516Y0163209D01*
G75*
G02*
X0036693Y0163386I0000177J0000000D01*
G01*
X0038110Y0163386D01*
G75*
G02*
X0038287Y0163209I0000000J-000177D01*
G01*
X0038287Y0160413D01*
G75*
G02*
X0038110Y0160236I-000177J0000000D01*
G01*
X0036693Y0160236D01*
G75*
G02*
X0036516Y0160413I0000000J0000177D01*
G01*
G37*
G36*
G01*
X0039665Y0160413D02*
X0039665Y0163209D01*
G75*
G02*
X0039843Y0163386I0000177J0000000D01*
G01*
X0041260Y0163386D01*
G75*
G02*
X0041437Y0163209I0000000J-000177D01*
G01*
X0041437Y0160413D01*
G75*
G02*
X0041260Y0160236I-000177J0000000D01*
G01*
X0039843Y0160236D01*
G75*
G02*
X0039665Y0160413I0000000J0000177D01*
G01*
G37*
G36*
G01*
X0042717Y0160492D02*
X0042717Y0163130D01*
G75*
G02*
X0042972Y0163386I0000256J0000000D01*
G01*
X0045020Y0163386D01*
G75*
G02*
X0045276Y0163130I0000000J-000256D01*
G01*
X0045276Y0160492D01*
G75*
G02*
X0045020Y0160236I-000256J0000000D01*
G01*
X0042972Y0160236D01*
G75*
G02*
X0042717Y0160492I0000000J0000256D01*
G01*
G37*
G36*
G01*
X0042717Y0167579D02*
X0042717Y0170217D01*
G75*
G02*
X0042972Y0170472I0000256J0000000D01*
G01*
X0045020Y0170472D01*
G75*
G02*
X0045276Y0170217I0000000J-000256D01*
G01*
X0045276Y0167579D01*
G75*
G02*
X0045020Y0167323I-000256J0000000D01*
G01*
X0042972Y0167323D01*
G75*
G02*
X0042717Y0167579I0000000J0000256D01*
G01*
G37*
G36*
G01*
X0039665Y0167500D02*
X0039665Y0170295D01*
G75*
G02*
X0039843Y0170472I0000177J0000000D01*
G01*
X0041260Y0170472D01*
G75*
G02*
X0041437Y0170295I0000000J-000177D01*
G01*
X0041437Y0167500D01*
G75*
G02*
X0041260Y0167323I-000177J0000000D01*
G01*
X0039843Y0167323D01*
G75*
G02*
X0039665Y0167500I0000000J0000177D01*
G01*
G37*
G36*
G01*
X0036516Y0167500D02*
X0036516Y0170295D01*
G75*
G02*
X0036693Y0170472I0000177J0000000D01*
G01*
X0038110Y0170472D01*
G75*
G02*
X0038287Y0170295I0000000J-000177D01*
G01*
X0038287Y0167500D01*
G75*
G02*
X0038110Y0167323I-000177J0000000D01*
G01*
X0036693Y0167323D01*
G75*
G02*
X0036516Y0167500I0000000J0000177D01*
G01*
G37*
G36*
G01*
X0032677Y0167579D02*
X0032677Y0170217D01*
G75*
G02*
X0032933Y0170472I0000256J0000000D01*
G01*
X0034980Y0170472D01*
G75*
G02*
X0035236Y0170217I0000000J-000256D01*
G01*
X0035236Y0167579D01*
G75*
G02*
X0034980Y0167323I-000256J0000000D01*
G01*
X0032933Y0167323D01*
G75*
G02*
X0032677Y0167579I0000000J0000256D01*
G01*
G37*
G36*
G01*
X0259094Y0334252D02*
X0255079Y0334252D01*
G75*
G02*
X0254724Y0334606I0000000J0000354D01*
G01*
X0254724Y0337441D01*
G75*
G02*
X0255079Y0337795I0000354J0000000D01*
G01*
X0259094Y0337795D01*
G75*
G02*
X0259449Y0337441I0000000J-000354D01*
G01*
X0259449Y0334606D01*
G75*
G02*
X0259094Y0334252I-000354J0000000D01*
G01*
G37*
G36*
G01*
X0259094Y0347244D02*
X0255079Y0347244D01*
G75*
G02*
X0254724Y0347598I0000000J0000354D01*
G01*
X0254724Y0350433D01*
G75*
G02*
X0255079Y0350787I0000354J0000000D01*
G01*
X0259094Y0350787D01*
G75*
G02*
X0259449Y0350433I0000000J-000354D01*
G01*
X0259449Y0347598D01*
G75*
G02*
X0259094Y0347244I-000354J0000000D01*
G01*
G37*
G36*
G01*
X0042126Y0120335D02*
X0042126Y0122972D01*
G75*
G02*
X0042382Y0123228I0000256J0000000D01*
G01*
X0044429Y0123228D01*
G75*
G02*
X0044685Y0122972I0000000J-000256D01*
G01*
X0044685Y0120335D01*
G75*
G02*
X0044429Y0120079I-000256J0000000D01*
G01*
X0042382Y0120079D01*
G75*
G02*
X0042126Y0120335I0000000J0000256D01*
G01*
G37*
G36*
G01*
X0045965Y0120256D02*
X0045965Y0123051D01*
G75*
G02*
X0046142Y0123228I0000177J0000000D01*
G01*
X0047559Y0123228D01*
G75*
G02*
X0047736Y0123051I0000000J-000177D01*
G01*
X0047736Y0120256D01*
G75*
G02*
X0047559Y0120079I-000177J0000000D01*
G01*
X0046142Y0120079D01*
G75*
G02*
X0045965Y0120256I0000000J0000177D01*
G01*
G37*
G36*
G01*
X0049114Y0120256D02*
X0049114Y0123051D01*
G75*
G02*
X0049291Y0123228I0000177J0000000D01*
G01*
X0050709Y0123228D01*
G75*
G02*
X0050886Y0123051I0000000J-000177D01*
G01*
X0050886Y0120256D01*
G75*
G02*
X0050709Y0120079I-000177J0000000D01*
G01*
X0049291Y0120079D01*
G75*
G02*
X0049114Y0120256I0000000J0000177D01*
G01*
G37*
G36*
G01*
X0052165Y0120335D02*
X0052165Y0122972D01*
G75*
G02*
X0052421Y0123228I0000256J0000000D01*
G01*
X0054469Y0123228D01*
G75*
G02*
X0054724Y0122972I0000000J-000256D01*
G01*
X0054724Y0120335D01*
G75*
G02*
X0054469Y0120079I-000256J0000000D01*
G01*
X0052421Y0120079D01*
G75*
G02*
X0052165Y0120335I0000000J0000256D01*
G01*
G37*
G36*
G01*
X0052165Y0127421D02*
X0052165Y0130059D01*
G75*
G02*
X0052421Y0130315I0000256J0000000D01*
G01*
X0054469Y0130315D01*
G75*
G02*
X0054724Y0130059I0000000J-000256D01*
G01*
X0054724Y0127421D01*
G75*
G02*
X0054469Y0127165I-000256J0000000D01*
G01*
X0052421Y0127165D01*
G75*
G02*
X0052165Y0127421I0000000J0000256D01*
G01*
G37*
G36*
G01*
X0049114Y0127343D02*
X0049114Y0130138D01*
G75*
G02*
X0049291Y0130315I0000177J0000000D01*
G01*
X0050709Y0130315D01*
G75*
G02*
X0050886Y0130138I0000000J-000177D01*
G01*
X0050886Y0127343D01*
G75*
G02*
X0050709Y0127165I-000177J0000000D01*
G01*
X0049291Y0127165D01*
G75*
G02*
X0049114Y0127343I0000000J0000177D01*
G01*
G37*
G36*
G01*
X0045965Y0127343D02*
X0045965Y0130138D01*
G75*
G02*
X0046142Y0130315I0000177J0000000D01*
G01*
X0047559Y0130315D01*
G75*
G02*
X0047736Y0130138I0000000J-000177D01*
G01*
X0047736Y0127343D01*
G75*
G02*
X0047559Y0127165I-000177J0000000D01*
G01*
X0046142Y0127165D01*
G75*
G02*
X0045965Y0127343I0000000J0000177D01*
G01*
G37*
G36*
G01*
X0042126Y0127421D02*
X0042126Y0130059D01*
G75*
G02*
X0042382Y0130315I0000256J0000000D01*
G01*
X0044429Y0130315D01*
G75*
G02*
X0044685Y0130059I0000000J-000256D01*
G01*
X0044685Y0127421D01*
G75*
G02*
X0044429Y0127165I-000256J0000000D01*
G01*
X0042382Y0127165D01*
G75*
G02*
X0042126Y0127421I0000000J0000256D01*
G01*
G37*
G36*
G01*
X0045472Y0255886D02*
X0045472Y0253169D01*
G75*
G02*
X0044567Y0252264I-000906J0000000D01*
G01*
X0039291Y0252264D01*
G75*
G02*
X0038386Y0253169I0000000J0000906D01*
G01*
X0038386Y0255886D01*
G75*
G02*
X0039291Y0256791I0000906J0000000D01*
G01*
X0044567Y0256791D01*
G75*
G02*
X0045472Y0255886I0000000J-000906D01*
G01*
G37*
G36*
G01*
X0045472Y0267303D02*
X0045472Y0264587D01*
G75*
G02*
X0044567Y0263681I-000906J0000000D01*
G01*
X0039291Y0263681D01*
G75*
G02*
X0038386Y0264587I0000000J0000906D01*
G01*
X0038386Y0267303D01*
G75*
G02*
X0039291Y0268209I0000906J0000000D01*
G01*
X0044567Y0268209D01*
G75*
G02*
X0045472Y0267303I0000000J-000906D01*
G01*
G37*
G36*
G01*
X0071630Y0142972D02*
X0071630Y0145610D01*
G75*
G02*
X0071886Y0145866I0000256J0000000D01*
G01*
X0073933Y0145866D01*
G75*
G02*
X0074189Y0145610I0000000J-000256D01*
G01*
X0074189Y0142972D01*
G75*
G02*
X0073933Y0142717I-000256J0000000D01*
G01*
X0071886Y0142717D01*
G75*
G02*
X0071630Y0142972I0000000J0000256D01*
G01*
G37*
G36*
G01*
X0075469Y0142894D02*
X0075469Y0145689D01*
G75*
G02*
X0075646Y0145866I0000177J0000000D01*
G01*
X0077063Y0145866D01*
G75*
G02*
X0077240Y0145689I0000000J-000177D01*
G01*
X0077240Y0142894D01*
G75*
G02*
X0077063Y0142717I-000177J0000000D01*
G01*
X0075646Y0142717D01*
G75*
G02*
X0075469Y0142894I0000000J0000177D01*
G01*
G37*
G36*
G01*
X0078618Y0142894D02*
X0078618Y0145689D01*
G75*
G02*
X0078795Y0145866I0000177J0000000D01*
G01*
X0080213Y0145866D01*
G75*
G02*
X0080390Y0145689I0000000J-000177D01*
G01*
X0080390Y0142894D01*
G75*
G02*
X0080213Y0142717I-000177J0000000D01*
G01*
X0078795Y0142717D01*
G75*
G02*
X0078618Y0142894I0000000J0000177D01*
G01*
G37*
G36*
G01*
X0081669Y0142972D02*
X0081669Y0145610D01*
G75*
G02*
X0081925Y0145866I0000256J0000000D01*
G01*
X0083972Y0145866D01*
G75*
G02*
X0084228Y0145610I0000000J-000256D01*
G01*
X0084228Y0142972D01*
G75*
G02*
X0083972Y0142717I-000256J0000000D01*
G01*
X0081925Y0142717D01*
G75*
G02*
X0081669Y0142972I0000000J0000256D01*
G01*
G37*
G36*
G01*
X0081669Y0150059D02*
X0081669Y0152697D01*
G75*
G02*
X0081925Y0152953I0000256J0000000D01*
G01*
X0083972Y0152953D01*
G75*
G02*
X0084228Y0152697I0000000J-000256D01*
G01*
X0084228Y0150059D01*
G75*
G02*
X0083972Y0149803I-000256J0000000D01*
G01*
X0081925Y0149803D01*
G75*
G02*
X0081669Y0150059I0000000J0000256D01*
G01*
G37*
G36*
G01*
X0078618Y0149980D02*
X0078618Y0152776D01*
G75*
G02*
X0078795Y0152953I0000177J0000000D01*
G01*
X0080213Y0152953D01*
G75*
G02*
X0080390Y0152776I0000000J-000177D01*
G01*
X0080390Y0149980D01*
G75*
G02*
X0080213Y0149803I-000177J0000000D01*
G01*
X0078795Y0149803D01*
G75*
G02*
X0078618Y0149980I0000000J0000177D01*
G01*
G37*
G36*
G01*
X0075469Y0149980D02*
X0075469Y0152776D01*
G75*
G02*
X0075646Y0152953I0000177J0000000D01*
G01*
X0077063Y0152953D01*
G75*
G02*
X0077240Y0152776I0000000J-000177D01*
G01*
X0077240Y0149980D01*
G75*
G02*
X0077063Y0149803I-000177J0000000D01*
G01*
X0075646Y0149803D01*
G75*
G02*
X0075469Y0149980I0000000J0000177D01*
G01*
G37*
G36*
G01*
X0071630Y0150059D02*
X0071630Y0152697D01*
G75*
G02*
X0071886Y0152953I0000256J0000000D01*
G01*
X0073933Y0152953D01*
G75*
G02*
X0074189Y0152697I0000000J-000256D01*
G01*
X0074189Y0150059D01*
G75*
G02*
X0073933Y0149803I-000256J0000000D01*
G01*
X0071886Y0149803D01*
G75*
G02*
X0071630Y0150059I0000000J0000256D01*
G01*
G37*
G36*
G01*
X0177589Y0210349D02*
X0177589Y0212121D01*
G75*
G02*
X0178081Y0212613I0000492J0000000D01*
G01*
X0178081Y0212613D01*
G75*
G02*
X0178573Y0212121I0000000J-000492D01*
G01*
X0178573Y0210349D01*
G75*
G02*
X0178081Y0209857I-000492J0000000D01*
G01*
X0178081Y0209857D01*
G75*
G02*
X0177589Y0210349I0000000J0000492D01*
G01*
G37*
G36*
G01*
X0052953Y0145768D02*
X0051772Y0145768D01*
G75*
G02*
X0051181Y0146358I0000000J0000591D01*
G01*
X0051181Y0150984D01*
G75*
G02*
X0051772Y0151575I0000591J0000000D01*
G01*
X0052953Y0151575D01*
G75*
G02*
X0053543Y0150984I0000000J-000591D01*
G01*
X0053543Y0146358D01*
G75*
G02*
X0052953Y0145768I-000591J0000000D01*
G01*
G37*
G36*
G01*
X0056693Y0153150D02*
X0055512Y0153150D01*
G75*
G02*
X0054921Y0153740I0000000J0000591D01*
G01*
X0054921Y0158366D01*
G75*
G02*
X0055512Y0158957I0000591J0000000D01*
G01*
X0056693Y0158957D01*
G75*
G02*
X0057283Y0158366I0000000J-000591D01*
G01*
X0057283Y0153740D01*
G75*
G02*
X0056693Y0153150I-000591J0000000D01*
G01*
G37*
G36*
G01*
X0060433Y0145768D02*
X0059252Y0145768D01*
G75*
G02*
X0058661Y0146358I0000000J0000591D01*
G01*
X0058661Y0150984D01*
G75*
G02*
X0059252Y0151575I0000591J0000000D01*
G01*
X0060433Y0151575D01*
G75*
G02*
X0061024Y0150984I0000000J-000591D01*
G01*
X0061024Y0146358D01*
G75*
G02*
X0060433Y0145768I-000591J0000000D01*
G01*
G37*
G36*
G01*
X0227390Y0328150D02*
X0222469Y0328150D01*
G75*
G02*
X0222075Y0328543I0000000J0000394D01*
G01*
X0222075Y0331693D01*
G75*
G02*
X0222469Y0332087I0000394J0000000D01*
G01*
X0227390Y0332087D01*
G75*
G02*
X0227783Y0331693I0000000J-000394D01*
G01*
X0227783Y0328543D01*
G75*
G02*
X0227390Y0328150I-000394J0000000D01*
G01*
G37*
D193*
X0224929Y0326358D03*
G36*
G01*
X0227390Y0335630D02*
X0222469Y0335630D01*
G75*
G02*
X0222075Y0336024I0000000J0000394D01*
G01*
X0222075Y0339173D01*
G75*
G02*
X0222469Y0339567I0000394J0000000D01*
G01*
X0227390Y0339567D01*
G75*
G02*
X0227783Y0339173I0000000J-000394D01*
G01*
X0227783Y0336024D01*
G75*
G02*
X0227390Y0335630I-000394J0000000D01*
G01*
G37*
X0224929Y0341358D03*
G36*
G01*
X0069140Y0321211D02*
X0071030Y0321211D01*
G75*
G02*
X0071266Y0320974I0000000J-000236D01*
G01*
X0071266Y0319085D01*
G75*
G02*
X0071030Y0318848I-000236J0000000D01*
G01*
X0069140Y0318848D01*
G75*
G02*
X0068904Y0319085I0000000J0000236D01*
G01*
X0068904Y0320974D01*
G75*
G02*
X0069140Y0321211I0000236J0000000D01*
G01*
G37*
G36*
G01*
X0077801Y0321211D02*
X0079691Y0321211D01*
G75*
G02*
X0079927Y0320974I0000000J-000236D01*
G01*
X0079927Y0319085D01*
G75*
G02*
X0079691Y0318848I-000236J0000000D01*
G01*
X0077801Y0318848D01*
G75*
G02*
X0077565Y0319085I0000000J0000236D01*
G01*
X0077565Y0320974D01*
G75*
G02*
X0077801Y0321211I0000236J0000000D01*
G01*
G37*
G36*
G01*
X0077317Y0339419D02*
X0075427Y0339419D01*
G75*
G02*
X0075191Y0339656I0000000J0000236D01*
G01*
X0075191Y0341545D01*
G75*
G02*
X0075427Y0341782I0000236J0000000D01*
G01*
X0077317Y0341782D01*
G75*
G02*
X0077553Y0341545I0000000J-000236D01*
G01*
X0077553Y0339656D01*
G75*
G02*
X0077317Y0339419I-000236J0000000D01*
G01*
G37*
G36*
G01*
X0068656Y0339419D02*
X0066766Y0339419D01*
G75*
G02*
X0066530Y0339656I0000000J0000236D01*
G01*
X0066530Y0341545D01*
G75*
G02*
X0066766Y0341782I0000236J0000000D01*
G01*
X0068656Y0341782D01*
G75*
G02*
X0068892Y0341545I0000000J-000236D01*
G01*
X0068892Y0339656D01*
G75*
G02*
X0068656Y0339419I-000236J0000000D01*
G01*
G37*
G36*
G01*
X0059941Y0128346D02*
X0059941Y0129528D01*
G75*
G02*
X0060531Y0130118I0000591J0000000D01*
G01*
X0065157Y0130118D01*
G75*
G02*
X0065748Y0129528I0000000J-000591D01*
G01*
X0065748Y0128346D01*
G75*
G02*
X0065157Y0127756I-000591J0000000D01*
G01*
X0060531Y0127756D01*
G75*
G02*
X0059941Y0128346I0000000J0000591D01*
G01*
G37*
G36*
G01*
X0067323Y0124606D02*
X0067323Y0125787D01*
G75*
G02*
X0067913Y0126378I0000591J0000000D01*
G01*
X0072539Y0126378D01*
G75*
G02*
X0073130Y0125787I0000000J-000591D01*
G01*
X0073130Y0124606D01*
G75*
G02*
X0072539Y0124016I-000591J0000000D01*
G01*
X0067913Y0124016D01*
G75*
G02*
X0067323Y0124606I0000000J0000591D01*
G01*
G37*
G36*
G01*
X0059941Y0120866D02*
X0059941Y0122047D01*
G75*
G02*
X0060531Y0122638I0000591J0000000D01*
G01*
X0065157Y0122638D01*
G75*
G02*
X0065748Y0122047I0000000J-000591D01*
G01*
X0065748Y0120866D01*
G75*
G02*
X0065157Y0120276I-000591J0000000D01*
G01*
X0060531Y0120276D01*
G75*
G02*
X0059941Y0120866I0000000J0000591D01*
G01*
G37*
G36*
G01*
X0075402Y0118512D02*
X0075402Y0121583D01*
G75*
G02*
X0075677Y0121858I0000276J0000000D01*
G01*
X0077882Y0121858D01*
G75*
G02*
X0078157Y0121583I0000000J-000276D01*
G01*
X0078157Y0118512D01*
G75*
G02*
X0077882Y0118236I-000276J0000000D01*
G01*
X0075677Y0118236D01*
G75*
G02*
X0075402Y0118512I0000000J0000276D01*
G01*
G37*
G36*
G01*
X0081701Y0118512D02*
X0081701Y0121583D01*
G75*
G02*
X0081976Y0121858I0000276J0000000D01*
G01*
X0084181Y0121858D01*
G75*
G02*
X0084457Y0121583I0000000J-000276D01*
G01*
X0084457Y0118512D01*
G75*
G02*
X0084181Y0118236I-000276J0000000D01*
G01*
X0081976Y0118236D01*
G75*
G02*
X0081701Y0118512I0000000J0000276D01*
G01*
G37*
G36*
G01*
X0079134Y0335177D02*
X0079134Y0332539D01*
G75*
G02*
X0078878Y0332283I-000256J0000000D01*
G01*
X0076831Y0332283D01*
G75*
G02*
X0076575Y0332539I0000000J0000256D01*
G01*
X0076575Y0335177D01*
G75*
G02*
X0076831Y0335433I0000256J0000000D01*
G01*
X0078878Y0335433D01*
G75*
G02*
X0079134Y0335177I0000000J-000256D01*
G01*
G37*
G36*
G01*
X0075295Y0335256D02*
X0075295Y0332461D01*
G75*
G02*
X0075118Y0332283I-000177J0000000D01*
G01*
X0073701Y0332283D01*
G75*
G02*
X0073524Y0332461I0000000J0000177D01*
G01*
X0073524Y0335256D01*
G75*
G02*
X0073701Y0335433I0000177J0000000D01*
G01*
X0075118Y0335433D01*
G75*
G02*
X0075295Y0335256I0000000J-000177D01*
G01*
G37*
G36*
G01*
X0072146Y0335256D02*
X0072146Y0332461D01*
G75*
G02*
X0071969Y0332283I-000177J0000000D01*
G01*
X0070551Y0332283D01*
G75*
G02*
X0070374Y0332461I0000000J0000177D01*
G01*
X0070374Y0335256D01*
G75*
G02*
X0070551Y0335433I0000177J0000000D01*
G01*
X0071969Y0335433D01*
G75*
G02*
X0072146Y0335256I0000000J-000177D01*
G01*
G37*
G36*
G01*
X0069094Y0335177D02*
X0069094Y0332539D01*
G75*
G02*
X0068839Y0332283I-000256J0000000D01*
G01*
X0066791Y0332283D01*
G75*
G02*
X0066535Y0332539I0000000J0000256D01*
G01*
X0066535Y0335177D01*
G75*
G02*
X0066791Y0335433I0000256J0000000D01*
G01*
X0068839Y0335433D01*
G75*
G02*
X0069094Y0335177I0000000J-000256D01*
G01*
G37*
G36*
G01*
X0069094Y0328091D02*
X0069094Y0325453D01*
G75*
G02*
X0068839Y0325197I-000256J0000000D01*
G01*
X0066791Y0325197D01*
G75*
G02*
X0066535Y0325453I0000000J0000256D01*
G01*
X0066535Y0328091D01*
G75*
G02*
X0066791Y0328346I0000256J0000000D01*
G01*
X0068839Y0328346D01*
G75*
G02*
X0069094Y0328091I0000000J-000256D01*
G01*
G37*
G36*
G01*
X0072146Y0328169D02*
X0072146Y0325374D01*
G75*
G02*
X0071969Y0325197I-000177J0000000D01*
G01*
X0070551Y0325197D01*
G75*
G02*
X0070374Y0325374I0000000J0000177D01*
G01*
X0070374Y0328169D01*
G75*
G02*
X0070551Y0328346I0000177J0000000D01*
G01*
X0071969Y0328346D01*
G75*
G02*
X0072146Y0328169I0000000J-000177D01*
G01*
G37*
G36*
G01*
X0075295Y0328169D02*
X0075295Y0325374D01*
G75*
G02*
X0075118Y0325197I-000177J0000000D01*
G01*
X0073701Y0325197D01*
G75*
G02*
X0073524Y0325374I0000000J0000177D01*
G01*
X0073524Y0328169D01*
G75*
G02*
X0073701Y0328346I0000177J0000000D01*
G01*
X0075118Y0328346D01*
G75*
G02*
X0075295Y0328169I0000000J-000177D01*
G01*
G37*
G36*
G01*
X0079134Y0328091D02*
X0079134Y0325453D01*
G75*
G02*
X0078878Y0325197I-000256J0000000D01*
G01*
X0076831Y0325197D01*
G75*
G02*
X0076575Y0325453I0000000J0000256D01*
G01*
X0076575Y0328091D01*
G75*
G02*
X0076831Y0328346I0000256J0000000D01*
G01*
X0078878Y0328346D01*
G75*
G02*
X0079134Y0328091I0000000J-000256D01*
G01*
G37*
G36*
G01*
X0306732Y0384252D02*
X0302717Y0384252D01*
G75*
G02*
X0302362Y0384606I0000000J0000354D01*
G01*
X0302362Y0387441D01*
G75*
G02*
X0302717Y0387795I0000354J0000000D01*
G01*
X0306732Y0387795D01*
G75*
G02*
X0307087Y0387441I0000000J-000354D01*
G01*
X0307087Y0384606D01*
G75*
G02*
X0306732Y0384252I-000354J0000000D01*
G01*
G37*
G36*
G01*
X0306732Y0397244D02*
X0302717Y0397244D01*
G75*
G02*
X0302362Y0397598I0000000J0000354D01*
G01*
X0302362Y0400433D01*
G75*
G02*
X0302717Y0400787I0000354J0000000D01*
G01*
X0306732Y0400787D01*
G75*
G02*
X0307087Y0400433I0000000J-000354D01*
G01*
X0307087Y0397598D01*
G75*
G02*
X0306732Y0397244I-000354J0000000D01*
G01*
G37*
X0232929Y0326358D03*
G36*
G01*
X0235390Y0328150D02*
X0230469Y0328150D01*
G75*
G02*
X0230075Y0328543I0000000J0000394D01*
G01*
X0230075Y0331693D01*
G75*
G02*
X0230469Y0332087I0000394J0000000D01*
G01*
X0235390Y0332087D01*
G75*
G02*
X0235783Y0331693I0000000J-000394D01*
G01*
X0235783Y0328543D01*
G75*
G02*
X0235390Y0328150I-000394J0000000D01*
G01*
G37*
X0232929Y0341358D03*
G36*
G01*
X0235390Y0335630D02*
X0230469Y0335630D01*
G75*
G02*
X0230075Y0336024I0000000J0000394D01*
G01*
X0230075Y0339173D01*
G75*
G02*
X0230469Y0339567I0000394J0000000D01*
G01*
X0235390Y0339567D01*
G75*
G02*
X0235783Y0339173I0000000J-000394D01*
G01*
X0235783Y0336024D01*
G75*
G02*
X0235390Y0335630I-000394J0000000D01*
G01*
G37*
G36*
G01*
X0290748Y0400098D02*
X0290748Y0395177D01*
G75*
G02*
X0290354Y0394783I-000394J0000000D01*
G01*
X0287205Y0394783D01*
G75*
G02*
X0286811Y0395177I0000000J0000394D01*
G01*
X0286811Y0400098D01*
G75*
G02*
X0287205Y0400492I0000394J0000000D01*
G01*
X0290354Y0400492D01*
G75*
G02*
X0290748Y0400098I0000000J-000394D01*
G01*
G37*
X0292539Y0397638D03*
X0277539Y0397638D03*
G36*
G01*
X0283268Y0400098D02*
X0283268Y0395177D01*
G75*
G02*
X0282874Y0394783I-000394J0000000D01*
G01*
X0279724Y0394783D01*
G75*
G02*
X0279331Y0395177I0000000J0000394D01*
G01*
X0279331Y0400098D01*
G75*
G02*
X0279724Y0400492I0000394J0000000D01*
G01*
X0282874Y0400492D01*
G75*
G02*
X0283268Y0400098I0000000J-000394D01*
G01*
G37*
G36*
G01*
X0243390Y0328339D02*
X0238469Y0328339D01*
G75*
G02*
X0238075Y0328732I0000000J0000394D01*
G01*
X0238075Y0331882D01*
G75*
G02*
X0238469Y0332276I0000394J0000000D01*
G01*
X0243390Y0332276D01*
G75*
G02*
X0243783Y0331882I0000000J-000394D01*
G01*
X0243783Y0328732D01*
G75*
G02*
X0243390Y0328339I-000394J0000000D01*
G01*
G37*
X0240929Y0326547D03*
G36*
G01*
X0243390Y0335819D02*
X0238469Y0335819D01*
G75*
G02*
X0238075Y0336213I0000000J0000394D01*
G01*
X0238075Y0339362D01*
G75*
G02*
X0238469Y0339756I0000394J0000000D01*
G01*
X0243390Y0339756D01*
G75*
G02*
X0243783Y0339362I0000000J-000394D01*
G01*
X0243783Y0336213D01*
G75*
G02*
X0243390Y0335819I-000394J0000000D01*
G01*
G37*
X0240929Y0341547D03*
D103*
X0092913Y0388185D03*
X0249606Y0388185D03*
D181*
X0121063Y0364563D03*
X0136811Y0364563D03*
X0150591Y0364563D03*
X0164370Y0364563D03*
X0178150Y0364563D03*
X0191929Y0364563D03*
X0205709Y0364563D03*
X0221457Y0364563D03*
X0121063Y0380311D03*
X0136811Y0380311D03*
X0150591Y0380311D03*
X0164370Y0380311D03*
X0178150Y0380311D03*
X0191929Y0380311D03*
X0205709Y0380311D03*
X0221457Y0380311D03*
X0121063Y0396059D03*
X0136811Y0396059D03*
X0150591Y0396059D03*
X0164370Y0396059D03*
X0178150Y0396059D03*
X0191929Y0396059D03*
X0205709Y0396059D03*
X0221457Y0396059D03*
G36*
G01*
X0298563Y0052992D02*
X0298563Y0055669D01*
G75*
G02*
X0298898Y0056004I0000335J0000000D01*
G01*
X0301575Y0056004D01*
G75*
G02*
X0301909Y0055669I0000000J-000335D01*
G01*
X0301909Y0052992D01*
G75*
G02*
X0301575Y0052657I-000335J0000000D01*
G01*
X0298898Y0052657D01*
G75*
G02*
X0298563Y0052992I0000000J0000335D01*
G01*
G37*
G36*
G01*
X0304783Y0052992D02*
X0304783Y0055669D01*
G75*
G02*
X0305118Y0056004I0000335J0000000D01*
G01*
X0307795Y0056004D01*
G75*
G02*
X0308130Y0055669I0000000J-000335D01*
G01*
X0308130Y0052992D01*
G75*
G02*
X0307795Y0052657I-000335J0000000D01*
G01*
X0305118Y0052657D01*
G75*
G02*
X0304783Y0052992I0000000J0000335D01*
G01*
G37*
D107*
X0094144Y0206644D03*
X0094144Y0059544D03*
X0094144Y0107825D03*
D59*
X0108809Y0210659D03*
D107*
X0094144Y0163730D03*
D59*
X0101329Y0210659D03*
D107*
X0109104Y0065010D03*
D193*
X0107087Y0326358D03*
G36*
G01*
X0109547Y0328150D02*
X0104626Y0328150D01*
G75*
G02*
X0104232Y0328543I0000000J0000394D01*
G01*
X0104232Y0331693D01*
G75*
G02*
X0104626Y0332087I0000394J0000000D01*
G01*
X0109547Y0332087D01*
G75*
G02*
X0109941Y0331693I0000000J-000394D01*
G01*
X0109941Y0328543D01*
G75*
G02*
X0109547Y0328150I-000394J0000000D01*
G01*
G37*
G36*
G01*
X0109547Y0335630D02*
X0104626Y0335630D01*
G75*
G02*
X0104232Y0336024I0000000J0000394D01*
G01*
X0104232Y0339173D01*
G75*
G02*
X0104626Y0339567I0000394J0000000D01*
G01*
X0109547Y0339567D01*
G75*
G02*
X0109941Y0339173I0000000J-000394D01*
G01*
X0109941Y0336024D01*
G75*
G02*
X0109547Y0335630I-000394J0000000D01*
G01*
G37*
X0107087Y0341358D03*
G36*
G01*
X0138287Y0328150D02*
X0133366Y0328150D01*
G75*
G02*
X0132972Y0328543I0000000J0000394D01*
G01*
X0132972Y0331693D01*
G75*
G02*
X0133366Y0332087I0000394J0000000D01*
G01*
X0138287Y0332087D01*
G75*
G02*
X0138681Y0331693I0000000J-000394D01*
G01*
X0138681Y0328543D01*
G75*
G02*
X0138287Y0328150I-000394J0000000D01*
G01*
G37*
X0135827Y0326358D03*
X0135827Y0341358D03*
G36*
G01*
X0138287Y0335630D02*
X0133366Y0335630D01*
G75*
G02*
X0132972Y0336024I0000000J0000394D01*
G01*
X0132972Y0339173D01*
G75*
G02*
X0133366Y0339567I0000394J0000000D01*
G01*
X0138287Y0339567D01*
G75*
G02*
X0138681Y0339173I0000000J-000394D01*
G01*
X0138681Y0336024D01*
G75*
G02*
X0138287Y0335630I-000394J0000000D01*
G01*
G37*
G36*
G01*
X0035433Y0290551D02*
X0031890Y0290551D01*
G75*
G02*
X0031496Y0290945I0000000J0000394D01*
G01*
X0031496Y0294094D01*
G75*
G02*
X0031890Y0294488I0000394J0000000D01*
G01*
X0035433Y0294488D01*
G75*
G02*
X0035827Y0294094I0000000J-000394D01*
G01*
X0035827Y0290945D01*
G75*
G02*
X0035433Y0290551I-000394J0000000D01*
G01*
G37*
G36*
G01*
X0035433Y0297244D02*
X0031890Y0297244D01*
G75*
G02*
X0031496Y0297638I0000000J0000394D01*
G01*
X0031496Y0300787D01*
G75*
G02*
X0031890Y0301181I0000394J0000000D01*
G01*
X0035433Y0301181D01*
G75*
G02*
X0035827Y0300787I0000000J-000394D01*
G01*
X0035827Y0297638D01*
G75*
G02*
X0035433Y0297244I-000394J0000000D01*
G01*
G37*
G36*
G01*
X0301083Y0282283D02*
X0297303Y0282283D01*
G75*
G02*
X0296831Y0282756I0000000J0000472D01*
G01*
X0296831Y0290472D01*
G75*
G02*
X0297303Y0290945I0000472J0000000D01*
G01*
X0301083Y0290945D01*
G75*
G02*
X0301555Y0290472I0000000J-000472D01*
G01*
X0301555Y0282756D01*
G75*
G02*
X0301083Y0282283I-000472J0000000D01*
G01*
G37*
D179*
X0308169Y0311417D03*
G36*
G01*
X0319035Y0282283D02*
X0315256Y0282283D01*
G75*
G02*
X0314783Y0282756I0000000J0000472D01*
G01*
X0314783Y0290472D01*
G75*
G02*
X0315256Y0290945I0000472J0000000D01*
G01*
X0319035Y0290945D01*
G75*
G02*
X0319508Y0290472I0000000J-000472D01*
G01*
X0319508Y0282756D01*
G75*
G02*
X0319035Y0282283I-000472J0000000D01*
G01*
G37*
D226*
X0172278Y0039961D03*
X0172278Y0055315D03*
X0177278Y0039961D03*
X0177278Y0055315D03*
X0182278Y0039961D03*
X0182278Y0055315D03*
X0187278Y0039961D03*
X0187278Y0055315D03*
X0192278Y0039961D03*
X0192278Y0055315D03*
D193*
X0127165Y0341142D03*
G36*
G01*
X0123622Y0335846D02*
X0123622Y0338563D01*
G75*
G02*
X0124528Y0339469I0000906J0000000D01*
G01*
X0129803Y0339469D01*
G75*
G02*
X0130709Y0338563I0000000J-000906D01*
G01*
X0130709Y0335846D01*
G75*
G02*
X0129803Y0334941I-000906J0000000D01*
G01*
X0124528Y0334941D01*
G75*
G02*
X0123622Y0335846I0000000J0000906D01*
G01*
G37*
X0127165Y0321850D03*
G36*
G01*
X0123622Y0324429D02*
X0123622Y0327146D01*
G75*
G02*
X0124528Y0328051I0000906J0000000D01*
G01*
X0129803Y0328051D01*
G75*
G02*
X0130709Y0327146I0000000J-000906D01*
G01*
X0130709Y0324429D01*
G75*
G02*
X0129803Y0323524I-000906J0000000D01*
G01*
X0124528Y0323524D01*
G75*
G02*
X0123622Y0324429I0000000J0000906D01*
G01*
G37*
X0204929Y0341535D03*
G36*
G01*
X0201386Y0336240D02*
X0201386Y0338957D01*
G75*
G02*
X0202291Y0339862I0000906J0000000D01*
G01*
X0207567Y0339862D01*
G75*
G02*
X0208472Y0338957I0000000J-000906D01*
G01*
X0208472Y0336240D01*
G75*
G02*
X0207567Y0335335I-000906J0000000D01*
G01*
X0202291Y0335335D01*
G75*
G02*
X0201386Y0336240I0000000J0000906D01*
G01*
G37*
G36*
G01*
X0201386Y0324823D02*
X0201386Y0327539D01*
G75*
G02*
X0202291Y0328445I0000906J0000000D01*
G01*
X0207567Y0328445D01*
G75*
G02*
X0208472Y0327539I0000000J-000906D01*
G01*
X0208472Y0324823D01*
G75*
G02*
X0207567Y0323917I-000906J0000000D01*
G01*
X0202291Y0323917D01*
G75*
G02*
X0201386Y0324823I0000000J0000906D01*
G01*
G37*
X0204929Y0322244D03*
X0116598Y0280464D02*
G01*
G75*
D288*
X0103015Y0224657D02*
D03*
X0103015Y0236074D02*
D03*
X0111086Y0224559D02*
D03*
X0111086Y0235976D02*
D03*
X0074275Y0222984D02*
D03*
X0074275Y0234401D02*
D03*
D294*
X0081204Y0245031D02*
D03*
X0087425Y0245031D02*
D03*
D293*
X0065397Y0252019D02*
D03*
X0074649Y0248279D02*
D03*
D293*
X0065397Y0244539D02*
D03*
D292*
X0088941Y0231015D02*
D03*
X0081460Y0231015D02*
D03*
X0081460Y0239480D02*
D03*
X0085200Y0239480D02*
D03*
D292*
X0088941Y0239480D02*
D03*
D102*
X0054688Y0238338D02*
D03*
D43*
X0115811Y0254283D02*
D03*
D291*
X0059118Y0267373D02*
D03*
X0086480Y0267373D02*
D03*
D289*
X0100653Y0252314D02*
D03*
X0109315Y0252314D02*
D03*
X0109019Y0242275D02*
D03*
X0100358Y0242275D02*
D03*
D290*
X0067976Y0222984D02*
D03*
X0054984Y0222984D02*
D03*
D298*
X0056559Y0238338D02*
D03*
X0056559Y0229677D02*
D03*
X0065230Y0240021D02*
D03*
X0065230Y0231360D02*
D03*
D297*
X0097011Y0252118D02*
D03*
X0090712Y0252118D02*
D03*
X0096913Y0247295D02*
D03*
X0103212Y0247295D02*
D03*
X0086677Y0252314D02*
D03*
X0080378Y0252314D02*
D03*
D296*
X0112956Y0248968D02*
D03*
X0112956Y0242748D02*
D03*
D295*
X0095437Y0222295D02*
D03*
X0095437Y0235287D02*
D03*
D74*
X0091627Y0246438D02*
D03*
X0059314Y0220622D02*
D03*
X0084216Y0248377D02*
D03*
X0113153Y0252807D02*
D03*
X0091696Y0225838D02*
D03*
X0121309Y0057037D02*
G01*
G75*
D313*
X0102903Y0076624D02*
D03*
X0095423Y0076624D02*
D03*
X0103100Y0108021D02*
D03*
X0095620Y0108021D02*
D03*
D312*
X0103199Y0205954D02*
D03*
X0114222Y0205954D02*
D03*
D320*
X0109203Y0084301D02*
D03*
X0109203Y0100443D02*
D03*
D321*
X0097293Y0209793D02*
D03*
X0097293Y0203494D02*
D03*
X0096703Y0158907D02*
D03*
X0096703Y0165206D02*
D03*
X0097293Y0120226D02*
D03*
X0097293Y0113927D02*
D03*
D271*
X0096407Y0198927D02*
D03*
X0096407Y0192706D02*
D03*
X0101821Y0113868D02*
D03*
X0101821Y0120088D02*
D03*
X0116880Y0167706D02*
D03*
X0116880Y0173927D02*
D03*
D319*
X0098022Y0124458D02*
D03*
X0104242Y0124458D02*
D03*
D317*
X0100915Y0137352D02*
D03*
X0105915Y0137352D02*
D03*
X0110915Y0137352D02*
D03*
X0115915Y0137352D02*
D03*
X0100915Y0159990D02*
D03*
X0105915Y0159990D02*
D03*
X0110915Y0159990D02*
D03*
X0115915Y0159990D02*
D03*
D318*
X0108415Y0148671D02*
D03*
D316*
X0111762Y0126821D02*
D03*
X0111762Y0111072D02*
D03*
D31*
X0101329Y0210659D02*
D03*
X0108809Y0210659D02*
D03*
D314*
X0101526Y0188041D02*
D03*
X0112943Y0188041D02*
D03*
X0095423Y0171112D02*
D03*
X0106840Y0171112D02*
D03*
X0112844Y0179872D02*
D03*
X0101427Y0179872D02*
D03*
X0113041Y0196112D02*
D03*
X0101624Y0196112D02*
D03*
D315*
X0097884Y0065108D02*
D03*
X0115600Y0065108D02*
D03*
D322*
X0097982Y0128887D02*
D03*
X0104281Y0128887D02*
D03*
D102*
X0095423Y0065108D02*
D03*
D74*
X0094144Y0163730D02*
D03*
X0094144Y0206643D02*
D03*
X0109104Y0065009D02*
D03*
X0094144Y0107824D02*
D03*
X0094144Y0059544D02*
D03*
X0118701Y0298819D02*
%LPD*%
G01*
G36*
G01*
X0125847Y0236929D02*
X0127303Y0236929D01*
G75*
G02*
X0127835Y0236398I0000000J-000531D01*
G01*
X0127835Y0235335D01*
G75*
G02*
X0127303Y0234803I-000531J0000000D01*
G01*
X0125847Y0234803D01*
G75*
G02*
X0125315Y0235335I0000000J0000531D01*
G01*
X0125315Y0236398D01*
G75*
G02*
X0125847Y0236929I0000531J0000000D01*
G01*
G37*
G36*
G01*
X0125847Y0232913D02*
X0127303Y0232913D01*
G75*
G02*
X0127835Y0232382I0000000J-000531D01*
G01*
X0127835Y0231319D01*
G75*
G02*
X0127303Y0230788I-000531J0000000D01*
G01*
X0125847Y0230788D01*
G75*
G02*
X0125315Y0231319I0000000J0000531D01*
G01*
X0125315Y0232382D01*
G75*
G02*
X0125847Y0232913I0000531J0000000D01*
G01*
G37*
G36*
G01*
X0173229Y0255079D02*
X0172047Y0255079D01*
G75*
G02*
X0171457Y0255669I0000000J0000591D01*
G01*
X0171457Y0259705D01*
G75*
G02*
X0172047Y0260295I0000591J0000000D01*
G01*
X0173229Y0260295D01*
G75*
G02*
X0173819Y0259705I0000000J-000591D01*
G01*
X0173819Y0255669D01*
G75*
G02*
X0173229Y0255079I-000591J0000000D01*
G01*
G37*
G36*
G01*
X0176969Y0255079D02*
X0175788Y0255079D01*
G75*
G02*
X0175197Y0255669I0000000J0000591D01*
G01*
X0175197Y0259705D01*
G75*
G02*
X0175788Y0260295I0000591J0000000D01*
G01*
X0176969Y0260295D01*
G75*
G02*
X0177559Y0259705I0000000J-000591D01*
G01*
X0177559Y0255669D01*
G75*
G02*
X0176969Y0255079I-000591J0000000D01*
G01*
G37*
G36*
G01*
X0180709Y0255079D02*
X0179528Y0255079D01*
G75*
G02*
X0178937Y0255669I0000000J0000591D01*
G01*
X0178937Y0259705D01*
G75*
G02*
X0179528Y0260295I0000591J0000000D01*
G01*
X0180709Y0260295D01*
G75*
G02*
X0181299Y0259705I0000000J-000591D01*
G01*
X0181299Y0255669D01*
G75*
G02*
X0180709Y0255079I-000591J0000000D01*
G01*
G37*
G36*
G01*
X0180709Y0264036D02*
X0179528Y0264036D01*
G75*
G02*
X0178937Y0264626I0000000J0000591D01*
G01*
X0178937Y0268662D01*
G75*
G02*
X0179528Y0269252I0000591J0000000D01*
G01*
X0180709Y0269252D01*
G75*
G02*
X0181299Y0268662I0000000J-000591D01*
G01*
X0181299Y0264626D01*
G75*
G02*
X0180709Y0264036I-000591J0000000D01*
G01*
G37*
G36*
G01*
X0173229Y0264036D02*
X0172047Y0264036D01*
G75*
G02*
X0171457Y0264626I0000000J0000591D01*
G01*
X0171457Y0268662D01*
G75*
G02*
X0172047Y0269252I0000591J0000000D01*
G01*
X0173229Y0269252D01*
G75*
G02*
X0173819Y0268662I0000000J-000591D01*
G01*
X0173819Y0264626D01*
G75*
G02*
X0173229Y0264036I-000591J0000000D01*
G01*
G37*
G36*
G01*
X0166221Y0246732D02*
X0164882Y0246732D01*
G75*
G02*
X0164331Y0247284I0000000J0000551D01*
G01*
X0164331Y0248386D01*
G75*
G02*
X0164882Y0248937I0000551J0000000D01*
G01*
X0166221Y0248937D01*
G75*
G02*
X0166772Y0248386I0000000J-000551D01*
G01*
X0166772Y0247284D01*
G75*
G02*
X0166221Y0246732I-000551J0000000D01*
G01*
G37*
G36*
G01*
X0166221Y0250512D02*
X0164882Y0250512D01*
G75*
G02*
X0164331Y0251063I0000000J0000551D01*
G01*
X0164331Y0252165D01*
G75*
G02*
X0164882Y0252717I0000551J0000000D01*
G01*
X0166221Y0252717D01*
G75*
G02*
X0166772Y0252165I0000000J-000551D01*
G01*
X0166772Y0251063D01*
G75*
G02*
X0166221Y0250512I-000551J0000000D01*
G01*
G37*
G36*
G01*
X0153563Y0296043D02*
X0154744Y0296043D01*
G75*
G02*
X0155335Y0295453I0000000J-000591D01*
G01*
X0155335Y0288957D01*
G75*
G02*
X0154744Y0288366I-000591J0000000D01*
G01*
X0153563Y0288366D01*
G75*
G02*
X0152973Y0288957I0000000J0000591D01*
G01*
X0152973Y0295453D01*
G75*
G02*
X0153563Y0296043I0000591J0000000D01*
G01*
G37*
G36*
G01*
X0148563Y0296043D02*
X0149744Y0296043D01*
G75*
G02*
X0150335Y0295453I0000000J-000591D01*
G01*
X0150335Y0288957D01*
G75*
G02*
X0149744Y0288366I-000591J0000000D01*
G01*
X0148563Y0288366D01*
G75*
G02*
X0147973Y0288957I0000000J0000591D01*
G01*
X0147973Y0295453D01*
G75*
G02*
X0148563Y0296043I0000591J0000000D01*
G01*
G37*
G36*
G01*
X0143563Y0296043D02*
X0144744Y0296043D01*
G75*
G02*
X0145335Y0295453I0000000J-000591D01*
G01*
X0145335Y0288957D01*
G75*
G02*
X0144744Y0288366I-000591J0000000D01*
G01*
X0143563Y0288366D01*
G75*
G02*
X0142973Y0288957I0000000J0000591D01*
G01*
X0142973Y0295453D01*
G75*
G02*
X0143563Y0296043I0000591J0000000D01*
G01*
G37*
G36*
G01*
X0138563Y0296043D02*
X0139744Y0296043D01*
G75*
G02*
X0140335Y0295453I0000000J-000591D01*
G01*
X0140335Y0288957D01*
G75*
G02*
X0139744Y0288366I-000591J0000000D01*
G01*
X0138563Y0288366D01*
G75*
G02*
X0137973Y0288957I0000000J0000591D01*
G01*
X0137973Y0295453D01*
G75*
G02*
X0138563Y0296043I0000591J0000000D01*
G01*
G37*
G36*
G01*
X0138563Y0276555D02*
X0139744Y0276555D01*
G75*
G02*
X0140335Y0275965I0000000J-000591D01*
G01*
X0140335Y0269469D01*
G75*
G02*
X0139744Y0268878I-000591J0000000D01*
G01*
X0138563Y0268878D01*
G75*
G02*
X0137973Y0269469I0000000J0000591D01*
G01*
X0137973Y0275965D01*
G75*
G02*
X0138563Y0276555I0000591J0000000D01*
G01*
G37*
G36*
G01*
X0143563Y0276555D02*
X0144744Y0276555D01*
G75*
G02*
X0145335Y0275965I0000000J-000591D01*
G01*
X0145335Y0269469D01*
G75*
G02*
X0144744Y0268878I-000591J0000000D01*
G01*
X0143563Y0268878D01*
G75*
G02*
X0142973Y0269469I0000000J0000591D01*
G01*
X0142973Y0275965D01*
G75*
G02*
X0143563Y0276555I0000591J0000000D01*
G01*
G37*
G36*
G01*
X0148563Y0276555D02*
X0149744Y0276555D01*
G75*
G02*
X0150335Y0275965I0000000J-000591D01*
G01*
X0150335Y0269469D01*
G75*
G02*
X0149744Y0268878I-000591J0000000D01*
G01*
X0148563Y0268878D01*
G75*
G02*
X0147973Y0269469I0000000J0000591D01*
G01*
X0147973Y0275965D01*
G75*
G02*
X0148563Y0276555I0000591J0000000D01*
G01*
G37*
G36*
G01*
X0153563Y0276555D02*
X0154744Y0276555D01*
G75*
G02*
X0155335Y0275965I0000000J-000591D01*
G01*
X0155335Y0269469D01*
G75*
G02*
X0154744Y0268878I-000591J0000000D01*
G01*
X0153563Y0268878D01*
G75*
G02*
X0152973Y0269469I0000000J0000591D01*
G01*
X0152973Y0275965D01*
G75*
G02*
X0153563Y0276555I0000591J0000000D01*
G01*
G37*
G36*
G01*
X0170040Y0288701D02*
X0170040Y0290039D01*
G75*
G02*
X0170591Y0290591I0000551J0000000D01*
G01*
X0171693Y0290591D01*
G75*
G02*
X0172244Y0290039I0000000J-000551D01*
G01*
X0172244Y0288701D01*
G75*
G02*
X0171693Y0288150I-000551J0000000D01*
G01*
X0170591Y0288150D01*
G75*
G02*
X0170040Y0288701I0000000J0000551D01*
G01*
G37*
G36*
G01*
X0173819Y0288701D02*
X0173819Y0290039D01*
G75*
G02*
X0174370Y0290591I0000551J0000000D01*
G01*
X0175473Y0290591D01*
G75*
G02*
X0176024Y0290039I0000000J-000551D01*
G01*
X0176024Y0288701D01*
G75*
G02*
X0175473Y0288150I-000551J0000000D01*
G01*
X0174370Y0288150D01*
G75*
G02*
X0173819Y0288701I0000000J0000551D01*
G01*
G37*
D77*
X0166280Y0285906D03*
X0163721Y0285906D03*
X0161162Y0285906D03*
X0161162Y0278425D03*
X0163721Y0278425D03*
X0166280Y0278425D03*
G36*
G01*
X0158681Y0268898D02*
X0158681Y0270236D01*
G75*
G02*
X0159232Y0270788I0000551J0000000D01*
G01*
X0160335Y0270788D01*
G75*
G02*
X0160886Y0270236I0000000J-000551D01*
G01*
X0160886Y0268898D01*
G75*
G02*
X0160335Y0268347I-000551J0000000D01*
G01*
X0159232Y0268347D01*
G75*
G02*
X0158681Y0268898I0000000J0000551D01*
G01*
G37*
G36*
G01*
X0162461Y0268898D02*
X0162461Y0270236D01*
G75*
G02*
X0163012Y0270788I0000551J0000000D01*
G01*
X0164114Y0270788D01*
G75*
G02*
X0164666Y0270236I0000000J-000551D01*
G01*
X0164666Y0268898D01*
G75*
G02*
X0164114Y0268347I-000551J0000000D01*
G01*
X0163012Y0268347D01*
G75*
G02*
X0162461Y0268898I0000000J0000551D01*
G01*
G37*
D107*
X0122146Y0228347D03*
X0151673Y0228347D03*
X0154823Y0228347D03*
X0157973Y0228347D03*
X0129626Y0297343D03*
X0125689Y0297343D03*
G36*
G01*
X0164823Y0245000D02*
X0166280Y0245000D01*
G75*
G02*
X0166811Y0244469I0000000J-000531D01*
G01*
X0166811Y0243406D01*
G75*
G02*
X0166280Y0242874I-000531J0000000D01*
G01*
X0164823Y0242874D01*
G75*
G02*
X0164292Y0243406I0000000J0000531D01*
G01*
X0164292Y0244469D01*
G75*
G02*
X0164823Y0245000I0000531J0000000D01*
G01*
G37*
G36*
G01*
X0164823Y0240984D02*
X0166280Y0240984D01*
G75*
G02*
X0166811Y0240453I0000000J-000531D01*
G01*
X0166811Y0239390D01*
G75*
G02*
X0166280Y0238858I-000531J0000000D01*
G01*
X0164823Y0238858D01*
G75*
G02*
X0164292Y0239390I0000000J0000531D01*
G01*
X0164292Y0240453D01*
G75*
G02*
X0164823Y0240984I0000531J0000000D01*
G01*
G37*
G36*
G01*
X0155709Y0265906D02*
X0155709Y0264567D01*
G75*
G02*
X0155158Y0264016I-000551J0000000D01*
G01*
X0154055Y0264016D01*
G75*
G02*
X0153504Y0264567I0000000J0000551D01*
G01*
X0153504Y0265906D01*
G75*
G02*
X0154055Y0266457I0000551J0000000D01*
G01*
X0155158Y0266457D01*
G75*
G02*
X0155709Y0265906I0000000J-000551D01*
G01*
G37*
G36*
G01*
X0151929Y0265906D02*
X0151929Y0264567D01*
G75*
G02*
X0151378Y0264016I-000551J0000000D01*
G01*
X0150276Y0264016D01*
G75*
G02*
X0149725Y0264567I0000000J0000551D01*
G01*
X0149725Y0265906D01*
G75*
G02*
X0150276Y0266457I0000551J0000000D01*
G01*
X0151378Y0266457D01*
G75*
G02*
X0151929Y0265906I0000000J-000551D01*
G01*
G37*
G36*
G01*
X0158681Y0272835D02*
X0158681Y0274173D01*
G75*
G02*
X0159232Y0274725I0000551J0000000D01*
G01*
X0160335Y0274725D01*
G75*
G02*
X0160886Y0274173I0000000J-000551D01*
G01*
X0160886Y0272835D01*
G75*
G02*
X0160335Y0272284I-000551J0000000D01*
G01*
X0159232Y0272284D01*
G75*
G02*
X0158681Y0272835I0000000J0000551D01*
G01*
G37*
G36*
G01*
X0162461Y0272835D02*
X0162461Y0274173D01*
G75*
G02*
X0163012Y0274725I0000551J0000000D01*
G01*
X0164114Y0274725D01*
G75*
G02*
X0164666Y0274173I0000000J-000551D01*
G01*
X0164666Y0272835D01*
G75*
G02*
X0164114Y0272284I-000551J0000000D01*
G01*
X0163012Y0272284D01*
G75*
G02*
X0162461Y0272835I0000000J0000551D01*
G01*
G37*
G36*
G01*
X0174095Y0238858D02*
X0172756Y0238858D01*
G75*
G02*
X0172205Y0239410I0000000J0000551D01*
G01*
X0172205Y0240512D01*
G75*
G02*
X0172756Y0241063I0000551J0000000D01*
G01*
X0174095Y0241063D01*
G75*
G02*
X0174646Y0240512I0000000J-000551D01*
G01*
X0174646Y0239410D01*
G75*
G02*
X0174095Y0238858I-000551J0000000D01*
G01*
G37*
G36*
G01*
X0174095Y0242638D02*
X0172756Y0242638D01*
G75*
G02*
X0172205Y0243189I0000000J0000551D01*
G01*
X0172205Y0244291D01*
G75*
G02*
X0172756Y0244843I0000551J0000000D01*
G01*
X0174095Y0244843D01*
G75*
G02*
X0174646Y0244291I0000000J-000551D01*
G01*
X0174646Y0243189D01*
G75*
G02*
X0174095Y0242638I-000551J0000000D01*
G01*
G37*
G36*
G01*
X0164488Y0235295D02*
X0164488Y0236752D01*
G75*
G02*
X0165020Y0237284I0000531J0000000D01*
G01*
X0166083Y0237284D01*
G75*
G02*
X0166614Y0236752I0000000J-000531D01*
G01*
X0166614Y0235295D01*
G75*
G02*
X0166083Y0234764I-000531J0000000D01*
G01*
X0165020Y0234764D01*
G75*
G02*
X0164488Y0235295I0000000J0000531D01*
G01*
G37*
G36*
G01*
X0168504Y0235295D02*
X0168504Y0236752D01*
G75*
G02*
X0169036Y0237284I0000531J0000000D01*
G01*
X0170099Y0237284D01*
G75*
G02*
X0170630Y0236752I0000000J-000531D01*
G01*
X0170630Y0235295D01*
G75*
G02*
X0170099Y0234764I-000531J0000000D01*
G01*
X0169036Y0234764D01*
G75*
G02*
X0168504Y0235295I0000000J0000531D01*
G01*
G37*
G36*
G01*
X0135000Y0265827D02*
X0135000Y0264488D01*
G75*
G02*
X0134449Y0263937I-000551J0000000D01*
G01*
X0133347Y0263937D01*
G75*
G02*
X0132795Y0264488I0000000J0000551D01*
G01*
X0132795Y0265827D01*
G75*
G02*
X0133347Y0266378I0000551J0000000D01*
G01*
X0134449Y0266378D01*
G75*
G02*
X0135000Y0265827I0000000J-000551D01*
G01*
G37*
G36*
G01*
X0131221Y0265827D02*
X0131221Y0264488D01*
G75*
G02*
X0130670Y0263937I-000551J0000000D01*
G01*
X0129567Y0263937D01*
G75*
G02*
X0129016Y0264488I0000000J0000551D01*
G01*
X0129016Y0265827D01*
G75*
G02*
X0129567Y0266378I0000551J0000000D01*
G01*
X0130670Y0266378D01*
G75*
G02*
X0131221Y0265827I0000000J-000551D01*
G01*
G37*
G36*
G01*
X0127205Y0265827D02*
X0127205Y0264488D01*
G75*
G02*
X0126654Y0263937I-000551J0000000D01*
G01*
X0125551Y0263937D01*
G75*
G02*
X0125000Y0264488I0000000J0000551D01*
G01*
X0125000Y0265827D01*
G75*
G02*
X0125551Y0266378I0000551J0000000D01*
G01*
X0126654Y0266378D01*
G75*
G02*
X0127205Y0265827I0000000J-000551D01*
G01*
G37*
G36*
G01*
X0123425Y0265827D02*
X0123425Y0264488D01*
G75*
G02*
X0122874Y0263937I-000551J0000000D01*
G01*
X0121772Y0263937D01*
G75*
G02*
X0121221Y0264488I0000000J0000551D01*
G01*
X0121221Y0265827D01*
G75*
G02*
X0121772Y0266378I0000551J0000000D01*
G01*
X0122874Y0266378D01*
G75*
G02*
X0123425Y0265827I0000000J-000551D01*
G01*
G37*
G36*
G01*
X0131260Y0261988D02*
X0131260Y0260532D01*
G75*
G02*
X0130729Y0260000I-000531J0000000D01*
G01*
X0129666Y0260000D01*
G75*
G02*
X0129134Y0260532I0000000J0000531D01*
G01*
X0129134Y0261988D01*
G75*
G02*
X0129666Y0262520I0000531J0000000D01*
G01*
X0130729Y0262520D01*
G75*
G02*
X0131260Y0261988I0000000J-000531D01*
G01*
G37*
G36*
G01*
X0127244Y0261988D02*
X0127244Y0260532D01*
G75*
G02*
X0126713Y0260000I-000531J0000000D01*
G01*
X0125650Y0260000D01*
G75*
G02*
X0125118Y0260532I0000000J0000531D01*
G01*
X0125118Y0261988D01*
G75*
G02*
X0125650Y0262520I0000531J0000000D01*
G01*
X0126713Y0262520D01*
G75*
G02*
X0127244Y0261988I0000000J-000531D01*
G01*
G37*
G36*
G01*
X0129449Y0246969D02*
X0130788Y0246969D01*
G75*
G02*
X0131339Y0246417I0000000J-000551D01*
G01*
X0131339Y0245315D01*
G75*
G02*
X0130788Y0244764I-000551J0000000D01*
G01*
X0129449Y0244764D01*
G75*
G02*
X0128898Y0245315I0000000J0000551D01*
G01*
X0128898Y0246417D01*
G75*
G02*
X0129449Y0246969I0000551J0000000D01*
G01*
G37*
G36*
G01*
X0129449Y0243189D02*
X0130788Y0243189D01*
G75*
G02*
X0131339Y0242638I0000000J-000551D01*
G01*
X0131339Y0241536D01*
G75*
G02*
X0130788Y0240984I-000551J0000000D01*
G01*
X0129449Y0240984D01*
G75*
G02*
X0128898Y0241536I0000000J0000551D01*
G01*
X0128898Y0242638D01*
G75*
G02*
X0129449Y0243189I0000551J0000000D01*
G01*
G37*
G36*
G01*
X0162008Y0236614D02*
X0162008Y0235827D01*
G75*
G02*
X0161614Y0235433I-000394J0000000D01*
G01*
X0156595Y0235433D01*
G75*
G02*
X0156201Y0235827I0000000J0000394D01*
G01*
X0156201Y0236614D01*
G75*
G02*
X0156595Y0237008I0000394J0000000D01*
G01*
X0161614Y0237008D01*
G75*
G02*
X0162008Y0236614I0000000J-000394D01*
G01*
G37*
G36*
G01*
X0162008Y0239173D02*
X0162008Y0238386D01*
G75*
G02*
X0161614Y0237992I-000394J0000000D01*
G01*
X0156595Y0237992D01*
G75*
G02*
X0156201Y0238386I0000000J0000394D01*
G01*
X0156201Y0239173D01*
G75*
G02*
X0156595Y0239567I0000394J0000000D01*
G01*
X0161614Y0239567D01*
G75*
G02*
X0162008Y0239173I0000000J-000394D01*
G01*
G37*
G36*
G01*
X0162008Y0241732D02*
X0162008Y0240945D01*
G75*
G02*
X0161614Y0240551I-000394J0000000D01*
G01*
X0156595Y0240551D01*
G75*
G02*
X0156201Y0240945I0000000J0000394D01*
G01*
X0156201Y0241732D01*
G75*
G02*
X0156595Y0242126I0000394J0000000D01*
G01*
X0161614Y0242126D01*
G75*
G02*
X0162008Y0241732I0000000J-000394D01*
G01*
G37*
G36*
G01*
X0162008Y0244291D02*
X0162008Y0243504D01*
G75*
G02*
X0161614Y0243110I-000394J0000000D01*
G01*
X0156595Y0243110D01*
G75*
G02*
X0156201Y0243504I0000000J0000394D01*
G01*
X0156201Y0244291D01*
G75*
G02*
X0156595Y0244685I0000394J0000000D01*
G01*
X0161614Y0244685D01*
G75*
G02*
X0162008Y0244291I0000000J-000394D01*
G01*
G37*
G36*
G01*
X0162008Y0246850D02*
X0162008Y0246063D01*
G75*
G02*
X0161614Y0245669I-000394J0000000D01*
G01*
X0156595Y0245669D01*
G75*
G02*
X0156201Y0246063I0000000J0000394D01*
G01*
X0156201Y0246850D01*
G75*
G02*
X0156595Y0247244I0000394J0000000D01*
G01*
X0161614Y0247244D01*
G75*
G02*
X0162008Y0246850I0000000J-000394D01*
G01*
G37*
G36*
G01*
X0162008Y0249410D02*
X0162008Y0248622D01*
G75*
G02*
X0161614Y0248228I-000394J0000000D01*
G01*
X0156595Y0248228D01*
G75*
G02*
X0156201Y0248622I0000000J0000394D01*
G01*
X0156201Y0249410D01*
G75*
G02*
X0156595Y0249803I0000394J0000000D01*
G01*
X0161614Y0249803D01*
G75*
G02*
X0162008Y0249410I0000000J-000394D01*
G01*
G37*
G36*
G01*
X0162008Y0251969D02*
X0162008Y0251181D01*
G75*
G02*
X0161614Y0250788I-000394J0000000D01*
G01*
X0156595Y0250788D01*
G75*
G02*
X0156201Y0251181I0000000J0000394D01*
G01*
X0156201Y0251969D01*
G75*
G02*
X0156595Y0252362I0000394J0000000D01*
G01*
X0161614Y0252362D01*
G75*
G02*
X0162008Y0251969I0000000J-000394D01*
G01*
G37*
G36*
G01*
X0139469Y0251969D02*
X0139469Y0251181D01*
G75*
G02*
X0139075Y0250788I-000394J0000000D01*
G01*
X0134055Y0250788D01*
G75*
G02*
X0133662Y0251181I0000000J0000394D01*
G01*
X0133662Y0251969D01*
G75*
G02*
X0134055Y0252362I0000394J0000000D01*
G01*
X0139075Y0252362D01*
G75*
G02*
X0139469Y0251969I0000000J-000394D01*
G01*
G37*
G36*
G01*
X0139469Y0249410D02*
X0139469Y0248622D01*
G75*
G02*
X0139075Y0248228I-000394J0000000D01*
G01*
X0134055Y0248228D01*
G75*
G02*
X0133662Y0248622I0000000J0000394D01*
G01*
X0133662Y0249410D01*
G75*
G02*
X0134055Y0249803I0000394J0000000D01*
G01*
X0139075Y0249803D01*
G75*
G02*
X0139469Y0249410I0000000J-000394D01*
G01*
G37*
G36*
G01*
X0139469Y0246850D02*
X0139469Y0246063D01*
G75*
G02*
X0139075Y0245669I-000394J0000000D01*
G01*
X0134055Y0245669D01*
G75*
G02*
X0133662Y0246063I0000000J0000394D01*
G01*
X0133662Y0246850D01*
G75*
G02*
X0134055Y0247244I0000394J0000000D01*
G01*
X0139075Y0247244D01*
G75*
G02*
X0139469Y0246850I0000000J-000394D01*
G01*
G37*
G36*
G01*
X0139469Y0244291D02*
X0139469Y0243504D01*
G75*
G02*
X0139075Y0243110I-000394J0000000D01*
G01*
X0134055Y0243110D01*
G75*
G02*
X0133662Y0243504I0000000J0000394D01*
G01*
X0133662Y0244291D01*
G75*
G02*
X0134055Y0244685I0000394J0000000D01*
G01*
X0139075Y0244685D01*
G75*
G02*
X0139469Y0244291I0000000J-000394D01*
G01*
G37*
G36*
G01*
X0139469Y0241732D02*
X0139469Y0240945D01*
G75*
G02*
X0139075Y0240551I-000394J0000000D01*
G01*
X0134055Y0240551D01*
G75*
G02*
X0133662Y0240945I0000000J0000394D01*
G01*
X0133662Y0241732D01*
G75*
G02*
X0134055Y0242126I0000394J0000000D01*
G01*
X0139075Y0242126D01*
G75*
G02*
X0139469Y0241732I0000000J-000394D01*
G01*
G37*
G36*
G01*
X0139469Y0239173D02*
X0139469Y0238386D01*
G75*
G02*
X0139075Y0237992I-000394J0000000D01*
G01*
X0134055Y0237992D01*
G75*
G02*
X0133662Y0238386I0000000J0000394D01*
G01*
X0133662Y0239173D01*
G75*
G02*
X0134055Y0239567I0000394J0000000D01*
G01*
X0139075Y0239567D01*
G75*
G02*
X0139469Y0239173I0000000J-000394D01*
G01*
G37*
G36*
G01*
X0139469Y0236614D02*
X0139469Y0235827D01*
G75*
G02*
X0139075Y0235433I-000394J0000000D01*
G01*
X0134055Y0235433D01*
G75*
G02*
X0133662Y0235827I0000000J0000394D01*
G01*
X0133662Y0236614D01*
G75*
G02*
X0134055Y0237008I0000394J0000000D01*
G01*
X0139075Y0237008D01*
G75*
G02*
X0139469Y0236614I0000000J-000394D01*
G01*
G37*
G36*
G01*
X0181127Y0243012D02*
X0179109Y0243012D01*
G75*
G02*
X0178248Y0243873I0000000J0000861D01*
G01*
X0178248Y0245596D01*
G75*
G02*
X0179109Y0246457I0000861J0000000D01*
G01*
X0181127Y0246457D01*
G75*
G02*
X0181988Y0245596I0000000J-000861D01*
G01*
X0181988Y0243873D01*
G75*
G02*
X0181127Y0243012I-000861J0000000D01*
G01*
G37*
G36*
G01*
X0181127Y0249213D02*
X0179109Y0249213D01*
G75*
G02*
X0178248Y0250074I0000000J0000861D01*
G01*
X0178248Y0251796D01*
G75*
G02*
X0179109Y0252658I0000861J0000000D01*
G01*
X0181127Y0252658D01*
G75*
G02*
X0181988Y0251796I0000000J-000861D01*
G01*
X0181988Y0250074D01*
G75*
G02*
X0181127Y0249213I-000861J0000000D01*
G01*
G37*
G36*
G01*
X0129921Y0296112D02*
X0133465Y0296112D01*
G75*
G02*
X0134449Y0295128I0000000J-000984D01*
G01*
X0134449Y0293061D01*
G75*
G02*
X0133465Y0292077I-000984J0000000D01*
G01*
X0129921Y0292077D01*
G75*
G02*
X0128937Y0293061I0000000J0000984D01*
G01*
X0128937Y0295128D01*
G75*
G02*
X0129921Y0296112I0000984J0000000D01*
G01*
G37*
G36*
G01*
X0129921Y0288927D02*
X0133465Y0288927D01*
G75*
G02*
X0134449Y0287943I0000000J-000984D01*
G01*
X0134449Y0285876D01*
G75*
G02*
X0133465Y0284892I-000984J0000000D01*
G01*
X0129921Y0284892D01*
G75*
G02*
X0128937Y0285876I0000000J0000984D01*
G01*
X0128937Y0287943D01*
G75*
G02*
X0129921Y0288927I0000984J0000000D01*
G01*
G37*
G36*
G01*
X0125079Y0253012D02*
X0125079Y0254469D01*
G75*
G02*
X0125610Y0255000I0000531J0000000D01*
G01*
X0126673Y0255000D01*
G75*
G02*
X0127205Y0254469I0000000J-000531D01*
G01*
X0127205Y0253012D01*
G75*
G02*
X0126673Y0252480I-000531J0000000D01*
G01*
X0125610Y0252480D01*
G75*
G02*
X0125079Y0253012I0000000J0000531D01*
G01*
G37*
G36*
G01*
X0129095Y0253012D02*
X0129095Y0254469D01*
G75*
G02*
X0129626Y0255000I0000531J0000000D01*
G01*
X0130689Y0255000D01*
G75*
G02*
X0131221Y0254469I0000000J-000531D01*
G01*
X0131221Y0253012D01*
G75*
G02*
X0130689Y0252480I-000531J0000000D01*
G01*
X0129626Y0252480D01*
G75*
G02*
X0129095Y0253012I0000000J0000531D01*
G01*
G37*
G36*
G01*
X0174154Y0246693D02*
X0172697Y0246693D01*
G75*
G02*
X0172166Y0247225I0000000J0000531D01*
G01*
X0172166Y0248288D01*
G75*
G02*
X0172697Y0248819I0000531J0000000D01*
G01*
X0174154Y0248819D01*
G75*
G02*
X0174685Y0248288I0000000J-000531D01*
G01*
X0174685Y0247225D01*
G75*
G02*
X0174154Y0246693I-000531J0000000D01*
G01*
G37*
G36*
G01*
X0174154Y0250709D02*
X0172697Y0250709D01*
G75*
G02*
X0172166Y0251240I0000000J0000531D01*
G01*
X0172166Y0252303D01*
G75*
G02*
X0172697Y0252835I0000531J0000000D01*
G01*
X0174154Y0252835D01*
G75*
G02*
X0174685Y0252303I0000000J-000531D01*
G01*
X0174685Y0251240D01*
G75*
G02*
X0174154Y0250709I-000531J0000000D01*
G01*
G37*
G36*
G01*
X0160394Y0257618D02*
X0160394Y0256162D01*
G75*
G02*
X0159862Y0255630I-000531J0000000D01*
G01*
X0158799Y0255630D01*
G75*
G02*
X0158268Y0256162I0000000J0000531D01*
G01*
X0158268Y0257618D01*
G75*
G02*
X0158799Y0258150I0000531J0000000D01*
G01*
X0159862Y0258150D01*
G75*
G02*
X0160394Y0257618I0000000J-000531D01*
G01*
G37*
G36*
G01*
X0156378Y0257618D02*
X0156378Y0256162D01*
G75*
G02*
X0155847Y0255630I-000531J0000000D01*
G01*
X0154784Y0255630D01*
G75*
G02*
X0154252Y0256162I0000000J0000531D01*
G01*
X0154252Y0257618D01*
G75*
G02*
X0154784Y0258150I0000531J0000000D01*
G01*
X0155847Y0258150D01*
G75*
G02*
X0156378Y0257618I0000000J-000531D01*
G01*
G37*
G36*
G01*
X0166654Y0266821D02*
X0167992Y0266821D01*
G75*
G02*
X0168544Y0266270I0000000J-000551D01*
G01*
X0168544Y0265167D01*
G75*
G02*
X0167992Y0264616I-000551J0000000D01*
G01*
X0166654Y0264616D01*
G75*
G02*
X0166103Y0265167I0000000J0000551D01*
G01*
X0166103Y0266270D01*
G75*
G02*
X0166654Y0266821I0000551J0000000D01*
G01*
G37*
G36*
G01*
X0166654Y0263041D02*
X0167992Y0263041D01*
G75*
G02*
X0168544Y0262490I0000000J-000551D01*
G01*
X0168544Y0261388D01*
G75*
G02*
X0167992Y0260837I-000551J0000000D01*
G01*
X0166654Y0260837D01*
G75*
G02*
X0166103Y0261388I0000000J0000551D01*
G01*
X0166103Y0262490D01*
G75*
G02*
X0166654Y0263041I0000551J0000000D01*
G01*
G37*
G36*
G01*
X0143465Y0230847D02*
X0143465Y0229390D01*
G75*
G02*
X0142933Y0228858I-000531J0000000D01*
G01*
X0141870Y0228858D01*
G75*
G02*
X0141339Y0229390I0000000J0000531D01*
G01*
X0141339Y0230847D01*
G75*
G02*
X0141870Y0231378I0000531J0000000D01*
G01*
X0142933Y0231378D01*
G75*
G02*
X0143465Y0230847I0000000J-000531D01*
G01*
G37*
G36*
G01*
X0139449Y0230847D02*
X0139449Y0229390D01*
G75*
G02*
X0138918Y0228858I-000531J0000000D01*
G01*
X0137855Y0228858D01*
G75*
G02*
X0137323Y0229390I0000000J0000531D01*
G01*
X0137323Y0230847D01*
G75*
G02*
X0137855Y0231378I0000531J0000000D01*
G01*
X0138918Y0231378D01*
G75*
G02*
X0139449Y0230847I0000000J-000531D01*
G01*
G37*
G36*
G01*
X0122973Y0229862D02*
X0121516Y0229862D01*
G75*
G02*
X0120984Y0230394I0000000J0000531D01*
G01*
X0120984Y0231457D01*
G75*
G02*
X0121516Y0231988I0000531J0000000D01*
G01*
X0122973Y0231988D01*
G75*
G02*
X0123504Y0231457I0000000J-000531D01*
G01*
X0123504Y0230394D01*
G75*
G02*
X0122973Y0229862I-000531J0000000D01*
G01*
G37*
G36*
G01*
X0122973Y0233878D02*
X0121516Y0233878D01*
G75*
G02*
X0120984Y0234410I0000000J0000531D01*
G01*
X0120984Y0235473D01*
G75*
G02*
X0121516Y0236004I0000531J0000000D01*
G01*
X0122973Y0236004D01*
G75*
G02*
X0123504Y0235473I0000000J-000531D01*
G01*
X0123504Y0234410D01*
G75*
G02*
X0122973Y0233878I-000531J0000000D01*
G01*
G37*
G36*
G01*
X0164685Y0266024D02*
X0164685Y0264567D01*
G75*
G02*
X0164154Y0264036I-000531J0000000D01*
G01*
X0163091Y0264036D01*
G75*
G02*
X0162559Y0264567I0000000J0000531D01*
G01*
X0162559Y0266024D01*
G75*
G02*
X0163091Y0266555I0000531J0000000D01*
G01*
X0164154Y0266555D01*
G75*
G02*
X0164685Y0266024I0000000J-000531D01*
G01*
G37*
G36*
G01*
X0160670Y0266024D02*
X0160670Y0264567D01*
G75*
G02*
X0160138Y0264036I-000531J0000000D01*
G01*
X0159075Y0264036D01*
G75*
G02*
X0158544Y0264567I0000000J0000531D01*
G01*
X0158544Y0266024D01*
G75*
G02*
X0159075Y0266555I0000531J0000000D01*
G01*
X0160138Y0266555D01*
G75*
G02*
X0160670Y0266024I0000000J-000531D01*
G01*
G37*
G36*
G01*
X0168091Y0268465D02*
X0166752Y0268465D01*
G75*
G02*
X0166201Y0269016I0000000J0000551D01*
G01*
X0166201Y0270118D01*
G75*
G02*
X0166752Y0270669I0000551J0000000D01*
G01*
X0168091Y0270669D01*
G75*
G02*
X0168642Y0270118I0000000J-000551D01*
G01*
X0168642Y0269016D01*
G75*
G02*
X0168091Y0268465I-000551J0000000D01*
G01*
G37*
G36*
G01*
X0168091Y0272244D02*
X0166752Y0272244D01*
G75*
G02*
X0166201Y0272795I0000000J0000551D01*
G01*
X0166201Y0273898D01*
G75*
G02*
X0166752Y0274449I0000551J0000000D01*
G01*
X0168091Y0274449D01*
G75*
G02*
X0168642Y0273898I0000000J-000551D01*
G01*
X0168642Y0272795D01*
G75*
G02*
X0168091Y0272244I-000551J0000000D01*
G01*
G37*
G36*
G01*
X0125591Y0284892D02*
X0122047Y0284892D01*
G75*
G02*
X0121063Y0285876I0000000J0000984D01*
G01*
X0121063Y0287943D01*
G75*
G02*
X0122047Y0288927I0000984J0000000D01*
G01*
X0125591Y0288927D01*
G75*
G02*
X0126575Y0287943I0000000J-000984D01*
G01*
X0126575Y0285876D01*
G75*
G02*
X0125591Y0284892I-000984J0000000D01*
G01*
G37*
G36*
G01*
X0125591Y0292077D02*
X0122047Y0292077D01*
G75*
G02*
X0121063Y0293061I0000000J0000984D01*
G01*
X0121063Y0295128D01*
G75*
G02*
X0122047Y0296112I0000984J0000000D01*
G01*
X0125591Y0296112D01*
G75*
G02*
X0126575Y0295128I0000000J-000984D01*
G01*
X0126575Y0293061D01*
G75*
G02*
X0125591Y0292077I-000984J0000000D01*
G01*
G37*
G36*
G01*
X0172559Y0295413D02*
X0172559Y0293957D01*
G75*
G02*
X0172028Y0293425I-000531J0000000D01*
G01*
X0170965Y0293425D01*
G75*
G02*
X0170433Y0293957I0000000J0000531D01*
G01*
X0170433Y0295413D01*
G75*
G02*
X0170965Y0295945I0000531J0000000D01*
G01*
X0172028Y0295945D01*
G75*
G02*
X0172559Y0295413I0000000J-000531D01*
G01*
G37*
G36*
G01*
X0168544Y0295413D02*
X0168544Y0293957D01*
G75*
G02*
X0168012Y0293425I-000531J0000000D01*
G01*
X0166949Y0293425D01*
G75*
G02*
X0166418Y0293957I0000000J0000531D01*
G01*
X0166418Y0295413D01*
G75*
G02*
X0166949Y0295945I0000531J0000000D01*
G01*
X0168012Y0295945D01*
G75*
G02*
X0168544Y0295413I0000000J-000531D01*
G01*
G37*
G36*
G01*
X0131240Y0232992D02*
X0129784Y0232992D01*
G75*
G02*
X0129252Y0233524I0000000J0000531D01*
G01*
X0129252Y0234587D01*
G75*
G02*
X0129784Y0235118I0000531J0000000D01*
G01*
X0131240Y0235118D01*
G75*
G02*
X0131772Y0234587I0000000J-000531D01*
G01*
X0131772Y0233524D01*
G75*
G02*
X0131240Y0232992I-000531J0000000D01*
G01*
G37*
G36*
G01*
X0131240Y0237008D02*
X0129784Y0237008D01*
G75*
G02*
X0129252Y0237539I0000000J0000531D01*
G01*
X0129252Y0238602D01*
G75*
G02*
X0129784Y0239134I0000531J0000000D01*
G01*
X0131240Y0239134D01*
G75*
G02*
X0131772Y0238602I0000000J-000531D01*
G01*
X0131772Y0237539D01*
G75*
G02*
X0131240Y0237008I-000531J0000000D01*
G01*
G37*
G36*
G01*
X0134567Y0256575D02*
X0133229Y0256575D01*
G75*
G02*
X0132677Y0257126I0000000J0000551D01*
G01*
X0132677Y0258228D01*
G75*
G02*
X0133229Y0258780I0000551J0000000D01*
G01*
X0134567Y0258780D01*
G75*
G02*
X0135118Y0258228I0000000J-000551D01*
G01*
X0135118Y0257126D01*
G75*
G02*
X0134567Y0256575I-000551J0000000D01*
G01*
G37*
G36*
G01*
X0134567Y0260354D02*
X0133229Y0260354D01*
G75*
G02*
X0132677Y0260906I0000000J0000551D01*
G01*
X0132677Y0262008D01*
G75*
G02*
X0133229Y0262559I0000551J0000000D01*
G01*
X0134567Y0262559D01*
G75*
G02*
X0135118Y0262008I0000000J-000551D01*
G01*
X0135118Y0260906D01*
G75*
G02*
X0134567Y0260354I-000551J0000000D01*
G01*
G37*
G36*
G01*
X0121516Y0262520D02*
X0122973Y0262520D01*
G75*
G02*
X0123504Y0261988I0000000J-000531D01*
G01*
X0123504Y0260925D01*
G75*
G02*
X0122973Y0260394I-000531J0000000D01*
G01*
X0121516Y0260394D01*
G75*
G02*
X0120984Y0260925I0000000J0000531D01*
G01*
X0120984Y0261988D01*
G75*
G02*
X0121516Y0262520I0000531J0000000D01*
G01*
G37*
G36*
G01*
X0121516Y0258504D02*
X0122973Y0258504D01*
G75*
G02*
X0123504Y0257973I0000000J-000531D01*
G01*
X0123504Y0256910D01*
G75*
G02*
X0122973Y0256378I-000531J0000000D01*
G01*
X0121516Y0256378D01*
G75*
G02*
X0120984Y0256910I0000000J0000531D01*
G01*
X0120984Y0257973D01*
G75*
G02*
X0121516Y0258504I0000531J0000000D01*
G01*
G37*
D182*
X0138622Y0264055D03*
X0138622Y0261496D03*
X0138622Y0258937D03*
X0146103Y0258937D03*
X0146103Y0261496D03*
X0146103Y0264055D03*
G36*
G01*
X0125453Y0246929D02*
X0126910Y0246929D01*
G75*
G02*
X0127441Y0246398I0000000J-000531D01*
G01*
X0127441Y0245335D01*
G75*
G02*
X0126910Y0244803I-000531J0000000D01*
G01*
X0125453Y0244803D01*
G75*
G02*
X0124921Y0245335I0000000J0000531D01*
G01*
X0124921Y0246398D01*
G75*
G02*
X0125453Y0246929I0000531J0000000D01*
G01*
G37*
G36*
G01*
X0125453Y0242913D02*
X0126910Y0242913D01*
G75*
G02*
X0127441Y0242382I0000000J-000531D01*
G01*
X0127441Y0241319D01*
G75*
G02*
X0126910Y0240788I-000531J0000000D01*
G01*
X0125453Y0240788D01*
G75*
G02*
X0124921Y0241319I0000000J0000531D01*
G01*
X0124921Y0242382D01*
G75*
G02*
X0125453Y0242913I0000531J0000000D01*
G01*
G37*
G36*
G01*
X0131181Y0250532D02*
X0131181Y0249075D01*
G75*
G02*
X0130650Y0248543I-000531J0000000D01*
G01*
X0129587Y0248543D01*
G75*
G02*
X0129055Y0249075I0000000J0000531D01*
G01*
X0129055Y0250532D01*
G75*
G02*
X0129587Y0251063I0000531J0000000D01*
G01*
X0130650Y0251063D01*
G75*
G02*
X0131181Y0250532I0000000J-000531D01*
G01*
G37*
G36*
G01*
X0127166Y0250532D02*
X0127166Y0249075D01*
G75*
G02*
X0126634Y0248543I-000531J0000000D01*
G01*
X0125571Y0248543D01*
G75*
G02*
X0125040Y0249075I0000000J0000531D01*
G01*
X0125040Y0250532D01*
G75*
G02*
X0125571Y0251063I0000531J0000000D01*
G01*
X0126634Y0251063D01*
G75*
G02*
X0127166Y0250532I0000000J-000531D01*
G01*
G37*
G36*
G01*
X0121575Y0243524D02*
X0122914Y0243524D01*
G75*
G02*
X0123465Y0242973I0000000J-000551D01*
G01*
X0123465Y0241870D01*
G75*
G02*
X0122914Y0241319I-000551J0000000D01*
G01*
X0121575Y0241319D01*
G75*
G02*
X0121024Y0241870I0000000J0000551D01*
G01*
X0121024Y0242973D01*
G75*
G02*
X0121575Y0243524I0000551J0000000D01*
G01*
G37*
G36*
G01*
X0121575Y0239744D02*
X0122914Y0239744D01*
G75*
G02*
X0123465Y0239193I0000000J-000551D01*
G01*
X0123465Y0238091D01*
G75*
G02*
X0122914Y0237539I-000551J0000000D01*
G01*
X0121575Y0237539D01*
G75*
G02*
X0121024Y0238091I0000000J0000551D01*
G01*
X0121024Y0239193D01*
G75*
G02*
X0121575Y0239744I0000551J0000000D01*
G01*
G37*
G36*
G01*
X0130315Y0282628D02*
X0131496Y0282628D01*
G75*
G02*
X0132087Y0282038I0000000J-000591D01*
G01*
X0132087Y0278002D01*
G75*
G02*
X0131496Y0277412I-000591J0000000D01*
G01*
X0130315Y0277412D01*
G75*
G02*
X0129725Y0278002I0000000J0000591D01*
G01*
X0129725Y0282038D01*
G75*
G02*
X0130315Y0282628I0000591J0000000D01*
G01*
G37*
G36*
G01*
X0126575Y0282628D02*
X0127756Y0282628D01*
G75*
G02*
X0128347Y0282038I0000000J-000591D01*
G01*
X0128347Y0278002D01*
G75*
G02*
X0127756Y0277412I-000591J0000000D01*
G01*
X0126575Y0277412D01*
G75*
G02*
X0125984Y0278002I0000000J0000591D01*
G01*
X0125984Y0282038D01*
G75*
G02*
X0126575Y0282628I0000591J0000000D01*
G01*
G37*
G36*
G01*
X0122835Y0282628D02*
X0124016Y0282628D01*
G75*
G02*
X0124607Y0282038I0000000J-000591D01*
G01*
X0124607Y0278002D01*
G75*
G02*
X0124016Y0277412I-000591J0000000D01*
G01*
X0122835Y0277412D01*
G75*
G02*
X0122244Y0278002I0000000J0000591D01*
G01*
X0122244Y0282038D01*
G75*
G02*
X0122835Y0282628I0000591J0000000D01*
G01*
G37*
G36*
G01*
X0122835Y0273671D02*
X0124016Y0273671D01*
G75*
G02*
X0124607Y0273081I0000000J-000591D01*
G01*
X0124607Y0269045D01*
G75*
G02*
X0124016Y0268455I-000591J0000000D01*
G01*
X0122835Y0268455D01*
G75*
G02*
X0122244Y0269045I0000000J0000591D01*
G01*
X0122244Y0273081D01*
G75*
G02*
X0122835Y0273671I0000591J0000000D01*
G01*
G37*
G36*
G01*
X0126575Y0273671D02*
X0127756Y0273671D01*
G75*
G02*
X0128347Y0273081I0000000J-000591D01*
G01*
X0128347Y0269045D01*
G75*
G02*
X0127756Y0268455I-000591J0000000D01*
G01*
X0126575Y0268455D01*
G75*
G02*
X0125984Y0269045I0000000J0000591D01*
G01*
X0125984Y0273081D01*
G75*
G02*
X0126575Y0273671I0000591J0000000D01*
G01*
G37*
G36*
G01*
X0130315Y0273671D02*
X0131496Y0273671D01*
G75*
G02*
X0132087Y0273081I0000000J-000591D01*
G01*
X0132087Y0269045D01*
G75*
G02*
X0131496Y0268455I-000591J0000000D01*
G01*
X0130315Y0268455D01*
G75*
G02*
X0129725Y0269045I0000000J0000591D01*
G01*
X0129725Y0273081D01*
G75*
G02*
X0130315Y0273671I0000591J0000000D01*
G01*
G37*
G36*
G01*
X0158681Y0290079D02*
X0158681Y0291417D01*
G75*
G02*
X0159232Y0291969I0000551J0000000D01*
G01*
X0160335Y0291969D01*
G75*
G02*
X0160886Y0291417I0000000J-000551D01*
G01*
X0160886Y0290079D01*
G75*
G02*
X0160335Y0289528I-000551J0000000D01*
G01*
X0159232Y0289528D01*
G75*
G02*
X0158681Y0290079I0000000J0000551D01*
G01*
G37*
G36*
G01*
X0162461Y0290079D02*
X0162461Y0291417D01*
G75*
G02*
X0163012Y0291969I0000551J0000000D01*
G01*
X0164114Y0291969D01*
G75*
G02*
X0164666Y0291417I0000000J-000551D01*
G01*
X0164666Y0290079D01*
G75*
G02*
X0164114Y0289528I-000551J0000000D01*
G01*
X0163012Y0289528D01*
G75*
G02*
X0162461Y0290079I0000000J0000551D01*
G01*
G37*
G36*
G01*
X0129173Y0229449D02*
X0129173Y0230788D01*
G75*
G02*
X0129725Y0231339I0000551J0000000D01*
G01*
X0130827Y0231339D01*
G75*
G02*
X0131378Y0230788I0000000J-000551D01*
G01*
X0131378Y0229449D01*
G75*
G02*
X0130827Y0228898I-000551J0000000D01*
G01*
X0129725Y0228898D01*
G75*
G02*
X0129173Y0229449I0000000J0000551D01*
G01*
G37*
G36*
G01*
X0132953Y0229449D02*
X0132953Y0230788D01*
G75*
G02*
X0133504Y0231339I0000551J0000000D01*
G01*
X0134607Y0231339D01*
G75*
G02*
X0135158Y0230788I0000000J-000551D01*
G01*
X0135158Y0229449D01*
G75*
G02*
X0134607Y0228898I-000551J0000000D01*
G01*
X0133504Y0228898D01*
G75*
G02*
X0132953Y0229449I0000000J0000551D01*
G01*
G37*
G36*
G01*
X0170217Y0238898D02*
X0168760Y0238898D01*
G75*
G02*
X0168229Y0239429I0000000J0000531D01*
G01*
X0168229Y0240492D01*
G75*
G02*
X0168760Y0241024I0000531J0000000D01*
G01*
X0170217Y0241024D01*
G75*
G02*
X0170748Y0240492I0000000J-000531D01*
G01*
X0170748Y0239429D01*
G75*
G02*
X0170217Y0238898I-000531J0000000D01*
G01*
G37*
G36*
G01*
X0170217Y0242913D02*
X0168760Y0242913D01*
G75*
G02*
X0168229Y0243445I0000000J0000531D01*
G01*
X0168229Y0244508D01*
G75*
G02*
X0168760Y0245039I0000531J0000000D01*
G01*
X0170217Y0245039D01*
G75*
G02*
X0170748Y0244508I0000000J-000531D01*
G01*
X0170748Y0243445D01*
G75*
G02*
X0170217Y0242913I-000531J0000000D01*
G01*
G37*
G36*
G01*
X0170158Y0246732D02*
X0168819Y0246732D01*
G75*
G02*
X0168268Y0247284I0000000J0000551D01*
G01*
X0168268Y0248386D01*
G75*
G02*
X0168819Y0248937I0000551J0000000D01*
G01*
X0170158Y0248937D01*
G75*
G02*
X0170709Y0248386I0000000J-000551D01*
G01*
X0170709Y0247284D01*
G75*
G02*
X0170158Y0246732I-000551J0000000D01*
G01*
G37*
G36*
G01*
X0170158Y0250512D02*
X0168819Y0250512D01*
G75*
G02*
X0168268Y0251063I0000000J0000551D01*
G01*
X0168268Y0252165D01*
G75*
G02*
X0168819Y0252717I0000551J0000000D01*
G01*
X0170158Y0252717D01*
G75*
G02*
X0170709Y0252165I0000000J-000551D01*
G01*
X0170709Y0251063D01*
G75*
G02*
X0170158Y0250512I-000551J0000000D01*
G01*
G37*
G36*
G01*
X0121516Y0251102D02*
X0122973Y0251102D01*
G75*
G02*
X0123504Y0250571I0000000J-000531D01*
G01*
X0123504Y0249508D01*
G75*
G02*
X0122973Y0248976I-000531J0000000D01*
G01*
X0121516Y0248976D01*
G75*
G02*
X0120984Y0249508I0000000J0000531D01*
G01*
X0120984Y0250571D01*
G75*
G02*
X0121516Y0251102I0000531J0000000D01*
G01*
G37*
G36*
G01*
X0121516Y0247087D02*
X0122973Y0247087D01*
G75*
G02*
X0123504Y0246555I0000000J-000531D01*
G01*
X0123504Y0245492D01*
G75*
G02*
X0122973Y0244961I-000531J0000000D01*
G01*
X0121516Y0244961D01*
G75*
G02*
X0120984Y0245492I0000000J0000531D01*
G01*
X0120984Y0246555D01*
G75*
G02*
X0121516Y0247087I0000531J0000000D01*
G01*
G37*
G36*
G01*
X0179528Y0286024D02*
X0180709Y0286024D01*
G75*
G02*
X0181299Y0285433I0000000J-000591D01*
G01*
X0181299Y0281398D01*
G75*
G02*
X0180709Y0280807I-000591J0000000D01*
G01*
X0179528Y0280807D01*
G75*
G02*
X0178937Y0281398I0000000J0000591D01*
G01*
X0178937Y0285433D01*
G75*
G02*
X0179528Y0286024I0000591J0000000D01*
G01*
G37*
G36*
G01*
X0175788Y0286024D02*
X0176969Y0286024D01*
G75*
G02*
X0177559Y0285433I0000000J-000591D01*
G01*
X0177559Y0281398D01*
G75*
G02*
X0176969Y0280807I-000591J0000000D01*
G01*
X0175788Y0280807D01*
G75*
G02*
X0175197Y0281398I0000000J0000591D01*
G01*
X0175197Y0285433D01*
G75*
G02*
X0175788Y0286024I0000591J0000000D01*
G01*
G37*
G36*
G01*
X0172047Y0286024D02*
X0173229Y0286024D01*
G75*
G02*
X0173819Y0285433I0000000J-000591D01*
G01*
X0173819Y0281398D01*
G75*
G02*
X0173229Y0280807I-000591J0000000D01*
G01*
X0172047Y0280807D01*
G75*
G02*
X0171457Y0281398I0000000J0000591D01*
G01*
X0171457Y0285433D01*
G75*
G02*
X0172047Y0286024I0000591J0000000D01*
G01*
G37*
G36*
G01*
X0172047Y0277067D02*
X0173229Y0277067D01*
G75*
G02*
X0173819Y0276476I0000000J-000591D01*
G01*
X0173819Y0272441D01*
G75*
G02*
X0173229Y0271850I-000591J0000000D01*
G01*
X0172047Y0271850D01*
G75*
G02*
X0171457Y0272441I0000000J0000591D01*
G01*
X0171457Y0276476D01*
G75*
G02*
X0172047Y0277067I0000591J0000000D01*
G01*
G37*
G36*
G01*
X0179528Y0277067D02*
X0180709Y0277067D01*
G75*
G02*
X0181299Y0276476I0000000J-000591D01*
G01*
X0181299Y0272441D01*
G75*
G02*
X0180709Y0271850I-000591J0000000D01*
G01*
X0179528Y0271850D01*
G75*
G02*
X0178937Y0272441I0000000J0000591D01*
G01*
X0178937Y0276476D01*
G75*
G02*
X0179528Y0277067I0000591J0000000D01*
G01*
G37*
G36*
G01*
X0164666Y0295354D02*
X0164666Y0294016D01*
G75*
G02*
X0164114Y0293465I-000551J0000000D01*
G01*
X0163012Y0293465D01*
G75*
G02*
X0162461Y0294016I0000000J0000551D01*
G01*
X0162461Y0295354D01*
G75*
G02*
X0163012Y0295906I0000551J0000000D01*
G01*
X0164114Y0295906D01*
G75*
G02*
X0164666Y0295354I0000000J-000551D01*
G01*
G37*
G36*
G01*
X0160886Y0295354D02*
X0160886Y0294016D01*
G75*
G02*
X0160335Y0293465I-000551J0000000D01*
G01*
X0159232Y0293465D01*
G75*
G02*
X0158681Y0294016I0000000J0000551D01*
G01*
X0158681Y0295354D01*
G75*
G02*
X0159232Y0295906I0000551J0000000D01*
G01*
X0160335Y0295906D01*
G75*
G02*
X0160886Y0295354I0000000J-000551D01*
G01*
G37*
X0236174Y0065237D02*
G01*
G75*
D330*
X0237258Y0062678D02*
D03*
X0237258Y0058052D02*
D03*
X0237258Y0034922D02*
D03*
X0237258Y0037914D02*
D03*
X0237258Y0042540D02*
D03*
X0237258Y0053426D02*
D03*
X0237258Y0047166D02*
D03*
X0237258Y0050473D02*
D03*
D331*
X0254875Y0038189D02*
D03*
X0257434Y0038189D02*
D03*
X0259993Y0038189D02*
D03*
X0262552Y0038189D02*
D03*
X0265111Y0038189D02*
D03*
X0267670Y0038189D02*
D03*
X0270229Y0038189D02*
D03*
X0272788Y0038189D02*
D03*
X0275347Y0038189D02*
D03*
X0277906Y0038189D02*
D03*
X0280465Y0038189D02*
D03*
X0283024Y0038189D02*
D03*
X0254875Y0061182D02*
D03*
X0257434Y0061182D02*
D03*
X0259993Y0061182D02*
D03*
X0262552Y0061182D02*
D03*
X0265111Y0061182D02*
D03*
X0267670Y0061182D02*
D03*
X0270229Y0061182D02*
D03*
X0272788Y0061182D02*
D03*
X0275347Y0061182D02*
D03*
X0277906Y0061182D02*
D03*
X0280465Y0061182D02*
D03*
X0283024Y0061182D02*
D03*
D342*
X0286961Y0061162D02*
D03*
X0286961Y0054941D02*
D03*
X0286961Y0044410D02*
D03*
X0286961Y0050631D02*
D03*
D341*
X0249757Y0042402D02*
D03*
X0249757Y0036103D02*
D03*
X0249363Y0055394D02*
D03*
X0249363Y0049095D02*
D03*
D343*
X0238733Y0047319D02*
D03*
X0245032Y0047319D02*
D03*
X0245032Y0053642D02*
D03*
X0238733Y0053642D02*
D03*
X0238733Y0058268D02*
D03*
X0245032Y0058268D02*
D03*
X0244934Y0038091D02*
D03*
X0238635Y0038091D02*
D03*
X0245032Y0062894D02*
D03*
X0238733Y0062894D02*
D03*
X0245032Y0042697D02*
D03*
X0238733Y0042697D02*
D03*
D74*
X0285682Y0058938D02*
D03*
X0284501Y0042894D02*
D03*
X0257434Y0035611D02*
D03*
X0259993Y0040768D02*
D03*
X0266391Y0042540D02*
D03*
X0265111Y0035611D02*
D03*
X0269737Y0042835D02*
D03*
X0273182Y0043682D02*
D03*
X0275347Y0035611D02*
D03*
X0277020Y0042835D02*
D03*
X0320571Y0276889D02*
G01*
G75*
D387*
X0302264Y0260354D02*
D03*
X0302264Y0267834D02*
D03*
D380*
X0311910Y0224231D02*
D03*
X0311910Y0241948D02*
D03*
D379*
X0220276Y0270590D02*
D03*
X0220276Y0264291D02*
D03*
D386*
X0303543Y0273346D02*
D03*
X0311024Y0273346D02*
D03*
D163*
X0307776Y0261535D02*
D03*
X0307776Y0267834D02*
D03*
D384*
X0205807Y0245885D02*
D03*
X0205807Y0242145D02*
D03*
X0205807Y0238405D02*
D03*
X0215256Y0238405D02*
D03*
X0215256Y0242145D02*
D03*
X0215256Y0245885D02*
D03*
X0282973Y0245885D02*
D03*
X0282973Y0242145D02*
D03*
X0282973Y0238405D02*
D03*
X0273524Y0238405D02*
D03*
X0273524Y0242145D02*
D03*
X0273524Y0245885D02*
D03*
X0290453Y0245885D02*
D03*
X0290453Y0242145D02*
D03*
X0290453Y0238405D02*
D03*
X0299902Y0238405D02*
D03*
X0299902Y0242145D02*
D03*
X0299902Y0245885D02*
D03*
X0266043Y0245885D02*
D03*
X0266043Y0242145D02*
D03*
X0266043Y0238405D02*
D03*
X0256595Y0238405D02*
D03*
X0256595Y0242145D02*
D03*
X0256595Y0245885D02*
D03*
X0239666Y0245885D02*
D03*
X0239666Y0242145D02*
D03*
X0239666Y0238405D02*
D03*
X0249114Y0238405D02*
D03*
X0249114Y0242145D02*
D03*
X0249114Y0245885D02*
D03*
X0232185Y0245885D02*
D03*
X0232185Y0242145D02*
D03*
X0232185Y0238405D02*
D03*
X0222736Y0238405D02*
D03*
X0222736Y0242145D02*
D03*
X0222736Y0245885D02*
D03*
D385*
X0206102Y0271279D02*
D03*
X0206102Y0264192D02*
D03*
X0216142Y0264192D02*
D03*
X0216142Y0271279D02*
D03*
X0281201Y0271279D02*
D03*
X0281201Y0264192D02*
D03*
X0271162Y0264192D02*
D03*
X0271162Y0271279D02*
D03*
X0285728Y0271279D02*
D03*
X0285728Y0264192D02*
D03*
X0295768Y0264192D02*
D03*
X0295768Y0271279D02*
D03*
X0266142Y0271279D02*
D03*
X0266142Y0264192D02*
D03*
X0256103Y0264192D02*
D03*
X0256103Y0271279D02*
D03*
X0239272Y0271279D02*
D03*
X0239272Y0264192D02*
D03*
X0249311Y0264192D02*
D03*
X0249311Y0271279D02*
D03*
X0234350Y0271279D02*
D03*
X0234350Y0264192D02*
D03*
X0224311Y0264192D02*
D03*
X0224311Y0271279D02*
D03*
X0271260Y0257499D02*
D03*
X0271260Y0250413D02*
D03*
X0281299Y0250413D02*
D03*
X0281299Y0257499D02*
D03*
X0297244Y0257499D02*
D03*
X0297244Y0250413D02*
D03*
X0287205Y0250413D02*
D03*
X0287205Y0257499D02*
D03*
X0256004Y0257499D02*
D03*
X0256004Y0250413D02*
D03*
X0266043Y0250413D02*
D03*
X0266043Y0257499D02*
D03*
X0249311Y0257499D02*
D03*
X0249311Y0250413D02*
D03*
X0239272Y0250413D02*
D03*
X0239272Y0257499D02*
D03*
X0224016Y0257499D02*
D03*
X0224016Y0250413D02*
D03*
X0234055Y0250413D02*
D03*
X0234055Y0257499D02*
D03*
X0216634Y0257401D02*
D03*
X0216634Y0250314D02*
D03*
X0206595Y0250314D02*
D03*
X0206595Y0257401D02*
D03*
D382*
X0212697Y0264192D02*
D03*
X0209547Y0264192D02*
D03*
X0209547Y0271279D02*
D03*
X0212697Y0271279D02*
D03*
X0277756Y0271279D02*
D03*
X0274606Y0271279D02*
D03*
X0274606Y0264192D02*
D03*
X0277756Y0264192D02*
D03*
X0292323Y0264192D02*
D03*
X0289173Y0264192D02*
D03*
X0289173Y0271279D02*
D03*
X0292323Y0271279D02*
D03*
X0262697Y0271279D02*
D03*
X0259547Y0271279D02*
D03*
X0259547Y0264192D02*
D03*
X0262697Y0264192D02*
D03*
X0245866Y0264192D02*
D03*
X0242717Y0264192D02*
D03*
X0242717Y0271279D02*
D03*
X0245866Y0271279D02*
D03*
X0230906Y0271279D02*
D03*
X0227756Y0271279D02*
D03*
X0227756Y0264192D02*
D03*
X0230906Y0264192D02*
D03*
X0277854Y0250413D02*
D03*
X0274705Y0250413D02*
D03*
X0274705Y0257499D02*
D03*
X0277854Y0257499D02*
D03*
X0293799Y0257499D02*
D03*
X0290650Y0257499D02*
D03*
X0290650Y0250413D02*
D03*
X0293799Y0250413D02*
D03*
X0262598Y0250413D02*
D03*
X0259449Y0250413D02*
D03*
X0259449Y0257499D02*
D03*
X0262598Y0257499D02*
D03*
X0245866Y0257499D02*
D03*
X0242717Y0257499D02*
D03*
X0242717Y0250413D02*
D03*
X0245866Y0250413D02*
D03*
X0230610Y0250413D02*
D03*
X0227461Y0250413D02*
D03*
X0227461Y0257499D02*
D03*
X0230610Y0257499D02*
D03*
X0213189Y0257401D02*
D03*
X0210040Y0257401D02*
D03*
X0210040Y0250314D02*
D03*
X0213189Y0250314D02*
D03*
D383*
X0202067Y0271141D02*
D03*
X0202067Y0264920D02*
D03*
X0236614Y0229704D02*
D03*
X0236614Y0223483D02*
D03*
X0240945Y0223483D02*
D03*
X0240945Y0229704D02*
D03*
X0245276Y0229704D02*
D03*
X0245276Y0223483D02*
D03*
X0249606Y0223483D02*
D03*
X0249606Y0229704D02*
D03*
X0232284Y0229704D02*
D03*
X0232284Y0223483D02*
D03*
X0227953Y0223483D02*
D03*
X0227953Y0229704D02*
D03*
X0223622Y0229704D02*
D03*
X0223622Y0223483D02*
D03*
X0219292Y0223483D02*
D03*
X0219292Y0229704D02*
D03*
X0266929Y0229704D02*
D03*
X0266929Y0223483D02*
D03*
X0262598Y0223483D02*
D03*
X0262598Y0229704D02*
D03*
X0258268Y0229704D02*
D03*
X0258268Y0223483D02*
D03*
X0253937Y0223483D02*
D03*
X0253937Y0229704D02*
D03*
X0301575Y0229704D02*
D03*
X0301575Y0223483D02*
D03*
X0297244Y0223483D02*
D03*
X0297244Y0229704D02*
D03*
X0292914Y0229704D02*
D03*
X0292914Y0223483D02*
D03*
X0288583Y0223483D02*
D03*
X0288583Y0229704D02*
D03*
X0284252Y0229704D02*
D03*
X0284252Y0223483D02*
D03*
X0279921Y0223483D02*
D03*
X0279921Y0229704D02*
D03*
X0275591Y0229704D02*
D03*
X0275591Y0223483D02*
D03*
X0271260Y0223483D02*
D03*
X0271260Y0229704D02*
D03*
X0202067Y0257755D02*
D03*
X0202067Y0251535D02*
D03*
X0214961Y0229704D02*
D03*
X0214961Y0223483D02*
D03*
X0210630Y0223483D02*
D03*
X0210630Y0229704D02*
D03*
X0206299Y0229704D02*
D03*
X0206299Y0223483D02*
D03*
X0201969Y0223483D02*
D03*
X0201969Y0229704D02*
D03*
D297*
X0318012Y0262617D02*
D03*
X0311713Y0262617D02*
D03*
X0311713Y0267145D02*
D03*
X0318012Y0267145D02*
D03*
X0310728Y0253661D02*
D03*
X0317028Y0253661D02*
D03*
X0310728Y0249035D02*
D03*
X0317028Y0249035D02*
D03*
D381*
X0305414Y0248149D02*
D03*
X0305414Y0255629D02*
D03*
D294*
X0317776Y0258090D02*
D03*
X0311555Y0258090D02*
D03*
X0321014Y0213006D02*
G01*
G75*
D473*
X0210187Y0195683D02*
D03*
X0216487Y0195683D02*
D03*
X0238140Y0185742D02*
D03*
X0244439Y0185742D02*
D03*
X0155857Y0136038D02*
D03*
X0162156Y0136038D02*
D03*
X0202755Y0072349D02*
D03*
X0196455Y0072349D02*
D03*
X0149951Y0136234D02*
D03*
X0143652Y0136234D02*
D03*
X0147982Y0141746D02*
D03*
X0141683Y0141746D02*
D03*
X0282136Y0163301D02*
D03*
X0288435Y0163301D02*
D03*
X0142372Y0092829D02*
D03*
X0148671Y0092829D02*
D03*
D477*
X0178081Y0211234D02*
D03*
D476*
X0160483Y0112022D02*
D03*
X0164223Y0112022D02*
D03*
X0167963Y0112022D02*
D03*
X0167963Y0102573D02*
D03*
X0164223Y0102573D02*
D03*
X0160483Y0102573D02*
D03*
D294*
X0233770Y0185152D02*
D03*
X0227549Y0185152D02*
D03*
X0158849Y0192927D02*
D03*
X0165069Y0192927D02*
D03*
X0161605Y0084266D02*
D03*
X0167825Y0084266D02*
D03*
X0152057Y0143124D02*
D03*
X0158278Y0143124D02*
D03*
X0252628Y0185152D02*
D03*
X0258849Y0185152D02*
D03*
X0185817Y0180821D02*
D03*
X0192038Y0180821D02*
D03*
X0272727Y0077573D02*
D03*
X0278947Y0077573D02*
D03*
X0156487Y0117829D02*
D03*
X0162707Y0117829D02*
D03*
X0263573Y0185250D02*
D03*
X0269794Y0185250D02*
D03*
X0210620Y0189581D02*
D03*
X0216841Y0189581D02*
D03*
X0263297Y0077967D02*
D03*
X0257077Y0077967D02*
D03*
X0229518Y0077179D02*
D03*
X0235738Y0077179D02*
D03*
X0211309Y0072750D02*
D03*
X0217530Y0072750D02*
D03*
X0207983Y0180919D02*
D03*
X0201762Y0180919D02*
D03*
X0289577Y0114483D02*
D03*
X0283357Y0114483D02*
D03*
X0282175Y0158774D02*
D03*
X0288396Y0158774D02*
D03*
D336*
X0167471Y0135250D02*
D03*
X0167471Y0128951D02*
D03*
X0173868Y0075112D02*
D03*
X0173868Y0081412D02*
D03*
X0180489Y0076392D02*
D03*
X0180489Y0070093D02*
D03*
X0150837Y0077770D02*
D03*
X0150837Y0071471D02*
D03*
X0141782Y0088597D02*
D03*
X0141782Y0082297D02*
D03*
X0141782Y0078459D02*
D03*
X0141782Y0072160D02*
D03*
X0146408Y0087022D02*
D03*
X0146408Y0080723D02*
D03*
X0282431Y0146963D02*
D03*
X0282431Y0153262D02*
D03*
D192*
X0266782Y0093715D02*
D03*
X0266782Y0095683D02*
D03*
X0266782Y0097652D02*
D03*
X0266782Y0099620D02*
D03*
X0266782Y0101589D02*
D03*
X0266782Y0103557D02*
D03*
X0266782Y0105526D02*
D03*
X0266782Y0107494D02*
D03*
X0266782Y0109463D02*
D03*
X0266782Y0111431D02*
D03*
X0266782Y0113400D02*
D03*
X0266782Y0115368D02*
D03*
X0266782Y0117337D02*
D03*
X0266782Y0119305D02*
D03*
X0266782Y0121274D02*
D03*
X0266782Y0123242D02*
D03*
X0266782Y0125211D02*
D03*
X0266782Y0127179D02*
D03*
X0266782Y0129148D02*
D03*
X0266782Y0131116D02*
D03*
X0266782Y0133085D02*
D03*
X0266782Y0135053D02*
D03*
X0266782Y0137022D02*
D03*
X0266782Y0138990D02*
D03*
X0266782Y0140959D02*
D03*
X0266782Y0142927D02*
D03*
X0266782Y0144896D02*
D03*
X0266782Y0146864D02*
D03*
X0266782Y0148833D02*
D03*
X0266782Y0150801D02*
D03*
X0266782Y0152770D02*
D03*
X0266782Y0154738D02*
D03*
X0266782Y0156707D02*
D03*
X0266782Y0158675D02*
D03*
X0266782Y0160644D02*
D03*
X0266782Y0162612D02*
D03*
X0183120Y0162612D02*
D03*
X0183120Y0160644D02*
D03*
X0183120Y0158675D02*
D03*
X0183120Y0156707D02*
D03*
X0183120Y0154738D02*
D03*
X0183120Y0152770D02*
D03*
X0183120Y0150801D02*
D03*
X0183120Y0148833D02*
D03*
X0183120Y0146864D02*
D03*
X0183120Y0144896D02*
D03*
X0183120Y0142927D02*
D03*
X0183120Y0140959D02*
D03*
X0183120Y0138990D02*
D03*
X0183120Y0137022D02*
D03*
X0183120Y0135053D02*
D03*
X0183120Y0133085D02*
D03*
X0183120Y0131116D02*
D03*
X0183120Y0129148D02*
D03*
X0183120Y0127179D02*
D03*
X0183120Y0125211D02*
D03*
X0183120Y0123242D02*
D03*
X0183120Y0121274D02*
D03*
X0183120Y0119305D02*
D03*
X0183120Y0117337D02*
D03*
X0183120Y0115368D02*
D03*
X0183120Y0113400D02*
D03*
X0183120Y0111431D02*
D03*
X0183120Y0109463D02*
D03*
X0183120Y0107494D02*
D03*
X0183120Y0105526D02*
D03*
X0183120Y0103557D02*
D03*
X0183120Y0101589D02*
D03*
X0183120Y0099620D02*
D03*
X0183120Y0097652D02*
D03*
X0183120Y0095683D02*
D03*
X0183120Y0093715D02*
D03*
D84*
X0259400Y0169994D02*
D03*
X0257431Y0169994D02*
D03*
X0255463Y0169994D02*
D03*
X0253494Y0169994D02*
D03*
X0251526Y0169994D02*
D03*
X0249557Y0169994D02*
D03*
X0247589Y0169994D02*
D03*
X0245620Y0169994D02*
D03*
X0243652Y0169994D02*
D03*
X0241683Y0169994D02*
D03*
X0239715Y0169994D02*
D03*
X0237746Y0169994D02*
D03*
X0235778Y0169994D02*
D03*
X0233809Y0169994D02*
D03*
X0231841Y0169994D02*
D03*
X0229872Y0169994D02*
D03*
X0227904Y0169994D02*
D03*
X0225935Y0169994D02*
D03*
X0223967Y0169994D02*
D03*
X0221998Y0169994D02*
D03*
X0220030Y0169994D02*
D03*
X0218061Y0169994D02*
D03*
X0216093Y0169994D02*
D03*
X0214124Y0169994D02*
D03*
X0212156Y0169994D02*
D03*
X0210187Y0169994D02*
D03*
X0208219Y0169994D02*
D03*
X0206250Y0169994D02*
D03*
X0204282Y0169994D02*
D03*
X0202313Y0169994D02*
D03*
X0200345Y0169994D02*
D03*
X0198376Y0169994D02*
D03*
X0196408Y0169994D02*
D03*
X0194439Y0169994D02*
D03*
X0192471Y0169994D02*
D03*
X0190502Y0169994D02*
D03*
X0190502Y0086333D02*
D03*
X0192471Y0086333D02*
D03*
X0194439Y0086333D02*
D03*
X0196408Y0086333D02*
D03*
X0198376Y0086333D02*
D03*
X0200345Y0086333D02*
D03*
X0202313Y0086333D02*
D03*
X0204282Y0086333D02*
D03*
X0206250Y0086333D02*
D03*
X0208219Y0086333D02*
D03*
X0210187Y0086333D02*
D03*
X0212156Y0086333D02*
D03*
X0214124Y0086333D02*
D03*
X0216093Y0086333D02*
D03*
X0218061Y0086333D02*
D03*
X0220030Y0086333D02*
D03*
X0221998Y0086333D02*
D03*
X0223967Y0086333D02*
D03*
X0225935Y0086333D02*
D03*
X0227904Y0086333D02*
D03*
X0229872Y0086333D02*
D03*
X0231841Y0086333D02*
D03*
X0233809Y0086333D02*
D03*
X0235778Y0086333D02*
D03*
X0237746Y0086333D02*
D03*
X0239715Y0086333D02*
D03*
X0241683Y0086333D02*
D03*
X0243652Y0086333D02*
D03*
X0245620Y0086333D02*
D03*
X0247589Y0086333D02*
D03*
X0249557Y0086333D02*
D03*
X0251526Y0086333D02*
D03*
X0253494Y0086333D02*
D03*
X0255463Y0086333D02*
D03*
X0257431Y0086333D02*
D03*
X0259400Y0086333D02*
D03*
D466*
X0248179Y0188793D02*
D03*
X0248179Y0184856D02*
D03*
D467*
X0153101Y0150014D02*
D03*
D468*
X0144045Y0174423D02*
D03*
X0162156Y0174423D02*
D03*
D469*
X0153101Y0174423D02*
D03*
D53*
X0170030Y0207691D02*
D03*
X0170030Y0205132D02*
D03*
X0170030Y0202573D02*
D03*
X0170030Y0200014D02*
D03*
X0170030Y0197455D02*
D03*
X0170030Y0194896D02*
D03*
X0170030Y0192337D02*
D03*
X0192471Y0207691D02*
D03*
X0192471Y0205132D02*
D03*
X0192471Y0202573D02*
D03*
X0192471Y0200014D02*
D03*
X0192471Y0197455D02*
D03*
X0192471Y0194896D02*
D03*
X0192471Y0192337D02*
D03*
X0294045Y0173341D02*
D03*
X0294045Y0170782D02*
D03*
X0294045Y0168223D02*
D03*
X0294045Y0165663D02*
D03*
X0294045Y0163104D02*
D03*
X0294045Y0160545D02*
D03*
X0294045Y0157986D02*
D03*
X0316487Y0173341D02*
D03*
X0316487Y0170782D02*
D03*
X0316487Y0168223D02*
D03*
X0316487Y0165663D02*
D03*
X0316487Y0163104D02*
D03*
X0316487Y0160545D02*
D03*
X0316487Y0157986D02*
D03*
X0294538Y0128360D02*
D03*
X0294538Y0125801D02*
D03*
X0294538Y0123242D02*
D03*
X0294538Y0120683D02*
D03*
X0294538Y0118124D02*
D03*
X0294538Y0115565D02*
D03*
X0294538Y0113006D02*
D03*
X0316979Y0128360D02*
D03*
X0316979Y0125801D02*
D03*
X0316979Y0123242D02*
D03*
X0316979Y0120683D02*
D03*
X0316979Y0118124D02*
D03*
X0316979Y0115565D02*
D03*
X0316979Y0113006D02*
D03*
X0288730Y0192337D02*
D03*
X0288730Y0194896D02*
D03*
X0288730Y0197455D02*
D03*
X0288730Y0200014D02*
D03*
X0288730Y0202573D02*
D03*
X0288730Y0205132D02*
D03*
X0288730Y0207691D02*
D03*
X0266290Y0192337D02*
D03*
X0266290Y0194896D02*
D03*
X0266290Y0197455D02*
D03*
X0266290Y0200014D02*
D03*
X0266290Y0202573D02*
D03*
X0266290Y0205132D02*
D03*
X0266290Y0207691D02*
D03*
X0244439Y0192337D02*
D03*
X0244439Y0194896D02*
D03*
X0244439Y0197455D02*
D03*
X0244439Y0200014D02*
D03*
X0244439Y0202573D02*
D03*
X0244439Y0205132D02*
D03*
X0244439Y0207691D02*
D03*
X0221998Y0192337D02*
D03*
X0221998Y0194896D02*
D03*
X0221998Y0197455D02*
D03*
X0221998Y0200014D02*
D03*
X0221998Y0202573D02*
D03*
X0221998Y0205132D02*
D03*
X0221998Y0207691D02*
D03*
X0294341Y0207691D02*
D03*
X0294341Y0205132D02*
D03*
X0294341Y0202573D02*
D03*
X0294341Y0200014D02*
D03*
X0294341Y0197455D02*
D03*
X0294341Y0194896D02*
D03*
X0294341Y0192337D02*
D03*
X0316782Y0207691D02*
D03*
X0316782Y0205132D02*
D03*
X0316782Y0202573D02*
D03*
X0316782Y0200014D02*
D03*
X0316782Y0197455D02*
D03*
X0316782Y0194896D02*
D03*
X0316782Y0192337D02*
D03*
D383*
X0155364Y0078518D02*
D03*
X0155364Y0072297D02*
D03*
X0141585Y0183518D02*
D03*
X0141585Y0189738D02*
D03*
X0171408Y0088538D02*
D03*
X0171408Y0094758D02*
D03*
X0283711Y0123183D02*
D03*
X0283711Y0129404D02*
D03*
X0164813Y0089620D02*
D03*
X0164813Y0095841D02*
D03*
X0198671Y0199266D02*
D03*
X0198671Y0205486D02*
D03*
X0164223Y0197789D02*
D03*
X0164223Y0204010D02*
D03*
X0159793Y0204010D02*
D03*
X0159793Y0197790D02*
D03*
X0308514Y0140526D02*
D03*
X0308514Y0134305D02*
D03*
X0288238Y0123183D02*
D03*
X0288238Y0129404D02*
D03*
X0283612Y0167868D02*
D03*
X0283612Y0174089D02*
D03*
X0162648Y0146825D02*
D03*
X0162648Y0140604D02*
D03*
X0288435Y0167967D02*
D03*
X0288435Y0174187D02*
D03*
X0302018Y0180368D02*
D03*
X0302018Y0186589D02*
D03*
X0315601Y0134404D02*
D03*
X0315601Y0140624D02*
D03*
X0173376Y0125742D02*
D03*
X0173376Y0131963D02*
D03*
X0166979Y0151844D02*
D03*
X0166979Y0145624D02*
D03*
X0287254Y0147101D02*
D03*
X0287254Y0153321D02*
D03*
X0282530Y0100270D02*
D03*
X0282530Y0094049D02*
D03*
D470*
X0142569Y0131313D02*
D03*
X0142569Y0124620D02*
D03*
X0156053Y0124522D02*
D03*
X0156053Y0131215D02*
D03*
X0148868Y0131313D02*
D03*
X0148868Y0124620D02*
D03*
X0161782Y0124325D02*
D03*
X0161782Y0131018D02*
D03*
D228*
X0147786Y0182199D02*
D03*
X0147786Y0189679D02*
D03*
D465*
X0169164Y0071667D02*
D03*
X0159912Y0075407D02*
D03*
D465*
X0169164Y0079148D02*
D03*
D42*
X0287845Y0137907D02*
D03*
X0302412Y0137907D02*
D03*
D385*
X0152018Y0204837D02*
D03*
X0152018Y0197750D02*
D03*
X0141979Y0197750D02*
D03*
X0141979Y0204837D02*
D03*
X0153396Y0188301D02*
D03*
X0153396Y0181215D02*
D03*
X0163435Y0181215D02*
D03*
X0163435Y0188301D02*
D03*
X0301624Y0153853D02*
D03*
X0301624Y0146766D02*
D03*
X0291585Y0146766D02*
D03*
X0291585Y0153853D02*
D03*
X0306841Y0153852D02*
D03*
X0306841Y0146766D02*
D03*
X0316880Y0146766D02*
D03*
X0316880Y0153852D02*
D03*
X0297687Y0187219D02*
D03*
X0297687Y0180132D02*
D03*
X0287648Y0180132D02*
D03*
X0287648Y0187219D02*
D03*
X0306349Y0187219D02*
D03*
X0306349Y0180132D02*
D03*
X0316388Y0180132D02*
D03*
X0316388Y0187219D02*
D03*
X0301427Y0108675D02*
D03*
X0301427Y0101589D02*
D03*
X0291388Y0101589D02*
D03*
X0291388Y0108675D02*
D03*
X0169242Y0188006D02*
D03*
X0169242Y0180919D02*
D03*
X0179282Y0180919D02*
D03*
X0179282Y0188006D02*
D03*
X0316782Y0108675D02*
D03*
X0316782Y0101589D02*
D03*
X0306742Y0101589D02*
D03*
X0306742Y0108675D02*
D03*
X0261861Y0189482D02*
D03*
X0261861Y0196569D02*
D03*
X0251821Y0196569D02*
D03*
X0251821Y0189482D02*
D03*
X0250640Y0207789D02*
D03*
X0250640Y0200703D02*
D03*
X0260679Y0200703D02*
D03*
X0260679Y0207789D02*
D03*
D382*
X0148573Y0204837D02*
D03*
X0145423Y0204837D02*
D03*
X0145423Y0197750D02*
D03*
X0148573Y0197750D02*
D03*
X0159990Y0181215D02*
D03*
X0156841Y0181215D02*
D03*
X0156841Y0188301D02*
D03*
X0159990Y0188301D02*
D03*
X0298179Y0153853D02*
D03*
X0295030Y0153853D02*
D03*
X0295030Y0146766D02*
D03*
X0298179Y0146766D02*
D03*
X0313435Y0146766D02*
D03*
X0310286Y0146766D02*
D03*
X0310286Y0153852D02*
D03*
X0313435Y0153852D02*
D03*
X0294242Y0187219D02*
D03*
X0291093Y0187219D02*
D03*
X0291093Y0180132D02*
D03*
X0294242Y0180132D02*
D03*
X0312943Y0180132D02*
D03*
X0309793Y0180132D02*
D03*
X0309793Y0187219D02*
D03*
X0312943Y0187219D02*
D03*
X0297982Y0108675D02*
D03*
X0294833Y0108675D02*
D03*
X0294833Y0101589D02*
D03*
X0297982Y0101589D02*
D03*
X0175837Y0180919D02*
D03*
X0172687Y0180919D02*
D03*
X0172687Y0188006D02*
D03*
X0175837Y0188006D02*
D03*
X0313337Y0108675D02*
D03*
X0310187Y0108675D02*
D03*
X0310187Y0101589D02*
D03*
X0313337Y0101589D02*
D03*
X0255266Y0196569D02*
D03*
X0258416Y0196569D02*
D03*
X0258416Y0189482D02*
D03*
X0255266Y0189482D02*
D03*
X0257234Y0200703D02*
D03*
X0254085Y0200703D02*
D03*
X0254085Y0207789D02*
D03*
X0257234Y0207789D02*
D03*
D471*
X0155857Y0083085D02*
D03*
X0155857Y0096077D02*
D03*
D464*
X0278396Y0187927D02*
D03*
X0274656Y0178675D02*
D03*
D464*
X0282136Y0178675D02*
D03*
D475*
X0215896Y0209758D02*
D03*
X0208809Y0209758D02*
D03*
X0208809Y0199719D02*
D03*
X0215896Y0199719D02*
D03*
X0205660Y0194896D02*
D03*
X0198573Y0194896D02*
D03*
X0198573Y0184856D02*
D03*
X0205660Y0184856D02*
D03*
X0292510Y0094129D02*
D03*
X0299597Y0094129D02*
D03*
X0299597Y0084089D02*
D03*
X0292510Y0084089D02*
D03*
X0308120Y0084364D02*
D03*
X0315207Y0084364D02*
D03*
X0315207Y0074325D02*
D03*
X0308120Y0074325D02*
D03*
D474*
X0208809Y0203163D02*
D03*
X0208809Y0206313D02*
D03*
X0215896Y0206313D02*
D03*
X0215896Y0203163D02*
D03*
X0198573Y0188301D02*
D03*
X0198573Y0191451D02*
D03*
X0205660Y0191451D02*
D03*
X0205660Y0188301D02*
D03*
X0292510Y0090684D02*
D03*
X0292510Y0087534D02*
D03*
X0299597Y0087534D02*
D03*
X0299597Y0090684D02*
D03*
X0308120Y0080919D02*
D03*
X0308120Y0077770D02*
D03*
X0315207Y0077770D02*
D03*
X0315207Y0080919D02*
D03*
D85*
X0150089Y0103085D02*
D03*
X0145089Y0103085D02*
D03*
X0150089Y0108085D02*
D03*
X0145089Y0108085D02*
D03*
X0150089Y0113085D02*
D03*
X0145089Y0113085D02*
D03*
D472*
X0284400Y0110250D02*
D03*
X0284400Y0104345D02*
D03*
D463*
X0278691Y0071175D02*
D03*
X0265699Y0071175D02*
D03*
D208*
X0147589Y0098085D02*
D03*
X0143589Y0118085D02*
D03*
X0151589Y0118085D02*
D03*
X0228929Y0019833D02*
G01*
G75*
D109*
X0227846Y0063140D02*
D03*
D209*
X0227649Y0022392D02*
D03*
X0227649Y0024361D02*
D03*
D419*
X0215917Y0031250D02*
D03*
X0225169Y0027510D02*
D03*
D419*
X0215917Y0023770D02*
D03*
D479*
X0204303Y0038809D02*
D03*
X0209303Y0038809D02*
D03*
X0214303Y0038809D02*
D03*
X0219303Y0038809D02*
D03*
X0204303Y0057707D02*
D03*
X0209303Y0057707D02*
D03*
X0214303Y0057707D02*
D03*
X0219303Y0057707D02*
D03*
D328*
X0224598Y0054518D02*
D03*
X0224598Y0060738D02*
D03*
X0224598Y0046172D02*
D03*
X0224598Y0039951D02*
D03*
D321*
X0211016Y0024360D02*
D03*
X0211016Y0030660D02*
D03*
D74*
X0227059Y0034990D02*
D03*
X0204520Y0051034D02*
D03*
X0218496Y0051329D02*
D03*
X0223516Y0050148D02*
D03*
X0221449Y0046703D02*
D03*
M02*
