M48
INCH,TZ
T01C0.011800
T02C0.019700
T03C0.031750
T04C0.039200
T05C0.059100
T06C0.078700
T07C0.098400
%
T01
X13711Y22717
X14065Y29616
X14459Y29616
X16663Y22717
X16978Y22717
X17293Y22717
X27048Y926
X27393Y719
X27481Y2619
X27511Y1221
X693Y38005
X893Y31405
X893Y23905
X893Y15305
X993Y37505
X993Y31905
X1229Y38105
X1293Y39505
X1393Y38605
X1496Y16732
X1593Y39805
X1593Y39105
X1593Y4505
X1652Y10861
X1654Y11890
X1693Y405
X1993Y30005
X2008Y17382
X2152Y15761
X2193Y32905
X2193Y26805
X2293Y41505
X2293Y33405
X2336Y21724
X2340Y18807
X2362Y16890
X2370Y23231
X2386Y35405
X2393Y32405
X2493Y31605
X2579Y19272
X2638Y16220
X2675Y30331
X2686Y17289
X2697Y15606
X2795Y28701
X2835Y16772
X2913Y20906
X2953Y19882
X2972Y18327
X3031Y22362
X3252Y16361
X3268Y19123
X3523Y23269
X3543Y24213
X3544Y27946
X3544Y24988
X3593Y38869
X3642Y19433
X3667Y20379
X3721Y18105
X3858Y18574
X3858Y11614
X3898Y29567
X3944Y17881
X4083Y19496
X4093Y38605
X4106Y28989
X4114Y12874
X4291Y12087
X4293Y34705
X4370Y19853
X4488Y18515
X4493Y37305
X4593Y38205
X4593Y34005
X4605Y16697
X4634Y13976
X4646Y15866
X4651Y32268
X4657Y19094
X4693Y39805
X4693Y35705
X4803Y24016
X4818Y21669
X4843Y27677
X4967Y20158
X5100Y14557
X5183Y17579
X5197Y18110
X5260Y12780
X5276Y16929
X5372Y19722
X5394Y20036
X5406Y12429
X5492Y18740
X5512Y11811
X5645Y33262
X5699Y14820
X5787Y18002
X5827Y21535
X5827Y11890
X5993Y30505
X6042Y20749
X6052Y16761
X6052Y11361
X6052Y15889
X6102Y19024
X6102Y18709
X6102Y13228
X6110Y12027
X6155Y20455
X6158Y19652
X6193Y36505
X6265Y19356
X6293Y38805
X6293Y35305
X6293Y31542
X6352Y17661
X6393Y40005
X6393Y38105
X6457Y30355
X6536Y29565
X6614Y10945
X6614Y13557
X6614Y12751
X6676Y32426
X6729Y37305
X6816Y17835
X6831Y20315
X6850Y19409
X7126Y32847
X7126Y30511
X7126Y21535
X7149Y14321
X7173Y31838
X7193Y35905
X7193Y33858
X7244Y39449
X7252Y15161
X7279Y16827
X7283Y17165
X7322Y34145
X7352Y12761
X7421Y32362
X7441Y30505
X7652Y15261
X7652Y11561
X7717Y10512
X7785Y30511
X7991Y15162
X8060Y12205
X8110Y33386
X8110Y10157
X8133Y35351
X8152Y16261
X8193Y305
X8232Y9114
X8334Y18418
X8346Y15157
X8366Y20354
X8386Y16890
X8397Y13073
X8406Y19016
X8453Y33831
X8504Y21535
X8543Y10157
X8693Y33405
X8693Y5105
X8700Y6374
X8736Y8760
X8740Y28583
X8740Y11024
X8740Y7874
X8794Y40011
X8798Y14614
X8966Y18966
X8976Y14055
X9016Y17283
X9093Y12205
X9121Y3574
X9291Y15709
X9456Y20427
X9465Y18496
X9528Y28661
X9593Y37105
X9685Y31024
X9693Y35705
X9693Y34805
X9695Y10641
X9764Y16457
X9801Y12581
X9882Y8465
X9961Y4921
X9990Y19194
X10079Y31024
X10207Y4696
X10295Y5886
X10350Y20044
X10350Y15005
X10354Y40669
X10516Y30402
X10531Y4567
X10591Y21024
X10669Y5630
X10748Y4213
X10984Y19803
X11063Y20709
X11102Y28937
X11102Y4252
X11135Y37306
X11142Y28583
X11142Y5197
X11152Y39051
X11169Y35624
X11295Y1229
X11299Y21496
X11417Y4213
X11457Y20945
X11614Y12520
X11614Y6732
X11654Y9803
X11693Y20354
X11811Y15433
X12283Y21181
X12343Y15472
X12393Y14605
X12393Y12605
X12396Y18329
X12445Y3094
X12493Y17005
X12693Y37305
X12893Y39105
X12893Y6605
X12893Y5197
X12913Y20197
X12913Y3071
X13031Y30827
X13150Y29016
X13193Y17005
X13273Y12432
X13346Y22165
X13381Y12118
X13638Y3583
X13693Y37205
X13693Y305
X13780Y4803
X13858Y14675
X13858Y13228
X14000Y5057
X14003Y4582
X14016Y7047
X14055Y8228
X14079Y21772
X14094Y22402
X14164Y14313
X14250Y4255
X14393Y38805
X14449Y15394
X14488Y8346
X14554Y20397
X14567Y7441
X14606Y18661
X14630Y3745
X14646Y6457
X14993Y35105
X15000Y30079
X15093Y37205
X15591Y3740
X15693Y35105
X15793Y40205
X15793Y38805
X16393Y37205
X16693Y35105
X16811Y30157
X17193Y31905
X17693Y31305
X17793Y38805
X17793Y37205
X18147Y30185
X18393Y35105
X18413Y32155
X18891Y1239
X18933Y32045
X19193Y37205
X19252Y22165
X19291Y1850
X19396Y31940
X19577Y31388
X19893Y38905
X20157Y5118
X20394Y28110
X20394Y23031
X20413Y26144
X20593Y37205
X20709Y28819
X20906Y1890
X20945Y31930
X21593Y33205
X21693Y40205
X21693Y30906
X21793Y38805
X21793Y37205
X22008Y4646
X22441Y26969
X22493Y30485
X22593Y35205
X22618Y28484
X22712Y197
X22835Y23031
X22874Y24685
X22923Y29892
X23150Y5709
X23224Y30536
X23525Y22130
X23693Y35705
X23793Y29505
X23858Y22677
X23993Y39005
X23993Y31805
X24291Y27087
X24319Y961
X24403Y2462
X24764Y22047
X24793Y33305
X24961Y26142
X24993Y32705
X25102Y173
X25276Y24646
X25344Y29084
X25524Y29342
X25593Y35705
X25593Y31605
X25667Y39655
X25669Y5551
X25693Y30105
X25866Y22283
X25945Y28622
X26122Y27067
X26693Y4449
X26826Y27264
X26893Y35305
X27015Y39748
X27109Y27933
X27531Y27037
X27602Y22296
X27638Y24252
X28090Y27933
X28093Y38405
X28193Y32605
X28268Y4094
X28346Y5630
X28465Y22087
X28530Y24563
X28661Y27008
X28843Y213
X28976Y29805
X29103Y27189
X29193Y41305
X29378Y2693
X29409Y709
X29449Y5433
X29512Y27740
X29720Y1202
X29730Y700
X29730Y247
X29893Y39205
X30118Y5039
X30220Y1202
X30230Y700
X30230Y247
X30472Y38898
X30493Y41305
X30611Y24750
X30720Y1202
X30730Y700
X30730Y247
X30793Y29005
X30906Y22047
X31016Y41563
X31220Y4870
X31220Y1220
X31230Y4368
X31230Y3915
X31230Y719
X31230Y266
X31339Y33189
X31535Y4358
X31535Y709
X31593Y5005
X31654Y22087
X31811Y27126
X31850Y19685
X31850Y18543
X31850Y15394
X31850Y12795
X31850Y11575
X31893Y39205
X31969Y9252
X31993Y38605
X32047Y6693
X32086Y27441
X32441Y27402
X32559Y22871
X32593Y32105
X32593Y29905
X32593Y405
X32612Y33775
X32638Y26181
X32717Y26496
X32717Y20207
X32793Y28605
X32835Y33465
X32992Y27677
X32993Y34005
X33347Y28043
X33593Y29805
X33622Y12165
X33819Y12520
X33993Y32705
X33993Y5405
X34016Y21601
X34016Y14900
X34035Y38327
X34055Y27487
X34094Y28878
X6329Y21742
X6722Y21742
X15148Y20699
X15148Y18061
X15148Y17746
X15148Y17431
X15148Y17116
X15148Y16801
X15148Y16486
X15148Y15856
X15148Y15541
X15148Y15226
X15148Y14911
X15148Y14596
X15148Y14281
X15148Y13967
X15148Y13652
X15148Y13337
X15148Y13022
X15148Y12077
X15148Y11762
X15148Y11447
X15148Y10187
X15148Y9872
X15148Y9557
X15148Y9242
X15148Y8297
X15148Y7982
X15148Y7667
X15148Y7352
X15148Y7037
X15148Y6014
X15148Y20384
X15148Y16171
X15148Y12707
X15148Y12392
X15148Y11132
X15148Y10817
X15148Y10502
X15148Y8927
X15148Y8612
X15384Y21565
X15463Y6014
X15778Y6014
X15856Y21565
X16093Y6014
X16329Y21565
X16407Y6014
X16722Y6014
X16801Y21565
X17037Y6014
X17274Y21565
X17352Y6014
X17667Y6014
X17707Y21565
X17982Y6014
X18179Y21565
X18297Y6014
X18612Y6014
X18652Y21565
X18927Y6014
X19124Y21565
X19242Y6014
X19557Y6014
X19596Y21565
X19872Y6014
X20069Y21565
X20187Y6014
X20502Y6014
X20541Y21565
X20817Y6014
X21014Y21565
X21132Y6014
X21447Y6014
X21486Y21565
X21762Y6014
X21959Y21565
X22077Y6014
X22431Y21565
X22904Y21565
X23376Y21565
X23848Y21565
X24242Y6014
X24321Y21565
X24557Y6014
X24793Y21565
X24872Y6014
X25187Y6014
X25266Y21565
X25738Y21565
X26211Y21565
X26683Y21565
X27156Y21565
X27628Y21565
X28100Y21565
X28573Y21565
X29045Y21565
X29203Y6014
X29518Y21565
X29990Y21565
X30463Y21565
X31407Y21565
X31565Y14911
X31565Y14518
X31565Y14124
X31565Y13730
X31565Y13337
X31565Y12943
X31565Y12549
X31565Y12156
X31565Y10935
X31565Y10620
X31565Y6014
X31565Y20581
X31565Y20187
X5094Y27224
X5730Y27496
X6115Y27282
X6544Y27923
X6880Y27963
X7470Y27766
X7726Y27490
X8257Y27372
X8553Y27766
X8061Y27963
X9242Y27963
X10817Y27963
X10797Y27490
X11089Y26379
X11064Y25332
X10776Y25010
X10701Y23957
X10817Y22845
X10817Y22057
X9807Y23175
X8561Y23115
X8651Y22648
X8171Y22480
X8454Y22057
X7286Y22479
X7114Y21783
X6722Y21742
X6328Y21742
X6422Y22424
X5933Y22734
X5616Y22347
X5186Y22744
X5565Y23133
X6289Y23208
X6722Y23160
X5737Y24476
X5108Y24476
X5094Y25395
X5094Y26250
X5736Y26027
X6761Y25443
X8208Y25050
X8257Y25797
X8767Y25364
X9765Y24775
X11722Y23829
X11789Y22897
X12194Y22845
X11998Y22057
X11407Y22451
X12547Y24925
X12953Y24883
X12537Y25712
X12193Y25779
X12470Y26073
X12211Y27414
X11576Y27005
X11343Y27845
X14459Y29616
X14065Y29616
X17293Y22717
X16978Y22717
X16663Y22717
X13710Y22717
X16161Y29607
X19350Y29488
X19744Y29449
X18957Y29370
X15059Y28937
X14272Y28937
X13523Y28937
X19783Y28858
X19311Y28819
X17864Y28723
X18248Y28701
X17539Y28701
X18878Y28583
X16161Y28544
X15413Y28386
X14272Y28288
X17382Y28215
X18287Y28032
X16555Y28032
X15610Y27992
X18760Y27835
X16870Y27777
X19744Y27756
X14980Y27638
X18405Y27481
X14232Y27362
X19204Y27323
X17224Y27047
X14901Y26969
X19744Y26929
X18484Y26654
X17850Y26631
X16004Y26614
X17236Y26406
X15585Y26265
X19508Y26063
X19094Y26004
X17382Y25906
X17067Y25906
X18248Y25748
X16476Y25748
X19823Y25670
X15666Y25667
X15138Y25658
X14437Y25573
X14114Y25512
X18051Y25355
X18445Y25315
X17406Y25300
X13511Y25239
X13821Y25239
X15587Y25206
X16634Y25158
X16319Y25158
X19173Y25099
X15819Y24961
X16476Y24803
X19806Y24668
X18838Y24466
X15603Y24377
X16831Y24292
X16516Y24292
X16122Y23819
X19744Y23780
X14193Y23780
X14764Y23760
X16555Y23701
X18799Y23504
X17789Y23224
X15576Y23179
X16083Y23071
X19153Y22914
X16358Y22914
X19744Y22874
X14025Y22870
X14311Y22756
X31407Y21565
X31484Y21166
X31565Y20581
X31565Y20187
X30807Y19927
X30148Y19911
X29833Y19911
X29203Y20069
X28888Y20069
X28322Y19881
X27896Y19881
X27313Y20069
X26998Y20069
X26429Y19899
X26144Y19890
X25423Y20069
X25108Y20069
X24561Y19865
X24119Y19881
X23533Y20069
X23218Y20069
X22628Y19963
X22201Y19865
X21644Y20069
X21329Y20069
X20699Y19911
X20384Y19911
X19754Y20069
X19439Y20069
X18809Y19911
X18494Y19911
X17864Y20069
X17628Y19833
X17352Y18966
X17037Y19124
X16840Y19360
X16486Y19360
X16398Y18435
X16900Y18415
X16837Y18137
X16939Y17293
X16565Y17155
X16461Y16880
X16358Y17392
X16637Y16066
X16645Y15569
X16959Y15541
X16683Y15069
X16919Y14754
X17037Y14360
X17632Y14284
X18022Y14242
X18356Y14231
X18100Y14518
X17848Y14678
X17697Y13786
X17549Y13415
X17530Y13020
X17785Y13179
X18376Y13258
X18569Y13688
X18622Y12726
X19161Y12663
X19439Y13140
X19833Y13140
X19636Y13770
X19557Y14489
X19242Y14478
X18966Y15305
X18720Y15450
X18426Y15698
X18789Y16171
X19183Y16171
X19833Y16486
X20148Y16483
X20463Y16486
X21092Y16350
X21359Y16161
X21250Y15620
X21053Y15384
X20887Y15789
X21880Y15620
X21801Y15344
X22667Y15305
X22746Y15659
X22746Y16486
X22431Y16483
X22116Y16447
X21840Y16880
X21840Y17195
X21831Y17480
X21604Y18022
X21014Y18022
X20640Y17785
X20640Y17155
X21073Y17293
X19616Y17431
X19621Y17141
X18789Y17293
X18356Y17155
X18356Y17785
X18730Y18022
X19321Y18022
X19892Y18770
X20399Y18868
X20684Y18868
X21407Y18888
X22288Y18868
X22574Y18868
X22847Y18784
X22923Y17785
X23297Y18022
X23848Y18022
X24183Y17431
X24188Y17141
X24379Y16471
X24714Y16483
X24990Y15856
X24518Y15606
X24518Y15321
X23622Y15384
X23337Y15384
X23455Y16171
X23750Y16171
X23356Y17293
X22923Y17155
X25207Y17155
X25640Y17293
X25541Y18022
X25207Y17785
X24969Y18752
X24464Y18868
X24178Y18868
X25711Y18512
X26068Y18868
X26353Y18868
X26368Y18218
X26418Y17517
X26437Y16840
X26424Y16545
X26437Y16186
X26447Y15699
X26437Y15413
X26787Y15138
X27072Y15118
X27234Y15620
X27096Y16053
X27628Y16053
X28087Y15790
X28249Y15549
X28665Y15415
X28907Y15620
X29269Y15375
X29088Y15141
X29193Y14439
X29193Y13730
X29193Y13022
X29193Y12313
X29999Y12287
X31014Y11762
X31526Y11329
X31565Y10935
X31565Y10620
X31289Y9754
X30893Y9741
X30581Y9163
X30489Y8770
X30694Y8117
X30502Y7785
X30148Y7864
X29478Y7352
X28848Y7549
X28903Y7899
X28612Y8022
X28573Y7303
X28141Y7499
X27746Y7589
X27431Y7549
X27116Y7470
X26911Y7049
X27703Y7163
X27667Y7864
X27431Y8573
X27056Y8838
X26671Y8800
X26467Y8599
X26024Y8720
X25974Y9085
X25974Y9370
X26683Y9478
X26664Y9819
X26355Y10210
X26447Y10502
X26299Y10856
X26683Y10856
X26604Y11526
X26092Y11486
X26014Y11132
X25974Y10551
X26014Y10148
X25088Y10041
X24321Y10069
X24163Y9557
X23514Y9636
X23494Y10148
X23494Y11014
X23809Y11053
X24088Y11551
X24911Y11565
X24790Y11823
X25073Y11932
X25148Y12352
X25000Y13134
X24911Y13533
X25896Y13415
X25896Y13022
X26171Y13573
X26486Y13514
X26896Y13450
X27539Y13730
X27539Y13022
X27561Y12608
X27549Y12037
X28415Y12155
X28376Y12903
X28376Y13455
X28376Y13740
X28422Y14124
X28388Y14460
X28455Y14943
X27943Y15128
X27543Y14812
X26368Y14636
X26171Y14321
X25896Y14872
X25522Y14500
X24711Y14531
X23888Y14557
X24085Y14281
X23612Y14281
X22963Y14257
X22972Y14542
X22549Y14262
X22155Y14518
X21811Y13866
X21092Y13415
X21289Y12510
X21880Y12274
X22352Y12746
X23533Y12746
X24085Y13179
X23415Y13652
X22987Y13490
X22707Y13573
X23022Y12195
X23297Y11329
X24557Y11988
X25160Y11248
X25979Y11939
X28218Y11565
X28464Y11363
X28273Y10906
X28322Y10332
X28778Y9674
X28818Y9242
X29439Y8848
X29671Y8683
X29367Y9742
X29557Y10226
X29911Y10305
X30305Y10309
X29609Y10881
X27498Y9793
X27610Y9523
X27668Y9026
X26468Y7822
X26219Y7963
X26144Y7687
X25896Y8297
X25218Y8642
X25226Y8927
X25158Y7891
X25029Y7392
X25478Y6901
X24252Y6998
X23967Y7008
X23681Y7008
X23593Y6184
X23305Y6142
X22986Y6145
X22672Y6151
X22669Y6881
X22091Y6914
X21142Y6996
X20316Y6931
X20033Y6966
X20262Y7570
X19923Y7780
X19872Y8730
X19518Y8691
X19326Y8455
X18415Y8888
X18896Y9701
X19124Y9872
X19045Y10384
X18455Y10620
X17864Y10856
X17667Y11171
X17549Y12037
X17618Y12314
X16092Y12785
X16106Y10303
X16092Y9911
X16526Y10226
X17628Y10187
X17628Y9754
X16329Y9119
X16132Y8533
X16092Y7589
X16496Y7628
X16922Y7705
X17646Y7512
X18022Y7825
X18266Y7677
X18415Y6998
X18691Y7116
X17218Y7029
X16732Y6415
X20581Y8730
X21171Y8494
X21200Y9267
X21481Y9355
X21683Y9557
X22116Y9439
X21998Y8730
X21959Y8258
X22470Y8258
X22825Y7517
X23061Y7352
X24107Y8003
X24045Y8297
X23061Y9360
X21526Y10502
X21092Y10541
X21132Y11593
X21526Y11593
X20910Y11774
X20690Y11593
X20512Y11816
X20344Y12510
X19754Y12274
X19833Y11604
X19518Y11604
X19807Y10682
X19951Y10266
X20266Y10266
X20394Y14532
X19911Y15344
X19596Y15423
X18179Y16486
X17864Y16483
X17549Y16486
X17263Y16541
X17903Y18809
X18509Y18868
X18794Y18868
X18888Y21368
X19124Y21565
X19360Y21368
X19596Y21565
X19833Y21368
X20069Y21565
X20305Y21368
X20541Y21565
X20777Y21368
X21014Y21565
X21250Y21368
X21486Y21565
X21722Y21368
X21959Y21565
X22195Y21368
X22431Y21565
X22667Y21368
X22903Y21565
X23140Y21368
X23376Y21565
X23612Y21368
X23848Y21565
X24085Y21368
X24321Y21565
X24557Y21368
X24793Y21565
X25029Y21368
X25266Y21565
X25502Y21368
X25738Y21565
X25974Y21368
X26211Y21565
X26447Y21368
X26683Y21565
X26919Y21368
X27155Y21565
X27392Y21368
X27628Y21565
X27864Y21368
X28100Y21565
X28337Y21368
X28573Y21565
X28809Y21368
X29045Y21565
X29281Y21368
X29518Y21565
X29754Y21368
X29990Y21565
X30226Y21368
X30463Y21565
X30699Y21368
X30931Y21534
X30974Y20974
X31211Y19488
X30974Y19006
X30400Y18766
X30133Y18868
X29847Y18868
X29085Y18799
X28612Y18799
X28243Y18868
X27958Y18868
X27549Y18809
X27195Y18848
X27608Y18218
X27549Y17785
X27234Y17470
X27372Y17077
X26742Y17077
X26868Y17910
X28612Y17785
X28848Y18218
X30089Y18218
X30226Y17795
X29758Y17824
X30029Y17470
X30186Y17045
X29684Y17052
X29203Y17195
X29232Y16840
X29219Y16545
X29232Y16260
X29892Y16053
X30069Y15817
X30384Y16014
X30313Y15267
X31091Y15379
X30910Y15638
X31486Y15541
X31565Y14911
X31565Y14518
X31565Y14124
X31565Y13730
X31565Y13337
X31565Y12943
X31565Y12549
X31565Y12155
X31486Y8297
X31486Y7825
X31486Y7352
X30856Y6722
X30620Y6092
X29518Y6092
X28770Y6289
X28770Y6644
X28494Y6132
X27707Y6092
X27374Y6250
X26368Y6368
X24714Y6252
X23918Y6139
X25738Y15844
X25640Y16171
X28100Y16329
X28031Y16905
X28072Y17188
X30827Y16840
X31152Y17510
X31549Y17688
X31329Y18218
X31437Y16289
X29943Y14592
X29628Y14823
X18651Y21565
X18415Y21368
X18179Y21565
X17943Y21368
X17707Y21565
X17274Y21565
X17037Y21368
X16801Y21565
X16565Y21368
X16329Y21565
X16092Y21368
X16396Y20661
X16869Y20661
X15954Y20668
X15492Y20669
X15148Y20699
X15148Y20384
X15344Y20029
X15344Y19636
X15423Y19360
X15541Y19045
X15659Y18730
X15514Y18484
X15974Y18573
X15976Y17871
X15999Y17140
X15659Y17195
X15148Y17116
X15148Y16801
X15148Y16486
X15148Y16171
X15148Y15856
X15148Y15541
X15148Y15226
X15148Y14911
X15148Y14596
X15148Y14281
X15148Y13966
X15148Y13652
X15148Y13337
X15148Y13022
X15148Y12707
X15148Y12392
X15148Y12077
X15148Y11762
X15148Y11447
X15148Y11132
X15148Y10817
X15148Y10502
X15148Y10187
X15148Y9872
X15148Y9557
X15148Y9242
X15148Y8927
X15148Y8612
X15148Y8297
X15148Y7982
X15148Y7667
X15148Y7352
X15148Y7037
X15266Y6486
X15827Y10226
X16014Y11161
X15699Y11732
X15896Y12392
X15789Y12698
X15431Y14246
X15148Y17431
X15148Y17746
X15148Y18061
X15187Y21250
X15384Y21565
X15620Y21368
X15856Y21565
X15777Y6014
X15463Y6014
X15148Y6014
X16092Y6014
X16407Y6014
X16722Y6014
X17037Y6014
X17352Y6014
X17667Y6014
X17982Y6014
X18297Y6014
X18612Y6014
X18927Y6014
X19242Y6014
X19557Y6014
X19872Y6014
X20187Y6014
X20502Y6014
X20817Y6014
X21132Y6014
X21447Y6014
X21762Y6014
X22077Y6014
X24242Y6014
X24557Y6014
X24872Y6014
X25187Y6014
X29203Y6014
X31565Y6014
X27048Y926
X27392Y719
X27511Y1221
X27481Y2619
T02
X26152Y32284
X26152Y31891
X26152Y31497
X26152Y31103
X26152Y30710
X26152Y30316
X26152Y29922
X26220Y38189
X26220Y37795
X26220Y37402
X26220Y37008
X26220Y36614
X26220Y36220
X26220Y35827
X27795Y28900
X28031Y34449
X28268Y29055
X28386Y35005
X28671Y32284
X28671Y31891
X28671Y31497
X28671Y31103
X28671Y30710
X28671Y30316
X28691Y29954
X28740Y38189
X28740Y37795
X28740Y37402
X28740Y37008
X28740Y36614
X28740Y36220
X28740Y35827
X28740Y34449
X28858Y28900
X29528Y38151
X29528Y37757
X29528Y37363
X29528Y36969
X29528Y36576
X29528Y36182
X29528Y35788
X29557Y32245
X29557Y31851
X29557Y31458
X29557Y31064
X29557Y30670
X29557Y30277
X29557Y29883
X31299Y34449
X31299Y28583
X31693Y34882
X31715Y28939
X32047Y38151
X32047Y37757
X32047Y37363
X32047Y36969
X32047Y36576
X32047Y36182
X32047Y35788
X32077Y32245
X32077Y31851
X32077Y31458
X32077Y31064
X32077Y30670
X32077Y30277
X32077Y29883
X32087Y34449
X32126Y28583
T03
X9646Y34136
X9646Y32636
X10709Y34136
X10709Y32636
X11811Y34136
X11811Y32636
X12717Y34114
X12717Y32185
X13583Y34136
X13583Y32636
X14449Y34154
X14449Y32224
X15315Y34136
X15315Y32636
X16181Y34154
X16181Y32224
X17047Y34136
X17047Y32636
X17874Y34136
X17874Y32636
X18851Y34145
X18851Y32645
X19621Y34136
X19621Y32636
X20493Y34154
X20493Y32224
X21593Y34134
X21593Y32205
X22493Y34136
X22493Y32636
X23293Y34136
X23293Y32636
X24093Y34155
X24093Y32655
X27754Y40709
X27754Y39764
X27754Y38937
X29254Y40709
X29254Y39764
X29254Y38937
X25699Y15463
X24006Y15581
X22274Y15541
X20384Y15581
X19242Y15581
X18061Y15581
X17549Y15108
T04
X5207Y21919
X5384Y28022
X7667Y21919
X9360Y21919
X10108Y21919
X10128Y28022
X12077Y28022
X12628Y21919
X12805Y28022
X23780Y1890
X23780Y748
X24016Y24528
X24393Y28780
X26220Y24528
X10516Y2549
X12248Y2549
X5383Y28022
X10128Y28022
X10108Y21919
X9360Y21919
X7667Y21919
X5206Y21919
X12628Y21919
X12805Y28022
X12076Y28022
X31250Y6329
X28108Y7089
X28108Y6289
X26108Y6689
T05
X12106Y39606
X12106Y38031
X12106Y36456
X13681Y39606
X13681Y38031
X13681Y36456
X15059Y39606
X15059Y38031
X15059Y36456
X16437Y39606
X16437Y38031
X16437Y36456
X17815Y39606
X17815Y38031
X17815Y36456
X19193Y39606
X19193Y38031
X19193Y36456
X20571Y39606
X20571Y38031
X20571Y36456
X22146Y39606
X22146Y38031
X22146Y36456
T06
X30472Y2480
T07
X9291Y39409G85X9291Y38228
X24961Y39409G85X24961Y38228
M30
