G75*
G70*
%OFA0B0*%
%FSLAX25Y25*%
%IPPOS*%
%LPD*%
%AMOC8*
5,1,8,0,0,1.08239X$1,22.5*
%
%AMM134*
21,1,0.035830,0.026770,-0.000000,-0.000000,180.000000*
21,1,0.029130,0.033470,-0.000000,-0.000000,180.000000*
1,1,0.006690,-0.014570,0.013390*
1,1,0.006690,0.014570,0.013390*
1,1,0.006690,0.014570,-0.013390*
1,1,0.006690,-0.014570,-0.013390*
%
%AMM156*
21,1,0.033470,0.026770,-0.000000,-0.000000,90.000000*
21,1,0.026770,0.033470,-0.000000,-0.000000,90.000000*
1,1,0.006690,0.013390,0.013390*
1,1,0.006690,0.013390,-0.013390*
1,1,0.006690,-0.013390,-0.013390*
1,1,0.006690,-0.013390,0.013390*
%
%AMM170*
21,1,0.035830,0.026770,0.000000,-0.000000,270.000000*
21,1,0.029130,0.033470,0.000000,-0.000000,270.000000*
1,1,0.006690,-0.013390,-0.014570*
1,1,0.006690,-0.013390,0.014570*
1,1,0.006690,0.013390,0.014570*
1,1,0.006690,0.013390,-0.014570*
%
%AMM172*
21,1,0.070870,0.036220,0.000000,-0.000000,0.000000*
21,1,0.061810,0.045280,0.000000,-0.000000,0.000000*
1,1,0.009060,0.030910,-0.018110*
1,1,0.009060,-0.030910,-0.018110*
1,1,0.009060,-0.030910,0.018110*
1,1,0.009060,0.030910,0.018110*
%
%AMM175*
21,1,0.023620,0.018900,0.000000,-0.000000,0.000000*
21,1,0.018900,0.023620,0.000000,-0.000000,0.000000*
1,1,0.004720,0.009450,-0.009450*
1,1,0.004720,-0.009450,-0.009450*
1,1,0.004720,-0.009450,0.009450*
1,1,0.004720,0.009450,0.009450*
%
%AMM176*
21,1,0.019680,0.019680,0.000000,-0.000000,270.000000*
21,1,0.015750,0.023620,0.000000,-0.000000,270.000000*
1,1,0.003940,-0.009840,-0.007870*
1,1,0.003940,-0.009840,0.007870*
1,1,0.003940,0.009840,0.007870*
1,1,0.003940,0.009840,-0.007870*
%
%AMM177*
21,1,0.019680,0.019680,0.000000,-0.000000,180.000000*
21,1,0.015750,0.023620,0.000000,-0.000000,180.000000*
1,1,0.003940,-0.007870,0.009840*
1,1,0.003940,0.007870,0.009840*
1,1,0.003940,0.007870,-0.009840*
1,1,0.003940,-0.007870,-0.009840*
%
%AMM191*
21,1,0.106300,0.050390,0.000000,-0.000000,0.000000*
21,1,0.093700,0.062990,0.000000,-0.000000,0.000000*
1,1,0.012600,0.046850,-0.025200*
1,1,0.012600,-0.046850,-0.025200*
1,1,0.012600,-0.046850,0.025200*
1,1,0.012600,0.046850,0.025200*
%
%AMM192*
21,1,0.033470,0.026770,0.000000,-0.000000,180.000000*
21,1,0.026770,0.033470,0.000000,-0.000000,180.000000*
1,1,0.006690,-0.013390,0.013390*
1,1,0.006690,0.013390,0.013390*
1,1,0.006690,0.013390,-0.013390*
1,1,0.006690,-0.013390,-0.013390*
%
%AMM193*
21,1,0.023620,0.018900,0.000000,-0.000000,90.000000*
21,1,0.018900,0.023620,0.000000,-0.000000,90.000000*
1,1,0.004720,0.009450,0.009450*
1,1,0.004720,0.009450,-0.009450*
1,1,0.004720,-0.009450,-0.009450*
1,1,0.004720,-0.009450,0.009450*
%
%AMM194*
21,1,0.122050,0.075590,0.000000,-0.000000,90.000000*
21,1,0.103150,0.094490,0.000000,-0.000000,90.000000*
1,1,0.018900,0.037800,0.051580*
1,1,0.018900,0.037800,-0.051580*
1,1,0.018900,-0.037800,-0.051580*
1,1,0.018900,-0.037800,0.051580*
%
%AMM195*
21,1,0.118110,0.083460,0.000000,-0.000000,270.000000*
21,1,0.097240,0.104330,0.000000,-0.000000,270.000000*
1,1,0.020870,-0.041730,-0.048620*
1,1,0.020870,-0.041730,0.048620*
1,1,0.020870,0.041730,0.048620*
1,1,0.020870,0.041730,-0.048620*
%
%AMM258*
21,1,0.027560,0.018900,-0.000000,-0.000000,0.000000*
21,1,0.022840,0.023620,-0.000000,-0.000000,0.000000*
1,1,0.004720,0.011420,-0.009450*
1,1,0.004720,-0.011420,-0.009450*
1,1,0.004720,-0.011420,0.009450*
1,1,0.004720,0.011420,0.009450*
%
%AMM261*
21,1,0.025590,0.026380,-0.000000,-0.000000,270.000000*
21,1,0.020470,0.031500,-0.000000,-0.000000,270.000000*
1,1,0.005120,-0.013190,-0.010240*
1,1,0.005120,-0.013190,0.010240*
1,1,0.005120,0.013190,0.010240*
1,1,0.005120,0.013190,-0.010240*
%
%AMM262*
21,1,0.017720,0.027950,-0.000000,-0.000000,270.000000*
21,1,0.014170,0.031500,-0.000000,-0.000000,270.000000*
1,1,0.003540,-0.013980,-0.007090*
1,1,0.003540,-0.013980,0.007090*
1,1,0.003540,0.013980,0.007090*
1,1,0.003540,0.013980,-0.007090*
%
%AMM264*
21,1,0.012600,0.028980,-0.000000,-0.000000,270.000000*
21,1,0.010080,0.031500,-0.000000,-0.000000,270.000000*
1,1,0.002520,-0.014490,-0.005040*
1,1,0.002520,-0.014490,0.005040*
1,1,0.002520,0.014490,0.005040*
1,1,0.002520,0.014490,-0.005040*
%
%AMM267*
21,1,0.027560,0.018900,-0.000000,-0.000000,270.000000*
21,1,0.022840,0.023620,-0.000000,-0.000000,270.000000*
1,1,0.004720,-0.009450,-0.011420*
1,1,0.004720,-0.009450,0.011420*
1,1,0.004720,0.009450,0.011420*
1,1,0.004720,0.009450,-0.011420*
%
%AMM283*
21,1,0.059060,0.020470,-0.000000,-0.000000,270.000000*
21,1,0.053940,0.025590,-0.000000,-0.000000,270.000000*
1,1,0.005120,-0.010240,-0.026970*
1,1,0.005120,-0.010240,0.026970*
1,1,0.005120,0.010240,0.026970*
1,1,0.005120,0.010240,-0.026970*
%
%AMM284*
21,1,0.078740,0.045670,-0.000000,-0.000000,270.000000*
21,1,0.067320,0.057090,-0.000000,-0.000000,270.000000*
1,1,0.011420,-0.022840,-0.033660*
1,1,0.011420,-0.022840,0.033660*
1,1,0.011420,0.022840,0.033660*
1,1,0.011420,0.022840,-0.033660*
%
%AMM285*
21,1,0.025590,0.026380,-0.000000,-0.000000,180.000000*
21,1,0.020470,0.031500,-0.000000,-0.000000,180.000000*
1,1,0.005120,-0.010240,0.013190*
1,1,0.005120,0.010240,0.013190*
1,1,0.005120,0.010240,-0.013190*
1,1,0.005120,-0.010240,-0.013190*
%
%AMM286*
21,1,0.017720,0.027950,-0.000000,-0.000000,180.000000*
21,1,0.014170,0.031500,-0.000000,-0.000000,180.000000*
1,1,0.003540,-0.007090,0.013980*
1,1,0.003540,0.007090,0.013980*
1,1,0.003540,0.007090,-0.013980*
1,1,0.003540,-0.007090,-0.013980*
%
%AMM287*
21,1,0.035430,0.030320,-0.000000,-0.000000,90.000000*
21,1,0.028350,0.037400,-0.000000,-0.000000,90.000000*
1,1,0.007090,0.015160,0.014170*
1,1,0.007090,0.015160,-0.014170*
1,1,0.007090,-0.015160,-0.014170*
1,1,0.007090,-0.015160,0.014170*
%
%AMM288*
21,1,0.027560,0.030710,-0.000000,-0.000000,270.000000*
21,1,0.022050,0.036220,-0.000000,-0.000000,270.000000*
1,1,0.005510,-0.015350,-0.011020*
1,1,0.005510,-0.015350,0.011020*
1,1,0.005510,0.015350,0.011020*
1,1,0.005510,0.015350,-0.011020*
%
%AMM289*
21,1,0.027560,0.049610,-0.000000,-0.000000,90.000000*
21,1,0.022050,0.055120,-0.000000,-0.000000,90.000000*
1,1,0.005510,0.024800,0.011020*
1,1,0.005510,0.024800,-0.011020*
1,1,0.005510,-0.024800,-0.011020*
1,1,0.005510,-0.024800,0.011020*
%
%AMM290*
21,1,0.027560,0.030710,-0.000000,-0.000000,180.000000*
21,1,0.022050,0.036220,-0.000000,-0.000000,180.000000*
1,1,0.005510,-0.011020,0.015350*
1,1,0.005510,0.011020,0.015350*
1,1,0.005510,0.011020,-0.015350*
1,1,0.005510,-0.011020,-0.015350*
%
%AMM291*
21,1,0.070870,0.036220,-0.000000,-0.000000,180.000000*
21,1,0.061810,0.045280,-0.000000,-0.000000,180.000000*
1,1,0.009060,-0.030910,0.018110*
1,1,0.009060,0.030910,0.018110*
1,1,0.009060,0.030910,-0.018110*
1,1,0.009060,-0.030910,-0.018110*
%
%AMM292*
21,1,0.035430,0.030320,-0.000000,-0.000000,180.000000*
21,1,0.028350,0.037400,-0.000000,-0.000000,180.000000*
1,1,0.007090,-0.014170,0.015160*
1,1,0.007090,0.014170,0.015160*
1,1,0.007090,0.014170,-0.015160*
1,1,0.007090,-0.014170,-0.015160*
%
%ADD135R,0.00984X0.01378*%
%ADD197R,0.09449X0.06693*%
%ADD205O,0.04961X0.00984*%
%ADD263O,0.08661X0.01968*%
%ADD277M134*%
%ADD299M156*%
%ADD313M170*%
%ADD315M172*%
%ADD318M175*%
%ADD319M176*%
%ADD320M177*%
%ADD334M191*%
%ADD335M192*%
%ADD336M193*%
%ADD337M194*%
%ADD338M195*%
%ADD37R,0.01378X0.00984*%
%ADD419M258*%
%ADD422M261*%
%ADD423M262*%
%ADD425M264*%
%ADD428M267*%
%ADD444M283*%
%ADD445M284*%
%ADD446M285*%
%ADD447M286*%
%ADD448M287*%
%ADD449M288*%
%ADD450M289*%
%ADD451M290*%
%ADD452M291*%
%ADD453M292*%
X0000000Y0000000D02*
%LPD*%
G01*
G36*
G01*
X0025197Y0214222D02*
X0026378Y0214222D01*
G75*
G02*
X0026969Y0213632I0000000J-000591D01*
G01*
X0026969Y0209006D01*
G75*
G02*
X0026378Y0208415I-000591J0000000D01*
G01*
X0025197Y0208415D01*
G75*
G02*
X0024606Y0209006I0000000J0000591D01*
G01*
X0024606Y0213632D01*
G75*
G02*
X0025197Y0214222I0000591J0000000D01*
G01*
G37*
G36*
G01*
X0032677Y0214222D02*
X0033858Y0214222D01*
G75*
G02*
X0034449Y0213632I0000000J-000591D01*
G01*
X0034449Y0209006D01*
G75*
G02*
X0033858Y0208415I-000591J0000000D01*
G01*
X0032677Y0208415D01*
G75*
G02*
X0032087Y0209006I0000000J0000591D01*
G01*
X0032087Y0213632D01*
G75*
G02*
X0032677Y0214222I0000591J0000000D01*
G01*
G37*
G36*
G01*
X0028937Y0206841D02*
X0030118Y0206841D01*
G75*
G02*
X0030709Y0206250I0000000J-000591D01*
G01*
X0030709Y0201624D01*
G75*
G02*
X0030118Y0201033I-000591J0000000D01*
G01*
X0028937Y0201033D01*
G75*
G02*
X0028346Y0201624I0000000J0000591D01*
G01*
X0028346Y0206250D01*
G75*
G02*
X0028937Y0206841I0000591J0000000D01*
G01*
G37*
G36*
G01*
X0025197Y0229970D02*
X0026378Y0229970D01*
G75*
G02*
X0026969Y0229380I0000000J-000591D01*
G01*
X0026969Y0224754D01*
G75*
G02*
X0026378Y0224163I-000591J0000000D01*
G01*
X0025197Y0224163D01*
G75*
G02*
X0024606Y0224754I0000000J0000591D01*
G01*
X0024606Y0229380D01*
G75*
G02*
X0025197Y0229970I0000591J0000000D01*
G01*
G37*
G36*
G01*
X0032677Y0229970D02*
X0033858Y0229970D01*
G75*
G02*
X0034449Y0229380I0000000J-000591D01*
G01*
X0034449Y0224754D01*
G75*
G02*
X0033858Y0224163I-000591J0000000D01*
G01*
X0032677Y0224163D01*
G75*
G02*
X0032087Y0224754I0000000J0000591D01*
G01*
X0032087Y0229380D01*
G75*
G02*
X0032677Y0229970I0000591J0000000D01*
G01*
G37*
G36*
G01*
X0028937Y0222589D02*
X0030118Y0222589D01*
G75*
G02*
X0030709Y0221998I0000000J-000591D01*
G01*
X0030709Y0217372D01*
G75*
G02*
X0030118Y0216781I-000591J0000000D01*
G01*
X0028937Y0216781D01*
G75*
G02*
X0028346Y0217372I0000000J0000591D01*
G01*
X0028346Y0221998D01*
G75*
G02*
X0028937Y0222589I0000591J0000000D01*
G01*
G37*
X0049114Y0283169D02*
G01*
G75*
D313*
X0125492Y0253254D02*
D03*
X0125492Y0266246D02*
D03*
D315*
X0125886Y0233394D02*
D03*
X0125886Y0244811D02*
D03*
X0117854Y0233394D02*
D03*
X0117854Y0244811D02*
D03*
D318*
X0103838Y0270767D02*
D03*
X0107775Y0270767D02*
D03*
X0118405Y0274114D02*
D03*
X0118405Y0265452D02*
D03*
X0113157Y0274901D02*
D03*
X0113157Y0266240D02*
D03*
D319*
X0060531Y0263014D02*
D03*
X0060531Y0266558D02*
D03*
X0097264Y0253623D02*
D03*
X0097264Y0250079D02*
D03*
X0112369Y0261620D02*
D03*
X0112369Y0258077D02*
D03*
X0060531Y0254396D02*
D03*
X0060531Y0257939D02*
D03*
X0064468Y0274901D02*
D03*
X0064468Y0271358D02*
D03*
D320*
X0113944Y0249416D02*
D03*
X0117488Y0249416D02*
D03*
X0126346Y0270183D02*
D03*
X0122802Y0270183D02*
D03*
X0068029Y0221419D02*
D03*
X0071573Y0221419D02*
D03*
D334*
X0105413Y0233956D02*
D03*
X0105413Y0244980D02*
D03*
D335*
X0101090Y0266634D02*
D03*
X0107310Y0266634D02*
D03*
X0101090Y0252540D02*
D03*
X0107310Y0252540D02*
D03*
X0101090Y0257231D02*
D03*
X0107310Y0257231D02*
D03*
X0101090Y0261923D02*
D03*
X0107310Y0261923D02*
D03*
X0113334Y0253721D02*
D03*
X0119555Y0253721D02*
D03*
D336*
X0064468Y0263211D02*
D03*
X0064468Y0267148D02*
D03*
X0064468Y0258530D02*
D03*
X0064468Y0254593D02*
D03*
X0118405Y0261817D02*
D03*
X0118405Y0257880D02*
D03*
X0096791Y0238884D02*
D03*
X0096791Y0234947D02*
D03*
X0059350Y0231108D02*
D03*
X0059350Y0235046D02*
D03*
D263*
X0071228Y0258097D02*
D03*
X0071228Y0263097D02*
D03*
X0071228Y0268097D02*
D03*
X0071228Y0273097D02*
D03*
X0093865Y0258097D02*
D03*
X0093865Y0263097D02*
D03*
X0093865Y0268097D02*
D03*
X0093865Y0273097D02*
D03*
X0065945Y0235030D02*
D03*
X0065945Y0240030D02*
D03*
X0065945Y0245030D02*
D03*
X0065945Y0250030D02*
D03*
X0089370Y0235030D02*
D03*
X0089370Y0240030D02*
D03*
X0089370Y0245030D02*
D03*
X0089370Y0250030D02*
D03*
D337*
X0082546Y0265597D02*
D03*
D338*
X0077657Y0242530D02*
D03*
X0316831Y0216831D02*
G01*
G75*
D419*
X0311332Y0163952D02*
D03*
X0311332Y0160015D02*
D03*
X0284548Y0091634D02*
D03*
X0284548Y0095571D02*
D03*
X0293603Y0090847D02*
D03*
X0293603Y0094784D02*
D03*
X0182185Y0147540D02*
D03*
X0182185Y0151477D02*
D03*
X0244488Y0149410D02*
D03*
X0244488Y0145473D02*
D03*
X0255807Y0082973D02*
D03*
X0255807Y0079036D02*
D03*
X0224803Y0149410D02*
D03*
X0224803Y0145473D02*
D03*
X0236615Y0068110D02*
D03*
X0236615Y0064174D02*
D03*
X0183760Y0135729D02*
D03*
X0183760Y0139666D02*
D03*
X0179823Y0135729D02*
D03*
X0179823Y0139666D02*
D03*
X0280217Y0082185D02*
D03*
X0280217Y0078248D02*
D03*
X0172146Y0120374D02*
D03*
X0172146Y0124311D02*
D03*
X0173130Y0097933D02*
D03*
X0173130Y0101870D02*
D03*
X0218898Y0149410D02*
D03*
X0218898Y0145473D02*
D03*
X0217618Y0062894D02*
D03*
X0217618Y0066831D02*
D03*
X0255807Y0112500D02*
D03*
X0255807Y0108563D02*
D03*
X0255807Y0116044D02*
D03*
X0255807Y0119981D02*
D03*
X0269193Y0192422D02*
D03*
X0269193Y0196359D02*
D03*
X0264469Y0192422D02*
D03*
X0264469Y0196359D02*
D03*
X0259744Y0192422D02*
D03*
X0259744Y0196359D02*
D03*
X0255020Y0192422D02*
D03*
X0255020Y0196359D02*
D03*
X0170374Y0211713D02*
D03*
X0170374Y0207776D02*
D03*
X0165650Y0207776D02*
D03*
X0165650Y0211713D02*
D03*
X0160926Y0211713D02*
D03*
X0160926Y0207776D02*
D03*
X0156201Y0211713D02*
D03*
X0156201Y0207776D02*
D03*
X0289075Y0164863D02*
D03*
X0289075Y0160926D02*
D03*
X0261122Y0164863D02*
D03*
X0261122Y0160926D02*
D03*
X0292815Y0192422D02*
D03*
X0292815Y0196359D02*
D03*
X0297539Y0192422D02*
D03*
X0297539Y0196359D02*
D03*
X0302264Y0192422D02*
D03*
X0302264Y0196359D02*
D03*
X0306988Y0192422D02*
D03*
X0306988Y0196359D02*
D03*
X0273917Y0192422D02*
D03*
X0273917Y0196359D02*
D03*
X0278642Y0192422D02*
D03*
X0278642Y0196359D02*
D03*
X0283366Y0192422D02*
D03*
X0283366Y0196359D02*
D03*
X0288091Y0192422D02*
D03*
X0288091Y0196359D02*
D03*
X0236122Y0192422D02*
D03*
X0236122Y0196359D02*
D03*
X0240846Y0192422D02*
D03*
X0240846Y0196359D02*
D03*
X0245571Y0192422D02*
D03*
X0245571Y0196359D02*
D03*
X0250295Y0192422D02*
D03*
X0250295Y0196359D02*
D03*
X0217224Y0196359D02*
D03*
X0217224Y0192422D02*
D03*
X0221949Y0192422D02*
D03*
X0221949Y0196359D02*
D03*
X0226673Y0192422D02*
D03*
X0226673Y0196359D02*
D03*
X0231398Y0192422D02*
D03*
X0231398Y0196359D02*
D03*
X0198327Y0192422D02*
D03*
X0198327Y0196359D02*
D03*
X0203051Y0192422D02*
D03*
X0203051Y0196359D02*
D03*
X0207776Y0192422D02*
D03*
X0207776Y0196359D02*
D03*
X0212500Y0192422D02*
D03*
X0212500Y0196359D02*
D03*
X0184154Y0192422D02*
D03*
X0184154Y0196359D02*
D03*
X0188878Y0192422D02*
D03*
X0188878Y0196359D02*
D03*
X0193603Y0192422D02*
D03*
X0193603Y0196359D02*
D03*
X0312107Y0201674D02*
D03*
X0312107Y0197737D02*
D03*
X0175098Y0207776D02*
D03*
X0175098Y0211713D02*
D03*
X0261122Y0175099D02*
D03*
X0261122Y0171162D02*
D03*
X0173524Y0196359D02*
D03*
X0173524Y0192422D02*
D03*
X0312107Y0209351D02*
D03*
X0312107Y0205414D02*
D03*
X0173524Y0200296D02*
D03*
X0173524Y0204233D02*
D03*
X0168406Y0069981D02*
D03*
X0168406Y0073918D02*
D03*
X0179429Y0192422D02*
D03*
X0179429Y0196359D02*
D03*
D422*
X0279429Y0100000D02*
D03*
X0272343Y0100000D02*
D03*
X0272343Y0110040D02*
D03*
X0279429Y0110040D02*
D03*
X0264862Y0148229D02*
D03*
X0271949Y0148229D02*
D03*
X0271949Y0138189D02*
D03*
X0264862Y0138189D02*
D03*
X0264862Y0132087D02*
D03*
X0271949Y0132087D02*
D03*
X0271949Y0122047D02*
D03*
X0264862Y0122047D02*
D03*
X0169390Y0167914D02*
D03*
X0176477Y0167914D02*
D03*
X0176477Y0177953D02*
D03*
X0169390Y0177953D02*
D03*
X0187894Y0177953D02*
D03*
X0180807Y0177953D02*
D03*
X0180807Y0167914D02*
D03*
X0187894Y0167914D02*
D03*
X0237894Y0167914D02*
D03*
X0244980Y0167914D02*
D03*
X0244980Y0177953D02*
D03*
X0237894Y0177953D02*
D03*
X0256398Y0177953D02*
D03*
X0249311Y0177953D02*
D03*
X0249311Y0167914D02*
D03*
X0256398Y0167914D02*
D03*
X0215059Y0167914D02*
D03*
X0222146Y0167914D02*
D03*
X0222146Y0177953D02*
D03*
X0215059Y0177953D02*
D03*
X0233563Y0177953D02*
D03*
X0226476Y0177953D02*
D03*
X0226476Y0167914D02*
D03*
X0233563Y0167914D02*
D03*
X0192224Y0167914D02*
D03*
X0199311Y0167914D02*
D03*
X0199311Y0177953D02*
D03*
X0192224Y0177953D02*
D03*
X0210728Y0177953D02*
D03*
X0203642Y0177953D02*
D03*
X0203642Y0167914D02*
D03*
X0210728Y0167914D02*
D03*
D423*
X0272343Y0106595D02*
D03*
X0272343Y0103445D02*
D03*
X0279429Y0103445D02*
D03*
X0279429Y0106595D02*
D03*
X0271949Y0141634D02*
D03*
X0271949Y0144784D02*
D03*
X0264862Y0144784D02*
D03*
X0264862Y0141634D02*
D03*
X0271949Y0125492D02*
D03*
X0271949Y0128642D02*
D03*
X0264862Y0128642D02*
D03*
X0264862Y0125492D02*
D03*
X0169390Y0171359D02*
D03*
X0169390Y0174508D02*
D03*
X0176477Y0174508D02*
D03*
X0176477Y0171359D02*
D03*
X0187894Y0174508D02*
D03*
X0187894Y0171359D02*
D03*
X0180807Y0171359D02*
D03*
X0180807Y0174508D02*
D03*
X0237894Y0171359D02*
D03*
X0237894Y0174508D02*
D03*
X0244980Y0174508D02*
D03*
X0244980Y0171359D02*
D03*
X0256398Y0174508D02*
D03*
X0256398Y0171359D02*
D03*
X0249311Y0171359D02*
D03*
X0249311Y0174508D02*
D03*
X0215059Y0171359D02*
D03*
X0215059Y0174508D02*
D03*
X0222146Y0174508D02*
D03*
X0222146Y0171359D02*
D03*
X0233563Y0174508D02*
D03*
X0233563Y0171359D02*
D03*
X0226476Y0171359D02*
D03*
X0226476Y0174508D02*
D03*
X0192224Y0171359D02*
D03*
X0192224Y0174508D02*
D03*
X0199311Y0174508D02*
D03*
X0199311Y0171359D02*
D03*
X0210728Y0174508D02*
D03*
X0210728Y0171359D02*
D03*
X0203642Y0171359D02*
D03*
X0203642Y0174508D02*
D03*
D425*
X0291437Y0106004D02*
D03*
X0291437Y0103445D02*
D03*
X0291437Y0100886D02*
D03*
X0283957Y0100886D02*
D03*
X0283957Y0106004D02*
D03*
D428*
X0275492Y0092028D02*
D03*
X0279429Y0092028D02*
D03*
X0175492Y0146752D02*
D03*
X0171555Y0146752D02*
D03*
X0312500Y0073524D02*
D03*
X0308563Y0073524D02*
D03*
X0244784Y0064862D02*
D03*
X0240847Y0064862D02*
D03*
X0176083Y0077067D02*
D03*
X0172146Y0077067D02*
D03*
X0203445Y0066044D02*
D03*
X0199508Y0066044D02*
D03*
X0290847Y0065945D02*
D03*
X0294784Y0065945D02*
D03*
X0290847Y0070374D02*
D03*
X0294784Y0070374D02*
D03*
X0255807Y0131792D02*
D03*
X0251870Y0131792D02*
D03*
X0247146Y0131792D02*
D03*
X0243209Y0131792D02*
D03*
X0247146Y0103445D02*
D03*
X0243209Y0103445D02*
D03*
X0312500Y0082973D02*
D03*
X0308563Y0082973D02*
D03*
X0267815Y0064272D02*
D03*
X0271752Y0064272D02*
D03*
X0312500Y0078248D02*
D03*
X0308563Y0078248D02*
D03*
X0255807Y0139666D02*
D03*
X0259744Y0139666D02*
D03*
X0172736Y0140453D02*
D03*
X0168799Y0140453D02*
D03*
X0172736Y0136516D02*
D03*
X0168799Y0136516D02*
D03*
X0172146Y0073130D02*
D03*
X0176083Y0073130D02*
D03*
X0199213Y0149410D02*
D03*
X0203150Y0149410D02*
D03*
X0255807Y0103052D02*
D03*
X0251870Y0103052D02*
D03*
X0255807Y0135729D02*
D03*
X0251870Y0135729D02*
D03*
X0247540Y0080217D02*
D03*
X0243603Y0080217D02*
D03*
X0247540Y0095571D02*
D03*
X0243603Y0095571D02*
D03*
X0233465Y0149410D02*
D03*
X0229528Y0149410D02*
D03*
X0262796Y0099016D02*
D03*
X0258859Y0099016D02*
D03*
X0179232Y0161713D02*
D03*
X0183169Y0161713D02*
D03*
X0247736Y0161713D02*
D03*
X0251673Y0161713D02*
D03*
X0224902Y0161713D02*
D03*
X0228839Y0161713D02*
D03*
X0202067Y0161713D02*
D03*
X0206004Y0161713D02*
D03*
X0241240Y0185729D02*
D03*
X0245177Y0185729D02*
D03*
X0296292Y0182185D02*
D03*
X0292355Y0182185D02*
D03*
X0305481Y0182185D02*
D03*
X0309418Y0182185D02*
D03*
X0271488Y0182185D02*
D03*
X0267551Y0182185D02*
D03*
X0280677Y0182185D02*
D03*
X0284614Y0182185D02*
D03*
X0308957Y0100296D02*
D03*
X0312894Y0100296D02*
D03*
X0303051Y0100296D02*
D03*
X0299114Y0100296D02*
D03*
X0266043Y0188485D02*
D03*
X0269980Y0188485D02*
D03*
X0312894Y0150689D02*
D03*
X0308957Y0150689D02*
D03*
X0312894Y0138288D02*
D03*
X0308957Y0138288D02*
D03*
X0312894Y0134154D02*
D03*
X0308957Y0134154D02*
D03*
X0312894Y0125886D02*
D03*
X0308957Y0125886D02*
D03*
X0312894Y0130020D02*
D03*
X0308957Y0130020D02*
D03*
X0312894Y0121752D02*
D03*
X0308957Y0121752D02*
D03*
X0312894Y0142421D02*
D03*
X0308957Y0142421D02*
D03*
X0312894Y0146555D02*
D03*
X0308957Y0146555D02*
D03*
D444*
X0219705Y0111307D02*
D03*
X0215374Y0111307D02*
D03*
X0211043Y0111307D02*
D03*
X0206713Y0111307D02*
D03*
X0202382Y0111307D02*
D03*
X0198051Y0111307D02*
D03*
X0193720Y0111307D02*
D03*
X0189390Y0111307D02*
D03*
D445*
X0180020Y0121543D02*
D03*
X0180020Y0088866D02*
D03*
X0234153Y0088866D02*
D03*
X0234153Y0121543D02*
D03*
D277*
X0275099Y0082973D02*
D03*
X0262106Y0082973D02*
D03*
X0299508Y0090847D02*
D03*
X0312500Y0090847D02*
D03*
D197*
X0244783Y0110335D02*
D03*
X0244783Y0124902D02*
D03*
D446*
X0198228Y0134154D02*
D03*
X0198228Y0141240D02*
D03*
X0188189Y0141240D02*
D03*
X0188189Y0134154D02*
D03*
X0267126Y0209154D02*
D03*
X0267126Y0202067D02*
D03*
X0257087Y0202067D02*
D03*
X0257087Y0209154D02*
D03*
X0295276Y0174705D02*
D03*
X0295276Y0167618D02*
D03*
X0305315Y0167618D02*
D03*
X0305315Y0174705D02*
D03*
X0305315Y0156201D02*
D03*
X0305315Y0163288D02*
D03*
X0295276Y0163288D02*
D03*
X0295276Y0156201D02*
D03*
X0267323Y0174705D02*
D03*
X0267323Y0167618D02*
D03*
X0277362Y0167618D02*
D03*
X0277362Y0174705D02*
D03*
X0277362Y0156201D02*
D03*
X0277362Y0163288D02*
D03*
X0267323Y0163288D02*
D03*
X0267323Y0156201D02*
D03*
X0304921Y0209154D02*
D03*
X0304921Y0202067D02*
D03*
X0294882Y0202067D02*
D03*
X0294882Y0209154D02*
D03*
X0286024Y0209154D02*
D03*
X0286024Y0202067D02*
D03*
X0275985Y0202067D02*
D03*
X0275985Y0209154D02*
D03*
X0248229Y0209154D02*
D03*
X0248229Y0202067D02*
D03*
X0238189Y0202067D02*
D03*
X0238189Y0209154D02*
D03*
X0229331Y0209154D02*
D03*
X0229331Y0202067D02*
D03*
X0219291Y0202067D02*
D03*
X0219291Y0209154D02*
D03*
X0210433Y0209154D02*
D03*
X0210433Y0202067D02*
D03*
X0200394Y0202067D02*
D03*
X0200394Y0209154D02*
D03*
X0191536Y0209154D02*
D03*
X0191536Y0202067D02*
D03*
X0181496Y0202067D02*
D03*
X0181496Y0209154D02*
D03*
X0158268Y0203445D02*
D03*
X0158268Y0196359D02*
D03*
X0168307Y0196359D02*
D03*
X0168307Y0203445D02*
D03*
D447*
X0194784Y0134154D02*
D03*
X0191634Y0134154D02*
D03*
X0191634Y0141240D02*
D03*
X0194784Y0141240D02*
D03*
X0260532Y0202067D02*
D03*
X0263681Y0202067D02*
D03*
X0263681Y0209154D02*
D03*
X0260532Y0209154D02*
D03*
X0298721Y0174705D02*
D03*
X0301870Y0174705D02*
D03*
X0301870Y0167618D02*
D03*
X0298721Y0167618D02*
D03*
X0301870Y0156201D02*
D03*
X0298721Y0156201D02*
D03*
X0298721Y0163288D02*
D03*
X0301870Y0163288D02*
D03*
X0270768Y0174705D02*
D03*
X0273918Y0174705D02*
D03*
X0273918Y0167618D02*
D03*
X0270768Y0167618D02*
D03*
X0273917Y0156201D02*
D03*
X0270768Y0156201D02*
D03*
X0270768Y0163288D02*
D03*
X0273917Y0163288D02*
D03*
X0298327Y0202067D02*
D03*
X0301476Y0202067D02*
D03*
X0301476Y0209154D02*
D03*
X0298327Y0209154D02*
D03*
X0279429Y0202067D02*
D03*
X0282579Y0202067D02*
D03*
X0282579Y0209154D02*
D03*
X0279429Y0209154D02*
D03*
X0241634Y0202067D02*
D03*
X0244784Y0202067D02*
D03*
X0244784Y0209154D02*
D03*
X0241634Y0209154D02*
D03*
X0222736Y0202067D02*
D03*
X0225886Y0202067D02*
D03*
X0225886Y0209154D02*
D03*
X0222736Y0209154D02*
D03*
X0203839Y0202067D02*
D03*
X0206988Y0202067D02*
D03*
X0206988Y0209154D02*
D03*
X0203839Y0209154D02*
D03*
X0184941Y0202067D02*
D03*
X0188091Y0202067D02*
D03*
X0188091Y0209154D02*
D03*
X0184941Y0209154D02*
D03*
X0161713Y0203445D02*
D03*
X0164862Y0203445D02*
D03*
X0164862Y0196359D02*
D03*
X0161713Y0196359D02*
D03*
D448*
X0285807Y0076477D02*
D03*
X0295059Y0080217D02*
D03*
X0305216Y0115589D02*
D03*
X0295964Y0111849D02*
D03*
D448*
X0285807Y0083957D02*
D03*
X0305216Y0108108D02*
D03*
D449*
X0173130Y0106595D02*
D03*
X0173130Y0112894D02*
D03*
X0226772Y0070866D02*
D03*
X0226772Y0064567D02*
D03*
X0312106Y0104626D02*
D03*
X0312106Y0110926D02*
D03*
X0166044Y0107776D02*
D03*
X0166044Y0114075D02*
D03*
D450*
X0247540Y0085138D02*
D03*
X0247540Y0091044D02*
D03*
D451*
X0256594Y0090059D02*
D03*
X0262894Y0090059D02*
D03*
X0256594Y0094685D02*
D03*
X0262894Y0094685D02*
D03*
D452*
X0301870Y0072343D02*
D03*
X0301870Y0083760D02*
D03*
D299*
X0166043Y0125807D02*
D03*
X0166043Y0119587D02*
D03*
X0238484Y0096004D02*
D03*
X0238484Y0102225D02*
D03*
D205*
X0303209Y0149705D02*
D03*
X0303209Y0147146D02*
D03*
X0303209Y0144587D02*
D03*
X0303209Y0142028D02*
D03*
X0303209Y0139469D02*
D03*
X0303209Y0136910D02*
D03*
X0303209Y0134351D02*
D03*
X0303209Y0131792D02*
D03*
X0303209Y0129233D02*
D03*
X0303209Y0126673D02*
D03*
X0303209Y0124115D02*
D03*
X0303209Y0121555D02*
D03*
X0280216Y0149705D02*
D03*
X0280216Y0147146D02*
D03*
X0280216Y0144587D02*
D03*
X0280216Y0142028D02*
D03*
X0280216Y0139469D02*
D03*
X0280216Y0136910D02*
D03*
X0280216Y0134351D02*
D03*
X0280216Y0131792D02*
D03*
X0280216Y0129233D02*
D03*
X0280216Y0126673D02*
D03*
X0280216Y0124115D02*
D03*
X0280216Y0121555D02*
D03*
D453*
X0163878Y0180807D02*
D03*
X0160138Y0190059D02*
D03*
X0160138Y0175164D02*
D03*
X0163878Y0165912D02*
D03*
X0163878Y0151017D02*
D03*
X0160138Y0160269D02*
D03*
X0164665Y0136122D02*
D03*
X0160925Y0145374D02*
D03*
D453*
X0156398Y0180807D02*
D03*
X0156398Y0165912D02*
D03*
X0156398Y0151017D02*
D03*
X0157185Y0136122D02*
D03*
D135*
X0159941Y0073524D02*
D03*
X0161909Y0073524D02*
D03*
X0161909Y0067225D02*
D03*
X0159941Y0067225D02*
D03*
D37*
X0164075Y0073327D02*
D03*
X0164075Y0071358D02*
D03*
X0164075Y0069390D02*
D03*
X0164075Y0067422D02*
D03*
X0157775Y0073327D02*
D03*
X0157775Y0067422D02*
D03*
X0157775Y0071358D02*
D03*
X0157775Y0069390D02*
D03*
M02*
