G75*
G70*
%OFA0B0*%
%FSLAX25Y25*%
%IPPOS*%
%LPD*%
%AMOC8*
5,1,8,0,0,1.08239X$1,22.5*
%
%ADD123C,0.00390*%
%ADD138C,0.00472*%
%ADD146C,0.00500*%
%ADD182C,0.00591*%
%ADD189C,0.00984*%
%ADD200C,0.01000*%
%ADD236C,0.00787*%
%ADD33C,0.00512*%
%ADD49C,0.00010*%
%ADD77C,0.00669*%
X0000000Y0000000D02*
%LPD*%
G01*
D189*
X0015551Y0108718D02*
X0015326Y0109168D01*
X0015326Y0109843D01*
X0015551Y0110517D01*
X0016001Y0110967D01*
X0016451Y0111192D01*
X0017351Y0111417D01*
X0018026Y0111417D01*
X0018926Y0111192D01*
X0019376Y0110967D01*
X0019826Y0110517D01*
X0020051Y0109843D01*
X0020051Y0109393D01*
X0019826Y0108718D01*
X0019601Y0108493D01*
X0018026Y0108493D01*
X0018026Y0109393D01*
X0020051Y0106468D02*
X0015326Y0106468D01*
X0020051Y0103768D01*
X0015326Y0103768D01*
X0020051Y0101519D02*
X0015326Y0101519D01*
X0015326Y0100394D01*
X0015551Y0099719D01*
X0016001Y0099269D01*
X0016451Y0099044D01*
X0017351Y0098819D01*
X0018026Y0098819D01*
X0018926Y0099044D01*
X0019376Y0099269D01*
X0019826Y0099719D01*
X0020051Y0100394D01*
X0020051Y0101519D01*
D77*
X0211787Y0355756D02*
X0211787Y0358905D01*
X0208637Y0358755D02*
X0208937Y0358905D01*
X0209387Y0358905D01*
X0209837Y0358755D01*
X0210137Y0358456D01*
X0210287Y0358156D01*
X0210437Y0357556D01*
X0210437Y0357106D01*
X0210287Y0356506D01*
X0210137Y0356206D01*
X0209837Y0355906D01*
X0209387Y0355756D01*
X0209087Y0355756D01*
X0208637Y0355906D01*
X0208487Y0356056D01*
X0208487Y0357106D01*
X0209087Y0357106D01*
X0207137Y0355756D02*
X0207137Y0358905D01*
X0205337Y0355756D01*
X0205337Y0358905D01*
X0202788Y0357406D02*
X0202338Y0357256D01*
X0202188Y0357106D01*
X0202038Y0356806D01*
X0202038Y0356356D01*
X0202188Y0356056D01*
X0202338Y0355906D01*
X0202638Y0355756D01*
X0203838Y0355756D01*
X0203838Y0358905D01*
X0202788Y0358905D01*
X0202488Y0358755D01*
X0202338Y0358605D01*
X0202188Y0358306D01*
X0202188Y0358006D01*
X0202338Y0357706D01*
X0202488Y0357556D01*
X0202788Y0357406D01*
X0203838Y0357406D01*
X0149387Y0387281D02*
X0149537Y0387131D01*
X0149987Y0386981D01*
X0150287Y0386981D01*
X0150737Y0387131D01*
X0151037Y0387431D01*
X0151187Y0387731D01*
X0151337Y0388331D01*
X0151337Y0388781D01*
X0151187Y0389381D01*
X0151037Y0389681D01*
X0150737Y0389981D01*
X0150287Y0390131D01*
X0149987Y0390131D01*
X0149537Y0389981D01*
X0149387Y0389831D01*
X0146237Y0386981D02*
X0147287Y0388481D01*
X0148037Y0386981D02*
X0148037Y0390131D01*
X0146837Y0390131D01*
X0146537Y0389981D01*
X0146387Y0389831D01*
X0146237Y0389531D01*
X0146237Y0389081D01*
X0146387Y0388781D01*
X0146537Y0388631D01*
X0146837Y0388481D01*
X0148037Y0388481D01*
X0145037Y0387881D02*
X0143538Y0387881D01*
X0145337Y0386981D02*
X0144287Y0390131D01*
X0143238Y0386981D01*
X0142188Y0386981D02*
X0142188Y0390131D01*
X0140388Y0386981D01*
X0140388Y0390131D01*
X0138888Y0386981D02*
X0138888Y0390131D01*
X0137088Y0386981D02*
X0138438Y0388781D01*
X0137088Y0390131D02*
X0138888Y0388331D01*
X0225547Y0387118D02*
X0225547Y0390268D01*
X0224048Y0387118D02*
X0224048Y0390268D01*
X0223298Y0390268D01*
X0222848Y0390118D01*
X0222548Y0389818D01*
X0222398Y0389518D01*
X0222248Y0388918D01*
X0222248Y0388468D01*
X0222398Y0387868D01*
X0222548Y0387568D01*
X0222848Y0387268D01*
X0223298Y0387118D01*
X0224048Y0387118D01*
X0219398Y0387118D02*
X0220898Y0387118D01*
X0220898Y0390268D01*
X0218348Y0388768D02*
X0217298Y0388768D01*
X0216848Y0387118D02*
X0218348Y0387118D01*
X0218348Y0390268D01*
X0216848Y0390268D01*
D236*
X0079687Y0102193D02*
X0078937Y0099044D01*
X0078187Y0101294D01*
X0077437Y0099044D01*
X0076687Y0102193D01*
X0075562Y0102193D02*
X0074813Y0099044D01*
X0074063Y0101294D01*
X0073313Y0099044D01*
X0072563Y0102193D01*
X0071438Y0102193D02*
X0070688Y0099044D01*
X0069938Y0101294D01*
X0069188Y0099044D01*
X0068438Y0102193D01*
X0066939Y0099494D02*
X0066751Y0099269D01*
X0066939Y0099044D01*
X0067126Y0099269D01*
X0066939Y0099494D01*
X0066939Y0099044D01*
X0063376Y0099044D02*
X0063376Y0101519D01*
X0063564Y0101969D01*
X0063939Y0102193D01*
X0064689Y0102193D01*
X0065064Y0101969D01*
X0063376Y0099269D02*
X0063751Y0099044D01*
X0064689Y0099044D01*
X0065064Y0099269D01*
X0065251Y0099719D01*
X0065251Y0100169D01*
X0065064Y0100619D01*
X0064689Y0100844D01*
X0063751Y0100844D01*
X0063376Y0101069D01*
X0060939Y0099044D02*
X0061314Y0099269D01*
X0061502Y0099719D01*
X0061502Y0103768D01*
X0059439Y0102193D02*
X0059439Y0097469D01*
X0059439Y0101969D02*
X0059064Y0102193D01*
X0058315Y0102193D01*
X0057940Y0101969D01*
X0057752Y0101744D01*
X0057565Y0101294D01*
X0057565Y0099944D01*
X0057752Y0099494D01*
X0057940Y0099269D01*
X0058315Y0099044D01*
X0059064Y0099044D01*
X0059439Y0099269D01*
X0055877Y0099044D02*
X0055877Y0103768D01*
X0054190Y0099044D02*
X0054190Y0101519D01*
X0054378Y0101969D01*
X0054753Y0102193D01*
X0055315Y0102193D01*
X0055690Y0101969D01*
X0055877Y0101744D01*
X0050628Y0099044D02*
X0050628Y0101519D01*
X0050816Y0101969D01*
X0051190Y0102193D01*
X0051940Y0102193D01*
X0052315Y0101969D01*
X0050628Y0099269D02*
X0051003Y0099044D01*
X0051940Y0099044D01*
X0052315Y0099269D01*
X0052503Y0099719D01*
X0052503Y0100169D01*
X0052315Y0100619D01*
X0051940Y0100844D01*
X0051003Y0100844D01*
X0050628Y0101069D01*
X0049128Y0099044D02*
X0047066Y0102193D01*
X0049128Y0102193D02*
X0047066Y0099044D01*
X0045566Y0102193D02*
X0045566Y0097469D01*
X0045566Y0101969D02*
X0045191Y0102193D01*
X0044441Y0102193D01*
X0044066Y0101969D01*
X0043879Y0101744D01*
X0043691Y0101294D01*
X0043691Y0099944D01*
X0043879Y0099494D01*
X0044066Y0099269D01*
X0044441Y0099044D01*
X0045191Y0099044D01*
X0045566Y0099269D01*
X0042004Y0099044D02*
X0042004Y0102193D01*
X0042004Y0101294D02*
X0041817Y0101744D01*
X0041629Y0101969D01*
X0041254Y0102193D01*
X0040879Y0102193D01*
X0039567Y0099494D02*
X0039379Y0099269D01*
X0039567Y0099044D01*
X0039754Y0099269D01*
X0039567Y0099494D01*
X0039567Y0099044D01*
X0036005Y0099269D02*
X0036380Y0099044D01*
X0037130Y0099044D01*
X0037505Y0099269D01*
X0037692Y0099494D01*
X0037880Y0099944D01*
X0037880Y0101294D01*
X0037692Y0101744D01*
X0037505Y0101969D01*
X0037130Y0102193D01*
X0036380Y0102193D01*
X0036005Y0101969D01*
X0033755Y0099044D02*
X0034130Y0099269D01*
X0034318Y0099494D01*
X0034505Y0099944D01*
X0034505Y0101294D01*
X0034318Y0101744D01*
X0034130Y0101969D01*
X0033755Y0102193D01*
X0033193Y0102193D01*
X0032818Y0101969D01*
X0032630Y0101744D01*
X0032443Y0101294D01*
X0032443Y0099944D01*
X0032630Y0099494D01*
X0032818Y0099269D01*
X0033193Y0099044D01*
X0033755Y0099044D01*
X0030756Y0099044D02*
X0030756Y0102193D01*
X0030756Y0101744D02*
X0030568Y0101969D01*
X0030193Y0102193D01*
X0029631Y0102193D01*
X0029256Y0101969D01*
X0029068Y0101519D01*
X0029068Y0099044D01*
X0029068Y0101519D02*
X0028881Y0101969D01*
X0028506Y0102193D01*
X0027943Y0102193D01*
X0027568Y0101969D01*
X0027381Y0101519D01*
X0027381Y0099044D01*
D77*
X0181978Y0374197D02*
X0180178Y0374197D01*
X0181078Y0371047D02*
X0181078Y0374197D01*
X0179129Y0371047D02*
X0179129Y0374197D01*
X0177929Y0374197D01*
X0177629Y0374047D01*
X0177479Y0373897D01*
X0177329Y0373597D01*
X0177329Y0373147D01*
X0177479Y0372847D01*
X0177629Y0372697D01*
X0177929Y0372547D01*
X0179129Y0372547D01*
X0176129Y0371197D02*
X0175679Y0371047D01*
X0174929Y0371047D01*
X0174629Y0371197D01*
X0174479Y0371347D01*
X0174329Y0371647D01*
X0174329Y0371947D01*
X0174479Y0372247D01*
X0174629Y0372397D01*
X0174929Y0372547D01*
X0175529Y0372697D01*
X0175829Y0372847D01*
X0175979Y0372997D01*
X0176129Y0373297D01*
X0176129Y0373597D01*
X0175979Y0373897D01*
X0175829Y0374047D01*
X0175529Y0374197D01*
X0174779Y0374197D01*
X0174329Y0374047D01*
X0225610Y0355481D02*
X0225610Y0358631D01*
X0224110Y0355481D02*
X0224110Y0358631D01*
X0222310Y0355481D01*
X0222310Y0358631D01*
X0219910Y0358631D02*
X0219910Y0356381D01*
X0220060Y0355931D01*
X0220360Y0355631D01*
X0220810Y0355481D01*
X0221110Y0355481D01*
X0218561Y0356381D02*
X0217061Y0356381D01*
X0218861Y0355481D02*
X0217811Y0358631D01*
X0216761Y0355481D01*
X0187171Y0387006D02*
X0187321Y0386856D01*
X0187771Y0386706D01*
X0188071Y0386706D01*
X0188521Y0386856D01*
X0188821Y0387156D01*
X0188971Y0387456D01*
X0189121Y0388056D01*
X0189121Y0388506D01*
X0188971Y0389106D01*
X0188821Y0389406D01*
X0188521Y0389706D01*
X0188071Y0389856D01*
X0187771Y0389856D01*
X0187321Y0389706D01*
X0187171Y0389556D01*
X0185971Y0387606D02*
X0184472Y0387606D01*
X0186271Y0386706D02*
X0185221Y0389856D01*
X0184172Y0386706D01*
X0183122Y0386706D02*
X0183122Y0389856D01*
X0181322Y0386706D01*
X0181322Y0389856D01*
X0151381Y0357268D02*
X0152431Y0357268D01*
X0152431Y0355618D02*
X0152431Y0358768D01*
X0150931Y0358768D01*
X0149731Y0355618D02*
X0149731Y0358768D01*
X0148532Y0358768D01*
X0148232Y0358618D01*
X0148082Y0358468D01*
X0147932Y0358168D01*
X0147932Y0357718D01*
X0148082Y0357418D01*
X0148232Y0357268D01*
X0148532Y0357118D01*
X0149731Y0357118D01*
X0197413Y0355756D02*
X0197413Y0358905D01*
X0194264Y0358755D02*
X0194564Y0358905D01*
X0195014Y0358905D01*
X0195463Y0358755D01*
X0195763Y0358456D01*
X0195913Y0358156D01*
X0196063Y0357556D01*
X0196063Y0357106D01*
X0195913Y0356506D01*
X0195763Y0356206D01*
X0195463Y0355906D01*
X0195014Y0355756D01*
X0194714Y0355756D01*
X0194264Y0355906D01*
X0194114Y0356056D01*
X0194114Y0357106D01*
X0194714Y0357106D01*
X0192764Y0355756D02*
X0192764Y0358905D01*
X0190964Y0355756D01*
X0190964Y0358905D01*
X0189614Y0356656D02*
X0188114Y0356656D01*
X0189914Y0355756D02*
X0188864Y0358905D01*
X0187814Y0355756D01*
X0207663Y0371484D02*
X0207813Y0371334D01*
X0208263Y0371184D01*
X0208563Y0371184D01*
X0209013Y0371334D01*
X0209313Y0371634D01*
X0209463Y0371934D01*
X0209613Y0372534D01*
X0209613Y0372984D01*
X0209463Y0373584D01*
X0209313Y0373884D01*
X0209013Y0374184D01*
X0208563Y0374334D01*
X0208263Y0374334D01*
X0207813Y0374184D01*
X0207663Y0374034D01*
X0204813Y0371184D02*
X0206313Y0371184D01*
X0206313Y0374334D01*
X0204213Y0374334D02*
X0202413Y0374334D01*
X0203313Y0371184D02*
X0203313Y0374334D01*
X0123123Y0358481D02*
X0123423Y0358631D01*
X0123873Y0358631D01*
X0124323Y0358481D01*
X0124623Y0358181D01*
X0124773Y0357881D01*
X0124923Y0357281D01*
X0124923Y0356831D01*
X0124773Y0356231D01*
X0124623Y0355931D01*
X0124323Y0355631D01*
X0123873Y0355481D01*
X0123573Y0355481D01*
X0123123Y0355631D01*
X0122973Y0355781D01*
X0122973Y0356831D01*
X0123573Y0356831D01*
X0121623Y0355481D02*
X0121623Y0358631D01*
X0119824Y0355481D01*
X0119824Y0358631D01*
X0118324Y0355481D02*
X0118324Y0358631D01*
X0117574Y0358631D01*
X0117124Y0358481D01*
X0116824Y0358181D01*
X0116674Y0357881D01*
X0116524Y0357281D01*
X0116524Y0356831D01*
X0116674Y0356231D01*
X0116824Y0355931D01*
X0117124Y0355631D01*
X0117574Y0355481D01*
X0118324Y0355481D01*
X0123123Y0374140D02*
X0123423Y0374290D01*
X0123873Y0374290D01*
X0124323Y0374140D01*
X0124623Y0373840D01*
X0124773Y0373540D01*
X0124923Y0372940D01*
X0124923Y0372490D01*
X0124773Y0371890D01*
X0124623Y0371590D01*
X0124323Y0371290D01*
X0123873Y0371140D01*
X0123573Y0371140D01*
X0123123Y0371290D01*
X0122973Y0371440D01*
X0122973Y0372490D01*
X0123573Y0372490D01*
X0121623Y0371140D02*
X0121623Y0374290D01*
X0119824Y0371140D01*
X0119824Y0374290D01*
X0118324Y0371140D02*
X0118324Y0374290D01*
X0117574Y0374290D01*
X0117124Y0374140D01*
X0116824Y0373840D01*
X0116674Y0373540D01*
X0116524Y0372940D01*
X0116524Y0372490D01*
X0116674Y0371890D01*
X0116824Y0371590D01*
X0117124Y0371290D01*
X0117574Y0371140D01*
X0118324Y0371140D01*
X0225972Y0371184D02*
X0225972Y0374334D01*
X0224472Y0371184D02*
X0224472Y0374334D01*
X0222672Y0371184D01*
X0222672Y0374334D01*
X0220273Y0374334D02*
X0220273Y0372084D01*
X0220423Y0371634D01*
X0220723Y0371334D01*
X0221173Y0371184D01*
X0221473Y0371184D01*
X0217723Y0372834D02*
X0217273Y0372684D01*
X0217123Y0372534D01*
X0216973Y0372234D01*
X0216973Y0371784D01*
X0217123Y0371484D01*
X0217273Y0371334D01*
X0217573Y0371184D01*
X0218773Y0371184D01*
X0218773Y0374334D01*
X0217723Y0374334D01*
X0217423Y0374184D01*
X0217273Y0374034D01*
X0217123Y0373734D01*
X0217123Y0373434D01*
X0217273Y0373134D01*
X0217423Y0372984D01*
X0217723Y0372834D01*
X0218773Y0372834D01*
X0167942Y0371947D02*
X0166442Y0371947D01*
X0168242Y0371047D02*
X0167192Y0374197D01*
X0166142Y0371047D01*
X0164042Y0372697D02*
X0165092Y0372697D01*
X0165092Y0371047D02*
X0165092Y0374197D01*
X0163592Y0374197D01*
X0160593Y0371047D02*
X0161643Y0372547D01*
X0162393Y0371047D02*
X0162393Y0374197D01*
X0161193Y0374197D01*
X0160893Y0374047D01*
X0160743Y0373897D01*
X0160593Y0373597D01*
X0160593Y0373147D01*
X0160743Y0372847D01*
X0160893Y0372697D01*
X0161193Y0372547D01*
X0162393Y0372547D01*
X0170592Y0389831D02*
X0170442Y0389981D01*
X0170142Y0390131D01*
X0169392Y0390131D01*
X0169092Y0389981D01*
X0168942Y0389831D01*
X0168792Y0389531D01*
X0168792Y0389231D01*
X0168942Y0388781D01*
X0170742Y0386981D01*
X0168792Y0386981D01*
X0167592Y0387131D02*
X0167142Y0386981D01*
X0166392Y0386981D01*
X0166092Y0387131D01*
X0165942Y0387281D01*
X0165792Y0387581D01*
X0165792Y0387881D01*
X0165942Y0388181D01*
X0166092Y0388331D01*
X0166392Y0388481D01*
X0166992Y0388631D01*
X0167292Y0388781D01*
X0167442Y0388931D01*
X0167592Y0389231D01*
X0167592Y0389531D01*
X0167442Y0389831D01*
X0167292Y0389981D01*
X0166992Y0390131D01*
X0166242Y0390131D01*
X0165792Y0389981D01*
X0164893Y0390131D02*
X0163093Y0390131D01*
X0163993Y0386981D02*
X0163993Y0390131D01*
X0162043Y0388631D02*
X0160993Y0388631D01*
X0160543Y0386981D02*
X0162043Y0386981D01*
X0162043Y0390131D01*
X0160543Y0390131D01*
X0159193Y0386981D02*
X0159193Y0390131D01*
X0157993Y0390131D01*
X0157693Y0389981D01*
X0157543Y0389831D01*
X0157393Y0389531D01*
X0157393Y0389081D01*
X0157543Y0388781D01*
X0157693Y0388631D01*
X0157993Y0388481D01*
X0159193Y0388481D01*
X0208200Y0387281D02*
X0208350Y0387131D01*
X0208800Y0386981D01*
X0209100Y0386981D01*
X0209550Y0387131D01*
X0209850Y0387431D01*
X0210000Y0387731D01*
X0210150Y0388331D01*
X0210150Y0388781D01*
X0210000Y0389381D01*
X0209850Y0389681D01*
X0209550Y0389981D01*
X0209100Y0390131D01*
X0208800Y0390131D01*
X0208350Y0389981D01*
X0208200Y0389831D01*
X0207001Y0387881D02*
X0205501Y0387881D01*
X0207300Y0386981D02*
X0206251Y0390131D01*
X0205201Y0386981D01*
X0204151Y0386981D02*
X0204151Y0390131D01*
X0203101Y0387881D01*
X0202051Y0390131D01*
X0202051Y0386981D01*
X0123685Y0388631D02*
X0124735Y0388631D01*
X0124735Y0386981D02*
X0124735Y0390131D01*
X0123235Y0390131D01*
X0122185Y0387881D02*
X0120686Y0387881D01*
X0122485Y0386981D02*
X0121435Y0390131D01*
X0120386Y0386981D01*
X0119336Y0386981D02*
X0119336Y0390131D01*
X0117536Y0386981D01*
X0117536Y0390131D01*
X0182715Y0358755D02*
X0183015Y0358905D01*
X0183465Y0358905D01*
X0183915Y0358755D01*
X0184215Y0358456D01*
X0184365Y0358156D01*
X0184514Y0357556D01*
X0184514Y0357106D01*
X0184365Y0356506D01*
X0184215Y0356206D01*
X0183915Y0355906D01*
X0183465Y0355756D01*
X0183165Y0355756D01*
X0182715Y0355906D01*
X0182565Y0356056D01*
X0182565Y0357106D01*
X0183165Y0357106D01*
X0181215Y0355756D02*
X0181215Y0358905D01*
X0179415Y0355756D01*
X0179415Y0358905D01*
X0177915Y0355756D02*
X0177915Y0358905D01*
X0177165Y0358905D01*
X0176715Y0358755D01*
X0176416Y0358456D01*
X0176266Y0358156D01*
X0176116Y0357556D01*
X0176116Y0357106D01*
X0176266Y0356506D01*
X0176416Y0356206D01*
X0176715Y0355906D01*
X0177165Y0355756D01*
X0177915Y0355756D01*
X0174916Y0356656D02*
X0173416Y0356656D01*
X0175216Y0355756D02*
X0174166Y0358905D01*
X0173116Y0355756D01*
X0196751Y0372110D02*
X0194351Y0372110D01*
X0195551Y0370910D02*
X0195551Y0373309D01*
X0191352Y0374059D02*
X0192851Y0374059D01*
X0193001Y0372559D01*
X0192851Y0372709D01*
X0192551Y0372859D01*
X0191802Y0372859D01*
X0191502Y0372709D01*
X0191352Y0372559D01*
X0191202Y0372260D01*
X0191202Y0371510D01*
X0191352Y0371210D01*
X0191502Y0371060D01*
X0191802Y0370910D01*
X0192551Y0370910D01*
X0192851Y0371060D01*
X0193001Y0371210D01*
X0190302Y0374059D02*
X0189252Y0370910D01*
X0188202Y0374059D01*
X0140632Y0370910D02*
X0140632Y0374059D01*
X0139582Y0371810D01*
X0138532Y0374059D01*
X0138532Y0370910D01*
X0137182Y0371810D02*
X0135683Y0371810D01*
X0137482Y0370910D02*
X0136433Y0374059D01*
X0135383Y0370910D01*
X0134333Y0370910D02*
X0134333Y0374059D01*
X0133133Y0374059D01*
X0132833Y0373909D01*
X0132683Y0373759D01*
X0132533Y0373459D01*
X0132533Y0373009D01*
X0132683Y0372709D01*
X0132833Y0372559D01*
X0133133Y0372410D01*
X0134333Y0372410D01*
X0152394Y0371047D02*
X0152394Y0374197D01*
X0151044Y0371947D02*
X0149544Y0371947D01*
X0151344Y0371047D02*
X0150294Y0374197D01*
X0149244Y0371047D01*
X0148644Y0374197D02*
X0146845Y0374197D01*
X0147745Y0371047D02*
X0147745Y0374197D01*
X0142344Y0356818D02*
X0139944Y0356818D01*
X0141144Y0355618D02*
X0141144Y0358018D01*
X0136795Y0355618D02*
X0138595Y0355618D01*
X0137695Y0355618D02*
X0137695Y0358768D01*
X0137995Y0358318D01*
X0138295Y0358018D01*
X0138595Y0357868D01*
X0135595Y0358468D02*
X0135445Y0358618D01*
X0135145Y0358768D01*
X0134395Y0358768D01*
X0134095Y0358618D01*
X0133945Y0358468D01*
X0133795Y0358168D01*
X0133795Y0357868D01*
X0133945Y0357418D01*
X0135745Y0355618D01*
X0133795Y0355618D01*
X0132895Y0358768D02*
X0131845Y0355618D01*
X0130796Y0358768D01*
X0170842Y0358905D02*
X0169042Y0358905D01*
X0169942Y0355756D02*
X0169942Y0358905D01*
X0168142Y0356656D02*
X0166643Y0356656D01*
X0168442Y0355756D02*
X0167392Y0358905D01*
X0166343Y0355756D01*
X0163493Y0356056D02*
X0163643Y0355906D01*
X0164093Y0355756D01*
X0164393Y0355756D01*
X0164843Y0355906D01*
X0165143Y0356206D01*
X0165293Y0356506D01*
X0165443Y0357106D01*
X0165443Y0357556D01*
X0165293Y0358156D01*
X0165143Y0358456D01*
X0164843Y0358755D01*
X0164393Y0358905D01*
X0164093Y0358905D01*
X0163643Y0358755D01*
X0163493Y0358605D01*
X0162143Y0355756D02*
X0162143Y0358905D01*
X0162143Y0357406D02*
X0160343Y0357406D01*
X0160343Y0355756D02*
X0160343Y0358905D01*
X0158244Y0358905D02*
X0157644Y0358905D01*
X0157344Y0358755D01*
X0157044Y0358456D01*
X0156894Y0357856D01*
X0156894Y0356806D01*
X0157044Y0356206D01*
X0157344Y0355906D01*
X0157644Y0355756D01*
X0158244Y0355756D01*
X0158544Y0355906D01*
X0158844Y0356206D01*
X0158994Y0356806D01*
X0158994Y0357856D01*
X0158844Y0358456D01*
X0158544Y0358755D01*
X0158244Y0358905D01*
D33*
X0196821Y0319429D02*
X0197805Y0320835D01*
X0198508Y0319429D02*
X0198508Y0322382D01*
X0197383Y0322382D01*
X0197102Y0322241D01*
X0196961Y0322101D01*
X0196821Y0321819D01*
X0196821Y0321398D01*
X0196961Y0321116D01*
X0197102Y0320976D01*
X0197383Y0320835D01*
X0198508Y0320835D01*
X0195133Y0321116D02*
X0195415Y0321257D01*
X0195555Y0321398D01*
X0195696Y0321679D01*
X0195696Y0321819D01*
X0195555Y0322101D01*
X0195415Y0322241D01*
X0195133Y0322382D01*
X0194571Y0322382D01*
X0194290Y0322241D01*
X0194149Y0322101D01*
X0194009Y0321819D01*
X0194009Y0321679D01*
X0194149Y0321398D01*
X0194290Y0321257D01*
X0194571Y0321116D01*
X0195133Y0321116D01*
X0195415Y0320976D01*
X0195555Y0320835D01*
X0195696Y0320554D01*
X0195696Y0319992D01*
X0195555Y0319710D01*
X0195415Y0319570D01*
X0195133Y0319429D01*
X0194571Y0319429D01*
X0194290Y0319570D01*
X0194149Y0319710D01*
X0194009Y0319992D01*
X0194009Y0320554D01*
X0194149Y0320835D01*
X0194290Y0320976D01*
X0194571Y0321116D01*
D146*
X0189014Y0318812D02*
X0190014Y0320241D01*
X0190728Y0318812D02*
X0190728Y0321812D01*
X0189585Y0321812D01*
X0189300Y0321669D01*
X0189157Y0321527D01*
X0189014Y0321241D01*
X0189014Y0320812D01*
X0189157Y0320527D01*
X0189300Y0320384D01*
X0189585Y0320241D01*
X0190728Y0320241D01*
X0187585Y0318812D02*
X0187014Y0318812D01*
X0186728Y0318955D01*
X0186585Y0319098D01*
X0186300Y0319527D01*
X0186157Y0320098D01*
X0186157Y0321241D01*
X0186300Y0321527D01*
X0186443Y0321669D01*
X0186728Y0321812D01*
X0187300Y0321812D01*
X0187585Y0321669D01*
X0187728Y0321527D01*
X0187871Y0321241D01*
X0187871Y0320527D01*
X0187728Y0320241D01*
X0187585Y0320098D01*
X0187300Y0319955D01*
X0186728Y0319955D01*
X0186443Y0320098D01*
X0186300Y0320241D01*
X0186157Y0320527D01*
X0145488Y0315175D02*
X0146488Y0315175D01*
X0146488Y0313603D02*
X0146488Y0316603D01*
X0145060Y0316603D01*
X0142631Y0315603D02*
X0142631Y0313603D01*
X0143345Y0316746D02*
X0144060Y0314603D01*
X0142202Y0314603D01*
D77*
X0246835Y0294873D02*
X0246835Y0298810D01*
X0245335Y0298810D01*
X0244960Y0298622D01*
X0244773Y0298435D01*
X0244585Y0298060D01*
X0244585Y0297497D01*
X0244773Y0297122D01*
X0244960Y0296935D01*
X0245335Y0296747D01*
X0246835Y0296747D01*
X0243085Y0298435D02*
X0242898Y0298622D01*
X0242523Y0298810D01*
X0241586Y0298810D01*
X0241211Y0298622D01*
X0241023Y0298435D01*
X0240836Y0298060D01*
X0240836Y0297685D01*
X0241023Y0297122D01*
X0243273Y0294873D01*
X0240836Y0294873D01*
D33*
X0097827Y0318711D02*
X0098812Y0320118D01*
X0099515Y0318711D02*
X0099515Y0321664D01*
X0098390Y0321664D01*
X0098109Y0321524D01*
X0097968Y0321383D01*
X0097827Y0321102D01*
X0097827Y0320680D01*
X0097968Y0320399D01*
X0098109Y0320258D01*
X0098390Y0320118D01*
X0099515Y0320118D01*
X0095015Y0318711D02*
X0096702Y0318711D01*
X0095859Y0318711D02*
X0095859Y0321664D01*
X0096140Y0321242D01*
X0096421Y0320961D01*
X0096702Y0320821D01*
X0092203Y0318711D02*
X0093890Y0318711D01*
X0093047Y0318711D02*
X0093047Y0321664D01*
X0093328Y0321242D01*
X0093609Y0320961D01*
X0093890Y0320821D01*
X0269593Y0406594D02*
X0270999Y0405610D01*
X0269593Y0404907D02*
X0272546Y0404907D01*
X0272546Y0406032D01*
X0272406Y0406313D01*
X0272265Y0406454D01*
X0271984Y0406594D01*
X0271562Y0406594D01*
X0271281Y0406454D01*
X0271140Y0406313D01*
X0270999Y0406032D01*
X0270999Y0404907D01*
X0272546Y0409125D02*
X0272546Y0408563D01*
X0272406Y0408282D01*
X0272265Y0408141D01*
X0271843Y0407860D01*
X0271281Y0407719D01*
X0270156Y0407719D01*
X0269875Y0407860D01*
X0269734Y0408001D01*
X0269593Y0408282D01*
X0269593Y0408844D01*
X0269734Y0409125D01*
X0269875Y0409266D01*
X0270156Y0409407D01*
X0270859Y0409407D01*
X0271140Y0409266D01*
X0271281Y0409125D01*
X0271421Y0408844D01*
X0271421Y0408282D01*
X0271281Y0408001D01*
X0271140Y0407860D01*
X0270859Y0407719D01*
X0154827Y0317711D02*
X0155812Y0319118D01*
X0156515Y0317711D02*
X0156515Y0320664D01*
X0155390Y0320664D01*
X0155109Y0320524D01*
X0154968Y0320383D01*
X0154827Y0320102D01*
X0154827Y0319680D01*
X0154968Y0319399D01*
X0155109Y0319258D01*
X0155390Y0319118D01*
X0156515Y0319118D01*
X0152015Y0317711D02*
X0153702Y0317711D01*
X0152859Y0317711D02*
X0152859Y0320664D01*
X0153140Y0320242D01*
X0153421Y0319961D01*
X0153702Y0319821D01*
X0151031Y0320664D02*
X0149062Y0320664D01*
X0150328Y0317711D01*
X0180638Y0318711D02*
X0181623Y0320118D01*
X0182326Y0318711D02*
X0182326Y0321664D01*
X0181201Y0321664D01*
X0180920Y0321524D01*
X0180779Y0321383D01*
X0180638Y0321102D01*
X0180638Y0320680D01*
X0180779Y0320399D01*
X0180920Y0320258D01*
X0181201Y0320118D01*
X0182326Y0320118D01*
X0177826Y0318711D02*
X0179513Y0318711D01*
X0178670Y0318711D02*
X0178670Y0321664D01*
X0178951Y0321242D01*
X0179232Y0320961D01*
X0179513Y0320821D01*
X0175295Y0321664D02*
X0175858Y0321664D01*
X0176139Y0321524D01*
X0176280Y0321383D01*
X0176561Y0320961D01*
X0176701Y0320399D01*
X0176701Y0319274D01*
X0176561Y0318993D01*
X0176420Y0318852D01*
X0176139Y0318711D01*
X0175576Y0318711D01*
X0175295Y0318852D01*
X0175155Y0318993D01*
X0175014Y0319274D01*
X0175014Y0319977D01*
X0175155Y0320258D01*
X0175295Y0320399D01*
X0175576Y0320539D01*
X0176139Y0320539D01*
X0176420Y0320399D01*
X0176561Y0320258D01*
X0176701Y0319977D01*
D146*
X0172401Y0318722D02*
X0173401Y0320150D01*
X0174115Y0318722D02*
X0174115Y0321722D01*
X0172972Y0321722D01*
X0172687Y0321579D01*
X0172544Y0321436D01*
X0172401Y0321150D01*
X0172401Y0320722D01*
X0172544Y0320436D01*
X0172687Y0320293D01*
X0172972Y0320150D01*
X0174115Y0320150D01*
X0169544Y0318722D02*
X0171258Y0318722D01*
X0170401Y0318722D02*
X0170401Y0321722D01*
X0170687Y0321293D01*
X0170972Y0321007D01*
X0171258Y0320864D01*
X0167687Y0321722D02*
X0167401Y0321722D01*
X0167115Y0321579D01*
X0166972Y0321436D01*
X0166830Y0321150D01*
X0166687Y0320579D01*
X0166687Y0319864D01*
X0166830Y0319293D01*
X0166972Y0319007D01*
X0167115Y0318864D01*
X0167401Y0318722D01*
X0167687Y0318722D01*
X0167972Y0318864D01*
X0168115Y0319007D01*
X0168258Y0319293D01*
X0168401Y0319864D01*
X0168401Y0320579D01*
X0168258Y0321150D01*
X0168115Y0321436D01*
X0167972Y0321579D01*
X0167687Y0321722D01*
X0120039Y0318722D02*
X0121039Y0320150D01*
X0121753Y0318722D02*
X0121753Y0321722D01*
X0120610Y0321722D01*
X0120325Y0321579D01*
X0120182Y0321436D01*
X0120039Y0321150D01*
X0120039Y0320722D01*
X0120182Y0320436D01*
X0120325Y0320293D01*
X0120610Y0320150D01*
X0121753Y0320150D01*
X0117182Y0318722D02*
X0118896Y0318722D01*
X0118039Y0318722D02*
X0118039Y0321722D01*
X0118325Y0321293D01*
X0118610Y0321007D01*
X0118896Y0320864D01*
X0115753Y0318722D02*
X0115182Y0318722D01*
X0114896Y0318864D01*
X0114753Y0319007D01*
X0114467Y0319436D01*
X0114325Y0320007D01*
X0114325Y0321150D01*
X0114467Y0321436D01*
X0114610Y0321579D01*
X0114896Y0321722D01*
X0115467Y0321722D01*
X0115753Y0321579D01*
X0115896Y0321436D01*
X0116039Y0321150D01*
X0116039Y0320436D01*
X0115896Y0320150D01*
X0115753Y0320007D01*
X0115467Y0319864D01*
X0114896Y0319864D01*
X0114610Y0320007D01*
X0114467Y0320150D01*
X0114325Y0320436D01*
X0217126Y0315962D02*
X0218126Y0315962D01*
X0218126Y0314391D02*
X0218126Y0317391D01*
X0216697Y0317391D01*
X0213983Y0314391D02*
X0215697Y0314391D01*
X0214840Y0314391D02*
X0214840Y0317391D01*
X0215126Y0316962D01*
X0215412Y0316677D01*
X0215697Y0316534D01*
D33*
X0269593Y0387472D02*
X0270999Y0386488D01*
X0269593Y0385785D02*
X0272546Y0385785D01*
X0272546Y0386909D01*
X0272406Y0387191D01*
X0272265Y0387331D01*
X0271984Y0387472D01*
X0271562Y0387472D01*
X0271281Y0387331D01*
X0271140Y0387191D01*
X0270999Y0386909D01*
X0270999Y0385785D01*
X0269593Y0390284D02*
X0269593Y0388597D01*
X0269593Y0389440D02*
X0272546Y0389440D01*
X0272124Y0389159D01*
X0271843Y0388878D01*
X0271702Y0388597D01*
X0271562Y0392815D02*
X0269593Y0392815D01*
X0272687Y0392112D02*
X0270578Y0391409D01*
X0270578Y0393237D01*
D146*
X0163402Y0316159D02*
X0164402Y0316159D01*
X0164402Y0314588D02*
X0164402Y0317588D01*
X0162973Y0317588D01*
X0162116Y0317588D02*
X0160259Y0317588D01*
X0161259Y0316445D01*
X0160830Y0316445D01*
X0160544Y0316302D01*
X0160402Y0316159D01*
X0160259Y0315873D01*
X0160259Y0315159D01*
X0160402Y0314873D01*
X0160544Y0314731D01*
X0160830Y0314588D01*
X0161687Y0314588D01*
X0161973Y0314731D01*
X0162116Y0314873D01*
D33*
X0226827Y0318711D02*
X0227812Y0320118D01*
X0228515Y0318711D02*
X0228515Y0321664D01*
X0227390Y0321664D01*
X0227109Y0321524D01*
X0226968Y0321383D01*
X0226827Y0321102D01*
X0226827Y0320680D01*
X0226968Y0320399D01*
X0227109Y0320258D01*
X0227390Y0320118D01*
X0228515Y0320118D01*
X0224015Y0318711D02*
X0225702Y0318711D01*
X0224859Y0318711D02*
X0224859Y0321664D01*
X0225140Y0321242D01*
X0225421Y0320961D01*
X0225702Y0320821D01*
X0221344Y0321664D02*
X0222750Y0321664D01*
X0222890Y0320258D01*
X0222750Y0320399D01*
X0222469Y0320539D01*
X0221765Y0320539D01*
X0221484Y0320399D01*
X0221344Y0320258D01*
X0221203Y0319977D01*
X0221203Y0319274D01*
X0221344Y0318993D01*
X0221484Y0318852D01*
X0221765Y0318711D01*
X0222469Y0318711D01*
X0222750Y0318852D01*
X0222890Y0318993D01*
D146*
X0233429Y0318722D02*
X0234429Y0320150D01*
X0235143Y0318722D02*
X0235143Y0321722D01*
X0234001Y0321722D01*
X0233715Y0321579D01*
X0233572Y0321436D01*
X0233429Y0321150D01*
X0233429Y0320722D01*
X0233572Y0320436D01*
X0233715Y0320293D01*
X0234001Y0320150D01*
X0235143Y0320150D01*
X0232429Y0321722D02*
X0230429Y0321722D01*
X0231715Y0318722D01*
D33*
X0269593Y0396149D02*
X0270999Y0395165D01*
X0269593Y0394462D02*
X0272546Y0394462D01*
X0272546Y0395587D01*
X0272406Y0395868D01*
X0272265Y0396008D01*
X0271984Y0396149D01*
X0271562Y0396149D01*
X0271281Y0396008D01*
X0271140Y0395868D01*
X0270999Y0395587D01*
X0270999Y0394462D01*
X0269593Y0398961D02*
X0269593Y0397274D01*
X0269593Y0398118D02*
X0272546Y0398118D01*
X0272124Y0397836D01*
X0271843Y0397555D01*
X0271702Y0397274D01*
X0272546Y0399945D02*
X0272546Y0401773D01*
X0271421Y0400789D01*
X0271421Y0401211D01*
X0271281Y0401492D01*
X0271140Y0401633D01*
X0270859Y0401773D01*
X0270156Y0401773D01*
X0269875Y0401633D01*
X0269734Y0401492D01*
X0269593Y0401211D01*
X0269593Y0400367D01*
X0269734Y0400086D01*
X0269875Y0399945D01*
X0242622Y0319319D02*
X0243607Y0320725D01*
X0244310Y0319319D02*
X0244310Y0322272D01*
X0243185Y0322272D01*
X0242904Y0322131D01*
X0242763Y0321991D01*
X0242622Y0321710D01*
X0242622Y0321288D01*
X0242763Y0321007D01*
X0242904Y0320866D01*
X0243185Y0320725D01*
X0244310Y0320725D01*
X0241498Y0321991D02*
X0241357Y0322131D01*
X0241076Y0322272D01*
X0240373Y0322272D01*
X0240091Y0322131D01*
X0239951Y0321991D01*
X0239810Y0321710D01*
X0239810Y0321428D01*
X0239951Y0321007D01*
X0241638Y0319319D01*
X0239810Y0319319D01*
X0237982Y0322272D02*
X0237701Y0322272D01*
X0237420Y0322131D01*
X0237279Y0321991D01*
X0237139Y0321710D01*
X0236998Y0321147D01*
X0236998Y0320444D01*
X0237139Y0319882D01*
X0237279Y0319600D01*
X0237420Y0319460D01*
X0237701Y0319319D01*
X0237982Y0319319D01*
X0238264Y0319460D01*
X0238404Y0319600D01*
X0238545Y0319882D01*
X0238685Y0320444D01*
X0238685Y0321147D01*
X0238545Y0321710D01*
X0238404Y0321991D01*
X0238264Y0322131D01*
X0237982Y0322272D01*
D182*
X0159083Y0397109D02*
X0159271Y0397296D01*
X0159458Y0397859D01*
X0159458Y0398234D01*
X0159271Y0398796D01*
X0158896Y0399171D01*
X0158521Y0399359D01*
X0157771Y0399546D01*
X0157208Y0399546D01*
X0156459Y0399359D01*
X0156084Y0399171D01*
X0155709Y0398796D01*
X0155521Y0398234D01*
X0155521Y0397859D01*
X0155709Y0397296D01*
X0155896Y0397109D01*
X0156834Y0393734D02*
X0159458Y0393734D01*
X0155334Y0394672D02*
X0158146Y0395609D01*
X0158146Y0393172D01*
X0184955Y0381511D02*
X0185142Y0380948D01*
X0185330Y0380761D01*
X0185705Y0380573D01*
X0186267Y0380573D01*
X0186642Y0380761D01*
X0186830Y0380948D01*
X0187017Y0381323D01*
X0187017Y0382823D01*
X0183080Y0382823D01*
X0183080Y0381511D01*
X0183268Y0381136D01*
X0183455Y0380948D01*
X0183830Y0380761D01*
X0184205Y0380761D01*
X0184580Y0380948D01*
X0184768Y0381136D01*
X0184955Y0381511D01*
X0184955Y0382823D01*
X0183080Y0377199D02*
X0183080Y0377949D01*
X0183268Y0378324D01*
X0183455Y0378511D01*
X0184018Y0378886D01*
X0184768Y0379074D01*
X0186267Y0379074D01*
X0186642Y0378886D01*
X0186830Y0378699D01*
X0187017Y0378324D01*
X0187017Y0377574D01*
X0186830Y0377199D01*
X0186642Y0377011D01*
X0186267Y0376824D01*
X0185330Y0376824D01*
X0184955Y0377011D01*
X0184768Y0377199D01*
X0184580Y0377574D01*
X0184580Y0378324D01*
X0184768Y0378699D01*
X0184955Y0378886D01*
X0185330Y0379074D01*
X0129593Y0367375D02*
X0129593Y0365500D01*
X0130718Y0367750D02*
X0126781Y0366438D01*
X0130718Y0365125D01*
X0127156Y0364001D02*
X0126969Y0363813D01*
X0126781Y0363438D01*
X0126781Y0362501D01*
X0126969Y0362126D01*
X0127156Y0361938D01*
X0127531Y0361751D01*
X0127906Y0361751D01*
X0128468Y0361938D01*
X0130718Y0364188D01*
X0130718Y0361751D01*
X0199672Y0366981D02*
X0199672Y0365107D01*
X0200797Y0367356D02*
X0196860Y0366044D01*
X0200797Y0364732D01*
X0196860Y0363794D02*
X0196860Y0361170D01*
X0200797Y0362857D01*
X0130343Y0397503D02*
X0130531Y0397690D01*
X0130718Y0398253D01*
X0130718Y0398627D01*
X0130531Y0399190D01*
X0130156Y0399565D01*
X0129781Y0399752D01*
X0129031Y0399940D01*
X0128468Y0399940D01*
X0127718Y0399752D01*
X0127343Y0399565D01*
X0126969Y0399190D01*
X0126781Y0398627D01*
X0126781Y0398253D01*
X0126969Y0397690D01*
X0127156Y0397503D01*
X0127156Y0396003D02*
X0126969Y0395815D01*
X0126781Y0395440D01*
X0126781Y0394503D01*
X0126969Y0394128D01*
X0127156Y0393941D01*
X0127531Y0393753D01*
X0127906Y0393753D01*
X0128468Y0393941D01*
X0130718Y0396190D01*
X0130718Y0393753D01*
X0172113Y0366981D02*
X0172113Y0365107D01*
X0173238Y0367356D02*
X0169301Y0366044D01*
X0173238Y0364732D01*
X0169301Y0361545D02*
X0169301Y0363419D01*
X0171175Y0363607D01*
X0170988Y0363419D01*
X0170801Y0363044D01*
X0170801Y0362107D01*
X0170988Y0361732D01*
X0171175Y0361545D01*
X0171550Y0361357D01*
X0172488Y0361357D01*
X0172863Y0361545D01*
X0173050Y0361732D01*
X0173238Y0362107D01*
X0173238Y0363044D01*
X0173050Y0363419D01*
X0172863Y0363607D01*
X0171175Y0381511D02*
X0171363Y0380948D01*
X0171550Y0380761D01*
X0171925Y0380573D01*
X0172488Y0380573D01*
X0172863Y0380761D01*
X0173050Y0380948D01*
X0173238Y0381323D01*
X0173238Y0382823D01*
X0169301Y0382823D01*
X0169301Y0381511D01*
X0169488Y0381136D01*
X0169676Y0380948D01*
X0170051Y0380761D01*
X0170426Y0380761D01*
X0170801Y0380948D01*
X0170988Y0381136D01*
X0171175Y0381511D01*
X0171175Y0382823D01*
X0169301Y0377011D02*
X0169301Y0378886D01*
X0171175Y0379074D01*
X0170988Y0378886D01*
X0170801Y0378511D01*
X0170801Y0377574D01*
X0170988Y0377199D01*
X0171175Y0377011D01*
X0171550Y0376824D01*
X0172488Y0376824D01*
X0172863Y0377011D01*
X0173050Y0377199D01*
X0173238Y0377574D01*
X0173238Y0378511D01*
X0173050Y0378886D01*
X0172863Y0379074D01*
X0157396Y0381511D02*
X0157583Y0380948D01*
X0157771Y0380761D01*
X0158146Y0380573D01*
X0158708Y0380573D01*
X0159083Y0380761D01*
X0159271Y0380948D01*
X0159458Y0381323D01*
X0159458Y0382823D01*
X0155521Y0382823D01*
X0155521Y0381511D01*
X0155709Y0381136D01*
X0155896Y0380948D01*
X0156271Y0380761D01*
X0156646Y0380761D01*
X0157021Y0380948D01*
X0157208Y0381136D01*
X0157396Y0381511D01*
X0157396Y0382823D01*
X0156834Y0377199D02*
X0159458Y0377199D01*
X0155334Y0378136D02*
X0158146Y0379074D01*
X0158146Y0376636D01*
X0172863Y0397109D02*
X0173050Y0397296D01*
X0173238Y0397859D01*
X0173238Y0398234D01*
X0173050Y0398796D01*
X0172675Y0399171D01*
X0172300Y0399359D01*
X0171550Y0399546D01*
X0170988Y0399546D01*
X0170238Y0399359D01*
X0169863Y0399171D01*
X0169488Y0398796D01*
X0169301Y0398234D01*
X0169301Y0397859D01*
X0169488Y0397296D01*
X0169676Y0397109D01*
X0169301Y0393547D02*
X0169301Y0395422D01*
X0171175Y0395609D01*
X0170988Y0395422D01*
X0170801Y0395047D01*
X0170801Y0394109D01*
X0170988Y0393734D01*
X0171175Y0393547D01*
X0171550Y0393359D01*
X0172488Y0393359D01*
X0172863Y0393547D01*
X0173050Y0393734D01*
X0173238Y0394109D01*
X0173238Y0395047D01*
X0173050Y0395422D01*
X0172863Y0395609D01*
X0185892Y0366981D02*
X0185892Y0365107D01*
X0187017Y0367356D02*
X0183080Y0366044D01*
X0187017Y0364732D01*
X0183080Y0361732D02*
X0183080Y0362482D01*
X0183268Y0362857D01*
X0183455Y0363044D01*
X0184018Y0363419D01*
X0184768Y0363607D01*
X0186267Y0363607D01*
X0186642Y0363419D01*
X0186830Y0363232D01*
X0187017Y0362857D01*
X0187017Y0362107D01*
X0186830Y0361732D01*
X0186642Y0361545D01*
X0186267Y0361357D01*
X0185330Y0361357D01*
X0184955Y0361545D01*
X0184768Y0361732D01*
X0184580Y0362107D01*
X0184580Y0362857D01*
X0184768Y0363232D01*
X0184955Y0363419D01*
X0185330Y0363607D01*
X0214089Y0381511D02*
X0214276Y0380948D01*
X0214464Y0380761D01*
X0214839Y0380573D01*
X0215401Y0380573D01*
X0215776Y0380761D01*
X0215964Y0380948D01*
X0216151Y0381323D01*
X0216151Y0382823D01*
X0212214Y0382823D01*
X0212214Y0381511D01*
X0212402Y0381136D01*
X0212589Y0380948D01*
X0212964Y0380761D01*
X0213339Y0380761D01*
X0213714Y0380948D01*
X0213901Y0381136D01*
X0214089Y0381511D01*
X0214089Y0382823D01*
X0213901Y0378324D02*
X0213714Y0378699D01*
X0213526Y0378886D01*
X0213151Y0379074D01*
X0212964Y0379074D01*
X0212589Y0378886D01*
X0212402Y0378699D01*
X0212214Y0378324D01*
X0212214Y0377574D01*
X0212402Y0377199D01*
X0212589Y0377011D01*
X0212964Y0376824D01*
X0213151Y0376824D01*
X0213526Y0377011D01*
X0213714Y0377199D01*
X0213901Y0377574D01*
X0213901Y0378324D01*
X0214089Y0378699D01*
X0214276Y0378886D01*
X0214651Y0379074D01*
X0215401Y0379074D01*
X0215776Y0378886D01*
X0215964Y0378699D01*
X0216151Y0378324D01*
X0216151Y0377574D01*
X0215964Y0377199D01*
X0215776Y0377011D01*
X0215401Y0376824D01*
X0214651Y0376824D01*
X0214276Y0377011D01*
X0214089Y0377199D01*
X0213901Y0377574D01*
X0200422Y0397109D02*
X0200609Y0397296D01*
X0200797Y0397859D01*
X0200797Y0398234D01*
X0200609Y0398796D01*
X0200234Y0399171D01*
X0199859Y0399359D01*
X0199109Y0399546D01*
X0198547Y0399546D01*
X0197797Y0399359D01*
X0197422Y0399171D01*
X0197047Y0398796D01*
X0196860Y0398234D01*
X0196860Y0397859D01*
X0197047Y0397296D01*
X0197235Y0397109D01*
X0196860Y0395797D02*
X0196860Y0393172D01*
X0200797Y0394859D01*
X0114201Y0397109D02*
X0114389Y0397296D01*
X0114576Y0397859D01*
X0114576Y0398234D01*
X0114389Y0398796D01*
X0114014Y0399171D01*
X0113639Y0399359D01*
X0112889Y0399546D01*
X0112327Y0399546D01*
X0111577Y0399359D01*
X0111202Y0399171D01*
X0110827Y0398796D01*
X0110639Y0398234D01*
X0110639Y0397859D01*
X0110827Y0397296D01*
X0111014Y0397109D01*
X0114576Y0393359D02*
X0114576Y0395609D01*
X0114576Y0394484D02*
X0110639Y0394484D01*
X0111202Y0394859D01*
X0111577Y0395234D01*
X0111764Y0395609D01*
X0198735Y0381511D02*
X0198922Y0380948D01*
X0199109Y0380761D01*
X0199484Y0380573D01*
X0200047Y0380573D01*
X0200422Y0380761D01*
X0200609Y0380948D01*
X0200797Y0381323D01*
X0200797Y0382823D01*
X0196860Y0382823D01*
X0196860Y0381511D01*
X0197047Y0381136D01*
X0197235Y0380948D01*
X0197610Y0380761D01*
X0197985Y0380761D01*
X0198360Y0380948D01*
X0198547Y0381136D01*
X0198735Y0381511D01*
X0198735Y0382823D01*
X0196860Y0379261D02*
X0196860Y0376636D01*
X0200797Y0378324D01*
X0215776Y0397109D02*
X0215964Y0397296D01*
X0216151Y0397859D01*
X0216151Y0398234D01*
X0215964Y0398796D01*
X0215589Y0399171D01*
X0215214Y0399359D01*
X0214464Y0399546D01*
X0213901Y0399546D01*
X0213151Y0399359D01*
X0212777Y0399171D01*
X0212402Y0398796D01*
X0212214Y0398234D01*
X0212214Y0397859D01*
X0212402Y0397296D01*
X0212589Y0397109D01*
X0213901Y0394859D02*
X0213714Y0395234D01*
X0213526Y0395422D01*
X0213151Y0395609D01*
X0212964Y0395609D01*
X0212589Y0395422D01*
X0212402Y0395234D01*
X0212214Y0394859D01*
X0212214Y0394109D01*
X0212402Y0393734D01*
X0212589Y0393547D01*
X0212964Y0393359D01*
X0213151Y0393359D01*
X0213526Y0393547D01*
X0213714Y0393734D01*
X0213901Y0394109D01*
X0213901Y0394859D01*
X0214089Y0395234D01*
X0214276Y0395422D01*
X0214651Y0395609D01*
X0215401Y0395609D01*
X0215776Y0395422D01*
X0215964Y0395234D01*
X0216151Y0394859D01*
X0216151Y0394109D01*
X0215964Y0393734D01*
X0215776Y0393547D01*
X0215401Y0393359D01*
X0214651Y0393359D01*
X0214276Y0393547D01*
X0214089Y0393734D01*
X0213901Y0394109D01*
X0113451Y0367375D02*
X0113451Y0365500D01*
X0114576Y0367750D02*
X0110639Y0366438D01*
X0114576Y0365125D01*
X0114576Y0361751D02*
X0114576Y0364001D01*
X0114576Y0362876D02*
X0110639Y0362876D01*
X0111202Y0363251D01*
X0111577Y0363626D01*
X0111764Y0364001D01*
X0143616Y0381511D02*
X0143804Y0380948D01*
X0143991Y0380761D01*
X0144366Y0380573D01*
X0144929Y0380573D01*
X0145304Y0380761D01*
X0145491Y0380948D01*
X0145679Y0381323D01*
X0145679Y0382823D01*
X0141742Y0382823D01*
X0141742Y0381511D01*
X0141929Y0381136D01*
X0142117Y0380948D01*
X0142492Y0380761D01*
X0142867Y0380761D01*
X0143241Y0380948D01*
X0143429Y0381136D01*
X0143616Y0381511D01*
X0143616Y0382823D01*
X0141742Y0379261D02*
X0141742Y0376824D01*
X0143241Y0378136D01*
X0143241Y0377574D01*
X0143429Y0377199D01*
X0143616Y0377011D01*
X0143991Y0376824D01*
X0144929Y0376824D01*
X0145304Y0377011D01*
X0145491Y0377199D01*
X0145679Y0377574D01*
X0145679Y0378699D01*
X0145491Y0379074D01*
X0145304Y0379261D01*
X0144554Y0366981D02*
X0144554Y0365107D01*
X0145679Y0367356D02*
X0141742Y0366044D01*
X0145679Y0364732D01*
X0141742Y0363794D02*
X0141742Y0361357D01*
X0143241Y0362669D01*
X0143241Y0362107D01*
X0143429Y0361732D01*
X0143616Y0361545D01*
X0143991Y0361357D01*
X0144929Y0361357D01*
X0145304Y0361545D01*
X0145491Y0361732D01*
X0145679Y0362107D01*
X0145679Y0363232D01*
X0145491Y0363607D01*
X0145304Y0363794D01*
X0145304Y0397109D02*
X0145491Y0397296D01*
X0145679Y0397859D01*
X0145679Y0398234D01*
X0145491Y0398796D01*
X0145116Y0399171D01*
X0144741Y0399359D01*
X0143991Y0399546D01*
X0143429Y0399546D01*
X0142679Y0399359D01*
X0142304Y0399171D01*
X0141929Y0398796D01*
X0141742Y0398234D01*
X0141742Y0397859D01*
X0141929Y0397296D01*
X0142117Y0397109D01*
X0141742Y0395797D02*
X0141742Y0393359D01*
X0143241Y0394672D01*
X0143241Y0394109D01*
X0143429Y0393734D01*
X0143616Y0393547D01*
X0143991Y0393359D01*
X0144929Y0393359D01*
X0145304Y0393547D01*
X0145491Y0393734D01*
X0145679Y0394109D01*
X0145679Y0395234D01*
X0145491Y0395609D01*
X0145304Y0395797D01*
X0128656Y0381905D02*
X0128843Y0381342D01*
X0129031Y0381155D01*
X0129406Y0380967D01*
X0129968Y0380967D01*
X0130343Y0381155D01*
X0130531Y0381342D01*
X0130718Y0381717D01*
X0130718Y0383217D01*
X0126781Y0383217D01*
X0126781Y0381905D01*
X0126969Y0381530D01*
X0127156Y0381342D01*
X0127531Y0381155D01*
X0127906Y0381155D01*
X0128281Y0381342D01*
X0128468Y0381530D01*
X0128656Y0381905D01*
X0128656Y0383217D01*
X0127156Y0379467D02*
X0126969Y0379280D01*
X0126781Y0378905D01*
X0126781Y0377968D01*
X0126969Y0377593D01*
X0127156Y0377405D01*
X0127531Y0377218D01*
X0127906Y0377218D01*
X0128468Y0377405D01*
X0130718Y0379655D01*
X0130718Y0377218D01*
X0215026Y0366981D02*
X0215026Y0365107D01*
X0216151Y0367356D02*
X0212214Y0366044D01*
X0216151Y0364732D01*
X0213901Y0362857D02*
X0213714Y0363232D01*
X0213526Y0363419D01*
X0213151Y0363607D01*
X0212964Y0363607D01*
X0212589Y0363419D01*
X0212402Y0363232D01*
X0212214Y0362857D01*
X0212214Y0362107D01*
X0212402Y0361732D01*
X0212589Y0361545D01*
X0212964Y0361357D01*
X0213151Y0361357D01*
X0213526Y0361545D01*
X0213714Y0361732D01*
X0213901Y0362107D01*
X0213901Y0362857D01*
X0214089Y0363232D01*
X0214276Y0363419D01*
X0214651Y0363607D01*
X0215401Y0363607D01*
X0215776Y0363419D01*
X0215964Y0363232D01*
X0216151Y0362857D01*
X0216151Y0362107D01*
X0215964Y0361732D01*
X0215776Y0361545D01*
X0215401Y0361357D01*
X0214651Y0361357D01*
X0214276Y0361545D01*
X0214089Y0361732D01*
X0213901Y0362107D01*
X0158333Y0366981D02*
X0158333Y0365107D01*
X0159458Y0367356D02*
X0155521Y0366044D01*
X0159458Y0364732D01*
X0156834Y0361732D02*
X0159458Y0361732D01*
X0155334Y0362669D02*
X0158146Y0363607D01*
X0158146Y0361170D01*
X0112514Y0381511D02*
X0112702Y0380948D01*
X0112889Y0380761D01*
X0113264Y0380573D01*
X0113826Y0380573D01*
X0114201Y0380761D01*
X0114389Y0380948D01*
X0114576Y0381323D01*
X0114576Y0382823D01*
X0110639Y0382823D01*
X0110639Y0381511D01*
X0110827Y0381136D01*
X0111014Y0380948D01*
X0111389Y0380761D01*
X0111764Y0380761D01*
X0112139Y0380948D01*
X0112327Y0381136D01*
X0112514Y0381511D01*
X0112514Y0382823D01*
X0114576Y0376824D02*
X0114576Y0379074D01*
X0114576Y0377949D02*
X0110639Y0377949D01*
X0111202Y0378324D01*
X0111577Y0378699D01*
X0111764Y0379074D01*
X0186642Y0397109D02*
X0186830Y0397296D01*
X0187017Y0397859D01*
X0187017Y0398234D01*
X0186830Y0398796D01*
X0186455Y0399171D01*
X0186080Y0399359D01*
X0185330Y0399546D01*
X0184768Y0399546D01*
X0184018Y0399359D01*
X0183643Y0399171D01*
X0183268Y0398796D01*
X0183080Y0398234D01*
X0183080Y0397859D01*
X0183268Y0397296D01*
X0183455Y0397109D01*
X0183080Y0393734D02*
X0183080Y0394484D01*
X0183268Y0394859D01*
X0183455Y0395047D01*
X0184018Y0395422D01*
X0184768Y0395609D01*
X0186267Y0395609D01*
X0186642Y0395422D01*
X0186830Y0395234D01*
X0187017Y0394859D01*
X0187017Y0394109D01*
X0186830Y0393734D01*
X0186642Y0393547D01*
X0186267Y0393359D01*
X0185330Y0393359D01*
X0184955Y0393547D01*
X0184768Y0393734D01*
X0184580Y0394109D01*
X0184580Y0394859D01*
X0184768Y0395234D01*
X0184955Y0395422D01*
X0185330Y0395609D01*
D33*
X0108985Y0318711D02*
X0109969Y0320118D01*
X0110672Y0318711D02*
X0110672Y0321664D01*
X0109547Y0321664D01*
X0109266Y0321524D01*
X0109125Y0321383D01*
X0108985Y0321102D01*
X0108985Y0320680D01*
X0109125Y0320399D01*
X0109266Y0320258D01*
X0109547Y0320118D01*
X0110672Y0320118D01*
X0106173Y0318711D02*
X0107860Y0318711D01*
X0107016Y0318711D02*
X0107016Y0321664D01*
X0107298Y0321242D01*
X0107579Y0320961D01*
X0107860Y0320821D01*
X0105048Y0321383D02*
X0104907Y0321524D01*
X0104626Y0321664D01*
X0103923Y0321664D01*
X0103642Y0321524D01*
X0103501Y0321383D01*
X0103361Y0321102D01*
X0103361Y0320821D01*
X0103501Y0320399D01*
X0105188Y0318711D01*
X0103361Y0318711D01*
X0137725Y0318711D02*
X0138709Y0320118D01*
X0139412Y0318711D02*
X0139412Y0321664D01*
X0138287Y0321664D01*
X0138006Y0321524D01*
X0137866Y0321383D01*
X0137725Y0321102D01*
X0137725Y0320680D01*
X0137866Y0320399D01*
X0138006Y0320258D01*
X0138287Y0320118D01*
X0139412Y0320118D01*
X0134913Y0318711D02*
X0136600Y0318711D01*
X0135756Y0318711D02*
X0135756Y0321664D01*
X0136038Y0321242D01*
X0136319Y0320961D01*
X0136600Y0320821D01*
X0133226Y0320399D02*
X0133507Y0320539D01*
X0133647Y0320680D01*
X0133788Y0320961D01*
X0133788Y0321102D01*
X0133647Y0321383D01*
X0133507Y0321524D01*
X0133226Y0321664D01*
X0132663Y0321664D01*
X0132382Y0321524D01*
X0132241Y0321383D01*
X0132101Y0321102D01*
X0132101Y0320961D01*
X0132241Y0320680D01*
X0132382Y0320539D01*
X0132663Y0320399D01*
X0133226Y0320399D01*
X0133507Y0320258D01*
X0133647Y0320118D01*
X0133788Y0319836D01*
X0133788Y0319274D01*
X0133647Y0318993D01*
X0133507Y0318852D01*
X0133226Y0318711D01*
X0132663Y0318711D01*
X0132382Y0318852D01*
X0132241Y0318993D01*
X0132101Y0319274D01*
X0132101Y0319836D01*
X0132241Y0320118D01*
X0132382Y0320258D01*
X0132663Y0320399D01*
D146*
X0128362Y0316159D02*
X0129362Y0316159D01*
X0129362Y0314588D02*
X0129362Y0317588D01*
X0127934Y0317588D01*
X0125362Y0317588D02*
X0126791Y0317588D01*
X0126934Y0316159D01*
X0126791Y0316302D01*
X0126505Y0316445D01*
X0125791Y0316445D01*
X0125505Y0316302D01*
X0125362Y0316159D01*
X0125219Y0315873D01*
X0125219Y0315159D01*
X0125362Y0314873D01*
X0125505Y0314731D01*
X0125791Y0314588D01*
X0126505Y0314588D01*
X0126791Y0314731D01*
X0126934Y0314873D01*
X0206323Y0316553D02*
X0207323Y0316553D01*
X0207323Y0314981D02*
X0207323Y0317981D01*
X0205894Y0317981D01*
X0204894Y0317696D02*
X0204751Y0317839D01*
X0204466Y0317981D01*
X0203751Y0317981D01*
X0203466Y0317839D01*
X0203323Y0317696D01*
X0203180Y0317410D01*
X0203180Y0317124D01*
X0203323Y0316696D01*
X0205037Y0314981D01*
X0203180Y0314981D01*
D236*
X0288044Y0041122D02*
X0290401Y0041122D01*
X0236569Y0035215D02*
X0237552Y0034233D01*
X0237553Y0065138D02*
X0288977Y0065138D01*
X0285091Y0038170D02*
X0285091Y0034233D01*
X0236569Y0064154D02*
X0236569Y0035215D01*
X0288977Y0065138D02*
X0290401Y0063714D01*
X0290401Y0063714D02*
X0290401Y0041122D01*
X0237552Y0034233D02*
X0285091Y0034233D01*
X0288044Y0041122D02*
X0285091Y0038170D01*
X0237553Y0065138D02*
X0236569Y0064154D01*
D123*
X0199356Y0335864D02*
X0199356Y0339864D01*
X0193057Y0339864D02*
X0193057Y0335864D01*
X0199356Y0327864D02*
X0199356Y0331864D01*
X0193057Y0331864D02*
X0193057Y0327864D01*
D138*
X0193057Y0327664D02*
G75*
G03*
X0199362Y0327648I0003150J-001299D01*
G01*
X0199370Y0340099D02*
G75*
G03*
X0193057Y0340065I-003163J0001265D01*
G01*
D123*
X0191664Y0327949D02*
X0191664Y0331949D01*
X0185364Y0339949D02*
X0185364Y0335949D01*
X0185364Y0331949D02*
X0185364Y0327949D01*
X0191664Y0335949D02*
X0191664Y0339949D01*
D138*
X0191677Y0340184D02*
G75*
G03*
X0185364Y0340150I-003163J0001265D01*
G01*
X0185364Y0327748D02*
G75*
G03*
X0191670Y0327732I0003150J-001299D01*
G01*
X0148425Y0322441D02*
X0148425Y0341535D01*
X0140551Y0322441D02*
X0140551Y0341535D01*
X0140551Y0322244D02*
G75*
G03*
X0148425Y0322244I0003937J0000000D01*
G01*
X0148425Y0341535D02*
G75*
G03*
X0140551Y0341535I-003937J0000000D01*
G01*
D236*
X0314075Y0276495D02*
X0202539Y0276495D01*
X0200886Y0219507D02*
X0198917Y0221475D01*
X0320177Y0270392D02*
X0320177Y0221081D01*
X0318602Y0219507D02*
X0200886Y0219507D01*
X0320177Y0270392D02*
X0314075Y0276495D01*
X0320177Y0221081D02*
X0318602Y0219507D01*
X0198917Y0272853D02*
X0198917Y0221475D01*
X0202559Y0276495D02*
X0198917Y0272853D01*
D138*
X0247962Y0293031D02*
X0249165Y0293031D01*
X0239896Y0282559D02*
X0238693Y0282559D01*
X0239852Y0293031D02*
X0238693Y0293031D01*
X0248006Y0282559D02*
X0249165Y0282559D01*
X0238693Y0282559D02*
X0238693Y0293031D01*
X0249165Y0293031D02*
X0249165Y0282559D01*
D123*
X0099606Y0335858D02*
X0099606Y0339858D01*
X0093307Y0339858D02*
X0093307Y0335858D01*
X0093307Y0331858D02*
X0093307Y0327858D01*
X0099606Y0327858D02*
X0099606Y0331858D01*
D138*
X0093307Y0327657D02*
G75*
G03*
X0099613Y0327642I0003150J-001299D01*
G01*
X0099620Y0340093D02*
G75*
G03*
X0093307Y0340059I-003163J0001265D01*
G01*
D123*
X0279039Y0403937D02*
X0283039Y0403937D01*
X0283039Y0410236D02*
X0279039Y0410236D01*
X0291039Y0410236D02*
X0287039Y0410236D01*
X0287039Y0403937D02*
X0291039Y0403937D01*
D138*
X0291240Y0403937D02*
G75*
G03*
X0291256Y0410243I0001299J0003150D01*
G01*
X0278805Y0410250D02*
G75*
G03*
X0278839Y0403937I-001265J-003163D01*
G01*
D123*
X0156299Y0335858D02*
X0156299Y0339858D01*
X0150000Y0331858D02*
X0150000Y0327858D01*
X0150000Y0339858D02*
X0150000Y0335858D01*
X0156299Y0327858D02*
X0156299Y0331858D01*
D138*
X0156313Y0340093D02*
G75*
G03*
X0150000Y0340059I-003163J0001265D01*
G01*
X0150000Y0327657D02*
G75*
G03*
X0156306Y0327642I0003150J-001299D01*
G01*
D123*
X0175591Y0331858D02*
X0175591Y0327858D01*
X0175591Y0339858D02*
X0175591Y0335858D01*
X0181890Y0335858D02*
X0181890Y0339858D01*
X0181890Y0327858D02*
X0181890Y0331858D01*
D138*
X0175591Y0327657D02*
G75*
G03*
X0181896Y0327642I0003150J-001299D01*
G01*
X0181904Y0340093D02*
G75*
G03*
X0175591Y0340059I-003163J0001265D01*
G01*
D236*
X0227656Y0064419D02*
X0200518Y0064419D01*
X0200671Y0020423D02*
X0200518Y0064419D01*
X0227434Y0021506D02*
X0224186Y0021506D01*
X0223104Y0020423D02*
X0224186Y0021506D01*
X0223104Y0020423D02*
X0200671Y0020423D01*
X0227434Y0021506D02*
X0227631Y0021727D01*
X0227631Y0021727D02*
X0227631Y0064419D01*
X0088252Y0280070D02*
X0052524Y0280070D01*
X0095437Y0255563D02*
X0092484Y0258515D01*
X0092484Y0275838D02*
X0088252Y0280070D01*
X0116205Y0255070D02*
X0115713Y0255563D01*
X0115713Y0255563D02*
X0095437Y0255563D01*
X0116205Y0218948D02*
X0052524Y0218948D01*
X0116205Y0255070D02*
X0116205Y0218948D01*
X0052524Y0280070D02*
X0052524Y0218948D01*
X0092484Y0275838D02*
X0092484Y0258515D01*
X0185039Y0227362D02*
X0119094Y0227362D01*
X0119094Y0227362D02*
X0119094Y0298425D01*
X0119094Y0298425D02*
X0185039Y0298425D01*
X0185039Y0298425D02*
X0185039Y0227362D01*
D123*
X0173622Y0327858D02*
X0173622Y0331858D01*
X0167323Y0339858D02*
X0167323Y0335858D01*
X0173622Y0335858D02*
X0173622Y0339858D01*
X0167323Y0331858D02*
X0167323Y0327858D01*
D138*
X0173636Y0340093D02*
G75*
G03*
X0167323Y0340059I-003163J0001265D01*
G01*
X0167323Y0327657D02*
G75*
G03*
X0173628Y0327642I0003150J-001299D01*
G01*
D123*
X0114961Y0331858D02*
X0114961Y0327858D01*
X0121260Y0335858D02*
X0121260Y0339858D01*
X0121260Y0327858D02*
X0121260Y0331858D01*
X0114961Y0339858D02*
X0114961Y0335858D01*
D138*
X0114961Y0327657D02*
G75*
G03*
X0121266Y0327642I0003150J-001299D01*
G01*
X0121274Y0340093D02*
G75*
G03*
X0114961Y0340059I-003163J0001265D01*
G01*
X0211992Y0322244D02*
X0211992Y0341339D01*
X0219866Y0322244D02*
X0219866Y0341339D01*
X0211992Y0322047D02*
G75*
G03*
X0219866Y0322047I0003937J0000000D01*
G01*
X0219866Y0341339D02*
G75*
G03*
X0211992Y0341339I-003937J0000000D01*
G01*
D123*
X0291039Y0392520D02*
X0287039Y0392520D01*
X0287039Y0386220D02*
X0291039Y0386220D01*
X0283039Y0392520D02*
X0279039Y0392520D01*
X0279039Y0386220D02*
X0283039Y0386220D01*
D138*
X0278839Y0392520D02*
G75*
G03*
X0278823Y0386214I-001299J-003150D01*
G01*
X0291274Y0386207D02*
G75*
G03*
X0291240Y0392520I0001265J0003163D01*
G01*
X0157874Y0322441D02*
X0157874Y0341535D01*
X0165748Y0322441D02*
X0165748Y0341535D01*
X0157874Y0322244D02*
G75*
G03*
X0165748Y0322244I0003937J0000000D01*
G01*
X0165748Y0341535D02*
G75*
G03*
X0157874Y0341535I-003937J0000000D01*
G01*
D236*
X0318380Y0212609D02*
X0139589Y0212609D01*
X0318700Y0066353D02*
X0147884Y0066353D01*
X0138241Y0069991D02*
X0138241Y0211261D01*
X0139124Y0069109D02*
X0138241Y0069991D01*
X0147884Y0066353D02*
X0145128Y0069109D01*
X0145128Y0069109D02*
X0139124Y0069109D01*
X0139589Y0212609D02*
X0138241Y0211261D01*
X0320620Y0068273D02*
X0318700Y0066353D01*
X0320620Y0068273D02*
X0320620Y0210368D01*
X0320620Y0210368D02*
X0318380Y0212609D01*
D123*
X0228079Y0335858D02*
X0228079Y0339858D01*
X0221780Y0331858D02*
X0221780Y0327858D01*
X0221780Y0339858D02*
X0221780Y0335858D01*
X0228079Y0327858D02*
X0228079Y0331858D01*
D138*
X0221780Y0327657D02*
G75*
G03*
X0228085Y0327642I0003150J-001299D01*
G01*
X0228092Y0340093D02*
G75*
G03*
X0221780Y0340059I-003163J0001265D01*
G01*
D123*
X0229780Y0339858D02*
X0229780Y0335858D01*
X0229780Y0331858D02*
X0229780Y0327858D01*
X0236079Y0327858D02*
X0236079Y0331858D01*
X0236079Y0335858D02*
X0236079Y0339858D01*
D138*
X0236092Y0340093D02*
G75*
G03*
X0229780Y0340059I-003163J0001265D01*
G01*
X0229780Y0327657D02*
G75*
G03*
X0236085Y0327642I0003150J-001299D01*
G01*
D123*
X0279039Y0394488D02*
X0283039Y0394488D01*
X0283039Y0400787D02*
X0279039Y0400787D01*
X0291039Y0400787D02*
X0287039Y0400787D01*
X0287039Y0394488D02*
X0291039Y0394488D01*
D138*
X0291240Y0394488D02*
G75*
G03*
X0291256Y0400794I0001299J0003150D01*
G01*
X0278805Y0400801D02*
G75*
G03*
X0278839Y0394488I-001265J-003163D01*
G01*
D123*
X0237780Y0340047D02*
X0237780Y0336047D01*
X0244079Y0336047D02*
X0244079Y0340047D01*
X0244079Y0328047D02*
X0244079Y0332047D01*
X0237780Y0332047D02*
X0237780Y0328047D01*
D138*
X0237780Y0327846D02*
G75*
G03*
X0244085Y0327831I0003150J-001299D01*
G01*
X0244092Y0340282D02*
G75*
G03*
X0237780Y0340248I-003163J0001265D01*
G01*
D236*
X0120915Y0205659D02*
X0118553Y0208022D01*
X0118553Y0210089D02*
X0115994Y0212648D01*
X0120915Y0057431D02*
X0092373Y0057431D01*
X0118553Y0208022D02*
X0118553Y0210089D01*
X0092373Y0057431D02*
X0092666Y0212648D01*
X0120915Y0057431D02*
X0120915Y0205659D01*
X0115994Y0212648D02*
X0092666Y0212648D01*
X0098376Y0178593D02*
X0098376Y0188927D01*
D123*
X0103937Y0339858D02*
X0103937Y0335858D01*
X0110236Y0327858D02*
X0110236Y0331858D01*
X0103937Y0331858D02*
X0103937Y0327858D01*
X0110236Y0335858D02*
X0110236Y0339858D01*
D138*
X0103937Y0327657D02*
G75*
G03*
X0110243Y0327642I0003150J-001299D01*
G01*
X0110250Y0340093D02*
G75*
G03*
X0103937Y0340059I-003163J0001265D01*
G01*
D123*
X0138976Y0335858D02*
X0138976Y0339858D01*
X0132677Y0339858D02*
X0132677Y0335858D01*
X0138976Y0327858D02*
X0138976Y0331858D01*
X0132677Y0331858D02*
X0132677Y0327858D01*
D138*
X0138990Y0340093D02*
G75*
G03*
X0132677Y0340059I-003163J0001265D01*
G01*
X0132677Y0327657D02*
G75*
G03*
X0138983Y0327642I0003150J-001299D01*
G01*
X0123228Y0322047D02*
X0123228Y0341142D01*
X0131102Y0322047D02*
X0131102Y0341142D01*
X0123228Y0321850D02*
G75*
G03*
X0131102Y0321850I0003937J0000000D01*
G01*
X0131102Y0341142D02*
G75*
G03*
X0123228Y0341142I-003937J0000000D01*
G01*
X0208866Y0322441D02*
X0208866Y0341535D01*
X0200992Y0322441D02*
X0200992Y0341535D01*
X0208866Y0341535D02*
G75*
G03*
X0200992Y0341535I-003937J0000000D01*
G01*
X0200992Y0322244D02*
G75*
G03*
X0208866Y0322244I0003937J0000000D01*
G01*
D49*
X0250186Y0018095D02*
X0250196Y0015355D01*
X0250196Y0015355D02*
X0250806Y0012635D01*
X0250806Y0012635D02*
X0251986Y0010065D01*
X0251986Y0010065D02*
X0253676Y0007795D01*
X0253676Y0007795D02*
X0254276Y0007175D01*
X0254276Y0007175D02*
X0256296Y0005535D01*
X0256296Y0005535D02*
X0258366Y0004445D01*
X0258366Y0004445D02*
X0260676Y0003835D01*
X0260676Y0003835D02*
X0262886Y0003645D01*
X0262886Y0003645D02*
X0265226Y0003665D01*
X0265226Y0003665D02*
X0267036Y0003935D01*
X0267036Y0003935D02*
X0267546Y0004075D01*
X0267546Y0004075D02*
X0270216Y0005265D01*
X0270216Y0005265D02*
X0272526Y0007015D01*
X0272526Y0007015D02*
X0274486Y0009325D01*
X0274486Y0009325D02*
X0275626Y0011235D01*
X0275626Y0011235D02*
X0276046Y0012095D01*
X0276046Y0012095D02*
X0276316Y0012875D01*
X0276316Y0012875D02*
X0276466Y0013745D01*
X0276466Y0013745D02*
X0276536Y0014885D01*
X0276536Y0014885D02*
X0276556Y0016495D01*
X0276556Y0016495D02*
X0276556Y0016705D01*
X0276556Y0016705D02*
X0276536Y0018375D01*
X0276536Y0018375D02*
X0276476Y0019575D01*
X0276476Y0019575D02*
X0276326Y0020485D01*
X0276326Y0020485D02*
X0276066Y0021305D01*
X0276066Y0021305D02*
X0275656Y0022215D01*
X0275656Y0022215D02*
X0275596Y0022315D01*
X0275596Y0022315D02*
X0274286Y0024395D01*
X0274286Y0024395D02*
X0272506Y0026355D01*
X0272506Y0026355D02*
X0270466Y0027975D01*
X0270466Y0027975D02*
X0269196Y0028715D01*
X0269196Y0028715D02*
X0268256Y0029145D01*
X0268256Y0029145D02*
X0267446Y0029435D01*
X0267446Y0029435D02*
X0266556Y0029595D01*
X0266556Y0029595D02*
X0265416Y0029675D01*
X0265416Y0029675D02*
X0263816Y0029695D01*
X0263816Y0029695D02*
X0263546Y0029695D01*
X0263546Y0029695D02*
X0261896Y0029685D01*
X0261896Y0029685D02*
X0260706Y0029625D01*
X0260706Y0029625D02*
X0259806Y0029485D01*
X0259806Y0029485D02*
X0258986Y0029225D01*
X0258986Y0029225D02*
X0258056Y0028805D01*
X0258056Y0028805D02*
X0257716Y0028635D01*
X0257716Y0028635D02*
X0255606Y0027305D01*
X0255606Y0027305D02*
X0253626Y0025545D01*
X0253626Y0025545D02*
X0252016Y0023555D01*
X0252016Y0023555D02*
X0251746Y0023115D01*
X0251746Y0023115D02*
X0250996Y0021865D01*
X0250996Y0021865D02*
X0252996Y0021865D01*
X0252996Y0021865D02*
X0254226Y0021815D01*
X0254226Y0021815D02*
X0254926Y0021635D01*
X0254926Y0021635D02*
X0255176Y0021375D01*
X0255176Y0021375D02*
X0255116Y0020945D01*
X0255116Y0020945D02*
X0254836Y0020875D01*
X0254836Y0020875D02*
X0254476Y0020705D01*
X0254476Y0020705D02*
X0254466Y0020105D01*
X0254466Y0020105D02*
X0254496Y0019955D01*
X0254496Y0019955D02*
X0254636Y0019235D01*
X0254636Y0019235D02*
X0254846Y0018055D01*
X0254846Y0018055D02*
X0255116Y0016605D01*
X0255116Y0016605D02*
X0255266Y0015735D01*
X0255266Y0015735D02*
X0255576Y0014155D01*
X0255576Y0014155D02*
X0255846Y0013125D01*
X0255846Y0013125D02*
X0256116Y0012535D01*
X0256116Y0012535D02*
X0256416Y0012295D01*
X0256416Y0012295D02*
X0256456Y0012285D01*
X0256456Y0012285D02*
X0256506Y0012265D01*
X0256506Y0012265D02*
X0256506Y0021865D01*
X0256506Y0021865D02*
X0260276Y0021865D01*
X0260276Y0021865D02*
X0261946Y0021855D01*
X0261946Y0021855D02*
X0263056Y0021805D01*
X0263056Y0021805D02*
X0263706Y0021705D01*
X0263706Y0021705D02*
X0263996Y0021545D01*
X0263996Y0021545D02*
X0264056Y0021365D01*
X0264056Y0021365D02*
X0263786Y0020925D01*
X0263786Y0020925D02*
X0263556Y0020865D01*
X0263556Y0020865D02*
X0263326Y0020885D01*
X0263326Y0020885D02*
X0263176Y0020855D01*
X0263176Y0020855D02*
X0263116Y0020685D01*
X0263116Y0020685D02*
X0263146Y0020275D01*
X0263146Y0020275D02*
X0263286Y0019505D01*
X0263286Y0019505D02*
X0263526Y0018295D01*
X0263526Y0018295D02*
X0263886Y0016535D01*
X0263886Y0016535D02*
X0264206Y0014975D01*
X0264206Y0014975D02*
X0264466Y0013665D01*
X0264466Y0013665D02*
X0264646Y0012745D01*
X0264646Y0012745D02*
X0264716Y0012335D01*
X0264716Y0012335D02*
X0264716Y0012325D01*
X0264716Y0012325D02*
X0264996Y0012215D01*
X0264996Y0012215D02*
X0265216Y0012205D01*
X0265216Y0012205D02*
X0265506Y0012095D01*
X0265506Y0012095D02*
X0265506Y0021865D01*
X0265506Y0021865D02*
X0269276Y0021865D01*
X0269276Y0021865D02*
X0270946Y0021855D01*
X0270946Y0021855D02*
X0272056Y0021805D01*
X0272056Y0021805D02*
X0272706Y0021705D01*
X0272706Y0021705D02*
X0272996Y0021545D01*
X0272996Y0021545D02*
X0273056Y0021365D01*
X0273056Y0021365D02*
X0272786Y0020935D01*
X0272786Y0020935D02*
X0272536Y0020865D01*
X0272536Y0020865D02*
X0272156Y0020645D01*
X0272156Y0020645D02*
X0272176Y0020285D01*
X0272176Y0020285D02*
X0272306Y0019735D01*
X0272306Y0019735D02*
X0272536Y0018685D01*
X0272536Y0018685D02*
X0272816Y0017305D01*
X0272816Y0017305D02*
X0273086Y0015955D01*
X0273086Y0015955D02*
X0273486Y0014075D01*
X0273486Y0014075D02*
X0273846Y0012835D01*
X0273846Y0012835D02*
X0274146Y0012255D01*
X0274146Y0012255D02*
X0274246Y0012205D01*
X0274246Y0012205D02*
X0274796Y0011975D01*
X0274796Y0011975D02*
X0274886Y0011865D01*
X0274886Y0011865D02*
X0274666Y0011715D01*
X0274666Y0011715D02*
X0273816Y0011605D01*
X0273816Y0011605D02*
X0272356Y0011545D01*
X0272356Y0011545D02*
X0271076Y0011535D01*
X0271076Y0011535D02*
X0267056Y0011535D01*
X0267056Y0011535D02*
X0267056Y0012535D01*
X0267056Y0012535D02*
X0267206Y0013335D01*
X0267206Y0013335D02*
X0267556Y0013535D01*
X0267556Y0013535D02*
X0267996Y0013285D01*
X0267996Y0013285D02*
X0268056Y0013065D01*
X0268056Y0013065D02*
X0268346Y0012795D01*
X0268346Y0012795D02*
X0269076Y0012525D01*
X0269076Y0012525D02*
X0269996Y0012315D01*
X0269996Y0012315D02*
X0270886Y0012205D01*
X0270886Y0012205D02*
X0271506Y0012255D01*
X0271506Y0012255D02*
X0271616Y0012325D01*
X0271616Y0012325D02*
X0271676Y0012725D01*
X0271676Y0012725D02*
X0271646Y0013585D01*
X0271646Y0013585D02*
X0271566Y0014355D01*
X0271566Y0014355D02*
X0271336Y0016205D01*
X0271336Y0016205D02*
X0270026Y0016205D01*
X0270026Y0016205D02*
X0269206Y0016125D01*
X0269206Y0016125D02*
X0268746Y0015915D01*
X0268746Y0015915D02*
X0268716Y0015845D01*
X0268716Y0015845D02*
X0268586Y0015515D01*
X0268586Y0015515D02*
X0268286Y0015655D01*
X0268286Y0015655D02*
X0267936Y0016125D01*
X0267936Y0016125D02*
X0267686Y0016805D01*
X0267686Y0016805D02*
X0267686Y0016815D01*
X0267686Y0016815D02*
X0267616Y0017575D01*
X0267616Y0017575D02*
X0267836Y0017865D01*
X0267836Y0017865D02*
X0267926Y0017865D01*
X0267926Y0017865D02*
X0268346Y0017675D01*
X0268346Y0017675D02*
X0268386Y0017535D01*
X0268386Y0017535D02*
X0268686Y0017325D01*
X0268686Y0017325D02*
X0269416Y0017205D01*
X0269416Y0017205D02*
X0269666Y0017205D01*
X0269666Y0017205D02*
X0270936Y0017205D01*
X0270936Y0017205D02*
X0270606Y0019035D01*
X0270606Y0019035D02*
X0270276Y0020875D01*
X0270276Y0020875D02*
X0268296Y0020865D01*
X0268296Y0020865D02*
X0267186Y0020845D01*
X0267186Y0020845D02*
X0266616Y0020735D01*
X0266616Y0020735D02*
X0266476Y0020505D01*
X0266476Y0020505D02*
X0266506Y0020365D01*
X0266506Y0020365D02*
X0266466Y0019935D01*
X0266466Y0019935D02*
X0266246Y0019865D01*
X0266246Y0019865D02*
X0265886Y0020165D01*
X0265886Y0020165D02*
X0265656Y0020855D01*
X0265656Y0020855D02*
X0265646Y0020865D01*
X0265646Y0020865D02*
X0265506Y0021865D01*
X0265506Y0021865D02*
X0265506Y0012095D01*
X0265506Y0012095D02*
X0265666Y0012025D01*
X0265666Y0012025D02*
X0265716Y0011865D01*
X0265716Y0011865D02*
X0265416Y0011695D01*
X0265416Y0011695D02*
X0264626Y0011575D01*
X0264626Y0011575D02*
X0263716Y0011535D01*
X0263716Y0011535D02*
X0262656Y0011585D01*
X0262656Y0011585D02*
X0261936Y0011715D01*
X0261936Y0011715D02*
X0261716Y0011865D01*
X0261716Y0011865D02*
X0261996Y0012155D01*
X0261996Y0012155D02*
X0262256Y0012205D01*
X0262256Y0012205D02*
X0262576Y0012305D01*
X0262576Y0012305D02*
X0262676Y0012725D01*
X0262676Y0012725D02*
X0262586Y0013615D01*
X0262586Y0013615D02*
X0262566Y0013745D01*
X0262566Y0013745D02*
X0262386Y0014775D01*
X0262386Y0014775D02*
X0262216Y0015555D01*
X0262216Y0015555D02*
X0262156Y0015745D01*
X0262156Y0015745D02*
X0261776Y0016025D01*
X0261776Y0016025D02*
X0261086Y0016185D01*
X0261086Y0016185D02*
X0260336Y0016185D01*
X0260336Y0016185D02*
X0259816Y0016035D01*
X0259816Y0016035D02*
X0259716Y0015865D01*
X0259716Y0015865D02*
X0259556Y0015515D01*
X0259556Y0015515D02*
X0259186Y0015585D01*
X0259186Y0015585D02*
X0258796Y0015995D01*
X0258796Y0015995D02*
X0258626Y0016455D01*
X0258626Y0016455D02*
X0258546Y0017295D01*
X0258546Y0017295D02*
X0258746Y0017535D01*
X0258746Y0017535D02*
X0259126Y0017265D01*
X0259126Y0017265D02*
X0259716Y0016995D01*
X0259716Y0016995D02*
X0260596Y0016875D01*
X0260596Y0016875D02*
X0260666Y0016865D01*
X0260666Y0016865D02*
X0261806Y0016865D01*
X0261806Y0016865D02*
X0261576Y0018605D01*
X0261576Y0018605D02*
X0261416Y0019635D01*
X0261416Y0019635D02*
X0261256Y0020385D01*
X0261256Y0020385D02*
X0261186Y0020605D01*
X0261186Y0020605D02*
X0260786Y0020745D01*
X0260786Y0020745D02*
X0259926Y0020845D01*
X0259926Y0020845D02*
X0259166Y0020865D01*
X0259166Y0020865D02*
X0258106Y0020835D01*
X0258106Y0020835D02*
X0257586Y0020715D01*
X0257586Y0020715D02*
X0257476Y0020475D01*
X0257476Y0020475D02*
X0257506Y0020375D01*
X0257506Y0020375D02*
X0257466Y0019935D01*
X0257466Y0019935D02*
X0257246Y0019865D01*
X0257246Y0019865D02*
X0256886Y0020165D01*
X0256886Y0020165D02*
X0256656Y0020855D01*
X0256656Y0020855D02*
X0256646Y0020865D01*
X0256646Y0020865D02*
X0256506Y0021865D01*
X0256506Y0021865D02*
X0256506Y0012265D01*
X0256506Y0012265D02*
X0257026Y0012045D01*
X0257026Y0012045D02*
X0256996Y0011815D01*
X0256996Y0011815D02*
X0256446Y0011635D01*
X0256446Y0011635D02*
X0255436Y0011545D01*
X0255436Y0011545D02*
X0255056Y0011535D01*
X0255056Y0011535D02*
X0253986Y0011585D01*
X0253986Y0011585D02*
X0253266Y0011715D01*
X0253266Y0011715D02*
X0253056Y0011865D01*
X0253056Y0011865D02*
X0253326Y0012165D01*
X0253326Y0012165D02*
X0253556Y0012205D01*
X0253556Y0012205D02*
X0253796Y0012225D01*
X0253796Y0012225D02*
X0253946Y0012345D01*
X0253946Y0012345D02*
X0253986Y0012665D01*
X0253986Y0012665D02*
X0253926Y0013295D01*
X0253926Y0013295D02*
X0253756Y0014325D01*
X0253756Y0014325D02*
X0253456Y0015855D01*
X0253456Y0015855D02*
X0253256Y0016855D01*
X0253256Y0016855D02*
X0252846Y0018755D01*
X0252846Y0018755D02*
X0252466Y0020055D01*
X0252466Y0020055D02*
X0252146Y0020725D01*
X0252146Y0020725D02*
X0252026Y0020815D01*
X0252026Y0020815D02*
X0251446Y0021185D01*
X0251446Y0021185D02*
X0251326Y0021325D01*
X0251326Y0021325D02*
X0251076Y0021355D01*
X0251076Y0021355D02*
X0250786Y0020835D01*
X0250786Y0020835D02*
X0250496Y0019885D01*
X0250496Y0019885D02*
X0250256Y0018635D01*
X0250256Y0018635D02*
X0250186Y0018095D01*
X0250186Y0018095D02*
X0250186Y0018095D01*
G36*
X0256416Y0012295D02*
G01*
X0256116Y0012535D01*
X0255846Y0013125D01*
X0255576Y0014155D01*
X0255266Y0015735D01*
X0255116Y0016605D01*
X0254846Y0018055D01*
X0254636Y0019235D01*
X0254496Y0019955D01*
X0254466Y0020105D01*
X0254476Y0020705D01*
X0254836Y0020875D01*
X0255116Y0020945D01*
X0255176Y0021375D01*
X0254926Y0021635D01*
X0254226Y0021815D01*
X0252996Y0021865D01*
X0256506Y0021865D01*
X0256646Y0020865D01*
X0256656Y0020855D01*
X0256886Y0020165D01*
X0257246Y0019865D01*
X0257466Y0019935D01*
X0257506Y0020375D01*
X0257476Y0020475D01*
X0257586Y0020715D01*
X0258106Y0020835D01*
X0259166Y0020865D01*
X0259926Y0020845D01*
X0260786Y0020745D01*
X0261186Y0020605D01*
X0261256Y0020385D01*
X0261416Y0019635D01*
X0261576Y0018605D01*
X0261806Y0016865D01*
X0260666Y0016865D01*
X0260596Y0016875D01*
X0259716Y0016995D01*
X0259126Y0017265D01*
X0258746Y0017535D01*
X0258546Y0017295D01*
X0258626Y0016455D01*
X0258796Y0015995D01*
X0259186Y0015585D01*
X0259556Y0015515D01*
X0259716Y0015865D01*
X0259816Y0016035D01*
X0260336Y0016185D01*
X0261086Y0016185D01*
X0261776Y0016025D01*
X0262156Y0015745D01*
X0262216Y0015555D01*
X0262386Y0014775D01*
X0262566Y0013745D01*
X0262586Y0013615D01*
X0262676Y0012725D01*
X0262576Y0012305D01*
X0262256Y0012205D01*
X0261996Y0012155D01*
X0261716Y0011865D01*
X0261936Y0011715D01*
X0262656Y0011585D01*
X0263716Y0011535D01*
X0264626Y0011575D01*
X0265416Y0011695D01*
X0265716Y0011865D01*
X0265666Y0012025D01*
X0265506Y0012095D01*
X0265216Y0012205D01*
X0264996Y0012215D01*
X0264716Y0012325D01*
X0264716Y0012335D01*
X0264646Y0012745D01*
X0264466Y0013665D01*
X0264206Y0014975D01*
X0263886Y0016535D01*
X0263526Y0018295D01*
X0263286Y0019505D01*
X0263146Y0020275D01*
X0263116Y0020685D01*
X0263176Y0020855D01*
X0263326Y0020885D01*
X0263556Y0020865D01*
X0263786Y0020925D01*
X0264056Y0021365D01*
X0263996Y0021545D01*
X0263706Y0021705D01*
X0263056Y0021805D01*
X0261946Y0021855D01*
X0260276Y0021865D01*
X0265506Y0021865D01*
X0265646Y0020865D01*
X0265656Y0020855D01*
X0265886Y0020165D01*
X0266246Y0019865D01*
X0266466Y0019935D01*
X0266506Y0020365D01*
X0266476Y0020505D01*
X0266616Y0020735D01*
X0267186Y0020845D01*
X0268296Y0020865D01*
X0270276Y0020875D01*
X0270606Y0019035D01*
X0270936Y0017205D01*
X0269416Y0017205D01*
X0268686Y0017325D01*
X0268386Y0017535D01*
X0268346Y0017675D01*
X0267926Y0017865D01*
X0267836Y0017865D01*
X0267616Y0017575D01*
X0267686Y0016815D01*
X0267686Y0016805D01*
X0267936Y0016125D01*
X0268286Y0015655D01*
X0268586Y0015515D01*
X0268716Y0015845D01*
X0268746Y0015915D01*
X0269206Y0016125D01*
X0270026Y0016205D01*
X0271336Y0016205D01*
X0271566Y0014355D01*
X0271646Y0013585D01*
X0271676Y0012725D01*
X0271616Y0012325D01*
X0271506Y0012255D01*
X0270886Y0012205D01*
X0269996Y0012315D01*
X0269076Y0012525D01*
X0268346Y0012795D01*
X0268056Y0013065D01*
X0267996Y0013285D01*
X0267556Y0013535D01*
X0267206Y0013335D01*
X0267056Y0012535D01*
X0267056Y0011535D01*
X0271076Y0011535D01*
X0272356Y0011545D01*
X0273816Y0011605D01*
X0274666Y0011715D01*
X0274886Y0011865D01*
X0274796Y0011975D01*
X0274246Y0012205D01*
X0274146Y0012255D01*
X0273846Y0012835D01*
X0273486Y0014075D01*
X0273086Y0015955D01*
X0272816Y0017305D01*
X0272536Y0018685D01*
X0272306Y0019735D01*
X0272176Y0020285D01*
X0272156Y0020645D01*
X0272536Y0020865D01*
X0272786Y0020935D01*
X0273056Y0021365D01*
X0272996Y0021545D01*
X0272706Y0021705D01*
X0272056Y0021805D01*
X0270946Y0021855D01*
X0269276Y0021865D01*
X0265506Y0021865D01*
X0260276Y0021865D01*
X0256506Y0021865D01*
X0252996Y0021865D01*
X0250996Y0021865D01*
X0251746Y0023115D01*
X0252016Y0023555D01*
X0253626Y0025545D01*
X0255606Y0027305D01*
X0257716Y0028635D01*
X0258056Y0028805D01*
X0258986Y0029225D01*
X0259806Y0029485D01*
X0260706Y0029625D01*
X0261896Y0029685D01*
X0263546Y0029695D01*
X0263816Y0029695D01*
X0265416Y0029675D01*
X0266556Y0029595D01*
X0267446Y0029435D01*
X0268256Y0029145D01*
X0269196Y0028715D01*
X0270466Y0027975D01*
X0272506Y0026355D01*
X0274286Y0024395D01*
X0275596Y0022315D01*
X0275656Y0022215D01*
X0276066Y0021305D01*
X0276326Y0020485D01*
X0276476Y0019575D01*
X0276536Y0018375D01*
X0276556Y0016705D01*
X0276556Y0016495D01*
X0276536Y0014885D01*
X0276466Y0013745D01*
X0276316Y0012875D01*
X0276046Y0012095D01*
X0275626Y0011235D01*
X0274486Y0009325D01*
X0272526Y0007015D01*
X0270216Y0005265D01*
X0267546Y0004075D01*
X0267036Y0003935D01*
X0265226Y0003665D01*
X0262886Y0003645D01*
X0260676Y0003835D01*
X0258366Y0004445D01*
X0256296Y0005535D01*
X0254276Y0007175D01*
X0253676Y0007795D01*
X0251986Y0010065D01*
X0250806Y0012635D01*
X0250196Y0015355D01*
X0250186Y0018095D01*
X0250256Y0018635D01*
X0250496Y0019885D01*
X0250786Y0020835D01*
X0251076Y0021355D01*
X0251326Y0021325D01*
X0251446Y0021185D01*
X0252026Y0020815D01*
X0252146Y0020725D01*
X0252466Y0020055D01*
X0252846Y0018755D01*
X0253256Y0016855D01*
X0253456Y0015855D01*
X0253756Y0014325D01*
X0253926Y0013295D01*
X0253986Y0012665D01*
X0253946Y0012345D01*
X0253796Y0012225D01*
X0253556Y0012205D01*
X0253326Y0012165D01*
X0253056Y0011865D01*
X0253266Y0011715D01*
X0253986Y0011585D01*
X0255056Y0011535D01*
X0255436Y0011545D01*
X0256446Y0011635D01*
X0256996Y0011815D01*
X0257026Y0012045D01*
X0256506Y0012265D01*
X0256456Y0012285D01*
X0256416Y0012295D01*
G37*
X0256416Y0012295D02*
X0256116Y0012535D01*
X0255846Y0013125D01*
X0255576Y0014155D01*
X0255266Y0015735D01*
X0255116Y0016605D01*
X0254846Y0018055D01*
X0254636Y0019235D01*
X0254496Y0019955D01*
X0254466Y0020105D01*
X0254476Y0020705D01*
X0254836Y0020875D01*
X0255116Y0020945D01*
X0255176Y0021375D01*
X0254926Y0021635D01*
X0254226Y0021815D01*
X0252996Y0021865D01*
X0256506Y0021865D01*
X0256646Y0020865D01*
X0256656Y0020855D01*
X0256886Y0020165D01*
X0257246Y0019865D01*
X0257466Y0019935D01*
X0257506Y0020375D01*
X0257476Y0020475D01*
X0257586Y0020715D01*
X0258106Y0020835D01*
X0259166Y0020865D01*
X0259926Y0020845D01*
X0260786Y0020745D01*
X0261186Y0020605D01*
X0261256Y0020385D01*
X0261416Y0019635D01*
X0261576Y0018605D01*
X0261806Y0016865D01*
X0260666Y0016865D01*
X0260596Y0016875D01*
X0259716Y0016995D01*
X0259126Y0017265D01*
X0258746Y0017535D01*
X0258546Y0017295D01*
X0258626Y0016455D01*
X0258796Y0015995D01*
X0259186Y0015585D01*
X0259556Y0015515D01*
X0259716Y0015865D01*
X0259816Y0016035D01*
X0260336Y0016185D01*
X0261086Y0016185D01*
X0261776Y0016025D01*
X0262156Y0015745D01*
X0262216Y0015555D01*
X0262386Y0014775D01*
X0262566Y0013745D01*
X0262586Y0013615D01*
X0262676Y0012725D01*
X0262576Y0012305D01*
X0262256Y0012205D01*
X0261996Y0012155D01*
X0261716Y0011865D01*
X0261936Y0011715D01*
X0262656Y0011585D01*
X0263716Y0011535D01*
X0264626Y0011575D01*
X0265416Y0011695D01*
X0265716Y0011865D01*
X0265666Y0012025D01*
X0265506Y0012095D01*
X0265216Y0012205D01*
X0264996Y0012215D01*
X0264716Y0012325D01*
X0264716Y0012335D01*
X0264646Y0012745D01*
X0264466Y0013665D01*
X0264206Y0014975D01*
X0263886Y0016535D01*
X0263526Y0018295D01*
X0263286Y0019505D01*
X0263146Y0020275D01*
X0263116Y0020685D01*
X0263176Y0020855D01*
X0263326Y0020885D01*
X0263556Y0020865D01*
X0263786Y0020925D01*
X0264056Y0021365D01*
X0263996Y0021545D01*
X0263706Y0021705D01*
X0263056Y0021805D01*
X0261946Y0021855D01*
X0260276Y0021865D01*
X0265506Y0021865D01*
X0265646Y0020865D01*
X0265656Y0020855D01*
X0265886Y0020165D01*
X0266246Y0019865D01*
X0266466Y0019935D01*
X0266506Y0020365D01*
X0266476Y0020505D01*
X0266616Y0020735D01*
X0267186Y0020845D01*
X0268296Y0020865D01*
X0270276Y0020875D01*
X0270606Y0019035D01*
X0270936Y0017205D01*
X0269416Y0017205D01*
X0268686Y0017325D01*
X0268386Y0017535D01*
X0268346Y0017675D01*
X0267926Y0017865D01*
X0267836Y0017865D01*
X0267616Y0017575D01*
X0267686Y0016815D01*
X0267686Y0016805D01*
X0267936Y0016125D01*
X0268286Y0015655D01*
X0268586Y0015515D01*
X0268716Y0015845D01*
X0268746Y0015915D01*
X0269206Y0016125D01*
X0270026Y0016205D01*
X0271336Y0016205D01*
X0271566Y0014355D01*
X0271646Y0013585D01*
X0271676Y0012725D01*
X0271616Y0012325D01*
X0271506Y0012255D01*
X0270886Y0012205D01*
X0269996Y0012315D01*
X0269076Y0012525D01*
X0268346Y0012795D01*
X0268056Y0013065D01*
X0267996Y0013285D01*
X0267556Y0013535D01*
X0267206Y0013335D01*
X0267056Y0012535D01*
X0267056Y0011535D01*
X0271076Y0011535D01*
X0272356Y0011545D01*
X0273816Y0011605D01*
X0274666Y0011715D01*
X0274886Y0011865D01*
X0274796Y0011975D01*
X0274246Y0012205D01*
X0274146Y0012255D01*
X0273846Y0012835D01*
X0273486Y0014075D01*
X0273086Y0015955D01*
X0272816Y0017305D01*
X0272536Y0018685D01*
X0272306Y0019735D01*
X0272176Y0020285D01*
X0272156Y0020645D01*
X0272536Y0020865D01*
X0272786Y0020935D01*
X0273056Y0021365D01*
X0272996Y0021545D01*
X0272706Y0021705D01*
X0272056Y0021805D01*
X0270946Y0021855D01*
X0269276Y0021865D01*
X0265506Y0021865D01*
X0260276Y0021865D01*
X0256506Y0021865D01*
X0252996Y0021865D01*
X0250996Y0021865D01*
X0251746Y0023115D01*
X0252016Y0023555D01*
X0253626Y0025545D01*
X0255606Y0027305D01*
X0257716Y0028635D01*
X0258056Y0028805D01*
X0258986Y0029225D01*
X0259806Y0029485D01*
X0260706Y0029625D01*
X0261896Y0029685D01*
X0263546Y0029695D01*
X0263816Y0029695D01*
X0265416Y0029675D01*
X0266556Y0029595D01*
X0267446Y0029435D01*
X0268256Y0029145D01*
X0269196Y0028715D01*
X0270466Y0027975D01*
X0272506Y0026355D01*
X0274286Y0024395D01*
X0275596Y0022315D01*
X0275656Y0022215D01*
X0276066Y0021305D01*
X0276326Y0020485D01*
X0276476Y0019575D01*
X0276536Y0018375D01*
X0276556Y0016705D01*
X0276556Y0016495D01*
X0276536Y0014885D01*
X0276466Y0013745D01*
X0276316Y0012875D01*
X0276046Y0012095D01*
X0275626Y0011235D01*
X0274486Y0009325D01*
X0272526Y0007015D01*
X0270216Y0005265D01*
X0267546Y0004075D01*
X0267036Y0003935D01*
X0265226Y0003665D01*
X0262886Y0003645D01*
X0260676Y0003835D01*
X0258366Y0004445D01*
X0256296Y0005535D01*
X0254276Y0007175D01*
X0253676Y0007795D01*
X0251986Y0010065D01*
X0250806Y0012635D01*
X0250196Y0015355D01*
X0250186Y0018095D01*
X0250256Y0018635D01*
X0250496Y0019885D01*
X0250786Y0020835D01*
X0251076Y0021355D01*
X0251326Y0021325D01*
X0251446Y0021185D01*
X0252026Y0020815D01*
X0252146Y0020725D01*
X0252466Y0020055D01*
X0252846Y0018755D01*
X0253256Y0016855D01*
X0253456Y0015855D01*
X0253756Y0014325D01*
X0253926Y0013295D01*
X0253986Y0012665D01*
X0253946Y0012345D01*
X0253796Y0012225D01*
X0253556Y0012205D01*
X0253326Y0012165D01*
X0253056Y0011865D01*
X0253266Y0011715D01*
X0253986Y0011585D01*
X0255056Y0011535D01*
X0255436Y0011545D01*
X0256446Y0011635D01*
X0256996Y0011815D01*
X0257026Y0012045D01*
X0256506Y0012265D01*
X0256456Y0012285D01*
X0256416Y0012295D01*
G36*
X0068476Y0065662D02*
G01*
X0066506Y0065662D01*
X0066506Y0067632D01*
X0068476Y0067632D01*
X0068476Y0065662D01*
G37*
G36*
X0019231Y0032176D02*
G01*
X0019231Y0038085D01*
X0023170Y0038085D01*
X0025140Y0038085D01*
X0025140Y0036115D01*
X0031049Y0036115D01*
X0031049Y0038085D01*
X0027110Y0038085D01*
X0027110Y0043994D01*
X0025140Y0043994D01*
X0025140Y0042025D01*
X0023170Y0042025D01*
X0023170Y0038085D01*
X0019231Y0038085D01*
X0019231Y0047934D01*
X0023170Y0047934D01*
X0025140Y0047934D01*
X0025140Y0045964D01*
X0027110Y0045964D01*
X0027110Y0047934D01*
X0031049Y0047934D01*
X0031049Y0045964D01*
X0029080Y0045964D01*
X0029080Y0043994D01*
X0036959Y0043994D01*
X0036959Y0040055D01*
X0031049Y0040055D01*
X0031049Y0042025D01*
X0029080Y0042025D01*
X0029080Y0040055D01*
X0031049Y0040055D01*
X0031049Y0038085D01*
X0033019Y0038085D01*
X0033019Y0036115D01*
X0034989Y0036115D01*
X0034989Y0038085D01*
X0036959Y0038085D01*
X0036959Y0036115D01*
X0044838Y0036115D01*
X0044838Y0038085D01*
X0046808Y0038085D01*
X0046808Y0036115D01*
X0058627Y0036115D01*
X0060596Y0036115D01*
X0080294Y0036115D01*
X0080294Y0049904D01*
X0066506Y0049904D01*
X0066506Y0036115D01*
X0062566Y0036115D01*
X0062566Y0038085D01*
X0060596Y0038085D01*
X0060596Y0036115D01*
X0058627Y0036115D01*
X0058627Y0038085D01*
X0060596Y0038085D01*
X0060596Y0043994D01*
X0064536Y0043994D01*
X0064536Y0051873D01*
X0074385Y0051873D01*
X0076355Y0051873D01*
X0080294Y0051873D01*
X0080294Y0053843D01*
X0076355Y0053843D01*
X0076355Y0051873D01*
X0074385Y0051873D01*
X0074385Y0053843D01*
X0070445Y0053843D01*
X0070445Y0055813D01*
X0068476Y0055813D01*
X0068476Y0057783D01*
X0070445Y0057783D01*
X0074385Y0057783D01*
X0076355Y0057783D01*
X0080294Y0057783D01*
X0080294Y0059753D01*
X0076355Y0059753D01*
X0076355Y0057783D01*
X0074385Y0057783D01*
X0074385Y0059753D01*
X0076355Y0059753D01*
X0076355Y0063692D01*
X0072415Y0063692D01*
X0072415Y0061722D01*
X0070445Y0061722D01*
X0070445Y0057783D01*
X0068476Y0057783D01*
X0064536Y0057783D01*
X0064536Y0059753D01*
X0066506Y0059753D01*
X0068476Y0059753D01*
X0068476Y0061722D01*
X0066506Y0061722D01*
X0066506Y0059753D01*
X0064536Y0059753D01*
X0064536Y0063692D01*
X0068476Y0063692D01*
X0068476Y0065662D01*
X0072415Y0065662D01*
X0072415Y0067632D01*
X0074385Y0067632D01*
X0074385Y0065662D01*
X0078325Y0065662D01*
X0078325Y0063692D01*
X0080294Y0063692D01*
X0080294Y0069602D01*
X0078325Y0069602D01*
X0078325Y0071571D01*
X0080294Y0071571D01*
X0080294Y0073541D01*
X0078325Y0073541D01*
X0078325Y0075511D01*
X0072415Y0075511D01*
X0072415Y0077481D01*
X0064536Y0077481D01*
X0064536Y0079451D01*
X0066506Y0079451D01*
X0080294Y0079451D01*
X0080294Y0093239D01*
X0066506Y0093239D01*
X0066506Y0079451D01*
X0064536Y0079451D01*
X0064536Y0083390D01*
X0062566Y0083390D01*
X0062566Y0087330D01*
X0060596Y0087330D01*
X0060596Y0089300D01*
X0064536Y0089300D01*
X0064536Y0091269D01*
X0062566Y0091269D01*
X0062566Y0093239D01*
X0060596Y0093239D01*
X0060596Y0089300D01*
X0058627Y0089300D01*
X0058627Y0093239D01*
X0052717Y0093239D01*
X0052717Y0089300D01*
X0054687Y0089300D01*
X0054687Y0087330D01*
X0050747Y0087330D01*
X0050747Y0091269D01*
X0048778Y0091269D01*
X0048778Y0093239D01*
X0046808Y0093239D01*
X0046808Y0091269D01*
X0048778Y0091269D01*
X0048778Y0087330D01*
X0046808Y0087330D01*
X0046808Y0089300D01*
X0044838Y0089300D01*
X0044838Y0093239D01*
X0040898Y0093239D01*
X0040898Y0091269D01*
X0038929Y0091269D01*
X0038929Y0085360D01*
X0044838Y0085360D01*
X0044838Y0087330D01*
X0046808Y0087330D01*
X0046808Y0083390D01*
X0048778Y0083390D01*
X0048778Y0081420D01*
X0046808Y0081420D01*
X0046808Y0079451D01*
X0044838Y0079451D01*
X0044838Y0083390D01*
X0038929Y0083390D01*
X0038929Y0079451D01*
X0040898Y0079451D01*
X0040898Y0081420D01*
X0042868Y0081420D01*
X0042868Y0075511D01*
X0036959Y0075511D01*
X0036959Y0077481D01*
X0033019Y0077481D01*
X0033019Y0075511D01*
X0027110Y0075511D01*
X0027110Y0077481D01*
X0025140Y0077481D01*
X0025140Y0075511D01*
X0023170Y0075511D01*
X0023170Y0071571D01*
X0025140Y0071571D01*
X0025140Y0073541D01*
X0027110Y0073541D01*
X0027110Y0071571D01*
X0029080Y0071571D01*
X0029080Y0067632D01*
X0027110Y0067632D01*
X0027110Y0069602D01*
X0025140Y0069602D01*
X0025140Y0067632D01*
X0023170Y0067632D01*
X0023170Y0063692D01*
X0025140Y0063692D01*
X0025140Y0061722D01*
X0023170Y0061722D01*
X0023170Y0053843D01*
X0027110Y0053843D01*
X0027110Y0055813D01*
X0029080Y0055813D01*
X0029080Y0051873D01*
X0027110Y0051873D01*
X0027110Y0049904D01*
X0025140Y0049904D01*
X0025140Y0051873D01*
X0023170Y0051873D01*
X0023170Y0047934D01*
X0019231Y0047934D01*
X0019231Y0079451D01*
X0023170Y0079451D01*
X0036959Y0079451D01*
X0036959Y0093239D01*
X0023170Y0093239D01*
X0023170Y0079451D01*
X0019231Y0079451D01*
X0019231Y0097179D01*
X0084234Y0097179D01*
X0084234Y0032176D01*
X0019231Y0032176D01*
G37*
G36*
X0034989Y0053843D02*
G01*
X0033019Y0053843D01*
X0033019Y0055813D01*
X0034989Y0055813D01*
X0034989Y0053843D01*
G37*
G36*
X0050747Y0083390D02*
G01*
X0048778Y0083390D01*
X0048778Y0085360D01*
X0050747Y0085360D01*
X0050747Y0083390D01*
G37*
G36*
X0040898Y0038085D02*
G01*
X0038929Y0038085D01*
X0038929Y0040055D01*
X0040898Y0040055D01*
X0040898Y0038085D01*
G37*
G36*
X0048778Y0065662D02*
G01*
X0044838Y0065662D01*
X0044838Y0067632D01*
X0048778Y0067632D01*
X0048778Y0065662D01*
G37*
G36*
X0044838Y0057783D02*
G01*
X0042868Y0057783D01*
X0042868Y0059753D01*
X0044838Y0059753D01*
X0044838Y0057783D01*
G37*
G36*
X0074385Y0071571D02*
G01*
X0072415Y0071571D01*
X0072415Y0073541D01*
X0074385Y0073541D01*
X0074385Y0071571D01*
G37*
G36*
X0068476Y0053843D02*
G01*
X0064536Y0053843D01*
X0064536Y0055813D01*
X0068476Y0055813D01*
X0068476Y0053843D01*
G37*
G36*
X0068476Y0038085D02*
G01*
X0068476Y0040055D01*
X0070445Y0040055D01*
X0076355Y0040055D01*
X0076355Y0045964D01*
X0070445Y0045964D01*
X0070445Y0040055D01*
X0068476Y0040055D01*
X0068476Y0047934D01*
X0078325Y0047934D01*
X0078325Y0038085D01*
X0068476Y0038085D01*
G37*
G36*
X0027110Y0055813D02*
G01*
X0025140Y0055813D01*
X0025140Y0057783D01*
X0027110Y0057783D01*
X0027110Y0055813D01*
G37*
G36*
X0064536Y0075511D02*
G01*
X0068476Y0075511D01*
X0068476Y0073541D01*
X0062566Y0073541D01*
X0062566Y0077481D01*
X0064536Y0077481D01*
X0064536Y0075511D01*
G37*
G36*
X0056657Y0085360D02*
G01*
X0054687Y0085360D01*
X0054687Y0087330D01*
X0056657Y0087330D01*
X0056657Y0085360D01*
G37*
G36*
X0062566Y0055813D02*
G01*
X0060596Y0055813D01*
X0060596Y0057783D01*
X0062566Y0057783D01*
X0062566Y0055813D01*
G37*
G36*
X0033019Y0045964D02*
G01*
X0033019Y0047934D01*
X0034989Y0047934D01*
X0036959Y0047934D01*
X0036959Y0049904D01*
X0034989Y0049904D01*
X0034989Y0047934D01*
X0033019Y0047934D01*
X0033019Y0051873D01*
X0038929Y0051873D01*
X0038929Y0045964D01*
X0033019Y0045964D01*
G37*
G36*
X0062566Y0077481D02*
G01*
X0060596Y0077481D01*
X0060596Y0083390D01*
X0062566Y0083390D01*
X0062566Y0077481D01*
G37*
G36*
X0050747Y0079451D02*
G01*
X0048778Y0079451D01*
X0048778Y0081420D01*
X0050747Y0081420D01*
X0050747Y0079451D01*
G37*
G36*
X0050747Y0063692D02*
G01*
X0048778Y0063692D01*
X0048778Y0065662D01*
X0050747Y0065662D01*
X0050747Y0063692D01*
G37*
G36*
X0054687Y0057783D02*
G01*
X0050747Y0057783D01*
X0050747Y0059753D01*
X0054687Y0059753D01*
X0054687Y0057783D01*
G37*
G36*
X0056657Y0042025D02*
G01*
X0056657Y0040055D01*
X0058627Y0040055D01*
X0058627Y0038085D01*
X0054687Y0038085D01*
X0054687Y0040055D01*
X0052717Y0040055D01*
X0052717Y0042025D01*
X0056657Y0042025D01*
G37*
G36*
X0044838Y0061722D02*
G01*
X0046808Y0061722D01*
X0046808Y0059753D01*
X0048778Y0059753D01*
X0048778Y0055813D01*
X0046808Y0055813D01*
X0046808Y0051873D01*
X0048778Y0051873D01*
X0048778Y0049904D01*
X0046808Y0049904D01*
X0046808Y0047934D01*
X0048778Y0047934D01*
X0048778Y0045964D01*
X0050747Y0045964D01*
X0050747Y0043994D01*
X0052717Y0043994D01*
X0052717Y0042025D01*
X0050747Y0042025D01*
X0050747Y0040055D01*
X0052717Y0040055D01*
X0052717Y0038085D01*
X0048778Y0038085D01*
X0048778Y0040055D01*
X0046808Y0040055D01*
X0046808Y0042025D01*
X0044838Y0042025D01*
X0044838Y0047934D01*
X0042868Y0047934D01*
X0042868Y0051873D01*
X0040898Y0051873D01*
X0040898Y0053843D01*
X0044838Y0053843D01*
X0044838Y0057783D01*
X0046808Y0057783D01*
X0046808Y0059753D01*
X0044838Y0059753D01*
X0044838Y0061722D01*
X0038929Y0061722D01*
X0038929Y0063692D01*
X0040898Y0063692D01*
X0040898Y0065662D01*
X0038929Y0065662D01*
X0038929Y0071571D01*
X0033019Y0071571D01*
X0033019Y0069602D01*
X0036959Y0069602D01*
X0036959Y0067632D01*
X0031049Y0067632D01*
X0031049Y0065662D01*
X0038929Y0065662D01*
X0038929Y0063692D01*
X0036959Y0063692D01*
X0036959Y0061722D01*
X0034989Y0061722D01*
X0034989Y0063692D01*
X0033019Y0063692D01*
X0033019Y0061722D01*
X0031049Y0061722D01*
X0031049Y0059753D01*
X0033019Y0059753D01*
X0033019Y0057783D01*
X0027110Y0057783D01*
X0027110Y0063692D01*
X0029080Y0063692D01*
X0029080Y0061722D01*
X0031049Y0061722D01*
X0031049Y0065662D01*
X0029080Y0065662D01*
X0029080Y0067632D01*
X0031049Y0067632D01*
X0031049Y0073541D01*
X0033019Y0073541D01*
X0033019Y0075511D01*
X0036959Y0075511D01*
X0036959Y0073541D01*
X0038929Y0073541D01*
X0038929Y0071571D01*
X0040898Y0071571D01*
X0040898Y0073541D01*
X0042868Y0073541D01*
X0042868Y0075511D01*
X0044838Y0075511D01*
X0044838Y0077481D01*
X0050747Y0077481D01*
X0052717Y0077481D01*
X0056657Y0077481D01*
X0056657Y0081420D01*
X0054687Y0081420D01*
X0054687Y0079451D01*
X0052717Y0079451D01*
X0052717Y0077481D01*
X0050747Y0077481D01*
X0050747Y0079451D01*
X0052717Y0079451D01*
X0052717Y0085360D01*
X0054687Y0085360D01*
X0054687Y0083390D01*
X0058627Y0083390D01*
X0058627Y0075511D01*
X0054687Y0075511D01*
X0054687Y0073541D01*
X0052717Y0073541D01*
X0052717Y0071571D01*
X0050747Y0071571D01*
X0050747Y0075511D01*
X0046808Y0075511D01*
X0046808Y0073541D01*
X0042868Y0073541D01*
X0042868Y0069602D01*
X0040898Y0069602D01*
X0040898Y0067632D01*
X0042868Y0067632D01*
X0042868Y0063692D01*
X0044838Y0063692D01*
X0044838Y0061722D01*
G37*
G36*
X0058627Y0047934D02*
G01*
X0058627Y0045964D01*
X0056657Y0045964D01*
X0056657Y0043994D01*
X0058627Y0043994D01*
X0058627Y0042025D01*
X0056657Y0042025D01*
X0056657Y0043994D01*
X0052717Y0043994D01*
X0052717Y0045964D01*
X0050747Y0045964D01*
X0050747Y0047934D01*
X0048778Y0047934D01*
X0048778Y0049904D01*
X0052717Y0049904D01*
X0052717Y0047934D01*
X0054687Y0047934D01*
X0054687Y0049904D01*
X0056657Y0049904D01*
X0058627Y0049904D01*
X0058627Y0051873D01*
X0056657Y0051873D01*
X0056657Y0049904D01*
X0054687Y0049904D01*
X0054687Y0051873D01*
X0056657Y0051873D01*
X0056657Y0053843D01*
X0054687Y0053843D01*
X0054687Y0057783D01*
X0056657Y0057783D01*
X0056657Y0059753D01*
X0054687Y0059753D01*
X0054687Y0063692D01*
X0056657Y0063692D01*
X0058627Y0063692D01*
X0058627Y0065662D01*
X0056657Y0065662D01*
X0056657Y0063692D01*
X0054687Y0063692D01*
X0054687Y0065662D01*
X0050747Y0065662D01*
X0050747Y0067632D01*
X0048778Y0067632D01*
X0048778Y0069602D01*
X0052717Y0069602D01*
X0052717Y0067632D01*
X0060596Y0067632D01*
X0060596Y0069602D01*
X0056657Y0069602D01*
X0056657Y0071571D01*
X0054687Y0071571D01*
X0054687Y0073541D01*
X0056657Y0073541D01*
X0056657Y0071571D01*
X0058627Y0071571D01*
X0058627Y0073541D01*
X0060596Y0073541D01*
X0060596Y0071571D01*
X0062566Y0071571D01*
X0062566Y0069602D01*
X0064536Y0069602D01*
X0064536Y0067632D01*
X0062566Y0067632D01*
X0062566Y0061722D01*
X0058627Y0061722D01*
X0058627Y0057783D01*
X0056657Y0057783D01*
X0056657Y0055813D01*
X0060596Y0055813D01*
X0060596Y0053843D01*
X0062566Y0053843D01*
X0062566Y0047934D01*
X0058627Y0047934D01*
G37*
G36*
X0060596Y0045964D02*
G01*
X0060596Y0043994D01*
X0058627Y0043994D01*
X0058627Y0045964D01*
X0060596Y0045964D01*
G37*
G36*
X0034989Y0061722D02*
G01*
X0034989Y0059753D01*
X0033019Y0059753D01*
X0033019Y0061722D01*
X0034989Y0061722D01*
G37*
G36*
X0078325Y0071571D02*
G01*
X0076355Y0071571D01*
X0076355Y0073541D01*
X0078325Y0073541D01*
X0078325Y0071571D01*
G37*
G36*
X0044838Y0067632D02*
G01*
X0042868Y0067632D01*
X0042868Y0069602D01*
X0044838Y0069602D01*
X0044838Y0067632D01*
G37*
G36*
X0044838Y0040055D02*
G01*
X0040898Y0040055D01*
X0040898Y0042025D01*
X0044838Y0042025D01*
X0044838Y0040055D01*
G37*
G36*
X0044838Y0087330D02*
G01*
X0042868Y0087330D01*
X0042868Y0089300D01*
X0044838Y0089300D01*
X0044838Y0087330D01*
G37*
G36*
X0027110Y0063692D02*
G01*
X0025140Y0063692D01*
X0025140Y0067632D01*
X0027110Y0067632D01*
X0027110Y0063692D01*
G37*
G36*
X0068476Y0081420D02*
G01*
X0068476Y0083390D01*
X0070445Y0083390D01*
X0076355Y0083390D01*
X0076355Y0089300D01*
X0070445Y0089300D01*
X0070445Y0083390D01*
X0068476Y0083390D01*
X0068476Y0091269D01*
X0078325Y0091269D01*
X0078325Y0081420D01*
X0068476Y0081420D01*
G37*
G36*
X0048778Y0069602D02*
G01*
X0044838Y0069602D01*
X0044838Y0071571D01*
X0048778Y0071571D01*
X0048778Y0069602D01*
G37*
G36*
X0048778Y0061722D02*
G01*
X0046808Y0061722D01*
X0046808Y0063692D01*
X0048778Y0063692D01*
X0048778Y0061722D01*
G37*
G36*
X0042868Y0089300D02*
G01*
X0040898Y0089300D01*
X0040898Y0091269D01*
X0042868Y0091269D01*
X0042868Y0089300D01*
G37*
G36*
X0054687Y0069602D02*
G01*
X0052717Y0069602D01*
X0052717Y0071571D01*
X0054687Y0071571D01*
X0054687Y0069602D01*
G37*
G36*
X0025140Y0081420D02*
G01*
X0025140Y0083390D01*
X0027110Y0083390D01*
X0033019Y0083390D01*
X0033019Y0089300D01*
X0027110Y0089300D01*
X0027110Y0083390D01*
X0025140Y0083390D01*
X0025140Y0091269D01*
X0034989Y0091269D01*
X0034989Y0081420D01*
X0025140Y0081420D01*
G37*
G36*
X0056657Y0089300D02*
G01*
X0054687Y0089300D01*
X0054687Y0091269D01*
X0056657Y0091269D01*
X0056657Y0089300D01*
G37*
G36*
X0070445Y0071571D02*
G01*
X0072415Y0071571D01*
X0072415Y0067632D01*
X0070445Y0067632D01*
X0070445Y0069602D01*
X0066506Y0069602D01*
X0066506Y0071571D01*
X0068476Y0071571D01*
X0068476Y0073541D01*
X0070445Y0073541D01*
X0070445Y0071571D01*
G37*
G36*
X0076355Y0067632D02*
G01*
X0074385Y0067632D01*
X0074385Y0071571D01*
X0076355Y0071571D01*
X0076355Y0067632D01*
G37*
G36*
X0040898Y0055813D02*
G01*
X0038929Y0055813D01*
X0038929Y0057783D01*
X0034989Y0057783D01*
X0034989Y0059753D01*
X0040898Y0059753D01*
X0040898Y0055813D01*
G37*
G36*
X0031049Y0049904D02*
G01*
X0029080Y0049904D01*
X0029080Y0051873D01*
X0031049Y0051873D01*
X0031049Y0049904D01*
G37*
G36*
X0052717Y0053843D02*
G01*
X0050747Y0053843D01*
X0050747Y0051873D01*
X0048778Y0051873D01*
X0048778Y0055813D01*
X0052717Y0055813D01*
X0052717Y0053843D01*
G37*
G36*
X0060596Y0085360D02*
G01*
X0058627Y0085360D01*
X0058627Y0087330D01*
X0060596Y0087330D01*
X0060596Y0085360D01*
G37*
G36*
X0189667Y0037676D02*
G01*
X0189835Y0037535D01*
X0189835Y0037535D01*
X0189947Y0037428D01*
X0190028Y0037325D01*
X0190090Y0037197D01*
X0190147Y0037014D01*
X0190214Y0036749D01*
X0190225Y0036701D01*
X0190284Y0036408D01*
X0190344Y0036050D01*
X0190398Y0035668D01*
X0190440Y0035303D01*
X0190461Y0035089D01*
X0190487Y0034810D01*
X0190499Y0034605D01*
X0190498Y0034448D01*
X0190483Y0034316D01*
X0190453Y0034183D01*
X0190407Y0034025D01*
X0190386Y0033958D01*
X0190250Y0033638D01*
X0190044Y0033284D01*
X0189760Y0032885D01*
X0189392Y0032430D01*
X0189167Y0032180D01*
X0188941Y0031975D01*
X0188705Y0031820D01*
X0188425Y0031690D01*
X0188322Y0031648D01*
X0188185Y0031596D01*
X0188118Y0031575D01*
X0188106Y0031577D01*
X0188019Y0031626D01*
X0187879Y0031721D01*
X0187713Y0031841D01*
X0187549Y0031968D01*
X0187415Y0032082D01*
X0187308Y0032197D01*
X0187132Y0032471D01*
X0186986Y0032805D01*
X0186887Y0033166D01*
X0186876Y0033222D01*
X0186849Y0033406D01*
X0186850Y0033555D01*
X0186884Y0033717D01*
X0186955Y0033938D01*
X0187000Y0034062D01*
X0187178Y0034439D01*
X0187399Y0034788D01*
X0187643Y0035081D01*
X0187890Y0035289D01*
X0188127Y0035466D01*
X0188407Y0035732D01*
X0188681Y0036046D01*
X0188937Y0036386D01*
X0189160Y0036733D01*
X0189337Y0037068D01*
X0189452Y0037369D01*
X0189494Y0037617D01*
X0189494Y0037631D01*
X0189510Y0037721D01*
X0189563Y0037737D01*
X0189667Y0037676D01*
G37*
G36*
X0145894Y0019104D02*
G01*
X0146432Y0018940D01*
X0146951Y0018670D01*
X0147443Y0018299D01*
X0147899Y0017830D01*
X0148184Y0017494D01*
X0148247Y0017739D01*
X0148288Y0017888D01*
X0148406Y0018194D01*
X0148555Y0018409D01*
X0148748Y0018552D01*
X0149001Y0018639D01*
X0149166Y0018665D01*
X0149518Y0018649D01*
X0149828Y0018532D01*
X0150086Y0018325D01*
X0150278Y0018035D01*
X0150392Y0017670D01*
X0150398Y0017624D01*
X0150400Y0017519D01*
X0150395Y0017367D01*
X0150381Y0017159D01*
X0150358Y0016885D01*
X0150325Y0016540D01*
X0150281Y0016113D01*
X0150226Y0015597D01*
X0150158Y0014984D01*
X0150077Y0014266D01*
X0150039Y0013925D01*
X0149969Y0013316D01*
X0149907Y0012806D01*
X0149853Y0012385D01*
X0149804Y0012042D01*
X0149757Y0011767D01*
X0149711Y0011550D01*
X0149664Y0011382D01*
X0149614Y0011251D01*
X0149559Y0011148D01*
X0149496Y0011062D01*
X0149424Y0010984D01*
X0149218Y0010828D01*
X0148926Y0010720D01*
X0148598Y0010677D01*
X0148278Y0010707D01*
X0148012Y0010812D01*
X0147821Y0010989D01*
X0147789Y0011045D01*
X0147755Y0011155D01*
X0147740Y0011306D01*
X0147745Y0011512D01*
X0147769Y0011788D01*
X0147813Y0012149D01*
X0147878Y0012607D01*
X0147931Y0012977D01*
X0148011Y0013660D01*
X0148054Y0014256D01*
X0148060Y0014777D01*
X0148028Y0015239D01*
X0147956Y0015654D01*
X0147846Y0016036D01*
X0147695Y0016400D01*
X0147611Y0016560D01*
X0147394Y0016887D01*
X0147137Y0017184D01*
X0146857Y0017436D01*
X0146574Y0017628D01*
X0146303Y0017746D01*
X0146062Y0017774D01*
X0145993Y0017760D01*
X0145853Y0017670D01*
X0145731Y0017493D01*
X0145621Y0017219D01*
X0145520Y0016840D01*
X0145500Y0016746D01*
X0145477Y0016617D01*
X0145459Y0016471D01*
X0145445Y0016296D01*
X0145434Y0016080D01*
X0145426Y0015810D01*
X0145421Y0015474D01*
X0145417Y0015061D01*
X0145416Y0014557D01*
X0145415Y0013951D01*
X0145414Y0013327D01*
X0145412Y0012797D01*
X0145407Y0012364D01*
X0145400Y0012022D01*
X0145390Y0011762D01*
X0145378Y0011577D01*
X0145362Y0011457D01*
X0145344Y0011395D01*
X0145218Y0011241D01*
X0144983Y0011088D01*
X0144692Y0010995D01*
X0144370Y0010966D01*
X0144042Y0011004D01*
X0143735Y0011116D01*
X0143662Y0011160D01*
X0143476Y0011320D01*
X0143321Y0011516D01*
X0143233Y0011704D01*
X0143222Y0011810D01*
X0143218Y0012006D01*
X0143221Y0012260D01*
X0143233Y0012544D01*
X0143233Y0012554D01*
X0143248Y0012836D01*
X0143266Y0013200D01*
X0143287Y0013614D01*
X0143308Y0014047D01*
X0143329Y0014466D01*
X0143351Y0014887D01*
X0143391Y0015516D01*
X0143436Y0016092D01*
X0143486Y0016603D01*
X0143539Y0017037D01*
X0143594Y0017380D01*
X0143650Y0017622D01*
X0143739Y0017888D01*
X0143957Y0018343D01*
X0144229Y0018699D01*
X0144554Y0018953D01*
X0144931Y0019106D01*
X0145359Y0019157D01*
X0145894Y0019104D01*
G37*
G36*
X0166819Y0009586D02*
G01*
X0168169Y0009585D01*
X0169506Y0009584D01*
X0170827Y0009583D01*
X0172125Y0009581D01*
X0173397Y0009579D01*
X0174637Y0009577D01*
X0175840Y0009574D01*
X0177003Y0009571D01*
X0178119Y0009567D01*
X0179183Y0009564D01*
X0180192Y0009559D01*
X0181140Y0009555D01*
X0182022Y0009550D01*
X0182834Y0009545D01*
X0183570Y0009539D01*
X0184226Y0009534D01*
X0184796Y0009527D01*
X0185277Y0009521D01*
X0185662Y0009514D01*
X0185948Y0009507D01*
X0186129Y0009499D01*
X0186201Y0009491D01*
X0186347Y0009376D01*
X0186474Y0009158D01*
X0186519Y0008886D01*
X0186513Y0008794D01*
X0186458Y0008642D01*
X0186325Y0008482D01*
X0186130Y0008288D01*
X0143430Y0008288D01*
X0143236Y0008482D01*
X0143156Y0008568D01*
X0143066Y0008718D01*
X0143041Y0008886D01*
X0143068Y0009099D01*
X0143178Y0009332D01*
X0143359Y0009491D01*
X0143360Y0009491D01*
X0143431Y0009499D01*
X0143613Y0009507D01*
X0143899Y0009514D01*
X0144285Y0009521D01*
X0144766Y0009527D01*
X0145336Y0009534D01*
X0145993Y0009539D01*
X0146729Y0009545D01*
X0147541Y0009550D01*
X0148423Y0009555D01*
X0149371Y0009559D01*
X0150380Y0009564D01*
X0151445Y0009567D01*
X0152561Y0009571D01*
X0153724Y0009574D01*
X0154927Y0009577D01*
X0156167Y0009579D01*
X0157439Y0009581D01*
X0158738Y0009583D01*
X0160058Y0009584D01*
X0161396Y0009585D01*
X0162746Y0009586D01*
X0164103Y0009586D01*
X0165462Y0009586D01*
X0166819Y0009586D01*
G37*
G36*
X0188859Y0039151D02*
G01*
X0188922Y0039095D01*
X0188931Y0039086D01*
X0188995Y0038994D01*
X0189028Y0038858D01*
X0189036Y0038642D01*
X0189017Y0038334D01*
X0188898Y0037816D01*
X0188680Y0037321D01*
X0188371Y0036871D01*
X0188370Y0036870D01*
X0188228Y0036728D01*
X0188014Y0036543D01*
X0187750Y0036334D01*
X0187462Y0036118D01*
X0187173Y0035913D01*
X0186907Y0035738D01*
X0186688Y0035610D01*
X0186584Y0035550D01*
X0186370Y0035390D01*
X0186213Y0035225D01*
X0186182Y0035178D01*
X0186052Y0034896D01*
X0185959Y0034539D01*
X0185908Y0034136D01*
X0185906Y0033717D01*
X0185914Y0033598D01*
X0185940Y0033388D01*
X0185988Y0033198D01*
X0186068Y0032987D01*
X0186193Y0032716D01*
X0186270Y0032559D01*
X0186398Y0032327D01*
X0186536Y0032129D01*
X0186709Y0031928D01*
X0186943Y0031689D01*
X0187130Y0031498D01*
X0187287Y0031323D01*
X0187363Y0031211D01*
X0187362Y0031158D01*
X0187319Y0031142D01*
X0187164Y0031139D01*
X0186944Y0031177D01*
X0186688Y0031252D01*
X0186600Y0031288D01*
X0186364Y0031415D01*
X0186088Y0031594D01*
X0185800Y0031804D01*
X0185527Y0032025D01*
X0185297Y0032235D01*
X0185137Y0032414D01*
X0184942Y0032707D01*
X0184676Y0033267D01*
X0184514Y0033870D01*
X0184460Y0034508D01*
X0184488Y0034777D01*
X0184608Y0035173D01*
X0184817Y0035597D01*
X0185107Y0036035D01*
X0185471Y0036472D01*
X0185483Y0036485D01*
X0185581Y0036576D01*
X0185710Y0036671D01*
X0185884Y0036776D01*
X0186119Y0036900D01*
X0186429Y0037053D01*
X0186828Y0037242D01*
X0187111Y0037375D01*
X0187420Y0037522D01*
X0187652Y0037638D01*
X0187823Y0037733D01*
X0187949Y0037815D01*
X0188046Y0037896D01*
X0188129Y0037985D01*
X0188215Y0038091D01*
X0188333Y0038256D01*
X0188493Y0038525D01*
X0188618Y0038779D01*
X0188648Y0038853D01*
X0188726Y0039038D01*
X0188777Y0039139D01*
X0188816Y0039171D01*
X0188859Y0039151D01*
G37*
G36*
X0157492Y0015848D02*
G01*
X0157514Y0015662D01*
X0157550Y0015550D01*
X0157616Y0015477D01*
X0157728Y0015409D01*
X0157734Y0015405D01*
X0157977Y0015224D01*
X0158118Y0015001D01*
X0158163Y0014724D01*
X0158150Y0014551D01*
X0158069Y0014330D01*
X0157919Y0014198D01*
X0157701Y0014156D01*
X0157472Y0014160D01*
X0157434Y0013657D01*
X0157399Y0013314D01*
X0157284Y0012702D01*
X0157109Y0012165D01*
X0156879Y0011708D01*
X0156596Y0011338D01*
X0156265Y0011062D01*
X0155888Y0010886D01*
X0155869Y0010880D01*
X0155703Y0010843D01*
X0155557Y0010848D01*
X0155391Y0010902D01*
X0155168Y0011013D01*
X0154997Y0011117D01*
X0154751Y0011283D01*
X0154451Y0011497D01*
X0154114Y0011746D01*
X0153756Y0012016D01*
X0153396Y0012295D01*
X0153048Y0012570D01*
X0152732Y0012827D01*
X0152463Y0013055D01*
X0152259Y0013239D01*
X0152098Y0013394D01*
X0151780Y0013726D01*
X0151552Y0014006D01*
X0151411Y0014244D01*
X0151351Y0014447D01*
X0151370Y0014622D01*
X0151462Y0014778D01*
X0151551Y0014864D01*
X0151691Y0014932D01*
X0151898Y0014967D01*
X0151968Y0014973D01*
X0152089Y0014972D01*
X0152205Y0014948D01*
X0152328Y0014894D01*
X0152471Y0014801D01*
X0152646Y0014660D01*
X0152864Y0014463D01*
X0153139Y0014202D01*
X0153482Y0013868D01*
X0153759Y0013600D01*
X0154127Y0013262D01*
X0154434Y0013007D01*
X0154684Y0012830D01*
X0154884Y0012727D01*
X0155040Y0012693D01*
X0155105Y0012706D01*
X0155237Y0012809D01*
X0155360Y0013001D01*
X0155466Y0013264D01*
X0155550Y0013581D01*
X0155605Y0013935D01*
X0155626Y0014308D01*
X0155627Y0014359D01*
X0155630Y0014464D01*
X0155626Y0014550D01*
X0155607Y0014625D01*
X0155560Y0014697D01*
X0155476Y0014775D01*
X0155345Y0014868D01*
X0155157Y0014984D01*
X0154900Y0015132D01*
X0154565Y0015321D01*
X0154142Y0015559D01*
X0153745Y0015786D01*
X0153384Y0016006D01*
X0153105Y0016193D01*
X0152899Y0016357D01*
X0152752Y0016505D01*
X0152656Y0016648D01*
X0152599Y0016794D01*
X0152560Y0016987D01*
X0154208Y0016987D01*
X0154212Y0016899D01*
X0154268Y0016852D01*
X0154273Y0016850D01*
X0154362Y0016809D01*
X0154530Y0016731D01*
X0154754Y0016626D01*
X0155012Y0016505D01*
X0155052Y0016486D01*
X0155314Y0016363D01*
X0155491Y0016284D01*
X0155600Y0016246D01*
X0155658Y0016242D01*
X0155680Y0016270D01*
X0155684Y0016324D01*
X0155684Y0016332D01*
X0155663Y0016538D01*
X0155612Y0016805D01*
X0155542Y0017092D01*
X0155461Y0017356D01*
X0155382Y0017556D01*
X0155333Y0017651D01*
X0155259Y0017758D01*
X0155174Y0017801D01*
X0155042Y0017807D01*
X0154915Y0017788D01*
X0154676Y0017678D01*
X0154463Y0017490D01*
X0154306Y0017248D01*
X0154259Y0017139D01*
X0154208Y0016987D01*
X0152560Y0016987D01*
X0152545Y0017062D01*
X0152551Y0017439D01*
X0152664Y0017791D01*
X0152886Y0018126D01*
X0153219Y0018451D01*
X0153664Y0018772D01*
X0154275Y0019086D01*
X0154946Y0019303D01*
X0155676Y0019422D01*
X0156093Y0019461D01*
X0156400Y0019136D01*
X0156607Y0018888D01*
X0156870Y0018464D01*
X0157087Y0017960D01*
X0157260Y0017368D01*
X0157393Y0016682D01*
X0157436Y0016324D01*
X0157487Y0015895D01*
X0157492Y0015848D01*
G37*
G36*
X0173140Y0015520D02*
G01*
X0173397Y0015384D01*
X0173544Y0015297D01*
X0173685Y0015165D01*
X0173757Y0014995D01*
X0173782Y0014749D01*
X0173770Y0014542D01*
X0173688Y0014326D01*
X0173535Y0014197D01*
X0173311Y0014157D01*
X0173075Y0014161D01*
X0173075Y0013892D01*
X0173067Y0013699D01*
X0173022Y0013332D01*
X0172946Y0012931D01*
X0172849Y0012540D01*
X0172738Y0012204D01*
X0172685Y0012072D01*
X0172457Y0011632D01*
X0172190Y0011293D01*
X0171877Y0011049D01*
X0171512Y0010892D01*
X0171451Y0010875D01*
X0171327Y0010853D01*
X0171201Y0010855D01*
X0171064Y0010887D01*
X0170903Y0010954D01*
X0170707Y0011062D01*
X0170466Y0011218D01*
X0170168Y0011426D01*
X0169802Y0011694D01*
X0169357Y0012026D01*
X0169175Y0012164D01*
X0168736Y0012512D01*
X0168324Y0012860D01*
X0167948Y0013197D01*
X0167621Y0013513D01*
X0167354Y0013795D01*
X0167158Y0014035D01*
X0167045Y0014220D01*
X0166979Y0014429D01*
X0166977Y0014608D01*
X0167024Y0014708D01*
X0167172Y0014847D01*
X0167382Y0014944D01*
X0167622Y0014981D01*
X0167677Y0014979D01*
X0167802Y0014955D01*
X0167938Y0014899D01*
X0168095Y0014801D01*
X0168285Y0014653D01*
X0168518Y0014446D01*
X0168807Y0014173D01*
X0169163Y0013824D01*
X0169443Y0013550D01*
X0169783Y0013233D01*
X0170063Y0012996D01*
X0170293Y0012830D01*
X0170480Y0012732D01*
X0170632Y0012695D01*
X0170758Y0012713D01*
X0170760Y0012714D01*
X0170880Y0012816D01*
X0170994Y0013011D01*
X0171094Y0013277D01*
X0171173Y0013594D01*
X0171226Y0013939D01*
X0171245Y0014292D01*
X0171246Y0014352D01*
X0171249Y0014460D01*
X0171247Y0014546D01*
X0171229Y0014621D01*
X0171185Y0014692D01*
X0171104Y0014768D01*
X0170976Y0014859D01*
X0170791Y0014973D01*
X0170538Y0015118D01*
X0170208Y0015305D01*
X0169789Y0015541D01*
X0169782Y0015544D01*
X0169337Y0015802D01*
X0168983Y0016018D01*
X0168711Y0016202D01*
X0168509Y0016364D01*
X0168367Y0016510D01*
X0168273Y0016651D01*
X0168217Y0016794D01*
X0168174Y0017004D01*
X0169843Y0017004D01*
X0169879Y0016896D01*
X0169883Y0016892D01*
X0169974Y0016834D01*
X0170144Y0016742D01*
X0170370Y0016627D01*
X0170630Y0016502D01*
X0170702Y0016468D01*
X0170955Y0016351D01*
X0171124Y0016277D01*
X0171227Y0016242D01*
X0171280Y0016242D01*
X0171299Y0016273D01*
X0171302Y0016330D01*
X0171301Y0016374D01*
X0171274Y0016597D01*
X0171220Y0016871D01*
X0171149Y0017154D01*
X0171071Y0017405D01*
X0170996Y0017584D01*
X0170994Y0017589D01*
X0170871Y0017756D01*
X0170729Y0017825D01*
X0170552Y0017799D01*
X0170323Y0017679D01*
X0170301Y0017664D01*
X0170125Y0017515D01*
X0169981Y0017339D01*
X0169882Y0017161D01*
X0169843Y0017004D01*
X0168174Y0017004D01*
X0168163Y0017062D01*
X0168169Y0017439D01*
X0168282Y0017791D01*
X0168504Y0018126D01*
X0168837Y0018451D01*
X0169280Y0018770D01*
X0169891Y0019085D01*
X0170562Y0019302D01*
X0171293Y0019422D01*
X0171708Y0019460D01*
X0172013Y0019146D01*
X0172095Y0019056D01*
X0172403Y0018628D01*
X0172657Y0018106D01*
X0172859Y0017487D01*
X0173007Y0016769D01*
X0173060Y0016330D01*
X0173105Y0015952D01*
X0173140Y0015520D01*
G37*
G36*
X0185331Y0030826D02*
G01*
X0185468Y0030813D01*
X0185698Y0030789D01*
X0186005Y0030755D01*
X0186375Y0030714D01*
X0186794Y0030666D01*
X0187247Y0030615D01*
X0187720Y0030560D01*
X0188199Y0030504D01*
X0188670Y0030449D01*
X0189117Y0030397D01*
X0189528Y0030348D01*
X0189887Y0030304D01*
X0190181Y0030268D01*
X0190394Y0030240D01*
X0190513Y0030223D01*
X0190534Y0030220D01*
X0190723Y0030158D01*
X0190843Y0030042D01*
X0190906Y0029855D01*
X0190924Y0029577D01*
X0190921Y0029377D01*
X0190907Y0029121D01*
X0190887Y0028916D01*
X0190884Y0028892D01*
X0190855Y0028751D01*
X0190801Y0028647D01*
X0190697Y0028549D01*
X0190521Y0028423D01*
X0190483Y0028397D01*
X0190361Y0028307D01*
X0190260Y0028213D01*
X0190166Y0028097D01*
X0190064Y0027938D01*
X0189940Y0027715D01*
X0189779Y0027411D01*
X0189713Y0027281D01*
X0189562Y0026961D01*
X0189407Y0026606D01*
X0189255Y0026235D01*
X0189114Y0025868D01*
X0188991Y0025526D01*
X0188894Y0025227D01*
X0188831Y0024992D01*
X0188808Y0024841D01*
X0188806Y0024820D01*
X0188791Y0024694D01*
X0188760Y0024475D01*
X0188716Y0024180D01*
X0188661Y0023822D01*
X0188597Y0023417D01*
X0188527Y0022980D01*
X0188471Y0022636D01*
X0188393Y0022158D01*
X0188332Y0021775D01*
X0188285Y0021477D01*
X0188253Y0021252D01*
X0188234Y0021091D01*
X0188228Y0020981D01*
X0188234Y0020913D01*
X0188250Y0020874D01*
X0188276Y0020855D01*
X0188312Y0020845D01*
X0188356Y0020832D01*
X0188513Y0020731D01*
X0188670Y0020531D01*
X0188787Y0020269D01*
X0188848Y0019971D01*
X0188859Y0019801D01*
X0188846Y0019638D01*
X0188796Y0019472D01*
X0188699Y0019255D01*
X0188640Y0019136D01*
X0188509Y0018921D01*
X0188360Y0018760D01*
X0188159Y0018614D01*
X0188136Y0018590D01*
X0188104Y0018513D01*
X0188075Y0018376D01*
X0188046Y0018166D01*
X0188016Y0017868D01*
X0187982Y0017470D01*
X0187963Y0017238D01*
X0187925Y0016775D01*
X0187883Y0016290D01*
X0187844Y0015830D01*
X0187809Y0015439D01*
X0187800Y0015343D01*
X0187764Y0014925D01*
X0187726Y0014477D01*
X0187691Y0014047D01*
X0187663Y0013683D01*
X0187635Y0013363D01*
X0187561Y0012810D01*
X0187459Y0012351D01*
X0187326Y0011972D01*
X0187156Y0011662D01*
X0186947Y0011408D01*
X0186809Y0011286D01*
X0186510Y0011095D01*
X0186191Y0010967D01*
X0185890Y0010920D01*
X0185805Y0010925D01*
X0185502Y0010999D01*
X0185174Y0011150D01*
X0184847Y0011363D01*
X0184547Y0011621D01*
X0184299Y0011909D01*
X0184247Y0011986D01*
X0184123Y0012252D01*
X0184068Y0012518D01*
X0184082Y0012760D01*
X0184165Y0012956D01*
X0184316Y0013082D01*
X0184356Y0013101D01*
X0184393Y0013128D01*
X0184425Y0013172D01*
X0184456Y0013249D01*
X0184489Y0013371D01*
X0184527Y0013551D01*
X0184575Y0013804D01*
X0184636Y0014143D01*
X0184713Y0014581D01*
X0184729Y0014672D01*
X0184797Y0015121D01*
X0184829Y0015462D01*
X0184825Y0015696D01*
X0184816Y0015825D01*
X0184837Y0016065D01*
X0184914Y0016346D01*
X0184924Y0016376D01*
X0184980Y0016596D01*
X0185043Y0016900D01*
X0185108Y0017265D01*
X0185170Y0017666D01*
X0185226Y0018079D01*
X0185272Y0018478D01*
X0185293Y0018684D01*
X0184061Y0018978D01*
X0182972Y0019231D01*
X0181813Y0019484D01*
X0180741Y0019699D01*
X0180663Y0019714D01*
X0180433Y0019758D01*
X0180246Y0019795D01*
X0180136Y0019817D01*
X0180110Y0019821D01*
X0180065Y0019812D01*
X0180032Y0019765D01*
X0180005Y0019659D01*
X0179978Y0019477D01*
X0179946Y0019199D01*
X0179924Y0019000D01*
X0179888Y0018694D01*
X0179853Y0018418D01*
X0179824Y0018213D01*
X0179771Y0017830D01*
X0179708Y0017340D01*
X0179640Y0016770D01*
X0179568Y0016139D01*
X0179495Y0015465D01*
X0179422Y0014766D01*
X0179352Y0014059D01*
X0179286Y0013362D01*
X0179226Y0012693D01*
X0179198Y0012376D01*
X0179163Y0012041D01*
X0179127Y0011784D01*
X0179086Y0011584D01*
X0179035Y0011420D01*
X0178969Y0011272D01*
X0178884Y0011119D01*
X0178844Y0011053D01*
X0178651Y0010823D01*
X0178399Y0010650D01*
X0178061Y0010514D01*
X0177887Y0010459D01*
X0177746Y0010423D01*
X0177627Y0010414D01*
X0177486Y0010429D01*
X0177276Y0010466D01*
X0177178Y0010486D01*
X0176805Y0010613D01*
X0176518Y0010803D01*
X0176324Y0011051D01*
X0176310Y0011079D01*
X0176263Y0011189D01*
X0176229Y0011313D01*
X0176207Y0011461D01*
X0176199Y0011643D01*
X0176204Y0011868D01*
X0176224Y0012148D01*
X0176259Y0012491D01*
X0176310Y0012907D01*
X0176378Y0013407D01*
X0176462Y0013999D01*
X0176565Y0014695D01*
X0176663Y0015356D01*
X0176793Y0016263D01*
X0176904Y0017064D01*
X0176996Y0017765D01*
X0177069Y0018370D01*
X0177124Y0018883D01*
X0177161Y0019309D01*
X0177180Y0019653D01*
X0177183Y0019919D01*
X0177169Y0020112D01*
X0177138Y0020236D01*
X0177092Y0020295D01*
X0177000Y0020377D01*
X0176878Y0020556D01*
X0176753Y0020799D01*
X0176637Y0021078D01*
X0176541Y0021367D01*
X0176475Y0021639D01*
X0176451Y0021867D01*
X0176471Y0022083D01*
X0176557Y0022371D01*
X0176696Y0022634D01*
X0176872Y0022849D01*
X0177069Y0022994D01*
X0177273Y0023048D01*
X0177462Y0023048D01*
X0177584Y0024378D01*
X0177610Y0024661D01*
X0177673Y0025361D01*
X0177726Y0025978D01*
X0177771Y0026537D01*
X0177810Y0027060D01*
X0177845Y0027570D01*
X0177877Y0028091D01*
X0177882Y0028168D01*
X0177914Y0028584D01*
X0177958Y0028907D01*
X0178020Y0029154D01*
X0178110Y0029344D01*
X0178235Y0029493D01*
X0178404Y0029622D01*
X0178625Y0029746D01*
X0178748Y0029798D01*
X0179068Y0029871D01*
X0179422Y0029886D01*
X0179766Y0029845D01*
X0180055Y0029746D01*
X0180462Y0029488D01*
X0180769Y0029187D01*
X0180972Y0028846D01*
X0181067Y0028467D01*
X0181076Y0028294D01*
X0181067Y0027956D01*
X0181033Y0027520D01*
X0180975Y0026995D01*
X0180895Y0026388D01*
X0180792Y0025708D01*
X0180733Y0025337D01*
X0180631Y0024677D01*
X0180548Y0024119D01*
X0180483Y0023653D01*
X0180436Y0023273D01*
X0180404Y0022971D01*
X0180388Y0022738D01*
X0180369Y0022343D01*
X0180827Y0022175D01*
X0180897Y0022150D01*
X0181189Y0022056D01*
X0181542Y0021954D01*
X0181942Y0021846D01*
X0182375Y0021737D01*
X0182825Y0021630D01*
X0183280Y0021527D01*
X0183724Y0021431D01*
X0184144Y0021346D01*
X0184525Y0021275D01*
X0184852Y0021221D01*
X0185111Y0021187D01*
X0185289Y0021175D01*
X0185370Y0021190D01*
X0185382Y0021210D01*
X0185417Y0021334D01*
X0185456Y0021552D01*
X0185496Y0021847D01*
X0185537Y0022204D01*
X0185576Y0022608D01*
X0185614Y0023043D01*
X0185647Y0023493D01*
X0185676Y0023943D01*
X0185698Y0024377D01*
X0185712Y0024780D01*
X0185717Y0025136D01*
X0185721Y0025369D01*
X0185734Y0025704D01*
X0185756Y0026014D01*
X0185784Y0026256D01*
X0185787Y0026279D01*
X0185812Y0026477D01*
X0185820Y0026655D01*
X0185809Y0026846D01*
X0185778Y0027084D01*
X0185725Y0027400D01*
X0185675Y0027673D01*
X0185612Y0027995D01*
X0185552Y0028285D01*
X0185502Y0028502D01*
X0185500Y0028511D01*
X0185440Y0028724D01*
X0185375Y0028865D01*
X0185281Y0028975D01*
X0185132Y0029093D01*
X0185020Y0029185D01*
X0184889Y0029324D01*
X0184824Y0029437D01*
X0184819Y0029464D01*
X0184809Y0029614D01*
X0184808Y0029830D01*
X0184818Y0030074D01*
X0184827Y0030201D01*
X0184847Y0030403D01*
X0184877Y0030533D01*
X0184926Y0030622D01*
X0185001Y0030697D01*
X0185006Y0030702D01*
X0185155Y0030791D01*
X0185299Y0030828D01*
X0185331Y0030826D01*
G37*
G36*
X0161677Y0023615D02*
G01*
X0161940Y0023482D01*
X0162145Y0023281D01*
X0162204Y0023194D01*
X0162300Y0023029D01*
X0162378Y0022850D01*
X0162439Y0022649D01*
X0162480Y0022419D01*
X0162504Y0022151D01*
X0162509Y0021836D01*
X0162495Y0021467D01*
X0162462Y0021035D01*
X0162410Y0020532D01*
X0162338Y0019949D01*
X0162247Y0019279D01*
X0162136Y0018512D01*
X0162005Y0017641D01*
X0162004Y0017636D01*
X0161935Y0017173D01*
X0161868Y0016712D01*
X0161808Y0016274D01*
X0161756Y0015882D01*
X0161716Y0015558D01*
X0161691Y0015324D01*
X0161691Y0015322D01*
X0161665Y0015053D01*
X0161628Y0014702D01*
X0161584Y0014299D01*
X0161535Y0013877D01*
X0161487Y0013465D01*
X0161482Y0013425D01*
X0161435Y0013029D01*
X0161388Y0012641D01*
X0161346Y0012288D01*
X0161311Y0011994D01*
X0161287Y0011788D01*
X0161279Y0011728D01*
X0161240Y0011493D01*
X0161192Y0011299D01*
X0161145Y0011181D01*
X0161110Y0011138D01*
X0160955Y0011021D01*
X0160745Y0010915D01*
X0160518Y0010843D01*
X0160404Y0010825D01*
X0160150Y0010811D01*
X0159879Y0010822D01*
X0159636Y0010855D01*
X0159462Y0010908D01*
X0159413Y0010934D01*
X0159200Y0011116D01*
X0159055Y0011354D01*
X0159002Y0011615D01*
X0159002Y0011623D01*
X0159016Y0011757D01*
X0159048Y0011980D01*
X0159097Y0012270D01*
X0159158Y0012605D01*
X0159228Y0012965D01*
X0159270Y0013179D01*
X0159382Y0013755D01*
X0159473Y0014246D01*
X0159546Y0014674D01*
X0159604Y0015059D01*
X0159652Y0015421D01*
X0159692Y0015782D01*
X0159696Y0015826D01*
X0159724Y0016063D01*
X0159766Y0016388D01*
X0159818Y0016780D01*
X0159878Y0017219D01*
X0159943Y0017685D01*
X0160011Y0018156D01*
X0160057Y0018470D01*
X0160137Y0019041D01*
X0160200Y0019526D01*
X0160247Y0019942D01*
X0160280Y0020308D01*
X0160300Y0020642D01*
X0160307Y0020962D01*
X0160304Y0021286D01*
X0160290Y0021631D01*
X0160268Y0022016D01*
X0160257Y0022209D01*
X0160239Y0022526D01*
X0160231Y0022758D01*
X0160233Y0022924D01*
X0160245Y0023043D01*
X0160269Y0023134D01*
X0160305Y0023217D01*
X0160345Y0023287D01*
X0160532Y0023482D01*
X0160784Y0023613D01*
X0161075Y0023680D01*
X0161381Y0023681D01*
X0161677Y0023615D01*
G37*
G36*
X0196412Y0016363D02*
G01*
X0196407Y0015571D01*
X0196400Y0014836D01*
X0196393Y0014164D01*
X0196385Y0013563D01*
X0196377Y0013041D01*
X0196367Y0012604D01*
X0196357Y0012260D01*
X0196345Y0012016D01*
X0196333Y0011879D01*
X0196233Y0011322D01*
X0195961Y0010281D01*
X0195591Y0009289D01*
X0195128Y0008349D01*
X0194579Y0007469D01*
X0193948Y0006652D01*
X0193242Y0005904D01*
X0192466Y0005230D01*
X0191626Y0004636D01*
X0190728Y0004126D01*
X0189777Y0003705D01*
X0188778Y0003380D01*
X0187738Y0003154D01*
X0186662Y0003034D01*
X0186574Y0003031D01*
X0186370Y0003029D01*
X0186062Y0003026D01*
X0185655Y0003024D01*
X0185153Y0003021D01*
X0184563Y0003019D01*
X0183888Y0003017D01*
X0183135Y0003015D01*
X0182308Y0003014D01*
X0181414Y0003012D01*
X0180456Y0003011D01*
X0179440Y0003010D01*
X0178372Y0003009D01*
X0177256Y0003008D01*
X0176098Y0003007D01*
X0174903Y0003007D01*
X0173677Y0003007D01*
X0172423Y0003006D01*
X0171148Y0003006D01*
X0169857Y0003006D01*
X0168555Y0003006D01*
X0167247Y0003007D01*
X0165939Y0003007D01*
X0164635Y0003008D01*
X0163340Y0003009D01*
X0162061Y0003010D01*
X0160802Y0003011D01*
X0159568Y0003012D01*
X0158365Y0003013D01*
X0157198Y0003014D01*
X0156071Y0003016D01*
X0154991Y0003018D01*
X0153962Y0003019D01*
X0152990Y0003021D01*
X0152079Y0003023D01*
X0151236Y0003026D01*
X0150465Y0003028D01*
X0149770Y0003030D01*
X0149159Y0003033D01*
X0148635Y0003035D01*
X0148204Y0003038D01*
X0147872Y0003041D01*
X0147643Y0003044D01*
X0147522Y0003047D01*
X0147296Y0003063D01*
X0146920Y0003103D01*
X0146528Y0003158D01*
X0146174Y0003221D01*
X0145823Y0003298D01*
X0144788Y0003601D01*
X0143803Y0004002D01*
X0142875Y0004496D01*
X0142007Y0005076D01*
X0141206Y0005738D01*
X0140477Y0006476D01*
X0139825Y0007284D01*
X0139254Y0008156D01*
X0138770Y0009087D01*
X0138379Y0010072D01*
X0138086Y0011104D01*
X0137895Y0012178D01*
X0137890Y0012223D01*
X0137882Y0012396D01*
X0137874Y0012672D01*
X0137867Y0013053D01*
X0137861Y0013539D01*
X0137855Y0014132D01*
X0137850Y0014832D01*
X0137845Y0015640D01*
X0137842Y0016557D01*
X0137839Y0017584D01*
X0137837Y0018722D01*
X0137836Y0019204D01*
X0139106Y0019204D01*
X0139106Y0018106D01*
X0139107Y0017103D01*
X0139109Y0016199D01*
X0139112Y0015395D01*
X0139116Y0014692D01*
X0139121Y0014094D01*
X0139127Y0013602D01*
X0139133Y0013218D01*
X0139140Y0012945D01*
X0139148Y0012784D01*
X0139221Y0012136D01*
X0139424Y0011124D01*
X0139729Y0010161D01*
X0140137Y0009248D01*
X0140647Y0008386D01*
X0141259Y0007577D01*
X0141972Y0006821D01*
X0142057Y0006741D01*
X0142840Y0006088D01*
X0143679Y0005534D01*
X0144571Y0005081D01*
X0145511Y0004730D01*
X0146496Y0004483D01*
X0147522Y0004342D01*
X0147526Y0004341D01*
X0147645Y0004337D01*
X0147871Y0004333D01*
X0148202Y0004329D01*
X0148630Y0004325D01*
X0149152Y0004322D01*
X0149762Y0004318D01*
X0150455Y0004315D01*
X0151225Y0004312D01*
X0152067Y0004310D01*
X0152977Y0004307D01*
X0153949Y0004305D01*
X0154977Y0004303D01*
X0156057Y0004301D01*
X0157184Y0004300D01*
X0158352Y0004298D01*
X0159556Y0004297D01*
X0160790Y0004296D01*
X0162051Y0004295D01*
X0163332Y0004295D01*
X0164628Y0004294D01*
X0165934Y0004294D01*
X0167246Y0004294D01*
X0168557Y0004294D01*
X0169862Y0004295D01*
X0171157Y0004295D01*
X0172436Y0004296D01*
X0173695Y0004297D01*
X0174926Y0004299D01*
X0176127Y0004300D01*
X0177291Y0004302D01*
X0178413Y0004303D01*
X0179488Y0004306D01*
X0180511Y0004308D01*
X0181477Y0004310D01*
X0182380Y0004313D01*
X0183216Y0004316D01*
X0183978Y0004319D01*
X0184663Y0004322D01*
X0185264Y0004325D01*
X0185777Y0004329D01*
X0186196Y0004333D01*
X0186516Y0004337D01*
X0186732Y0004341D01*
X0186839Y0004346D01*
X0187275Y0004395D01*
X0188258Y0004585D01*
X0189202Y0004879D01*
X0190100Y0005269D01*
X0190947Y0005750D01*
X0191734Y0006318D01*
X0192457Y0006966D01*
X0193108Y0007689D01*
X0193682Y0008481D01*
X0194171Y0009337D01*
X0194569Y0010251D01*
X0194870Y0011218D01*
X0194893Y0011310D01*
X0194927Y0011449D01*
X0194958Y0011584D01*
X0194986Y0011721D01*
X0195012Y0011865D01*
X0195035Y0012021D01*
X0195055Y0012196D01*
X0195073Y0012394D01*
X0195089Y0012621D01*
X0195103Y0012881D01*
X0195115Y0013181D01*
X0195124Y0013526D01*
X0195133Y0013921D01*
X0195139Y0014371D01*
X0195144Y0014883D01*
X0195148Y0015460D01*
X0195151Y0016109D01*
X0195152Y0016835D01*
X0195153Y0017643D01*
X0195152Y0018538D01*
X0195151Y0019527D01*
X0195150Y0020614D01*
X0195147Y0021805D01*
X0195145Y0023105D01*
X0195143Y0023889D01*
X0195141Y0025093D01*
X0195139Y0026192D01*
X0195137Y0027190D01*
X0195135Y0028093D01*
X0195132Y0028907D01*
X0195129Y0029637D01*
X0195125Y0030289D01*
X0195120Y0030867D01*
X0195114Y0031377D01*
X0195107Y0031825D01*
X0195098Y0032216D01*
X0195088Y0032555D01*
X0195076Y0032848D01*
X0195063Y0033100D01*
X0195047Y0033318D01*
X0195029Y0033505D01*
X0195009Y0033667D01*
X0194986Y0033811D01*
X0194960Y0033941D01*
X0194931Y0034063D01*
X0194899Y0034182D01*
X0194864Y0034304D01*
X0194826Y0034433D01*
X0194784Y0034576D01*
X0194637Y0035035D01*
X0194263Y0035942D01*
X0193795Y0036807D01*
X0193241Y0037616D01*
X0192610Y0038354D01*
X0191913Y0039008D01*
X0191911Y0039010D01*
X0191619Y0039246D01*
X0191348Y0039454D01*
X0191109Y0039626D01*
X0190913Y0039755D01*
X0190772Y0039833D01*
X0190696Y0039852D01*
X0190697Y0039806D01*
X0190736Y0039736D01*
X0190826Y0039577D01*
X0190953Y0039354D01*
X0191107Y0039085D01*
X0191278Y0038789D01*
X0191365Y0038634D01*
X0191581Y0038244D01*
X0191803Y0037829D01*
X0192010Y0037432D01*
X0192179Y0037092D01*
X0192265Y0036914D01*
X0192389Y0036650D01*
X0192475Y0036448D01*
X0192531Y0036282D01*
X0192565Y0036127D01*
X0192586Y0035954D01*
X0192602Y0035739D01*
X0192614Y0035496D01*
X0192614Y0035288D01*
X0192591Y0035102D01*
X0192542Y0034897D01*
X0192461Y0034626D01*
X0192423Y0034510D01*
X0192310Y0034207D01*
X0192186Y0033915D01*
X0192070Y0033684D01*
X0191895Y0033397D01*
X0191572Y0032950D01*
X0191207Y0032520D01*
X0190816Y0032125D01*
X0190418Y0031781D01*
X0190030Y0031507D01*
X0189670Y0031320D01*
X0189538Y0031267D01*
X0189358Y0031202D01*
X0189243Y0031178D01*
X0189168Y0031191D01*
X0189108Y0031237D01*
X0189093Y0031263D01*
X0189112Y0031340D01*
X0189198Y0031465D01*
X0189359Y0031652D01*
X0189511Y0031824D01*
X0189876Y0032287D01*
X0190212Y0032778D01*
X0190511Y0033282D01*
X0190766Y0033784D01*
X0190969Y0034267D01*
X0191113Y0034716D01*
X0191189Y0035117D01*
X0191192Y0035452D01*
X0191170Y0035578D01*
X0191082Y0035882D01*
X0190937Y0036274D01*
X0190738Y0036746D01*
X0190487Y0037293D01*
X0190187Y0037909D01*
X0190067Y0038151D01*
X0189895Y0038509D01*
X0189765Y0038805D01*
X0189666Y0039062D01*
X0189588Y0039305D01*
X0189523Y0039556D01*
X0189480Y0039748D01*
X0189428Y0040006D01*
X0189393Y0040219D01*
X0189380Y0040353D01*
X0189377Y0040436D01*
X0189353Y0040506D01*
X0189286Y0040560D01*
X0189155Y0040616D01*
X0188936Y0040690D01*
X0188504Y0040823D01*
X0187685Y0041013D01*
X0186838Y0041127D01*
X0186820Y0041128D01*
X0186688Y0041135D01*
X0186475Y0041140D01*
X0186178Y0041146D01*
X0185796Y0041150D01*
X0185327Y0041155D01*
X0184768Y0041159D01*
X0184120Y0041162D01*
X0183378Y0041165D01*
X0182543Y0041168D01*
X0181613Y0041170D01*
X0180584Y0041172D01*
X0179457Y0041174D01*
X0178229Y0041175D01*
X0176899Y0041175D01*
X0175464Y0041176D01*
X0173923Y0041175D01*
X0172275Y0041175D01*
X0170518Y0041174D01*
X0168649Y0041172D01*
X0166668Y0041171D01*
X0166545Y0041171D01*
X0164776Y0041169D01*
X0163117Y0041167D01*
X0161565Y0041166D01*
X0160117Y0041164D01*
X0158768Y0041162D01*
X0157515Y0041161D01*
X0156354Y0041159D01*
X0155282Y0041157D01*
X0154294Y0041155D01*
X0153388Y0041153D01*
X0152559Y0041151D01*
X0151804Y0041148D01*
X0151120Y0041146D01*
X0150502Y0041143D01*
X0149947Y0041140D01*
X0149452Y0041137D01*
X0149011Y0041133D01*
X0148623Y0041129D01*
X0148284Y0041125D01*
X0147988Y0041121D01*
X0147734Y0041116D01*
X0147518Y0041110D01*
X0147334Y0041105D01*
X0147181Y0041098D01*
X0147054Y0041092D01*
X0146950Y0041085D01*
X0146865Y0041077D01*
X0146795Y0041069D01*
X0146737Y0041060D01*
X0146687Y0041051D01*
X0145825Y0040843D01*
X0144865Y0040519D01*
X0143972Y0040110D01*
X0143136Y0039610D01*
X0142349Y0039015D01*
X0141988Y0038693D01*
X0141314Y0037985D01*
X0140716Y0037205D01*
X0140203Y0036366D01*
X0139784Y0035485D01*
X0139469Y0034575D01*
X0139447Y0034495D01*
X0139406Y0034357D01*
X0139370Y0034230D01*
X0139336Y0034109D01*
X0139306Y0033989D01*
X0139279Y0033864D01*
X0139255Y0033729D01*
X0139234Y0033578D01*
X0139215Y0033406D01*
X0139198Y0033208D01*
X0139184Y0032977D01*
X0139171Y0032708D01*
X0139160Y0032396D01*
X0139151Y0032036D01*
X0139144Y0031621D01*
X0139138Y0031147D01*
X0139132Y0030608D01*
X0139128Y0029998D01*
X0139125Y0029312D01*
X0139122Y0028544D01*
X0139119Y0027690D01*
X0139117Y0026743D01*
X0139115Y0025698D01*
X0139113Y0024550D01*
X0139110Y0023292D01*
X0139110Y0023053D01*
X0139108Y0021680D01*
X0139106Y0020396D01*
X0139106Y0019204D01*
X0137836Y0019204D01*
X0137835Y0019972D01*
X0137834Y0021334D01*
X0137834Y0022810D01*
X0137834Y0024011D01*
X0137835Y0025192D01*
X0137835Y0026268D01*
X0137836Y0027245D01*
X0137837Y0028128D01*
X0137839Y0028921D01*
X0137841Y0029631D01*
X0137843Y0030262D01*
X0137846Y0030819D01*
X0137850Y0031308D01*
X0137854Y0031733D01*
X0137859Y0032100D01*
X0137864Y0032414D01*
X0137870Y0032680D01*
X0137877Y0032903D01*
X0137885Y0033089D01*
X0137893Y0033242D01*
X0137902Y0033368D01*
X0137913Y0033471D01*
X0137924Y0033557D01*
X0138094Y0034441D01*
X0138393Y0035471D01*
X0138792Y0036455D01*
X0139284Y0037386D01*
X0139864Y0038259D01*
X0140528Y0039068D01*
X0141270Y0039806D01*
X0142085Y0040467D01*
X0142967Y0041044D01*
X0143912Y0041532D01*
X0144914Y0041925D01*
X0145224Y0042024D01*
X0145971Y0042220D01*
X0146726Y0042356D01*
X0147538Y0042440D01*
X0147577Y0042442D01*
X0147753Y0042447D01*
X0148035Y0042452D01*
X0148420Y0042457D01*
X0148900Y0042461D01*
X0149473Y0042466D01*
X0150131Y0042470D01*
X0150869Y0042473D01*
X0151684Y0042477D01*
X0152568Y0042480D01*
X0153517Y0042483D01*
X0154526Y0042485D01*
X0155589Y0042488D01*
X0156701Y0042490D01*
X0157857Y0042492D01*
X0159051Y0042494D01*
X0160279Y0042495D01*
X0161534Y0042496D01*
X0162812Y0042497D01*
X0164108Y0042498D01*
X0165416Y0042499D01*
X0166730Y0042499D01*
X0168046Y0042499D01*
X0169359Y0042498D01*
X0170662Y0042498D01*
X0171952Y0042497D01*
X0173221Y0042496D01*
X0174466Y0042495D01*
X0175681Y0042493D01*
X0176861Y0042491D01*
X0178000Y0042489D01*
X0179093Y0042487D01*
X0180135Y0042484D01*
X0181121Y0042482D01*
X0182044Y0042479D01*
X0182901Y0042475D01*
X0183686Y0042472D01*
X0184393Y0042468D01*
X0185018Y0042464D01*
X0185554Y0042460D01*
X0185997Y0042455D01*
X0186342Y0042450D01*
X0186582Y0042445D01*
X0186714Y0042440D01*
X0187520Y0042355D01*
X0188332Y0042211D01*
X0189067Y0042017D01*
X0189127Y0041998D01*
X0189325Y0041937D01*
X0189443Y0041922D01*
X0189509Y0041967D01*
X0189547Y0042084D01*
X0189584Y0042288D01*
X0189590Y0042321D01*
X0189652Y0042478D01*
X0189762Y0042560D01*
X0189793Y0042571D01*
X0189904Y0042602D01*
X0189963Y0042578D01*
X0189986Y0042478D01*
X0189988Y0042284D01*
X0189988Y0042265D01*
X0189991Y0042032D01*
X0190014Y0041863D01*
X0190075Y0041737D01*
X0190190Y0041630D01*
X0190375Y0041520D01*
X0190647Y0041385D01*
X0191130Y0041134D01*
X0192023Y0040573D01*
X0192849Y0039926D01*
X0193604Y0039198D01*
X0194282Y0038398D01*
X0194877Y0037533D01*
X0195384Y0036609D01*
X0195798Y0035634D01*
X0196114Y0034615D01*
X0196327Y0033560D01*
X0196335Y0033484D01*
X0196346Y0033275D01*
X0196357Y0032963D01*
X0196367Y0032556D01*
X0196377Y0032062D01*
X0196385Y0031486D01*
X0196393Y0030838D01*
X0196400Y0030123D01*
X0196406Y0029349D01*
X0196412Y0028523D01*
X0196417Y0027653D01*
X0196421Y0026745D01*
X0196424Y0025807D01*
X0196426Y0024846D01*
X0196428Y0023870D01*
X0196429Y0022885D01*
X0196429Y0021899D01*
X0196428Y0020920D01*
X0196426Y0019953D01*
X0196424Y0019007D01*
X0196421Y0018088D01*
X0196419Y0017643D01*
X0196417Y0017205D01*
X0196412Y0016363D01*
G37*
G36*
X0165664Y0023667D02*
G01*
X0165982Y0023555D01*
X0166243Y0023346D01*
X0166445Y0023038D01*
X0166591Y0022632D01*
X0166610Y0022553D01*
X0166644Y0022335D01*
X0166663Y0022076D01*
X0166665Y0021769D01*
X0166649Y0021404D01*
X0166616Y0020975D01*
X0166564Y0020472D01*
X0166493Y0019890D01*
X0166402Y0019219D01*
X0166290Y0018451D01*
X0166157Y0017579D01*
X0166118Y0017326D01*
X0166048Y0016847D01*
X0165981Y0016363D01*
X0165921Y0015904D01*
X0165872Y0015498D01*
X0165838Y0015176D01*
X0165829Y0015079D01*
X0165776Y0014560D01*
X0165720Y0014035D01*
X0165660Y0013517D01*
X0165600Y0013020D01*
X0165541Y0012558D01*
X0165484Y0012142D01*
X0165431Y0011788D01*
X0165384Y0011507D01*
X0165345Y0011313D01*
X0165316Y0011220D01*
X0165248Y0011132D01*
X0165034Y0010966D01*
X0164764Y0010860D01*
X0164646Y0010841D01*
X0164436Y0010821D01*
X0164208Y0010812D01*
X0163863Y0010837D01*
X0163562Y0010935D01*
X0163349Y0011108D01*
X0163221Y0011355D01*
X0163178Y0011678D01*
X0163184Y0011766D01*
X0163210Y0011971D01*
X0163254Y0012245D01*
X0163311Y0012565D01*
X0163378Y0012904D01*
X0163413Y0013072D01*
X0163518Y0013598D01*
X0163603Y0014042D01*
X0163670Y0014426D01*
X0163724Y0014771D01*
X0163769Y0015102D01*
X0163807Y0015439D01*
X0163817Y0015529D01*
X0163851Y0015805D01*
X0163896Y0016157D01*
X0163950Y0016560D01*
X0164009Y0016987D01*
X0164070Y0017412D01*
X0164161Y0018032D01*
X0164243Y0018599D01*
X0164310Y0019077D01*
X0164365Y0019480D01*
X0164407Y0019819D01*
X0164439Y0020107D01*
X0164460Y0020357D01*
X0164472Y0020582D01*
X0164477Y0020795D01*
X0164475Y0021008D01*
X0164467Y0021233D01*
X0164455Y0021485D01*
X0164439Y0021774D01*
X0164433Y0021885D01*
X0164416Y0022246D01*
X0164405Y0022569D01*
X0164400Y0022835D01*
X0164402Y0023024D01*
X0164411Y0023118D01*
X0164417Y0023137D01*
X0164551Y0023363D01*
X0164774Y0023536D01*
X0165069Y0023647D01*
X0165420Y0023687D01*
X0165664Y0023667D01*
G37*
D138*
X0013583Y0103543D02*
G75*
G03*
X0013583Y0103543I-004724J0000000D01*
G01*
X0116598Y0280464D02*
G01*
G75*
D236*
X0092484Y0275838D02*
X0088252Y0280070D01*
X0092484Y0275838D02*
X0092484Y0258515D01*
X0116204Y0255070D02*
X0115712Y0255563D01*
X0095436Y0255563D01*
X0116204Y0255070D02*
X0116204Y0218948D01*
X0095436Y0255563D02*
X0092484Y0258515D01*
X0088252Y0280070D02*
X0052523Y0280070D01*
X0116204Y0218948D02*
X0052523Y0218948D01*
X0052523Y0280070D02*
X0052523Y0218948D01*
D200*
X0061070Y0274936D02*
X0056348Y0274936D01*
X0056348Y0272575D01*
X0057135Y0271788D01*
X0058709Y0271788D01*
X0059496Y0272575D01*
X0059496Y0274936D01*
X0059496Y0269426D02*
X0059496Y0267852D01*
X0058709Y0267065D01*
X0057135Y0267065D01*
X0056348Y0267852D01*
X0056348Y0269426D01*
X0057135Y0270214D01*
X0058709Y0270214D01*
X0059496Y0269426D01*
X0056348Y0265491D02*
X0058709Y0265491D01*
X0059496Y0264703D01*
X0058709Y0263916D01*
X0059496Y0263129D01*
X0058709Y0262342D01*
X0056348Y0262342D01*
X0059496Y0258406D02*
X0059496Y0259981D01*
X0058709Y0260768D01*
X0057135Y0260768D01*
X0056348Y0259981D01*
X0056348Y0258406D01*
X0057135Y0257619D01*
X0057922Y0257619D01*
X0057922Y0260768D01*
X0056348Y0256045D02*
X0059496Y0256045D01*
X0057922Y0256045D01*
X0057135Y0255258D01*
X0056348Y0254471D01*
X0056348Y0253683D01*
X0059496Y0251322D02*
X0059496Y0249748D01*
X0059496Y0250535D01*
X0054773Y0250535D01*
X0055560Y0251322D01*
X0059496Y0244238D02*
X0059496Y0247386D01*
X0056348Y0244238D01*
X0055560Y0244238D01*
X0054773Y0245025D01*
X0054773Y0246599D01*
X0055560Y0247386D01*
X0057135Y0242663D02*
X0057135Y0239515D01*
X0055560Y0237940D02*
X0054773Y0237153D01*
X0054773Y0235579D01*
X0055560Y0234792D01*
X0058709Y0234792D01*
X0059496Y0235579D01*
X0059496Y0237153D01*
X0058709Y0237940D01*
X0055560Y0237940D01*
X0059496Y0233218D02*
X0058709Y0233218D01*
X0058709Y0232431D01*
X0059496Y0232431D01*
X0059496Y0233218D01*
X0059496Y0226133D02*
X0059496Y0229282D01*
X0056348Y0226133D01*
X0055560Y0226133D01*
X0054773Y0226920D01*
X0054773Y0228495D01*
X0055560Y0229282D01*
X0121309Y0057037D02*
G01*
G75*
D236*
X0120915Y0057431D02*
X0120915Y0205659D01*
X0118553Y0208021D01*
X0118553Y0210088D01*
X0115994Y0212647D01*
X0098376Y0178592D02*
X0098376Y0188927D01*
X0092373Y0057431D02*
X0092666Y0212647D01*
X0120915Y0057431D02*
X0092373Y0057431D01*
X0115994Y0212647D02*
X0092666Y0212647D01*
D200*
X0118537Y0153183D02*
X0113814Y0153183D01*
X0113814Y0150821D01*
X0114602Y0150034D01*
X0116176Y0150034D01*
X0116963Y0150821D01*
X0116963Y0153183D01*
X0116963Y0147673D02*
X0116963Y0146098D01*
X0116176Y0145311D01*
X0114602Y0145311D01*
X0113814Y0146098D01*
X0113814Y0147673D01*
X0114602Y0148460D01*
X0116176Y0148460D01*
X0116963Y0147673D01*
X0113814Y0143737D02*
X0116176Y0143737D01*
X0116963Y0142950D01*
X0116176Y0142163D01*
X0116963Y0141375D01*
X0116176Y0140588D01*
X0113814Y0140588D01*
X0116963Y0136653D02*
X0116963Y0138227D01*
X0116176Y0139014D01*
X0114602Y0139014D01*
X0113814Y0138227D01*
X0113814Y0136653D01*
X0114602Y0135865D01*
X0115389Y0135865D01*
X0115389Y0139014D01*
X0113814Y0134291D02*
X0116963Y0134291D01*
X0115389Y0134291D01*
X0114602Y0133504D01*
X0113814Y0132717D01*
X0113814Y0131930D01*
X0112240Y0126420D02*
X0112240Y0129568D01*
X0114602Y0129568D01*
X0113814Y0127994D01*
X0113814Y0127207D01*
X0114602Y0126420D01*
X0116176Y0126420D01*
X0116963Y0127207D01*
X0116963Y0128781D01*
X0116176Y0129568D01*
X0114602Y0124845D02*
X0114602Y0121697D01*
X0113027Y0120123D02*
X0112240Y0119335D01*
X0112240Y0117761D01*
X0113027Y0116974D01*
X0116176Y0116974D01*
X0116963Y0117761D01*
X0116963Y0119335D01*
X0116176Y0120123D01*
X0113027Y0120123D01*
X0116963Y0115400D02*
X0116176Y0115400D01*
X0116176Y0114613D01*
X0116963Y0114613D01*
X0116963Y0115400D01*
X0116963Y0108315D02*
X0116963Y0111464D01*
X0113814Y0108315D01*
X0113027Y0108315D01*
X0112240Y0109102D01*
X0112240Y0110677D01*
X0113027Y0111464D01*
X0118701Y0298819D02*
%LPD*%
G01*
D236*
X0185040Y0227362D02*
X0185040Y0298425D01*
X0185040Y0298425D02*
X0119095Y0298425D01*
X0119095Y0298425D02*
X0119095Y0227362D01*
X0119095Y0227362D02*
X0185040Y0227362D01*
X0236174Y0065237D02*
G01*
G75*
D236*
X0285091Y0038465D02*
X0285091Y0034528D01*
X0288044Y0041418D02*
X0290401Y0041418D01*
X0289174Y0065237D02*
X0290401Y0064010D01*
X0237356Y0065237D02*
X0236569Y0064449D01*
X0236569Y0035511D01*
X0237552Y0034528D01*
X0285091Y0034528D01*
X0288044Y0041418D02*
X0285091Y0038465D01*
X0290401Y0064010D02*
X0290401Y0041418D01*
D200*
X0241603Y0061580D02*
X0243177Y0061580D01*
X0242390Y0061580D01*
X0242390Y0058431D01*
X0241603Y0058431D01*
X0247113Y0063154D02*
X0247900Y0063154D01*
X0248688Y0062367D01*
X0248688Y0058431D01*
X0246326Y0058431D01*
X0245539Y0059218D01*
X0245539Y0060793D01*
X0246326Y0061580D01*
X0248688Y0061580D01*
X0250262Y0061580D02*
X0250262Y0058431D01*
X0252623Y0058431D01*
X0253410Y0059218D01*
X0253410Y0061580D01*
X0254985Y0057644D02*
X0255772Y0056857D01*
X0257346Y0056857D01*
X0258133Y0057644D01*
X0258133Y0058431D01*
X0257346Y0059218D01*
X0258133Y0060006D01*
X0258133Y0060793D01*
X0257346Y0061580D01*
X0255772Y0061580D01*
X0254985Y0060793D01*
X0254985Y0060006D01*
X0255772Y0059218D01*
X0254985Y0058431D01*
X0254985Y0057644D01*
X0255772Y0059218D02*
X0257346Y0059218D01*
X0259708Y0059218D02*
X0262856Y0059218D01*
X0264430Y0057644D02*
X0265217Y0056857D01*
X0266792Y0056857D01*
X0267579Y0057644D01*
X0267579Y0060793D01*
X0266792Y0061580D01*
X0265217Y0061580D01*
X0264430Y0060793D01*
X0264430Y0057644D01*
X0269153Y0061580D02*
X0269153Y0060793D01*
X0269940Y0060793D01*
X0269940Y0061580D01*
X0269153Y0061580D01*
X0273089Y0061580D02*
X0274663Y0061580D01*
X0273876Y0061580D01*
X0273876Y0056857D01*
X0273089Y0057644D01*
X0320571Y0276889D02*
G01*
G75*
D236*
X0318602Y0219507D02*
X0200886Y0219507D01*
X0198918Y0221476D01*
X0198918Y0272854D02*
X0198918Y0221476D01*
X0202559Y0276495D02*
X0198918Y0272854D01*
X0314075Y0276495D02*
X0202539Y0276495D01*
X0320177Y0270393D02*
X0314075Y0276495D01*
X0320177Y0270393D02*
X0320177Y0221082D01*
X0318602Y0219507D01*
D200*
X0315536Y0266440D02*
X0315536Y0264866D01*
X0315536Y0265653D01*
X0312387Y0265653D01*
X0312387Y0266440D01*
X0315536Y0262504D02*
X0312387Y0262504D01*
X0312387Y0260143D01*
X0313175Y0259356D01*
X0315536Y0259356D01*
X0317110Y0257782D02*
X0312387Y0257782D01*
X0312387Y0255420D01*
X0313175Y0254633D01*
X0314749Y0254633D01*
X0315536Y0255420D01*
X0315536Y0257782D01*
X0312387Y0253059D02*
X0314749Y0253059D01*
X0315536Y0252271D01*
X0315536Y0249910D01*
X0312387Y0249910D01*
X0311600Y0247549D02*
X0312387Y0247549D01*
X0312387Y0248336D01*
X0312387Y0246761D01*
X0312387Y0247549D01*
X0314749Y0247549D01*
X0315536Y0246761D01*
X0313175Y0244400D02*
X0313175Y0241251D01*
X0311600Y0239677D02*
X0310813Y0238890D01*
X0310813Y0237316D01*
X0311600Y0236529D01*
X0314749Y0236529D01*
X0315536Y0237316D01*
X0315536Y0238890D01*
X0314749Y0239677D01*
X0311600Y0239677D01*
X0315536Y0234954D02*
X0314749Y0234954D01*
X0314749Y0234167D01*
X0315536Y0234167D01*
X0315536Y0234954D01*
X0315536Y0231019D02*
X0315536Y0229444D01*
X0315536Y0230231D01*
X0310813Y0230231D01*
X0311600Y0231019D01*
X0321014Y0213006D02*
G01*
G75*
D236*
X0318700Y0066353D02*
X0147884Y0066353D01*
X0145128Y0069108D01*
X0139124Y0069108D01*
X0320620Y0210368D02*
X0318380Y0212608D01*
X0138241Y0069991D02*
X0138241Y0211260D01*
X0320620Y0068272D02*
X0320620Y0210368D01*
X0320620Y0068272D02*
X0318700Y0066353D01*
X0318380Y0212608D02*
X0139590Y0212608D01*
X0138241Y0211260D01*
X0139124Y0069108D02*
X0138241Y0069991D01*
D200*
X0314109Y0195864D02*
X0310960Y0195864D01*
X0310960Y0195077D01*
X0311747Y0194290D01*
X0314109Y0194290D01*
X0311747Y0194290D01*
X0310960Y0193503D01*
X0311747Y0192716D01*
X0314109Y0192716D01*
X0310960Y0187993D02*
X0310960Y0190354D01*
X0311747Y0191141D01*
X0313321Y0191141D01*
X0314109Y0190354D01*
X0314109Y0187993D01*
X0310960Y0186418D02*
X0313321Y0186418D01*
X0314109Y0185631D01*
X0314109Y0183270D01*
X0310960Y0183270D01*
X0314109Y0181696D02*
X0314109Y0180121D01*
X0314109Y0180908D01*
X0309386Y0180908D01*
X0310173Y0181696D01*
X0314109Y0175398D02*
X0309386Y0175398D01*
X0311747Y0177760D01*
X0311747Y0174611D01*
X0314109Y0170676D02*
X0309386Y0170676D01*
X0311747Y0173037D01*
X0311747Y0169888D01*
X0311747Y0168314D02*
X0311747Y0165166D01*
X0310173Y0163591D02*
X0309386Y0162804D01*
X0309386Y0161230D01*
X0310173Y0160443D01*
X0313321Y0160443D01*
X0314109Y0161230D01*
X0314109Y0162804D01*
X0313321Y0163591D01*
X0310173Y0163591D01*
X0314109Y0158868D02*
X0313321Y0158868D01*
X0313321Y0158081D01*
X0314109Y0158081D01*
X0314109Y0158868D01*
X0309386Y0151784D02*
X0310173Y0153358D01*
X0311747Y0154933D01*
X0313321Y0154933D01*
X0314109Y0154146D01*
X0314109Y0152571D01*
X0313321Y0151784D01*
X0312534Y0151784D01*
X0311747Y0152571D01*
X0311747Y0154933D01*
X0228025Y0020030D02*
G01*
G75*
D236*
X0227434Y0021506D02*
X0227631Y0021728D01*
X0227434Y0021506D02*
X0224186Y0021506D01*
X0223104Y0020424D02*
X0224186Y0021506D01*
X0227656Y0064420D02*
X0200518Y0064420D01*
X0200671Y0020424D02*
X0200518Y0064420D01*
X0227631Y0021728D02*
X0227631Y0064420D01*
X0223104Y0020424D02*
X0200671Y0020424D01*
D200*
X0205865Y0053775D02*
X0205865Y0056137D01*
X0206652Y0056924D01*
X0208226Y0056924D01*
X0209013Y0056137D01*
X0209013Y0053775D01*
X0205865Y0051414D02*
X0205865Y0049839D01*
X0206652Y0049052D01*
X0209013Y0049052D01*
X0209013Y0051414D01*
X0208226Y0052201D01*
X0207439Y0051414D01*
X0207439Y0049052D01*
X0209013Y0047478D02*
X0205865Y0047478D01*
X0205865Y0045117D01*
X0206652Y0044329D01*
X0209013Y0044329D01*
X0206652Y0042755D02*
X0206652Y0039607D01*
X0205077Y0038032D02*
X0204290Y0037245D01*
X0204290Y0035671D01*
X0205077Y0034884D01*
X0208226Y0034884D01*
X0209013Y0035671D01*
X0209013Y0037245D01*
X0208226Y0038032D01*
X0205077Y0038032D01*
X0209013Y0033309D02*
X0208226Y0033309D01*
X0208226Y0032522D01*
X0209013Y0032522D01*
X0209013Y0033309D01*
X0209013Y0029374D02*
X0209013Y0027799D01*
X0209013Y0028586D01*
X0204290Y0028586D01*
X0205077Y0029374D01*
M02*
