G75*
G70*
%OFA0B0*%
%FSLAX25Y25*%
%IPPOS*%
%LPD*%
%AMOC8*
5,1,8,0,0,1.08239X$1,22.5*
%
%AMM113*
21,1,0.074800,0.083460,0.000000,-0.000000,270.000000*
21,1,0.059840,0.098430,0.000000,-0.000000,270.000000*
1,1,0.014960,-0.041730,-0.029920*
1,1,0.014960,-0.041730,0.029920*
1,1,0.014960,0.041730,0.029920*
1,1,0.014960,0.041730,-0.029920*
%
%AMM114*
21,1,0.086610,0.073230,0.000000,-0.000000,180.000000*
21,1,0.069290,0.090550,0.000000,-0.000000,180.000000*
1,1,0.017320,-0.034650,0.036610*
1,1,0.017320,0.034650,0.036610*
1,1,0.017320,0.034650,-0.036610*
1,1,0.017320,-0.034650,-0.036610*
%
%AMM115*
21,1,0.078740,0.053540,0.000000,-0.000000,90.000000*
21,1,0.065350,0.066930,0.000000,-0.000000,90.000000*
1,1,0.013390,0.026770,0.032680*
1,1,0.013390,0.026770,-0.032680*
1,1,0.013390,-0.026770,-0.032680*
1,1,0.013390,-0.026770,0.032680*
%
%AMM116*
21,1,0.035430,0.030320,0.000000,-0.000000,0.000000*
21,1,0.028350,0.037400,0.000000,-0.000000,0.000000*
1,1,0.007090,0.014170,-0.015160*
1,1,0.007090,-0.014170,-0.015160*
1,1,0.007090,-0.014170,0.015160*
1,1,0.007090,0.014170,0.015160*
%
%AMM117*
21,1,0.021650,0.052760,0.000000,-0.000000,180.000000*
21,1,0.017320,0.057090,0.000000,-0.000000,180.000000*
1,1,0.004330,-0.008660,0.026380*
1,1,0.004330,0.008660,0.026380*
1,1,0.004330,0.008660,-0.026380*
1,1,0.004330,-0.008660,-0.026380*
%
%AMM118*
21,1,0.035830,0.026770,0.000000,-0.000000,270.000000*
21,1,0.029130,0.033470,0.000000,-0.000000,270.000000*
1,1,0.006690,-0.013390,-0.014570*
1,1,0.006690,-0.013390,0.014570*
1,1,0.006690,0.013390,0.014570*
1,1,0.006690,0.013390,-0.014570*
%
%AMM119*
21,1,0.094490,0.111020,0.000000,-0.000000,270.000000*
21,1,0.075590,0.129920,0.000000,-0.000000,270.000000*
1,1,0.018900,-0.055510,-0.037800*
1,1,0.018900,-0.055510,0.037800*
1,1,0.018900,0.055510,0.037800*
1,1,0.018900,0.055510,-0.037800*
%
%AMM120*
21,1,0.070870,0.036220,0.000000,-0.000000,0.000000*
21,1,0.061810,0.045280,0.000000,-0.000000,0.000000*
1,1,0.009060,0.030910,-0.018110*
1,1,0.009060,-0.030910,-0.018110*
1,1,0.009060,-0.030910,0.018110*
1,1,0.009060,0.030910,0.018110*
%
%AMM121*
21,1,0.033470,0.026770,0.000000,-0.000000,270.000000*
21,1,0.026770,0.033470,0.000000,-0.000000,270.000000*
1,1,0.006690,-0.013390,-0.013390*
1,1,0.006690,-0.013390,0.013390*
1,1,0.006690,0.013390,0.013390*
1,1,0.006690,0.013390,-0.013390*
%
%AMM122*
21,1,0.015750,0.016540,0.000000,-0.000000,180.000000*
21,1,0.012600,0.019680,0.000000,-0.000000,180.000000*
1,1,0.003150,-0.006300,0.008270*
1,1,0.003150,0.006300,0.008270*
1,1,0.003150,0.006300,-0.008270*
1,1,0.003150,-0.006300,-0.008270*
%
%AMM123*
21,1,0.023620,0.018900,0.000000,-0.000000,0.000000*
21,1,0.018900,0.023620,0.000000,-0.000000,0.000000*
1,1,0.004720,0.009450,-0.009450*
1,1,0.004720,-0.009450,-0.009450*
1,1,0.004720,-0.009450,0.009450*
1,1,0.004720,0.009450,0.009450*
%
%AMM124*
21,1,0.019680,0.019680,0.000000,-0.000000,270.000000*
21,1,0.015750,0.023620,0.000000,-0.000000,270.000000*
1,1,0.003940,-0.009840,-0.007870*
1,1,0.003940,-0.009840,0.007870*
1,1,0.003940,0.009840,0.007870*
1,1,0.003940,0.009840,-0.007870*
%
%AMM125*
21,1,0.019680,0.019680,0.000000,-0.000000,180.000000*
21,1,0.015750,0.023620,0.000000,-0.000000,180.000000*
1,1,0.003940,-0.007870,0.009840*
1,1,0.003940,0.007870,0.009840*
1,1,0.003940,0.007870,-0.009840*
1,1,0.003940,-0.007870,-0.009840*
%
%AMM37*
21,1,0.035430,0.030320,0.000000,0.000000,180.000000*
21,1,0.028350,0.037400,0.000000,0.000000,180.000000*
1,1,0.007090,-0.014170,0.015160*
1,1,0.007090,0.014170,0.015160*
1,1,0.007090,0.014170,-0.015160*
1,1,0.007090,-0.014170,-0.015160*
%
%AMM38*
21,1,0.027560,0.030710,0.000000,0.000000,180.000000*
21,1,0.022050,0.036220,0.000000,0.000000,180.000000*
1,1,0.005510,-0.011020,0.015350*
1,1,0.005510,0.011020,0.015350*
1,1,0.005510,0.011020,-0.015350*
1,1,0.005510,-0.011020,-0.015350*
%
%AMM9*
21,1,0.033470,0.026770,0.000000,0.000000,0.000000*
21,1,0.026770,0.033470,0.000000,0.000000,0.000000*
1,1,0.006690,0.013390,-0.013390*
1,1,0.006690,-0.013390,-0.013390*
1,1,0.006690,-0.013390,0.013390*
1,1,0.006690,0.013390,0.013390*
%
%ADD12R,0.01969X0.07874*%
%ADD13R,0.07874X0.06693*%
%ADD130R,0.02559X0.01575*%
%ADD137R,0.01575X0.02559*%
%ADD139M37*%
%ADD140O,0.08661X0.02362*%
%ADD141M38*%
%ADD21C,0.02362*%
%ADD224M113*%
%ADD225M114*%
%ADD226M115*%
%ADD227M116*%
%ADD228M117*%
%ADD229M118*%
%ADD230M119*%
%ADD231M120*%
%ADD232M121*%
%ADD233M122*%
%ADD234M123*%
%ADD235M124*%
%ADD236M125*%
%ADD38R,0.05118X0.03937*%
%ADD53R,0.02913X0.09449*%
%ADD65R,0.10827X0.12008*%
%ADD66O,0.00000X0.00000*%
%ADD85M9*%
X0000000Y0000000D02*
%LPD*%
G01*
G36*
G01*
X0198667Y0328156D02*
X0193746Y0328156D01*
G75*
G02*
X0193352Y0328550I0000000J0000394D01*
G01*
X0193352Y0331699D01*
G75*
G02*
X0193746Y0332093I0000394J0000000D01*
G01*
X0198667Y0332093D01*
G75*
G02*
X0199061Y0331699I0000000J-000394D01*
G01*
X0199061Y0328550D01*
G75*
G02*
X0198667Y0328156I-000394J0000000D01*
G01*
G37*
G36*
G01*
X0198667Y0335636D02*
X0193746Y0335636D01*
G75*
G02*
X0193352Y0336030I0000000J0000394D01*
G01*
X0193352Y0339180D01*
G75*
G02*
X0193746Y0339573I0000394J0000000D01*
G01*
X0198667Y0339573D01*
G75*
G02*
X0199061Y0339180I0000000J-000394D01*
G01*
X0199061Y0336030D01*
G75*
G02*
X0198667Y0335636I-000394J0000000D01*
G01*
G37*
G36*
G01*
X0068937Y0210039D02*
X0072008Y0210039D01*
G75*
G02*
X0072283Y0209764I0000000J-000276D01*
G01*
X0072283Y0207559D01*
G75*
G02*
X0072008Y0207283I-000276J0000000D01*
G01*
X0068937Y0207283D01*
G75*
G02*
X0068661Y0207559I0000000J0000276D01*
G01*
X0068661Y0209764D01*
G75*
G02*
X0068937Y0210039I0000276J0000000D01*
G01*
G37*
G36*
G01*
X0068937Y0203740D02*
X0072008Y0203740D01*
G75*
G02*
X0072283Y0203465I0000000J-000276D01*
G01*
X0072283Y0201260D01*
G75*
G02*
X0072008Y0200984I-000276J0000000D01*
G01*
X0068937Y0200984D01*
G75*
G02*
X0068661Y0201260I0000000J0000276D01*
G01*
X0068661Y0203465D01*
G75*
G02*
X0068937Y0203740I0000276J0000000D01*
G01*
G37*
G36*
G01*
X0066535Y0299469D02*
X0066535Y0302106D01*
G75*
G02*
X0066791Y0302362I0000256J0000000D01*
G01*
X0068839Y0302362D01*
G75*
G02*
X0069094Y0302106I0000000J-000256D01*
G01*
X0069094Y0299469D01*
G75*
G02*
X0068839Y0299213I-000256J0000000D01*
G01*
X0066791Y0299213D01*
G75*
G02*
X0066535Y0299469I0000000J0000256D01*
G01*
G37*
G36*
G01*
X0070374Y0299390D02*
X0070374Y0302185D01*
G75*
G02*
X0070551Y0302362I0000177J0000000D01*
G01*
X0071969Y0302362D01*
G75*
G02*
X0072146Y0302185I0000000J-000177D01*
G01*
X0072146Y0299390D01*
G75*
G02*
X0071969Y0299213I-000177J0000000D01*
G01*
X0070551Y0299213D01*
G75*
G02*
X0070374Y0299390I0000000J0000177D01*
G01*
G37*
G36*
G01*
X0073524Y0299390D02*
X0073524Y0302185D01*
G75*
G02*
X0073701Y0302362I0000177J0000000D01*
G01*
X0075118Y0302362D01*
G75*
G02*
X0075295Y0302185I0000000J-000177D01*
G01*
X0075295Y0299390D01*
G75*
G02*
X0075118Y0299213I-000177J0000000D01*
G01*
X0073701Y0299213D01*
G75*
G02*
X0073524Y0299390I0000000J0000177D01*
G01*
G37*
G36*
G01*
X0076575Y0299469D02*
X0076575Y0302106D01*
G75*
G02*
X0076831Y0302362I0000256J0000000D01*
G01*
X0078878Y0302362D01*
G75*
G02*
X0079134Y0302106I0000000J-000256D01*
G01*
X0079134Y0299469D01*
G75*
G02*
X0078878Y0299213I-000256J0000000D01*
G01*
X0076831Y0299213D01*
G75*
G02*
X0076575Y0299469I0000000J0000256D01*
G01*
G37*
G36*
G01*
X0076575Y0306555D02*
X0076575Y0309193D01*
G75*
G02*
X0076831Y0309449I0000256J0000000D01*
G01*
X0078878Y0309449D01*
G75*
G02*
X0079134Y0309193I0000000J-000256D01*
G01*
X0079134Y0306555D01*
G75*
G02*
X0078878Y0306299I-000256J0000000D01*
G01*
X0076831Y0306299D01*
G75*
G02*
X0076575Y0306555I0000000J0000256D01*
G01*
G37*
G36*
G01*
X0073524Y0306476D02*
X0073524Y0309272D01*
G75*
G02*
X0073701Y0309449I0000177J0000000D01*
G01*
X0075118Y0309449D01*
G75*
G02*
X0075295Y0309272I0000000J-000177D01*
G01*
X0075295Y0306476D01*
G75*
G02*
X0075118Y0306299I-000177J0000000D01*
G01*
X0073701Y0306299D01*
G75*
G02*
X0073524Y0306476I0000000J0000177D01*
G01*
G37*
G36*
G01*
X0070374Y0306476D02*
X0070374Y0309272D01*
G75*
G02*
X0070551Y0309449I0000177J0000000D01*
G01*
X0071969Y0309449D01*
G75*
G02*
X0072146Y0309272I0000000J-000177D01*
G01*
X0072146Y0306476D01*
G75*
G02*
X0071969Y0306299I-000177J0000000D01*
G01*
X0070551Y0306299D01*
G75*
G02*
X0070374Y0306476I0000000J0000177D01*
G01*
G37*
G36*
G01*
X0066535Y0306555D02*
X0066535Y0309193D01*
G75*
G02*
X0066791Y0309449I0000256J0000000D01*
G01*
X0068839Y0309449D01*
G75*
G02*
X0069094Y0309193I0000000J-000256D01*
G01*
X0069094Y0306555D01*
G75*
G02*
X0068839Y0306299I-000256J0000000D01*
G01*
X0066791Y0306299D01*
G75*
G02*
X0066535Y0306555I0000000J0000256D01*
G01*
G37*
G36*
G01*
X0079228Y0354909D02*
X0079228Y0352272D01*
G75*
G02*
X0078972Y0352016I-000256J0000000D01*
G01*
X0076925Y0352016D01*
G75*
G02*
X0076669Y0352272I0000000J0000256D01*
G01*
X0076669Y0354909D01*
G75*
G02*
X0076925Y0355165I0000256J0000000D01*
G01*
X0078972Y0355165D01*
G75*
G02*
X0079228Y0354909I0000000J-000256D01*
G01*
G37*
G36*
G01*
X0075390Y0354988D02*
X0075390Y0352193D01*
G75*
G02*
X0075213Y0352016I-000177J0000000D01*
G01*
X0073795Y0352016D01*
G75*
G02*
X0073618Y0352193I0000000J0000177D01*
G01*
X0073618Y0354988D01*
G75*
G02*
X0073795Y0355165I0000177J0000000D01*
G01*
X0075213Y0355165D01*
G75*
G02*
X0075390Y0354988I0000000J-000177D01*
G01*
G37*
G36*
G01*
X0072240Y0354988D02*
X0072240Y0352193D01*
G75*
G02*
X0072063Y0352016I-000177J0000000D01*
G01*
X0070646Y0352016D01*
G75*
G02*
X0070469Y0352193I0000000J0000177D01*
G01*
X0070469Y0354988D01*
G75*
G02*
X0070646Y0355165I0000177J0000000D01*
G01*
X0072063Y0355165D01*
G75*
G02*
X0072240Y0354988I0000000J-000177D01*
G01*
G37*
G36*
G01*
X0069189Y0354909D02*
X0069189Y0352272D01*
G75*
G02*
X0068933Y0352016I-000256J0000000D01*
G01*
X0066886Y0352016D01*
G75*
G02*
X0066630Y0352272I0000000J0000256D01*
G01*
X0066630Y0354909D01*
G75*
G02*
X0066886Y0355165I0000256J0000000D01*
G01*
X0068933Y0355165D01*
G75*
G02*
X0069189Y0354909I0000000J-000256D01*
G01*
G37*
G36*
G01*
X0069189Y0347823D02*
X0069189Y0345185D01*
G75*
G02*
X0068933Y0344929I-000256J0000000D01*
G01*
X0066886Y0344929D01*
G75*
G02*
X0066630Y0345185I0000000J0000256D01*
G01*
X0066630Y0347823D01*
G75*
G02*
X0066886Y0348079I0000256J0000000D01*
G01*
X0068933Y0348079D01*
G75*
G02*
X0069189Y0347823I0000000J-000256D01*
G01*
G37*
G36*
G01*
X0072240Y0347902D02*
X0072240Y0345106D01*
G75*
G02*
X0072063Y0344929I-000177J0000000D01*
G01*
X0070646Y0344929D01*
G75*
G02*
X0070469Y0345106I0000000J0000177D01*
G01*
X0070469Y0347902D01*
G75*
G02*
X0070646Y0348079I0000177J0000000D01*
G01*
X0072063Y0348079D01*
G75*
G02*
X0072240Y0347902I0000000J-000177D01*
G01*
G37*
G36*
G01*
X0075390Y0347902D02*
X0075390Y0345106D01*
G75*
G02*
X0075213Y0344929I-000177J0000000D01*
G01*
X0073795Y0344929D01*
G75*
G02*
X0073618Y0345106I0000000J0000177D01*
G01*
X0073618Y0347902D01*
G75*
G02*
X0073795Y0348079I0000177J0000000D01*
G01*
X0075213Y0348079D01*
G75*
G02*
X0075390Y0347902I0000000J-000177D01*
G01*
G37*
G36*
G01*
X0079228Y0347823D02*
X0079228Y0345185D01*
G75*
G02*
X0078972Y0344929I-000256J0000000D01*
G01*
X0076925Y0344929D01*
G75*
G02*
X0076669Y0345185I0000000J0000256D01*
G01*
X0076669Y0347823D01*
G75*
G02*
X0076925Y0348079I0000256J0000000D01*
G01*
X0078972Y0348079D01*
G75*
G02*
X0079228Y0347823I0000000J-000256D01*
G01*
G37*
G36*
G01*
X0088583Y0090020D02*
X0085906Y0090020D01*
G75*
G02*
X0085571Y0090354I0000000J0000335D01*
G01*
X0085571Y0093031D01*
G75*
G02*
X0085906Y0093366I0000335J0000000D01*
G01*
X0088583Y0093366D01*
G75*
G02*
X0088917Y0093031I0000000J-000335D01*
G01*
X0088917Y0090354D01*
G75*
G02*
X0088583Y0090020I-000335J0000000D01*
G01*
G37*
G36*
G01*
X0088583Y0096240D02*
X0085906Y0096240D01*
G75*
G02*
X0085571Y0096575I0000000J0000335D01*
G01*
X0085571Y0099252D01*
G75*
G02*
X0085906Y0099587I0000335J0000000D01*
G01*
X0088583Y0099587D01*
G75*
G02*
X0088917Y0099252I0000000J-000335D01*
G01*
X0088917Y0096575D01*
G75*
G02*
X0088583Y0096240I-000335J0000000D01*
G01*
G37*
G36*
G01*
X0190975Y0328240D02*
X0186053Y0328240D01*
G75*
G02*
X0185660Y0328634I0000000J0000394D01*
G01*
X0185660Y0331784D01*
G75*
G02*
X0186053Y0332177I0000394J0000000D01*
G01*
X0190975Y0332177D01*
G75*
G02*
X0191368Y0331784I0000000J-000394D01*
G01*
X0191368Y0328634D01*
G75*
G02*
X0190975Y0328240I-000394J0000000D01*
G01*
G37*
G36*
G01*
X0190975Y0335721D02*
X0186053Y0335721D01*
G75*
G02*
X0185660Y0336114I0000000J0000394D01*
G01*
X0185660Y0339264D01*
G75*
G02*
X0186053Y0339658I0000394J0000000D01*
G01*
X0190975Y0339658D01*
G75*
G02*
X0191368Y0339264I0000000J-000394D01*
G01*
X0191368Y0336114D01*
G75*
G02*
X0190975Y0335721I-000394J0000000D01*
G01*
G37*
G36*
G01*
X0140945Y0336240D02*
X0140945Y0338957D01*
G75*
G02*
X0141850Y0339862I0000906J0000000D01*
G01*
X0147126Y0339862D01*
G75*
G02*
X0148031Y0338957I0000000J-000906D01*
G01*
X0148031Y0336240D01*
G75*
G02*
X0147126Y0335335I-000906J0000000D01*
G01*
X0141850Y0335335D01*
G75*
G02*
X0140945Y0336240I0000000J0000906D01*
G01*
G37*
G36*
G01*
X0140945Y0324823D02*
X0140945Y0327539D01*
G75*
G02*
X0141850Y0328445I0000906J0000000D01*
G01*
X0147126Y0328445D01*
G75*
G02*
X0148031Y0327539I0000000J-000906D01*
G01*
X0148031Y0324823D01*
G75*
G02*
X0147126Y0323917I-000906J0000000D01*
G01*
X0141850Y0323917D01*
G75*
G02*
X0140945Y0324823I0000000J0000906D01*
G01*
G37*
G36*
G01*
X0224705Y0301969D02*
X0224705Y0300787D01*
G75*
G02*
X0224114Y0300197I-000591J0000000D01*
G01*
X0219488Y0300197D01*
G75*
G02*
X0218898Y0300787I0000000J0000591D01*
G01*
X0218898Y0301969D01*
G75*
G02*
X0219488Y0302559I0000591J0000000D01*
G01*
X0224114Y0302559D01*
G75*
G02*
X0224705Y0301969I0000000J-000591D01*
G01*
G37*
G36*
G01*
X0217323Y0305709D02*
X0217323Y0304528D01*
G75*
G02*
X0216732Y0303937I-000591J0000000D01*
G01*
X0212106Y0303937D01*
G75*
G02*
X0211516Y0304528I0000000J0000591D01*
G01*
X0211516Y0305709D01*
G75*
G02*
X0212106Y0306299I0000591J0000000D01*
G01*
X0216732Y0306299D01*
G75*
G02*
X0217323Y0305709I0000000J-000591D01*
G01*
G37*
G36*
G01*
X0224705Y0309449D02*
X0224705Y0308268D01*
G75*
G02*
X0224114Y0307677I-000591J0000000D01*
G01*
X0219488Y0307677D01*
G75*
G02*
X0218898Y0308268I0000000J0000591D01*
G01*
X0218898Y0309449D01*
G75*
G02*
X0219488Y0310039I0000591J0000000D01*
G01*
X0224114Y0310039D01*
G75*
G02*
X0224705Y0309449I0000000J-000591D01*
G01*
G37*
G36*
G01*
X0069140Y0314961D02*
X0071030Y0314961D01*
G75*
G02*
X0071266Y0314724I0000000J-000236D01*
G01*
X0071266Y0312835D01*
G75*
G02*
X0071030Y0312598I-000236J0000000D01*
G01*
X0069140Y0312598D01*
G75*
G02*
X0068904Y0312835I0000000J0000236D01*
G01*
X0068904Y0314724D01*
G75*
G02*
X0069140Y0314961I0000236J0000000D01*
G01*
G37*
G36*
G01*
X0077801Y0314961D02*
X0079691Y0314961D01*
G75*
G02*
X0079927Y0314724I0000000J-000236D01*
G01*
X0079927Y0312835D01*
G75*
G02*
X0079691Y0312598I-000236J0000000D01*
G01*
X0077801Y0312598D01*
G75*
G02*
X0077565Y0312835I0000000J0000236D01*
G01*
X0077565Y0314724D01*
G75*
G02*
X0077801Y0314961I0000236J0000000D01*
G01*
G37*
G36*
G01*
X0052756Y0331496D02*
X0049213Y0331496D01*
G75*
G02*
X0048819Y0331890I0000000J0000394D01*
G01*
X0048819Y0335039D01*
G75*
G02*
X0049213Y0335433I0000394J0000000D01*
G01*
X0052756Y0335433D01*
G75*
G02*
X0053150Y0335039I0000000J-000394D01*
G01*
X0053150Y0331890D01*
G75*
G02*
X0052756Y0331496I-000394J0000000D01*
G01*
G37*
G36*
G01*
X0052756Y0338189D02*
X0049213Y0338189D01*
G75*
G02*
X0048819Y0338583I0000000J0000394D01*
G01*
X0048819Y0341732D01*
G75*
G02*
X0049213Y0342126I0000394J0000000D01*
G01*
X0052756Y0342126D01*
G75*
G02*
X0053150Y0341732I0000000J-000394D01*
G01*
X0053150Y0338583D01*
G75*
G02*
X0052756Y0338189I-000394J0000000D01*
G01*
G37*
G36*
G01*
X0067159Y0402805D02*
X0069049Y0402805D01*
G75*
G02*
X0069285Y0402569I0000000J-000236D01*
G01*
X0069285Y0400679D01*
G75*
G02*
X0069049Y0400443I-000236J0000000D01*
G01*
X0067159Y0400443D01*
G75*
G02*
X0066923Y0400679I0000000J0000236D01*
G01*
X0066923Y0402569D01*
G75*
G02*
X0067159Y0402805I0000236J0000000D01*
G01*
G37*
G36*
G01*
X0075821Y0402805D02*
X0077711Y0402805D01*
G75*
G02*
X0077947Y0402569I0000000J-000236D01*
G01*
X0077947Y0400679D01*
G75*
G02*
X0077711Y0400443I-000236J0000000D01*
G01*
X0075821Y0400443D01*
G75*
G02*
X0075585Y0400679I0000000J0000236D01*
G01*
X0075585Y0402569D01*
G75*
G02*
X0075821Y0402805I0000236J0000000D01*
G01*
G37*
G36*
G01*
X0056949Y0114606D02*
X0056949Y0113425D01*
G75*
G02*
X0056358Y0112835I-000591J0000000D01*
G01*
X0051732Y0112835D01*
G75*
G02*
X0051142Y0113425I0000000J0000591D01*
G01*
X0051142Y0114606D01*
G75*
G02*
X0051732Y0115197I0000591J0000000D01*
G01*
X0056358Y0115197D01*
G75*
G02*
X0056949Y0114606I0000000J-000591D01*
G01*
G37*
G36*
G01*
X0049567Y0118346D02*
X0049567Y0117165D01*
G75*
G02*
X0048976Y0116575I-000591J0000000D01*
G01*
X0044350Y0116575D01*
G75*
G02*
X0043760Y0117165I0000000J0000591D01*
G01*
X0043760Y0118346D01*
G75*
G02*
X0044350Y0118937I0000591J0000000D01*
G01*
X0048976Y0118937D01*
G75*
G02*
X0049567Y0118346I0000000J-000591D01*
G01*
G37*
G36*
G01*
X0056949Y0122087D02*
X0056949Y0120906D01*
G75*
G02*
X0056358Y0120315I-000591J0000000D01*
G01*
X0051732Y0120315D01*
G75*
G02*
X0051142Y0120906I0000000J0000591D01*
G01*
X0051142Y0122087D01*
G75*
G02*
X0051732Y0122677I0000591J0000000D01*
G01*
X0056358Y0122677D01*
G75*
G02*
X0056949Y0122087I0000000J-000591D01*
G01*
G37*
G36*
G01*
X0040354Y0154764D02*
X0040354Y0150748D01*
G75*
G02*
X0040000Y0150394I-000354J0000000D01*
G01*
X0037165Y0150394D01*
G75*
G02*
X0036811Y0150748I0000000J0000354D01*
G01*
X0036811Y0154764D01*
G75*
G02*
X0037165Y0155118I0000354J0000000D01*
G01*
X0040000Y0155118D01*
G75*
G02*
X0040354Y0154764I0000000J-000354D01*
G01*
G37*
G36*
G01*
X0027362Y0154764D02*
X0027362Y0150748D01*
G75*
G02*
X0027008Y0150394I-000354J0000000D01*
G01*
X0024173Y0150394D01*
G75*
G02*
X0023819Y0150748I0000000J0000354D01*
G01*
X0023819Y0154764D01*
G75*
G02*
X0024173Y0155118I0000354J0000000D01*
G01*
X0027008Y0155118D01*
G75*
G02*
X0027362Y0154764I0000000J-000354D01*
G01*
G37*
G36*
G01*
X0052756Y0311024D02*
X0049213Y0311024D01*
G75*
G02*
X0048819Y0311417I0000000J0000394D01*
G01*
X0048819Y0314567D01*
G75*
G02*
X0049213Y0314961I0000394J0000000D01*
G01*
X0052756Y0314961D01*
G75*
G02*
X0053150Y0314567I0000000J-000394D01*
G01*
X0053150Y0311417D01*
G75*
G02*
X0052756Y0311024I-000394J0000000D01*
G01*
G37*
G36*
G01*
X0052756Y0317717D02*
X0049213Y0317717D01*
G75*
G02*
X0048819Y0318110I0000000J0000394D01*
G01*
X0048819Y0321260D01*
G75*
G02*
X0049213Y0321654I0000394J0000000D01*
G01*
X0052756Y0321654D01*
G75*
G02*
X0053150Y0321260I0000000J-000394D01*
G01*
X0053150Y0318110D01*
G75*
G02*
X0052756Y0317717I-000394J0000000D01*
G01*
G37*
G36*
G01*
X0078150Y0111850D02*
X0078150Y0114921D01*
G75*
G02*
X0078425Y0115197I0000276J0000000D01*
G01*
X0080630Y0115197D01*
G75*
G02*
X0080906Y0114921I0000000J-000276D01*
G01*
X0080906Y0111850D01*
G75*
G02*
X0080630Y0111575I-000276J0000000D01*
G01*
X0078425Y0111575D01*
G75*
G02*
X0078150Y0111850I0000000J0000276D01*
G01*
G37*
G36*
G01*
X0084449Y0111850D02*
X0084449Y0114921D01*
G75*
G02*
X0084724Y0115197I0000276J0000000D01*
G01*
X0086929Y0115197D01*
G75*
G02*
X0087205Y0114921I0000000J-000276D01*
G01*
X0087205Y0111850D01*
G75*
G02*
X0086929Y0111575I-000276J0000000D01*
G01*
X0084724Y0111575D01*
G75*
G02*
X0084449Y0111850I0000000J0000276D01*
G01*
G37*
G36*
G01*
X0067165Y0395669D02*
X0069055Y0395669D01*
G75*
G02*
X0069291Y0395433I0000000J-000236D01*
G01*
X0069291Y0393543D01*
G75*
G02*
X0069055Y0393307I-000236J0000000D01*
G01*
X0067165Y0393307D01*
G75*
G02*
X0066929Y0393543I0000000J0000236D01*
G01*
X0066929Y0395433D01*
G75*
G02*
X0067165Y0395669I0000236J0000000D01*
G01*
G37*
G36*
G01*
X0075827Y0395669D02*
X0077717Y0395669D01*
G75*
G02*
X0077953Y0395433I0000000J-000236D01*
G01*
X0077953Y0393543D01*
G75*
G02*
X0077717Y0393307I-000236J0000000D01*
G01*
X0075827Y0393307D01*
G75*
G02*
X0075591Y0393543I0000000J0000236D01*
G01*
X0075591Y0395433D01*
G75*
G02*
X0075827Y0395669I0000236J0000000D01*
G01*
G37*
G36*
G01*
X0203346Y0302583D02*
X0203346Y0299512D01*
G75*
G02*
X0203071Y0299236I-000276J0000000D01*
G01*
X0200866Y0299236D01*
G75*
G02*
X0200591Y0299512I0000000J0000276D01*
G01*
X0200591Y0302583D01*
G75*
G02*
X0200866Y0302858I0000276J0000000D01*
G01*
X0203071Y0302858D01*
G75*
G02*
X0203346Y0302583I0000000J-000276D01*
G01*
G37*
G36*
G01*
X0197047Y0302583D02*
X0197047Y0299512D01*
G75*
G02*
X0196772Y0299236I-000276J0000000D01*
G01*
X0194567Y0299236D01*
G75*
G02*
X0194291Y0299512I0000000J0000276D01*
G01*
X0194291Y0302583D01*
G75*
G02*
X0194567Y0302858I0000276J0000000D01*
G01*
X0196772Y0302858D01*
G75*
G02*
X0197047Y0302583I0000000J-000276D01*
G01*
G37*
G36*
G01*
X0052756Y0372441D02*
X0049213Y0372441D01*
G75*
G02*
X0048819Y0372835I0000000J0000394D01*
G01*
X0048819Y0375984D01*
G75*
G02*
X0049213Y0376378I0000394J0000000D01*
G01*
X0052756Y0376378D01*
G75*
G02*
X0053150Y0375984I0000000J-000394D01*
G01*
X0053150Y0372835D01*
G75*
G02*
X0052756Y0372441I-000394J0000000D01*
G01*
G37*
G36*
G01*
X0052756Y0379134D02*
X0049213Y0379134D01*
G75*
G02*
X0048819Y0379528I0000000J0000394D01*
G01*
X0048819Y0382677D01*
G75*
G02*
X0049213Y0383071I0000394J0000000D01*
G01*
X0052756Y0383071D01*
G75*
G02*
X0053150Y0382677I0000000J-000394D01*
G01*
X0053150Y0379528D01*
G75*
G02*
X0052756Y0379134I-000394J0000000D01*
G01*
G37*
G36*
G01*
X0098917Y0328150D02*
X0093996Y0328150D01*
G75*
G02*
X0093602Y0328543I0000000J0000394D01*
G01*
X0093602Y0331693D01*
G75*
G02*
X0093996Y0332087I0000394J0000000D01*
G01*
X0098917Y0332087D01*
G75*
G02*
X0099311Y0331693I0000000J-000394D01*
G01*
X0099311Y0328543D01*
G75*
G02*
X0098917Y0328150I-000394J0000000D01*
G01*
G37*
G36*
G01*
X0098917Y0335630D02*
X0093996Y0335630D01*
G75*
G02*
X0093602Y0336024I0000000J0000394D01*
G01*
X0093602Y0339173D01*
G75*
G02*
X0093996Y0339567I0000394J0000000D01*
G01*
X0098917Y0339567D01*
G75*
G02*
X0099311Y0339173I0000000J-000394D01*
G01*
X0099311Y0336024D01*
G75*
G02*
X0098917Y0335630I-000394J0000000D01*
G01*
G37*
G36*
G01*
X0290748Y0409547D02*
X0290748Y0404626D01*
G75*
G02*
X0290354Y0404232I-000394J0000000D01*
G01*
X0287205Y0404232D01*
G75*
G02*
X0286811Y0404626I0000000J0000394D01*
G01*
X0286811Y0409547D01*
G75*
G02*
X0287205Y0409941I0000394J0000000D01*
G01*
X0290354Y0409941D01*
G75*
G02*
X0290748Y0409547I0000000J-000394D01*
G01*
G37*
G36*
G01*
X0283268Y0409547D02*
X0283268Y0404626D01*
G75*
G02*
X0282874Y0404232I-000394J0000000D01*
G01*
X0279724Y0404232D01*
G75*
G02*
X0279331Y0404626I0000000J0000394D01*
G01*
X0279331Y0409547D01*
G75*
G02*
X0279724Y0409941I0000394J0000000D01*
G01*
X0282874Y0409941D01*
G75*
G02*
X0283268Y0409547I0000000J-000394D01*
G01*
G37*
D12*
X0107520Y0036122D03*
X0110669Y0036122D03*
X0113819Y0036122D03*
X0116969Y0036122D03*
X0120118Y0036122D03*
D13*
X0131339Y0014272D03*
X0096299Y0014272D03*
X0131339Y0035728D03*
X0096299Y0035728D03*
D65*
X0313957Y0375886D03*
X0313957Y0362697D03*
X0301949Y0362697D03*
X0301949Y0375886D03*
G36*
G01*
X0300866Y0340157D02*
X0297087Y0340157D01*
G75*
G02*
X0296614Y0340630I0000000J0000472D01*
G01*
X0296614Y0348346D01*
G75*
G02*
X0297087Y0348819I0000472J0000000D01*
G01*
X0300866Y0348819D01*
G75*
G02*
X0301339Y0348346I0000000J-000472D01*
G01*
X0301339Y0340630D01*
G75*
G02*
X0300866Y0340157I-000472J0000000D01*
G01*
G37*
G36*
G01*
X0318819Y0340157D02*
X0315039Y0340157D01*
G75*
G02*
X0314567Y0340630I0000000J0000472D01*
G01*
X0314567Y0348346D01*
G75*
G02*
X0315039Y0348819I0000472J0000000D01*
G01*
X0318819Y0348819D01*
G75*
G02*
X0319291Y0348346I0000000J-000472D01*
G01*
X0319291Y0340630D01*
G75*
G02*
X0318819Y0340157I-000472J0000000D01*
G01*
G37*
G36*
G01*
X0032677Y0200098D02*
X0033858Y0200098D01*
G75*
G02*
X0034449Y0199508I0000000J-000591D01*
G01*
X0034449Y0194882D01*
G75*
G02*
X0033858Y0194291I-000591J0000000D01*
G01*
X0032677Y0194291D01*
G75*
G02*
X0032087Y0194882I0000000J0000591D01*
G01*
X0032087Y0199508D01*
G75*
G02*
X0032677Y0200098I0000591J0000000D01*
G01*
G37*
G36*
G01*
X0028937Y0192717D02*
X0030118Y0192717D01*
G75*
G02*
X0030709Y0192126I0000000J-000591D01*
G01*
X0030709Y0187500D01*
G75*
G02*
X0030118Y0186909I-000591J0000000D01*
G01*
X0028937Y0186909D01*
G75*
G02*
X0028346Y0187500I0000000J0000591D01*
G01*
X0028346Y0192126D01*
G75*
G02*
X0028937Y0192717I0000591J0000000D01*
G01*
G37*
G36*
G01*
X0025197Y0200098D02*
X0026378Y0200098D01*
G75*
G02*
X0026969Y0199508I0000000J-000591D01*
G01*
X0026969Y0194882D01*
G75*
G02*
X0026378Y0194291I-000591J0000000D01*
G01*
X0025197Y0194291D01*
G75*
G02*
X0024606Y0194882I0000000J0000591D01*
G01*
X0024606Y0199508D01*
G75*
G02*
X0025197Y0200098I0000591J0000000D01*
G01*
G37*
G36*
G01*
X0235465Y0287598D02*
X0232394Y0287598D01*
G75*
G02*
X0232118Y0287874I0000000J0000276D01*
G01*
X0232118Y0290079D01*
G75*
G02*
X0232394Y0290354I0000276J0000000D01*
G01*
X0235465Y0290354D01*
G75*
G02*
X0235740Y0290079I0000000J-000276D01*
G01*
X0235740Y0287874D01*
G75*
G02*
X0235465Y0287598I-000276J0000000D01*
G01*
G37*
G36*
G01*
X0235465Y0293898D02*
X0232394Y0293898D01*
G75*
G02*
X0232118Y0294173I0000000J0000276D01*
G01*
X0232118Y0296378D01*
G75*
G02*
X0232394Y0296654I0000276J0000000D01*
G01*
X0235465Y0296654D01*
G75*
G02*
X0235740Y0296378I0000000J-000276D01*
G01*
X0235740Y0294173D01*
G75*
G02*
X0235465Y0293898I-000276J0000000D01*
G01*
G37*
G36*
G01*
X0081732Y0183465D02*
X0084803Y0183465D01*
G75*
G02*
X0085079Y0183189I0000000J-000276D01*
G01*
X0085079Y0180984D01*
G75*
G02*
X0084803Y0180709I-000276J0000000D01*
G01*
X0081732Y0180709D01*
G75*
G02*
X0081457Y0180984I0000000J0000276D01*
G01*
X0081457Y0183189D01*
G75*
G02*
X0081732Y0183465I0000276J0000000D01*
G01*
G37*
G36*
G01*
X0081732Y0177165D02*
X0084803Y0177165D01*
G75*
G02*
X0085079Y0176890I0000000J-000276D01*
G01*
X0085079Y0174685D01*
G75*
G02*
X0084803Y0174409I-000276J0000000D01*
G01*
X0081732Y0174409D01*
G75*
G02*
X0081457Y0174685I0000000J0000276D01*
G01*
X0081457Y0176890D01*
G75*
G02*
X0081732Y0177165I0000276J0000000D01*
G01*
G37*
G36*
G01*
X0044882Y0175689D02*
X0043701Y0175689D01*
G75*
G02*
X0043110Y0176280I0000000J0000591D01*
G01*
X0043110Y0180906D01*
G75*
G02*
X0043701Y0181496I0000591J0000000D01*
G01*
X0044882Y0181496D01*
G75*
G02*
X0045472Y0180906I0000000J-000591D01*
G01*
X0045472Y0176280D01*
G75*
G02*
X0044882Y0175689I-000591J0000000D01*
G01*
G37*
G36*
G01*
X0048622Y0183071D02*
X0047441Y0183071D01*
G75*
G02*
X0046850Y0183661I0000000J0000591D01*
G01*
X0046850Y0188287D01*
G75*
G02*
X0047441Y0188878I0000591J0000000D01*
G01*
X0048622Y0188878D01*
G75*
G02*
X0049213Y0188287I0000000J-000591D01*
G01*
X0049213Y0183661D01*
G75*
G02*
X0048622Y0183071I-000591J0000000D01*
G01*
G37*
G36*
G01*
X0052362Y0175689D02*
X0051181Y0175689D01*
G75*
G02*
X0050591Y0176280I0000000J0000591D01*
G01*
X0050591Y0180906D01*
G75*
G02*
X0051181Y0181496I0000591J0000000D01*
G01*
X0052362Y0181496D01*
G75*
G02*
X0052953Y0180906I0000000J-000591D01*
G01*
X0052953Y0176280D01*
G75*
G02*
X0052362Y0175689I-000591J0000000D01*
G01*
G37*
G36*
G01*
X0155610Y0328150D02*
X0150689Y0328150D01*
G75*
G02*
X0150295Y0328543I0000000J0000394D01*
G01*
X0150295Y0331693D01*
G75*
G02*
X0150689Y0332087I0000394J0000000D01*
G01*
X0155610Y0332087D01*
G75*
G02*
X0156004Y0331693I0000000J-000394D01*
G01*
X0156004Y0328543D01*
G75*
G02*
X0155610Y0328150I-000394J0000000D01*
G01*
G37*
G36*
G01*
X0155610Y0335630D02*
X0150689Y0335630D01*
G75*
G02*
X0150295Y0336024I0000000J0000394D01*
G01*
X0150295Y0339173D01*
G75*
G02*
X0150689Y0339567I0000394J0000000D01*
G01*
X0155610Y0339567D01*
G75*
G02*
X0156004Y0339173I0000000J-000394D01*
G01*
X0156004Y0336024D01*
G75*
G02*
X0155610Y0335630I-000394J0000000D01*
G01*
G37*
G36*
G01*
X0203740Y0308583D02*
X0203740Y0305512D01*
G75*
G02*
X0203465Y0305236I-000276J0000000D01*
G01*
X0201260Y0305236D01*
G75*
G02*
X0200984Y0305512I0000000J0000276D01*
G01*
X0200984Y0308583D01*
G75*
G02*
X0201260Y0308858I0000276J0000000D01*
G01*
X0203465Y0308858D01*
G75*
G02*
X0203740Y0308583I0000000J-000276D01*
G01*
G37*
G36*
G01*
X0197441Y0308583D02*
X0197441Y0305512D01*
G75*
G02*
X0197165Y0305236I-000276J0000000D01*
G01*
X0194961Y0305236D01*
G75*
G02*
X0194685Y0305512I0000000J0000276D01*
G01*
X0194685Y0308583D01*
G75*
G02*
X0194961Y0308858I0000276J0000000D01*
G01*
X0197165Y0308858D01*
G75*
G02*
X0197441Y0308583I0000000J-000276D01*
G01*
G37*
D66*
X0268711Y0002861D03*
G36*
G01*
X0077370Y0117020D02*
X0076189Y0117020D01*
G75*
G02*
X0075598Y0117610I0000000J0000591D01*
G01*
X0075598Y0122236D01*
G75*
G02*
X0076189Y0122827I0000591J0000000D01*
G01*
X0077370Y0122827D01*
G75*
G02*
X0077961Y0122236I0000000J-000591D01*
G01*
X0077961Y0117610D01*
G75*
G02*
X0077370Y0117020I-000591J0000000D01*
G01*
G37*
G36*
G01*
X0081110Y0124402D02*
X0079929Y0124402D01*
G75*
G02*
X0079339Y0124992I0000000J0000591D01*
G01*
X0079339Y0129618D01*
G75*
G02*
X0079929Y0130209I0000591J0000000D01*
G01*
X0081110Y0130209D01*
G75*
G02*
X0081701Y0129618I0000000J-000591D01*
G01*
X0081701Y0124992D01*
G75*
G02*
X0081110Y0124402I-000591J0000000D01*
G01*
G37*
G36*
G01*
X0084850Y0117020D02*
X0083669Y0117020D01*
G75*
G02*
X0083079Y0117610I0000000J0000591D01*
G01*
X0083079Y0122236D01*
G75*
G02*
X0083669Y0122827I0000591J0000000D01*
G01*
X0084850Y0122827D01*
G75*
G02*
X0085441Y0122236I0000000J-000591D01*
G01*
X0085441Y0117610D01*
G75*
G02*
X0084850Y0117020I-000591J0000000D01*
G01*
G37*
G36*
G01*
X0069669Y0130209D02*
X0070850Y0130209D01*
G75*
G02*
X0071441Y0129618I0000000J-000591D01*
G01*
X0071441Y0124992D01*
G75*
G02*
X0070850Y0124402I-000591J0000000D01*
G01*
X0069669Y0124402D01*
G75*
G02*
X0069079Y0124992I0000000J0000591D01*
G01*
X0069079Y0129618D01*
G75*
G02*
X0069669Y0130209I0000591J0000000D01*
G01*
G37*
G36*
G01*
X0065929Y0122827D02*
X0067110Y0122827D01*
G75*
G02*
X0067701Y0122236I0000000J-000591D01*
G01*
X0067701Y0117610D01*
G75*
G02*
X0067110Y0117020I-000591J0000000D01*
G01*
X0065929Y0117020D01*
G75*
G02*
X0065339Y0117610I0000000J0000591D01*
G01*
X0065339Y0122236D01*
G75*
G02*
X0065929Y0122827I0000591J0000000D01*
G01*
G37*
G36*
G01*
X0062189Y0130209D02*
X0063370Y0130209D01*
G75*
G02*
X0063961Y0129618I0000000J-000591D01*
G01*
X0063961Y0124992D01*
G75*
G02*
X0063370Y0124402I-000591J0000000D01*
G01*
X0062189Y0124402D01*
G75*
G02*
X0061598Y0124992I0000000J0000591D01*
G01*
X0061598Y0129618D01*
G75*
G02*
X0062189Y0130209I0000591J0000000D01*
G01*
G37*
G36*
G01*
X0306299Y0329882D02*
X0306299Y0333898D01*
G75*
G02*
X0306654Y0334252I0000354J0000000D01*
G01*
X0309488Y0334252D01*
G75*
G02*
X0309843Y0333898I0000000J-000354D01*
G01*
X0309843Y0329882D01*
G75*
G02*
X0309488Y0329528I-000354J0000000D01*
G01*
X0306654Y0329528D01*
G75*
G02*
X0306299Y0329882I0000000J0000354D01*
G01*
G37*
G36*
G01*
X0319291Y0329882D02*
X0319291Y0333898D01*
G75*
G02*
X0319646Y0334252I0000354J0000000D01*
G01*
X0322480Y0334252D01*
G75*
G02*
X0322835Y0333898I0000000J-000354D01*
G01*
X0322835Y0329882D01*
G75*
G02*
X0322480Y0329528I-000354J0000000D01*
G01*
X0319646Y0329528D01*
G75*
G02*
X0319291Y0329882I0000000J0000354D01*
G01*
G37*
G36*
G01*
X0040571Y0136654D02*
X0040571Y0135472D01*
G75*
G02*
X0039980Y0134882I-000591J0000000D01*
G01*
X0035354Y0134882D01*
G75*
G02*
X0034764Y0135472I0000000J0000591D01*
G01*
X0034764Y0136654D01*
G75*
G02*
X0035354Y0137244I0000591J0000000D01*
G01*
X0039980Y0137244D01*
G75*
G02*
X0040571Y0136654I0000000J-000591D01*
G01*
G37*
G36*
G01*
X0033189Y0140394D02*
X0033189Y0139213D01*
G75*
G02*
X0032598Y0138622I-000591J0000000D01*
G01*
X0027972Y0138622D01*
G75*
G02*
X0027382Y0139213I0000000J0000591D01*
G01*
X0027382Y0140394D01*
G75*
G02*
X0027972Y0140984I0000591J0000000D01*
G01*
X0032598Y0140984D01*
G75*
G02*
X0033189Y0140394I0000000J-000591D01*
G01*
G37*
G36*
G01*
X0040571Y0144134D02*
X0040571Y0142953D01*
G75*
G02*
X0039980Y0142362I-000591J0000000D01*
G01*
X0035354Y0142362D01*
G75*
G02*
X0034764Y0142953I0000000J0000591D01*
G01*
X0034764Y0144134D01*
G75*
G02*
X0035354Y0144724I0000591J0000000D01*
G01*
X0039980Y0144724D01*
G75*
G02*
X0040571Y0144134I0000000J-000591D01*
G01*
G37*
G36*
G01*
X0181201Y0328150D02*
X0176280Y0328150D01*
G75*
G02*
X0175886Y0328543I0000000J0000394D01*
G01*
X0175886Y0331693D01*
G75*
G02*
X0176280Y0332087I0000394J0000000D01*
G01*
X0181201Y0332087D01*
G75*
G02*
X0181594Y0331693I0000000J-000394D01*
G01*
X0181594Y0328543D01*
G75*
G02*
X0181201Y0328150I-000394J0000000D01*
G01*
G37*
G36*
G01*
X0181201Y0335630D02*
X0176280Y0335630D01*
G75*
G02*
X0175886Y0336024I0000000J0000394D01*
G01*
X0175886Y0339173D01*
G75*
G02*
X0176280Y0339567I0000394J0000000D01*
G01*
X0181201Y0339567D01*
G75*
G02*
X0181594Y0339173I0000000J-000394D01*
G01*
X0181594Y0336024D01*
G75*
G02*
X0181201Y0335630I-000394J0000000D01*
G01*
G37*
G36*
G01*
X0035433Y0311024D02*
X0031890Y0311024D01*
G75*
G02*
X0031496Y0311417I0000000J0000394D01*
G01*
X0031496Y0314567D01*
G75*
G02*
X0031890Y0314961I0000394J0000000D01*
G01*
X0035433Y0314961D01*
G75*
G02*
X0035827Y0314567I0000000J-000394D01*
G01*
X0035827Y0311417D01*
G75*
G02*
X0035433Y0311024I-000394J0000000D01*
G01*
G37*
G36*
G01*
X0035433Y0317717D02*
X0031890Y0317717D01*
G75*
G02*
X0031496Y0318110I0000000J0000394D01*
G01*
X0031496Y0321260D01*
G75*
G02*
X0031890Y0321654I0000394J0000000D01*
G01*
X0035433Y0321654D01*
G75*
G02*
X0035827Y0321260I0000000J-000394D01*
G01*
X0035827Y0318110D01*
G75*
G02*
X0035433Y0317717I-000394J0000000D01*
G01*
G37*
G36*
G01*
X0077323Y0359866D02*
X0075433Y0359866D01*
G75*
G02*
X0075197Y0360102I0000000J0000236D01*
G01*
X0075197Y0361992D01*
G75*
G02*
X0075433Y0362228I0000236J0000000D01*
G01*
X0077323Y0362228D01*
G75*
G02*
X0077559Y0361992I0000000J-000236D01*
G01*
X0077559Y0360102D01*
G75*
G02*
X0077323Y0359866I-000236J0000000D01*
G01*
G37*
G36*
G01*
X0068661Y0359866D02*
X0066772Y0359866D01*
G75*
G02*
X0066535Y0360102I0000000J0000236D01*
G01*
X0066535Y0361992D01*
G75*
G02*
X0066772Y0362228I0000236J0000000D01*
G01*
X0068661Y0362228D01*
G75*
G02*
X0068898Y0361992I0000000J-000236D01*
G01*
X0068898Y0360102D01*
G75*
G02*
X0068661Y0359866I-000236J0000000D01*
G01*
G37*
G36*
G01*
X0035433Y0392913D02*
X0031890Y0392913D01*
G75*
G02*
X0031496Y0393307I0000000J0000394D01*
G01*
X0031496Y0396457D01*
G75*
G02*
X0031890Y0396850I0000394J0000000D01*
G01*
X0035433Y0396850D01*
G75*
G02*
X0035827Y0396457I0000000J-000394D01*
G01*
X0035827Y0393307D01*
G75*
G02*
X0035433Y0392913I-000394J0000000D01*
G01*
G37*
G36*
G01*
X0035433Y0399606D02*
X0031890Y0399606D01*
G75*
G02*
X0031496Y0400000I0000000J0000394D01*
G01*
X0031496Y0403150D01*
G75*
G02*
X0031890Y0403543I0000394J0000000D01*
G01*
X0035433Y0403543D01*
G75*
G02*
X0035827Y0403150I0000000J-000394D01*
G01*
X0035827Y0400000D01*
G75*
G02*
X0035433Y0399606I-000394J0000000D01*
G01*
G37*
G36*
G01*
X0214862Y0288583D02*
X0214862Y0287402D01*
G75*
G02*
X0214272Y0286811I-000591J0000000D01*
G01*
X0209646Y0286811D01*
G75*
G02*
X0209055Y0287402I0000000J0000591D01*
G01*
X0209055Y0288583D01*
G75*
G02*
X0209646Y0289173I0000591J0000000D01*
G01*
X0214272Y0289173D01*
G75*
G02*
X0214862Y0288583I0000000J-000591D01*
G01*
G37*
G36*
G01*
X0207480Y0292323D02*
X0207480Y0291142D01*
G75*
G02*
X0206890Y0290551I-000591J0000000D01*
G01*
X0202264Y0290551D01*
G75*
G02*
X0201673Y0291142I0000000J0000591D01*
G01*
X0201673Y0292323D01*
G75*
G02*
X0202264Y0292913I0000591J0000000D01*
G01*
X0206890Y0292913D01*
G75*
G02*
X0207480Y0292323I0000000J-000591D01*
G01*
G37*
G36*
G01*
X0214862Y0296063D02*
X0214862Y0294882D01*
G75*
G02*
X0214272Y0294291I-000591J0000000D01*
G01*
X0209646Y0294291D01*
G75*
G02*
X0209055Y0294882I0000000J0000591D01*
G01*
X0209055Y0296063D01*
G75*
G02*
X0209646Y0296654I0000591J0000000D01*
G01*
X0214272Y0296654D01*
G75*
G02*
X0214862Y0296063I0000000J-000591D01*
G01*
G37*
G36*
G01*
X0042520Y0126732D02*
X0042520Y0130748D01*
G75*
G02*
X0042874Y0131102I0000354J0000000D01*
G01*
X0045709Y0131102D01*
G75*
G02*
X0046063Y0130748I0000000J-000354D01*
G01*
X0046063Y0126732D01*
G75*
G02*
X0045709Y0126378I-000354J0000000D01*
G01*
X0042874Y0126378D01*
G75*
G02*
X0042520Y0126732I0000000J0000354D01*
G01*
G37*
G36*
G01*
X0055512Y0126732D02*
X0055512Y0130748D01*
G75*
G02*
X0055866Y0131102I0000354J0000000D01*
G01*
X0058701Y0131102D01*
G75*
G02*
X0059055Y0130748I0000000J-000354D01*
G01*
X0059055Y0126732D01*
G75*
G02*
X0058701Y0126378I-000354J0000000D01*
G01*
X0055866Y0126378D01*
G75*
G02*
X0055512Y0126732I0000000J0000354D01*
G01*
G37*
G36*
G01*
X0043169Y0161181D02*
X0043169Y0158504D01*
G75*
G02*
X0042835Y0158169I-000335J0000000D01*
G01*
X0040157Y0158169D01*
G75*
G02*
X0039823Y0158504I0000000J0000335D01*
G01*
X0039823Y0161181D01*
G75*
G02*
X0040157Y0161516I0000335J0000000D01*
G01*
X0042835Y0161516D01*
G75*
G02*
X0043169Y0161181I0000000J-000335D01*
G01*
G37*
G36*
G01*
X0036949Y0161181D02*
X0036949Y0158504D01*
G75*
G02*
X0036614Y0158169I-000335J0000000D01*
G01*
X0033937Y0158169D01*
G75*
G02*
X0033602Y0158504I0000000J0000335D01*
G01*
X0033602Y0161181D01*
G75*
G02*
X0033937Y0161516I0000335J0000000D01*
G01*
X0036614Y0161516D01*
G75*
G02*
X0036949Y0161181I0000000J-000335D01*
G01*
G37*
G36*
G01*
X0052756Y0351969D02*
X0049213Y0351969D01*
G75*
G02*
X0048819Y0352362I0000000J0000394D01*
G01*
X0048819Y0355512D01*
G75*
G02*
X0049213Y0355906I0000394J0000000D01*
G01*
X0052756Y0355906D01*
G75*
G02*
X0053150Y0355512I0000000J-000394D01*
G01*
X0053150Y0352362D01*
G75*
G02*
X0052756Y0351969I-000394J0000000D01*
G01*
G37*
G36*
G01*
X0052756Y0358661D02*
X0049213Y0358661D01*
G75*
G02*
X0048819Y0359055I0000000J0000394D01*
G01*
X0048819Y0362205D01*
G75*
G02*
X0049213Y0362598I0000394J0000000D01*
G01*
X0052756Y0362598D01*
G75*
G02*
X0053150Y0362205I0000000J-000394D01*
G01*
X0053150Y0359055D01*
G75*
G02*
X0052756Y0358661I-000394J0000000D01*
G01*
G37*
G36*
G01*
X0172933Y0328150D02*
X0168012Y0328150D01*
G75*
G02*
X0167618Y0328543I0000000J0000394D01*
G01*
X0167618Y0331693D01*
G75*
G02*
X0168012Y0332087I0000394J0000000D01*
G01*
X0172933Y0332087D01*
G75*
G02*
X0173327Y0331693I0000000J-000394D01*
G01*
X0173327Y0328543D01*
G75*
G02*
X0172933Y0328150I-000394J0000000D01*
G01*
G37*
G36*
G01*
X0172933Y0335630D02*
X0168012Y0335630D01*
G75*
G02*
X0167618Y0336024I0000000J0000394D01*
G01*
X0167618Y0339173D01*
G75*
G02*
X0168012Y0339567I0000394J0000000D01*
G01*
X0172933Y0339567D01*
G75*
G02*
X0173327Y0339173I0000000J-000394D01*
G01*
X0173327Y0336024D01*
G75*
G02*
X0172933Y0335630I-000394J0000000D01*
G01*
G37*
G36*
G01*
X0035433Y0331496D02*
X0031890Y0331496D01*
G75*
G02*
X0031496Y0331890I0000000J0000394D01*
G01*
X0031496Y0335039D01*
G75*
G02*
X0031890Y0335433I0000394J0000000D01*
G01*
X0035433Y0335433D01*
G75*
G02*
X0035827Y0335039I0000000J-000394D01*
G01*
X0035827Y0331890D01*
G75*
G02*
X0035433Y0331496I-000394J0000000D01*
G01*
G37*
G36*
G01*
X0035433Y0338189D02*
X0031890Y0338189D01*
G75*
G02*
X0031496Y0338583I0000000J0000394D01*
G01*
X0031496Y0341732D01*
G75*
G02*
X0031890Y0342126I0000394J0000000D01*
G01*
X0035433Y0342126D01*
G75*
G02*
X0035827Y0341732I0000000J-000394D01*
G01*
X0035827Y0338583D01*
G75*
G02*
X0035433Y0338189I-000394J0000000D01*
G01*
G37*
G36*
G01*
X0068654Y0369228D02*
X0070543Y0369228D01*
G75*
G02*
X0070780Y0368992I0000000J-000236D01*
G01*
X0070780Y0367102D01*
G75*
G02*
X0070543Y0366866I-000236J0000000D01*
G01*
X0068654Y0366866D01*
G75*
G02*
X0068417Y0367102I0000000J0000236D01*
G01*
X0068417Y0368992D01*
G75*
G02*
X0068654Y0369228I0000236J0000000D01*
G01*
G37*
G36*
G01*
X0077315Y0369228D02*
X0079205Y0369228D01*
G75*
G02*
X0079441Y0368992I0000000J-000236D01*
G01*
X0079441Y0367102D01*
G75*
G02*
X0079205Y0366866I-000236J0000000D01*
G01*
X0077315Y0366866D01*
G75*
G02*
X0077079Y0367102I0000000J0000236D01*
G01*
X0077079Y0368992D01*
G75*
G02*
X0077315Y0369228I0000236J0000000D01*
G01*
G37*
G36*
G01*
X0230512Y0300984D02*
X0227441Y0300984D01*
G75*
G02*
X0227165Y0301260I0000000J0000276D01*
G01*
X0227165Y0303465D01*
G75*
G02*
X0227441Y0303740I0000276J0000000D01*
G01*
X0230512Y0303740D01*
G75*
G02*
X0230787Y0303465I0000000J-000276D01*
G01*
X0230787Y0301260D01*
G75*
G02*
X0230512Y0300984I-000276J0000000D01*
G01*
G37*
G36*
G01*
X0230512Y0307283D02*
X0227441Y0307283D01*
G75*
G02*
X0227165Y0307559I0000000J0000276D01*
G01*
X0227165Y0309764D01*
G75*
G02*
X0227441Y0310039I0000276J0000000D01*
G01*
X0230512Y0310039D01*
G75*
G02*
X0230787Y0309764I0000000J-000276D01*
G01*
X0230787Y0307559D01*
G75*
G02*
X0230512Y0307283I-000276J0000000D01*
G01*
G37*
G36*
G01*
X0046457Y0213681D02*
X0047638Y0213681D01*
G75*
G02*
X0048228Y0213091I0000000J-000591D01*
G01*
X0048228Y0208465D01*
G75*
G02*
X0047638Y0207874I-000591J0000000D01*
G01*
X0046457Y0207874D01*
G75*
G02*
X0045866Y0208465I0000000J0000591D01*
G01*
X0045866Y0213091D01*
G75*
G02*
X0046457Y0213681I0000591J0000000D01*
G01*
G37*
G36*
G01*
X0042717Y0206299D02*
X0043898Y0206299D01*
G75*
G02*
X0044488Y0205709I0000000J-000591D01*
G01*
X0044488Y0201083D01*
G75*
G02*
X0043898Y0200492I-000591J0000000D01*
G01*
X0042717Y0200492D01*
G75*
G02*
X0042126Y0201083I0000000J0000591D01*
G01*
X0042126Y0205709D01*
G75*
G02*
X0042717Y0206299I0000591J0000000D01*
G01*
G37*
G36*
G01*
X0038976Y0213681D02*
X0040157Y0213681D01*
G75*
G02*
X0040748Y0213091I0000000J-000591D01*
G01*
X0040748Y0208465D01*
G75*
G02*
X0040157Y0207874I-000591J0000000D01*
G01*
X0038976Y0207874D01*
G75*
G02*
X0038386Y0208465I0000000J0000591D01*
G01*
X0038386Y0213091D01*
G75*
G02*
X0038976Y0213681I0000591J0000000D01*
G01*
G37*
G36*
G01*
X0066535Y0379390D02*
X0066535Y0382028D01*
G75*
G02*
X0066791Y0382283I0000256J0000000D01*
G01*
X0068839Y0382283D01*
G75*
G02*
X0069094Y0382028I0000000J-000256D01*
G01*
X0069094Y0379390D01*
G75*
G02*
X0068839Y0379134I-000256J0000000D01*
G01*
X0066791Y0379134D01*
G75*
G02*
X0066535Y0379390I0000000J0000256D01*
G01*
G37*
G36*
G01*
X0070374Y0379311D02*
X0070374Y0382106D01*
G75*
G02*
X0070551Y0382283I0000177J0000000D01*
G01*
X0071969Y0382283D01*
G75*
G02*
X0072146Y0382106I0000000J-000177D01*
G01*
X0072146Y0379311D01*
G75*
G02*
X0071969Y0379134I-000177J0000000D01*
G01*
X0070551Y0379134D01*
G75*
G02*
X0070374Y0379311I0000000J0000177D01*
G01*
G37*
G36*
G01*
X0073524Y0379311D02*
X0073524Y0382106D01*
G75*
G02*
X0073701Y0382283I0000177J0000000D01*
G01*
X0075118Y0382283D01*
G75*
G02*
X0075295Y0382106I0000000J-000177D01*
G01*
X0075295Y0379311D01*
G75*
G02*
X0075118Y0379134I-000177J0000000D01*
G01*
X0073701Y0379134D01*
G75*
G02*
X0073524Y0379311I0000000J0000177D01*
G01*
G37*
G36*
G01*
X0076575Y0379390D02*
X0076575Y0382028D01*
G75*
G02*
X0076831Y0382283I0000256J0000000D01*
G01*
X0078878Y0382283D01*
G75*
G02*
X0079134Y0382028I0000000J-000256D01*
G01*
X0079134Y0379390D01*
G75*
G02*
X0078878Y0379134I-000256J0000000D01*
G01*
X0076831Y0379134D01*
G75*
G02*
X0076575Y0379390I0000000J0000256D01*
G01*
G37*
G36*
G01*
X0076575Y0386476D02*
X0076575Y0389114D01*
G75*
G02*
X0076831Y0389370I0000256J0000000D01*
G01*
X0078878Y0389370D01*
G75*
G02*
X0079134Y0389114I0000000J-000256D01*
G01*
X0079134Y0386476D01*
G75*
G02*
X0078878Y0386220I-000256J0000000D01*
G01*
X0076831Y0386220D01*
G75*
G02*
X0076575Y0386476I0000000J0000256D01*
G01*
G37*
G36*
G01*
X0073524Y0386398D02*
X0073524Y0389193D01*
G75*
G02*
X0073701Y0389370I0000177J0000000D01*
G01*
X0075118Y0389370D01*
G75*
G02*
X0075295Y0389193I0000000J-000177D01*
G01*
X0075295Y0386398D01*
G75*
G02*
X0075118Y0386220I-000177J0000000D01*
G01*
X0073701Y0386220D01*
G75*
G02*
X0073524Y0386398I0000000J0000177D01*
G01*
G37*
G36*
G01*
X0070374Y0386398D02*
X0070374Y0389193D01*
G75*
G02*
X0070551Y0389370I0000177J0000000D01*
G01*
X0071969Y0389370D01*
G75*
G02*
X0072146Y0389193I0000000J-000177D01*
G01*
X0072146Y0386398D01*
G75*
G02*
X0071969Y0386220I-000177J0000000D01*
G01*
X0070551Y0386220D01*
G75*
G02*
X0070374Y0386398I0000000J0000177D01*
G01*
G37*
G36*
G01*
X0066535Y0386476D02*
X0066535Y0389114D01*
G75*
G02*
X0066791Y0389370I0000256J0000000D01*
G01*
X0068839Y0389370D01*
G75*
G02*
X0069094Y0389114I0000000J-000256D01*
G01*
X0069094Y0386476D01*
G75*
G02*
X0068839Y0386220I-000256J0000000D01*
G01*
X0066791Y0386220D01*
G75*
G02*
X0066535Y0386476I0000000J0000256D01*
G01*
G37*
G36*
G01*
X0068352Y0295620D02*
X0070242Y0295620D01*
G75*
G02*
X0070478Y0295384I0000000J-000236D01*
G01*
X0070478Y0293494D01*
G75*
G02*
X0070242Y0293258I-000236J0000000D01*
G01*
X0068352Y0293258D01*
G75*
G02*
X0068116Y0293494I0000000J0000236D01*
G01*
X0068116Y0295384D01*
G75*
G02*
X0068352Y0295620I0000236J0000000D01*
G01*
G37*
G36*
G01*
X0077014Y0295620D02*
X0078904Y0295620D01*
G75*
G02*
X0079140Y0295384I0000000J-000236D01*
G01*
X0079140Y0293494D01*
G75*
G02*
X0078904Y0293258I-000236J0000000D01*
G01*
X0077014Y0293258D01*
G75*
G02*
X0076778Y0293494I0000000J0000236D01*
G01*
X0076778Y0295384D01*
G75*
G02*
X0077014Y0295620I0000236J0000000D01*
G01*
G37*
G36*
G01*
X0087244Y0183465D02*
X0090315Y0183465D01*
G75*
G02*
X0090591Y0183189I0000000J-000276D01*
G01*
X0090591Y0180984D01*
G75*
G02*
X0090315Y0180709I-000276J0000000D01*
G01*
X0087244Y0180709D01*
G75*
G02*
X0086969Y0180984I0000000J0000276D01*
G01*
X0086969Y0183189D01*
G75*
G02*
X0087244Y0183465I0000276J0000000D01*
G01*
G37*
G36*
G01*
X0087244Y0177165D02*
X0090315Y0177165D01*
G75*
G02*
X0090591Y0176890I0000000J-000276D01*
G01*
X0090591Y0174685D01*
G75*
G02*
X0090315Y0174409I-000276J0000000D01*
G01*
X0087244Y0174409D01*
G75*
G02*
X0086969Y0174685I0000000J0000276D01*
G01*
X0086969Y0176890D01*
G75*
G02*
X0087244Y0177165I0000276J0000000D01*
G01*
G37*
G36*
G01*
X0052756Y0290551D02*
X0049213Y0290551D01*
G75*
G02*
X0048819Y0290945I0000000J0000394D01*
G01*
X0048819Y0294094D01*
G75*
G02*
X0049213Y0294488I0000394J0000000D01*
G01*
X0052756Y0294488D01*
G75*
G02*
X0053150Y0294094I0000000J-000394D01*
G01*
X0053150Y0290945D01*
G75*
G02*
X0052756Y0290551I-000394J0000000D01*
G01*
G37*
G36*
G01*
X0052756Y0297244D02*
X0049213Y0297244D01*
G75*
G02*
X0048819Y0297638I0000000J0000394D01*
G01*
X0048819Y0300787D01*
G75*
G02*
X0049213Y0301181I0000394J0000000D01*
G01*
X0052756Y0301181D01*
G75*
G02*
X0053150Y0300787I0000000J-000394D01*
G01*
X0053150Y0297638D01*
G75*
G02*
X0052756Y0297244I-000394J0000000D01*
G01*
G37*
G36*
G01*
X0088484Y0200394D02*
X0088484Y0199213D01*
G75*
G02*
X0087894Y0198622I-000591J0000000D01*
G01*
X0083268Y0198622D01*
G75*
G02*
X0082677Y0199213I0000000J0000591D01*
G01*
X0082677Y0200394D01*
G75*
G02*
X0083268Y0200984I0000591J0000000D01*
G01*
X0087894Y0200984D01*
G75*
G02*
X0088484Y0200394I0000000J-000591D01*
G01*
G37*
G36*
G01*
X0081102Y0204134D02*
X0081102Y0202953D01*
G75*
G02*
X0080512Y0202362I-000591J0000000D01*
G01*
X0075886Y0202362D01*
G75*
G02*
X0075295Y0202953I0000000J0000591D01*
G01*
X0075295Y0204134D01*
G75*
G02*
X0075886Y0204724I0000591J0000000D01*
G01*
X0080512Y0204724D01*
G75*
G02*
X0081102Y0204134I0000000J-000591D01*
G01*
G37*
G36*
G01*
X0088484Y0207874D02*
X0088484Y0206693D01*
G75*
G02*
X0087894Y0206102I-000591J0000000D01*
G01*
X0083268Y0206102D01*
G75*
G02*
X0082677Y0206693I0000000J0000591D01*
G01*
X0082677Y0207874D01*
G75*
G02*
X0083268Y0208465I0000591J0000000D01*
G01*
X0087894Y0208465D01*
G75*
G02*
X0088484Y0207874I0000000J-000591D01*
G01*
G37*
G36*
G01*
X0031890Y0117697D02*
X0030709Y0117697D01*
G75*
G02*
X0030118Y0118287I0000000J0000591D01*
G01*
X0030118Y0122913D01*
G75*
G02*
X0030709Y0123504I0000591J0000000D01*
G01*
X0031890Y0123504D01*
G75*
G02*
X0032480Y0122913I0000000J-000591D01*
G01*
X0032480Y0118287D01*
G75*
G02*
X0031890Y0117697I-000591J0000000D01*
G01*
G37*
G36*
G01*
X0035630Y0125079D02*
X0034449Y0125079D01*
G75*
G02*
X0033858Y0125669I0000000J0000591D01*
G01*
X0033858Y0130295D01*
G75*
G02*
X0034449Y0130886I0000591J0000000D01*
G01*
X0035630Y0130886D01*
G75*
G02*
X0036220Y0130295I0000000J-000591D01*
G01*
X0036220Y0125669D01*
G75*
G02*
X0035630Y0125079I-000591J0000000D01*
G01*
G37*
G36*
G01*
X0039370Y0117697D02*
X0038189Y0117697D01*
G75*
G02*
X0037598Y0118287I0000000J0000591D01*
G01*
X0037598Y0122913D01*
G75*
G02*
X0038189Y0123504I0000591J0000000D01*
G01*
X0039370Y0123504D01*
G75*
G02*
X0039961Y0122913I0000000J-000591D01*
G01*
X0039961Y0118287D01*
G75*
G02*
X0039370Y0117697I-000591J0000000D01*
G01*
G37*
G36*
G01*
X0035433Y0372441D02*
X0031890Y0372441D01*
G75*
G02*
X0031496Y0372835I0000000J0000394D01*
G01*
X0031496Y0375984D01*
G75*
G02*
X0031890Y0376378I0000394J0000000D01*
G01*
X0035433Y0376378D01*
G75*
G02*
X0035827Y0375984I0000000J-000394D01*
G01*
X0035827Y0372835D01*
G75*
G02*
X0035433Y0372441I-000394J0000000D01*
G01*
G37*
G36*
G01*
X0035433Y0379134D02*
X0031890Y0379134D01*
G75*
G02*
X0031496Y0379528I0000000J0000394D01*
G01*
X0031496Y0382677D01*
G75*
G02*
X0031890Y0383071I0000394J0000000D01*
G01*
X0035433Y0383071D01*
G75*
G02*
X0035827Y0382677I0000000J-000394D01*
G01*
X0035827Y0379528D01*
G75*
G02*
X0035433Y0379134I-000394J0000000D01*
G01*
G37*
G36*
G01*
X0120571Y0328150D02*
X0115650Y0328150D01*
G75*
G02*
X0115256Y0328543I0000000J0000394D01*
G01*
X0115256Y0331693D01*
G75*
G02*
X0115650Y0332087I0000394J0000000D01*
G01*
X0120571Y0332087D01*
G75*
G02*
X0120965Y0331693I0000000J-000394D01*
G01*
X0120965Y0328543D01*
G75*
G02*
X0120571Y0328150I-000394J0000000D01*
G01*
G37*
G36*
G01*
X0120571Y0335630D02*
X0115650Y0335630D01*
G75*
G02*
X0115256Y0336024I0000000J0000394D01*
G01*
X0115256Y0339173D01*
G75*
G02*
X0115650Y0339567I0000394J0000000D01*
G01*
X0120571Y0339567D01*
G75*
G02*
X0120965Y0339173I0000000J-000394D01*
G01*
X0120965Y0336024D01*
G75*
G02*
X0120571Y0335630I-000394J0000000D01*
G01*
G37*
G36*
G01*
X0032677Y0214075D02*
X0033858Y0214075D01*
G75*
G02*
X0034449Y0213484I0000000J-000591D01*
G01*
X0034449Y0208858D01*
G75*
G02*
X0033858Y0208268I-000591J0000000D01*
G01*
X0032677Y0208268D01*
G75*
G02*
X0032087Y0208858I0000000J0000591D01*
G01*
X0032087Y0213484D01*
G75*
G02*
X0032677Y0214075I0000591J0000000D01*
G01*
G37*
G36*
G01*
X0028937Y0206693D02*
X0030118Y0206693D01*
G75*
G02*
X0030709Y0206102I0000000J-000591D01*
G01*
X0030709Y0201476D01*
G75*
G02*
X0030118Y0200886I-000591J0000000D01*
G01*
X0028937Y0200886D01*
G75*
G02*
X0028346Y0201476I0000000J0000591D01*
G01*
X0028346Y0206102D01*
G75*
G02*
X0028937Y0206693I0000591J0000000D01*
G01*
G37*
G36*
G01*
X0025197Y0214075D02*
X0026378Y0214075D01*
G75*
G02*
X0026969Y0213484I0000000J-000591D01*
G01*
X0026969Y0208858D01*
G75*
G02*
X0026378Y0208268I-000591J0000000D01*
G01*
X0025197Y0208268D01*
G75*
G02*
X0024606Y0208858I0000000J0000591D01*
G01*
X0024606Y0213484D01*
G75*
G02*
X0025197Y0214075I0000591J0000000D01*
G01*
G37*
G36*
G01*
X0230524Y0288583D02*
X0230524Y0287402D01*
G75*
G02*
X0229933Y0286811I-000591J0000000D01*
G01*
X0225307Y0286811D01*
G75*
G02*
X0224717Y0287402I0000000J0000591D01*
G01*
X0224717Y0288583D01*
G75*
G02*
X0225307Y0289173I0000591J0000000D01*
G01*
X0229933Y0289173D01*
G75*
G02*
X0230524Y0288583I0000000J-000591D01*
G01*
G37*
G36*
G01*
X0223142Y0292323D02*
X0223142Y0291142D01*
G75*
G02*
X0222551Y0290551I-000591J0000000D01*
G01*
X0217925Y0290551D01*
G75*
G02*
X0217335Y0291142I0000000J0000591D01*
G01*
X0217335Y0292323D01*
G75*
G02*
X0217925Y0292913I0000591J0000000D01*
G01*
X0222551Y0292913D01*
G75*
G02*
X0223142Y0292323I0000000J-000591D01*
G01*
G37*
G36*
G01*
X0230524Y0296063D02*
X0230524Y0294882D01*
G75*
G02*
X0229933Y0294291I-000591J0000000D01*
G01*
X0225307Y0294291D01*
G75*
G02*
X0224717Y0294882I0000000J0000591D01*
G01*
X0224717Y0296063D01*
G75*
G02*
X0225307Y0296654I0000591J0000000D01*
G01*
X0229933Y0296654D01*
G75*
G02*
X0230524Y0296063I0000000J-000591D01*
G01*
G37*
G36*
G01*
X0030315Y0176083D02*
X0029134Y0176083D01*
G75*
G02*
X0028543Y0176673I0000000J0000591D01*
G01*
X0028543Y0181299D01*
G75*
G02*
X0029134Y0181890I0000591J0000000D01*
G01*
X0030315Y0181890D01*
G75*
G02*
X0030906Y0181299I0000000J-000591D01*
G01*
X0030906Y0176673D01*
G75*
G02*
X0030315Y0176083I-000591J0000000D01*
G01*
G37*
G36*
G01*
X0034055Y0183465D02*
X0032874Y0183465D01*
G75*
G02*
X0032283Y0184055I0000000J0000591D01*
G01*
X0032283Y0188681D01*
G75*
G02*
X0032874Y0189272I0000591J0000000D01*
G01*
X0034055Y0189272D01*
G75*
G02*
X0034646Y0188681I0000000J-000591D01*
G01*
X0034646Y0184055D01*
G75*
G02*
X0034055Y0183465I-000591J0000000D01*
G01*
G37*
G36*
G01*
X0037795Y0176083D02*
X0036614Y0176083D01*
G75*
G02*
X0036024Y0176673I0000000J0000591D01*
G01*
X0036024Y0181299D01*
G75*
G02*
X0036614Y0181890I0000591J0000000D01*
G01*
X0037795Y0181890D01*
G75*
G02*
X0038386Y0181299I0000000J-000591D01*
G01*
X0038386Y0176673D01*
G75*
G02*
X0037795Y0176083I-000591J0000000D01*
G01*
G37*
G36*
G01*
X0035000Y0169803D02*
X0035000Y0172874D01*
G75*
G02*
X0035276Y0173150I0000276J0000000D01*
G01*
X0037480Y0173150D01*
G75*
G02*
X0037756Y0172874I0000000J-000276D01*
G01*
X0037756Y0169803D01*
G75*
G02*
X0037480Y0169528I-000276J0000000D01*
G01*
X0035276Y0169528D01*
G75*
G02*
X0035000Y0169803I0000000J0000276D01*
G01*
G37*
G36*
G01*
X0041299Y0169803D02*
X0041299Y0172874D01*
G75*
G02*
X0041575Y0173150I0000276J0000000D01*
G01*
X0043780Y0173150D01*
G75*
G02*
X0044055Y0172874I0000000J-000276D01*
G01*
X0044055Y0169803D01*
G75*
G02*
X0043780Y0169528I-000276J0000000D01*
G01*
X0041575Y0169528D01*
G75*
G02*
X0041299Y0169803I0000000J0000276D01*
G01*
G37*
G36*
G01*
X0068654Y0375228D02*
X0070543Y0375228D01*
G75*
G02*
X0070780Y0374992I0000000J-000236D01*
G01*
X0070780Y0373102D01*
G75*
G02*
X0070543Y0372866I-000236J0000000D01*
G01*
X0068654Y0372866D01*
G75*
G02*
X0068417Y0373102I0000000J0000236D01*
G01*
X0068417Y0374992D01*
G75*
G02*
X0068654Y0375228I0000236J0000000D01*
G01*
G37*
G36*
G01*
X0077315Y0375228D02*
X0079205Y0375228D01*
G75*
G02*
X0079441Y0374992I0000000J-000236D01*
G01*
X0079441Y0373102D01*
G75*
G02*
X0079205Y0372866I-000236J0000000D01*
G01*
X0077315Y0372866D01*
G75*
G02*
X0077079Y0373102I0000000J0000236D01*
G01*
X0077079Y0374992D01*
G75*
G02*
X0077315Y0375228I0000236J0000000D01*
G01*
G37*
G36*
G01*
X0311304Y0047638D02*
X0313302Y0047638D01*
G75*
G02*
X0313465Y0047475I0000000J-000163D01*
G01*
X0313465Y0039848D01*
G75*
G02*
X0313302Y0039685I-000163J0000000D01*
G01*
X0311304Y0039685D01*
G75*
G02*
X0311142Y0039848I0000000J0000163D01*
G01*
X0311142Y0047475D01*
G75*
G02*
X0311304Y0047638I0000163J0000000D01*
G01*
G37*
G36*
G01*
X0306304Y0047638D02*
X0308302Y0047638D01*
G75*
G02*
X0308465Y0047475I0000000J-000163D01*
G01*
X0308465Y0039848D01*
G75*
G02*
X0308302Y0039685I-000163J0000000D01*
G01*
X0306304Y0039685D01*
G75*
G02*
X0306142Y0039848I0000000J0000163D01*
G01*
X0306142Y0047475D01*
G75*
G02*
X0306304Y0047638I0000163J0000000D01*
G01*
G37*
G36*
G01*
X0301304Y0047638D02*
X0303302Y0047638D01*
G75*
G02*
X0303465Y0047475I0000000J-000163D01*
G01*
X0303465Y0039848D01*
G75*
G02*
X0303302Y0039685I-000163J0000000D01*
G01*
X0301304Y0039685D01*
G75*
G02*
X0301142Y0039848I0000000J0000163D01*
G01*
X0301142Y0047475D01*
G75*
G02*
X0301304Y0047638I0000163J0000000D01*
G01*
G37*
G36*
G01*
X0296304Y0047638D02*
X0298302Y0047638D01*
G75*
G02*
X0298465Y0047475I0000000J-000163D01*
G01*
X0298465Y0039848D01*
G75*
G02*
X0298302Y0039685I-000163J0000000D01*
G01*
X0296304Y0039685D01*
G75*
G02*
X0296142Y0039848I0000000J0000163D01*
G01*
X0296142Y0047475D01*
G75*
G02*
X0296304Y0047638I0000163J0000000D01*
G01*
G37*
G36*
G01*
X0296304Y0010787D02*
X0298302Y0010787D01*
G75*
G02*
X0298465Y0010625I0000000J-000163D01*
G01*
X0298465Y0002997D01*
G75*
G02*
X0298302Y0002835I-000163J0000000D01*
G01*
X0296304Y0002835D01*
G75*
G02*
X0296142Y0002997I0000000J0000163D01*
G01*
X0296142Y0010625D01*
G75*
G02*
X0296304Y0010787I0000163J0000000D01*
G01*
G37*
G36*
G01*
X0301304Y0010787D02*
X0303302Y0010787D01*
G75*
G02*
X0303465Y0010625I0000000J-000163D01*
G01*
X0303465Y0002997D01*
G75*
G02*
X0303302Y0002835I-000163J0000000D01*
G01*
X0301304Y0002835D01*
G75*
G02*
X0301142Y0002997I0000000J0000163D01*
G01*
X0301142Y0010625D01*
G75*
G02*
X0301304Y0010787I0000163J0000000D01*
G01*
G37*
G36*
G01*
X0306304Y0010787D02*
X0308302Y0010787D01*
G75*
G02*
X0308465Y0010625I0000000J-000163D01*
G01*
X0308465Y0002997D01*
G75*
G02*
X0308302Y0002835I-000163J0000000D01*
G01*
X0306304Y0002835D01*
G75*
G02*
X0306142Y0002997I0000000J0000163D01*
G01*
X0306142Y0010625D01*
G75*
G02*
X0306304Y0010787I0000163J0000000D01*
G01*
G37*
G36*
G01*
X0311304Y0010787D02*
X0313302Y0010787D01*
G75*
G02*
X0313465Y0010625I0000000J-000163D01*
G01*
X0313465Y0002997D01*
G75*
G02*
X0313302Y0002835I-000163J0000000D01*
G01*
X0311304Y0002835D01*
G75*
G02*
X0311142Y0002997I0000000J0000163D01*
G01*
X0311142Y0010625D01*
G75*
G02*
X0311304Y0010787I0000163J0000000D01*
G01*
G37*
G36*
G01*
X0046457Y0200295D02*
X0047638Y0200295D01*
G75*
G02*
X0048228Y0199705I0000000J-000591D01*
G01*
X0048228Y0195079D01*
G75*
G02*
X0047638Y0194488I-000591J0000000D01*
G01*
X0046457Y0194488D01*
G75*
G02*
X0045866Y0195079I0000000J0000591D01*
G01*
X0045866Y0199705D01*
G75*
G02*
X0046457Y0200295I0000591J0000000D01*
G01*
G37*
G36*
G01*
X0042717Y0192913D02*
X0043898Y0192913D01*
G75*
G02*
X0044488Y0192323I0000000J-000591D01*
G01*
X0044488Y0187697D01*
G75*
G02*
X0043898Y0187106I-000591J0000000D01*
G01*
X0042717Y0187106D01*
G75*
G02*
X0042126Y0187697I0000000J0000591D01*
G01*
X0042126Y0192323D01*
G75*
G02*
X0042717Y0192913I0000591J0000000D01*
G01*
G37*
G36*
G01*
X0038976Y0200295D02*
X0040157Y0200295D01*
G75*
G02*
X0040748Y0199705I0000000J-000591D01*
G01*
X0040748Y0195079D01*
G75*
G02*
X0040157Y0194488I-000591J0000000D01*
G01*
X0038976Y0194488D01*
G75*
G02*
X0038386Y0195079I0000000J0000591D01*
G01*
X0038386Y0199705D01*
G75*
G02*
X0038976Y0200295I0000591J0000000D01*
G01*
G37*
D38*
X0076969Y0030610D03*
X0076969Y0036516D03*
X0076969Y0042421D03*
X0076969Y0048327D03*
X0076969Y0054232D03*
X0076969Y0060138D03*
X0076969Y0066043D03*
X0076969Y0071949D03*
X0076969Y0077854D03*
X0076969Y0083760D03*
X0076969Y0089665D03*
X0076969Y0095571D03*
X0076969Y0101476D03*
X0026969Y0101476D03*
X0026969Y0095571D03*
X0026969Y0089665D03*
X0026969Y0083760D03*
X0026969Y0077854D03*
X0026969Y0071949D03*
X0026969Y0066043D03*
X0026969Y0060138D03*
X0026969Y0054232D03*
X0026969Y0048327D03*
X0026969Y0042421D03*
X0026969Y0036516D03*
X0026969Y0030610D03*
G36*
G01*
X0212386Y0336043D02*
X0212386Y0338760D01*
G75*
G02*
X0213291Y0339665I0000906J0000000D01*
G01*
X0218567Y0339665D01*
G75*
G02*
X0219472Y0338760I0000000J-000906D01*
G01*
X0219472Y0336043D01*
G75*
G02*
X0218567Y0335138I-000906J0000000D01*
G01*
X0213291Y0335138D01*
G75*
G02*
X0212386Y0336043I0000000J0000906D01*
G01*
G37*
G36*
G01*
X0212386Y0324626D02*
X0212386Y0327342D01*
G75*
G02*
X0213291Y0328248I0000906J0000000D01*
G01*
X0218567Y0328248D01*
G75*
G02*
X0219472Y0327342I0000000J-000906D01*
G01*
X0219472Y0324626D01*
G75*
G02*
X0218567Y0323720I-000906J0000000D01*
G01*
X0213291Y0323720D01*
G75*
G02*
X0212386Y0324626I0000000J0000906D01*
G01*
G37*
G36*
G01*
X0279331Y0386909D02*
X0279331Y0391831D01*
G75*
G02*
X0279724Y0392224I0000394J0000000D01*
G01*
X0282874Y0392224D01*
G75*
G02*
X0283268Y0391831I0000000J-000394D01*
G01*
X0283268Y0386909D01*
G75*
G02*
X0282874Y0386516I-000394J0000000D01*
G01*
X0279724Y0386516D01*
G75*
G02*
X0279331Y0386909I0000000J0000394D01*
G01*
G37*
G36*
G01*
X0286811Y0386909D02*
X0286811Y0391831D01*
G75*
G02*
X0287205Y0392224I0000394J0000000D01*
G01*
X0290354Y0392224D01*
G75*
G02*
X0290748Y0391831I0000000J-000394D01*
G01*
X0290748Y0386909D01*
G75*
G02*
X0290354Y0386516I-000394J0000000D01*
G01*
X0287205Y0386516D01*
G75*
G02*
X0286811Y0386909I0000000J0000394D01*
G01*
G37*
G36*
G01*
X0068346Y0288976D02*
X0070236Y0288976D01*
G75*
G02*
X0070472Y0288740I0000000J-000236D01*
G01*
X0070472Y0286850D01*
G75*
G02*
X0070236Y0286614I-000236J0000000D01*
G01*
X0068346Y0286614D01*
G75*
G02*
X0068110Y0286850I0000000J0000236D01*
G01*
X0068110Y0288740D01*
G75*
G02*
X0068346Y0288976I0000236J0000000D01*
G01*
G37*
G36*
G01*
X0077008Y0288976D02*
X0078898Y0288976D01*
G75*
G02*
X0079134Y0288740I0000000J-000236D01*
G01*
X0079134Y0286850D01*
G75*
G02*
X0078898Y0286614I-000236J0000000D01*
G01*
X0077008Y0286614D01*
G75*
G02*
X0076772Y0286850I0000000J0000236D01*
G01*
X0076772Y0288740D01*
G75*
G02*
X0077008Y0288976I0000236J0000000D01*
G01*
G37*
G36*
G01*
X0158268Y0336240D02*
X0158268Y0338957D01*
G75*
G02*
X0159173Y0339862I0000906J0000000D01*
G01*
X0164449Y0339862D01*
G75*
G02*
X0165354Y0338957I0000000J-000906D01*
G01*
X0165354Y0336240D01*
G75*
G02*
X0164449Y0335335I-000906J0000000D01*
G01*
X0159173Y0335335D01*
G75*
G02*
X0158268Y0336240I0000000J0000906D01*
G01*
G37*
G36*
G01*
X0158268Y0324823D02*
X0158268Y0327539D01*
G75*
G02*
X0159173Y0328445I0000906J0000000D01*
G01*
X0164449Y0328445D01*
G75*
G02*
X0165354Y0327539I0000000J-000906D01*
G01*
X0165354Y0324823D01*
G75*
G02*
X0164449Y0323917I-000906J0000000D01*
G01*
X0159173Y0323917D01*
G75*
G02*
X0158268Y0324823I0000000J0000906D01*
G01*
G37*
D65*
X0268760Y0362657D03*
X0280768Y0362657D03*
X0280768Y0375846D03*
X0268760Y0375846D03*
G36*
G01*
X0267677Y0340118D02*
X0263898Y0340118D01*
G75*
G02*
X0263425Y0340591I0000000J0000472D01*
G01*
X0263425Y0348307D01*
G75*
G02*
X0263898Y0348780I0000472J0000000D01*
G01*
X0267677Y0348780D01*
G75*
G02*
X0268150Y0348307I0000000J-000472D01*
G01*
X0268150Y0340591D01*
G75*
G02*
X0267677Y0340118I-000472J0000000D01*
G01*
G37*
G36*
G01*
X0285630Y0340118D02*
X0281850Y0340118D01*
G75*
G02*
X0281378Y0340591I0000000J0000472D01*
G01*
X0281378Y0348307D01*
G75*
G02*
X0281850Y0348780I0000472J0000000D01*
G01*
X0285630Y0348780D01*
G75*
G02*
X0286102Y0348307I0000000J-000472D01*
G01*
X0286102Y0340591D01*
G75*
G02*
X0285630Y0340118I-000472J0000000D01*
G01*
G37*
X0268051Y0317500D03*
X0280059Y0304311D03*
X0268051Y0304311D03*
X0280059Y0317500D03*
G36*
G01*
X0266969Y0281772D02*
X0263189Y0281772D01*
G75*
G02*
X0262717Y0282244I0000000J0000472D01*
G01*
X0262717Y0289961D01*
G75*
G02*
X0263189Y0290433I0000472J0000000D01*
G01*
X0266969Y0290433D01*
G75*
G02*
X0267441Y0289961I0000000J-000472D01*
G01*
X0267441Y0282244D01*
G75*
G02*
X0266969Y0281772I-000472J0000000D01*
G01*
G37*
G36*
G01*
X0284921Y0281772D02*
X0281142Y0281772D01*
G75*
G02*
X0280669Y0282244I0000000J0000472D01*
G01*
X0280669Y0289961D01*
G75*
G02*
X0281142Y0290433I0000472J0000000D01*
G01*
X0284921Y0290433D01*
G75*
G02*
X0285394Y0289961I0000000J-000472D01*
G01*
X0285394Y0282244D01*
G75*
G02*
X0284921Y0281772I-000472J0000000D01*
G01*
G37*
G36*
G01*
X0088484Y0187008D02*
X0088484Y0185827D01*
G75*
G02*
X0087894Y0185236I-000591J0000000D01*
G01*
X0083268Y0185236D01*
G75*
G02*
X0082677Y0185827I0000000J0000591D01*
G01*
X0082677Y0187008D01*
G75*
G02*
X0083268Y0187598I0000591J0000000D01*
G01*
X0087894Y0187598D01*
G75*
G02*
X0088484Y0187008I0000000J-000591D01*
G01*
G37*
G36*
G01*
X0081102Y0190748D02*
X0081102Y0189567D01*
G75*
G02*
X0080512Y0188976I-000591J0000000D01*
G01*
X0075886Y0188976D01*
G75*
G02*
X0075295Y0189567I0000000J0000591D01*
G01*
X0075295Y0190748D01*
G75*
G02*
X0075886Y0191339I0000591J0000000D01*
G01*
X0080512Y0191339D01*
G75*
G02*
X0081102Y0190748I0000000J-000591D01*
G01*
G37*
G36*
G01*
X0088484Y0194488D02*
X0088484Y0193307D01*
G75*
G02*
X0087894Y0192717I-000591J0000000D01*
G01*
X0083268Y0192717D01*
G75*
G02*
X0082677Y0193307I0000000J0000591D01*
G01*
X0082677Y0194488D01*
G75*
G02*
X0083268Y0195079I0000591J0000000D01*
G01*
X0087894Y0195079D01*
G75*
G02*
X0088484Y0194488I0000000J-000591D01*
G01*
G37*
G36*
G01*
X0035433Y0351969D02*
X0031890Y0351969D01*
G75*
G02*
X0031496Y0352362I0000000J0000394D01*
G01*
X0031496Y0355512D01*
G75*
G02*
X0031890Y0355906I0000394J0000000D01*
G01*
X0035433Y0355906D01*
G75*
G02*
X0035827Y0355512I0000000J-000394D01*
G01*
X0035827Y0352362D01*
G75*
G02*
X0035433Y0351969I-000394J0000000D01*
G01*
G37*
G36*
G01*
X0035433Y0358661D02*
X0031890Y0358661D01*
G75*
G02*
X0031496Y0359055I0000000J0000394D01*
G01*
X0031496Y0362205D01*
G75*
G02*
X0031890Y0362598I0000394J0000000D01*
G01*
X0035433Y0362598D01*
G75*
G02*
X0035827Y0362205I0000000J-000394D01*
G01*
X0035827Y0359055D01*
G75*
G02*
X0035433Y0358661I-000394J0000000D01*
G01*
G37*
G36*
G01*
X0052756Y0392913D02*
X0049213Y0392913D01*
G75*
G02*
X0048819Y0393307I0000000J0000394D01*
G01*
X0048819Y0396457D01*
G75*
G02*
X0049213Y0396850I0000394J0000000D01*
G01*
X0052756Y0396850D01*
G75*
G02*
X0053150Y0396457I0000000J-000394D01*
G01*
X0053150Y0393307D01*
G75*
G02*
X0052756Y0392913I-000394J0000000D01*
G01*
G37*
G36*
G01*
X0052756Y0399606D02*
X0049213Y0399606D01*
G75*
G02*
X0048819Y0400000I0000000J0000394D01*
G01*
X0048819Y0403150D01*
G75*
G02*
X0049213Y0403543I0000394J0000000D01*
G01*
X0052756Y0403543D01*
G75*
G02*
X0053150Y0403150I0000000J-000394D01*
G01*
X0053150Y0400000D01*
G75*
G02*
X0052756Y0399606I-000394J0000000D01*
G01*
G37*
G36*
G01*
X0048228Y0150354D02*
X0048228Y0154370D01*
G75*
G02*
X0048583Y0154724I0000354J0000000D01*
G01*
X0051417Y0154724D01*
G75*
G02*
X0051772Y0154370I0000000J-000354D01*
G01*
X0051772Y0150354D01*
G75*
G02*
X0051417Y0150000I-000354J0000000D01*
G01*
X0048583Y0150000D01*
G75*
G02*
X0048228Y0150354I0000000J0000354D01*
G01*
G37*
G36*
G01*
X0061220Y0150354D02*
X0061220Y0154370D01*
G75*
G02*
X0061575Y0154724I0000354J0000000D01*
G01*
X0064409Y0154724D01*
G75*
G02*
X0064764Y0154370I0000000J-000354D01*
G01*
X0064764Y0150354D01*
G75*
G02*
X0064409Y0150000I-000354J0000000D01*
G01*
X0061575Y0150000D01*
G75*
G02*
X0061220Y0150354I0000000J0000354D01*
G01*
G37*
G36*
G01*
X0054173Y0189331D02*
X0051102Y0189331D01*
G75*
G02*
X0050827Y0189606I0000000J0000276D01*
G01*
X0050827Y0191811D01*
G75*
G02*
X0051102Y0192087I0000276J0000000D01*
G01*
X0054173Y0192087D01*
G75*
G02*
X0054449Y0191811I0000000J-000276D01*
G01*
X0054449Y0189606D01*
G75*
G02*
X0054173Y0189331I-000276J0000000D01*
G01*
G37*
G36*
G01*
X0054173Y0195630D02*
X0051102Y0195630D01*
G75*
G02*
X0050827Y0195906I0000000J0000276D01*
G01*
X0050827Y0198110D01*
G75*
G02*
X0051102Y0198386I0000276J0000000D01*
G01*
X0054173Y0198386D01*
G75*
G02*
X0054449Y0198110I0000000J-000276D01*
G01*
X0054449Y0195906D01*
G75*
G02*
X0054173Y0195630I-000276J0000000D01*
G01*
G37*
G36*
G01*
X0057283Y0201220D02*
X0057283Y0204291D01*
G75*
G02*
X0057559Y0204567I0000276J0000000D01*
G01*
X0059764Y0204567D01*
G75*
G02*
X0060039Y0204291I0000000J-000276D01*
G01*
X0060039Y0201220D01*
G75*
G02*
X0059764Y0200945I-000276J0000000D01*
G01*
X0057559Y0200945D01*
G75*
G02*
X0057283Y0201220I0000000J0000276D01*
G01*
G37*
G36*
G01*
X0063583Y0201220D02*
X0063583Y0204291D01*
G75*
G02*
X0063858Y0204567I0000276J0000000D01*
G01*
X0066063Y0204567D01*
G75*
G02*
X0066339Y0204291I0000000J-000276D01*
G01*
X0066339Y0201220D01*
G75*
G02*
X0066063Y0200945I-000276J0000000D01*
G01*
X0063858Y0200945D01*
G75*
G02*
X0063583Y0201220I0000000J0000276D01*
G01*
G37*
G36*
G01*
X0144067Y0054346D02*
X0146705Y0054346D01*
G75*
G02*
X0146961Y0054091I0000000J-000256D01*
G01*
X0146961Y0052043D01*
G75*
G02*
X0146705Y0051787I-000256J0000000D01*
G01*
X0144067Y0051787D01*
G75*
G02*
X0143811Y0052043I0000000J0000256D01*
G01*
X0143811Y0054091D01*
G75*
G02*
X0144067Y0054346I0000256J0000000D01*
G01*
G37*
G36*
G01*
X0143988Y0050508D02*
X0146783Y0050508D01*
G75*
G02*
X0146961Y0050331I0000000J-000177D01*
G01*
X0146961Y0048913D01*
G75*
G02*
X0146783Y0048736I-000177J0000000D01*
G01*
X0143988Y0048736D01*
G75*
G02*
X0143811Y0048913I0000000J0000177D01*
G01*
X0143811Y0050331D01*
G75*
G02*
X0143988Y0050508I0000177J0000000D01*
G01*
G37*
G36*
G01*
X0143988Y0047358D02*
X0146783Y0047358D01*
G75*
G02*
X0146961Y0047181I0000000J-000177D01*
G01*
X0146961Y0045764D01*
G75*
G02*
X0146783Y0045587I-000177J0000000D01*
G01*
X0143988Y0045587D01*
G75*
G02*
X0143811Y0045764I0000000J0000177D01*
G01*
X0143811Y0047181D01*
G75*
G02*
X0143988Y0047358I0000177J0000000D01*
G01*
G37*
G36*
G01*
X0144067Y0044307D02*
X0146705Y0044307D01*
G75*
G02*
X0146961Y0044051I0000000J-000256D01*
G01*
X0146961Y0042004D01*
G75*
G02*
X0146705Y0041748I-000256J0000000D01*
G01*
X0144067Y0041748D01*
G75*
G02*
X0143811Y0042004I0000000J0000256D01*
G01*
X0143811Y0044051D01*
G75*
G02*
X0144067Y0044307I0000256J0000000D01*
G01*
G37*
G36*
G01*
X0151154Y0044307D02*
X0153791Y0044307D01*
G75*
G02*
X0154047Y0044051I0000000J-000256D01*
G01*
X0154047Y0042004D01*
G75*
G02*
X0153791Y0041748I-000256J0000000D01*
G01*
X0151154Y0041748D01*
G75*
G02*
X0150898Y0042004I0000000J0000256D01*
G01*
X0150898Y0044051D01*
G75*
G02*
X0151154Y0044307I0000256J0000000D01*
G01*
G37*
G36*
G01*
X0151075Y0047358D02*
X0153870Y0047358D01*
G75*
G02*
X0154047Y0047181I0000000J-000177D01*
G01*
X0154047Y0045764D01*
G75*
G02*
X0153870Y0045587I-000177J0000000D01*
G01*
X0151075Y0045587D01*
G75*
G02*
X0150898Y0045764I0000000J0000177D01*
G01*
X0150898Y0047181D01*
G75*
G02*
X0151075Y0047358I0000177J0000000D01*
G01*
G37*
G36*
G01*
X0151075Y0050508D02*
X0153870Y0050508D01*
G75*
G02*
X0154047Y0050331I0000000J-000177D01*
G01*
X0154047Y0048913D01*
G75*
G02*
X0153870Y0048736I-000177J0000000D01*
G01*
X0151075Y0048736D01*
G75*
G02*
X0150898Y0048913I0000000J0000177D01*
G01*
X0150898Y0050331D01*
G75*
G02*
X0151075Y0050508I0000177J0000000D01*
G01*
G37*
G36*
G01*
X0151154Y0054346D02*
X0153791Y0054346D01*
G75*
G02*
X0154047Y0054091I0000000J-000256D01*
G01*
X0154047Y0052043D01*
G75*
G02*
X0153791Y0051787I-000256J0000000D01*
G01*
X0151154Y0051787D01*
G75*
G02*
X0150898Y0052043I0000000J0000256D01*
G01*
X0150898Y0054091D01*
G75*
G02*
X0151154Y0054346I0000256J0000000D01*
G01*
G37*
G36*
G01*
X0065886Y0185827D02*
X0063248Y0185827D01*
G75*
G02*
X0062992Y0186083I0000000J0000256D01*
G01*
X0062992Y0188130D01*
G75*
G02*
X0063248Y0188386I0000256J0000000D01*
G01*
X0065886Y0188386D01*
G75*
G02*
X0066142Y0188130I0000000J-000256D01*
G01*
X0066142Y0186083D01*
G75*
G02*
X0065886Y0185827I-000256J0000000D01*
G01*
G37*
G36*
G01*
X0065965Y0189665D02*
X0063169Y0189665D01*
G75*
G02*
X0062992Y0189843I0000000J0000177D01*
G01*
X0062992Y0191260D01*
G75*
G02*
X0063169Y0191437I0000177J0000000D01*
G01*
X0065965Y0191437D01*
G75*
G02*
X0066142Y0191260I0000000J-000177D01*
G01*
X0066142Y0189843D01*
G75*
G02*
X0065965Y0189665I-000177J0000000D01*
G01*
G37*
G36*
G01*
X0065965Y0192815D02*
X0063169Y0192815D01*
G75*
G02*
X0062992Y0192992I0000000J0000177D01*
G01*
X0062992Y0194409D01*
G75*
G02*
X0063169Y0194587I0000177J0000000D01*
G01*
X0065965Y0194587D01*
G75*
G02*
X0066142Y0194409I0000000J-000177D01*
G01*
X0066142Y0192992D01*
G75*
G02*
X0065965Y0192815I-000177J0000000D01*
G01*
G37*
G36*
G01*
X0065886Y0195866D02*
X0063248Y0195866D01*
G75*
G02*
X0062992Y0196122I0000000J0000256D01*
G01*
X0062992Y0198169D01*
G75*
G02*
X0063248Y0198425I0000256J0000000D01*
G01*
X0065886Y0198425D01*
G75*
G02*
X0066142Y0198169I0000000J-000256D01*
G01*
X0066142Y0196122D01*
G75*
G02*
X0065886Y0195866I-000256J0000000D01*
G01*
G37*
G36*
G01*
X0058799Y0195866D02*
X0056161Y0195866D01*
G75*
G02*
X0055906Y0196122I0000000J0000256D01*
G01*
X0055906Y0198169D01*
G75*
G02*
X0056161Y0198425I0000256J0000000D01*
G01*
X0058799Y0198425D01*
G75*
G02*
X0059055Y0198169I0000000J-000256D01*
G01*
X0059055Y0196122D01*
G75*
G02*
X0058799Y0195866I-000256J0000000D01*
G01*
G37*
G36*
G01*
X0058878Y0192815D02*
X0056083Y0192815D01*
G75*
G02*
X0055906Y0192992I0000000J0000177D01*
G01*
X0055906Y0194409D01*
G75*
G02*
X0056083Y0194587I0000177J0000000D01*
G01*
X0058878Y0194587D01*
G75*
G02*
X0059055Y0194409I0000000J-000177D01*
G01*
X0059055Y0192992D01*
G75*
G02*
X0058878Y0192815I-000177J0000000D01*
G01*
G37*
G36*
G01*
X0058878Y0189665D02*
X0056083Y0189665D01*
G75*
G02*
X0055906Y0189843I0000000J0000177D01*
G01*
X0055906Y0191260D01*
G75*
G02*
X0056083Y0191437I0000177J0000000D01*
G01*
X0058878Y0191437D01*
G75*
G02*
X0059055Y0191260I0000000J-000177D01*
G01*
X0059055Y0189843D01*
G75*
G02*
X0058878Y0189665I-000177J0000000D01*
G01*
G37*
G36*
G01*
X0058799Y0185827D02*
X0056161Y0185827D01*
G75*
G02*
X0055906Y0186083I0000000J0000256D01*
G01*
X0055906Y0188130D01*
G75*
G02*
X0056161Y0188386I0000256J0000000D01*
G01*
X0058799Y0188386D01*
G75*
G02*
X0059055Y0188130I0000000J-000256D01*
G01*
X0059055Y0186083D01*
G75*
G02*
X0058799Y0185827I-000256J0000000D01*
G01*
G37*
G36*
G01*
X0043189Y0134823D02*
X0043189Y0137461D01*
G75*
G02*
X0043445Y0137717I0000256J0000000D01*
G01*
X0045492Y0137717D01*
G75*
G02*
X0045748Y0137461I0000000J-000256D01*
G01*
X0045748Y0134823D01*
G75*
G02*
X0045492Y0134567I-000256J0000000D01*
G01*
X0043445Y0134567D01*
G75*
G02*
X0043189Y0134823I0000000J0000256D01*
G01*
G37*
G36*
G01*
X0047028Y0134744D02*
X0047028Y0137539D01*
G75*
G02*
X0047205Y0137717I0000177J0000000D01*
G01*
X0048622Y0137717D01*
G75*
G02*
X0048799Y0137539I0000000J-000177D01*
G01*
X0048799Y0134744D01*
G75*
G02*
X0048622Y0134567I-000177J0000000D01*
G01*
X0047205Y0134567D01*
G75*
G02*
X0047028Y0134744I0000000J0000177D01*
G01*
G37*
G36*
G01*
X0050177Y0134744D02*
X0050177Y0137539D01*
G75*
G02*
X0050354Y0137717I0000177J0000000D01*
G01*
X0051772Y0137717D01*
G75*
G02*
X0051949Y0137539I0000000J-000177D01*
G01*
X0051949Y0134744D01*
G75*
G02*
X0051772Y0134567I-000177J0000000D01*
G01*
X0050354Y0134567D01*
G75*
G02*
X0050177Y0134744I0000000J0000177D01*
G01*
G37*
G36*
G01*
X0053228Y0134823D02*
X0053228Y0137461D01*
G75*
G02*
X0053484Y0137717I0000256J0000000D01*
G01*
X0055531Y0137717D01*
G75*
G02*
X0055787Y0137461I0000000J-000256D01*
G01*
X0055787Y0134823D01*
G75*
G02*
X0055531Y0134567I-000256J0000000D01*
G01*
X0053484Y0134567D01*
G75*
G02*
X0053228Y0134823I0000000J0000256D01*
G01*
G37*
G36*
G01*
X0053228Y0141909D02*
X0053228Y0144547D01*
G75*
G02*
X0053484Y0144803I0000256J0000000D01*
G01*
X0055531Y0144803D01*
G75*
G02*
X0055787Y0144547I0000000J-000256D01*
G01*
X0055787Y0141909D01*
G75*
G02*
X0055531Y0141654I-000256J0000000D01*
G01*
X0053484Y0141654D01*
G75*
G02*
X0053228Y0141909I0000000J0000256D01*
G01*
G37*
G36*
G01*
X0050177Y0141831D02*
X0050177Y0144626D01*
G75*
G02*
X0050354Y0144803I0000177J0000000D01*
G01*
X0051772Y0144803D01*
G75*
G02*
X0051949Y0144626I0000000J-000177D01*
G01*
X0051949Y0141831D01*
G75*
G02*
X0051772Y0141654I-000177J0000000D01*
G01*
X0050354Y0141654D01*
G75*
G02*
X0050177Y0141831I0000000J0000177D01*
G01*
G37*
G36*
G01*
X0047028Y0141831D02*
X0047028Y0144626D01*
G75*
G02*
X0047205Y0144803I0000177J0000000D01*
G01*
X0048622Y0144803D01*
G75*
G02*
X0048799Y0144626I0000000J-000177D01*
G01*
X0048799Y0141831D01*
G75*
G02*
X0048622Y0141654I-000177J0000000D01*
G01*
X0047205Y0141654D01*
G75*
G02*
X0047028Y0141831I0000000J0000177D01*
G01*
G37*
G36*
G01*
X0043189Y0141909D02*
X0043189Y0144547D01*
G75*
G02*
X0043445Y0144803I0000256J0000000D01*
G01*
X0045492Y0144803D01*
G75*
G02*
X0045748Y0144547I0000000J-000256D01*
G01*
X0045748Y0141909D01*
G75*
G02*
X0045492Y0141654I-000256J0000000D01*
G01*
X0043445Y0141654D01*
G75*
G02*
X0043189Y0141909I0000000J0000256D01*
G01*
G37*
G36*
G01*
X0072220Y0157539D02*
X0072220Y0160177D01*
G75*
G02*
X0072476Y0160433I0000256J0000000D01*
G01*
X0074524Y0160433D01*
G75*
G02*
X0074780Y0160177I0000000J-000256D01*
G01*
X0074780Y0157539D01*
G75*
G02*
X0074524Y0157283I-000256J0000000D01*
G01*
X0072476Y0157283D01*
G75*
G02*
X0072220Y0157539I0000000J0000256D01*
G01*
G37*
G36*
G01*
X0076059Y0157461D02*
X0076059Y0160256D01*
G75*
G02*
X0076236Y0160433I0000177J0000000D01*
G01*
X0077654Y0160433D01*
G75*
G02*
X0077831Y0160256I0000000J-000177D01*
G01*
X0077831Y0157461D01*
G75*
G02*
X0077654Y0157283I-000177J0000000D01*
G01*
X0076236Y0157283D01*
G75*
G02*
X0076059Y0157461I0000000J0000177D01*
G01*
G37*
G36*
G01*
X0079209Y0157461D02*
X0079209Y0160256D01*
G75*
G02*
X0079386Y0160433I0000177J0000000D01*
G01*
X0080803Y0160433D01*
G75*
G02*
X0080980Y0160256I0000000J-000177D01*
G01*
X0080980Y0157461D01*
G75*
G02*
X0080803Y0157283I-000177J0000000D01*
G01*
X0079386Y0157283D01*
G75*
G02*
X0079209Y0157461I0000000J0000177D01*
G01*
G37*
G36*
G01*
X0082260Y0157539D02*
X0082260Y0160177D01*
G75*
G02*
X0082516Y0160433I0000256J0000000D01*
G01*
X0084563Y0160433D01*
G75*
G02*
X0084819Y0160177I0000000J-000256D01*
G01*
X0084819Y0157539D01*
G75*
G02*
X0084563Y0157283I-000256J0000000D01*
G01*
X0082516Y0157283D01*
G75*
G02*
X0082260Y0157539I0000000J0000256D01*
G01*
G37*
G36*
G01*
X0082260Y0164626D02*
X0082260Y0167264D01*
G75*
G02*
X0082516Y0167520I0000256J0000000D01*
G01*
X0084563Y0167520D01*
G75*
G02*
X0084819Y0167264I0000000J-000256D01*
G01*
X0084819Y0164626D01*
G75*
G02*
X0084563Y0164370I-000256J0000000D01*
G01*
X0082516Y0164370D01*
G75*
G02*
X0082260Y0164626I0000000J0000256D01*
G01*
G37*
G36*
G01*
X0079209Y0164547D02*
X0079209Y0167343D01*
G75*
G02*
X0079386Y0167520I0000177J0000000D01*
G01*
X0080803Y0167520D01*
G75*
G02*
X0080980Y0167343I0000000J-000177D01*
G01*
X0080980Y0164547D01*
G75*
G02*
X0080803Y0164370I-000177J0000000D01*
G01*
X0079386Y0164370D01*
G75*
G02*
X0079209Y0164547I0000000J0000177D01*
G01*
G37*
G36*
G01*
X0076059Y0164547D02*
X0076059Y0167343D01*
G75*
G02*
X0076236Y0167520I0000177J0000000D01*
G01*
X0077654Y0167520D01*
G75*
G02*
X0077831Y0167343I0000000J-000177D01*
G01*
X0077831Y0164547D01*
G75*
G02*
X0077654Y0164370I-000177J0000000D01*
G01*
X0076236Y0164370D01*
G75*
G02*
X0076059Y0164547I0000000J0000177D01*
G01*
G37*
G36*
G01*
X0072220Y0164626D02*
X0072220Y0167264D01*
G75*
G02*
X0072476Y0167520I0000256J0000000D01*
G01*
X0074524Y0167520D01*
G75*
G02*
X0074780Y0167264I0000000J-000256D01*
G01*
X0074780Y0164626D01*
G75*
G02*
X0074524Y0164370I-000256J0000000D01*
G01*
X0072476Y0164370D01*
G75*
G02*
X0072220Y0164626I0000000J0000256D01*
G01*
G37*
G36*
G01*
X0053543Y0160335D02*
X0052362Y0160335D01*
G75*
G02*
X0051772Y0160925I0000000J0000591D01*
G01*
X0051772Y0165551D01*
G75*
G02*
X0052362Y0166142I0000591J0000000D01*
G01*
X0053543Y0166142D01*
G75*
G02*
X0054134Y0165551I0000000J-000591D01*
G01*
X0054134Y0160925D01*
G75*
G02*
X0053543Y0160335I-000591J0000000D01*
G01*
G37*
G36*
G01*
X0057283Y0167717D02*
X0056102Y0167717D01*
G75*
G02*
X0055512Y0168307I0000000J0000591D01*
G01*
X0055512Y0172933D01*
G75*
G02*
X0056102Y0173524I0000591J0000000D01*
G01*
X0057283Y0173524D01*
G75*
G02*
X0057874Y0172933I0000000J-000591D01*
G01*
X0057874Y0168307D01*
G75*
G02*
X0057283Y0167717I-000591J0000000D01*
G01*
G37*
G36*
G01*
X0061024Y0160335D02*
X0059843Y0160335D01*
G75*
G02*
X0059252Y0160925I0000000J0000591D01*
G01*
X0059252Y0165551D01*
G75*
G02*
X0059843Y0166142I0000591J0000000D01*
G01*
X0061024Y0166142D01*
G75*
G02*
X0061614Y0165551I0000000J-000591D01*
G01*
X0061614Y0160925D01*
G75*
G02*
X0061024Y0160335I-000591J0000000D01*
G01*
G37*
G36*
G01*
X0021850Y0147500D02*
X0025866Y0147500D01*
G75*
G02*
X0026220Y0147146I0000000J-000354D01*
G01*
X0026220Y0144311D01*
G75*
G02*
X0025866Y0143957I-000354J0000000D01*
G01*
X0021850Y0143957D01*
G75*
G02*
X0021496Y0144311I0000000J0000354D01*
G01*
X0021496Y0147146D01*
G75*
G02*
X0021850Y0147500I0000354J0000000D01*
G01*
G37*
G36*
G01*
X0021850Y0134508D02*
X0025866Y0134508D01*
G75*
G02*
X0026220Y0134154I0000000J-000354D01*
G01*
X0026220Y0131319D01*
G75*
G02*
X0025866Y0130965I-000354J0000000D01*
G01*
X0021850Y0130965D01*
G75*
G02*
X0021496Y0131319I0000000J0000354D01*
G01*
X0021496Y0134154D01*
G75*
G02*
X0021850Y0134508I0000354J0000000D01*
G01*
G37*
G36*
G01*
X0227390Y0328150D02*
X0222469Y0328150D01*
G75*
G02*
X0222075Y0328543I0000000J0000394D01*
G01*
X0222075Y0331693D01*
G75*
G02*
X0222469Y0332087I0000394J0000000D01*
G01*
X0227390Y0332087D01*
G75*
G02*
X0227783Y0331693I0000000J-000394D01*
G01*
X0227783Y0328543D01*
G75*
G02*
X0227390Y0328150I-000394J0000000D01*
G01*
G37*
G36*
G01*
X0227390Y0335630D02*
X0222469Y0335630D01*
G75*
G02*
X0222075Y0336024I0000000J0000394D01*
G01*
X0222075Y0339173D01*
G75*
G02*
X0222469Y0339567I0000394J0000000D01*
G01*
X0227390Y0339567D01*
G75*
G02*
X0227783Y0339173I0000000J-000394D01*
G01*
X0227783Y0336024D01*
G75*
G02*
X0227390Y0335630I-000394J0000000D01*
G01*
G37*
G36*
G01*
X0069140Y0321211D02*
X0071030Y0321211D01*
G75*
G02*
X0071266Y0320974I0000000J-000236D01*
G01*
X0071266Y0319085D01*
G75*
G02*
X0071030Y0318848I-000236J0000000D01*
G01*
X0069140Y0318848D01*
G75*
G02*
X0068904Y0319085I0000000J0000236D01*
G01*
X0068904Y0320974D01*
G75*
G02*
X0069140Y0321211I0000236J0000000D01*
G01*
G37*
G36*
G01*
X0077801Y0321211D02*
X0079691Y0321211D01*
G75*
G02*
X0079927Y0320974I0000000J-000236D01*
G01*
X0079927Y0319085D01*
G75*
G02*
X0079691Y0318848I-000236J0000000D01*
G01*
X0077801Y0318848D01*
G75*
G02*
X0077565Y0319085I0000000J0000236D01*
G01*
X0077565Y0320974D01*
G75*
G02*
X0077801Y0321211I0000236J0000000D01*
G01*
G37*
G36*
G01*
X0070472Y0195906D02*
X0070472Y0198976D01*
G75*
G02*
X0070748Y0199252I0000276J0000000D01*
G01*
X0072953Y0199252D01*
G75*
G02*
X0073228Y0198976I0000000J-000276D01*
G01*
X0073228Y0195906D01*
G75*
G02*
X0072953Y0195630I-000276J0000000D01*
G01*
X0070748Y0195630D01*
G75*
G02*
X0070472Y0195906I0000000J0000276D01*
G01*
G37*
G36*
G01*
X0076772Y0195906D02*
X0076772Y0198976D01*
G75*
G02*
X0077047Y0199252I0000276J0000000D01*
G01*
X0079252Y0199252D01*
G75*
G02*
X0079528Y0198976I0000000J-000276D01*
G01*
X0079528Y0195906D01*
G75*
G02*
X0079252Y0195630I-000276J0000000D01*
G01*
X0077047Y0195630D01*
G75*
G02*
X0076772Y0195906I0000000J0000276D01*
G01*
G37*
G36*
G01*
X0077317Y0339419D02*
X0075427Y0339419D01*
G75*
G02*
X0075191Y0339656I0000000J0000236D01*
G01*
X0075191Y0341545D01*
G75*
G02*
X0075427Y0341782I0000236J0000000D01*
G01*
X0077317Y0341782D01*
G75*
G02*
X0077553Y0341545I0000000J-000236D01*
G01*
X0077553Y0339656D01*
G75*
G02*
X0077317Y0339419I-000236J0000000D01*
G01*
G37*
G36*
G01*
X0068656Y0339419D02*
X0066766Y0339419D01*
G75*
G02*
X0066530Y0339656I0000000J0000236D01*
G01*
X0066530Y0341545D01*
G75*
G02*
X0066766Y0341782I0000236J0000000D01*
G01*
X0068656Y0341782D01*
G75*
G02*
X0068892Y0341545I0000000J-000236D01*
G01*
X0068892Y0339656D01*
G75*
G02*
X0068656Y0339419I-000236J0000000D01*
G01*
G37*
G36*
G01*
X0060531Y0142913D02*
X0060531Y0144094D01*
G75*
G02*
X0061122Y0144685I0000591J0000000D01*
G01*
X0065748Y0144685D01*
G75*
G02*
X0066339Y0144094I0000000J-000591D01*
G01*
X0066339Y0142913D01*
G75*
G02*
X0065748Y0142323I-000591J0000000D01*
G01*
X0061122Y0142323D01*
G75*
G02*
X0060531Y0142913I0000000J0000591D01*
G01*
G37*
G36*
G01*
X0067913Y0139173D02*
X0067913Y0140354D01*
G75*
G02*
X0068504Y0140945I0000591J0000000D01*
G01*
X0073130Y0140945D01*
G75*
G02*
X0073720Y0140354I0000000J-000591D01*
G01*
X0073720Y0139173D01*
G75*
G02*
X0073130Y0138583I-000591J0000000D01*
G01*
X0068504Y0138583D01*
G75*
G02*
X0067913Y0139173I0000000J0000591D01*
G01*
G37*
G36*
G01*
X0060531Y0135433D02*
X0060531Y0136614D01*
G75*
G02*
X0061122Y0137205I0000591J0000000D01*
G01*
X0065748Y0137205D01*
G75*
G02*
X0066339Y0136614I0000000J-000591D01*
G01*
X0066339Y0135433D01*
G75*
G02*
X0065748Y0134843I-000591J0000000D01*
G01*
X0061122Y0134843D01*
G75*
G02*
X0060531Y0135433I0000000J0000591D01*
G01*
G37*
G36*
G01*
X0075992Y0133079D02*
X0075992Y0136150D01*
G75*
G02*
X0076268Y0136425I0000276J0000000D01*
G01*
X0078472Y0136425D01*
G75*
G02*
X0078748Y0136150I0000000J-000276D01*
G01*
X0078748Y0133079D01*
G75*
G02*
X0078472Y0132803I-000276J0000000D01*
G01*
X0076268Y0132803D01*
G75*
G02*
X0075992Y0133079I0000000J0000276D01*
G01*
G37*
G36*
G01*
X0082291Y0133079D02*
X0082291Y0136150D01*
G75*
G02*
X0082567Y0136425I0000276J0000000D01*
G01*
X0084772Y0136425D01*
G75*
G02*
X0085047Y0136150I0000000J-000276D01*
G01*
X0085047Y0133079D01*
G75*
G02*
X0084772Y0132803I-000276J0000000D01*
G01*
X0082567Y0132803D01*
G75*
G02*
X0082291Y0133079I0000000J0000276D01*
G01*
G37*
G36*
G01*
X0079134Y0335177D02*
X0079134Y0332539D01*
G75*
G02*
X0078878Y0332283I-000256J0000000D01*
G01*
X0076831Y0332283D01*
G75*
G02*
X0076575Y0332539I0000000J0000256D01*
G01*
X0076575Y0335177D01*
G75*
G02*
X0076831Y0335433I0000256J0000000D01*
G01*
X0078878Y0335433D01*
G75*
G02*
X0079134Y0335177I0000000J-000256D01*
G01*
G37*
G36*
G01*
X0075295Y0335256D02*
X0075295Y0332461D01*
G75*
G02*
X0075118Y0332283I-000177J0000000D01*
G01*
X0073701Y0332283D01*
G75*
G02*
X0073524Y0332461I0000000J0000177D01*
G01*
X0073524Y0335256D01*
G75*
G02*
X0073701Y0335433I0000177J0000000D01*
G01*
X0075118Y0335433D01*
G75*
G02*
X0075295Y0335256I0000000J-000177D01*
G01*
G37*
G36*
G01*
X0072146Y0335256D02*
X0072146Y0332461D01*
G75*
G02*
X0071969Y0332283I-000177J0000000D01*
G01*
X0070551Y0332283D01*
G75*
G02*
X0070374Y0332461I0000000J0000177D01*
G01*
X0070374Y0335256D01*
G75*
G02*
X0070551Y0335433I0000177J0000000D01*
G01*
X0071969Y0335433D01*
G75*
G02*
X0072146Y0335256I0000000J-000177D01*
G01*
G37*
G36*
G01*
X0069094Y0335177D02*
X0069094Y0332539D01*
G75*
G02*
X0068839Y0332283I-000256J0000000D01*
G01*
X0066791Y0332283D01*
G75*
G02*
X0066535Y0332539I0000000J0000256D01*
G01*
X0066535Y0335177D01*
G75*
G02*
X0066791Y0335433I0000256J0000000D01*
G01*
X0068839Y0335433D01*
G75*
G02*
X0069094Y0335177I0000000J-000256D01*
G01*
G37*
G36*
G01*
X0069094Y0328091D02*
X0069094Y0325453D01*
G75*
G02*
X0068839Y0325197I-000256J0000000D01*
G01*
X0066791Y0325197D01*
G75*
G02*
X0066535Y0325453I0000000J0000256D01*
G01*
X0066535Y0328091D01*
G75*
G02*
X0066791Y0328346I0000256J0000000D01*
G01*
X0068839Y0328346D01*
G75*
G02*
X0069094Y0328091I0000000J-000256D01*
G01*
G37*
G36*
G01*
X0072146Y0328169D02*
X0072146Y0325374D01*
G75*
G02*
X0071969Y0325197I-000177J0000000D01*
G01*
X0070551Y0325197D01*
G75*
G02*
X0070374Y0325374I0000000J0000177D01*
G01*
X0070374Y0328169D01*
G75*
G02*
X0070551Y0328346I0000177J0000000D01*
G01*
X0071969Y0328346D01*
G75*
G02*
X0072146Y0328169I0000000J-000177D01*
G01*
G37*
G36*
G01*
X0075295Y0328169D02*
X0075295Y0325374D01*
G75*
G02*
X0075118Y0325197I-000177J0000000D01*
G01*
X0073701Y0325197D01*
G75*
G02*
X0073524Y0325374I0000000J0000177D01*
G01*
X0073524Y0328169D01*
G75*
G02*
X0073701Y0328346I0000177J0000000D01*
G01*
X0075118Y0328346D01*
G75*
G02*
X0075295Y0328169I0000000J-000177D01*
G01*
G37*
G36*
G01*
X0079134Y0328091D02*
X0079134Y0325453D01*
G75*
G02*
X0078878Y0325197I-000256J0000000D01*
G01*
X0076831Y0325197D01*
G75*
G02*
X0076575Y0325453I0000000J0000256D01*
G01*
X0076575Y0328091D01*
G75*
G02*
X0076831Y0328346I0000256J0000000D01*
G01*
X0078878Y0328346D01*
G75*
G02*
X0079134Y0328091I0000000J-000256D01*
G01*
G37*
G36*
G01*
X0306732Y0384252D02*
X0302717Y0384252D01*
G75*
G02*
X0302362Y0384606I0000000J0000354D01*
G01*
X0302362Y0387441D01*
G75*
G02*
X0302717Y0387795I0000354J0000000D01*
G01*
X0306732Y0387795D01*
G75*
G02*
X0307087Y0387441I0000000J-000354D01*
G01*
X0307087Y0384606D01*
G75*
G02*
X0306732Y0384252I-000354J0000000D01*
G01*
G37*
G36*
G01*
X0306732Y0397244D02*
X0302717Y0397244D01*
G75*
G02*
X0302362Y0397598I0000000J0000354D01*
G01*
X0302362Y0400433D01*
G75*
G02*
X0302717Y0400787I0000354J0000000D01*
G01*
X0306732Y0400787D01*
G75*
G02*
X0307087Y0400433I0000000J-000354D01*
G01*
X0307087Y0397598D01*
G75*
G02*
X0306732Y0397244I-000354J0000000D01*
G01*
G37*
G36*
G01*
X0235390Y0328150D02*
X0230469Y0328150D01*
G75*
G02*
X0230075Y0328543I0000000J0000394D01*
G01*
X0230075Y0331693D01*
G75*
G02*
X0230469Y0332087I0000394J0000000D01*
G01*
X0235390Y0332087D01*
G75*
G02*
X0235783Y0331693I0000000J-000394D01*
G01*
X0235783Y0328543D01*
G75*
G02*
X0235390Y0328150I-000394J0000000D01*
G01*
G37*
G36*
G01*
X0235390Y0335630D02*
X0230469Y0335630D01*
G75*
G02*
X0230075Y0336024I0000000J0000394D01*
G01*
X0230075Y0339173D01*
G75*
G02*
X0230469Y0339567I0000394J0000000D01*
G01*
X0235390Y0339567D01*
G75*
G02*
X0235783Y0339173I0000000J-000394D01*
G01*
X0235783Y0336024D01*
G75*
G02*
X0235390Y0335630I-000394J0000000D01*
G01*
G37*
G36*
G01*
X0290748Y0400098D02*
X0290748Y0395177D01*
G75*
G02*
X0290354Y0394783I-000394J0000000D01*
G01*
X0287205Y0394783D01*
G75*
G02*
X0286811Y0395177I0000000J0000394D01*
G01*
X0286811Y0400098D01*
G75*
G02*
X0287205Y0400492I0000394J0000000D01*
G01*
X0290354Y0400492D01*
G75*
G02*
X0290748Y0400098I0000000J-000394D01*
G01*
G37*
G36*
G01*
X0283268Y0400098D02*
X0283268Y0395177D01*
G75*
G02*
X0282874Y0394783I-000394J0000000D01*
G01*
X0279724Y0394783D01*
G75*
G02*
X0279331Y0395177I0000000J0000394D01*
G01*
X0279331Y0400098D01*
G75*
G02*
X0279724Y0400492I0000394J0000000D01*
G01*
X0282874Y0400492D01*
G75*
G02*
X0283268Y0400098I0000000J-000394D01*
G01*
G37*
G36*
G01*
X0243390Y0328339D02*
X0238469Y0328339D01*
G75*
G02*
X0238075Y0328732I0000000J0000394D01*
G01*
X0238075Y0331882D01*
G75*
G02*
X0238469Y0332276I0000394J0000000D01*
G01*
X0243390Y0332276D01*
G75*
G02*
X0243783Y0331882I0000000J-000394D01*
G01*
X0243783Y0328732D01*
G75*
G02*
X0243390Y0328339I-000394J0000000D01*
G01*
G37*
G36*
G01*
X0243390Y0335819D02*
X0238469Y0335819D01*
G75*
G02*
X0238075Y0336213I0000000J0000394D01*
G01*
X0238075Y0339362D01*
G75*
G02*
X0238469Y0339756I0000394J0000000D01*
G01*
X0243390Y0339756D01*
G75*
G02*
X0243783Y0339362I0000000J-000394D01*
G01*
X0243783Y0336213D01*
G75*
G02*
X0243390Y0335819I-000394J0000000D01*
G01*
G37*
G36*
G01*
X0298563Y0052992D02*
X0298563Y0055669D01*
G75*
G02*
X0298898Y0056004I0000335J0000000D01*
G01*
X0301575Y0056004D01*
G75*
G02*
X0301909Y0055669I0000000J-000335D01*
G01*
X0301909Y0052992D01*
G75*
G02*
X0301575Y0052657I-000335J0000000D01*
G01*
X0298898Y0052657D01*
G75*
G02*
X0298563Y0052992I0000000J0000335D01*
G01*
G37*
G36*
G01*
X0304783Y0052992D02*
X0304783Y0055669D01*
G75*
G02*
X0305118Y0056004I0000335J0000000D01*
G01*
X0307795Y0056004D01*
G75*
G02*
X0308130Y0055669I0000000J-000335D01*
G01*
X0308130Y0052992D01*
G75*
G02*
X0307795Y0052657I-000335J0000000D01*
G01*
X0305118Y0052657D01*
G75*
G02*
X0304783Y0052992I0000000J0000335D01*
G01*
G37*
G36*
G01*
X0109547Y0328150D02*
X0104626Y0328150D01*
G75*
G02*
X0104232Y0328543I0000000J0000394D01*
G01*
X0104232Y0331693D01*
G75*
G02*
X0104626Y0332087I0000394J0000000D01*
G01*
X0109547Y0332087D01*
G75*
G02*
X0109941Y0331693I0000000J-000394D01*
G01*
X0109941Y0328543D01*
G75*
G02*
X0109547Y0328150I-000394J0000000D01*
G01*
G37*
G36*
G01*
X0109547Y0335630D02*
X0104626Y0335630D01*
G75*
G02*
X0104232Y0336024I0000000J0000394D01*
G01*
X0104232Y0339173D01*
G75*
G02*
X0104626Y0339567I0000394J0000000D01*
G01*
X0109547Y0339567D01*
G75*
G02*
X0109941Y0339173I0000000J-000394D01*
G01*
X0109941Y0336024D01*
G75*
G02*
X0109547Y0335630I-000394J0000000D01*
G01*
G37*
G36*
G01*
X0057283Y0206732D02*
X0057283Y0209803D01*
G75*
G02*
X0057559Y0210079I0000276J0000000D01*
G01*
X0059764Y0210079D01*
G75*
G02*
X0060039Y0209803I0000000J-000276D01*
G01*
X0060039Y0206732D01*
G75*
G02*
X0059764Y0206457I-000276J0000000D01*
G01*
X0057559Y0206457D01*
G75*
G02*
X0057283Y0206732I0000000J0000276D01*
G01*
G37*
G36*
G01*
X0063583Y0206732D02*
X0063583Y0209803D01*
G75*
G02*
X0063858Y0210079I0000276J0000000D01*
G01*
X0066063Y0210079D01*
G75*
G02*
X0066339Y0209803I0000000J-000276D01*
G01*
X0066339Y0206732D01*
G75*
G02*
X0066063Y0206457I-000276J0000000D01*
G01*
X0063858Y0206457D01*
G75*
G02*
X0063583Y0206732I0000000J0000276D01*
G01*
G37*
G36*
G01*
X0138287Y0328150D02*
X0133366Y0328150D01*
G75*
G02*
X0132972Y0328543I0000000J0000394D01*
G01*
X0132972Y0331693D01*
G75*
G02*
X0133366Y0332087I0000394J0000000D01*
G01*
X0138287Y0332087D01*
G75*
G02*
X0138681Y0331693I0000000J-000394D01*
G01*
X0138681Y0328543D01*
G75*
G02*
X0138287Y0328150I-000394J0000000D01*
G01*
G37*
G36*
G01*
X0138287Y0335630D02*
X0133366Y0335630D01*
G75*
G02*
X0132972Y0336024I0000000J0000394D01*
G01*
X0132972Y0339173D01*
G75*
G02*
X0133366Y0339567I0000394J0000000D01*
G01*
X0138287Y0339567D01*
G75*
G02*
X0138681Y0339173I0000000J-000394D01*
G01*
X0138681Y0336024D01*
G75*
G02*
X0138287Y0335630I-000394J0000000D01*
G01*
G37*
G36*
G01*
X0035433Y0290551D02*
X0031890Y0290551D01*
G75*
G02*
X0031496Y0290945I0000000J0000394D01*
G01*
X0031496Y0294094D01*
G75*
G02*
X0031890Y0294488I0000394J0000000D01*
G01*
X0035433Y0294488D01*
G75*
G02*
X0035827Y0294094I0000000J-000394D01*
G01*
X0035827Y0290945D01*
G75*
G02*
X0035433Y0290551I-000394J0000000D01*
G01*
G37*
G36*
G01*
X0035433Y0297244D02*
X0031890Y0297244D01*
G75*
G02*
X0031496Y0297638I0000000J0000394D01*
G01*
X0031496Y0300787D01*
G75*
G02*
X0031890Y0301181I0000394J0000000D01*
G01*
X0035433Y0301181D01*
G75*
G02*
X0035827Y0300787I0000000J-000394D01*
G01*
X0035827Y0297638D01*
G75*
G02*
X0035433Y0297244I-000394J0000000D01*
G01*
G37*
X0314232Y0304783D03*
X0314232Y0317972D03*
X0302224Y0317972D03*
X0302224Y0304783D03*
G36*
G01*
X0301142Y0282244D02*
X0297362Y0282244D01*
G75*
G02*
X0296890Y0282717I0000000J0000472D01*
G01*
X0296890Y0290433D01*
G75*
G02*
X0297362Y0290906I0000472J0000000D01*
G01*
X0301142Y0290906D01*
G75*
G02*
X0301614Y0290433I0000000J-000472D01*
G01*
X0301614Y0282717D01*
G75*
G02*
X0301142Y0282244I-000472J0000000D01*
G01*
G37*
G36*
G01*
X0319094Y0282244D02*
X0315315Y0282244D01*
G75*
G02*
X0314843Y0282717I0000000J0000472D01*
G01*
X0314843Y0290433D01*
G75*
G02*
X0315315Y0290906I0000472J0000000D01*
G01*
X0319094Y0290906D01*
G75*
G02*
X0319567Y0290433I0000000J-000472D01*
G01*
X0319567Y0282717D01*
G75*
G02*
X0319094Y0282244I-000472J0000000D01*
G01*
G37*
D53*
X0201018Y0012008D03*
X0201018Y0027362D03*
X0206018Y0012008D03*
X0206018Y0027362D03*
X0211018Y0012008D03*
X0211018Y0027362D03*
X0216018Y0012008D03*
X0216018Y0027362D03*
X0221018Y0012008D03*
X0221018Y0027362D03*
G36*
G01*
X0123622Y0335846D02*
X0123622Y0338563D01*
G75*
G02*
X0124528Y0339469I0000906J0000000D01*
G01*
X0129803Y0339469D01*
G75*
G02*
X0130709Y0338563I0000000J-000906D01*
G01*
X0130709Y0335846D01*
G75*
G02*
X0129803Y0334941I-000906J0000000D01*
G01*
X0124528Y0334941D01*
G75*
G02*
X0123622Y0335846I0000000J0000906D01*
G01*
G37*
G36*
G01*
X0123622Y0324429D02*
X0123622Y0327146D01*
G75*
G02*
X0124528Y0328051I0000906J0000000D01*
G01*
X0129803Y0328051D01*
G75*
G02*
X0130709Y0327146I0000000J-000906D01*
G01*
X0130709Y0324429D01*
G75*
G02*
X0129803Y0323524I-000906J0000000D01*
G01*
X0124528Y0323524D01*
G75*
G02*
X0123622Y0324429I0000000J0000906D01*
G01*
G37*
G36*
G01*
X0201386Y0336240D02*
X0201386Y0338957D01*
G75*
G02*
X0202291Y0339862I0000906J0000000D01*
G01*
X0207567Y0339862D01*
G75*
G02*
X0208472Y0338957I0000000J-000906D01*
G01*
X0208472Y0336240D01*
G75*
G02*
X0207567Y0335335I-000906J0000000D01*
G01*
X0202291Y0335335D01*
G75*
G02*
X0201386Y0336240I0000000J0000906D01*
G01*
G37*
G36*
G01*
X0201386Y0324823D02*
X0201386Y0327539D01*
G75*
G02*
X0202291Y0328445I0000906J0000000D01*
G01*
X0207567Y0328445D01*
G75*
G02*
X0208472Y0327539I0000000J-000906D01*
G01*
X0208472Y0324823D01*
G75*
G02*
X0207567Y0323917I-000906J0000000D01*
G01*
X0202291Y0323917D01*
G75*
G02*
X0201386Y0324823I0000000J0000906D01*
G01*
G37*
X0049508Y0282776D02*
G01*
G75*
D224*
X0075099Y0268406D02*
D03*
X0075099Y0252264D02*
D03*
D225*
X0073875Y0237697D02*
D03*
X0056158Y0237697D02*
D03*
D226*
X0056988Y0266241D02*
D03*
X0056988Y0250493D02*
D03*
D227*
X0115026Y0264180D02*
D03*
X0118766Y0273432D02*
D03*
D227*
X0122506Y0264180D02*
D03*
D228*
X0128445Y0232881D02*
D03*
X0120965Y0232881D02*
D03*
X0120965Y0241345D02*
D03*
X0124705Y0241345D02*
D03*
D228*
X0128445Y0241345D02*
D03*
D229*
X0114444Y0242021D02*
D03*
X0114444Y0229029D02*
D03*
D230*
X0098327Y0241024D02*
D03*
X0098327Y0268386D02*
D03*
D231*
X0114732Y0258733D02*
D03*
X0114732Y0247315D02*
D03*
D232*
X0082185Y0234351D02*
D03*
X0082185Y0228130D02*
D03*
X0082185Y0244941D02*
D03*
X0082185Y0238721D02*
D03*
D233*
X0063430Y0278807D02*
D03*
X0059296Y0278807D02*
D03*
X0105304Y0228252D02*
D03*
X0101170Y0228252D02*
D03*
X0092323Y0228252D02*
D03*
X0096457Y0228252D02*
D03*
X0072674Y0227360D02*
D03*
X0076808Y0227360D02*
D03*
D234*
X0124952Y0246463D02*
D03*
X0121015Y0246463D02*
D03*
X0121917Y0251477D02*
D03*
X0121917Y0260138D02*
D03*
X0128314Y0251477D02*
D03*
X0128314Y0260138D02*
D03*
D235*
X0128445Y0264967D02*
D03*
X0128445Y0268511D02*
D03*
D236*
X0101563Y0232510D02*
D03*
X0105107Y0232510D02*
D03*
X0092520Y0232510D02*
D03*
X0096063Y0232510D02*
D03*
X0068051Y0227360D02*
D03*
X0064507Y0227360D02*
D03*
X0133661Y0297638D02*
%LPD*%
G01*
G36*
G01*
X0140807Y0235748D02*
X0142263Y0235748D01*
G75*
G02*
X0142795Y0235217I0000000J-000531D01*
G01*
X0142795Y0234154D01*
G75*
G02*
X0142263Y0233622I-000531J0000000D01*
G01*
X0140807Y0233622D01*
G75*
G02*
X0140275Y0234154I0000000J0000531D01*
G01*
X0140275Y0235217D01*
G75*
G02*
X0140807Y0235748I0000531J0000000D01*
G01*
G37*
G36*
G01*
X0140807Y0231732D02*
X0142263Y0231732D01*
G75*
G02*
X0142795Y0231201I0000000J-000531D01*
G01*
X0142795Y0230138D01*
G75*
G02*
X0142263Y0229607I-000531J0000000D01*
G01*
X0140807Y0229607D01*
G75*
G02*
X0140275Y0230138I0000000J0000531D01*
G01*
X0140275Y0231201D01*
G75*
G02*
X0140807Y0231732I0000531J0000000D01*
G01*
G37*
G36*
G01*
X0188189Y0253898D02*
X0187007Y0253898D01*
G75*
G02*
X0186417Y0254488I0000000J0000591D01*
G01*
X0186417Y0258524D01*
G75*
G02*
X0187007Y0259114I0000591J0000000D01*
G01*
X0188189Y0259114D01*
G75*
G02*
X0188779Y0258524I0000000J-000591D01*
G01*
X0188779Y0254488D01*
G75*
G02*
X0188189Y0253898I-000591J0000000D01*
G01*
G37*
G36*
G01*
X0191929Y0253898D02*
X0190748Y0253898D01*
G75*
G02*
X0190157Y0254488I0000000J0000591D01*
G01*
X0190157Y0258524D01*
G75*
G02*
X0190748Y0259114I0000591J0000000D01*
G01*
X0191929Y0259114D01*
G75*
G02*
X0192519Y0258524I0000000J-000591D01*
G01*
X0192519Y0254488D01*
G75*
G02*
X0191929Y0253898I-000591J0000000D01*
G01*
G37*
G36*
G01*
X0195669Y0253898D02*
X0194488Y0253898D01*
G75*
G02*
X0193897Y0254488I0000000J0000591D01*
G01*
X0193897Y0258524D01*
G75*
G02*
X0194488Y0259114I0000591J0000000D01*
G01*
X0195669Y0259114D01*
G75*
G02*
X0196259Y0258524I0000000J-000591D01*
G01*
X0196259Y0254488D01*
G75*
G02*
X0195669Y0253898I-000591J0000000D01*
G01*
G37*
G36*
G01*
X0195669Y0262855D02*
X0194488Y0262855D01*
G75*
G02*
X0193897Y0263445I0000000J0000591D01*
G01*
X0193897Y0267481D01*
G75*
G02*
X0194488Y0268071I0000591J0000000D01*
G01*
X0195669Y0268071D01*
G75*
G02*
X0196259Y0267481I0000000J-000591D01*
G01*
X0196259Y0263445D01*
G75*
G02*
X0195669Y0262855I-000591J0000000D01*
G01*
G37*
G36*
G01*
X0188189Y0262855D02*
X0187007Y0262855D01*
G75*
G02*
X0186417Y0263445I0000000J0000591D01*
G01*
X0186417Y0267481D01*
G75*
G02*
X0187007Y0268071I0000591J0000000D01*
G01*
X0188189Y0268071D01*
G75*
G02*
X0188779Y0267481I0000000J-000591D01*
G01*
X0188779Y0263445D01*
G75*
G02*
X0188189Y0262855I-000591J0000000D01*
G01*
G37*
G36*
G01*
X0181181Y0245551D02*
X0179842Y0245551D01*
G75*
G02*
X0179291Y0246103I0000000J0000551D01*
G01*
X0179291Y0247205D01*
G75*
G02*
X0179842Y0247756I0000551J0000000D01*
G01*
X0181181Y0247756D01*
G75*
G02*
X0181732Y0247205I0000000J-000551D01*
G01*
X0181732Y0246103D01*
G75*
G02*
X0181181Y0245551I-000551J0000000D01*
G01*
G37*
G36*
G01*
X0181181Y0249331D02*
X0179842Y0249331D01*
G75*
G02*
X0179291Y0249882I0000000J0000551D01*
G01*
X0179291Y0250984D01*
G75*
G02*
X0179842Y0251536I0000551J0000000D01*
G01*
X0181181Y0251536D01*
G75*
G02*
X0181732Y0250984I0000000J-000551D01*
G01*
X0181732Y0249882D01*
G75*
G02*
X0181181Y0249331I-000551J0000000D01*
G01*
G37*
G36*
G01*
X0168523Y0294862D02*
X0169704Y0294862D01*
G75*
G02*
X0170295Y0294272I0000000J-000591D01*
G01*
X0170295Y0287776D01*
G75*
G02*
X0169704Y0287185I-000591J0000000D01*
G01*
X0168523Y0287185D01*
G75*
G02*
X0167933Y0287776I0000000J0000591D01*
G01*
X0167933Y0294272D01*
G75*
G02*
X0168523Y0294862I0000591J0000000D01*
G01*
G37*
G36*
G01*
X0163523Y0294862D02*
X0164704Y0294862D01*
G75*
G02*
X0165295Y0294272I0000000J-000591D01*
G01*
X0165295Y0287776D01*
G75*
G02*
X0164704Y0287185I-000591J0000000D01*
G01*
X0163523Y0287185D01*
G75*
G02*
X0162933Y0287776I0000000J0000591D01*
G01*
X0162933Y0294272D01*
G75*
G02*
X0163523Y0294862I0000591J0000000D01*
G01*
G37*
G36*
G01*
X0158523Y0294862D02*
X0159704Y0294862D01*
G75*
G02*
X0160295Y0294272I0000000J-000591D01*
G01*
X0160295Y0287776D01*
G75*
G02*
X0159704Y0287185I-000591J0000000D01*
G01*
X0158523Y0287185D01*
G75*
G02*
X0157933Y0287776I0000000J0000591D01*
G01*
X0157933Y0294272D01*
G75*
G02*
X0158523Y0294862I0000591J0000000D01*
G01*
G37*
G36*
G01*
X0153523Y0294862D02*
X0154704Y0294862D01*
G75*
G02*
X0155295Y0294272I0000000J-000591D01*
G01*
X0155295Y0287776D01*
G75*
G02*
X0154704Y0287185I-000591J0000000D01*
G01*
X0153523Y0287185D01*
G75*
G02*
X0152933Y0287776I0000000J0000591D01*
G01*
X0152933Y0294272D01*
G75*
G02*
X0153523Y0294862I0000591J0000000D01*
G01*
G37*
G36*
G01*
X0153523Y0275374D02*
X0154704Y0275374D01*
G75*
G02*
X0155295Y0274784I0000000J-000591D01*
G01*
X0155295Y0268288D01*
G75*
G02*
X0154704Y0267697I-000591J0000000D01*
G01*
X0153523Y0267697D01*
G75*
G02*
X0152933Y0268288I0000000J0000591D01*
G01*
X0152933Y0274784D01*
G75*
G02*
X0153523Y0275374I0000591J0000000D01*
G01*
G37*
G36*
G01*
X0158523Y0275374D02*
X0159704Y0275374D01*
G75*
G02*
X0160295Y0274784I0000000J-000591D01*
G01*
X0160295Y0268288D01*
G75*
G02*
X0159704Y0267697I-000591J0000000D01*
G01*
X0158523Y0267697D01*
G75*
G02*
X0157933Y0268288I0000000J0000591D01*
G01*
X0157933Y0274784D01*
G75*
G02*
X0158523Y0275374I0000591J0000000D01*
G01*
G37*
G36*
G01*
X0163523Y0275374D02*
X0164704Y0275374D01*
G75*
G02*
X0165295Y0274784I0000000J-000591D01*
G01*
X0165295Y0268288D01*
G75*
G02*
X0164704Y0267697I-000591J0000000D01*
G01*
X0163523Y0267697D01*
G75*
G02*
X0162933Y0268288I0000000J0000591D01*
G01*
X0162933Y0274784D01*
G75*
G02*
X0163523Y0275374I0000591J0000000D01*
G01*
G37*
G36*
G01*
X0168523Y0275374D02*
X0169704Y0275374D01*
G75*
G02*
X0170295Y0274784I0000000J-000591D01*
G01*
X0170295Y0268288D01*
G75*
G02*
X0169704Y0267697I-000591J0000000D01*
G01*
X0168523Y0267697D01*
G75*
G02*
X0167933Y0268288I0000000J0000591D01*
G01*
X0167933Y0274784D01*
G75*
G02*
X0168523Y0275374I0000591J0000000D01*
G01*
G37*
G36*
G01*
X0185000Y0287520D02*
X0185000Y0288858D01*
G75*
G02*
X0185551Y0289410I0000551J0000000D01*
G01*
X0186653Y0289410D01*
G75*
G02*
X0187204Y0288858I0000000J-000551D01*
G01*
X0187204Y0287520D01*
G75*
G02*
X0186653Y0286969I-000551J0000000D01*
G01*
X0185551Y0286969D01*
G75*
G02*
X0185000Y0287520I0000000J0000551D01*
G01*
G37*
G36*
G01*
X0188779Y0287520D02*
X0188779Y0288858D01*
G75*
G02*
X0189330Y0289410I0000551J0000000D01*
G01*
X0190433Y0289410D01*
G75*
G02*
X0190984Y0288858I0000000J-000551D01*
G01*
X0190984Y0287520D01*
G75*
G02*
X0190433Y0286969I-000551J0000000D01*
G01*
X0189330Y0286969D01*
G75*
G02*
X0188779Y0287520I0000000J0000551D01*
G01*
G37*
D137*
X0181240Y0284725D03*
X0178681Y0284725D03*
X0176122Y0284725D03*
X0176122Y0277244D03*
X0178681Y0277244D03*
X0181240Y0277244D03*
G36*
G01*
X0173641Y0267717D02*
X0173641Y0269055D01*
G75*
G02*
X0174192Y0269607I0000551J0000000D01*
G01*
X0175295Y0269607D01*
G75*
G02*
X0175846Y0269055I0000000J-000551D01*
G01*
X0175846Y0267717D01*
G75*
G02*
X0175295Y0267166I-000551J0000000D01*
G01*
X0174192Y0267166D01*
G75*
G02*
X0173641Y0267717I0000000J0000551D01*
G01*
G37*
G36*
G01*
X0177421Y0267717D02*
X0177421Y0269055D01*
G75*
G02*
X0177972Y0269607I0000551J0000000D01*
G01*
X0179074Y0269607D01*
G75*
G02*
X0179626Y0269055I0000000J-000551D01*
G01*
X0179626Y0267717D01*
G75*
G02*
X0179074Y0267166I-000551J0000000D01*
G01*
X0177972Y0267166D01*
G75*
G02*
X0177421Y0267717I0000000J0000551D01*
G01*
G37*
G36*
G01*
X0179783Y0243819D02*
X0181240Y0243819D01*
G75*
G02*
X0181771Y0243288I0000000J-000531D01*
G01*
X0181771Y0242225D01*
G75*
G02*
X0181240Y0241693I-000531J0000000D01*
G01*
X0179783Y0241693D01*
G75*
G02*
X0179252Y0242225I0000000J0000531D01*
G01*
X0179252Y0243288D01*
G75*
G02*
X0179783Y0243819I0000531J0000000D01*
G01*
G37*
G36*
G01*
X0179783Y0239803D02*
X0181240Y0239803D01*
G75*
G02*
X0181771Y0239272I0000000J-000531D01*
G01*
X0181771Y0238209D01*
G75*
G02*
X0181240Y0237677I-000531J0000000D01*
G01*
X0179783Y0237677D01*
G75*
G02*
X0179252Y0238209I0000000J0000531D01*
G01*
X0179252Y0239272D01*
G75*
G02*
X0179783Y0239803I0000531J0000000D01*
G01*
G37*
G36*
G01*
X0170669Y0264725D02*
X0170669Y0263386D01*
G75*
G02*
X0170118Y0262835I-000551J0000000D01*
G01*
X0169015Y0262835D01*
G75*
G02*
X0168464Y0263386I0000000J0000551D01*
G01*
X0168464Y0264725D01*
G75*
G02*
X0169015Y0265276I0000551J0000000D01*
G01*
X0170118Y0265276D01*
G75*
G02*
X0170669Y0264725I0000000J-000551D01*
G01*
G37*
G36*
G01*
X0166889Y0264725D02*
X0166889Y0263386D01*
G75*
G02*
X0166338Y0262835I-000551J0000000D01*
G01*
X0165236Y0262835D01*
G75*
G02*
X0164685Y0263386I0000000J0000551D01*
G01*
X0164685Y0264725D01*
G75*
G02*
X0165236Y0265276I0000551J0000000D01*
G01*
X0166338Y0265276D01*
G75*
G02*
X0166889Y0264725I0000000J-000551D01*
G01*
G37*
G36*
G01*
X0173641Y0271654D02*
X0173641Y0272992D01*
G75*
G02*
X0174192Y0273544I0000551J0000000D01*
G01*
X0175295Y0273544D01*
G75*
G02*
X0175846Y0272992I0000000J-000551D01*
G01*
X0175846Y0271654D01*
G75*
G02*
X0175295Y0271103I-000551J0000000D01*
G01*
X0174192Y0271103D01*
G75*
G02*
X0173641Y0271654I0000000J0000551D01*
G01*
G37*
G36*
G01*
X0177421Y0271654D02*
X0177421Y0272992D01*
G75*
G02*
X0177972Y0273544I0000551J0000000D01*
G01*
X0179074Y0273544D01*
G75*
G02*
X0179626Y0272992I0000000J-000551D01*
G01*
X0179626Y0271654D01*
G75*
G02*
X0179074Y0271103I-000551J0000000D01*
G01*
X0177972Y0271103D01*
G75*
G02*
X0177421Y0271654I0000000J0000551D01*
G01*
G37*
G36*
G01*
X0189055Y0237677D02*
X0187716Y0237677D01*
G75*
G02*
X0187165Y0238229I0000000J0000551D01*
G01*
X0187165Y0239331D01*
G75*
G02*
X0187716Y0239882I0000551J0000000D01*
G01*
X0189055Y0239882D01*
G75*
G02*
X0189606Y0239331I0000000J-000551D01*
G01*
X0189606Y0238229D01*
G75*
G02*
X0189055Y0237677I-000551J0000000D01*
G01*
G37*
G36*
G01*
X0189055Y0241457D02*
X0187716Y0241457D01*
G75*
G02*
X0187165Y0242008I0000000J0000551D01*
G01*
X0187165Y0243110D01*
G75*
G02*
X0187716Y0243662I0000551J0000000D01*
G01*
X0189055Y0243662D01*
G75*
G02*
X0189606Y0243110I0000000J-000551D01*
G01*
X0189606Y0242008D01*
G75*
G02*
X0189055Y0241457I-000551J0000000D01*
G01*
G37*
G36*
G01*
X0179448Y0234114D02*
X0179448Y0235571D01*
G75*
G02*
X0179980Y0236103I0000531J0000000D01*
G01*
X0181043Y0236103D01*
G75*
G02*
X0181574Y0235571I0000000J-000531D01*
G01*
X0181574Y0234114D01*
G75*
G02*
X0181043Y0233583I-000531J0000000D01*
G01*
X0179980Y0233583D01*
G75*
G02*
X0179448Y0234114I0000000J0000531D01*
G01*
G37*
G36*
G01*
X0183464Y0234114D02*
X0183464Y0235571D01*
G75*
G02*
X0183996Y0236103I0000531J0000000D01*
G01*
X0185059Y0236103D01*
G75*
G02*
X0185590Y0235571I0000000J-000531D01*
G01*
X0185590Y0234114D01*
G75*
G02*
X0185059Y0233583I-000531J0000000D01*
G01*
X0183996Y0233583D01*
G75*
G02*
X0183464Y0234114I0000000J0000531D01*
G01*
G37*
G36*
G01*
X0149960Y0264646D02*
X0149960Y0263307D01*
G75*
G02*
X0149409Y0262756I-000551J0000000D01*
G01*
X0148307Y0262756D01*
G75*
G02*
X0147755Y0263307I0000000J0000551D01*
G01*
X0147755Y0264646D01*
G75*
G02*
X0148307Y0265197I0000551J0000000D01*
G01*
X0149409Y0265197D01*
G75*
G02*
X0149960Y0264646I0000000J-000551D01*
G01*
G37*
G36*
G01*
X0146181Y0264646D02*
X0146181Y0263307D01*
G75*
G02*
X0145630Y0262756I-000551J0000000D01*
G01*
X0144527Y0262756D01*
G75*
G02*
X0143976Y0263307I0000000J0000551D01*
G01*
X0143976Y0264646D01*
G75*
G02*
X0144527Y0265197I0000551J0000000D01*
G01*
X0145630Y0265197D01*
G75*
G02*
X0146181Y0264646I0000000J-000551D01*
G01*
G37*
G36*
G01*
X0142165Y0264646D02*
X0142165Y0263307D01*
G75*
G02*
X0141614Y0262756I-000551J0000000D01*
G01*
X0140511Y0262756D01*
G75*
G02*
X0139960Y0263307I0000000J0000551D01*
G01*
X0139960Y0264646D01*
G75*
G02*
X0140511Y0265197I0000551J0000000D01*
G01*
X0141614Y0265197D01*
G75*
G02*
X0142165Y0264646I0000000J-000551D01*
G01*
G37*
G36*
G01*
X0138385Y0264646D02*
X0138385Y0263307D01*
G75*
G02*
X0137834Y0262756I-000551J0000000D01*
G01*
X0136732Y0262756D01*
G75*
G02*
X0136181Y0263307I0000000J0000551D01*
G01*
X0136181Y0264646D01*
G75*
G02*
X0136732Y0265197I0000551J0000000D01*
G01*
X0137834Y0265197D01*
G75*
G02*
X0138385Y0264646I0000000J-000551D01*
G01*
G37*
G36*
G01*
X0146220Y0260807D02*
X0146220Y0259351D01*
G75*
G02*
X0145689Y0258819I-000531J0000000D01*
G01*
X0144626Y0258819D01*
G75*
G02*
X0144094Y0259351I0000000J0000531D01*
G01*
X0144094Y0260807D01*
G75*
G02*
X0144626Y0261339I0000531J0000000D01*
G01*
X0145689Y0261339D01*
G75*
G02*
X0146220Y0260807I0000000J-000531D01*
G01*
G37*
G36*
G01*
X0142204Y0260807D02*
X0142204Y0259351D01*
G75*
G02*
X0141673Y0258819I-000531J0000000D01*
G01*
X0140610Y0258819D01*
G75*
G02*
X0140078Y0259351I0000000J0000531D01*
G01*
X0140078Y0260807D01*
G75*
G02*
X0140610Y0261339I0000531J0000000D01*
G01*
X0141673Y0261339D01*
G75*
G02*
X0142204Y0260807I0000000J-000531D01*
G01*
G37*
G36*
G01*
X0144409Y0245788D02*
X0145748Y0245788D01*
G75*
G02*
X0146299Y0245236I0000000J-000551D01*
G01*
X0146299Y0244134D01*
G75*
G02*
X0145748Y0243583I-000551J0000000D01*
G01*
X0144409Y0243583D01*
G75*
G02*
X0143858Y0244134I0000000J0000551D01*
G01*
X0143858Y0245236D01*
G75*
G02*
X0144409Y0245788I0000551J0000000D01*
G01*
G37*
G36*
G01*
X0144409Y0242008D02*
X0145748Y0242008D01*
G75*
G02*
X0146299Y0241457I0000000J-000551D01*
G01*
X0146299Y0240355D01*
G75*
G02*
X0145748Y0239803I-000551J0000000D01*
G01*
X0144409Y0239803D01*
G75*
G02*
X0143858Y0240355I0000000J0000551D01*
G01*
X0143858Y0241457D01*
G75*
G02*
X0144409Y0242008I0000551J0000000D01*
G01*
G37*
G36*
G01*
X0176968Y0235433D02*
X0176968Y0234646D01*
G75*
G02*
X0176574Y0234252I-000394J0000000D01*
G01*
X0171555Y0234252D01*
G75*
G02*
X0171161Y0234646I0000000J0000394D01*
G01*
X0171161Y0235433D01*
G75*
G02*
X0171555Y0235827I0000394J0000000D01*
G01*
X0176574Y0235827D01*
G75*
G02*
X0176968Y0235433I0000000J-000394D01*
G01*
G37*
G36*
G01*
X0176968Y0237992D02*
X0176968Y0237205D01*
G75*
G02*
X0176574Y0236811I-000394J0000000D01*
G01*
X0171555Y0236811D01*
G75*
G02*
X0171161Y0237205I0000000J0000394D01*
G01*
X0171161Y0237992D01*
G75*
G02*
X0171555Y0238386I0000394J0000000D01*
G01*
X0176574Y0238386D01*
G75*
G02*
X0176968Y0237992I0000000J-000394D01*
G01*
G37*
G36*
G01*
X0176968Y0240551D02*
X0176968Y0239764D01*
G75*
G02*
X0176574Y0239370I-000394J0000000D01*
G01*
X0171555Y0239370D01*
G75*
G02*
X0171161Y0239764I0000000J0000394D01*
G01*
X0171161Y0240551D01*
G75*
G02*
X0171555Y0240945I0000394J0000000D01*
G01*
X0176574Y0240945D01*
G75*
G02*
X0176968Y0240551I0000000J-000394D01*
G01*
G37*
G36*
G01*
X0176968Y0243110D02*
X0176968Y0242323D01*
G75*
G02*
X0176574Y0241929I-000394J0000000D01*
G01*
X0171555Y0241929D01*
G75*
G02*
X0171161Y0242323I0000000J0000394D01*
G01*
X0171161Y0243110D01*
G75*
G02*
X0171555Y0243504I0000394J0000000D01*
G01*
X0176574Y0243504D01*
G75*
G02*
X0176968Y0243110I0000000J-000394D01*
G01*
G37*
G36*
G01*
X0176968Y0245669D02*
X0176968Y0244882D01*
G75*
G02*
X0176574Y0244488I-000394J0000000D01*
G01*
X0171555Y0244488D01*
G75*
G02*
X0171161Y0244882I0000000J0000394D01*
G01*
X0171161Y0245669D01*
G75*
G02*
X0171555Y0246063I0000394J0000000D01*
G01*
X0176574Y0246063D01*
G75*
G02*
X0176968Y0245669I0000000J-000394D01*
G01*
G37*
G36*
G01*
X0176968Y0248229D02*
X0176968Y0247441D01*
G75*
G02*
X0176574Y0247047I-000394J0000000D01*
G01*
X0171555Y0247047D01*
G75*
G02*
X0171161Y0247441I0000000J0000394D01*
G01*
X0171161Y0248229D01*
G75*
G02*
X0171555Y0248622I0000394J0000000D01*
G01*
X0176574Y0248622D01*
G75*
G02*
X0176968Y0248229I0000000J-000394D01*
G01*
G37*
G36*
G01*
X0176968Y0250788D02*
X0176968Y0250000D01*
G75*
G02*
X0176574Y0249607I-000394J0000000D01*
G01*
X0171555Y0249607D01*
G75*
G02*
X0171161Y0250000I0000000J0000394D01*
G01*
X0171161Y0250788D01*
G75*
G02*
X0171555Y0251181I0000394J0000000D01*
G01*
X0176574Y0251181D01*
G75*
G02*
X0176968Y0250788I0000000J-000394D01*
G01*
G37*
G36*
G01*
X0154429Y0250788D02*
X0154429Y0250000D01*
G75*
G02*
X0154035Y0249607I-000394J0000000D01*
G01*
X0149015Y0249607D01*
G75*
G02*
X0148622Y0250000I0000000J0000394D01*
G01*
X0148622Y0250788D01*
G75*
G02*
X0149015Y0251181I0000394J0000000D01*
G01*
X0154035Y0251181D01*
G75*
G02*
X0154429Y0250788I0000000J-000394D01*
G01*
G37*
G36*
G01*
X0154429Y0248229D02*
X0154429Y0247441D01*
G75*
G02*
X0154035Y0247047I-000394J0000000D01*
G01*
X0149015Y0247047D01*
G75*
G02*
X0148622Y0247441I0000000J0000394D01*
G01*
X0148622Y0248229D01*
G75*
G02*
X0149015Y0248622I0000394J0000000D01*
G01*
X0154035Y0248622D01*
G75*
G02*
X0154429Y0248229I0000000J-000394D01*
G01*
G37*
G36*
G01*
X0154429Y0245669D02*
X0154429Y0244882D01*
G75*
G02*
X0154035Y0244488I-000394J0000000D01*
G01*
X0149015Y0244488D01*
G75*
G02*
X0148622Y0244882I0000000J0000394D01*
G01*
X0148622Y0245669D01*
G75*
G02*
X0149015Y0246063I0000394J0000000D01*
G01*
X0154035Y0246063D01*
G75*
G02*
X0154429Y0245669I0000000J-000394D01*
G01*
G37*
G36*
G01*
X0154429Y0243110D02*
X0154429Y0242323D01*
G75*
G02*
X0154035Y0241929I-000394J0000000D01*
G01*
X0149015Y0241929D01*
G75*
G02*
X0148622Y0242323I0000000J0000394D01*
G01*
X0148622Y0243110D01*
G75*
G02*
X0149015Y0243504I0000394J0000000D01*
G01*
X0154035Y0243504D01*
G75*
G02*
X0154429Y0243110I0000000J-000394D01*
G01*
G37*
G36*
G01*
X0154429Y0240551D02*
X0154429Y0239764D01*
G75*
G02*
X0154035Y0239370I-000394J0000000D01*
G01*
X0149015Y0239370D01*
G75*
G02*
X0148622Y0239764I0000000J0000394D01*
G01*
X0148622Y0240551D01*
G75*
G02*
X0149015Y0240945I0000394J0000000D01*
G01*
X0154035Y0240945D01*
G75*
G02*
X0154429Y0240551I0000000J-000394D01*
G01*
G37*
G36*
G01*
X0154429Y0237992D02*
X0154429Y0237205D01*
G75*
G02*
X0154035Y0236811I-000394J0000000D01*
G01*
X0149015Y0236811D01*
G75*
G02*
X0148622Y0237205I0000000J0000394D01*
G01*
X0148622Y0237992D01*
G75*
G02*
X0149015Y0238386I0000394J0000000D01*
G01*
X0154035Y0238386D01*
G75*
G02*
X0154429Y0237992I0000000J-000394D01*
G01*
G37*
G36*
G01*
X0154429Y0235433D02*
X0154429Y0234646D01*
G75*
G02*
X0154035Y0234252I-000394J0000000D01*
G01*
X0149015Y0234252D01*
G75*
G02*
X0148622Y0234646I0000000J0000394D01*
G01*
X0148622Y0235433D01*
G75*
G02*
X0149015Y0235827I0000394J0000000D01*
G01*
X0154035Y0235827D01*
G75*
G02*
X0154429Y0235433I0000000J-000394D01*
G01*
G37*
G36*
G01*
X0196087Y0241831D02*
X0194069Y0241831D01*
G75*
G02*
X0193208Y0242692I0000000J0000861D01*
G01*
X0193208Y0244415D01*
G75*
G02*
X0194069Y0245276I0000861J0000000D01*
G01*
X0196087Y0245276D01*
G75*
G02*
X0196948Y0244415I0000000J-000861D01*
G01*
X0196948Y0242692D01*
G75*
G02*
X0196087Y0241831I-000861J0000000D01*
G01*
G37*
G36*
G01*
X0196087Y0248032D02*
X0194069Y0248032D01*
G75*
G02*
X0193208Y0248893I0000000J0000861D01*
G01*
X0193208Y0250615D01*
G75*
G02*
X0194069Y0251477I0000861J0000000D01*
G01*
X0196087Y0251477D01*
G75*
G02*
X0196948Y0250615I0000000J-000861D01*
G01*
X0196948Y0248893D01*
G75*
G02*
X0196087Y0248032I-000861J0000000D01*
G01*
G37*
G36*
G01*
X0144881Y0294931D02*
X0148425Y0294931D01*
G75*
G02*
X0149409Y0293947I0000000J-000984D01*
G01*
X0149409Y0291880D01*
G75*
G02*
X0148425Y0290896I-000984J0000000D01*
G01*
X0144881Y0290896D01*
G75*
G02*
X0143897Y0291880I0000000J0000984D01*
G01*
X0143897Y0293947D01*
G75*
G02*
X0144881Y0294931I0000984J0000000D01*
G01*
G37*
G36*
G01*
X0144881Y0287746D02*
X0148425Y0287746D01*
G75*
G02*
X0149409Y0286762I0000000J-000984D01*
G01*
X0149409Y0284695D01*
G75*
G02*
X0148425Y0283711I-000984J0000000D01*
G01*
X0144881Y0283711D01*
G75*
G02*
X0143897Y0284695I0000000J0000984D01*
G01*
X0143897Y0286762D01*
G75*
G02*
X0144881Y0287746I0000984J0000000D01*
G01*
G37*
G36*
G01*
X0140039Y0251831D02*
X0140039Y0253288D01*
G75*
G02*
X0140570Y0253819I0000531J0000000D01*
G01*
X0141633Y0253819D01*
G75*
G02*
X0142165Y0253288I0000000J-000531D01*
G01*
X0142165Y0251831D01*
G75*
G02*
X0141633Y0251299I-000531J0000000D01*
G01*
X0140570Y0251299D01*
G75*
G02*
X0140039Y0251831I0000000J0000531D01*
G01*
G37*
G36*
G01*
X0144055Y0251831D02*
X0144055Y0253288D01*
G75*
G02*
X0144586Y0253819I0000531J0000000D01*
G01*
X0145649Y0253819D01*
G75*
G02*
X0146181Y0253288I0000000J-000531D01*
G01*
X0146181Y0251831D01*
G75*
G02*
X0145649Y0251299I-000531J0000000D01*
G01*
X0144586Y0251299D01*
G75*
G02*
X0144055Y0251831I0000000J0000531D01*
G01*
G37*
G36*
G01*
X0189114Y0245512D02*
X0187657Y0245512D01*
G75*
G02*
X0187126Y0246044I0000000J0000531D01*
G01*
X0187126Y0247107D01*
G75*
G02*
X0187657Y0247638I0000531J0000000D01*
G01*
X0189114Y0247638D01*
G75*
G02*
X0189645Y0247107I0000000J-000531D01*
G01*
X0189645Y0246044D01*
G75*
G02*
X0189114Y0245512I-000531J0000000D01*
G01*
G37*
G36*
G01*
X0189114Y0249528D02*
X0187657Y0249528D01*
G75*
G02*
X0187126Y0250059I0000000J0000531D01*
G01*
X0187126Y0251122D01*
G75*
G02*
X0187657Y0251654I0000531J0000000D01*
G01*
X0189114Y0251654D01*
G75*
G02*
X0189645Y0251122I0000000J-000531D01*
G01*
X0189645Y0250059D01*
G75*
G02*
X0189114Y0249528I-000531J0000000D01*
G01*
G37*
G36*
G01*
X0175354Y0256437D02*
X0175354Y0254981D01*
G75*
G02*
X0174822Y0254449I-000531J0000000D01*
G01*
X0173759Y0254449D01*
G75*
G02*
X0173228Y0254981I0000000J0000531D01*
G01*
X0173228Y0256437D01*
G75*
G02*
X0173759Y0256969I0000531J0000000D01*
G01*
X0174822Y0256969D01*
G75*
G02*
X0175354Y0256437I0000000J-000531D01*
G01*
G37*
G36*
G01*
X0171338Y0256437D02*
X0171338Y0254981D01*
G75*
G02*
X0170807Y0254449I-000531J0000000D01*
G01*
X0169744Y0254449D01*
G75*
G02*
X0169212Y0254981I0000000J0000531D01*
G01*
X0169212Y0256437D01*
G75*
G02*
X0169744Y0256969I0000531J0000000D01*
G01*
X0170807Y0256969D01*
G75*
G02*
X0171338Y0256437I0000000J-000531D01*
G01*
G37*
G36*
G01*
X0181614Y0265640D02*
X0182952Y0265640D01*
G75*
G02*
X0183504Y0265089I0000000J-000551D01*
G01*
X0183504Y0263986D01*
G75*
G02*
X0182952Y0263435I-000551J0000000D01*
G01*
X0181614Y0263435D01*
G75*
G02*
X0181063Y0263986I0000000J0000551D01*
G01*
X0181063Y0265089D01*
G75*
G02*
X0181614Y0265640I0000551J0000000D01*
G01*
G37*
G36*
G01*
X0181614Y0261860D02*
X0182952Y0261860D01*
G75*
G02*
X0183504Y0261309I0000000J-000551D01*
G01*
X0183504Y0260207D01*
G75*
G02*
X0182952Y0259656I-000551J0000000D01*
G01*
X0181614Y0259656D01*
G75*
G02*
X0181063Y0260207I0000000J0000551D01*
G01*
X0181063Y0261309D01*
G75*
G02*
X0181614Y0261860I0000551J0000000D01*
G01*
G37*
G36*
G01*
X0158425Y0229666D02*
X0158425Y0228209D01*
G75*
G02*
X0157893Y0227677I-000531J0000000D01*
G01*
X0156830Y0227677D01*
G75*
G02*
X0156299Y0228209I0000000J0000531D01*
G01*
X0156299Y0229666D01*
G75*
G02*
X0156830Y0230197I0000531J0000000D01*
G01*
X0157893Y0230197D01*
G75*
G02*
X0158425Y0229666I0000000J-000531D01*
G01*
G37*
G36*
G01*
X0154409Y0229666D02*
X0154409Y0228209D01*
G75*
G02*
X0153878Y0227677I-000531J0000000D01*
G01*
X0152815Y0227677D01*
G75*
G02*
X0152283Y0228209I0000000J0000531D01*
G01*
X0152283Y0229666D01*
G75*
G02*
X0152815Y0230197I0000531J0000000D01*
G01*
X0153878Y0230197D01*
G75*
G02*
X0154409Y0229666I0000000J-000531D01*
G01*
G37*
G36*
G01*
X0137933Y0228681D02*
X0136476Y0228681D01*
G75*
G02*
X0135944Y0229213I0000000J0000531D01*
G01*
X0135944Y0230276D01*
G75*
G02*
X0136476Y0230807I0000531J0000000D01*
G01*
X0137933Y0230807D01*
G75*
G02*
X0138464Y0230276I0000000J-000531D01*
G01*
X0138464Y0229213D01*
G75*
G02*
X0137933Y0228681I-000531J0000000D01*
G01*
G37*
G36*
G01*
X0137933Y0232697D02*
X0136476Y0232697D01*
G75*
G02*
X0135944Y0233229I0000000J0000531D01*
G01*
X0135944Y0234292D01*
G75*
G02*
X0136476Y0234823I0000531J0000000D01*
G01*
X0137933Y0234823D01*
G75*
G02*
X0138464Y0234292I0000000J-000531D01*
G01*
X0138464Y0233229D01*
G75*
G02*
X0137933Y0232697I-000531J0000000D01*
G01*
G37*
G36*
G01*
X0179645Y0264843D02*
X0179645Y0263386D01*
G75*
G02*
X0179114Y0262855I-000531J0000000D01*
G01*
X0178051Y0262855D01*
G75*
G02*
X0177519Y0263386I0000000J0000531D01*
G01*
X0177519Y0264843D01*
G75*
G02*
X0178051Y0265374I0000531J0000000D01*
G01*
X0179114Y0265374D01*
G75*
G02*
X0179645Y0264843I0000000J-000531D01*
G01*
G37*
G36*
G01*
X0175630Y0264843D02*
X0175630Y0263386D01*
G75*
G02*
X0175098Y0262855I-000531J0000000D01*
G01*
X0174035Y0262855D01*
G75*
G02*
X0173504Y0263386I0000000J0000531D01*
G01*
X0173504Y0264843D01*
G75*
G02*
X0174035Y0265374I0000531J0000000D01*
G01*
X0175098Y0265374D01*
G75*
G02*
X0175630Y0264843I0000000J-000531D01*
G01*
G37*
G36*
G01*
X0183051Y0267284D02*
X0181712Y0267284D01*
G75*
G02*
X0181161Y0267835I0000000J0000551D01*
G01*
X0181161Y0268937D01*
G75*
G02*
X0181712Y0269488I0000551J0000000D01*
G01*
X0183051Y0269488D01*
G75*
G02*
X0183602Y0268937I0000000J-000551D01*
G01*
X0183602Y0267835D01*
G75*
G02*
X0183051Y0267284I-000551J0000000D01*
G01*
G37*
G36*
G01*
X0183051Y0271063D02*
X0181712Y0271063D01*
G75*
G02*
X0181161Y0271614I0000000J0000551D01*
G01*
X0181161Y0272717D01*
G75*
G02*
X0181712Y0273268I0000551J0000000D01*
G01*
X0183051Y0273268D01*
G75*
G02*
X0183602Y0272717I0000000J-000551D01*
G01*
X0183602Y0271614D01*
G75*
G02*
X0183051Y0271063I-000551J0000000D01*
G01*
G37*
G36*
G01*
X0140551Y0283711D02*
X0137007Y0283711D01*
G75*
G02*
X0136023Y0284695I0000000J0000984D01*
G01*
X0136023Y0286762D01*
G75*
G02*
X0137007Y0287746I0000984J0000000D01*
G01*
X0140551Y0287746D01*
G75*
G02*
X0141535Y0286762I0000000J-000984D01*
G01*
X0141535Y0284695D01*
G75*
G02*
X0140551Y0283711I-000984J0000000D01*
G01*
G37*
G36*
G01*
X0140551Y0290896D02*
X0137007Y0290896D01*
G75*
G02*
X0136023Y0291880I0000000J0000984D01*
G01*
X0136023Y0293947D01*
G75*
G02*
X0137007Y0294931I0000984J0000000D01*
G01*
X0140551Y0294931D01*
G75*
G02*
X0141535Y0293947I0000000J-000984D01*
G01*
X0141535Y0291880D01*
G75*
G02*
X0140551Y0290896I-000984J0000000D01*
G01*
G37*
G36*
G01*
X0187519Y0294232D02*
X0187519Y0292776D01*
G75*
G02*
X0186988Y0292244I-000531J0000000D01*
G01*
X0185925Y0292244D01*
G75*
G02*
X0185393Y0292776I0000000J0000531D01*
G01*
X0185393Y0294232D01*
G75*
G02*
X0185925Y0294764I0000531J0000000D01*
G01*
X0186988Y0294764D01*
G75*
G02*
X0187519Y0294232I0000000J-000531D01*
G01*
G37*
G36*
G01*
X0183504Y0294232D02*
X0183504Y0292776D01*
G75*
G02*
X0182972Y0292244I-000531J0000000D01*
G01*
X0181909Y0292244D01*
G75*
G02*
X0181378Y0292776I0000000J0000531D01*
G01*
X0181378Y0294232D01*
G75*
G02*
X0181909Y0294764I0000531J0000000D01*
G01*
X0182972Y0294764D01*
G75*
G02*
X0183504Y0294232I0000000J-000531D01*
G01*
G37*
G36*
G01*
X0146200Y0231811D02*
X0144744Y0231811D01*
G75*
G02*
X0144212Y0232343I0000000J0000531D01*
G01*
X0144212Y0233406D01*
G75*
G02*
X0144744Y0233937I0000531J0000000D01*
G01*
X0146200Y0233937D01*
G75*
G02*
X0146732Y0233406I0000000J-000531D01*
G01*
X0146732Y0232343D01*
G75*
G02*
X0146200Y0231811I-000531J0000000D01*
G01*
G37*
G36*
G01*
X0146200Y0235827D02*
X0144744Y0235827D01*
G75*
G02*
X0144212Y0236358I0000000J0000531D01*
G01*
X0144212Y0237421D01*
G75*
G02*
X0144744Y0237953I0000531J0000000D01*
G01*
X0146200Y0237953D01*
G75*
G02*
X0146732Y0237421I0000000J-000531D01*
G01*
X0146732Y0236358D01*
G75*
G02*
X0146200Y0235827I-000531J0000000D01*
G01*
G37*
G36*
G01*
X0149527Y0255394D02*
X0148189Y0255394D01*
G75*
G02*
X0147637Y0255945I0000000J0000551D01*
G01*
X0147637Y0257047D01*
G75*
G02*
X0148189Y0257599I0000551J0000000D01*
G01*
X0149527Y0257599D01*
G75*
G02*
X0150078Y0257047I0000000J-000551D01*
G01*
X0150078Y0255945D01*
G75*
G02*
X0149527Y0255394I-000551J0000000D01*
G01*
G37*
G36*
G01*
X0149527Y0259173D02*
X0148189Y0259173D01*
G75*
G02*
X0147637Y0259725I0000000J0000551D01*
G01*
X0147637Y0260827D01*
G75*
G02*
X0148189Y0261378I0000551J0000000D01*
G01*
X0149527Y0261378D01*
G75*
G02*
X0150078Y0260827I0000000J-000551D01*
G01*
X0150078Y0259725D01*
G75*
G02*
X0149527Y0259173I-000551J0000000D01*
G01*
G37*
G36*
G01*
X0136476Y0261339D02*
X0137933Y0261339D01*
G75*
G02*
X0138464Y0260807I0000000J-000531D01*
G01*
X0138464Y0259744D01*
G75*
G02*
X0137933Y0259213I-000531J0000000D01*
G01*
X0136476Y0259213D01*
G75*
G02*
X0135944Y0259744I0000000J0000531D01*
G01*
X0135944Y0260807D01*
G75*
G02*
X0136476Y0261339I0000531J0000000D01*
G01*
G37*
G36*
G01*
X0136476Y0257323D02*
X0137933Y0257323D01*
G75*
G02*
X0138464Y0256792I0000000J-000531D01*
G01*
X0138464Y0255729D01*
G75*
G02*
X0137933Y0255197I-000531J0000000D01*
G01*
X0136476Y0255197D01*
G75*
G02*
X0135944Y0255729I0000000J0000531D01*
G01*
X0135944Y0256792D01*
G75*
G02*
X0136476Y0257323I0000531J0000000D01*
G01*
G37*
D130*
X0153582Y0262874D03*
X0153582Y0260315D03*
X0153582Y0257756D03*
X0161063Y0257756D03*
X0161063Y0260315D03*
X0161063Y0262874D03*
G36*
G01*
X0140413Y0245748D02*
X0141870Y0245748D01*
G75*
G02*
X0142401Y0245217I0000000J-000531D01*
G01*
X0142401Y0244154D01*
G75*
G02*
X0141870Y0243622I-000531J0000000D01*
G01*
X0140413Y0243622D01*
G75*
G02*
X0139881Y0244154I0000000J0000531D01*
G01*
X0139881Y0245217D01*
G75*
G02*
X0140413Y0245748I0000531J0000000D01*
G01*
G37*
G36*
G01*
X0140413Y0241732D02*
X0141870Y0241732D01*
G75*
G02*
X0142401Y0241201I0000000J-000531D01*
G01*
X0142401Y0240138D01*
G75*
G02*
X0141870Y0239607I-000531J0000000D01*
G01*
X0140413Y0239607D01*
G75*
G02*
X0139881Y0240138I0000000J0000531D01*
G01*
X0139881Y0241201D01*
G75*
G02*
X0140413Y0241732I0000531J0000000D01*
G01*
G37*
G36*
G01*
X0146141Y0249351D02*
X0146141Y0247894D01*
G75*
G02*
X0145610Y0247362I-000531J0000000D01*
G01*
X0144547Y0247362D01*
G75*
G02*
X0144015Y0247894I0000000J0000531D01*
G01*
X0144015Y0249351D01*
G75*
G02*
X0144547Y0249882I0000531J0000000D01*
G01*
X0145610Y0249882D01*
G75*
G02*
X0146141Y0249351I0000000J-000531D01*
G01*
G37*
G36*
G01*
X0142126Y0249351D02*
X0142126Y0247894D01*
G75*
G02*
X0141594Y0247362I-000531J0000000D01*
G01*
X0140531Y0247362D01*
G75*
G02*
X0140000Y0247894I0000000J0000531D01*
G01*
X0140000Y0249351D01*
G75*
G02*
X0140531Y0249882I0000531J0000000D01*
G01*
X0141594Y0249882D01*
G75*
G02*
X0142126Y0249351I0000000J-000531D01*
G01*
G37*
G36*
G01*
X0136535Y0242343D02*
X0137874Y0242343D01*
G75*
G02*
X0138425Y0241792I0000000J-000551D01*
G01*
X0138425Y0240689D01*
G75*
G02*
X0137874Y0240138I-000551J0000000D01*
G01*
X0136535Y0240138D01*
G75*
G02*
X0135984Y0240689I0000000J0000551D01*
G01*
X0135984Y0241792D01*
G75*
G02*
X0136535Y0242343I0000551J0000000D01*
G01*
G37*
G36*
G01*
X0136535Y0238563D02*
X0137874Y0238563D01*
G75*
G02*
X0138425Y0238012I0000000J-000551D01*
G01*
X0138425Y0236910D01*
G75*
G02*
X0137874Y0236358I-000551J0000000D01*
G01*
X0136535Y0236358D01*
G75*
G02*
X0135984Y0236910I0000000J0000551D01*
G01*
X0135984Y0238012D01*
G75*
G02*
X0136535Y0238563I0000551J0000000D01*
G01*
G37*
G36*
G01*
X0145275Y0281447D02*
X0146456Y0281447D01*
G75*
G02*
X0147047Y0280857I0000000J-000591D01*
G01*
X0147047Y0276821D01*
G75*
G02*
X0146456Y0276231I-000591J0000000D01*
G01*
X0145275Y0276231D01*
G75*
G02*
X0144685Y0276821I0000000J0000591D01*
G01*
X0144685Y0280857D01*
G75*
G02*
X0145275Y0281447I0000591J0000000D01*
G01*
G37*
G36*
G01*
X0141535Y0281447D02*
X0142716Y0281447D01*
G75*
G02*
X0143307Y0280857I0000000J-000591D01*
G01*
X0143307Y0276821D01*
G75*
G02*
X0142716Y0276231I-000591J0000000D01*
G01*
X0141535Y0276231D01*
G75*
G02*
X0140944Y0276821I0000000J0000591D01*
G01*
X0140944Y0280857D01*
G75*
G02*
X0141535Y0281447I0000591J0000000D01*
G01*
G37*
G36*
G01*
X0137795Y0281447D02*
X0138976Y0281447D01*
G75*
G02*
X0139567Y0280857I0000000J-000591D01*
G01*
X0139567Y0276821D01*
G75*
G02*
X0138976Y0276231I-000591J0000000D01*
G01*
X0137795Y0276231D01*
G75*
G02*
X0137204Y0276821I0000000J0000591D01*
G01*
X0137204Y0280857D01*
G75*
G02*
X0137795Y0281447I0000591J0000000D01*
G01*
G37*
G36*
G01*
X0137795Y0272490D02*
X0138976Y0272490D01*
G75*
G02*
X0139567Y0271900I0000000J-000591D01*
G01*
X0139567Y0267864D01*
G75*
G02*
X0138976Y0267274I-000591J0000000D01*
G01*
X0137795Y0267274D01*
G75*
G02*
X0137204Y0267864I0000000J0000591D01*
G01*
X0137204Y0271900D01*
G75*
G02*
X0137795Y0272490I0000591J0000000D01*
G01*
G37*
G36*
G01*
X0141535Y0272490D02*
X0142716Y0272490D01*
G75*
G02*
X0143307Y0271900I0000000J-000591D01*
G01*
X0143307Y0267864D01*
G75*
G02*
X0142716Y0267274I-000591J0000000D01*
G01*
X0141535Y0267274D01*
G75*
G02*
X0140944Y0267864I0000000J0000591D01*
G01*
X0140944Y0271900D01*
G75*
G02*
X0141535Y0272490I0000591J0000000D01*
G01*
G37*
G36*
G01*
X0145275Y0272490D02*
X0146456Y0272490D01*
G75*
G02*
X0147047Y0271900I0000000J-000591D01*
G01*
X0147047Y0267864D01*
G75*
G02*
X0146456Y0267274I-000591J0000000D01*
G01*
X0145275Y0267274D01*
G75*
G02*
X0144685Y0267864I0000000J0000591D01*
G01*
X0144685Y0271900D01*
G75*
G02*
X0145275Y0272490I0000591J0000000D01*
G01*
G37*
G36*
G01*
X0173641Y0288898D02*
X0173641Y0290236D01*
G75*
G02*
X0174192Y0290788I0000551J0000000D01*
G01*
X0175295Y0290788D01*
G75*
G02*
X0175846Y0290236I0000000J-000551D01*
G01*
X0175846Y0288898D01*
G75*
G02*
X0175295Y0288347I-000551J0000000D01*
G01*
X0174192Y0288347D01*
G75*
G02*
X0173641Y0288898I0000000J0000551D01*
G01*
G37*
G36*
G01*
X0177421Y0288898D02*
X0177421Y0290236D01*
G75*
G02*
X0177972Y0290788I0000551J0000000D01*
G01*
X0179074Y0290788D01*
G75*
G02*
X0179626Y0290236I0000000J-000551D01*
G01*
X0179626Y0288898D01*
G75*
G02*
X0179074Y0288347I-000551J0000000D01*
G01*
X0177972Y0288347D01*
G75*
G02*
X0177421Y0288898I0000000J0000551D01*
G01*
G37*
G36*
G01*
X0144133Y0228268D02*
X0144133Y0229607D01*
G75*
G02*
X0144685Y0230158I0000551J0000000D01*
G01*
X0145787Y0230158D01*
G75*
G02*
X0146338Y0229607I0000000J-000551D01*
G01*
X0146338Y0228268D01*
G75*
G02*
X0145787Y0227717I-000551J0000000D01*
G01*
X0144685Y0227717D01*
G75*
G02*
X0144133Y0228268I0000000J0000551D01*
G01*
G37*
G36*
G01*
X0147913Y0228268D02*
X0147913Y0229607D01*
G75*
G02*
X0148464Y0230158I0000551J0000000D01*
G01*
X0149567Y0230158D01*
G75*
G02*
X0150118Y0229607I0000000J-000551D01*
G01*
X0150118Y0228268D01*
G75*
G02*
X0149567Y0227717I-000551J0000000D01*
G01*
X0148464Y0227717D01*
G75*
G02*
X0147913Y0228268I0000000J0000551D01*
G01*
G37*
G36*
G01*
X0185177Y0237717D02*
X0183720Y0237717D01*
G75*
G02*
X0183189Y0238248I0000000J0000531D01*
G01*
X0183189Y0239311D01*
G75*
G02*
X0183720Y0239843I0000531J0000000D01*
G01*
X0185177Y0239843D01*
G75*
G02*
X0185708Y0239311I0000000J-000531D01*
G01*
X0185708Y0238248D01*
G75*
G02*
X0185177Y0237717I-000531J0000000D01*
G01*
G37*
G36*
G01*
X0185177Y0241732D02*
X0183720Y0241732D01*
G75*
G02*
X0183189Y0242264I0000000J0000531D01*
G01*
X0183189Y0243327D01*
G75*
G02*
X0183720Y0243858I0000531J0000000D01*
G01*
X0185177Y0243858D01*
G75*
G02*
X0185708Y0243327I0000000J-000531D01*
G01*
X0185708Y0242264D01*
G75*
G02*
X0185177Y0241732I-000531J0000000D01*
G01*
G37*
G36*
G01*
X0185118Y0245551D02*
X0183779Y0245551D01*
G75*
G02*
X0183228Y0246103I0000000J0000551D01*
G01*
X0183228Y0247205D01*
G75*
G02*
X0183779Y0247756I0000551J0000000D01*
G01*
X0185118Y0247756D01*
G75*
G02*
X0185669Y0247205I0000000J-000551D01*
G01*
X0185669Y0246103D01*
G75*
G02*
X0185118Y0245551I-000551J0000000D01*
G01*
G37*
G36*
G01*
X0185118Y0249331D02*
X0183779Y0249331D01*
G75*
G02*
X0183228Y0249882I0000000J0000551D01*
G01*
X0183228Y0250984D01*
G75*
G02*
X0183779Y0251536I0000551J0000000D01*
G01*
X0185118Y0251536D01*
G75*
G02*
X0185669Y0250984I0000000J-000551D01*
G01*
X0185669Y0249882D01*
G75*
G02*
X0185118Y0249331I-000551J0000000D01*
G01*
G37*
G36*
G01*
X0136476Y0249921D02*
X0137933Y0249921D01*
G75*
G02*
X0138464Y0249390I0000000J-000531D01*
G01*
X0138464Y0248327D01*
G75*
G02*
X0137933Y0247795I-000531J0000000D01*
G01*
X0136476Y0247795D01*
G75*
G02*
X0135944Y0248327I0000000J0000531D01*
G01*
X0135944Y0249390D01*
G75*
G02*
X0136476Y0249921I0000531J0000000D01*
G01*
G37*
G36*
G01*
X0136476Y0245906D02*
X0137933Y0245906D01*
G75*
G02*
X0138464Y0245374I0000000J-000531D01*
G01*
X0138464Y0244311D01*
G75*
G02*
X0137933Y0243780I-000531J0000000D01*
G01*
X0136476Y0243780D01*
G75*
G02*
X0135944Y0244311I0000000J0000531D01*
G01*
X0135944Y0245374D01*
G75*
G02*
X0136476Y0245906I0000531J0000000D01*
G01*
G37*
G36*
G01*
X0194488Y0284843D02*
X0195669Y0284843D01*
G75*
G02*
X0196259Y0284252I0000000J-000591D01*
G01*
X0196259Y0280217D01*
G75*
G02*
X0195669Y0279626I-000591J0000000D01*
G01*
X0194488Y0279626D01*
G75*
G02*
X0193897Y0280217I0000000J0000591D01*
G01*
X0193897Y0284252D01*
G75*
G02*
X0194488Y0284843I0000591J0000000D01*
G01*
G37*
G36*
G01*
X0190748Y0284843D02*
X0191929Y0284843D01*
G75*
G02*
X0192519Y0284252I0000000J-000591D01*
G01*
X0192519Y0280217D01*
G75*
G02*
X0191929Y0279626I-000591J0000000D01*
G01*
X0190748Y0279626D01*
G75*
G02*
X0190157Y0280217I0000000J0000591D01*
G01*
X0190157Y0284252D01*
G75*
G02*
X0190748Y0284843I0000591J0000000D01*
G01*
G37*
G36*
G01*
X0187007Y0284843D02*
X0188189Y0284843D01*
G75*
G02*
X0188779Y0284252I0000000J-000591D01*
G01*
X0188779Y0280217D01*
G75*
G02*
X0188189Y0279626I-000591J0000000D01*
G01*
X0187007Y0279626D01*
G75*
G02*
X0186417Y0280217I0000000J0000591D01*
G01*
X0186417Y0284252D01*
G75*
G02*
X0187007Y0284843I0000591J0000000D01*
G01*
G37*
G36*
G01*
X0187007Y0275886D02*
X0188189Y0275886D01*
G75*
G02*
X0188779Y0275295I0000000J-000591D01*
G01*
X0188779Y0271260D01*
G75*
G02*
X0188189Y0270669I-000591J0000000D01*
G01*
X0187007Y0270669D01*
G75*
G02*
X0186417Y0271260I0000000J0000591D01*
G01*
X0186417Y0275295D01*
G75*
G02*
X0187007Y0275886I0000591J0000000D01*
G01*
G37*
G36*
G01*
X0194488Y0275886D02*
X0195669Y0275886D01*
G75*
G02*
X0196259Y0275295I0000000J-000591D01*
G01*
X0196259Y0271260D01*
G75*
G02*
X0195669Y0270669I-000591J0000000D01*
G01*
X0194488Y0270669D01*
G75*
G02*
X0193897Y0271260I0000000J0000591D01*
G01*
X0193897Y0275295D01*
G75*
G02*
X0194488Y0275886I0000591J0000000D01*
G01*
G37*
G36*
G01*
X0179626Y0294173D02*
X0179626Y0292835D01*
G75*
G02*
X0179074Y0292284I-000551J0000000D01*
G01*
X0177972Y0292284D01*
G75*
G02*
X0177421Y0292835I0000000J0000551D01*
G01*
X0177421Y0294173D01*
G75*
G02*
X0177972Y0294725I0000551J0000000D01*
G01*
X0179074Y0294725D01*
G75*
G02*
X0179626Y0294173I0000000J-000551D01*
G01*
G37*
G36*
G01*
X0175846Y0294173D02*
X0175846Y0292835D01*
G75*
G02*
X0175295Y0292284I-000551J0000000D01*
G01*
X0174192Y0292284D01*
G75*
G02*
X0173641Y0292835I0000000J0000551D01*
G01*
X0173641Y0294173D01*
G75*
G02*
X0174192Y0294725I0000551J0000000D01*
G01*
X0175295Y0294725D01*
G75*
G02*
X0175846Y0294173I0000000J-000551D01*
G01*
G37*
X0243612Y0001778D02*
G01*
G75*
D139*
X0255029Y0014790D02*
D03*
X0251289Y0005538D02*
D03*
D139*
X0247549Y0014790D02*
D03*
D140*
X0262588Y0026404D02*
D03*
X0262588Y0021404D02*
D03*
X0262588Y0016404D02*
D03*
X0262588Y0011404D02*
D03*
X0281486Y0026404D02*
D03*
X0281486Y0021404D02*
D03*
X0281486Y0016404D02*
D03*
X0281486Y0011404D02*
D03*
D85*
X0278297Y0006109D02*
D03*
X0284517Y0006109D02*
D03*
X0269951Y0006109D02*
D03*
X0263730Y0006109D02*
D03*
D141*
X0248139Y0019691D02*
D03*
X0254439Y0019691D02*
D03*
D21*
X0258769Y0003648D02*
D03*
M02*
