G75*
G70*
%OFA0B0*%
%FSLAX25Y25*%
%IPPOS*%
%LPD*%
%AMOC8*
5,1,8,0,0,1.08239X$1,22.5*
%
%AMM183*
21,1,0.041340,0.026770,0.000000,-0.000000,270.000000*
21,1,0.029130,0.038980,0.000000,-0.000000,270.000000*
1,1,0.012210,-0.013390,-0.014570*
1,1,0.012210,-0.013390,0.014570*
1,1,0.012210,0.013390,0.014570*
1,1,0.012210,0.013390,-0.014570*
%
%AMM185*
21,1,0.076380,0.036220,0.000000,-0.000000,0.000000*
21,1,0.061810,0.050790,0.000000,-0.000000,0.000000*
1,1,0.014570,0.030910,-0.018110*
1,1,0.014570,-0.030910,-0.018110*
1,1,0.014570,-0.030910,0.018110*
1,1,0.014570,0.030910,0.018110*
%
%AMM188*
21,1,0.029130,0.018900,0.000000,-0.000000,0.000000*
21,1,0.018900,0.029130,0.000000,-0.000000,0.000000*
1,1,0.010240,0.009450,-0.009450*
1,1,0.010240,-0.009450,-0.009450*
1,1,0.010240,-0.009450,0.009450*
1,1,0.010240,0.009450,0.009450*
%
%AMM189*
21,1,0.025200,0.019680,0.000000,-0.000000,270.000000*
21,1,0.015750,0.029130,0.000000,-0.000000,270.000000*
1,1,0.009450,-0.009840,-0.007870*
1,1,0.009450,-0.009840,0.007870*
1,1,0.009450,0.009840,0.007870*
1,1,0.009450,0.009840,-0.007870*
%
%AMM190*
21,1,0.025200,0.019680,0.000000,-0.000000,180.000000*
21,1,0.015750,0.029130,0.000000,-0.000000,180.000000*
1,1,0.009450,-0.007870,0.009840*
1,1,0.009450,0.007870,0.009840*
1,1,0.009450,0.007870,-0.009840*
1,1,0.009450,-0.007870,-0.009840*
%
%AMM196*
21,1,0.111810,0.050390,0.000000,-0.000000,0.000000*
21,1,0.093700,0.068500,0.000000,-0.000000,0.000000*
1,1,0.018110,0.046850,-0.025200*
1,1,0.018110,-0.046850,-0.025200*
1,1,0.018110,-0.046850,0.025200*
1,1,0.018110,0.046850,0.025200*
%
%AMM197*
21,1,0.038980,0.026770,0.000000,-0.000000,180.000000*
21,1,0.026770,0.038980,0.000000,-0.000000,180.000000*
1,1,0.012210,-0.013390,0.013390*
1,1,0.012210,0.013390,0.013390*
1,1,0.012210,0.013390,-0.013390*
1,1,0.012210,-0.013390,-0.013390*
%
%AMM198*
21,1,0.029130,0.018900,0.000000,-0.000000,90.000000*
21,1,0.018900,0.029130,0.000000,-0.000000,90.000000*
1,1,0.010240,0.009450,0.009450*
1,1,0.010240,0.009450,-0.009450*
1,1,0.010240,-0.009450,-0.009450*
1,1,0.010240,-0.009450,0.009450*
%
%AMM199*
21,1,0.127560,0.075590,0.000000,-0.000000,90.000000*
21,1,0.103150,0.100000,0.000000,-0.000000,90.000000*
1,1,0.024410,0.037800,0.051580*
1,1,0.024410,0.037800,-0.051580*
1,1,0.024410,-0.037800,-0.051580*
1,1,0.024410,-0.037800,0.051580*
%
%AMM200*
21,1,0.123620,0.083460,0.000000,-0.000000,270.000000*
21,1,0.097240,0.109840,0.000000,-0.000000,270.000000*
1,1,0.026380,-0.041730,-0.048620*
1,1,0.026380,-0.041730,0.048620*
1,1,0.026380,0.041730,0.048620*
1,1,0.026380,0.041730,-0.048620*
%
%AMM273*
21,1,0.031500,0.018900,-0.000000,-0.000000,0.000000*
21,1,0.022840,0.027560,-0.000000,-0.000000,0.000000*
1,1,0.008660,0.011420,-0.009450*
1,1,0.008660,-0.011420,-0.009450*
1,1,0.008660,-0.011420,0.009450*
1,1,0.008660,0.011420,0.009450*
%
%AMM276*
21,1,0.029530,0.026380,-0.000000,-0.000000,270.000000*
21,1,0.020470,0.035430,-0.000000,-0.000000,270.000000*
1,1,0.009060,-0.013190,-0.010240*
1,1,0.009060,-0.013190,0.010240*
1,1,0.009060,0.013190,0.010240*
1,1,0.009060,0.013190,-0.010240*
%
%AMM277*
21,1,0.021650,0.027950,-0.000000,-0.000000,270.000000*
21,1,0.014170,0.035430,-0.000000,-0.000000,270.000000*
1,1,0.007480,-0.013980,-0.007090*
1,1,0.007480,-0.013980,0.007090*
1,1,0.007480,0.013980,0.007090*
1,1,0.007480,0.013980,-0.007090*
%
%AMM279*
21,1,0.016540,0.028980,-0.000000,-0.000000,270.000000*
21,1,0.010080,0.035430,-0.000000,-0.000000,270.000000*
1,1,0.006460,-0.014490,-0.005040*
1,1,0.006460,-0.014490,0.005040*
1,1,0.006460,0.014490,0.005040*
1,1,0.006460,0.014490,-0.005040*
%
%AMM282*
21,1,0.031500,0.018900,-0.000000,-0.000000,270.000000*
21,1,0.022840,0.027560,-0.000000,-0.000000,270.000000*
1,1,0.008660,-0.009450,-0.011420*
1,1,0.008660,-0.009450,0.011420*
1,1,0.008660,0.009450,0.011420*
1,1,0.008660,0.009450,-0.011420*
%
%AMM293*
21,1,0.062990,0.020470,-0.000000,-0.000000,270.000000*
21,1,0.053940,0.029530,-0.000000,-0.000000,270.000000*
1,1,0.009060,-0.010240,-0.026970*
1,1,0.009060,-0.010240,0.026970*
1,1,0.009060,0.010240,0.026970*
1,1,0.009060,0.010240,-0.026970*
%
%AMM294*
21,1,0.082680,0.045670,-0.000000,-0.000000,270.000000*
21,1,0.067320,0.061020,-0.000000,-0.000000,270.000000*
1,1,0.015350,-0.022840,-0.033660*
1,1,0.015350,-0.022840,0.033660*
1,1,0.015350,0.022840,0.033660*
1,1,0.015350,0.022840,-0.033660*
%
%AMM295*
21,1,0.039760,0.026770,-0.000000,-0.000000,180.000000*
21,1,0.029130,0.037400,-0.000000,-0.000000,180.000000*
1,1,0.010630,-0.014570,0.013390*
1,1,0.010630,0.014570,0.013390*
1,1,0.010630,0.014570,-0.013390*
1,1,0.010630,-0.014570,-0.013390*
%
%AMM296*
21,1,0.029530,0.026380,-0.000000,-0.000000,180.000000*
21,1,0.020470,0.035430,-0.000000,-0.000000,180.000000*
1,1,0.009060,-0.010240,0.013190*
1,1,0.009060,0.010240,0.013190*
1,1,0.009060,0.010240,-0.013190*
1,1,0.009060,-0.010240,-0.013190*
%
%AMM297*
21,1,0.021650,0.027950,-0.000000,-0.000000,180.000000*
21,1,0.014170,0.035430,-0.000000,-0.000000,180.000000*
1,1,0.007480,-0.007090,0.013980*
1,1,0.007480,0.007090,0.013980*
1,1,0.007480,0.007090,-0.013980*
1,1,0.007480,-0.007090,-0.013980*
%
%AMM298*
21,1,0.039370,0.030320,-0.000000,-0.000000,90.000000*
21,1,0.028350,0.041340,-0.000000,-0.000000,90.000000*
1,1,0.011020,0.015160,0.014170*
1,1,0.011020,0.015160,-0.014170*
1,1,0.011020,-0.015160,-0.014170*
1,1,0.011020,-0.015160,0.014170*
%
%AMM299*
21,1,0.031500,0.030710,-0.000000,-0.000000,270.000000*
21,1,0.022050,0.040160,-0.000000,-0.000000,270.000000*
1,1,0.009450,-0.015350,-0.011020*
1,1,0.009450,-0.015350,0.011020*
1,1,0.009450,0.015350,0.011020*
1,1,0.009450,0.015350,-0.011020*
%
%AMM300*
21,1,0.031500,0.049610,-0.000000,-0.000000,90.000000*
21,1,0.022050,0.059060,-0.000000,-0.000000,90.000000*
1,1,0.009450,0.024800,0.011020*
1,1,0.009450,0.024800,-0.011020*
1,1,0.009450,-0.024800,-0.011020*
1,1,0.009450,-0.024800,0.011020*
%
%AMM301*
21,1,0.031500,0.030710,-0.000000,-0.000000,180.000000*
21,1,0.022050,0.040160,-0.000000,-0.000000,180.000000*
1,1,0.009450,-0.011020,0.015350*
1,1,0.009450,0.011020,0.015350*
1,1,0.009450,0.011020,-0.015350*
1,1,0.009450,-0.011020,-0.015350*
%
%AMM302*
21,1,0.074800,0.036220,-0.000000,-0.000000,180.000000*
21,1,0.061810,0.049210,-0.000000,-0.000000,180.000000*
1,1,0.012990,-0.030910,0.018110*
1,1,0.012990,0.030910,0.018110*
1,1,0.012990,0.030910,-0.018110*
1,1,0.012990,-0.030910,-0.018110*
%
%AMM303*
21,1,0.037400,0.026770,-0.000000,-0.000000,90.000000*
21,1,0.026770,0.037400,-0.000000,-0.000000,90.000000*
1,1,0.010630,0.013390,0.013390*
1,1,0.010630,0.013390,-0.013390*
1,1,0.010630,-0.013390,-0.013390*
1,1,0.010630,-0.013390,0.013390*
%
%AMM304*
21,1,0.039370,0.030320,-0.000000,-0.000000,180.000000*
21,1,0.028350,0.041340,-0.000000,-0.000000,180.000000*
1,1,0.011020,-0.014170,0.015160*
1,1,0.011020,0.014170,0.015160*
1,1,0.011020,0.014170,-0.015160*
1,1,0.011020,-0.014170,-0.015160*
%
%ADD10C,0.06000*%
%ADD11C,0.06693*%
%ADD114C,0.02913*%
%ADD115C,0.06457*%
%ADD191C,0.04294*%
%ADD192C,0.04724*%
%ADD21C,0.02362*%
%ADD211R,0.09843X0.07087*%
%ADD22C,0.05906*%
%ADD220O,0.05354X0.01378*%
%ADD222R,0.01378X0.01772*%
%ADD223R,0.01772X0.01378*%
%ADD270O,0.09213X0.02520*%
%ADD326M183*%
%ADD328M185*%
%ADD331M188*%
%ADD332M189*%
%ADD333M190*%
%ADD339M196*%
%ADD340M197*%
%ADD341M198*%
%ADD342M199*%
%ADD343M200*%
%ADD39C,0.07874*%
%ADD434M273*%
%ADD437M276*%
%ADD438M277*%
%ADD440M279*%
%ADD443M282*%
%ADD454M293*%
%ADD455M294*%
%ADD456M295*%
%ADD457M296*%
%ADD458M297*%
%ADD459M298*%
%ADD460M299*%
%ADD461M300*%
%ADD462M301*%
%ADD463M302*%
%ADD464M303*%
%ADD465M304*%
%ADD54C,0.03937*%
%ADD62C,0.00472*%
%ADD63O,0.11417X0.23228*%
%ADD64O,0.09449X0.11417*%
X0000000Y0000000D02*
%LPD*%
G01*
G36*
X0077559Y0000787D02*
G01*
X0026378Y0000787D01*
X0026378Y0028346D01*
X0077559Y0028346D01*
X0077559Y0000787D01*
G37*
D62*
X0077559Y0000787D02*
X0026378Y0000787D01*
X0026378Y0028346D01*
X0077559Y0028346D01*
X0077559Y0000787D01*
G36*
G01*
X0025197Y0229970D02*
X0026378Y0229970D01*
G75*
G02*
X0026969Y0229380I0000000J-000591D01*
G01*
X0026969Y0224754D01*
G75*
G02*
X0026378Y0224163I-000591J0000000D01*
G01*
X0025197Y0224163D01*
G75*
G02*
X0024606Y0224754I0000000J0000591D01*
G01*
X0024606Y0229380D01*
G75*
G02*
X0025197Y0229970I0000591J0000000D01*
G01*
G37*
G36*
G01*
X0032677Y0229970D02*
X0033858Y0229970D01*
G75*
G02*
X0034449Y0229380I0000000J-000591D01*
G01*
X0034449Y0224754D01*
G75*
G02*
X0033858Y0224163I-000591J0000000D01*
G01*
X0032677Y0224163D01*
G75*
G02*
X0032087Y0224754I0000000J0000591D01*
G01*
X0032087Y0229380D01*
G75*
G02*
X0032677Y0229970I0000591J0000000D01*
G01*
G37*
G36*
G01*
X0028937Y0222589D02*
X0030118Y0222589D01*
G75*
G02*
X0030709Y0221998I0000000J-000591D01*
G01*
X0030709Y0217372D01*
G75*
G02*
X0030118Y0216781I-000591J0000000D01*
G01*
X0028937Y0216781D01*
G75*
G02*
X0028346Y0217372I0000000J0000591D01*
G01*
X0028346Y0221998D01*
G75*
G02*
X0028937Y0222589I0000591J0000000D01*
G01*
G37*
G36*
G01*
X0028937Y0206841D02*
X0030118Y0206841D01*
G75*
G02*
X0030709Y0206250I0000000J-000591D01*
G01*
X0030709Y0201624D01*
G75*
G02*
X0030118Y0201033I-000591J0000000D01*
G01*
X0028937Y0201033D01*
G75*
G02*
X0028346Y0201624I0000000J0000591D01*
G01*
X0028346Y0206250D01*
G75*
G02*
X0028937Y0206841I0000591J0000000D01*
G01*
G37*
G36*
G01*
X0032677Y0214222D02*
X0033858Y0214222D01*
G75*
G02*
X0034449Y0213632I0000000J-000591D01*
G01*
X0034449Y0209006D01*
G75*
G02*
X0033858Y0208415I-000591J0000000D01*
G01*
X0032677Y0208415D01*
G75*
G02*
X0032087Y0209006I0000000J0000591D01*
G01*
X0032087Y0213632D01*
G75*
G02*
X0032677Y0214222I0000591J0000000D01*
G01*
G37*
G36*
G01*
X0025197Y0214222D02*
X0026378Y0214222D01*
G75*
G02*
X0026969Y0213632I0000000J-000591D01*
G01*
X0026969Y0209006D01*
G75*
G02*
X0026378Y0208415I-000591J0000000D01*
G01*
X0025197Y0208415D01*
G75*
G02*
X0024606Y0209006I0000000J0000591D01*
G01*
X0024606Y0213632D01*
G75*
G02*
X0025197Y0214222I0000591J0000000D01*
G01*
G37*
D10*
X0196206Y0326364D03*
X0196206Y0341364D03*
X0188514Y0326449D03*
X0188514Y0341449D03*
X0144488Y0341535D03*
X0144488Y0322244D03*
D11*
X0243929Y0287795D03*
D10*
X0096457Y0326358D03*
X0096457Y0341358D03*
X0292539Y0407087D03*
X0277539Y0407087D03*
D54*
X0105157Y0025492D03*
X0122480Y0025492D03*
D10*
X0153150Y0326358D03*
X0153150Y0341358D03*
D21*
X0273927Y0007192D03*
X0270482Y0009259D03*
X0275108Y0012211D03*
X0274813Y0026188D03*
D10*
X0178740Y0326358D03*
X0178740Y0341358D03*
D11*
X0237795Y0007480D03*
D22*
X0126280Y0219193D03*
X0101083Y0219193D03*
X0093602Y0219193D03*
X0076673Y0219193D03*
D21*
X0067224Y0217421D03*
X0063287Y0217421D03*
D22*
X0052067Y0219193D03*
X0128051Y0280217D03*
X0120768Y0280217D03*
X0101280Y0280217D03*
X0053839Y0280217D03*
D21*
X0137106Y0227165D03*
X0166634Y0227165D03*
X0169783Y0227165D03*
X0172933Y0227165D03*
X0144587Y0296161D03*
X0140650Y0296161D03*
D10*
X0170472Y0326358D03*
X0170472Y0341358D03*
X0118110Y0326358D03*
X0118110Y0341358D03*
X0215929Y0341339D03*
X0215929Y0322047D03*
X0277539Y0389370D03*
X0292539Y0389370D03*
X0161811Y0341535D03*
X0161811Y0322244D03*
X0224929Y0326358D03*
X0224929Y0341358D03*
X0232929Y0326358D03*
X0232929Y0341358D03*
X0292539Y0397638D03*
X0277539Y0397638D03*
X0240929Y0326547D03*
X0240929Y0341547D03*
D63*
X0249606Y0388185D03*
X0092913Y0388185D03*
D64*
X0121063Y0364563D03*
X0136811Y0364563D03*
X0150591Y0364563D03*
X0164370Y0364563D03*
X0178150Y0364563D03*
X0191929Y0364563D03*
X0205709Y0364563D03*
X0221457Y0364563D03*
X0121063Y0380311D03*
X0136811Y0380311D03*
X0150591Y0380311D03*
X0164370Y0380311D03*
X0178150Y0380311D03*
X0191929Y0380311D03*
X0205709Y0380311D03*
X0221457Y0380311D03*
X0121063Y0396059D03*
X0136811Y0396059D03*
X0150591Y0396059D03*
X0164370Y0396059D03*
X0178150Y0396059D03*
X0191929Y0396059D03*
X0205709Y0396059D03*
X0221457Y0396059D03*
D10*
X0107087Y0326358D03*
X0107087Y0341358D03*
X0135827Y0326358D03*
X0135827Y0341358D03*
D11*
X0237795Y0018898D03*
D10*
X0127165Y0341142D03*
X0127165Y0321850D03*
X0204929Y0341535D03*
X0204929Y0322244D03*
D11*
X0262205Y0245276D03*
X0240157Y0245276D03*
D39*
X0008858Y0103543D03*
X0049508Y0282776D02*
G01*
G75*
D326*
X0125886Y0265853D02*
D03*
X0125886Y0252861D02*
D03*
D328*
X0126280Y0244418D02*
D03*
X0126280Y0233001D02*
D03*
X0118248Y0244418D02*
D03*
X0118248Y0233001D02*
D03*
D331*
X0108169Y0270374D02*
D03*
X0104232Y0270374D02*
D03*
X0118799Y0265059D02*
D03*
X0118799Y0273721D02*
D03*
X0113551Y0265847D02*
D03*
X0113551Y0274508D02*
D03*
D332*
X0060925Y0266165D02*
D03*
X0060925Y0262621D02*
D03*
X0097658Y0249686D02*
D03*
X0097658Y0253230D02*
D03*
X0112763Y0257684D02*
D03*
X0112763Y0261227D02*
D03*
X0060925Y0257546D02*
D03*
X0060925Y0254003D02*
D03*
X0064862Y0270965D02*
D03*
X0064862Y0274508D02*
D03*
D333*
X0071967Y0221026D02*
D03*
X0068423Y0221026D02*
D03*
X0117882Y0249023D02*
D03*
X0114338Y0249023D02*
D03*
X0123196Y0269790D02*
D03*
X0126740Y0269790D02*
D03*
D114*
X0067618Y0217028D02*
D03*
X0063681Y0217028D02*
D03*
D115*
X0121161Y0279823D02*
D03*
X0054232Y0279823D02*
D03*
X0101673Y0279823D02*
D03*
X0101476Y0218800D02*
D03*
X0126673Y0218800D02*
D03*
X0077067Y0218800D02*
D03*
X0093996Y0218800D02*
D03*
X0052461Y0218800D02*
D03*
X0128445Y0279823D02*
D03*
D339*
X0105807Y0244587D02*
D03*
X0105807Y0233563D02*
D03*
D340*
X0107704Y0266241D02*
D03*
X0101484Y0266241D02*
D03*
X0107704Y0252147D02*
D03*
X0101484Y0252147D02*
D03*
X0107704Y0256838D02*
D03*
X0101484Y0256838D02*
D03*
X0107704Y0261530D02*
D03*
X0101484Y0261530D02*
D03*
X0119949Y0253328D02*
D03*
X0113728Y0253328D02*
D03*
D341*
X0064862Y0266755D02*
D03*
X0064862Y0262818D02*
D03*
X0064862Y0254200D02*
D03*
X0064862Y0258137D02*
D03*
X0118799Y0257487D02*
D03*
X0118799Y0261424D02*
D03*
X0097185Y0234554D02*
D03*
X0097185Y0238491D02*
D03*
X0059744Y0234652D02*
D03*
X0059744Y0230715D02*
D03*
D342*
X0082940Y0265204D02*
D03*
D270*
X0094259Y0272704D02*
D03*
X0094259Y0267704D02*
D03*
X0094259Y0262704D02*
D03*
X0094259Y0257704D02*
D03*
X0071622Y0272704D02*
D03*
X0071622Y0267704D02*
D03*
X0071622Y0262704D02*
D03*
X0071622Y0257704D02*
D03*
X0089764Y0249637D02*
D03*
X0089764Y0244637D02*
D03*
X0089764Y0239637D02*
D03*
X0089764Y0234637D02*
D03*
X0066339Y0249637D02*
D03*
X0066339Y0244637D02*
D03*
X0066339Y0239637D02*
D03*
X0066339Y0234637D02*
D03*
D343*
X0078051Y0242137D02*
D03*
X0133661Y0297638D02*
%LPD*%
G01*
D21*
X0137106Y0227166D03*
X0166633Y0227166D03*
X0169783Y0227166D03*
X0172933Y0227166D03*
X0144586Y0296162D03*
X0140649Y0296162D03*
X0316437Y0216437D02*
G01*
G75*
D434*
D03*
D03*
D03*
D03*
D03*
D03*
D03*
D03*
D03*
D03*
D03*
D03*
D03*
D03*
D03*
D03*
D03*
D03*
D03*
D03*
D03*
D03*
D03*
D03*
D03*
D03*
D03*
D03*
D03*
D03*
D03*
D03*
D03*
D03*
D03*
D03*
D03*
D03*
D03*
D03*
D03*
D03*
D03*
D03*
D03*
D03*
D03*
D03*
D03*
D03*
D03*
D03*
D03*
D03*
D03*
D03*
D03*
D03*
D03*
D03*
D03*
D03*
D03*
D03*
D03*
D03*
D03*
D03*
D03*
D03*
D03*
D03*
D03*
D03*
D03*
D03*
D03*
D03*
D03*
D03*
D03*
D03*
D03*
D03*
D03*
D03*
D03*
D03*
D03*
D03*
D03*
D03*
D03*
D03*
D03*
D03*
D03*
D03*
D03*
D03*
D03*
D03*
D03*
D03*
D03*
D03*
D03*
D03*
D03*
D03*
D03*
D03*
D03*
D03*
D03*
D03*
D437*
D03*
D03*
D03*
D03*
D03*
D03*
D03*
D03*
D03*
D03*
D03*
D03*
D03*
D03*
D03*
D03*
D03*
D03*
D03*
D03*
D03*
D03*
D03*
D03*
D03*
D03*
D03*
D03*
D03*
D03*
D03*
D03*
D03*
D03*
D03*
D03*
D03*
D03*
D03*
D03*
D03*
D03*
D03*
D03*
D438*
D03*
D03*
D03*
D03*
D03*
D03*
D03*
D03*
D03*
D03*
D03*
D03*
D03*
D03*
D03*
D03*
D03*
D03*
D03*
D03*
D03*
D03*
D03*
D03*
D03*
D03*
D03*
D03*
D03*
D03*
D03*
D03*
D03*
D03*
D03*
D03*
D03*
D03*
D03*
D03*
D03*
D03*
D03*
D03*
D440*
D03*
D03*
D03*
D03*
D03*
D443*
D03*
D03*
D03*
D03*
D03*
D03*
D03*
D03*
D03*
D03*
D03*
D03*
D03*
D03*
D03*
D03*
D03*
D03*
D03*
D03*
D03*
D03*
D03*
D03*
D03*
D03*
D03*
D03*
D03*
D03*
D03*
D03*
D03*
D03*
D03*
D03*
D03*
D03*
D03*
D03*
D03*
D03*
D03*
D03*
D03*
D03*
D03*
D03*
D03*
D03*
D03*
D03*
D03*
D03*
D03*
D03*
D03*
D03*
D03*
D03*
D03*
D03*
D03*
D03*
D03*
D03*
D03*
D03*
D03*
D03*
D03*
D03*
D03*
D03*
D03*
D03*
D03*
D03*
D03*
D03*
D03*
D03*
D03*
D03*
D03*
D03*
D03*
D03*
D03*
D03*
D191*
D03*
D03*
D03*
D192*
D03*
D03*
D03*
D03*
D03*
D03*
D03*
D22*
D03*
D454*
D03*
D03*
D03*
D03*
D03*
D03*
D03*
D03*
D455*
D03*
D03*
D03*
D03*
D456*
D03*
D03*
D03*
D03*
D211*
D03*
D03*
D457*
D03*
D03*
D03*
D03*
D03*
D03*
D03*
D03*
D03*
D03*
D03*
D03*
D03*
D03*
D03*
D03*
D03*
D03*
D03*
D03*
D03*
D03*
D03*
D03*
D03*
D03*
D03*
D03*
D03*
D03*
D03*
D03*
D03*
D03*
D03*
D03*
D03*
D03*
D03*
D03*
D03*
D03*
D03*
D03*
D03*
D03*
D03*
D03*
D03*
D03*
D03*
D03*
D458*
D03*
D03*
D03*
D03*
D03*
D03*
D03*
D03*
D03*
D03*
D03*
D03*
D03*
D03*
D03*
D03*
D03*
D03*
D03*
D03*
D03*
D03*
D03*
D03*
D03*
D03*
D03*
D03*
D03*
D03*
D03*
D03*
D03*
D03*
D03*
D03*
D03*
D03*
D03*
D03*
D03*
D03*
D03*
D03*
D03*
D03*
D03*
D03*
D03*
D03*
D03*
D03*
D459*
D03*
D03*
D03*
D03*
D459*
D03*
D03*
D460*
D03*
D03*
D03*
D03*
D03*
D03*
D03*
D03*
D461*
D03*
D03*
D462*
D03*
D03*
D03*
D03*
D463*
D03*
D03*
D464*
D03*
D03*
D03*
D03*
D220*
D03*
D03*
D03*
D03*
D03*
D03*
D03*
D03*
D03*
D03*
D03*
D03*
D03*
D03*
D03*
D03*
D03*
D03*
D03*
D03*
D03*
D03*
D03*
D03*
D465*
D03*
D03*
D03*
D03*
D03*
D03*
D03*
D03*
D465*
D03*
D03*
D03*
D03*
D222*
D03*
D03*
D03*
D03*
D223*
D03*
D03*
D03*
D03*
D03*
D03*
D03*
D03*
X0243612Y0001778D02*
G01*
G75*
D114*
X0274813Y0026187D02*
D03*
X0275108Y0012211D02*
D03*
X0273927Y0007191D02*
D03*
X0270482Y0009258D02*
D03*
M02*
